%TF.GenerationSoftware,KiCad,Pcbnew,5.1.8+dfsg1-1~bpo10+1*%
%TF.CreationDate,2021-01-23T23:31:02+00:00*%
%TF.ProjectId,atlas_btn,61746c61-735f-4627-946e-2e6b69636164,rev?*%
%TF.SameCoordinates,Original*%
%TF.FileFunction,Paste,Bot*%
%TF.FilePolarity,Positive*%
%FSLAX46Y46*%
G04 Gerber Fmt 4.6, Leading zero omitted, Abs format (unit mm)*
G04 Created by KiCad (PCBNEW 5.1.8+dfsg1-1~bpo10+1) date 2021-01-23 23:31:02*
%MOMM*%
%LPD*%
G01*
G04 APERTURE LIST*
%ADD10R,1.550000X1.300000*%
%ADD11R,1.700000X0.900000*%
%ADD12R,2.200000X1.800000*%
%ADD13R,1.300000X0.300000*%
G04 APERTURE END LIST*
%TO.C,R40*%
G36*
G01*
X131770000Y-106623750D02*
X131770000Y-107536250D01*
G75*
G02*
X131526250Y-107780000I-243750J0D01*
G01*
X131038750Y-107780000D01*
G75*
G02*
X130795000Y-107536250I0J243750D01*
G01*
X130795000Y-106623750D01*
G75*
G02*
X131038750Y-106380000I243750J0D01*
G01*
X131526250Y-106380000D01*
G75*
G02*
X131770000Y-106623750I0J-243750D01*
G01*
G37*
G36*
G01*
X133645000Y-106623750D02*
X133645000Y-107536250D01*
G75*
G02*
X133401250Y-107780000I-243750J0D01*
G01*
X132913750Y-107780000D01*
G75*
G02*
X132670000Y-107536250I0J243750D01*
G01*
X132670000Y-106623750D01*
G75*
G02*
X132913750Y-106380000I243750J0D01*
G01*
X133401250Y-106380000D01*
G75*
G02*
X133645000Y-106623750I0J-243750D01*
G01*
G37*
%TD*%
%TO.C,R50*%
G36*
G01*
X166026250Y-105620000D02*
X165113750Y-105620000D01*
G75*
G02*
X164870000Y-105376250I0J243750D01*
G01*
X164870000Y-104888750D01*
G75*
G02*
X165113750Y-104645000I243750J0D01*
G01*
X166026250Y-104645000D01*
G75*
G02*
X166270000Y-104888750I0J-243750D01*
G01*
X166270000Y-105376250D01*
G75*
G02*
X166026250Y-105620000I-243750J0D01*
G01*
G37*
G36*
G01*
X166026250Y-107495000D02*
X165113750Y-107495000D01*
G75*
G02*
X164870000Y-107251250I0J243750D01*
G01*
X164870000Y-106763750D01*
G75*
G02*
X165113750Y-106520000I243750J0D01*
G01*
X166026250Y-106520000D01*
G75*
G02*
X166270000Y-106763750I0J-243750D01*
G01*
X166270000Y-107251250D01*
G75*
G02*
X166026250Y-107495000I-243750J0D01*
G01*
G37*
%TD*%
%TO.C,R48*%
G36*
G01*
X161795000Y-106563750D02*
X161795000Y-107476250D01*
G75*
G02*
X161551250Y-107720000I-243750J0D01*
G01*
X161063750Y-107720000D01*
G75*
G02*
X160820000Y-107476250I0J243750D01*
G01*
X160820000Y-106563750D01*
G75*
G02*
X161063750Y-106320000I243750J0D01*
G01*
X161551250Y-106320000D01*
G75*
G02*
X161795000Y-106563750I0J-243750D01*
G01*
G37*
G36*
G01*
X163670000Y-106563750D02*
X163670000Y-107476250D01*
G75*
G02*
X163426250Y-107720000I-243750J0D01*
G01*
X162938750Y-107720000D01*
G75*
G02*
X162695000Y-107476250I0J243750D01*
G01*
X162695000Y-106563750D01*
G75*
G02*
X162938750Y-106320000I243750J0D01*
G01*
X163426250Y-106320000D01*
G75*
G02*
X163670000Y-106563750I0J-243750D01*
G01*
G37*
%TD*%
%TO.C,R45*%
G36*
G01*
X146257500Y-106663750D02*
X146257500Y-107576250D01*
G75*
G02*
X146013750Y-107820000I-243750J0D01*
G01*
X145526250Y-107820000D01*
G75*
G02*
X145282500Y-107576250I0J243750D01*
G01*
X145282500Y-106663750D01*
G75*
G02*
X145526250Y-106420000I243750J0D01*
G01*
X146013750Y-106420000D01*
G75*
G02*
X146257500Y-106663750I0J-243750D01*
G01*
G37*
G36*
G01*
X148132500Y-106663750D02*
X148132500Y-107576250D01*
G75*
G02*
X147888750Y-107820000I-243750J0D01*
G01*
X147401250Y-107820000D01*
G75*
G02*
X147157500Y-107576250I0J243750D01*
G01*
X147157500Y-106663750D01*
G75*
G02*
X147401250Y-106420000I243750J0D01*
G01*
X147888750Y-106420000D01*
G75*
G02*
X148132500Y-106663750I0J-243750D01*
G01*
G37*
%TD*%
%TO.C,R19*%
G36*
G01*
X155905000Y-100476250D02*
X155905000Y-99563750D01*
G75*
G02*
X156148750Y-99320000I243750J0D01*
G01*
X156636250Y-99320000D01*
G75*
G02*
X156880000Y-99563750I0J-243750D01*
G01*
X156880000Y-100476250D01*
G75*
G02*
X156636250Y-100720000I-243750J0D01*
G01*
X156148750Y-100720000D01*
G75*
G02*
X155905000Y-100476250I0J243750D01*
G01*
G37*
G36*
G01*
X154030000Y-100476250D02*
X154030000Y-99563750D01*
G75*
G02*
X154273750Y-99320000I243750J0D01*
G01*
X154761250Y-99320000D01*
G75*
G02*
X155005000Y-99563750I0J-243750D01*
G01*
X155005000Y-100476250D01*
G75*
G02*
X154761250Y-100720000I-243750J0D01*
G01*
X154273750Y-100720000D01*
G75*
G02*
X154030000Y-100476250I0J243750D01*
G01*
G37*
%TD*%
%TO.C,R18*%
G36*
G01*
X140387500Y-100496250D02*
X140387500Y-99583750D01*
G75*
G02*
X140631250Y-99340000I243750J0D01*
G01*
X141118750Y-99340000D01*
G75*
G02*
X141362500Y-99583750I0J-243750D01*
G01*
X141362500Y-100496250D01*
G75*
G02*
X141118750Y-100740000I-243750J0D01*
G01*
X140631250Y-100740000D01*
G75*
G02*
X140387500Y-100496250I0J243750D01*
G01*
G37*
G36*
G01*
X138512500Y-100496250D02*
X138512500Y-99583750D01*
G75*
G02*
X138756250Y-99340000I243750J0D01*
G01*
X139243750Y-99340000D01*
G75*
G02*
X139487500Y-99583750I0J-243750D01*
G01*
X139487500Y-100496250D01*
G75*
G02*
X139243750Y-100740000I-243750J0D01*
G01*
X138756250Y-100740000D01*
G75*
G02*
X138512500Y-100496250I0J243750D01*
G01*
G37*
%TD*%
%TO.C,R11*%
G36*
G01*
X125885000Y-100496250D02*
X125885000Y-99583750D01*
G75*
G02*
X126128750Y-99340000I243750J0D01*
G01*
X126616250Y-99340000D01*
G75*
G02*
X126860000Y-99583750I0J-243750D01*
G01*
X126860000Y-100496250D01*
G75*
G02*
X126616250Y-100740000I-243750J0D01*
G01*
X126128750Y-100740000D01*
G75*
G02*
X125885000Y-100496250I0J243750D01*
G01*
G37*
G36*
G01*
X124010000Y-100496250D02*
X124010000Y-99583750D01*
G75*
G02*
X124253750Y-99340000I243750J0D01*
G01*
X124741250Y-99340000D01*
G75*
G02*
X124985000Y-99583750I0J-243750D01*
G01*
X124985000Y-100496250D01*
G75*
G02*
X124741250Y-100740000I-243750J0D01*
G01*
X124253750Y-100740000D01*
G75*
G02*
X124010000Y-100496250I0J243750D01*
G01*
G37*
%TD*%
D10*
%TO.C,SW2*%
X135970000Y-107020000D03*
X143920000Y-107020000D03*
X135970000Y-102520000D03*
X143920000Y-102520000D03*
%TD*%
D11*
%TO.C,SW5*%
X168695000Y-103070000D03*
X168695000Y-106470000D03*
%TD*%
D10*
%TO.C,SW4*%
X159420000Y-102520000D03*
X151470000Y-102520000D03*
X159420000Y-107020000D03*
X151470000Y-107020000D03*
%TD*%
%TO.C,SW1*%
X129420000Y-102520000D03*
X121470000Y-102520000D03*
X129420000Y-107020000D03*
X121470000Y-107020000D03*
%TD*%
D12*
%TO.C,J12*%
X114300000Y-101080000D03*
X114300000Y-109380000D03*
D13*
X117550000Y-107480000D03*
X117550000Y-106980000D03*
X117550000Y-106480000D03*
X117550000Y-105980000D03*
X117550000Y-105480000D03*
X117550000Y-104980000D03*
X117550000Y-104480000D03*
X117550000Y-103980000D03*
X117550000Y-103480000D03*
X117550000Y-102980000D03*
%TD*%
%TO.C,C17*%
G36*
G01*
X119472500Y-107510000D02*
X119127500Y-107510000D01*
G75*
G02*
X118980000Y-107362500I0J147500D01*
G01*
X118980000Y-107067500D01*
G75*
G02*
X119127500Y-106920000I147500J0D01*
G01*
X119472500Y-106920000D01*
G75*
G02*
X119620000Y-107067500I0J-147500D01*
G01*
X119620000Y-107362500D01*
G75*
G02*
X119472500Y-107510000I-147500J0D01*
G01*
G37*
G36*
G01*
X119472500Y-108480000D02*
X119127500Y-108480000D01*
G75*
G02*
X118980000Y-108332500I0J147500D01*
G01*
X118980000Y-108037500D01*
G75*
G02*
X119127500Y-107890000I147500J0D01*
G01*
X119472500Y-107890000D01*
G75*
G02*
X119620000Y-108037500I0J-147500D01*
G01*
X119620000Y-108332500D01*
G75*
G02*
X119472500Y-108480000I-147500J0D01*
G01*
G37*
%TD*%
%TO.C,D10*%
G36*
G01*
X158505000Y-99563750D02*
X158505000Y-100476250D01*
G75*
G02*
X158261250Y-100720000I-243750J0D01*
G01*
X157773750Y-100720000D01*
G75*
G02*
X157530000Y-100476250I0J243750D01*
G01*
X157530000Y-99563750D01*
G75*
G02*
X157773750Y-99320000I243750J0D01*
G01*
X158261250Y-99320000D01*
G75*
G02*
X158505000Y-99563750I0J-243750D01*
G01*
G37*
G36*
G01*
X160380000Y-99563750D02*
X160380000Y-100476250D01*
G75*
G02*
X160136250Y-100720000I-243750J0D01*
G01*
X159648750Y-100720000D01*
G75*
G02*
X159405000Y-100476250I0J243750D01*
G01*
X159405000Y-99563750D01*
G75*
G02*
X159648750Y-99320000I243750J0D01*
G01*
X160136250Y-99320000D01*
G75*
G02*
X160380000Y-99563750I0J-243750D01*
G01*
G37*
%TD*%
%TO.C,D9*%
G36*
G01*
X142925000Y-99583750D02*
X142925000Y-100496250D01*
G75*
G02*
X142681250Y-100740000I-243750J0D01*
G01*
X142193750Y-100740000D01*
G75*
G02*
X141950000Y-100496250I0J243750D01*
G01*
X141950000Y-99583750D01*
G75*
G02*
X142193750Y-99340000I243750J0D01*
G01*
X142681250Y-99340000D01*
G75*
G02*
X142925000Y-99583750I0J-243750D01*
G01*
G37*
G36*
G01*
X144800000Y-99583750D02*
X144800000Y-100496250D01*
G75*
G02*
X144556250Y-100740000I-243750J0D01*
G01*
X144068750Y-100740000D01*
G75*
G02*
X143825000Y-100496250I0J243750D01*
G01*
X143825000Y-99583750D01*
G75*
G02*
X144068750Y-99340000I243750J0D01*
G01*
X144556250Y-99340000D01*
G75*
G02*
X144800000Y-99583750I0J-243750D01*
G01*
G37*
%TD*%
%TO.C,D8*%
G36*
G01*
X128485000Y-99583750D02*
X128485000Y-100496250D01*
G75*
G02*
X128241250Y-100740000I-243750J0D01*
G01*
X127753750Y-100740000D01*
G75*
G02*
X127510000Y-100496250I0J243750D01*
G01*
X127510000Y-99583750D01*
G75*
G02*
X127753750Y-99340000I243750J0D01*
G01*
X128241250Y-99340000D01*
G75*
G02*
X128485000Y-99583750I0J-243750D01*
G01*
G37*
G36*
G01*
X130360000Y-99583750D02*
X130360000Y-100496250D01*
G75*
G02*
X130116250Y-100740000I-243750J0D01*
G01*
X129628750Y-100740000D01*
G75*
G02*
X129385000Y-100496250I0J243750D01*
G01*
X129385000Y-99583750D01*
G75*
G02*
X129628750Y-99340000I243750J0D01*
G01*
X130116250Y-99340000D01*
G75*
G02*
X130360000Y-99583750I0J-243750D01*
G01*
G37*
%TD*%
M02*
