%TF.GenerationSoftware,KiCad,Pcbnew,5.1.8+dfsg1-1~bpo10+1*%
%TF.CreationDate,2021-01-23T23:31:02+00:00*%
%TF.ProjectId,atlas_btn,61746c61-735f-4627-946e-2e6b69636164,rev?*%
%TF.SameCoordinates,Original*%
%TF.FileFunction,Legend,Top*%
%TF.FilePolarity,Positive*%
%FSLAX46Y46*%
G04 Gerber Fmt 4.6, Leading zero omitted, Abs format (unit mm)*
G04 Created by KiCad (PCBNEW 5.1.8+dfsg1-1~bpo10+1) date 2021-01-23 23:31:02*
%MOMM*%
%LPD*%
G01*
G04 APERTURE LIST*
%ADD10C,0.150000*%
G04 APERTURE END LIST*
%TO.C,REF\u002A\u002A*%
D10*
X132761666Y-114622380D02*
X132428333Y-114146190D01*
X132190238Y-114622380D02*
X132190238Y-113622380D01*
X132571190Y-113622380D01*
X132666428Y-113670000D01*
X132714047Y-113717619D01*
X132761666Y-113812857D01*
X132761666Y-113955714D01*
X132714047Y-114050952D01*
X132666428Y-114098571D01*
X132571190Y-114146190D01*
X132190238Y-114146190D01*
X133190238Y-114098571D02*
X133523571Y-114098571D01*
X133666428Y-114622380D02*
X133190238Y-114622380D01*
X133190238Y-113622380D01*
X133666428Y-113622380D01*
X134428333Y-114098571D02*
X134095000Y-114098571D01*
X134095000Y-114622380D02*
X134095000Y-113622380D01*
X134571190Y-113622380D01*
X135095000Y-113622380D02*
X135095000Y-113860476D01*
X134856904Y-113765238D02*
X135095000Y-113860476D01*
X135333095Y-113765238D01*
X134952142Y-114050952D02*
X135095000Y-113860476D01*
X135237857Y-114050952D01*
X135856904Y-113622380D02*
X135856904Y-113860476D01*
X135618809Y-113765238D02*
X135856904Y-113860476D01*
X136095000Y-113765238D01*
X135714047Y-114050952D02*
X135856904Y-113860476D01*
X135999761Y-114050952D01*
X173697380Y-112303333D02*
X173221190Y-112636666D01*
X173697380Y-112874761D02*
X172697380Y-112874761D01*
X172697380Y-112493809D01*
X172745000Y-112398571D01*
X172792619Y-112350952D01*
X172887857Y-112303333D01*
X173030714Y-112303333D01*
X173125952Y-112350952D01*
X173173571Y-112398571D01*
X173221190Y-112493809D01*
X173221190Y-112874761D01*
X173173571Y-111874761D02*
X173173571Y-111541428D01*
X173697380Y-111398571D02*
X173697380Y-111874761D01*
X172697380Y-111874761D01*
X172697380Y-111398571D01*
X173173571Y-110636666D02*
X173173571Y-110970000D01*
X173697380Y-110970000D02*
X172697380Y-110970000D01*
X172697380Y-110493809D01*
X172697380Y-109970000D02*
X172935476Y-109970000D01*
X172840238Y-110208095D02*
X172935476Y-109970000D01*
X172840238Y-109731904D01*
X173125952Y-110112857D02*
X172935476Y-109970000D01*
X173125952Y-109827142D01*
X172697380Y-109208095D02*
X172935476Y-109208095D01*
X172840238Y-109446190D02*
X172935476Y-109208095D01*
X172840238Y-108970000D01*
X173125952Y-109350952D02*
X172935476Y-109208095D01*
X173125952Y-109065238D01*
%TD*%
M02*
