%TF.GenerationSoftware,KiCad,Pcbnew,5.1.8+dfsg1-1~bpo10+1*%
%TF.CreationDate,2021-01-23T23:31:02+00:00*%
%TF.ProjectId,atlas_btn,61746c61-735f-4627-946e-2e6b69636164,rev?*%
%TF.SameCoordinates,Original*%
%TF.FileFunction,Soldermask,Bot*%
%TF.FilePolarity,Negative*%
%FSLAX46Y46*%
G04 Gerber Fmt 4.6, Leading zero omitted, Abs format (unit mm)*
G04 Created by KiCad (PCBNEW 5.1.8+dfsg1-1~bpo10+1) date 2021-01-23 23:31:02*
%MOMM*%
%LPD*%
G01*
G04 APERTURE LIST*
%ADD10C,0.100000*%
%ADD11C,2.250000*%
G04 APERTURE END LIST*
D10*
G36*
X172700000Y-106795000D02*
G01*
X169495000Y-106795000D01*
X169495000Y-106145000D01*
X172700000Y-106145000D01*
X172700000Y-106795000D01*
G37*
X172700000Y-106795000D02*
X169495000Y-106795000D01*
X169495000Y-106145000D01*
X172700000Y-106145000D01*
X172700000Y-106795000D01*
G36*
X172700000Y-103395000D02*
G01*
X169495000Y-103395000D01*
X169495000Y-102745000D01*
X172700000Y-102745000D01*
X172700000Y-103395000D01*
G37*
X172700000Y-103395000D02*
X169495000Y-103395000D01*
X169495000Y-102745000D01*
X172700000Y-102745000D01*
X172700000Y-103395000D01*
%TO.C,R40*%
G36*
G01*
X131795000Y-106611250D02*
X131795000Y-107548750D01*
G75*
G02*
X131538750Y-107805000I-256250J0D01*
G01*
X131026250Y-107805000D01*
G75*
G02*
X130770000Y-107548750I0J256250D01*
G01*
X130770000Y-106611250D01*
G75*
G02*
X131026250Y-106355000I256250J0D01*
G01*
X131538750Y-106355000D01*
G75*
G02*
X131795000Y-106611250I0J-256250D01*
G01*
G37*
G36*
G01*
X133670000Y-106611250D02*
X133670000Y-107548750D01*
G75*
G02*
X133413750Y-107805000I-256250J0D01*
G01*
X132901250Y-107805000D01*
G75*
G02*
X132645000Y-107548750I0J256250D01*
G01*
X132645000Y-106611250D01*
G75*
G02*
X132901250Y-106355000I256250J0D01*
G01*
X133413750Y-106355000D01*
G75*
G02*
X133670000Y-106611250I0J-256250D01*
G01*
G37*
%TD*%
%TO.C,R50*%
G36*
G01*
X166038750Y-105645000D02*
X165101250Y-105645000D01*
G75*
G02*
X164845000Y-105388750I0J256250D01*
G01*
X164845000Y-104876250D01*
G75*
G02*
X165101250Y-104620000I256250J0D01*
G01*
X166038750Y-104620000D01*
G75*
G02*
X166295000Y-104876250I0J-256250D01*
G01*
X166295000Y-105388750D01*
G75*
G02*
X166038750Y-105645000I-256250J0D01*
G01*
G37*
G36*
G01*
X166038750Y-107520000D02*
X165101250Y-107520000D01*
G75*
G02*
X164845000Y-107263750I0J256250D01*
G01*
X164845000Y-106751250D01*
G75*
G02*
X165101250Y-106495000I256250J0D01*
G01*
X166038750Y-106495000D01*
G75*
G02*
X166295000Y-106751250I0J-256250D01*
G01*
X166295000Y-107263750D01*
G75*
G02*
X166038750Y-107520000I-256250J0D01*
G01*
G37*
%TD*%
%TO.C,R48*%
G36*
G01*
X161820000Y-106551250D02*
X161820000Y-107488750D01*
G75*
G02*
X161563750Y-107745000I-256250J0D01*
G01*
X161051250Y-107745000D01*
G75*
G02*
X160795000Y-107488750I0J256250D01*
G01*
X160795000Y-106551250D01*
G75*
G02*
X161051250Y-106295000I256250J0D01*
G01*
X161563750Y-106295000D01*
G75*
G02*
X161820000Y-106551250I0J-256250D01*
G01*
G37*
G36*
G01*
X163695000Y-106551250D02*
X163695000Y-107488750D01*
G75*
G02*
X163438750Y-107745000I-256250J0D01*
G01*
X162926250Y-107745000D01*
G75*
G02*
X162670000Y-107488750I0J256250D01*
G01*
X162670000Y-106551250D01*
G75*
G02*
X162926250Y-106295000I256250J0D01*
G01*
X163438750Y-106295000D01*
G75*
G02*
X163695000Y-106551250I0J-256250D01*
G01*
G37*
%TD*%
%TO.C,R45*%
G36*
G01*
X146282500Y-106651250D02*
X146282500Y-107588750D01*
G75*
G02*
X146026250Y-107845000I-256250J0D01*
G01*
X145513750Y-107845000D01*
G75*
G02*
X145257500Y-107588750I0J256250D01*
G01*
X145257500Y-106651250D01*
G75*
G02*
X145513750Y-106395000I256250J0D01*
G01*
X146026250Y-106395000D01*
G75*
G02*
X146282500Y-106651250I0J-256250D01*
G01*
G37*
G36*
G01*
X148157500Y-106651250D02*
X148157500Y-107588750D01*
G75*
G02*
X147901250Y-107845000I-256250J0D01*
G01*
X147388750Y-107845000D01*
G75*
G02*
X147132500Y-107588750I0J256250D01*
G01*
X147132500Y-106651250D01*
G75*
G02*
X147388750Y-106395000I256250J0D01*
G01*
X147901250Y-106395000D01*
G75*
G02*
X148157500Y-106651250I0J-256250D01*
G01*
G37*
%TD*%
%TO.C,R19*%
G36*
G01*
X155880000Y-100488750D02*
X155880000Y-99551250D01*
G75*
G02*
X156136250Y-99295000I256250J0D01*
G01*
X156648750Y-99295000D01*
G75*
G02*
X156905000Y-99551250I0J-256250D01*
G01*
X156905000Y-100488750D01*
G75*
G02*
X156648750Y-100745000I-256250J0D01*
G01*
X156136250Y-100745000D01*
G75*
G02*
X155880000Y-100488750I0J256250D01*
G01*
G37*
G36*
G01*
X154005000Y-100488750D02*
X154005000Y-99551250D01*
G75*
G02*
X154261250Y-99295000I256250J0D01*
G01*
X154773750Y-99295000D01*
G75*
G02*
X155030000Y-99551250I0J-256250D01*
G01*
X155030000Y-100488750D01*
G75*
G02*
X154773750Y-100745000I-256250J0D01*
G01*
X154261250Y-100745000D01*
G75*
G02*
X154005000Y-100488750I0J256250D01*
G01*
G37*
%TD*%
%TO.C,R18*%
G36*
G01*
X140362500Y-100508750D02*
X140362500Y-99571250D01*
G75*
G02*
X140618750Y-99315000I256250J0D01*
G01*
X141131250Y-99315000D01*
G75*
G02*
X141387500Y-99571250I0J-256250D01*
G01*
X141387500Y-100508750D01*
G75*
G02*
X141131250Y-100765000I-256250J0D01*
G01*
X140618750Y-100765000D01*
G75*
G02*
X140362500Y-100508750I0J256250D01*
G01*
G37*
G36*
G01*
X138487500Y-100508750D02*
X138487500Y-99571250D01*
G75*
G02*
X138743750Y-99315000I256250J0D01*
G01*
X139256250Y-99315000D01*
G75*
G02*
X139512500Y-99571250I0J-256250D01*
G01*
X139512500Y-100508750D01*
G75*
G02*
X139256250Y-100765000I-256250J0D01*
G01*
X138743750Y-100765000D01*
G75*
G02*
X138487500Y-100508750I0J256250D01*
G01*
G37*
%TD*%
%TO.C,R11*%
G36*
G01*
X125860000Y-100508750D02*
X125860000Y-99571250D01*
G75*
G02*
X126116250Y-99315000I256250J0D01*
G01*
X126628750Y-99315000D01*
G75*
G02*
X126885000Y-99571250I0J-256250D01*
G01*
X126885000Y-100508750D01*
G75*
G02*
X126628750Y-100765000I-256250J0D01*
G01*
X126116250Y-100765000D01*
G75*
G02*
X125860000Y-100508750I0J256250D01*
G01*
G37*
G36*
G01*
X123985000Y-100508750D02*
X123985000Y-99571250D01*
G75*
G02*
X124241250Y-99315000I256250J0D01*
G01*
X124753750Y-99315000D01*
G75*
G02*
X125010000Y-99571250I0J-256250D01*
G01*
X125010000Y-100508750D01*
G75*
G02*
X124753750Y-100765000I-256250J0D01*
G01*
X124241250Y-100765000D01*
G75*
G02*
X123985000Y-100508750I0J256250D01*
G01*
G37*
%TD*%
%TO.C,SW2*%
G36*
G01*
X135170000Y-107670000D02*
X135170000Y-106370000D01*
G75*
G02*
X135195000Y-106345000I25000J0D01*
G01*
X136745000Y-106345000D01*
G75*
G02*
X136770000Y-106370000I0J-25000D01*
G01*
X136770000Y-107670000D01*
G75*
G02*
X136745000Y-107695000I-25000J0D01*
G01*
X135195000Y-107695000D01*
G75*
G02*
X135170000Y-107670000I0J25000D01*
G01*
G37*
G36*
G01*
X143120000Y-107670000D02*
X143120000Y-106370000D01*
G75*
G02*
X143145000Y-106345000I25000J0D01*
G01*
X144695000Y-106345000D01*
G75*
G02*
X144720000Y-106370000I0J-25000D01*
G01*
X144720000Y-107670000D01*
G75*
G02*
X144695000Y-107695000I-25000J0D01*
G01*
X143145000Y-107695000D01*
G75*
G02*
X143120000Y-107670000I0J25000D01*
G01*
G37*
G36*
G01*
X135170000Y-103170000D02*
X135170000Y-101870000D01*
G75*
G02*
X135195000Y-101845000I25000J0D01*
G01*
X136745000Y-101845000D01*
G75*
G02*
X136770000Y-101870000I0J-25000D01*
G01*
X136770000Y-103170000D01*
G75*
G02*
X136745000Y-103195000I-25000J0D01*
G01*
X135195000Y-103195000D01*
G75*
G02*
X135170000Y-103170000I0J25000D01*
G01*
G37*
G36*
G01*
X143120000Y-103170000D02*
X143120000Y-101870000D01*
G75*
G02*
X143145000Y-101845000I25000J0D01*
G01*
X144695000Y-101845000D01*
G75*
G02*
X144720000Y-101870000I0J-25000D01*
G01*
X144720000Y-103170000D01*
G75*
G02*
X144695000Y-103195000I-25000J0D01*
G01*
X143145000Y-103195000D01*
G75*
G02*
X143120000Y-103170000I0J25000D01*
G01*
G37*
%TD*%
%TO.C,SW5*%
G36*
G01*
X169545000Y-103545000D02*
X167845000Y-103545000D01*
G75*
G02*
X167820000Y-103520000I0J25000D01*
G01*
X167820000Y-102620000D01*
G75*
G02*
X167845000Y-102595000I25000J0D01*
G01*
X169545000Y-102595000D01*
G75*
G02*
X169570000Y-102620000I0J-25000D01*
G01*
X169570000Y-103520000D01*
G75*
G02*
X169545000Y-103545000I-25000J0D01*
G01*
G37*
G36*
G01*
X169545000Y-106945000D02*
X167845000Y-106945000D01*
G75*
G02*
X167820000Y-106920000I0J25000D01*
G01*
X167820000Y-106020000D01*
G75*
G02*
X167845000Y-105995000I25000J0D01*
G01*
X169545000Y-105995000D01*
G75*
G02*
X169570000Y-106020000I0J-25000D01*
G01*
X169570000Y-106920000D01*
G75*
G02*
X169545000Y-106945000I-25000J0D01*
G01*
G37*
%TD*%
D11*
%TO.C,REF\u002A\u002A*%
X134095000Y-110970000D03*
%TD*%
%TO.C,REF\u002A\u002A*%
X170045000Y-110970000D03*
%TD*%
%TO.C,SW4*%
G36*
G01*
X158620000Y-103170000D02*
X158620000Y-101870000D01*
G75*
G02*
X158645000Y-101845000I25000J0D01*
G01*
X160195000Y-101845000D01*
G75*
G02*
X160220000Y-101870000I0J-25000D01*
G01*
X160220000Y-103170000D01*
G75*
G02*
X160195000Y-103195000I-25000J0D01*
G01*
X158645000Y-103195000D01*
G75*
G02*
X158620000Y-103170000I0J25000D01*
G01*
G37*
G36*
G01*
X150670000Y-103170000D02*
X150670000Y-101870000D01*
G75*
G02*
X150695000Y-101845000I25000J0D01*
G01*
X152245000Y-101845000D01*
G75*
G02*
X152270000Y-101870000I0J-25000D01*
G01*
X152270000Y-103170000D01*
G75*
G02*
X152245000Y-103195000I-25000J0D01*
G01*
X150695000Y-103195000D01*
G75*
G02*
X150670000Y-103170000I0J25000D01*
G01*
G37*
G36*
G01*
X158620000Y-107670000D02*
X158620000Y-106370000D01*
G75*
G02*
X158645000Y-106345000I25000J0D01*
G01*
X160195000Y-106345000D01*
G75*
G02*
X160220000Y-106370000I0J-25000D01*
G01*
X160220000Y-107670000D01*
G75*
G02*
X160195000Y-107695000I-25000J0D01*
G01*
X158645000Y-107695000D01*
G75*
G02*
X158620000Y-107670000I0J25000D01*
G01*
G37*
G36*
G01*
X150670000Y-107670000D02*
X150670000Y-106370000D01*
G75*
G02*
X150695000Y-106345000I25000J0D01*
G01*
X152245000Y-106345000D01*
G75*
G02*
X152270000Y-106370000I0J-25000D01*
G01*
X152270000Y-107670000D01*
G75*
G02*
X152245000Y-107695000I-25000J0D01*
G01*
X150695000Y-107695000D01*
G75*
G02*
X150670000Y-107670000I0J25000D01*
G01*
G37*
%TD*%
%TO.C,SW1*%
G36*
G01*
X128620000Y-103170000D02*
X128620000Y-101870000D01*
G75*
G02*
X128645000Y-101845000I25000J0D01*
G01*
X130195000Y-101845000D01*
G75*
G02*
X130220000Y-101870000I0J-25000D01*
G01*
X130220000Y-103170000D01*
G75*
G02*
X130195000Y-103195000I-25000J0D01*
G01*
X128645000Y-103195000D01*
G75*
G02*
X128620000Y-103170000I0J25000D01*
G01*
G37*
G36*
G01*
X120670000Y-103170000D02*
X120670000Y-101870000D01*
G75*
G02*
X120695000Y-101845000I25000J0D01*
G01*
X122245000Y-101845000D01*
G75*
G02*
X122270000Y-101870000I0J-25000D01*
G01*
X122270000Y-103170000D01*
G75*
G02*
X122245000Y-103195000I-25000J0D01*
G01*
X120695000Y-103195000D01*
G75*
G02*
X120670000Y-103170000I0J25000D01*
G01*
G37*
G36*
G01*
X128620000Y-107670000D02*
X128620000Y-106370000D01*
G75*
G02*
X128645000Y-106345000I25000J0D01*
G01*
X130195000Y-106345000D01*
G75*
G02*
X130220000Y-106370000I0J-25000D01*
G01*
X130220000Y-107670000D01*
G75*
G02*
X130195000Y-107695000I-25000J0D01*
G01*
X128645000Y-107695000D01*
G75*
G02*
X128620000Y-107670000I0J25000D01*
G01*
G37*
G36*
G01*
X120670000Y-107670000D02*
X120670000Y-106370000D01*
G75*
G02*
X120695000Y-106345000I25000J0D01*
G01*
X122245000Y-106345000D01*
G75*
G02*
X122270000Y-106370000I0J-25000D01*
G01*
X122270000Y-107670000D01*
G75*
G02*
X122245000Y-107695000I-25000J0D01*
G01*
X120695000Y-107695000D01*
G75*
G02*
X120670000Y-107670000I0J25000D01*
G01*
G37*
%TD*%
%TO.C,J12*%
G36*
G01*
X115400000Y-102005000D02*
X113200000Y-102005000D01*
G75*
G02*
X113175000Y-101980000I0J25000D01*
G01*
X113175000Y-100180000D01*
G75*
G02*
X113200000Y-100155000I25000J0D01*
G01*
X115400000Y-100155000D01*
G75*
G02*
X115425000Y-100180000I0J-25000D01*
G01*
X115425000Y-101980000D01*
G75*
G02*
X115400000Y-102005000I-25000J0D01*
G01*
G37*
G36*
G01*
X115400000Y-110305000D02*
X113200000Y-110305000D01*
G75*
G02*
X113175000Y-110280000I0J25000D01*
G01*
X113175000Y-108480000D01*
G75*
G02*
X113200000Y-108455000I25000J0D01*
G01*
X115400000Y-108455000D01*
G75*
G02*
X115425000Y-108480000I0J-25000D01*
G01*
X115425000Y-110280000D01*
G75*
G02*
X115400000Y-110305000I-25000J0D01*
G01*
G37*
G36*
G01*
X118200000Y-107655000D02*
X116900000Y-107655000D01*
G75*
G02*
X116875000Y-107630000I0J25000D01*
G01*
X116875000Y-107330000D01*
G75*
G02*
X116900000Y-107305000I25000J0D01*
G01*
X118200000Y-107305000D01*
G75*
G02*
X118225000Y-107330000I0J-25000D01*
G01*
X118225000Y-107630000D01*
G75*
G02*
X118200000Y-107655000I-25000J0D01*
G01*
G37*
G36*
G01*
X118200000Y-107155000D02*
X116900000Y-107155000D01*
G75*
G02*
X116875000Y-107130000I0J25000D01*
G01*
X116875000Y-106830000D01*
G75*
G02*
X116900000Y-106805000I25000J0D01*
G01*
X118200000Y-106805000D01*
G75*
G02*
X118225000Y-106830000I0J-25000D01*
G01*
X118225000Y-107130000D01*
G75*
G02*
X118200000Y-107155000I-25000J0D01*
G01*
G37*
G36*
G01*
X118200000Y-106655000D02*
X116900000Y-106655000D01*
G75*
G02*
X116875000Y-106630000I0J25000D01*
G01*
X116875000Y-106330000D01*
G75*
G02*
X116900000Y-106305000I25000J0D01*
G01*
X118200000Y-106305000D01*
G75*
G02*
X118225000Y-106330000I0J-25000D01*
G01*
X118225000Y-106630000D01*
G75*
G02*
X118200000Y-106655000I-25000J0D01*
G01*
G37*
G36*
G01*
X118200000Y-106155000D02*
X116900000Y-106155000D01*
G75*
G02*
X116875000Y-106130000I0J25000D01*
G01*
X116875000Y-105830000D01*
G75*
G02*
X116900000Y-105805000I25000J0D01*
G01*
X118200000Y-105805000D01*
G75*
G02*
X118225000Y-105830000I0J-25000D01*
G01*
X118225000Y-106130000D01*
G75*
G02*
X118200000Y-106155000I-25000J0D01*
G01*
G37*
G36*
G01*
X118200000Y-105655000D02*
X116900000Y-105655000D01*
G75*
G02*
X116875000Y-105630000I0J25000D01*
G01*
X116875000Y-105330000D01*
G75*
G02*
X116900000Y-105305000I25000J0D01*
G01*
X118200000Y-105305000D01*
G75*
G02*
X118225000Y-105330000I0J-25000D01*
G01*
X118225000Y-105630000D01*
G75*
G02*
X118200000Y-105655000I-25000J0D01*
G01*
G37*
G36*
G01*
X118200000Y-105155000D02*
X116900000Y-105155000D01*
G75*
G02*
X116875000Y-105130000I0J25000D01*
G01*
X116875000Y-104830000D01*
G75*
G02*
X116900000Y-104805000I25000J0D01*
G01*
X118200000Y-104805000D01*
G75*
G02*
X118225000Y-104830000I0J-25000D01*
G01*
X118225000Y-105130000D01*
G75*
G02*
X118200000Y-105155000I-25000J0D01*
G01*
G37*
G36*
G01*
X118200000Y-104655000D02*
X116900000Y-104655000D01*
G75*
G02*
X116875000Y-104630000I0J25000D01*
G01*
X116875000Y-104330000D01*
G75*
G02*
X116900000Y-104305000I25000J0D01*
G01*
X118200000Y-104305000D01*
G75*
G02*
X118225000Y-104330000I0J-25000D01*
G01*
X118225000Y-104630000D01*
G75*
G02*
X118200000Y-104655000I-25000J0D01*
G01*
G37*
G36*
G01*
X118200000Y-104155000D02*
X116900000Y-104155000D01*
G75*
G02*
X116875000Y-104130000I0J25000D01*
G01*
X116875000Y-103830000D01*
G75*
G02*
X116900000Y-103805000I25000J0D01*
G01*
X118200000Y-103805000D01*
G75*
G02*
X118225000Y-103830000I0J-25000D01*
G01*
X118225000Y-104130000D01*
G75*
G02*
X118200000Y-104155000I-25000J0D01*
G01*
G37*
G36*
G01*
X118200000Y-103655000D02*
X116900000Y-103655000D01*
G75*
G02*
X116875000Y-103630000I0J25000D01*
G01*
X116875000Y-103330000D01*
G75*
G02*
X116900000Y-103305000I25000J0D01*
G01*
X118200000Y-103305000D01*
G75*
G02*
X118225000Y-103330000I0J-25000D01*
G01*
X118225000Y-103630000D01*
G75*
G02*
X118200000Y-103655000I-25000J0D01*
G01*
G37*
G36*
G01*
X118200000Y-103155000D02*
X116900000Y-103155000D01*
G75*
G02*
X116875000Y-103130000I0J25000D01*
G01*
X116875000Y-102830000D01*
G75*
G02*
X116900000Y-102805000I25000J0D01*
G01*
X118200000Y-102805000D01*
G75*
G02*
X118225000Y-102830000I0J-25000D01*
G01*
X118225000Y-103130000D01*
G75*
G02*
X118200000Y-103155000I-25000J0D01*
G01*
G37*
%TD*%
%TO.C,C17*%
G36*
G01*
X119485000Y-107535000D02*
X119115000Y-107535000D01*
G75*
G02*
X118955000Y-107375000I0J160000D01*
G01*
X118955000Y-107055000D01*
G75*
G02*
X119115000Y-106895000I160000J0D01*
G01*
X119485000Y-106895000D01*
G75*
G02*
X119645000Y-107055000I0J-160000D01*
G01*
X119645000Y-107375000D01*
G75*
G02*
X119485000Y-107535000I-160000J0D01*
G01*
G37*
G36*
G01*
X119485000Y-108505000D02*
X119115000Y-108505000D01*
G75*
G02*
X118955000Y-108345000I0J160000D01*
G01*
X118955000Y-108025000D01*
G75*
G02*
X119115000Y-107865000I160000J0D01*
G01*
X119485000Y-107865000D01*
G75*
G02*
X119645000Y-108025000I0J-160000D01*
G01*
X119645000Y-108345000D01*
G75*
G02*
X119485000Y-108505000I-160000J0D01*
G01*
G37*
%TD*%
%TO.C,D10*%
G36*
G01*
X158530000Y-99551250D02*
X158530000Y-100488750D01*
G75*
G02*
X158273750Y-100745000I-256250J0D01*
G01*
X157761250Y-100745000D01*
G75*
G02*
X157505000Y-100488750I0J256250D01*
G01*
X157505000Y-99551250D01*
G75*
G02*
X157761250Y-99295000I256250J0D01*
G01*
X158273750Y-99295000D01*
G75*
G02*
X158530000Y-99551250I0J-256250D01*
G01*
G37*
G36*
G01*
X160405000Y-99551250D02*
X160405000Y-100488750D01*
G75*
G02*
X160148750Y-100745000I-256250J0D01*
G01*
X159636250Y-100745000D01*
G75*
G02*
X159380000Y-100488750I0J256250D01*
G01*
X159380000Y-99551250D01*
G75*
G02*
X159636250Y-99295000I256250J0D01*
G01*
X160148750Y-99295000D01*
G75*
G02*
X160405000Y-99551250I0J-256250D01*
G01*
G37*
%TD*%
%TO.C,D9*%
G36*
G01*
X142950000Y-99571250D02*
X142950000Y-100508750D01*
G75*
G02*
X142693750Y-100765000I-256250J0D01*
G01*
X142181250Y-100765000D01*
G75*
G02*
X141925000Y-100508750I0J256250D01*
G01*
X141925000Y-99571250D01*
G75*
G02*
X142181250Y-99315000I256250J0D01*
G01*
X142693750Y-99315000D01*
G75*
G02*
X142950000Y-99571250I0J-256250D01*
G01*
G37*
G36*
G01*
X144825000Y-99571250D02*
X144825000Y-100508750D01*
G75*
G02*
X144568750Y-100765000I-256250J0D01*
G01*
X144056250Y-100765000D01*
G75*
G02*
X143800000Y-100508750I0J256250D01*
G01*
X143800000Y-99571250D01*
G75*
G02*
X144056250Y-99315000I256250J0D01*
G01*
X144568750Y-99315000D01*
G75*
G02*
X144825000Y-99571250I0J-256250D01*
G01*
G37*
%TD*%
%TO.C,D8*%
G36*
G01*
X128510000Y-99571250D02*
X128510000Y-100508750D01*
G75*
G02*
X128253750Y-100765000I-256250J0D01*
G01*
X127741250Y-100765000D01*
G75*
G02*
X127485000Y-100508750I0J256250D01*
G01*
X127485000Y-99571250D01*
G75*
G02*
X127741250Y-99315000I256250J0D01*
G01*
X128253750Y-99315000D01*
G75*
G02*
X128510000Y-99571250I0J-256250D01*
G01*
G37*
G36*
G01*
X130385000Y-99571250D02*
X130385000Y-100508750D01*
G75*
G02*
X130128750Y-100765000I-256250J0D01*
G01*
X129616250Y-100765000D01*
G75*
G02*
X129360000Y-100508750I0J256250D01*
G01*
X129360000Y-99571250D01*
G75*
G02*
X129616250Y-99315000I256250J0D01*
G01*
X130128750Y-99315000D01*
G75*
G02*
X130385000Y-99571250I0J-256250D01*
G01*
G37*
%TD*%
M02*
