%TF.GenerationSoftware,KiCad,Pcbnew,5.1.8+dfsg1-1~bpo10+1*%
%TF.CreationDate,2021-01-23T23:31:02+00:00*%
%TF.ProjectId,atlas_btn,61746c61-735f-4627-946e-2e6b69636164,rev?*%
%TF.SameCoordinates,Original*%
%TF.FileFunction,Copper,L4,Bot*%
%TF.FilePolarity,Positive*%
%FSLAX46Y46*%
G04 Gerber Fmt 4.6, Leading zero omitted, Abs format (unit mm)*
G04 Created by KiCad (PCBNEW 5.1.8+dfsg1-1~bpo10+1) date 2021-01-23 23:31:02*
%MOMM*%
%LPD*%
G01*
G04 APERTURE LIST*
%TA.AperFunction,SMDPad,CuDef*%
%ADD10R,1.550000X1.300000*%
%TD*%
%TA.AperFunction,SMDPad,CuDef*%
%ADD11R,1.700000X0.900000*%
%TD*%
%TA.AperFunction,SMDPad,CuDef*%
%ADD12R,2.200000X1.800000*%
%TD*%
%TA.AperFunction,SMDPad,CuDef*%
%ADD13R,1.300000X0.300000*%
%TD*%
%TA.AperFunction,Conductor*%
%ADD14C,0.349000*%
%TD*%
%TA.AperFunction,Conductor*%
%ADD15C,0.750000*%
%TD*%
%TA.AperFunction,Conductor*%
%ADD16C,0.254000*%
%TD*%
%TA.AperFunction,Conductor*%
%ADD17C,0.100000*%
%TD*%
G04 APERTURE END LIST*
%TO.P,R40,2*%
%TO.N,/SW_L_EXT*%
%TA.AperFunction,SMDPad,CuDef*%
G36*
G01*
X131770000Y-106623750D02*
X131770000Y-107536250D01*
G75*
G02*
X131526250Y-107780000I-243750J0D01*
G01*
X131038750Y-107780000D01*
G75*
G02*
X130795000Y-107536250I0J243750D01*
G01*
X130795000Y-106623750D01*
G75*
G02*
X131038750Y-106380000I243750J0D01*
G01*
X131526250Y-106380000D01*
G75*
G02*
X131770000Y-106623750I0J-243750D01*
G01*
G37*
%TD.AperFunction*%
%TO.P,R40,1*%
%TO.N,/VCC_3V3_EXT*%
%TA.AperFunction,SMDPad,CuDef*%
G36*
G01*
X133645000Y-106623750D02*
X133645000Y-107536250D01*
G75*
G02*
X133401250Y-107780000I-243750J0D01*
G01*
X132913750Y-107780000D01*
G75*
G02*
X132670000Y-107536250I0J243750D01*
G01*
X132670000Y-106623750D01*
G75*
G02*
X132913750Y-106380000I243750J0D01*
G01*
X133401250Y-106380000D01*
G75*
G02*
X133645000Y-106623750I0J-243750D01*
G01*
G37*
%TD.AperFunction*%
%TD*%
%TO.P,R50,2*%
%TO.N,/SW_PWR_EXT*%
%TA.AperFunction,SMDPad,CuDef*%
G36*
G01*
X166026250Y-105620000D02*
X165113750Y-105620000D01*
G75*
G02*
X164870000Y-105376250I0J243750D01*
G01*
X164870000Y-104888750D01*
G75*
G02*
X165113750Y-104645000I243750J0D01*
G01*
X166026250Y-104645000D01*
G75*
G02*
X166270000Y-104888750I0J-243750D01*
G01*
X166270000Y-105376250D01*
G75*
G02*
X166026250Y-105620000I-243750J0D01*
G01*
G37*
%TD.AperFunction*%
%TO.P,R50,1*%
%TO.N,/VCC_3V3_EXT*%
%TA.AperFunction,SMDPad,CuDef*%
G36*
G01*
X166026250Y-107495000D02*
X165113750Y-107495000D01*
G75*
G02*
X164870000Y-107251250I0J243750D01*
G01*
X164870000Y-106763750D01*
G75*
G02*
X165113750Y-106520000I243750J0D01*
G01*
X166026250Y-106520000D01*
G75*
G02*
X166270000Y-106763750I0J-243750D01*
G01*
X166270000Y-107251250D01*
G75*
G02*
X166026250Y-107495000I-243750J0D01*
G01*
G37*
%TD.AperFunction*%
%TD*%
%TO.P,R48,2*%
%TO.N,/SW_R_EXT*%
%TA.AperFunction,SMDPad,CuDef*%
G36*
G01*
X161795000Y-106563750D02*
X161795000Y-107476250D01*
G75*
G02*
X161551250Y-107720000I-243750J0D01*
G01*
X161063750Y-107720000D01*
G75*
G02*
X160820000Y-107476250I0J243750D01*
G01*
X160820000Y-106563750D01*
G75*
G02*
X161063750Y-106320000I243750J0D01*
G01*
X161551250Y-106320000D01*
G75*
G02*
X161795000Y-106563750I0J-243750D01*
G01*
G37*
%TD.AperFunction*%
%TO.P,R48,1*%
%TO.N,/VCC_3V3_EXT*%
%TA.AperFunction,SMDPad,CuDef*%
G36*
G01*
X163670000Y-106563750D02*
X163670000Y-107476250D01*
G75*
G02*
X163426250Y-107720000I-243750J0D01*
G01*
X162938750Y-107720000D01*
G75*
G02*
X162695000Y-107476250I0J243750D01*
G01*
X162695000Y-106563750D01*
G75*
G02*
X162938750Y-106320000I243750J0D01*
G01*
X163426250Y-106320000D01*
G75*
G02*
X163670000Y-106563750I0J-243750D01*
G01*
G37*
%TD.AperFunction*%
%TD*%
%TO.P,R45,2*%
%TO.N,/SW_0_EXT*%
%TA.AperFunction,SMDPad,CuDef*%
G36*
G01*
X146257500Y-106663750D02*
X146257500Y-107576250D01*
G75*
G02*
X146013750Y-107820000I-243750J0D01*
G01*
X145526250Y-107820000D01*
G75*
G02*
X145282500Y-107576250I0J243750D01*
G01*
X145282500Y-106663750D01*
G75*
G02*
X145526250Y-106420000I243750J0D01*
G01*
X146013750Y-106420000D01*
G75*
G02*
X146257500Y-106663750I0J-243750D01*
G01*
G37*
%TD.AperFunction*%
%TO.P,R45,1*%
%TO.N,/VCC_3V3_EXT*%
%TA.AperFunction,SMDPad,CuDef*%
G36*
G01*
X148132500Y-106663750D02*
X148132500Y-107576250D01*
G75*
G02*
X147888750Y-107820000I-243750J0D01*
G01*
X147401250Y-107820000D01*
G75*
G02*
X147157500Y-107576250I0J243750D01*
G01*
X147157500Y-106663750D01*
G75*
G02*
X147401250Y-106420000I243750J0D01*
G01*
X147888750Y-106420000D01*
G75*
G02*
X148132500Y-106663750I0J-243750D01*
G01*
G37*
%TD.AperFunction*%
%TD*%
%TO.P,R19,2*%
%TO.N,Net-(D10-Pad2)*%
%TA.AperFunction,SMDPad,CuDef*%
G36*
G01*
X155905000Y-100476250D02*
X155905000Y-99563750D01*
G75*
G02*
X156148750Y-99320000I243750J0D01*
G01*
X156636250Y-99320000D01*
G75*
G02*
X156880000Y-99563750I0J-243750D01*
G01*
X156880000Y-100476250D01*
G75*
G02*
X156636250Y-100720000I-243750J0D01*
G01*
X156148750Y-100720000D01*
G75*
G02*
X155905000Y-100476250I0J243750D01*
G01*
G37*
%TD.AperFunction*%
%TO.P,R19,1*%
%TO.N,/STM_STATUS_R_EXT*%
%TA.AperFunction,SMDPad,CuDef*%
G36*
G01*
X154030000Y-100476250D02*
X154030000Y-99563750D01*
G75*
G02*
X154273750Y-99320000I243750J0D01*
G01*
X154761250Y-99320000D01*
G75*
G02*
X155005000Y-99563750I0J-243750D01*
G01*
X155005000Y-100476250D01*
G75*
G02*
X154761250Y-100720000I-243750J0D01*
G01*
X154273750Y-100720000D01*
G75*
G02*
X154030000Y-100476250I0J243750D01*
G01*
G37*
%TD.AperFunction*%
%TD*%
%TO.P,R18,2*%
%TO.N,Net-(D9-Pad2)*%
%TA.AperFunction,SMDPad,CuDef*%
G36*
G01*
X140387500Y-100496250D02*
X140387500Y-99583750D01*
G75*
G02*
X140631250Y-99340000I243750J0D01*
G01*
X141118750Y-99340000D01*
G75*
G02*
X141362500Y-99583750I0J-243750D01*
G01*
X141362500Y-100496250D01*
G75*
G02*
X141118750Y-100740000I-243750J0D01*
G01*
X140631250Y-100740000D01*
G75*
G02*
X140387500Y-100496250I0J243750D01*
G01*
G37*
%TD.AperFunction*%
%TO.P,R18,1*%
%TO.N,/STM_STATUS_0_EXT*%
%TA.AperFunction,SMDPad,CuDef*%
G36*
G01*
X138512500Y-100496250D02*
X138512500Y-99583750D01*
G75*
G02*
X138756250Y-99340000I243750J0D01*
G01*
X139243750Y-99340000D01*
G75*
G02*
X139487500Y-99583750I0J-243750D01*
G01*
X139487500Y-100496250D01*
G75*
G02*
X139243750Y-100740000I-243750J0D01*
G01*
X138756250Y-100740000D01*
G75*
G02*
X138512500Y-100496250I0J243750D01*
G01*
G37*
%TD.AperFunction*%
%TD*%
%TO.P,R11,2*%
%TO.N,Net-(D8-Pad2)*%
%TA.AperFunction,SMDPad,CuDef*%
G36*
G01*
X125885000Y-100496250D02*
X125885000Y-99583750D01*
G75*
G02*
X126128750Y-99340000I243750J0D01*
G01*
X126616250Y-99340000D01*
G75*
G02*
X126860000Y-99583750I0J-243750D01*
G01*
X126860000Y-100496250D01*
G75*
G02*
X126616250Y-100740000I-243750J0D01*
G01*
X126128750Y-100740000D01*
G75*
G02*
X125885000Y-100496250I0J243750D01*
G01*
G37*
%TD.AperFunction*%
%TO.P,R11,1*%
%TO.N,/STM_STATUS_L_EXT*%
%TA.AperFunction,SMDPad,CuDef*%
G36*
G01*
X124010000Y-100496250D02*
X124010000Y-99583750D01*
G75*
G02*
X124253750Y-99340000I243750J0D01*
G01*
X124741250Y-99340000D01*
G75*
G02*
X124985000Y-99583750I0J-243750D01*
G01*
X124985000Y-100496250D01*
G75*
G02*
X124741250Y-100740000I-243750J0D01*
G01*
X124253750Y-100740000D01*
G75*
G02*
X124010000Y-100496250I0J243750D01*
G01*
G37*
%TD.AperFunction*%
%TD*%
D10*
%TO.P,SW2,1*%
%TO.N,/SW_0_EXT*%
X135970000Y-107020000D03*
X143920000Y-107020000D03*
%TO.P,SW2,2*%
%TO.N,GND*%
X135970000Y-102520000D03*
X143920000Y-102520000D03*
%TD*%
D11*
%TO.P,SW5,2*%
%TO.N,GND*%
X168695000Y-103070000D03*
%TO.P,SW5,1*%
%TO.N,/SW_PWR_EXT*%
X168695000Y-106470000D03*
%TD*%
D10*
%TO.P,SW4,2*%
%TO.N,GND*%
X159420000Y-102520000D03*
X151470000Y-102520000D03*
%TO.P,SW4,1*%
%TO.N,/SW_R_EXT*%
X159420000Y-107020000D03*
X151470000Y-107020000D03*
%TD*%
%TO.P,SW1,2*%
%TO.N,GND*%
X129420000Y-102520000D03*
X121470000Y-102520000D03*
%TO.P,SW1,1*%
%TO.N,/SW_L_EXT*%
X129420000Y-107020000D03*
X121470000Y-107020000D03*
%TD*%
D12*
%TO.P,J12,MP*%
%TO.N,N/C*%
X114300000Y-101080000D03*
X114300000Y-109380000D03*
D13*
%TO.P,J12,1*%
%TO.N,GND*%
X117550000Y-107480000D03*
%TO.P,J12,2*%
%TO.N,/VCC_3V3_EXT*%
X117550000Y-106980000D03*
%TO.P,J12,3*%
%TO.N,/SW_L_EXT*%
X117550000Y-106480000D03*
%TO.P,J12,4*%
%TO.N,/SW_0_EXT*%
X117550000Y-105980000D03*
%TO.P,J12,5*%
%TO.N,/SW_R_EXT*%
X117550000Y-105480000D03*
%TO.P,J12,6*%
%TO.N,/SW_PWR_EXT*%
X117550000Y-104980000D03*
%TO.P,J12,7*%
%TO.N,/STM_STATUS_R_EXT*%
X117550000Y-104480000D03*
%TO.P,J12,8*%
%TO.N,/STM_STATUS_0_EXT*%
X117550000Y-103980000D03*
%TO.P,J12,9*%
%TO.N,/STM_STATUS_L_EXT*%
X117550000Y-103480000D03*
%TO.P,J12,10*%
%TO.N,GND*%
X117550000Y-102980000D03*
%TD*%
%TO.P,C17,2*%
%TO.N,/VCC_3V3_EXT*%
%TA.AperFunction,SMDPad,CuDef*%
G36*
G01*
X119472500Y-107510000D02*
X119127500Y-107510000D01*
G75*
G02*
X118980000Y-107362500I0J147500D01*
G01*
X118980000Y-107067500D01*
G75*
G02*
X119127500Y-106920000I147500J0D01*
G01*
X119472500Y-106920000D01*
G75*
G02*
X119620000Y-107067500I0J-147500D01*
G01*
X119620000Y-107362500D01*
G75*
G02*
X119472500Y-107510000I-147500J0D01*
G01*
G37*
%TD.AperFunction*%
%TO.P,C17,1*%
%TO.N,GND*%
%TA.AperFunction,SMDPad,CuDef*%
G36*
G01*
X119472500Y-108480000D02*
X119127500Y-108480000D01*
G75*
G02*
X118980000Y-108332500I0J147500D01*
G01*
X118980000Y-108037500D01*
G75*
G02*
X119127500Y-107890000I147500J0D01*
G01*
X119472500Y-107890000D01*
G75*
G02*
X119620000Y-108037500I0J-147500D01*
G01*
X119620000Y-108332500D01*
G75*
G02*
X119472500Y-108480000I-147500J0D01*
G01*
G37*
%TD.AperFunction*%
%TD*%
%TO.P,D10,2*%
%TO.N,Net-(D10-Pad2)*%
%TA.AperFunction,SMDPad,CuDef*%
G36*
G01*
X158505000Y-99563750D02*
X158505000Y-100476250D01*
G75*
G02*
X158261250Y-100720000I-243750J0D01*
G01*
X157773750Y-100720000D01*
G75*
G02*
X157530000Y-100476250I0J243750D01*
G01*
X157530000Y-99563750D01*
G75*
G02*
X157773750Y-99320000I243750J0D01*
G01*
X158261250Y-99320000D01*
G75*
G02*
X158505000Y-99563750I0J-243750D01*
G01*
G37*
%TD.AperFunction*%
%TO.P,D10,1*%
%TO.N,GND*%
%TA.AperFunction,SMDPad,CuDef*%
G36*
G01*
X160380000Y-99563750D02*
X160380000Y-100476250D01*
G75*
G02*
X160136250Y-100720000I-243750J0D01*
G01*
X159648750Y-100720000D01*
G75*
G02*
X159405000Y-100476250I0J243750D01*
G01*
X159405000Y-99563750D01*
G75*
G02*
X159648750Y-99320000I243750J0D01*
G01*
X160136250Y-99320000D01*
G75*
G02*
X160380000Y-99563750I0J-243750D01*
G01*
G37*
%TD.AperFunction*%
%TD*%
%TO.P,D9,2*%
%TO.N,Net-(D9-Pad2)*%
%TA.AperFunction,SMDPad,CuDef*%
G36*
G01*
X142925000Y-99583750D02*
X142925000Y-100496250D01*
G75*
G02*
X142681250Y-100740000I-243750J0D01*
G01*
X142193750Y-100740000D01*
G75*
G02*
X141950000Y-100496250I0J243750D01*
G01*
X141950000Y-99583750D01*
G75*
G02*
X142193750Y-99340000I243750J0D01*
G01*
X142681250Y-99340000D01*
G75*
G02*
X142925000Y-99583750I0J-243750D01*
G01*
G37*
%TD.AperFunction*%
%TO.P,D9,1*%
%TO.N,GND*%
%TA.AperFunction,SMDPad,CuDef*%
G36*
G01*
X144800000Y-99583750D02*
X144800000Y-100496250D01*
G75*
G02*
X144556250Y-100740000I-243750J0D01*
G01*
X144068750Y-100740000D01*
G75*
G02*
X143825000Y-100496250I0J243750D01*
G01*
X143825000Y-99583750D01*
G75*
G02*
X144068750Y-99340000I243750J0D01*
G01*
X144556250Y-99340000D01*
G75*
G02*
X144800000Y-99583750I0J-243750D01*
G01*
G37*
%TD.AperFunction*%
%TD*%
%TO.P,D8,2*%
%TO.N,Net-(D8-Pad2)*%
%TA.AperFunction,SMDPad,CuDef*%
G36*
G01*
X128485000Y-99583750D02*
X128485000Y-100496250D01*
G75*
G02*
X128241250Y-100740000I-243750J0D01*
G01*
X127753750Y-100740000D01*
G75*
G02*
X127510000Y-100496250I0J243750D01*
G01*
X127510000Y-99583750D01*
G75*
G02*
X127753750Y-99340000I243750J0D01*
G01*
X128241250Y-99340000D01*
G75*
G02*
X128485000Y-99583750I0J-243750D01*
G01*
G37*
%TD.AperFunction*%
%TO.P,D8,1*%
%TO.N,GND*%
%TA.AperFunction,SMDPad,CuDef*%
G36*
G01*
X130360000Y-99583750D02*
X130360000Y-100496250D01*
G75*
G02*
X130116250Y-100740000I-243750J0D01*
G01*
X129628750Y-100740000D01*
G75*
G02*
X129385000Y-100496250I0J243750D01*
G01*
X129385000Y-99583750D01*
G75*
G02*
X129628750Y-99340000I243750J0D01*
G01*
X130116250Y-99340000D01*
G75*
G02*
X130360000Y-99583750I0J-243750D01*
G01*
G37*
%TD.AperFunction*%
%TD*%
D14*
%TO.N,GND*%
X129420000Y-102520000D02*
X135970000Y-102520000D01*
X143920000Y-102520000D02*
X151470000Y-102520000D01*
X121105000Y-102885000D02*
X121470000Y-102520000D01*
X121010000Y-102980000D02*
X121470000Y-102520000D01*
X117150000Y-102980000D02*
X121010000Y-102980000D01*
X117150000Y-107480000D02*
X117870000Y-107480000D01*
D15*
X168720000Y-103070000D02*
X172300000Y-103070000D01*
D14*
X119085000Y-108185000D02*
X119600000Y-108185000D01*
X117550000Y-107480000D02*
X118380000Y-107480000D01*
X118380000Y-107480000D02*
X119085000Y-108185000D01*
%TO.N,/VCC_3V3_EXT*%
X117150000Y-106980000D02*
X118565000Y-106980000D01*
X118915000Y-107215000D02*
X118680000Y-106980000D01*
X119600000Y-107215000D02*
X118915000Y-107215000D01*
X117550000Y-106980000D02*
X118680000Y-106980000D01*
X119300000Y-107215000D02*
X119815000Y-107215000D01*
X119815000Y-107215000D02*
X120200000Y-107600000D01*
X120200000Y-107600000D02*
X120200000Y-107900000D01*
X120200000Y-107900000D02*
X121000000Y-108700000D01*
X121000000Y-108700000D02*
X131900000Y-108700000D01*
X133157500Y-107442500D02*
X133157500Y-107080000D01*
X134800000Y-108100000D02*
X137100000Y-108100000D01*
X146593499Y-106068499D02*
X147645000Y-107120000D01*
X137100000Y-108100000D02*
X139131501Y-106068499D01*
X139131501Y-106068499D02*
X146368499Y-106068499D01*
X146368499Y-106068499D02*
X146593499Y-106068499D01*
X158221510Y-108021510D02*
X162180990Y-108021510D01*
X158000000Y-106900000D02*
X158000000Y-107800000D01*
X162180990Y-108021510D02*
X163182500Y-107020000D01*
X158000000Y-107800000D02*
X158221510Y-108021510D01*
X157168499Y-106068499D02*
X158000000Y-106900000D01*
X146368499Y-106068499D02*
X157168499Y-106068499D01*
X165557500Y-107020000D02*
X165570000Y-107007500D01*
X163182500Y-107020000D02*
X165557500Y-107020000D01*
X132500000Y-108100000D02*
X132300000Y-108300000D01*
X131900000Y-108700000D02*
X132300000Y-108300000D01*
X133157500Y-108057500D02*
X133200000Y-108100000D01*
X133157500Y-107080000D02*
X133157500Y-108057500D01*
X134800000Y-108100000D02*
X133200000Y-108100000D01*
X133200000Y-108100000D02*
X132500000Y-108100000D01*
%TO.N,/STM_STATUS_L_EXT*%
X124497500Y-102632500D02*
X124497500Y-100040000D01*
X117150000Y-103480000D02*
X123650000Y-103480000D01*
X123650000Y-103480000D02*
X124497500Y-102632500D01*
%TO.N,/STM_STATUS_0_EXT*%
X139000000Y-102820000D02*
X139000000Y-100040000D01*
X137840000Y-103980000D02*
X138765000Y-103055000D01*
X117150000Y-103980000D02*
X137840000Y-103980000D01*
X137872488Y-103947512D02*
X138765000Y-103055000D01*
X138765000Y-103055000D02*
X139000000Y-102820000D01*
%TO.N,/STM_STATUS_R_EXT*%
X117150000Y-104480000D02*
X153160000Y-104480000D01*
X154517500Y-103122500D02*
X154517500Y-100020000D01*
X153160000Y-104480000D02*
X154517500Y-103122500D01*
%TO.N,/SW_L_EXT*%
X131222500Y-107020000D02*
X131282500Y-107080000D01*
X129420000Y-107020000D02*
X131222500Y-107020000D01*
X120930000Y-106480000D02*
X121470000Y-107020000D01*
X117150000Y-106480000D02*
X120930000Y-106480000D01*
%TO.N,/SW_0_EXT*%
X134930000Y-105980000D02*
X135970000Y-107020000D01*
X117150000Y-105980000D02*
X134930000Y-105980000D01*
X145670000Y-107020000D02*
X145770000Y-107120000D01*
X143920000Y-107020000D02*
X145670000Y-107020000D01*
%TO.N,/SW_R_EXT*%
X159420000Y-107020000D02*
X161307500Y-107020000D01*
X157880000Y-105480000D02*
X159420000Y-107020000D01*
X149680000Y-105480000D02*
X157880000Y-105480000D01*
X117150000Y-105480000D02*
X149680000Y-105480000D01*
X149680000Y-105480000D02*
X149930000Y-105480000D01*
%TO.N,/SW_PWR_EXT*%
X165417500Y-104980000D02*
X165570000Y-105132500D01*
X117150000Y-104980000D02*
X165417500Y-104980000D01*
X165570000Y-105132500D02*
X166862500Y-105132500D01*
X168200000Y-106470000D02*
X168695000Y-106470000D01*
X166862500Y-105132500D02*
X168200000Y-106470000D01*
D15*
X168700000Y-106470000D02*
X172370000Y-106470000D01*
D14*
%TO.N,Net-(D8-Pad2)*%
X126372500Y-100040000D02*
X127997500Y-100040000D01*
%TO.N,Net-(D9-Pad2)*%
X140875000Y-100040000D02*
X142437500Y-100040000D01*
%TO.N,Net-(D10-Pad2)*%
X156392500Y-100020000D02*
X158017500Y-100020000D01*
%TD*%
D16*
%TO.N,GND*%
X123593862Y-99452490D02*
X123580934Y-99583750D01*
X123580934Y-100496250D01*
X123593862Y-100627510D01*
X123632149Y-100753726D01*
X123694324Y-100870047D01*
X123777997Y-100972003D01*
X123879953Y-101055676D01*
X123896001Y-101064254D01*
X123896000Y-102383350D01*
X123400851Y-102878500D01*
X122880614Y-102878500D01*
X122880000Y-102805750D01*
X122721250Y-102647000D01*
X121597000Y-102647000D01*
X121597000Y-102667000D01*
X121343000Y-102667000D01*
X121343000Y-102647000D01*
X120218750Y-102647000D01*
X120060000Y-102805750D01*
X120059386Y-102878500D01*
X118835000Y-102878500D01*
X118835000Y-102852998D01*
X118780252Y-102852998D01*
X118835000Y-102798250D01*
X118823685Y-102695268D01*
X118785416Y-102576182D01*
X118724650Y-102466850D01*
X118643722Y-102371474D01*
X118545742Y-102293718D01*
X118434475Y-102236572D01*
X118314198Y-102202230D01*
X118189532Y-102192014D01*
X117835750Y-102195000D01*
X117677000Y-102353750D01*
X117677000Y-102878500D01*
X117423000Y-102878500D01*
X117423000Y-102353750D01*
X117264250Y-102195000D01*
X116910468Y-102192014D01*
X116785802Y-102202230D01*
X116665525Y-102236572D01*
X116554258Y-102293718D01*
X116456278Y-102371474D01*
X116375350Y-102466850D01*
X116314584Y-102576182D01*
X116276315Y-102695268D01*
X116265000Y-102798250D01*
X116423750Y-102957000D01*
X116692016Y-102957000D01*
X116661624Y-102973245D01*
X116625368Y-103003000D01*
X116423750Y-103003000D01*
X116265000Y-103161750D01*
X116276315Y-103264732D01*
X116314584Y-103383818D01*
X116375350Y-103493150D01*
X116456278Y-103588526D01*
X116470934Y-103600157D01*
X116470934Y-103630000D01*
X116479178Y-103713707D01*
X116484121Y-103730000D01*
X116479178Y-103746293D01*
X116470934Y-103830000D01*
X116470934Y-104130000D01*
X116479178Y-104213707D01*
X116484121Y-104230000D01*
X116479178Y-104246293D01*
X116470934Y-104330000D01*
X116470934Y-104630000D01*
X116479178Y-104713707D01*
X116484121Y-104730000D01*
X116479178Y-104746293D01*
X116470934Y-104830000D01*
X116470934Y-105130000D01*
X116479178Y-105213707D01*
X116484121Y-105230000D01*
X116479178Y-105246293D01*
X116470934Y-105330000D01*
X116470934Y-105630000D01*
X116479178Y-105713707D01*
X116484121Y-105730000D01*
X116479178Y-105746293D01*
X116470934Y-105830000D01*
X116470934Y-106130000D01*
X116479178Y-106213707D01*
X116484121Y-106230000D01*
X116479178Y-106246293D01*
X116470934Y-106330000D01*
X116470934Y-106630000D01*
X116479178Y-106713707D01*
X116484121Y-106730000D01*
X116479178Y-106746293D01*
X116470934Y-106830000D01*
X116470934Y-106859843D01*
X116456278Y-106871474D01*
X116375350Y-106966850D01*
X116314584Y-107076182D01*
X116276315Y-107195268D01*
X116265000Y-107298250D01*
X116423750Y-107457000D01*
X116625368Y-107457000D01*
X116661624Y-107486755D01*
X116692016Y-107503000D01*
X116423750Y-107503000D01*
X116265000Y-107661750D01*
X116276315Y-107764732D01*
X116314584Y-107883818D01*
X116375350Y-107993150D01*
X116456278Y-108088526D01*
X116554258Y-108166282D01*
X116665525Y-108223428D01*
X116785802Y-108257770D01*
X116910468Y-108267986D01*
X117264250Y-108265000D01*
X117423000Y-108106250D01*
X117423000Y-107581500D01*
X117677000Y-107581500D01*
X117677000Y-108106250D01*
X117835750Y-108265000D01*
X118189532Y-108267986D01*
X118314198Y-108257770D01*
X118345000Y-108248975D01*
X118345000Y-108312002D01*
X118503748Y-108312002D01*
X118345000Y-108470750D01*
X118341928Y-108480000D01*
X118354188Y-108604482D01*
X118390498Y-108724180D01*
X118449463Y-108834494D01*
X118528815Y-108931185D01*
X118625506Y-109010537D01*
X118735820Y-109069502D01*
X118855518Y-109105812D01*
X118980000Y-109118072D01*
X119014250Y-109115000D01*
X119173000Y-108956250D01*
X119173000Y-108312000D01*
X119153000Y-108312000D01*
X119153000Y-108058000D01*
X119173000Y-108058000D01*
X119173000Y-108038000D01*
X119427000Y-108038000D01*
X119427000Y-108058000D01*
X119447000Y-108058000D01*
X119447000Y-108312000D01*
X119427000Y-108312000D01*
X119427000Y-108956250D01*
X119585750Y-109115000D01*
X119620000Y-109118072D01*
X119744482Y-109105812D01*
X119864180Y-109069502D01*
X119974494Y-109010537D01*
X120071185Y-108931185D01*
X120150537Y-108834494D01*
X120196972Y-108747622D01*
X120553788Y-109104438D01*
X120572618Y-109127382D01*
X120595562Y-109146212D01*
X120595566Y-109146216D01*
X120613465Y-109160905D01*
X120664208Y-109202549D01*
X120768702Y-109258402D01*
X120882085Y-109292796D01*
X120970455Y-109301500D01*
X120970463Y-109301500D01*
X121000000Y-109304409D01*
X121029537Y-109301500D01*
X131870463Y-109301500D01*
X131900000Y-109304409D01*
X131929537Y-109301500D01*
X131929545Y-109301500D01*
X132017915Y-109292796D01*
X132131298Y-109258402D01*
X132235792Y-109202549D01*
X132327382Y-109127382D01*
X132346217Y-109104432D01*
X132704428Y-108746220D01*
X132704433Y-108746216D01*
X132749149Y-108701500D01*
X133170462Y-108701500D01*
X133199999Y-108704409D01*
X133229536Y-108701500D01*
X137070463Y-108701500D01*
X137100000Y-108704409D01*
X137129537Y-108701500D01*
X137129545Y-108701500D01*
X137217915Y-108692796D01*
X137331298Y-108658402D01*
X137435792Y-108602549D01*
X137527382Y-108527382D01*
X137546216Y-108504433D01*
X139380651Y-106669999D01*
X142715934Y-106669999D01*
X142715934Y-107670000D01*
X142724178Y-107753707D01*
X142748595Y-107834196D01*
X142788245Y-107908376D01*
X142841605Y-107973395D01*
X142883294Y-108007609D01*
X139646822Y-108007625D01*
X139580417Y-108007192D01*
X139558511Y-108009196D01*
X139536505Y-108009042D01*
X139530224Y-108009658D01*
X139042871Y-108060881D01*
X139002740Y-108069119D01*
X138962500Y-108076795D01*
X138956458Y-108078619D01*
X138488335Y-108223527D01*
X138450553Y-108239409D01*
X138412585Y-108254749D01*
X138407022Y-108257707D01*
X138407013Y-108257711D01*
X138407006Y-108257716D01*
X137975952Y-108490786D01*
X137942006Y-108513683D01*
X137907708Y-108536127D01*
X137902825Y-108540110D01*
X137902818Y-108540115D01*
X137902812Y-108540121D01*
X137525238Y-108852477D01*
X137496371Y-108881547D01*
X137467102Y-108910209D01*
X137463079Y-108915072D01*
X137153361Y-109294824D01*
X137130692Y-109328943D01*
X137107545Y-109362748D01*
X137104548Y-109368292D01*
X137104543Y-109368300D01*
X137104540Y-109368308D01*
X136874485Y-109800976D01*
X136858865Y-109838872D01*
X136842735Y-109876507D01*
X136840872Y-109882525D01*
X136840868Y-109882535D01*
X136840866Y-109882545D01*
X136699232Y-110351658D01*
X136691279Y-110391823D01*
X136682757Y-110431917D01*
X136682097Y-110438194D01*
X136674272Y-110518000D01*
X135560589Y-110518000D01*
X135448210Y-110246694D01*
X135281099Y-109996594D01*
X135068406Y-109783901D01*
X134818306Y-109616790D01*
X134540410Y-109501681D01*
X134245396Y-109443000D01*
X133944604Y-109443000D01*
X133649590Y-109501681D01*
X133371694Y-109616790D01*
X133121594Y-109783901D01*
X132908901Y-109996594D01*
X132741790Y-110246694D01*
X132629411Y-110518000D01*
X115756956Y-110518000D01*
X115796405Y-110444196D01*
X115820822Y-110363707D01*
X115829066Y-110280000D01*
X115829066Y-108480000D01*
X115820822Y-108396293D01*
X115796405Y-108315804D01*
X115756755Y-108241624D01*
X115703395Y-108176605D01*
X115638376Y-108123245D01*
X115564196Y-108083595D01*
X115483707Y-108059178D01*
X115400000Y-108050934D01*
X113200000Y-108050934D01*
X113116293Y-108059178D01*
X113052000Y-108078682D01*
X113052000Y-102381318D01*
X113116293Y-102400822D01*
X113200000Y-102409066D01*
X115400000Y-102409066D01*
X115483707Y-102400822D01*
X115564196Y-102376405D01*
X115638376Y-102336755D01*
X115703395Y-102283395D01*
X115756755Y-102218376D01*
X115796405Y-102144196D01*
X115820822Y-102063707D01*
X115829066Y-101980000D01*
X115829066Y-101870000D01*
X120056928Y-101870000D01*
X120060000Y-102234250D01*
X120218750Y-102393000D01*
X121343000Y-102393000D01*
X121343000Y-101393750D01*
X121597000Y-101393750D01*
X121597000Y-102393000D01*
X122721250Y-102393000D01*
X122880000Y-102234250D01*
X122883072Y-101870000D01*
X122870812Y-101745518D01*
X122834502Y-101625820D01*
X122775537Y-101515506D01*
X122696185Y-101418815D01*
X122599494Y-101339463D01*
X122489180Y-101280498D01*
X122369482Y-101244188D01*
X122245000Y-101231928D01*
X121755750Y-101235000D01*
X121597000Y-101393750D01*
X121343000Y-101393750D01*
X121184250Y-101235000D01*
X120695000Y-101231928D01*
X120570518Y-101244188D01*
X120450820Y-101280498D01*
X120340506Y-101339463D01*
X120243815Y-101418815D01*
X120164463Y-101515506D01*
X120105498Y-101625820D01*
X120069188Y-101745518D01*
X120056928Y-101870000D01*
X115829066Y-101870000D01*
X115829066Y-100180000D01*
X115820822Y-100096293D01*
X115796405Y-100015804D01*
X115756755Y-99941624D01*
X115703395Y-99876605D01*
X115638376Y-99823245D01*
X115564196Y-99783595D01*
X115483707Y-99759178D01*
X115400000Y-99750934D01*
X113314116Y-99750934D01*
X113341933Y-99716827D01*
X113490935Y-99593562D01*
X113661035Y-99501589D01*
X113845765Y-99444405D01*
X114058936Y-99422000D01*
X123603111Y-99422000D01*
X123593862Y-99452490D01*
%TA.AperFunction,Conductor*%
D17*
G36*
X123593862Y-99452490D02*
G01*
X123580934Y-99583750D01*
X123580934Y-100496250D01*
X123593862Y-100627510D01*
X123632149Y-100753726D01*
X123694324Y-100870047D01*
X123777997Y-100972003D01*
X123879953Y-101055676D01*
X123896001Y-101064254D01*
X123896000Y-102383350D01*
X123400851Y-102878500D01*
X122880614Y-102878500D01*
X122880000Y-102805750D01*
X122721250Y-102647000D01*
X121597000Y-102647000D01*
X121597000Y-102667000D01*
X121343000Y-102667000D01*
X121343000Y-102647000D01*
X120218750Y-102647000D01*
X120060000Y-102805750D01*
X120059386Y-102878500D01*
X118835000Y-102878500D01*
X118835000Y-102852998D01*
X118780252Y-102852998D01*
X118835000Y-102798250D01*
X118823685Y-102695268D01*
X118785416Y-102576182D01*
X118724650Y-102466850D01*
X118643722Y-102371474D01*
X118545742Y-102293718D01*
X118434475Y-102236572D01*
X118314198Y-102202230D01*
X118189532Y-102192014D01*
X117835750Y-102195000D01*
X117677000Y-102353750D01*
X117677000Y-102878500D01*
X117423000Y-102878500D01*
X117423000Y-102353750D01*
X117264250Y-102195000D01*
X116910468Y-102192014D01*
X116785802Y-102202230D01*
X116665525Y-102236572D01*
X116554258Y-102293718D01*
X116456278Y-102371474D01*
X116375350Y-102466850D01*
X116314584Y-102576182D01*
X116276315Y-102695268D01*
X116265000Y-102798250D01*
X116423750Y-102957000D01*
X116692016Y-102957000D01*
X116661624Y-102973245D01*
X116625368Y-103003000D01*
X116423750Y-103003000D01*
X116265000Y-103161750D01*
X116276315Y-103264732D01*
X116314584Y-103383818D01*
X116375350Y-103493150D01*
X116456278Y-103588526D01*
X116470934Y-103600157D01*
X116470934Y-103630000D01*
X116479178Y-103713707D01*
X116484121Y-103730000D01*
X116479178Y-103746293D01*
X116470934Y-103830000D01*
X116470934Y-104130000D01*
X116479178Y-104213707D01*
X116484121Y-104230000D01*
X116479178Y-104246293D01*
X116470934Y-104330000D01*
X116470934Y-104630000D01*
X116479178Y-104713707D01*
X116484121Y-104730000D01*
X116479178Y-104746293D01*
X116470934Y-104830000D01*
X116470934Y-105130000D01*
X116479178Y-105213707D01*
X116484121Y-105230000D01*
X116479178Y-105246293D01*
X116470934Y-105330000D01*
X116470934Y-105630000D01*
X116479178Y-105713707D01*
X116484121Y-105730000D01*
X116479178Y-105746293D01*
X116470934Y-105830000D01*
X116470934Y-106130000D01*
X116479178Y-106213707D01*
X116484121Y-106230000D01*
X116479178Y-106246293D01*
X116470934Y-106330000D01*
X116470934Y-106630000D01*
X116479178Y-106713707D01*
X116484121Y-106730000D01*
X116479178Y-106746293D01*
X116470934Y-106830000D01*
X116470934Y-106859843D01*
X116456278Y-106871474D01*
X116375350Y-106966850D01*
X116314584Y-107076182D01*
X116276315Y-107195268D01*
X116265000Y-107298250D01*
X116423750Y-107457000D01*
X116625368Y-107457000D01*
X116661624Y-107486755D01*
X116692016Y-107503000D01*
X116423750Y-107503000D01*
X116265000Y-107661750D01*
X116276315Y-107764732D01*
X116314584Y-107883818D01*
X116375350Y-107993150D01*
X116456278Y-108088526D01*
X116554258Y-108166282D01*
X116665525Y-108223428D01*
X116785802Y-108257770D01*
X116910468Y-108267986D01*
X117264250Y-108265000D01*
X117423000Y-108106250D01*
X117423000Y-107581500D01*
X117677000Y-107581500D01*
X117677000Y-108106250D01*
X117835750Y-108265000D01*
X118189532Y-108267986D01*
X118314198Y-108257770D01*
X118345000Y-108248975D01*
X118345000Y-108312002D01*
X118503748Y-108312002D01*
X118345000Y-108470750D01*
X118341928Y-108480000D01*
X118354188Y-108604482D01*
X118390498Y-108724180D01*
X118449463Y-108834494D01*
X118528815Y-108931185D01*
X118625506Y-109010537D01*
X118735820Y-109069502D01*
X118855518Y-109105812D01*
X118980000Y-109118072D01*
X119014250Y-109115000D01*
X119173000Y-108956250D01*
X119173000Y-108312000D01*
X119153000Y-108312000D01*
X119153000Y-108058000D01*
X119173000Y-108058000D01*
X119173000Y-108038000D01*
X119427000Y-108038000D01*
X119427000Y-108058000D01*
X119447000Y-108058000D01*
X119447000Y-108312000D01*
X119427000Y-108312000D01*
X119427000Y-108956250D01*
X119585750Y-109115000D01*
X119620000Y-109118072D01*
X119744482Y-109105812D01*
X119864180Y-109069502D01*
X119974494Y-109010537D01*
X120071185Y-108931185D01*
X120150537Y-108834494D01*
X120196972Y-108747622D01*
X120553788Y-109104438D01*
X120572618Y-109127382D01*
X120595562Y-109146212D01*
X120595566Y-109146216D01*
X120613465Y-109160905D01*
X120664208Y-109202549D01*
X120768702Y-109258402D01*
X120882085Y-109292796D01*
X120970455Y-109301500D01*
X120970463Y-109301500D01*
X121000000Y-109304409D01*
X121029537Y-109301500D01*
X131870463Y-109301500D01*
X131900000Y-109304409D01*
X131929537Y-109301500D01*
X131929545Y-109301500D01*
X132017915Y-109292796D01*
X132131298Y-109258402D01*
X132235792Y-109202549D01*
X132327382Y-109127382D01*
X132346217Y-109104432D01*
X132704428Y-108746220D01*
X132704433Y-108746216D01*
X132749149Y-108701500D01*
X133170462Y-108701500D01*
X133199999Y-108704409D01*
X133229536Y-108701500D01*
X137070463Y-108701500D01*
X137100000Y-108704409D01*
X137129537Y-108701500D01*
X137129545Y-108701500D01*
X137217915Y-108692796D01*
X137331298Y-108658402D01*
X137435792Y-108602549D01*
X137527382Y-108527382D01*
X137546216Y-108504433D01*
X139380651Y-106669999D01*
X142715934Y-106669999D01*
X142715934Y-107670000D01*
X142724178Y-107753707D01*
X142748595Y-107834196D01*
X142788245Y-107908376D01*
X142841605Y-107973395D01*
X142883294Y-108007609D01*
X139646822Y-108007625D01*
X139580417Y-108007192D01*
X139558511Y-108009196D01*
X139536505Y-108009042D01*
X139530224Y-108009658D01*
X139042871Y-108060881D01*
X139002740Y-108069119D01*
X138962500Y-108076795D01*
X138956458Y-108078619D01*
X138488335Y-108223527D01*
X138450553Y-108239409D01*
X138412585Y-108254749D01*
X138407022Y-108257707D01*
X138407013Y-108257711D01*
X138407006Y-108257716D01*
X137975952Y-108490786D01*
X137942006Y-108513683D01*
X137907708Y-108536127D01*
X137902825Y-108540110D01*
X137902818Y-108540115D01*
X137902812Y-108540121D01*
X137525238Y-108852477D01*
X137496371Y-108881547D01*
X137467102Y-108910209D01*
X137463079Y-108915072D01*
X137153361Y-109294824D01*
X137130692Y-109328943D01*
X137107545Y-109362748D01*
X137104548Y-109368292D01*
X137104543Y-109368300D01*
X137104540Y-109368308D01*
X136874485Y-109800976D01*
X136858865Y-109838872D01*
X136842735Y-109876507D01*
X136840872Y-109882525D01*
X136840868Y-109882535D01*
X136840866Y-109882545D01*
X136699232Y-110351658D01*
X136691279Y-110391823D01*
X136682757Y-110431917D01*
X136682097Y-110438194D01*
X136674272Y-110518000D01*
X135560589Y-110518000D01*
X135448210Y-110246694D01*
X135281099Y-109996594D01*
X135068406Y-109783901D01*
X134818306Y-109616790D01*
X134540410Y-109501681D01*
X134245396Y-109443000D01*
X133944604Y-109443000D01*
X133649590Y-109501681D01*
X133371694Y-109616790D01*
X133121594Y-109783901D01*
X132908901Y-109996594D01*
X132741790Y-110246694D01*
X132629411Y-110518000D01*
X115756956Y-110518000D01*
X115796405Y-110444196D01*
X115820822Y-110363707D01*
X115829066Y-110280000D01*
X115829066Y-108480000D01*
X115820822Y-108396293D01*
X115796405Y-108315804D01*
X115756755Y-108241624D01*
X115703395Y-108176605D01*
X115638376Y-108123245D01*
X115564196Y-108083595D01*
X115483707Y-108059178D01*
X115400000Y-108050934D01*
X113200000Y-108050934D01*
X113116293Y-108059178D01*
X113052000Y-108078682D01*
X113052000Y-102381318D01*
X113116293Y-102400822D01*
X113200000Y-102409066D01*
X115400000Y-102409066D01*
X115483707Y-102400822D01*
X115564196Y-102376405D01*
X115638376Y-102336755D01*
X115703395Y-102283395D01*
X115756755Y-102218376D01*
X115796405Y-102144196D01*
X115820822Y-102063707D01*
X115829066Y-101980000D01*
X115829066Y-101870000D01*
X120056928Y-101870000D01*
X120060000Y-102234250D01*
X120218750Y-102393000D01*
X121343000Y-102393000D01*
X121343000Y-101393750D01*
X121597000Y-101393750D01*
X121597000Y-102393000D01*
X122721250Y-102393000D01*
X122880000Y-102234250D01*
X122883072Y-101870000D01*
X122870812Y-101745518D01*
X122834502Y-101625820D01*
X122775537Y-101515506D01*
X122696185Y-101418815D01*
X122599494Y-101339463D01*
X122489180Y-101280498D01*
X122369482Y-101244188D01*
X122245000Y-101231928D01*
X121755750Y-101235000D01*
X121597000Y-101393750D01*
X121343000Y-101393750D01*
X121184250Y-101235000D01*
X120695000Y-101231928D01*
X120570518Y-101244188D01*
X120450820Y-101280498D01*
X120340506Y-101339463D01*
X120243815Y-101418815D01*
X120164463Y-101515506D01*
X120105498Y-101625820D01*
X120069188Y-101745518D01*
X120056928Y-101870000D01*
X115829066Y-101870000D01*
X115829066Y-100180000D01*
X115820822Y-100096293D01*
X115796405Y-100015804D01*
X115756755Y-99941624D01*
X115703395Y-99876605D01*
X115638376Y-99823245D01*
X115564196Y-99783595D01*
X115483707Y-99759178D01*
X115400000Y-99750934D01*
X113314116Y-99750934D01*
X113341933Y-99716827D01*
X113490935Y-99593562D01*
X113661035Y-99501589D01*
X113845765Y-99444405D01*
X114058936Y-99422000D01*
X123603111Y-99422000D01*
X123593862Y-99452490D01*
G37*
%TD.AperFunction*%
D16*
X155488862Y-99432490D02*
X155475934Y-99563750D01*
X155475934Y-100476250D01*
X155488862Y-100607510D01*
X155527149Y-100733726D01*
X155589324Y-100850047D01*
X155672997Y-100952003D01*
X155774953Y-101035676D01*
X155891274Y-101097851D01*
X156017490Y-101136138D01*
X156148750Y-101149066D01*
X156636250Y-101149066D01*
X156767510Y-101136138D01*
X156893726Y-101097851D01*
X157010047Y-101035676D01*
X157112003Y-100952003D01*
X157195676Y-100850047D01*
X157205000Y-100832603D01*
X157214324Y-100850047D01*
X157297997Y-100952003D01*
X157399953Y-101035676D01*
X157516274Y-101097851D01*
X157642490Y-101136138D01*
X157773750Y-101149066D01*
X158261250Y-101149066D01*
X158392510Y-101136138D01*
X158518726Y-101097851D01*
X158635047Y-101035676D01*
X158737003Y-100952003D01*
X158791617Y-100885455D01*
X158815498Y-100964180D01*
X158874463Y-101074494D01*
X158953815Y-101171185D01*
X159030782Y-101234350D01*
X158645000Y-101231928D01*
X158520518Y-101244188D01*
X158400820Y-101280498D01*
X158290506Y-101339463D01*
X158193815Y-101418815D01*
X158114463Y-101515506D01*
X158055498Y-101625820D01*
X158019188Y-101745518D01*
X158006928Y-101870000D01*
X158010000Y-102234250D01*
X158168750Y-102393000D01*
X159293000Y-102393000D01*
X159293000Y-102373000D01*
X159547000Y-102373000D01*
X159547000Y-102393000D01*
X160671250Y-102393000D01*
X160830000Y-102234250D01*
X160833072Y-101870000D01*
X160820812Y-101745518D01*
X160784502Y-101625820D01*
X160725537Y-101515506D01*
X160646185Y-101418815D01*
X160549494Y-101339463D01*
X160540775Y-101334803D01*
X160624180Y-101309502D01*
X160734494Y-101250537D01*
X160831185Y-101171185D01*
X160910537Y-101074494D01*
X160969502Y-100964180D01*
X161005812Y-100844482D01*
X161018072Y-100720000D01*
X161015000Y-100305750D01*
X160856250Y-100147000D01*
X160019500Y-100147000D01*
X160019500Y-100167000D01*
X159765500Y-100167000D01*
X159765500Y-100147000D01*
X159745500Y-100147000D01*
X159745500Y-99893000D01*
X159765500Y-99893000D01*
X159765500Y-99873000D01*
X160019500Y-99873000D01*
X160019500Y-99893000D01*
X160856250Y-99893000D01*
X161015000Y-99734250D01*
X161017316Y-99422000D01*
X171522892Y-99422000D01*
X171748139Y-99444085D01*
X171943537Y-99503080D01*
X172123753Y-99598903D01*
X172281930Y-99727908D01*
X172412034Y-99885178D01*
X172509115Y-100064725D01*
X172569472Y-100259706D01*
X172593000Y-100483568D01*
X172593000Y-105699559D01*
X172527219Y-105679605D01*
X172409394Y-105668000D01*
X169789170Y-105668000D01*
X169783376Y-105663245D01*
X169709196Y-105623595D01*
X169628707Y-105599178D01*
X169545000Y-105590934D01*
X168171584Y-105590934D01*
X167308716Y-104728067D01*
X167289882Y-104705118D01*
X167198292Y-104629951D01*
X167093798Y-104574098D01*
X166980415Y-104539704D01*
X166892045Y-104531000D01*
X166892037Y-104531000D01*
X166862500Y-104528091D01*
X166832963Y-104531000D01*
X166594253Y-104531000D01*
X166585676Y-104514953D01*
X166502003Y-104412997D01*
X166400047Y-104329324D01*
X166283726Y-104267149D01*
X166157510Y-104228862D01*
X166026250Y-104215934D01*
X165113750Y-104215934D01*
X164982490Y-104228862D01*
X164856274Y-104267149D01*
X164739953Y-104329324D01*
X164680032Y-104378500D01*
X154112149Y-104378500D01*
X154921939Y-103568710D01*
X154944882Y-103549882D01*
X154963712Y-103526938D01*
X154963716Y-103526934D01*
X154991441Y-103493150D01*
X155020049Y-103458292D01*
X155075902Y-103353798D01*
X155110296Y-103240415D01*
X155117231Y-103170000D01*
X158006928Y-103170000D01*
X158019188Y-103294482D01*
X158055498Y-103414180D01*
X158114463Y-103524494D01*
X158193815Y-103621185D01*
X158290506Y-103700537D01*
X158400820Y-103759502D01*
X158520518Y-103795812D01*
X158645000Y-103808072D01*
X159134250Y-103805000D01*
X159293000Y-103646250D01*
X159293000Y-102647000D01*
X159547000Y-102647000D01*
X159547000Y-103646250D01*
X159705750Y-103805000D01*
X160195000Y-103808072D01*
X160319482Y-103795812D01*
X160439180Y-103759502D01*
X160549494Y-103700537D01*
X160646185Y-103621185D01*
X160725537Y-103524494D01*
X160727939Y-103520000D01*
X167206928Y-103520000D01*
X167219188Y-103644482D01*
X167255498Y-103764180D01*
X167314463Y-103874494D01*
X167393815Y-103971185D01*
X167490506Y-104050537D01*
X167600820Y-104109502D01*
X167720518Y-104145812D01*
X167845000Y-104158072D01*
X168409250Y-104155000D01*
X168568000Y-103996250D01*
X168568000Y-103197000D01*
X168822000Y-103197000D01*
X168822000Y-103996250D01*
X168980750Y-104155000D01*
X169545000Y-104158072D01*
X169669482Y-104145812D01*
X169789180Y-104109502D01*
X169899494Y-104050537D01*
X169996185Y-103971185D01*
X170075537Y-103874494D01*
X170134502Y-103764180D01*
X170170812Y-103644482D01*
X170183072Y-103520000D01*
X170180000Y-103355750D01*
X170021250Y-103197000D01*
X168822000Y-103197000D01*
X168568000Y-103197000D01*
X167368750Y-103197000D01*
X167210000Y-103355750D01*
X167206928Y-103520000D01*
X160727939Y-103520000D01*
X160784502Y-103414180D01*
X160820812Y-103294482D01*
X160833072Y-103170000D01*
X160830000Y-102805750D01*
X160671250Y-102647000D01*
X159547000Y-102647000D01*
X159293000Y-102647000D01*
X158168750Y-102647000D01*
X158010000Y-102805750D01*
X158006928Y-103170000D01*
X155117231Y-103170000D01*
X155119000Y-103152045D01*
X155119000Y-103152037D01*
X155121909Y-103122500D01*
X155119000Y-103092963D01*
X155119000Y-102620000D01*
X167206928Y-102620000D01*
X167210000Y-102784250D01*
X167368750Y-102943000D01*
X168568000Y-102943000D01*
X168568000Y-102143750D01*
X168822000Y-102143750D01*
X168822000Y-102943000D01*
X170021250Y-102943000D01*
X170180000Y-102784250D01*
X170183072Y-102620000D01*
X170170812Y-102495518D01*
X170134502Y-102375820D01*
X170075537Y-102265506D01*
X169996185Y-102168815D01*
X169899494Y-102089463D01*
X169789180Y-102030498D01*
X169669482Y-101994188D01*
X169545000Y-101981928D01*
X168980750Y-101985000D01*
X168822000Y-102143750D01*
X168568000Y-102143750D01*
X168409250Y-101985000D01*
X167845000Y-101981928D01*
X167720518Y-101994188D01*
X167600820Y-102030498D01*
X167490506Y-102089463D01*
X167393815Y-102168815D01*
X167314463Y-102265506D01*
X167255498Y-102375820D01*
X167219188Y-102495518D01*
X167206928Y-102620000D01*
X155119000Y-102620000D01*
X155119000Y-101044253D01*
X155135047Y-101035676D01*
X155237003Y-100952003D01*
X155320676Y-100850047D01*
X155382851Y-100733726D01*
X155421138Y-100607510D01*
X155434066Y-100476250D01*
X155434066Y-99563750D01*
X155421138Y-99432490D01*
X155417956Y-99422000D01*
X155492044Y-99422000D01*
X155488862Y-99432490D01*
%TA.AperFunction,Conductor*%
D17*
G36*
X155488862Y-99432490D02*
G01*
X155475934Y-99563750D01*
X155475934Y-100476250D01*
X155488862Y-100607510D01*
X155527149Y-100733726D01*
X155589324Y-100850047D01*
X155672997Y-100952003D01*
X155774953Y-101035676D01*
X155891274Y-101097851D01*
X156017490Y-101136138D01*
X156148750Y-101149066D01*
X156636250Y-101149066D01*
X156767510Y-101136138D01*
X156893726Y-101097851D01*
X157010047Y-101035676D01*
X157112003Y-100952003D01*
X157195676Y-100850047D01*
X157205000Y-100832603D01*
X157214324Y-100850047D01*
X157297997Y-100952003D01*
X157399953Y-101035676D01*
X157516274Y-101097851D01*
X157642490Y-101136138D01*
X157773750Y-101149066D01*
X158261250Y-101149066D01*
X158392510Y-101136138D01*
X158518726Y-101097851D01*
X158635047Y-101035676D01*
X158737003Y-100952003D01*
X158791617Y-100885455D01*
X158815498Y-100964180D01*
X158874463Y-101074494D01*
X158953815Y-101171185D01*
X159030782Y-101234350D01*
X158645000Y-101231928D01*
X158520518Y-101244188D01*
X158400820Y-101280498D01*
X158290506Y-101339463D01*
X158193815Y-101418815D01*
X158114463Y-101515506D01*
X158055498Y-101625820D01*
X158019188Y-101745518D01*
X158006928Y-101870000D01*
X158010000Y-102234250D01*
X158168750Y-102393000D01*
X159293000Y-102393000D01*
X159293000Y-102373000D01*
X159547000Y-102373000D01*
X159547000Y-102393000D01*
X160671250Y-102393000D01*
X160830000Y-102234250D01*
X160833072Y-101870000D01*
X160820812Y-101745518D01*
X160784502Y-101625820D01*
X160725537Y-101515506D01*
X160646185Y-101418815D01*
X160549494Y-101339463D01*
X160540775Y-101334803D01*
X160624180Y-101309502D01*
X160734494Y-101250537D01*
X160831185Y-101171185D01*
X160910537Y-101074494D01*
X160969502Y-100964180D01*
X161005812Y-100844482D01*
X161018072Y-100720000D01*
X161015000Y-100305750D01*
X160856250Y-100147000D01*
X160019500Y-100147000D01*
X160019500Y-100167000D01*
X159765500Y-100167000D01*
X159765500Y-100147000D01*
X159745500Y-100147000D01*
X159745500Y-99893000D01*
X159765500Y-99893000D01*
X159765500Y-99873000D01*
X160019500Y-99873000D01*
X160019500Y-99893000D01*
X160856250Y-99893000D01*
X161015000Y-99734250D01*
X161017316Y-99422000D01*
X171522892Y-99422000D01*
X171748139Y-99444085D01*
X171943537Y-99503080D01*
X172123753Y-99598903D01*
X172281930Y-99727908D01*
X172412034Y-99885178D01*
X172509115Y-100064725D01*
X172569472Y-100259706D01*
X172593000Y-100483568D01*
X172593000Y-105699559D01*
X172527219Y-105679605D01*
X172409394Y-105668000D01*
X169789170Y-105668000D01*
X169783376Y-105663245D01*
X169709196Y-105623595D01*
X169628707Y-105599178D01*
X169545000Y-105590934D01*
X168171584Y-105590934D01*
X167308716Y-104728067D01*
X167289882Y-104705118D01*
X167198292Y-104629951D01*
X167093798Y-104574098D01*
X166980415Y-104539704D01*
X166892045Y-104531000D01*
X166892037Y-104531000D01*
X166862500Y-104528091D01*
X166832963Y-104531000D01*
X166594253Y-104531000D01*
X166585676Y-104514953D01*
X166502003Y-104412997D01*
X166400047Y-104329324D01*
X166283726Y-104267149D01*
X166157510Y-104228862D01*
X166026250Y-104215934D01*
X165113750Y-104215934D01*
X164982490Y-104228862D01*
X164856274Y-104267149D01*
X164739953Y-104329324D01*
X164680032Y-104378500D01*
X154112149Y-104378500D01*
X154921939Y-103568710D01*
X154944882Y-103549882D01*
X154963712Y-103526938D01*
X154963716Y-103526934D01*
X154991441Y-103493150D01*
X155020049Y-103458292D01*
X155075902Y-103353798D01*
X155110296Y-103240415D01*
X155117231Y-103170000D01*
X158006928Y-103170000D01*
X158019188Y-103294482D01*
X158055498Y-103414180D01*
X158114463Y-103524494D01*
X158193815Y-103621185D01*
X158290506Y-103700537D01*
X158400820Y-103759502D01*
X158520518Y-103795812D01*
X158645000Y-103808072D01*
X159134250Y-103805000D01*
X159293000Y-103646250D01*
X159293000Y-102647000D01*
X159547000Y-102647000D01*
X159547000Y-103646250D01*
X159705750Y-103805000D01*
X160195000Y-103808072D01*
X160319482Y-103795812D01*
X160439180Y-103759502D01*
X160549494Y-103700537D01*
X160646185Y-103621185D01*
X160725537Y-103524494D01*
X160727939Y-103520000D01*
X167206928Y-103520000D01*
X167219188Y-103644482D01*
X167255498Y-103764180D01*
X167314463Y-103874494D01*
X167393815Y-103971185D01*
X167490506Y-104050537D01*
X167600820Y-104109502D01*
X167720518Y-104145812D01*
X167845000Y-104158072D01*
X168409250Y-104155000D01*
X168568000Y-103996250D01*
X168568000Y-103197000D01*
X168822000Y-103197000D01*
X168822000Y-103996250D01*
X168980750Y-104155000D01*
X169545000Y-104158072D01*
X169669482Y-104145812D01*
X169789180Y-104109502D01*
X169899494Y-104050537D01*
X169996185Y-103971185D01*
X170075537Y-103874494D01*
X170134502Y-103764180D01*
X170170812Y-103644482D01*
X170183072Y-103520000D01*
X170180000Y-103355750D01*
X170021250Y-103197000D01*
X168822000Y-103197000D01*
X168568000Y-103197000D01*
X167368750Y-103197000D01*
X167210000Y-103355750D01*
X167206928Y-103520000D01*
X160727939Y-103520000D01*
X160784502Y-103414180D01*
X160820812Y-103294482D01*
X160833072Y-103170000D01*
X160830000Y-102805750D01*
X160671250Y-102647000D01*
X159547000Y-102647000D01*
X159293000Y-102647000D01*
X158168750Y-102647000D01*
X158010000Y-102805750D01*
X158006928Y-103170000D01*
X155117231Y-103170000D01*
X155119000Y-103152045D01*
X155119000Y-103152037D01*
X155121909Y-103122500D01*
X155119000Y-103092963D01*
X155119000Y-102620000D01*
X167206928Y-102620000D01*
X167210000Y-102784250D01*
X167368750Y-102943000D01*
X168568000Y-102943000D01*
X168568000Y-102143750D01*
X168822000Y-102143750D01*
X168822000Y-102943000D01*
X170021250Y-102943000D01*
X170180000Y-102784250D01*
X170183072Y-102620000D01*
X170170812Y-102495518D01*
X170134502Y-102375820D01*
X170075537Y-102265506D01*
X169996185Y-102168815D01*
X169899494Y-102089463D01*
X169789180Y-102030498D01*
X169669482Y-101994188D01*
X169545000Y-101981928D01*
X168980750Y-101985000D01*
X168822000Y-102143750D01*
X168568000Y-102143750D01*
X168409250Y-101985000D01*
X167845000Y-101981928D01*
X167720518Y-101994188D01*
X167600820Y-102030498D01*
X167490506Y-102089463D01*
X167393815Y-102168815D01*
X167314463Y-102265506D01*
X167255498Y-102375820D01*
X167219188Y-102495518D01*
X167206928Y-102620000D01*
X155119000Y-102620000D01*
X155119000Y-101044253D01*
X155135047Y-101035676D01*
X155237003Y-100952003D01*
X155320676Y-100850047D01*
X155382851Y-100733726D01*
X155421138Y-100607510D01*
X155434066Y-100476250D01*
X155434066Y-99563750D01*
X155421138Y-99432490D01*
X155417956Y-99422000D01*
X155492044Y-99422000D01*
X155488862Y-99432490D01*
G37*
%TD.AperFunction*%
D16*
X139971362Y-99452490D02*
X139958434Y-99583750D01*
X139958434Y-100496250D01*
X139971362Y-100627510D01*
X140009649Y-100753726D01*
X140071824Y-100870047D01*
X140155497Y-100972003D01*
X140257453Y-101055676D01*
X140373774Y-101117851D01*
X140499990Y-101156138D01*
X140631250Y-101169066D01*
X141118750Y-101169066D01*
X141250010Y-101156138D01*
X141376226Y-101117851D01*
X141492547Y-101055676D01*
X141594503Y-100972003D01*
X141656250Y-100896764D01*
X141717997Y-100972003D01*
X141819953Y-101055676D01*
X141936274Y-101117851D01*
X142062490Y-101156138D01*
X142193750Y-101169066D01*
X142681250Y-101169066D01*
X142812510Y-101156138D01*
X142938726Y-101117851D01*
X143055047Y-101055676D01*
X143157003Y-100972003D01*
X143211617Y-100905455D01*
X143235498Y-100984180D01*
X143294463Y-101094494D01*
X143373815Y-101191185D01*
X143425608Y-101233690D01*
X143145000Y-101231928D01*
X143020518Y-101244188D01*
X142900820Y-101280498D01*
X142790506Y-101339463D01*
X142693815Y-101418815D01*
X142614463Y-101515506D01*
X142555498Y-101625820D01*
X142519188Y-101745518D01*
X142506928Y-101870000D01*
X142510000Y-102234250D01*
X142668750Y-102393000D01*
X143793000Y-102393000D01*
X143793000Y-102373000D01*
X144047000Y-102373000D01*
X144047000Y-102393000D01*
X145171250Y-102393000D01*
X145330000Y-102234250D01*
X145333072Y-101870000D01*
X150056928Y-101870000D01*
X150060000Y-102234250D01*
X150218750Y-102393000D01*
X151343000Y-102393000D01*
X151343000Y-101393750D01*
X151597000Y-101393750D01*
X151597000Y-102393000D01*
X152721250Y-102393000D01*
X152880000Y-102234250D01*
X152883072Y-101870000D01*
X152870812Y-101745518D01*
X152834502Y-101625820D01*
X152775537Y-101515506D01*
X152696185Y-101418815D01*
X152599494Y-101339463D01*
X152489180Y-101280498D01*
X152369482Y-101244188D01*
X152245000Y-101231928D01*
X151755750Y-101235000D01*
X151597000Y-101393750D01*
X151343000Y-101393750D01*
X151184250Y-101235000D01*
X150695000Y-101231928D01*
X150570518Y-101244188D01*
X150450820Y-101280498D01*
X150340506Y-101339463D01*
X150243815Y-101418815D01*
X150164463Y-101515506D01*
X150105498Y-101625820D01*
X150069188Y-101745518D01*
X150056928Y-101870000D01*
X145333072Y-101870000D01*
X145320812Y-101745518D01*
X145284502Y-101625820D01*
X145225537Y-101515506D01*
X145146185Y-101418815D01*
X145049494Y-101339463D01*
X145035682Y-101332080D01*
X145044180Y-101329502D01*
X145154494Y-101270537D01*
X145251185Y-101191185D01*
X145330537Y-101094494D01*
X145389502Y-100984180D01*
X145425812Y-100864482D01*
X145438072Y-100740000D01*
X145435000Y-100325750D01*
X145276250Y-100167000D01*
X144439500Y-100167000D01*
X144439500Y-100187000D01*
X144185500Y-100187000D01*
X144185500Y-100167000D01*
X144165500Y-100167000D01*
X144165500Y-99913000D01*
X144185500Y-99913000D01*
X144185500Y-99893000D01*
X144439500Y-99893000D01*
X144439500Y-99913000D01*
X145276250Y-99913000D01*
X145435000Y-99754250D01*
X145437464Y-99422000D01*
X153617044Y-99422000D01*
X153613862Y-99432490D01*
X153600934Y-99563750D01*
X153600934Y-100476250D01*
X153613862Y-100607510D01*
X153652149Y-100733726D01*
X153714324Y-100850047D01*
X153797997Y-100952003D01*
X153899953Y-101035676D01*
X153916001Y-101044254D01*
X153916000Y-102873350D01*
X152910851Y-103878500D01*
X138792149Y-103878500D01*
X139404434Y-103266215D01*
X139427382Y-103247382D01*
X139490888Y-103170000D01*
X142506928Y-103170000D01*
X142519188Y-103294482D01*
X142555498Y-103414180D01*
X142614463Y-103524494D01*
X142693815Y-103621185D01*
X142790506Y-103700537D01*
X142900820Y-103759502D01*
X143020518Y-103795812D01*
X143145000Y-103808072D01*
X143634250Y-103805000D01*
X143793000Y-103646250D01*
X143793000Y-102647000D01*
X144047000Y-102647000D01*
X144047000Y-103646250D01*
X144205750Y-103805000D01*
X144695000Y-103808072D01*
X144819482Y-103795812D01*
X144939180Y-103759502D01*
X145049494Y-103700537D01*
X145146185Y-103621185D01*
X145225537Y-103524494D01*
X145284502Y-103414180D01*
X145320812Y-103294482D01*
X145333072Y-103170000D01*
X150056928Y-103170000D01*
X150069188Y-103294482D01*
X150105498Y-103414180D01*
X150164463Y-103524494D01*
X150243815Y-103621185D01*
X150340506Y-103700537D01*
X150450820Y-103759502D01*
X150570518Y-103795812D01*
X150695000Y-103808072D01*
X151184250Y-103805000D01*
X151343000Y-103646250D01*
X151343000Y-102647000D01*
X151597000Y-102647000D01*
X151597000Y-103646250D01*
X151755750Y-103805000D01*
X152245000Y-103808072D01*
X152369482Y-103795812D01*
X152489180Y-103759502D01*
X152599494Y-103700537D01*
X152696185Y-103621185D01*
X152775537Y-103524494D01*
X152834502Y-103414180D01*
X152870812Y-103294482D01*
X152883072Y-103170000D01*
X152880000Y-102805750D01*
X152721250Y-102647000D01*
X151597000Y-102647000D01*
X151343000Y-102647000D01*
X150218750Y-102647000D01*
X150060000Y-102805750D01*
X150056928Y-103170000D01*
X145333072Y-103170000D01*
X145330000Y-102805750D01*
X145171250Y-102647000D01*
X144047000Y-102647000D01*
X143793000Y-102647000D01*
X142668750Y-102647000D01*
X142510000Y-102805750D01*
X142506928Y-103170000D01*
X139490888Y-103170000D01*
X139502549Y-103155792D01*
X139558402Y-103051298D01*
X139562759Y-103036934D01*
X139592796Y-102937916D01*
X139597397Y-102891203D01*
X139601500Y-102849545D01*
X139601500Y-102849538D01*
X139604409Y-102820001D01*
X139601500Y-102790464D01*
X139601500Y-101064253D01*
X139617547Y-101055676D01*
X139719503Y-100972003D01*
X139803176Y-100870047D01*
X139865351Y-100753726D01*
X139903638Y-100627510D01*
X139916566Y-100496250D01*
X139916566Y-99583750D01*
X139903638Y-99452490D01*
X139894389Y-99422000D01*
X139980611Y-99422000D01*
X139971362Y-99452490D01*
%TA.AperFunction,Conductor*%
D17*
G36*
X139971362Y-99452490D02*
G01*
X139958434Y-99583750D01*
X139958434Y-100496250D01*
X139971362Y-100627510D01*
X140009649Y-100753726D01*
X140071824Y-100870047D01*
X140155497Y-100972003D01*
X140257453Y-101055676D01*
X140373774Y-101117851D01*
X140499990Y-101156138D01*
X140631250Y-101169066D01*
X141118750Y-101169066D01*
X141250010Y-101156138D01*
X141376226Y-101117851D01*
X141492547Y-101055676D01*
X141594503Y-100972003D01*
X141656250Y-100896764D01*
X141717997Y-100972003D01*
X141819953Y-101055676D01*
X141936274Y-101117851D01*
X142062490Y-101156138D01*
X142193750Y-101169066D01*
X142681250Y-101169066D01*
X142812510Y-101156138D01*
X142938726Y-101117851D01*
X143055047Y-101055676D01*
X143157003Y-100972003D01*
X143211617Y-100905455D01*
X143235498Y-100984180D01*
X143294463Y-101094494D01*
X143373815Y-101191185D01*
X143425608Y-101233690D01*
X143145000Y-101231928D01*
X143020518Y-101244188D01*
X142900820Y-101280498D01*
X142790506Y-101339463D01*
X142693815Y-101418815D01*
X142614463Y-101515506D01*
X142555498Y-101625820D01*
X142519188Y-101745518D01*
X142506928Y-101870000D01*
X142510000Y-102234250D01*
X142668750Y-102393000D01*
X143793000Y-102393000D01*
X143793000Y-102373000D01*
X144047000Y-102373000D01*
X144047000Y-102393000D01*
X145171250Y-102393000D01*
X145330000Y-102234250D01*
X145333072Y-101870000D01*
X150056928Y-101870000D01*
X150060000Y-102234250D01*
X150218750Y-102393000D01*
X151343000Y-102393000D01*
X151343000Y-101393750D01*
X151597000Y-101393750D01*
X151597000Y-102393000D01*
X152721250Y-102393000D01*
X152880000Y-102234250D01*
X152883072Y-101870000D01*
X152870812Y-101745518D01*
X152834502Y-101625820D01*
X152775537Y-101515506D01*
X152696185Y-101418815D01*
X152599494Y-101339463D01*
X152489180Y-101280498D01*
X152369482Y-101244188D01*
X152245000Y-101231928D01*
X151755750Y-101235000D01*
X151597000Y-101393750D01*
X151343000Y-101393750D01*
X151184250Y-101235000D01*
X150695000Y-101231928D01*
X150570518Y-101244188D01*
X150450820Y-101280498D01*
X150340506Y-101339463D01*
X150243815Y-101418815D01*
X150164463Y-101515506D01*
X150105498Y-101625820D01*
X150069188Y-101745518D01*
X150056928Y-101870000D01*
X145333072Y-101870000D01*
X145320812Y-101745518D01*
X145284502Y-101625820D01*
X145225537Y-101515506D01*
X145146185Y-101418815D01*
X145049494Y-101339463D01*
X145035682Y-101332080D01*
X145044180Y-101329502D01*
X145154494Y-101270537D01*
X145251185Y-101191185D01*
X145330537Y-101094494D01*
X145389502Y-100984180D01*
X145425812Y-100864482D01*
X145438072Y-100740000D01*
X145435000Y-100325750D01*
X145276250Y-100167000D01*
X144439500Y-100167000D01*
X144439500Y-100187000D01*
X144185500Y-100187000D01*
X144185500Y-100167000D01*
X144165500Y-100167000D01*
X144165500Y-99913000D01*
X144185500Y-99913000D01*
X144185500Y-99893000D01*
X144439500Y-99893000D01*
X144439500Y-99913000D01*
X145276250Y-99913000D01*
X145435000Y-99754250D01*
X145437464Y-99422000D01*
X153617044Y-99422000D01*
X153613862Y-99432490D01*
X153600934Y-99563750D01*
X153600934Y-100476250D01*
X153613862Y-100607510D01*
X153652149Y-100733726D01*
X153714324Y-100850047D01*
X153797997Y-100952003D01*
X153899953Y-101035676D01*
X153916001Y-101044254D01*
X153916000Y-102873350D01*
X152910851Y-103878500D01*
X138792149Y-103878500D01*
X139404434Y-103266215D01*
X139427382Y-103247382D01*
X139490888Y-103170000D01*
X142506928Y-103170000D01*
X142519188Y-103294482D01*
X142555498Y-103414180D01*
X142614463Y-103524494D01*
X142693815Y-103621185D01*
X142790506Y-103700537D01*
X142900820Y-103759502D01*
X143020518Y-103795812D01*
X143145000Y-103808072D01*
X143634250Y-103805000D01*
X143793000Y-103646250D01*
X143793000Y-102647000D01*
X144047000Y-102647000D01*
X144047000Y-103646250D01*
X144205750Y-103805000D01*
X144695000Y-103808072D01*
X144819482Y-103795812D01*
X144939180Y-103759502D01*
X145049494Y-103700537D01*
X145146185Y-103621185D01*
X145225537Y-103524494D01*
X145284502Y-103414180D01*
X145320812Y-103294482D01*
X145333072Y-103170000D01*
X150056928Y-103170000D01*
X150069188Y-103294482D01*
X150105498Y-103414180D01*
X150164463Y-103524494D01*
X150243815Y-103621185D01*
X150340506Y-103700537D01*
X150450820Y-103759502D01*
X150570518Y-103795812D01*
X150695000Y-103808072D01*
X151184250Y-103805000D01*
X151343000Y-103646250D01*
X151343000Y-102647000D01*
X151597000Y-102647000D01*
X151597000Y-103646250D01*
X151755750Y-103805000D01*
X152245000Y-103808072D01*
X152369482Y-103795812D01*
X152489180Y-103759502D01*
X152599494Y-103700537D01*
X152696185Y-103621185D01*
X152775537Y-103524494D01*
X152834502Y-103414180D01*
X152870812Y-103294482D01*
X152883072Y-103170000D01*
X152880000Y-102805750D01*
X152721250Y-102647000D01*
X151597000Y-102647000D01*
X151343000Y-102647000D01*
X150218750Y-102647000D01*
X150060000Y-102805750D01*
X150056928Y-103170000D01*
X145333072Y-103170000D01*
X145330000Y-102805750D01*
X145171250Y-102647000D01*
X144047000Y-102647000D01*
X143793000Y-102647000D01*
X142668750Y-102647000D01*
X142510000Y-102805750D01*
X142506928Y-103170000D01*
X139490888Y-103170000D01*
X139502549Y-103155792D01*
X139558402Y-103051298D01*
X139562759Y-103036934D01*
X139592796Y-102937916D01*
X139597397Y-102891203D01*
X139601500Y-102849545D01*
X139601500Y-102849538D01*
X139604409Y-102820001D01*
X139601500Y-102790464D01*
X139601500Y-101064253D01*
X139617547Y-101055676D01*
X139719503Y-100972003D01*
X139803176Y-100870047D01*
X139865351Y-100753726D01*
X139903638Y-100627510D01*
X139916566Y-100496250D01*
X139916566Y-99583750D01*
X139903638Y-99452490D01*
X139894389Y-99422000D01*
X139980611Y-99422000D01*
X139971362Y-99452490D01*
G37*
%TD.AperFunction*%
D16*
X125468862Y-99452490D02*
X125455934Y-99583750D01*
X125455934Y-100496250D01*
X125468862Y-100627510D01*
X125507149Y-100753726D01*
X125569324Y-100870047D01*
X125652997Y-100972003D01*
X125754953Y-101055676D01*
X125871274Y-101117851D01*
X125997490Y-101156138D01*
X126128750Y-101169066D01*
X126616250Y-101169066D01*
X126747510Y-101156138D01*
X126873726Y-101117851D01*
X126990047Y-101055676D01*
X127092003Y-100972003D01*
X127175676Y-100870047D01*
X127185000Y-100852603D01*
X127194324Y-100870047D01*
X127277997Y-100972003D01*
X127379953Y-101055676D01*
X127496274Y-101117851D01*
X127622490Y-101156138D01*
X127753750Y-101169066D01*
X128241250Y-101169066D01*
X128372510Y-101156138D01*
X128498726Y-101117851D01*
X128615047Y-101055676D01*
X128717003Y-100972003D01*
X128771617Y-100905455D01*
X128795498Y-100984180D01*
X128854463Y-101094494D01*
X128933815Y-101191185D01*
X128986070Y-101234070D01*
X128645000Y-101231928D01*
X128520518Y-101244188D01*
X128400820Y-101280498D01*
X128290506Y-101339463D01*
X128193815Y-101418815D01*
X128114463Y-101515506D01*
X128055498Y-101625820D01*
X128019188Y-101745518D01*
X128006928Y-101870000D01*
X128010000Y-102234250D01*
X128168750Y-102393000D01*
X129293000Y-102393000D01*
X129293000Y-102373000D01*
X129547000Y-102373000D01*
X129547000Y-102393000D01*
X130671250Y-102393000D01*
X130830000Y-102234250D01*
X130833072Y-101870000D01*
X134556928Y-101870000D01*
X134560000Y-102234250D01*
X134718750Y-102393000D01*
X135843000Y-102393000D01*
X135843000Y-101393750D01*
X136097000Y-101393750D01*
X136097000Y-102393000D01*
X137221250Y-102393000D01*
X137380000Y-102234250D01*
X137383072Y-101870000D01*
X137370812Y-101745518D01*
X137334502Y-101625820D01*
X137275537Y-101515506D01*
X137196185Y-101418815D01*
X137099494Y-101339463D01*
X136989180Y-101280498D01*
X136869482Y-101244188D01*
X136745000Y-101231928D01*
X136255750Y-101235000D01*
X136097000Y-101393750D01*
X135843000Y-101393750D01*
X135684250Y-101235000D01*
X135195000Y-101231928D01*
X135070518Y-101244188D01*
X134950820Y-101280498D01*
X134840506Y-101339463D01*
X134743815Y-101418815D01*
X134664463Y-101515506D01*
X134605498Y-101625820D01*
X134569188Y-101745518D01*
X134556928Y-101870000D01*
X130833072Y-101870000D01*
X130820812Y-101745518D01*
X130784502Y-101625820D01*
X130725537Y-101515506D01*
X130646185Y-101418815D01*
X130555391Y-101344302D01*
X130604180Y-101329502D01*
X130714494Y-101270537D01*
X130811185Y-101191185D01*
X130890537Y-101094494D01*
X130949502Y-100984180D01*
X130985812Y-100864482D01*
X130998072Y-100740000D01*
X130995000Y-100325750D01*
X130836250Y-100167000D01*
X129999500Y-100167000D01*
X129999500Y-100187000D01*
X129745500Y-100187000D01*
X129745500Y-100167000D01*
X129725500Y-100167000D01*
X129725500Y-99913000D01*
X129745500Y-99913000D01*
X129745500Y-99893000D01*
X129999500Y-99893000D01*
X129999500Y-99913000D01*
X130836250Y-99913000D01*
X130995000Y-99754250D01*
X130997464Y-99422000D01*
X138105611Y-99422000D01*
X138096362Y-99452490D01*
X138083434Y-99583750D01*
X138083434Y-100496250D01*
X138096362Y-100627510D01*
X138134649Y-100753726D01*
X138196824Y-100870047D01*
X138280497Y-100972003D01*
X138382453Y-101055676D01*
X138398501Y-101064254D01*
X138398500Y-102570851D01*
X137590851Y-103378500D01*
X137345325Y-103378500D01*
X137370812Y-103294482D01*
X137383072Y-103170000D01*
X137380000Y-102805750D01*
X137221250Y-102647000D01*
X136097000Y-102647000D01*
X136097000Y-102667000D01*
X135843000Y-102667000D01*
X135843000Y-102647000D01*
X134718750Y-102647000D01*
X134560000Y-102805750D01*
X134556928Y-103170000D01*
X134569188Y-103294482D01*
X134594675Y-103378500D01*
X130795325Y-103378500D01*
X130820812Y-103294482D01*
X130833072Y-103170000D01*
X130830000Y-102805750D01*
X130671250Y-102647000D01*
X129547000Y-102647000D01*
X129547000Y-102667000D01*
X129293000Y-102667000D01*
X129293000Y-102647000D01*
X128168750Y-102647000D01*
X128010000Y-102805750D01*
X128006928Y-103170000D01*
X128019188Y-103294482D01*
X128044675Y-103378500D01*
X124602150Y-103378500D01*
X124901939Y-103078711D01*
X124924882Y-103059882D01*
X124943712Y-103036938D01*
X124943716Y-103036934D01*
X124992532Y-102977451D01*
X125000049Y-102968292D01*
X125055902Y-102863798D01*
X125069188Y-102820001D01*
X125090296Y-102750416D01*
X125091306Y-102740158D01*
X125099000Y-102662045D01*
X125099000Y-102662037D01*
X125101909Y-102632500D01*
X125099000Y-102602963D01*
X125099000Y-101064253D01*
X125115047Y-101055676D01*
X125217003Y-100972003D01*
X125300676Y-100870047D01*
X125362851Y-100753726D01*
X125401138Y-100627510D01*
X125414066Y-100496250D01*
X125414066Y-99583750D01*
X125401138Y-99452490D01*
X125391889Y-99422000D01*
X125478111Y-99422000D01*
X125468862Y-99452490D01*
%TA.AperFunction,Conductor*%
D17*
G36*
X125468862Y-99452490D02*
G01*
X125455934Y-99583750D01*
X125455934Y-100496250D01*
X125468862Y-100627510D01*
X125507149Y-100753726D01*
X125569324Y-100870047D01*
X125652997Y-100972003D01*
X125754953Y-101055676D01*
X125871274Y-101117851D01*
X125997490Y-101156138D01*
X126128750Y-101169066D01*
X126616250Y-101169066D01*
X126747510Y-101156138D01*
X126873726Y-101117851D01*
X126990047Y-101055676D01*
X127092003Y-100972003D01*
X127175676Y-100870047D01*
X127185000Y-100852603D01*
X127194324Y-100870047D01*
X127277997Y-100972003D01*
X127379953Y-101055676D01*
X127496274Y-101117851D01*
X127622490Y-101156138D01*
X127753750Y-101169066D01*
X128241250Y-101169066D01*
X128372510Y-101156138D01*
X128498726Y-101117851D01*
X128615047Y-101055676D01*
X128717003Y-100972003D01*
X128771617Y-100905455D01*
X128795498Y-100984180D01*
X128854463Y-101094494D01*
X128933815Y-101191185D01*
X128986070Y-101234070D01*
X128645000Y-101231928D01*
X128520518Y-101244188D01*
X128400820Y-101280498D01*
X128290506Y-101339463D01*
X128193815Y-101418815D01*
X128114463Y-101515506D01*
X128055498Y-101625820D01*
X128019188Y-101745518D01*
X128006928Y-101870000D01*
X128010000Y-102234250D01*
X128168750Y-102393000D01*
X129293000Y-102393000D01*
X129293000Y-102373000D01*
X129547000Y-102373000D01*
X129547000Y-102393000D01*
X130671250Y-102393000D01*
X130830000Y-102234250D01*
X130833072Y-101870000D01*
X134556928Y-101870000D01*
X134560000Y-102234250D01*
X134718750Y-102393000D01*
X135843000Y-102393000D01*
X135843000Y-101393750D01*
X136097000Y-101393750D01*
X136097000Y-102393000D01*
X137221250Y-102393000D01*
X137380000Y-102234250D01*
X137383072Y-101870000D01*
X137370812Y-101745518D01*
X137334502Y-101625820D01*
X137275537Y-101515506D01*
X137196185Y-101418815D01*
X137099494Y-101339463D01*
X136989180Y-101280498D01*
X136869482Y-101244188D01*
X136745000Y-101231928D01*
X136255750Y-101235000D01*
X136097000Y-101393750D01*
X135843000Y-101393750D01*
X135684250Y-101235000D01*
X135195000Y-101231928D01*
X135070518Y-101244188D01*
X134950820Y-101280498D01*
X134840506Y-101339463D01*
X134743815Y-101418815D01*
X134664463Y-101515506D01*
X134605498Y-101625820D01*
X134569188Y-101745518D01*
X134556928Y-101870000D01*
X130833072Y-101870000D01*
X130820812Y-101745518D01*
X130784502Y-101625820D01*
X130725537Y-101515506D01*
X130646185Y-101418815D01*
X130555391Y-101344302D01*
X130604180Y-101329502D01*
X130714494Y-101270537D01*
X130811185Y-101191185D01*
X130890537Y-101094494D01*
X130949502Y-100984180D01*
X130985812Y-100864482D01*
X130998072Y-100740000D01*
X130995000Y-100325750D01*
X130836250Y-100167000D01*
X129999500Y-100167000D01*
X129999500Y-100187000D01*
X129745500Y-100187000D01*
X129745500Y-100167000D01*
X129725500Y-100167000D01*
X129725500Y-99913000D01*
X129745500Y-99913000D01*
X129745500Y-99893000D01*
X129999500Y-99893000D01*
X129999500Y-99913000D01*
X130836250Y-99913000D01*
X130995000Y-99754250D01*
X130997464Y-99422000D01*
X138105611Y-99422000D01*
X138096362Y-99452490D01*
X138083434Y-99583750D01*
X138083434Y-100496250D01*
X138096362Y-100627510D01*
X138134649Y-100753726D01*
X138196824Y-100870047D01*
X138280497Y-100972003D01*
X138382453Y-101055676D01*
X138398501Y-101064254D01*
X138398500Y-102570851D01*
X137590851Y-103378500D01*
X137345325Y-103378500D01*
X137370812Y-103294482D01*
X137383072Y-103170000D01*
X137380000Y-102805750D01*
X137221250Y-102647000D01*
X136097000Y-102647000D01*
X136097000Y-102667000D01*
X135843000Y-102667000D01*
X135843000Y-102647000D01*
X134718750Y-102647000D01*
X134560000Y-102805750D01*
X134556928Y-103170000D01*
X134569188Y-103294482D01*
X134594675Y-103378500D01*
X130795325Y-103378500D01*
X130820812Y-103294482D01*
X130833072Y-103170000D01*
X130830000Y-102805750D01*
X130671250Y-102647000D01*
X129547000Y-102647000D01*
X129547000Y-102667000D01*
X129293000Y-102667000D01*
X129293000Y-102647000D01*
X128168750Y-102647000D01*
X128010000Y-102805750D01*
X128006928Y-103170000D01*
X128019188Y-103294482D01*
X128044675Y-103378500D01*
X124602150Y-103378500D01*
X124901939Y-103078711D01*
X124924882Y-103059882D01*
X124943712Y-103036938D01*
X124943716Y-103036934D01*
X124992532Y-102977451D01*
X125000049Y-102968292D01*
X125055902Y-102863798D01*
X125069188Y-102820001D01*
X125090296Y-102750416D01*
X125091306Y-102740158D01*
X125099000Y-102662045D01*
X125099000Y-102662037D01*
X125101909Y-102632500D01*
X125099000Y-102602963D01*
X125099000Y-101064253D01*
X125115047Y-101055676D01*
X125217003Y-100972003D01*
X125300676Y-100870047D01*
X125362851Y-100753726D01*
X125401138Y-100627510D01*
X125414066Y-100496250D01*
X125414066Y-99583750D01*
X125401138Y-99452490D01*
X125391889Y-99422000D01*
X125478111Y-99422000D01*
X125468862Y-99452490D01*
G37*
%TD.AperFunction*%
%TD*%
M02*
