%TF.GenerationSoftware,KiCad,Pcbnew,5.1.8+dfsg1-1~bpo10+1*%
%TF.CreationDate,2021-01-23T23:31:27+00:00*%
%TF.ProjectId,atlas,61746c61-732e-46b6-9963-61645f706362,rev?*%
%TF.SameCoordinates,Original*%
%TF.FileFunction,Paste,Bot*%
%TF.FilePolarity,Positive*%
%FSLAX46Y46*%
G04 Gerber Fmt 4.6, Leading zero omitted, Abs format (unit mm)*
G04 Created by KiCad (PCBNEW 5.1.8+dfsg1-1~bpo10+1) date 2021-01-23 23:31:27*
%MOMM*%
%LPD*%
G01*
G04 APERTURE LIST*
%ADD10R,2.200000X1.800000*%
%ADD11R,1.300000X0.300000*%
%ADD12R,0.800000X1.000000*%
%ADD13R,2.700000X0.800000*%
%ADD14R,0.900000X0.800000*%
%ADD15C,0.100000*%
%ADD16O,2.150000X0.700000*%
%ADD17O,0.700000X2.150000*%
%ADD18R,0.800000X0.900000*%
%ADD19R,0.500000X0.320000*%
%ADD20R,1.100000X0.300000*%
%ADD21R,1.300000X0.420000*%
G04 APERTURE END LIST*
%TO.C,C28*%
G36*
G01*
X211347500Y-112730000D02*
X211692500Y-112730000D01*
G75*
G02*
X211840000Y-112877500I0J-147500D01*
G01*
X211840000Y-113172500D01*
G75*
G02*
X211692500Y-113320000I-147500J0D01*
G01*
X211347500Y-113320000D01*
G75*
G02*
X211200000Y-113172500I0J147500D01*
G01*
X211200000Y-112877500D01*
G75*
G02*
X211347500Y-112730000I147500J0D01*
G01*
G37*
G36*
G01*
X211347500Y-111760000D02*
X211692500Y-111760000D01*
G75*
G02*
X211840000Y-111907500I0J-147500D01*
G01*
X211840000Y-112202500D01*
G75*
G02*
X211692500Y-112350000I-147500J0D01*
G01*
X211347500Y-112350000D01*
G75*
G02*
X211200000Y-112202500I0J147500D01*
G01*
X211200000Y-111907500D01*
G75*
G02*
X211347500Y-111760000I147500J0D01*
G01*
G37*
%TD*%
%TO.C,C20*%
G36*
G01*
X206435440Y-107497590D02*
X206435440Y-106985090D01*
G75*
G02*
X206654190Y-106766340I218750J0D01*
G01*
X207091690Y-106766340D01*
G75*
G02*
X207310440Y-106985090I0J-218750D01*
G01*
X207310440Y-107497590D01*
G75*
G02*
X207091690Y-107716340I-218750J0D01*
G01*
X206654190Y-107716340D01*
G75*
G02*
X206435440Y-107497590I0J218750D01*
G01*
G37*
G36*
G01*
X204860440Y-107497590D02*
X204860440Y-106985090D01*
G75*
G02*
X205079190Y-106766340I218750J0D01*
G01*
X205516690Y-106766340D01*
G75*
G02*
X205735440Y-106985090I0J-218750D01*
G01*
X205735440Y-107497590D01*
G75*
G02*
X205516690Y-107716340I-218750J0D01*
G01*
X205079190Y-107716340D01*
G75*
G02*
X204860440Y-107497590I0J218750D01*
G01*
G37*
%TD*%
D10*
%TO.C,J13*%
X177050000Y-102600000D03*
X177050000Y-110900000D03*
D11*
X180300000Y-109000000D03*
X180300000Y-108500000D03*
X180300000Y-108000000D03*
X180300000Y-107500000D03*
X180300000Y-107000000D03*
X180300000Y-106500000D03*
X180300000Y-106000000D03*
X180300000Y-105500000D03*
X180300000Y-105000000D03*
X180300000Y-104500000D03*
%TD*%
%TO.C,C18*%
G36*
G01*
X187890000Y-132972500D02*
X187890000Y-132627500D01*
G75*
G02*
X188037500Y-132480000I147500J0D01*
G01*
X188332500Y-132480000D01*
G75*
G02*
X188480000Y-132627500I0J-147500D01*
G01*
X188480000Y-132972500D01*
G75*
G02*
X188332500Y-133120000I-147500J0D01*
G01*
X188037500Y-133120000D01*
G75*
G02*
X187890000Y-132972500I0J147500D01*
G01*
G37*
G36*
G01*
X186920000Y-132972500D02*
X186920000Y-132627500D01*
G75*
G02*
X187067500Y-132480000I147500J0D01*
G01*
X187362500Y-132480000D01*
G75*
G02*
X187510000Y-132627500I0J-147500D01*
G01*
X187510000Y-132972500D01*
G75*
G02*
X187362500Y-133120000I-147500J0D01*
G01*
X187067500Y-133120000D01*
G75*
G02*
X186920000Y-132972500I0J147500D01*
G01*
G37*
%TD*%
%TO.C,R31*%
G36*
G01*
X202245000Y-125022500D02*
X202245000Y-124677500D01*
G75*
G02*
X202392500Y-124530000I147500J0D01*
G01*
X202687500Y-124530000D01*
G75*
G02*
X202835000Y-124677500I0J-147500D01*
G01*
X202835000Y-125022500D01*
G75*
G02*
X202687500Y-125170000I-147500J0D01*
G01*
X202392500Y-125170000D01*
G75*
G02*
X202245000Y-125022500I0J147500D01*
G01*
G37*
G36*
G01*
X203215000Y-125022500D02*
X203215000Y-124677500D01*
G75*
G02*
X203362500Y-124530000I147500J0D01*
G01*
X203657500Y-124530000D01*
G75*
G02*
X203805000Y-124677500I0J-147500D01*
G01*
X203805000Y-125022500D01*
G75*
G02*
X203657500Y-125170000I-147500J0D01*
G01*
X203362500Y-125170000D01*
G75*
G02*
X203215000Y-125022500I0J147500D01*
G01*
G37*
%TD*%
D12*
%TO.C,D6*%
X210775000Y-116800000D03*
X208875000Y-116800000D03*
%TD*%
%TO.C,R20*%
G36*
G01*
X204819750Y-116091000D02*
X205332250Y-116091000D01*
G75*
G02*
X205551000Y-116309750I0J-218750D01*
G01*
X205551000Y-116747250D01*
G75*
G02*
X205332250Y-116966000I-218750J0D01*
G01*
X204819750Y-116966000D01*
G75*
G02*
X204601000Y-116747250I0J218750D01*
G01*
X204601000Y-116309750D01*
G75*
G02*
X204819750Y-116091000I218750J0D01*
G01*
G37*
G36*
G01*
X204819750Y-114516000D02*
X205332250Y-114516000D01*
G75*
G02*
X205551000Y-114734750I0J-218750D01*
G01*
X205551000Y-115172250D01*
G75*
G02*
X205332250Y-115391000I-218750J0D01*
G01*
X204819750Y-115391000D01*
G75*
G02*
X204601000Y-115172250I0J218750D01*
G01*
X204601000Y-114734750D01*
G75*
G02*
X204819750Y-114516000I218750J0D01*
G01*
G37*
%TD*%
D13*
%TO.C,L10*%
X209850000Y-118600000D03*
X209850000Y-120800000D03*
%TD*%
D14*
%TO.C,Q2*%
X201125000Y-120275000D03*
X203125000Y-121225000D03*
X203125000Y-119325000D03*
%TD*%
%TO.C,R44*%
G36*
G01*
X212390000Y-114172500D02*
X212390000Y-113827500D01*
G75*
G02*
X212537500Y-113680000I147500J0D01*
G01*
X212832500Y-113680000D01*
G75*
G02*
X212980000Y-113827500I0J-147500D01*
G01*
X212980000Y-114172500D01*
G75*
G02*
X212832500Y-114320000I-147500J0D01*
G01*
X212537500Y-114320000D01*
G75*
G02*
X212390000Y-114172500I0J147500D01*
G01*
G37*
G36*
G01*
X211420000Y-114172500D02*
X211420000Y-113827500D01*
G75*
G02*
X211567500Y-113680000I147500J0D01*
G01*
X211862500Y-113680000D01*
G75*
G02*
X212010000Y-113827500I0J-147500D01*
G01*
X212010000Y-114172500D01*
G75*
G02*
X211862500Y-114320000I-147500J0D01*
G01*
X211567500Y-114320000D01*
G75*
G02*
X211420000Y-114172500I0J147500D01*
G01*
G37*
%TD*%
D15*
%TO.C,Y4*%
G36*
X185101040Y-104726168D02*
G01*
X186373832Y-105998960D01*
X185666726Y-106706066D01*
X184393934Y-105433274D01*
X185101040Y-104726168D01*
G37*
G36*
X183333274Y-106493934D02*
G01*
X184606066Y-107766726D01*
X183898960Y-108473832D01*
X182626168Y-107201040D01*
X183333274Y-106493934D01*
G37*
%TD*%
D11*
%TO.C,J10*%
X202700000Y-88550000D03*
X202700000Y-89050000D03*
X202700000Y-89550000D03*
X202700000Y-90050000D03*
X202700000Y-90550000D03*
X202700000Y-91050000D03*
X202700000Y-91550000D03*
X202700000Y-92050000D03*
X202700000Y-92550000D03*
X202700000Y-93050000D03*
X202700000Y-93550000D03*
X202700000Y-94050000D03*
X202700000Y-94550000D03*
X202700000Y-95050000D03*
X202700000Y-95550000D03*
X202700000Y-96050000D03*
X202700000Y-96550000D03*
X202700000Y-97050000D03*
X202700000Y-97550000D03*
X202700000Y-98050000D03*
X202700000Y-98550000D03*
X202700000Y-99050000D03*
X202700000Y-99550000D03*
X202700000Y-100050000D03*
X202700000Y-100550000D03*
X202700000Y-101050000D03*
X202700000Y-101550000D03*
X202700000Y-102050000D03*
X202700000Y-102550000D03*
X202700000Y-103050000D03*
X202700000Y-103550000D03*
X202700000Y-104050000D03*
X202700000Y-104550000D03*
X202700000Y-105050000D03*
X202700000Y-105550000D03*
X202700000Y-106050000D03*
X202700000Y-106550000D03*
X202700000Y-107050000D03*
X202700000Y-107550000D03*
X202700000Y-108050000D03*
D10*
X199450000Y-109950000D03*
X199450000Y-86650000D03*
%TD*%
D16*
%TO.C,U11*%
X199850000Y-128300000D03*
X190250000Y-128300000D03*
X199850000Y-140450000D03*
X199850000Y-139300000D03*
X199850000Y-138300000D03*
X199850000Y-137300000D03*
X199850000Y-136300000D03*
X199850000Y-135300000D03*
X199850000Y-134300000D03*
X199850000Y-133300000D03*
X199850000Y-132300000D03*
X199850000Y-131300000D03*
X199850000Y-130300000D03*
X199850000Y-129300000D03*
D17*
X197050000Y-127550000D03*
X196050000Y-127550000D03*
X195050000Y-127550000D03*
X194050000Y-127550000D03*
X193050000Y-127550000D03*
D16*
X190250000Y-129300000D03*
X190250000Y-130300000D03*
X190250000Y-131300000D03*
X190250000Y-132300000D03*
X190250000Y-133300000D03*
X190250000Y-134300000D03*
X190250000Y-135300000D03*
X190250000Y-136300000D03*
X190250000Y-137300000D03*
X190250000Y-138300000D03*
X190250000Y-139300000D03*
X190250000Y-140450000D03*
%TD*%
%TO.C,U16*%
G36*
G01*
X207372500Y-118876000D02*
X207247500Y-118876000D01*
G75*
G02*
X207185000Y-118813500I0J62500D01*
G01*
X207185000Y-118238500D01*
G75*
G02*
X207247500Y-118176000I62500J0D01*
G01*
X207372500Y-118176000D01*
G75*
G02*
X207435000Y-118238500I0J-62500D01*
G01*
X207435000Y-118813500D01*
G75*
G02*
X207372500Y-118876000I-62500J0D01*
G01*
G37*
G36*
G01*
X206872500Y-118876000D02*
X206747500Y-118876000D01*
G75*
G02*
X206685000Y-118813500I0J62500D01*
G01*
X206685000Y-118238500D01*
G75*
G02*
X206747500Y-118176000I62500J0D01*
G01*
X206872500Y-118176000D01*
G75*
G02*
X206935000Y-118238500I0J-62500D01*
G01*
X206935000Y-118813500D01*
G75*
G02*
X206872500Y-118876000I-62500J0D01*
G01*
G37*
G36*
G01*
X206372500Y-118876000D02*
X206247500Y-118876000D01*
G75*
G02*
X206185000Y-118813500I0J62500D01*
G01*
X206185000Y-118238500D01*
G75*
G02*
X206247500Y-118176000I62500J0D01*
G01*
X206372500Y-118176000D01*
G75*
G02*
X206435000Y-118238500I0J-62500D01*
G01*
X206435000Y-118813500D01*
G75*
G02*
X206372500Y-118876000I-62500J0D01*
G01*
G37*
G36*
G01*
X205872500Y-118876000D02*
X205747500Y-118876000D01*
G75*
G02*
X205685000Y-118813500I0J62500D01*
G01*
X205685000Y-118238500D01*
G75*
G02*
X205747500Y-118176000I62500J0D01*
G01*
X205872500Y-118176000D01*
G75*
G02*
X205935000Y-118238500I0J-62500D01*
G01*
X205935000Y-118813500D01*
G75*
G02*
X205872500Y-118876000I-62500J0D01*
G01*
G37*
G36*
G01*
X205872500Y-120876000D02*
X205747500Y-120876000D01*
G75*
G02*
X205685000Y-120813500I0J62500D01*
G01*
X205685000Y-120238500D01*
G75*
G02*
X205747500Y-120176000I62500J0D01*
G01*
X205872500Y-120176000D01*
G75*
G02*
X205935000Y-120238500I0J-62500D01*
G01*
X205935000Y-120813500D01*
G75*
G02*
X205872500Y-120876000I-62500J0D01*
G01*
G37*
G36*
G01*
X206372500Y-120876000D02*
X206247500Y-120876000D01*
G75*
G02*
X206185000Y-120813500I0J62500D01*
G01*
X206185000Y-120238500D01*
G75*
G02*
X206247500Y-120176000I62500J0D01*
G01*
X206372500Y-120176000D01*
G75*
G02*
X206435000Y-120238500I0J-62500D01*
G01*
X206435000Y-120813500D01*
G75*
G02*
X206372500Y-120876000I-62500J0D01*
G01*
G37*
G36*
G01*
X206872500Y-120876000D02*
X206747500Y-120876000D01*
G75*
G02*
X206685000Y-120813500I0J62500D01*
G01*
X206685000Y-120238500D01*
G75*
G02*
X206747500Y-120176000I62500J0D01*
G01*
X206872500Y-120176000D01*
G75*
G02*
X206935000Y-120238500I0J-62500D01*
G01*
X206935000Y-120813500D01*
G75*
G02*
X206872500Y-120876000I-62500J0D01*
G01*
G37*
G36*
G01*
X207372500Y-120876000D02*
X207247500Y-120876000D01*
G75*
G02*
X207185000Y-120813500I0J62500D01*
G01*
X207185000Y-120238500D01*
G75*
G02*
X207247500Y-120176000I62500J0D01*
G01*
X207372500Y-120176000D01*
G75*
G02*
X207435000Y-120238500I0J-62500D01*
G01*
X207435000Y-120813500D01*
G75*
G02*
X207372500Y-120876000I-62500J0D01*
G01*
G37*
G36*
G01*
X206395000Y-119481000D02*
X205975000Y-119481000D01*
G75*
G02*
X205885000Y-119391000I0J90000D01*
G01*
X205885000Y-119211000D01*
G75*
G02*
X205975000Y-119121000I90000J0D01*
G01*
X206395000Y-119121000D01*
G75*
G02*
X206485000Y-119211000I0J-90000D01*
G01*
X206485000Y-119391000D01*
G75*
G02*
X206395000Y-119481000I-90000J0D01*
G01*
G37*
G36*
G01*
X207145000Y-119481000D02*
X206725000Y-119481000D01*
G75*
G02*
X206635000Y-119391000I0J90000D01*
G01*
X206635000Y-119211000D01*
G75*
G02*
X206725000Y-119121000I90000J0D01*
G01*
X207145000Y-119121000D01*
G75*
G02*
X207235000Y-119211000I0J-90000D01*
G01*
X207235000Y-119391000D01*
G75*
G02*
X207145000Y-119481000I-90000J0D01*
G01*
G37*
G36*
G01*
X206395000Y-119931000D02*
X205975000Y-119931000D01*
G75*
G02*
X205885000Y-119841000I0J90000D01*
G01*
X205885000Y-119661000D01*
G75*
G02*
X205975000Y-119571000I90000J0D01*
G01*
X206395000Y-119571000D01*
G75*
G02*
X206485000Y-119661000I0J-90000D01*
G01*
X206485000Y-119841000D01*
G75*
G02*
X206395000Y-119931000I-90000J0D01*
G01*
G37*
G36*
G01*
X207145000Y-119931000D02*
X206725000Y-119931000D01*
G75*
G02*
X206635000Y-119841000I0J90000D01*
G01*
X206635000Y-119661000D01*
G75*
G02*
X206725000Y-119571000I90000J0D01*
G01*
X207145000Y-119571000D01*
G75*
G02*
X207235000Y-119661000I0J-90000D01*
G01*
X207235000Y-119841000D01*
G75*
G02*
X207145000Y-119931000I-90000J0D01*
G01*
G37*
%TD*%
%TO.C,U5*%
G36*
G01*
X184040000Y-86685000D02*
X184040000Y-86985000D01*
G75*
G02*
X183890000Y-87135000I-150000J0D01*
G01*
X182465000Y-87135000D01*
G75*
G02*
X182315000Y-86985000I0J150000D01*
G01*
X182315000Y-86685000D01*
G75*
G02*
X182465000Y-86535000I150000J0D01*
G01*
X183890000Y-86535000D01*
G75*
G02*
X184040000Y-86685000I0J-150000D01*
G01*
G37*
G36*
G01*
X184040000Y-87955000D02*
X184040000Y-88255000D01*
G75*
G02*
X183890000Y-88405000I-150000J0D01*
G01*
X182465000Y-88405000D01*
G75*
G02*
X182315000Y-88255000I0J150000D01*
G01*
X182315000Y-87955000D01*
G75*
G02*
X182465000Y-87805000I150000J0D01*
G01*
X183890000Y-87805000D01*
G75*
G02*
X184040000Y-87955000I0J-150000D01*
G01*
G37*
G36*
G01*
X184040000Y-89225000D02*
X184040000Y-89525000D01*
G75*
G02*
X183890000Y-89675000I-150000J0D01*
G01*
X182465000Y-89675000D01*
G75*
G02*
X182315000Y-89525000I0J150000D01*
G01*
X182315000Y-89225000D01*
G75*
G02*
X182465000Y-89075000I150000J0D01*
G01*
X183890000Y-89075000D01*
G75*
G02*
X184040000Y-89225000I0J-150000D01*
G01*
G37*
G36*
G01*
X184040000Y-90495000D02*
X184040000Y-90795000D01*
G75*
G02*
X183890000Y-90945000I-150000J0D01*
G01*
X182465000Y-90945000D01*
G75*
G02*
X182315000Y-90795000I0J150000D01*
G01*
X182315000Y-90495000D01*
G75*
G02*
X182465000Y-90345000I150000J0D01*
G01*
X183890000Y-90345000D01*
G75*
G02*
X184040000Y-90495000I0J-150000D01*
G01*
G37*
G36*
G01*
X191265000Y-90495000D02*
X191265000Y-90795000D01*
G75*
G02*
X191115000Y-90945000I-150000J0D01*
G01*
X189690000Y-90945000D01*
G75*
G02*
X189540000Y-90795000I0J150000D01*
G01*
X189540000Y-90495000D01*
G75*
G02*
X189690000Y-90345000I150000J0D01*
G01*
X191115000Y-90345000D01*
G75*
G02*
X191265000Y-90495000I0J-150000D01*
G01*
G37*
G36*
G01*
X191265000Y-89225000D02*
X191265000Y-89525000D01*
G75*
G02*
X191115000Y-89675000I-150000J0D01*
G01*
X189690000Y-89675000D01*
G75*
G02*
X189540000Y-89525000I0J150000D01*
G01*
X189540000Y-89225000D01*
G75*
G02*
X189690000Y-89075000I150000J0D01*
G01*
X191115000Y-89075000D01*
G75*
G02*
X191265000Y-89225000I0J-150000D01*
G01*
G37*
G36*
G01*
X191265000Y-87955000D02*
X191265000Y-88255000D01*
G75*
G02*
X191115000Y-88405000I-150000J0D01*
G01*
X189690000Y-88405000D01*
G75*
G02*
X189540000Y-88255000I0J150000D01*
G01*
X189540000Y-87955000D01*
G75*
G02*
X189690000Y-87805000I150000J0D01*
G01*
X191115000Y-87805000D01*
G75*
G02*
X191265000Y-87955000I0J-150000D01*
G01*
G37*
G36*
G01*
X191265000Y-86685000D02*
X191265000Y-86985000D01*
G75*
G02*
X191115000Y-87135000I-150000J0D01*
G01*
X189690000Y-87135000D01*
G75*
G02*
X189540000Y-86985000I0J150000D01*
G01*
X189540000Y-86685000D01*
G75*
G02*
X189690000Y-86535000I150000J0D01*
G01*
X191115000Y-86535000D01*
G75*
G02*
X191265000Y-86685000I0J-150000D01*
G01*
G37*
%TD*%
D18*
%TO.C,U3*%
X207960000Y-108872000D03*
X207010000Y-110872000D03*
X208910000Y-110872000D03*
%TD*%
D19*
%TO.C,RN4*%
X207350000Y-92050000D03*
X207350000Y-92550000D03*
X207350000Y-93550000D03*
X207350000Y-93050000D03*
X206350000Y-92050000D03*
X206350000Y-93050000D03*
X206350000Y-92550000D03*
X206350000Y-93550000D03*
%TD*%
%TO.C,RN3*%
X207350000Y-94550000D03*
X207350000Y-95050000D03*
X207350000Y-96050000D03*
X207350000Y-95550000D03*
X206350000Y-94550000D03*
X206350000Y-95550000D03*
X206350000Y-95050000D03*
X206350000Y-96050000D03*
%TD*%
%TO.C,RN2*%
X207350000Y-98550000D03*
X207350000Y-99050000D03*
X207350000Y-100050000D03*
X207350000Y-99550000D03*
X206350000Y-98550000D03*
X206350000Y-99550000D03*
X206350000Y-99050000D03*
X206350000Y-100050000D03*
%TD*%
%TO.C,RN1*%
X207400000Y-102550000D03*
X207400000Y-103050000D03*
X207400000Y-104050000D03*
X207400000Y-103550000D03*
X206400000Y-102550000D03*
X206400000Y-103550000D03*
X206400000Y-103050000D03*
X206400000Y-104050000D03*
%TD*%
%TO.C,R86*%
G36*
G01*
X214322500Y-112350000D02*
X213977500Y-112350000D01*
G75*
G02*
X213830000Y-112202500I0J147500D01*
G01*
X213830000Y-111907500D01*
G75*
G02*
X213977500Y-111760000I147500J0D01*
G01*
X214322500Y-111760000D01*
G75*
G02*
X214470000Y-111907500I0J-147500D01*
G01*
X214470000Y-112202500D01*
G75*
G02*
X214322500Y-112350000I-147500J0D01*
G01*
G37*
G36*
G01*
X214322500Y-113320000D02*
X213977500Y-113320000D01*
G75*
G02*
X213830000Y-113172500I0J147500D01*
G01*
X213830000Y-112877500D01*
G75*
G02*
X213977500Y-112730000I147500J0D01*
G01*
X214322500Y-112730000D01*
G75*
G02*
X214470000Y-112877500I0J-147500D01*
G01*
X214470000Y-113172500D01*
G75*
G02*
X214322500Y-113320000I-147500J0D01*
G01*
G37*
%TD*%
%TO.C,R85*%
G36*
G01*
X210297500Y-112730000D02*
X210642500Y-112730000D01*
G75*
G02*
X210790000Y-112877500I0J-147500D01*
G01*
X210790000Y-113172500D01*
G75*
G02*
X210642500Y-113320000I-147500J0D01*
G01*
X210297500Y-113320000D01*
G75*
G02*
X210150000Y-113172500I0J147500D01*
G01*
X210150000Y-112877500D01*
G75*
G02*
X210297500Y-112730000I147500J0D01*
G01*
G37*
G36*
G01*
X210297500Y-111760000D02*
X210642500Y-111760000D01*
G75*
G02*
X210790000Y-111907500I0J-147500D01*
G01*
X210790000Y-112202500D01*
G75*
G02*
X210642500Y-112350000I-147500J0D01*
G01*
X210297500Y-112350000D01*
G75*
G02*
X210150000Y-112202500I0J147500D01*
G01*
X210150000Y-111907500D01*
G75*
G02*
X210297500Y-111760000I147500J0D01*
G01*
G37*
%TD*%
%TO.C,R84*%
G36*
G01*
X204612460Y-87098640D02*
X204957460Y-87098640D01*
G75*
G02*
X205104960Y-87246140I0J-147500D01*
G01*
X205104960Y-87541140D01*
G75*
G02*
X204957460Y-87688640I-147500J0D01*
G01*
X204612460Y-87688640D01*
G75*
G02*
X204464960Y-87541140I0J147500D01*
G01*
X204464960Y-87246140D01*
G75*
G02*
X204612460Y-87098640I147500J0D01*
G01*
G37*
G36*
G01*
X204612460Y-86128640D02*
X204957460Y-86128640D01*
G75*
G02*
X205104960Y-86276140I0J-147500D01*
G01*
X205104960Y-86571140D01*
G75*
G02*
X204957460Y-86718640I-147500J0D01*
G01*
X204612460Y-86718640D01*
G75*
G02*
X204464960Y-86571140I0J147500D01*
G01*
X204464960Y-86276140D01*
G75*
G02*
X204612460Y-86128640I147500J0D01*
G01*
G37*
%TD*%
%TO.C,R83*%
G36*
G01*
X205643700Y-87098640D02*
X205988700Y-87098640D01*
G75*
G02*
X206136200Y-87246140I0J-147500D01*
G01*
X206136200Y-87541140D01*
G75*
G02*
X205988700Y-87688640I-147500J0D01*
G01*
X205643700Y-87688640D01*
G75*
G02*
X205496200Y-87541140I0J147500D01*
G01*
X205496200Y-87246140D01*
G75*
G02*
X205643700Y-87098640I147500J0D01*
G01*
G37*
G36*
G01*
X205643700Y-86128640D02*
X205988700Y-86128640D01*
G75*
G02*
X206136200Y-86276140I0J-147500D01*
G01*
X206136200Y-86571140D01*
G75*
G02*
X205988700Y-86718640I-147500J0D01*
G01*
X205643700Y-86718640D01*
G75*
G02*
X205496200Y-86571140I0J147500D01*
G01*
X205496200Y-86276140D01*
G75*
G02*
X205643700Y-86128640I147500J0D01*
G01*
G37*
%TD*%
%TO.C,R82*%
G36*
G01*
X206674940Y-87098640D02*
X207019940Y-87098640D01*
G75*
G02*
X207167440Y-87246140I0J-147500D01*
G01*
X207167440Y-87541140D01*
G75*
G02*
X207019940Y-87688640I-147500J0D01*
G01*
X206674940Y-87688640D01*
G75*
G02*
X206527440Y-87541140I0J147500D01*
G01*
X206527440Y-87246140D01*
G75*
G02*
X206674940Y-87098640I147500J0D01*
G01*
G37*
G36*
G01*
X206674940Y-86128640D02*
X207019940Y-86128640D01*
G75*
G02*
X207167440Y-86276140I0J-147500D01*
G01*
X207167440Y-86571140D01*
G75*
G02*
X207019940Y-86718640I-147500J0D01*
G01*
X206674940Y-86718640D01*
G75*
G02*
X206527440Y-86571140I0J147500D01*
G01*
X206527440Y-86276140D01*
G75*
G02*
X206674940Y-86128640I147500J0D01*
G01*
G37*
%TD*%
%TO.C,R79*%
G36*
G01*
X206427500Y-116947000D02*
X206772500Y-116947000D01*
G75*
G02*
X206920000Y-117094500I0J-147500D01*
G01*
X206920000Y-117389500D01*
G75*
G02*
X206772500Y-117537000I-147500J0D01*
G01*
X206427500Y-117537000D01*
G75*
G02*
X206280000Y-117389500I0J147500D01*
G01*
X206280000Y-117094500D01*
G75*
G02*
X206427500Y-116947000I147500J0D01*
G01*
G37*
G36*
G01*
X206427500Y-115977000D02*
X206772500Y-115977000D01*
G75*
G02*
X206920000Y-116124500I0J-147500D01*
G01*
X206920000Y-116419500D01*
G75*
G02*
X206772500Y-116567000I-147500J0D01*
G01*
X206427500Y-116567000D01*
G75*
G02*
X206280000Y-116419500I0J147500D01*
G01*
X206280000Y-116124500D01*
G75*
G02*
X206427500Y-115977000I147500J0D01*
G01*
G37*
%TD*%
%TO.C,R78*%
G36*
G01*
X207788500Y-116544000D02*
X207443500Y-116544000D01*
G75*
G02*
X207296000Y-116396500I0J147500D01*
G01*
X207296000Y-116101500D01*
G75*
G02*
X207443500Y-115954000I147500J0D01*
G01*
X207788500Y-115954000D01*
G75*
G02*
X207936000Y-116101500I0J-147500D01*
G01*
X207936000Y-116396500D01*
G75*
G02*
X207788500Y-116544000I-147500J0D01*
G01*
G37*
G36*
G01*
X207788500Y-117514000D02*
X207443500Y-117514000D01*
G75*
G02*
X207296000Y-117366500I0J147500D01*
G01*
X207296000Y-117071500D01*
G75*
G02*
X207443500Y-116924000I147500J0D01*
G01*
X207788500Y-116924000D01*
G75*
G02*
X207936000Y-117071500I0J-147500D01*
G01*
X207936000Y-117366500D01*
G75*
G02*
X207788500Y-117514000I-147500J0D01*
G01*
G37*
%TD*%
%TO.C,R47*%
G36*
G01*
X204747500Y-122895000D02*
X204402500Y-122895000D01*
G75*
G02*
X204255000Y-122747500I0J147500D01*
G01*
X204255000Y-122452500D01*
G75*
G02*
X204402500Y-122305000I147500J0D01*
G01*
X204747500Y-122305000D01*
G75*
G02*
X204895000Y-122452500I0J-147500D01*
G01*
X204895000Y-122747500D01*
G75*
G02*
X204747500Y-122895000I-147500J0D01*
G01*
G37*
G36*
G01*
X204747500Y-123865000D02*
X204402500Y-123865000D01*
G75*
G02*
X204255000Y-123717500I0J147500D01*
G01*
X204255000Y-123422500D01*
G75*
G02*
X204402500Y-123275000I147500J0D01*
G01*
X204747500Y-123275000D01*
G75*
G02*
X204895000Y-123422500I0J-147500D01*
G01*
X204895000Y-123717500D01*
G75*
G02*
X204747500Y-123865000I-147500J0D01*
G01*
G37*
%TD*%
%TO.C,R42*%
G36*
G01*
X189660000Y-92277500D02*
X189660000Y-92622500D01*
G75*
G02*
X189512500Y-92770000I-147500J0D01*
G01*
X189217500Y-92770000D01*
G75*
G02*
X189070000Y-92622500I0J147500D01*
G01*
X189070000Y-92277500D01*
G75*
G02*
X189217500Y-92130000I147500J0D01*
G01*
X189512500Y-92130000D01*
G75*
G02*
X189660000Y-92277500I0J-147500D01*
G01*
G37*
G36*
G01*
X190630000Y-92277500D02*
X190630000Y-92622500D01*
G75*
G02*
X190482500Y-92770000I-147500J0D01*
G01*
X190187500Y-92770000D01*
G75*
G02*
X190040000Y-92622500I0J147500D01*
G01*
X190040000Y-92277500D01*
G75*
G02*
X190187500Y-92130000I147500J0D01*
G01*
X190482500Y-92130000D01*
G75*
G02*
X190630000Y-92277500I0J-147500D01*
G01*
G37*
%TD*%
%TO.C,R41*%
G36*
G01*
X189890000Y-120372500D02*
X189890000Y-120027500D01*
G75*
G02*
X190037500Y-119880000I147500J0D01*
G01*
X190332500Y-119880000D01*
G75*
G02*
X190480000Y-120027500I0J-147500D01*
G01*
X190480000Y-120372500D01*
G75*
G02*
X190332500Y-120520000I-147500J0D01*
G01*
X190037500Y-120520000D01*
G75*
G02*
X189890000Y-120372500I0J147500D01*
G01*
G37*
G36*
G01*
X188920000Y-120372500D02*
X188920000Y-120027500D01*
G75*
G02*
X189067500Y-119880000I147500J0D01*
G01*
X189362500Y-119880000D01*
G75*
G02*
X189510000Y-120027500I0J-147500D01*
G01*
X189510000Y-120372500D01*
G75*
G02*
X189362500Y-120520000I-147500J0D01*
G01*
X189067500Y-120520000D01*
G75*
G02*
X188920000Y-120372500I0J147500D01*
G01*
G37*
%TD*%
%TO.C,R39*%
G36*
G01*
X188027500Y-137990000D02*
X188372500Y-137990000D01*
G75*
G02*
X188520000Y-138137500I0J-147500D01*
G01*
X188520000Y-138432500D01*
G75*
G02*
X188372500Y-138580000I-147500J0D01*
G01*
X188027500Y-138580000D01*
G75*
G02*
X187880000Y-138432500I0J147500D01*
G01*
X187880000Y-138137500D01*
G75*
G02*
X188027500Y-137990000I147500J0D01*
G01*
G37*
G36*
G01*
X188027500Y-137020000D02*
X188372500Y-137020000D01*
G75*
G02*
X188520000Y-137167500I0J-147500D01*
G01*
X188520000Y-137462500D01*
G75*
G02*
X188372500Y-137610000I-147500J0D01*
G01*
X188027500Y-137610000D01*
G75*
G02*
X187880000Y-137462500I0J147500D01*
G01*
X187880000Y-137167500D01*
G75*
G02*
X188027500Y-137020000I147500J0D01*
G01*
G37*
%TD*%
%TO.C,R36*%
G36*
G01*
X195910000Y-124377500D02*
X195910000Y-124722500D01*
G75*
G02*
X195762500Y-124870000I-147500J0D01*
G01*
X195467500Y-124870000D01*
G75*
G02*
X195320000Y-124722500I0J147500D01*
G01*
X195320000Y-124377500D01*
G75*
G02*
X195467500Y-124230000I147500J0D01*
G01*
X195762500Y-124230000D01*
G75*
G02*
X195910000Y-124377500I0J-147500D01*
G01*
G37*
G36*
G01*
X196880000Y-124377500D02*
X196880000Y-124722500D01*
G75*
G02*
X196732500Y-124870000I-147500J0D01*
G01*
X196437500Y-124870000D01*
G75*
G02*
X196290000Y-124722500I0J147500D01*
G01*
X196290000Y-124377500D01*
G75*
G02*
X196437500Y-124230000I147500J0D01*
G01*
X196732500Y-124230000D01*
G75*
G02*
X196880000Y-124377500I0J-147500D01*
G01*
G37*
%TD*%
%TO.C,R35*%
G36*
G01*
X189890000Y-119372500D02*
X189890000Y-119027500D01*
G75*
G02*
X190037500Y-118880000I147500J0D01*
G01*
X190332500Y-118880000D01*
G75*
G02*
X190480000Y-119027500I0J-147500D01*
G01*
X190480000Y-119372500D01*
G75*
G02*
X190332500Y-119520000I-147500J0D01*
G01*
X190037500Y-119520000D01*
G75*
G02*
X189890000Y-119372500I0J147500D01*
G01*
G37*
G36*
G01*
X188920000Y-119372500D02*
X188920000Y-119027500D01*
G75*
G02*
X189067500Y-118880000I147500J0D01*
G01*
X189362500Y-118880000D01*
G75*
G02*
X189510000Y-119027500I0J-147500D01*
G01*
X189510000Y-119372500D01*
G75*
G02*
X189362500Y-119520000I-147500J0D01*
G01*
X189067500Y-119520000D01*
G75*
G02*
X188920000Y-119372500I0J147500D01*
G01*
G37*
%TD*%
%TO.C,R33*%
G36*
G01*
X189890000Y-118372500D02*
X189890000Y-118027500D01*
G75*
G02*
X190037500Y-117880000I147500J0D01*
G01*
X190332500Y-117880000D01*
G75*
G02*
X190480000Y-118027500I0J-147500D01*
G01*
X190480000Y-118372500D01*
G75*
G02*
X190332500Y-118520000I-147500J0D01*
G01*
X190037500Y-118520000D01*
G75*
G02*
X189890000Y-118372500I0J147500D01*
G01*
G37*
G36*
G01*
X188920000Y-118372500D02*
X188920000Y-118027500D01*
G75*
G02*
X189067500Y-117880000I147500J0D01*
G01*
X189362500Y-117880000D01*
G75*
G02*
X189510000Y-118027500I0J-147500D01*
G01*
X189510000Y-118372500D01*
G75*
G02*
X189362500Y-118520000I-147500J0D01*
G01*
X189067500Y-118520000D01*
G75*
G02*
X188920000Y-118372500I0J147500D01*
G01*
G37*
%TD*%
%TO.C,R32*%
G36*
G01*
X204170000Y-125022500D02*
X204170000Y-124677500D01*
G75*
G02*
X204317500Y-124530000I147500J0D01*
G01*
X204612500Y-124530000D01*
G75*
G02*
X204760000Y-124677500I0J-147500D01*
G01*
X204760000Y-125022500D01*
G75*
G02*
X204612500Y-125170000I-147500J0D01*
G01*
X204317500Y-125170000D01*
G75*
G02*
X204170000Y-125022500I0J147500D01*
G01*
G37*
G36*
G01*
X205140000Y-125022500D02*
X205140000Y-124677500D01*
G75*
G02*
X205287500Y-124530000I147500J0D01*
G01*
X205582500Y-124530000D01*
G75*
G02*
X205730000Y-124677500I0J-147500D01*
G01*
X205730000Y-125022500D01*
G75*
G02*
X205582500Y-125170000I-147500J0D01*
G01*
X205287500Y-125170000D01*
G75*
G02*
X205140000Y-125022500I0J147500D01*
G01*
G37*
%TD*%
%TO.C,R27*%
G36*
G01*
X191022500Y-100910000D02*
X190677500Y-100910000D01*
G75*
G02*
X190530000Y-100762500I0J147500D01*
G01*
X190530000Y-100467500D01*
G75*
G02*
X190677500Y-100320000I147500J0D01*
G01*
X191022500Y-100320000D01*
G75*
G02*
X191170000Y-100467500I0J-147500D01*
G01*
X191170000Y-100762500D01*
G75*
G02*
X191022500Y-100910000I-147500J0D01*
G01*
G37*
G36*
G01*
X191022500Y-101880000D02*
X190677500Y-101880000D01*
G75*
G02*
X190530000Y-101732500I0J147500D01*
G01*
X190530000Y-101437500D01*
G75*
G02*
X190677500Y-101290000I147500J0D01*
G01*
X191022500Y-101290000D01*
G75*
G02*
X191170000Y-101437500I0J-147500D01*
G01*
X191170000Y-101732500D01*
G75*
G02*
X191022500Y-101880000I-147500J0D01*
G01*
G37*
%TD*%
%TO.C,R26*%
G36*
G01*
X189727500Y-101290000D02*
X190072500Y-101290000D01*
G75*
G02*
X190220000Y-101437500I0J-147500D01*
G01*
X190220000Y-101732500D01*
G75*
G02*
X190072500Y-101880000I-147500J0D01*
G01*
X189727500Y-101880000D01*
G75*
G02*
X189580000Y-101732500I0J147500D01*
G01*
X189580000Y-101437500D01*
G75*
G02*
X189727500Y-101290000I147500J0D01*
G01*
G37*
G36*
G01*
X189727500Y-100320000D02*
X190072500Y-100320000D01*
G75*
G02*
X190220000Y-100467500I0J-147500D01*
G01*
X190220000Y-100762500D01*
G75*
G02*
X190072500Y-100910000I-147500J0D01*
G01*
X189727500Y-100910000D01*
G75*
G02*
X189580000Y-100762500I0J147500D01*
G01*
X189580000Y-100467500D01*
G75*
G02*
X189727500Y-100320000I147500J0D01*
G01*
G37*
%TD*%
%TO.C,R22*%
G36*
G01*
X187510000Y-130627500D02*
X187510000Y-130972500D01*
G75*
G02*
X187362500Y-131120000I-147500J0D01*
G01*
X187067500Y-131120000D01*
G75*
G02*
X186920000Y-130972500I0J147500D01*
G01*
X186920000Y-130627500D01*
G75*
G02*
X187067500Y-130480000I147500J0D01*
G01*
X187362500Y-130480000D01*
G75*
G02*
X187510000Y-130627500I0J-147500D01*
G01*
G37*
G36*
G01*
X188480000Y-130627500D02*
X188480000Y-130972500D01*
G75*
G02*
X188332500Y-131120000I-147500J0D01*
G01*
X188037500Y-131120000D01*
G75*
G02*
X187890000Y-130972500I0J147500D01*
G01*
X187890000Y-130627500D01*
G75*
G02*
X188037500Y-130480000I147500J0D01*
G01*
X188332500Y-130480000D01*
G75*
G02*
X188480000Y-130627500I0J-147500D01*
G01*
G37*
%TD*%
%TO.C,R21*%
G36*
G01*
X187510000Y-131627500D02*
X187510000Y-131972500D01*
G75*
G02*
X187362500Y-132120000I-147500J0D01*
G01*
X187067500Y-132120000D01*
G75*
G02*
X186920000Y-131972500I0J147500D01*
G01*
X186920000Y-131627500D01*
G75*
G02*
X187067500Y-131480000I147500J0D01*
G01*
X187362500Y-131480000D01*
G75*
G02*
X187510000Y-131627500I0J-147500D01*
G01*
G37*
G36*
G01*
X188480000Y-131627500D02*
X188480000Y-131972500D01*
G75*
G02*
X188332500Y-132120000I-147500J0D01*
G01*
X188037500Y-132120000D01*
G75*
G02*
X187890000Y-131972500I0J147500D01*
G01*
X187890000Y-131627500D01*
G75*
G02*
X188037500Y-131480000I147500J0D01*
G01*
X188332500Y-131480000D01*
G75*
G02*
X188480000Y-131627500I0J-147500D01*
G01*
G37*
%TD*%
%TO.C,R15*%
G36*
G01*
X205777040Y-131876380D02*
X205777040Y-131531380D01*
G75*
G02*
X205924540Y-131383880I147500J0D01*
G01*
X206219540Y-131383880D01*
G75*
G02*
X206367040Y-131531380I0J-147500D01*
G01*
X206367040Y-131876380D01*
G75*
G02*
X206219540Y-132023880I-147500J0D01*
G01*
X205924540Y-132023880D01*
G75*
G02*
X205777040Y-131876380I0J147500D01*
G01*
G37*
G36*
G01*
X204807040Y-131876380D02*
X204807040Y-131531380D01*
G75*
G02*
X204954540Y-131383880I147500J0D01*
G01*
X205249540Y-131383880D01*
G75*
G02*
X205397040Y-131531380I0J-147500D01*
G01*
X205397040Y-131876380D01*
G75*
G02*
X205249540Y-132023880I-147500J0D01*
G01*
X204954540Y-132023880D01*
G75*
G02*
X204807040Y-131876380I0J147500D01*
G01*
G37*
%TD*%
%TO.C,R14*%
G36*
G01*
X205780520Y-130870460D02*
X205780520Y-130525460D01*
G75*
G02*
X205928020Y-130377960I147500J0D01*
G01*
X206223020Y-130377960D01*
G75*
G02*
X206370520Y-130525460I0J-147500D01*
G01*
X206370520Y-130870460D01*
G75*
G02*
X206223020Y-131017960I-147500J0D01*
G01*
X205928020Y-131017960D01*
G75*
G02*
X205780520Y-130870460I0J147500D01*
G01*
G37*
G36*
G01*
X204810520Y-130870460D02*
X204810520Y-130525460D01*
G75*
G02*
X204958020Y-130377960I147500J0D01*
G01*
X205253020Y-130377960D01*
G75*
G02*
X205400520Y-130525460I0J-147500D01*
G01*
X205400520Y-130870460D01*
G75*
G02*
X205253020Y-131017960I-147500J0D01*
G01*
X204958020Y-131017960D01*
G75*
G02*
X204810520Y-130870460I0J147500D01*
G01*
G37*
%TD*%
%TO.C,R13*%
G36*
G01*
X211747500Y-128710000D02*
X211402500Y-128710000D01*
G75*
G02*
X211255000Y-128562500I0J147500D01*
G01*
X211255000Y-128267500D01*
G75*
G02*
X211402500Y-128120000I147500J0D01*
G01*
X211747500Y-128120000D01*
G75*
G02*
X211895000Y-128267500I0J-147500D01*
G01*
X211895000Y-128562500D01*
G75*
G02*
X211747500Y-128710000I-147500J0D01*
G01*
G37*
G36*
G01*
X211747500Y-129680000D02*
X211402500Y-129680000D01*
G75*
G02*
X211255000Y-129532500I0J147500D01*
G01*
X211255000Y-129237500D01*
G75*
G02*
X211402500Y-129090000I147500J0D01*
G01*
X211747500Y-129090000D01*
G75*
G02*
X211895000Y-129237500I0J-147500D01*
G01*
X211895000Y-129532500D01*
G75*
G02*
X211747500Y-129680000I-147500J0D01*
G01*
G37*
%TD*%
%TO.C,R12*%
G36*
G01*
X207222500Y-132810000D02*
X206877500Y-132810000D01*
G75*
G02*
X206730000Y-132662500I0J147500D01*
G01*
X206730000Y-132367500D01*
G75*
G02*
X206877500Y-132220000I147500J0D01*
G01*
X207222500Y-132220000D01*
G75*
G02*
X207370000Y-132367500I0J-147500D01*
G01*
X207370000Y-132662500D01*
G75*
G02*
X207222500Y-132810000I-147500J0D01*
G01*
G37*
G36*
G01*
X207222500Y-133780000D02*
X206877500Y-133780000D01*
G75*
G02*
X206730000Y-133632500I0J147500D01*
G01*
X206730000Y-133337500D01*
G75*
G02*
X206877500Y-133190000I147500J0D01*
G01*
X207222500Y-133190000D01*
G75*
G02*
X207370000Y-133337500I0J-147500D01*
G01*
X207370000Y-133632500D01*
G75*
G02*
X207222500Y-133780000I-147500J0D01*
G01*
G37*
%TD*%
%TO.C,R6*%
G36*
G01*
X212992500Y-112350000D02*
X212647500Y-112350000D01*
G75*
G02*
X212500000Y-112202500I0J147500D01*
G01*
X212500000Y-111907500D01*
G75*
G02*
X212647500Y-111760000I147500J0D01*
G01*
X212992500Y-111760000D01*
G75*
G02*
X213140000Y-111907500I0J-147500D01*
G01*
X213140000Y-112202500D01*
G75*
G02*
X212992500Y-112350000I-147500J0D01*
G01*
G37*
G36*
G01*
X212992500Y-113320000D02*
X212647500Y-113320000D01*
G75*
G02*
X212500000Y-113172500I0J147500D01*
G01*
X212500000Y-112877500D01*
G75*
G02*
X212647500Y-112730000I147500J0D01*
G01*
X212992500Y-112730000D01*
G75*
G02*
X213140000Y-112877500I0J-147500D01*
G01*
X213140000Y-113172500D01*
G75*
G02*
X212992500Y-113320000I-147500J0D01*
G01*
G37*
%TD*%
D18*
%TO.C,Q5*%
X213190000Y-108790000D03*
X212240000Y-110790000D03*
X214140000Y-110790000D03*
%TD*%
D14*
%TO.C,Q1*%
X197678800Y-119837200D03*
X199678800Y-120787200D03*
X199678800Y-118887200D03*
%TD*%
D20*
%TO.C,J9*%
X200000000Y-115500000D03*
X200000000Y-115000000D03*
X200000000Y-116000000D03*
X200000000Y-116500000D03*
D21*
X202870000Y-113820000D03*
X202870000Y-117680000D03*
%TD*%
D10*
%TO.C,J6*%
X177050000Y-91500000D03*
X177050000Y-99800000D03*
D11*
X180300000Y-97900000D03*
X180300000Y-97400000D03*
X180300000Y-96900000D03*
X180300000Y-96400000D03*
X180300000Y-95900000D03*
X180300000Y-95400000D03*
X180300000Y-94900000D03*
X180300000Y-94400000D03*
X180300000Y-93900000D03*
X180300000Y-93400000D03*
%TD*%
%TO.C,C61*%
G36*
G01*
X200375000Y-99677500D02*
X200375000Y-100022500D01*
G75*
G02*
X200227500Y-100170000I-147500J0D01*
G01*
X199932500Y-100170000D01*
G75*
G02*
X199785000Y-100022500I0J147500D01*
G01*
X199785000Y-99677500D01*
G75*
G02*
X199932500Y-99530000I147500J0D01*
G01*
X200227500Y-99530000D01*
G75*
G02*
X200375000Y-99677500I0J-147500D01*
G01*
G37*
G36*
G01*
X201345000Y-99677500D02*
X201345000Y-100022500D01*
G75*
G02*
X201197500Y-100170000I-147500J0D01*
G01*
X200902500Y-100170000D01*
G75*
G02*
X200755000Y-100022500I0J147500D01*
G01*
X200755000Y-99677500D01*
G75*
G02*
X200902500Y-99530000I147500J0D01*
G01*
X201197500Y-99530000D01*
G75*
G02*
X201345000Y-99677500I0J-147500D01*
G01*
G37*
%TD*%
%TO.C,C58*%
G36*
G01*
X177772500Y-124810000D02*
X177427500Y-124810000D01*
G75*
G02*
X177280000Y-124662500I0J147500D01*
G01*
X177280000Y-124367500D01*
G75*
G02*
X177427500Y-124220000I147500J0D01*
G01*
X177772500Y-124220000D01*
G75*
G02*
X177920000Y-124367500I0J-147500D01*
G01*
X177920000Y-124662500D01*
G75*
G02*
X177772500Y-124810000I-147500J0D01*
G01*
G37*
G36*
G01*
X177772500Y-125780000D02*
X177427500Y-125780000D01*
G75*
G02*
X177280000Y-125632500I0J147500D01*
G01*
X177280000Y-125337500D01*
G75*
G02*
X177427500Y-125190000I147500J0D01*
G01*
X177772500Y-125190000D01*
G75*
G02*
X177920000Y-125337500I0J-147500D01*
G01*
X177920000Y-125632500D01*
G75*
G02*
X177772500Y-125780000I-147500J0D01*
G01*
G37*
%TD*%
%TO.C,C57*%
G36*
G01*
X183772500Y-127110000D02*
X183427500Y-127110000D01*
G75*
G02*
X183280000Y-126962500I0J147500D01*
G01*
X183280000Y-126667500D01*
G75*
G02*
X183427500Y-126520000I147500J0D01*
G01*
X183772500Y-126520000D01*
G75*
G02*
X183920000Y-126667500I0J-147500D01*
G01*
X183920000Y-126962500D01*
G75*
G02*
X183772500Y-127110000I-147500J0D01*
G01*
G37*
G36*
G01*
X183772500Y-128080000D02*
X183427500Y-128080000D01*
G75*
G02*
X183280000Y-127932500I0J147500D01*
G01*
X183280000Y-127637500D01*
G75*
G02*
X183427500Y-127490000I147500J0D01*
G01*
X183772500Y-127490000D01*
G75*
G02*
X183920000Y-127637500I0J-147500D01*
G01*
X183920000Y-127932500D01*
G75*
G02*
X183772500Y-128080000I-147500J0D01*
G01*
G37*
%TD*%
%TO.C,C56*%
G36*
G01*
X179310000Y-128127500D02*
X179310000Y-128472500D01*
G75*
G02*
X179162500Y-128620000I-147500J0D01*
G01*
X178867500Y-128620000D01*
G75*
G02*
X178720000Y-128472500I0J147500D01*
G01*
X178720000Y-128127500D01*
G75*
G02*
X178867500Y-127980000I147500J0D01*
G01*
X179162500Y-127980000D01*
G75*
G02*
X179310000Y-128127500I0J-147500D01*
G01*
G37*
G36*
G01*
X180280000Y-128127500D02*
X180280000Y-128472500D01*
G75*
G02*
X180132500Y-128620000I-147500J0D01*
G01*
X179837500Y-128620000D01*
G75*
G02*
X179690000Y-128472500I0J147500D01*
G01*
X179690000Y-128127500D01*
G75*
G02*
X179837500Y-127980000I147500J0D01*
G01*
X180132500Y-127980000D01*
G75*
G02*
X180280000Y-128127500I0J-147500D01*
G01*
G37*
%TD*%
%TO.C,C54*%
G36*
G01*
X206821540Y-106159080D02*
X206821540Y-105814080D01*
G75*
G02*
X206969040Y-105666580I147500J0D01*
G01*
X207264040Y-105666580D01*
G75*
G02*
X207411540Y-105814080I0J-147500D01*
G01*
X207411540Y-106159080D01*
G75*
G02*
X207264040Y-106306580I-147500J0D01*
G01*
X206969040Y-106306580D01*
G75*
G02*
X206821540Y-106159080I0J147500D01*
G01*
G37*
G36*
G01*
X205851540Y-106159080D02*
X205851540Y-105814080D01*
G75*
G02*
X205999040Y-105666580I147500J0D01*
G01*
X206294040Y-105666580D01*
G75*
G02*
X206441540Y-105814080I0J-147500D01*
G01*
X206441540Y-106159080D01*
G75*
G02*
X206294040Y-106306580I-147500J0D01*
G01*
X205999040Y-106306580D01*
G75*
G02*
X205851540Y-106159080I0J147500D01*
G01*
G37*
%TD*%
%TO.C,C53*%
G36*
G01*
X207037650Y-89621880D02*
X206525150Y-89621880D01*
G75*
G02*
X206306400Y-89403130I0J218750D01*
G01*
X206306400Y-88965630D01*
G75*
G02*
X206525150Y-88746880I218750J0D01*
G01*
X207037650Y-88746880D01*
G75*
G02*
X207256400Y-88965630I0J-218750D01*
G01*
X207256400Y-89403130D01*
G75*
G02*
X207037650Y-89621880I-218750J0D01*
G01*
G37*
G36*
G01*
X207037650Y-91196880D02*
X206525150Y-91196880D01*
G75*
G02*
X206306400Y-90978130I0J218750D01*
G01*
X206306400Y-90540630D01*
G75*
G02*
X206525150Y-90321880I218750J0D01*
G01*
X207037650Y-90321880D01*
G75*
G02*
X207256400Y-90540630I0J-218750D01*
G01*
X207256400Y-90978130D01*
G75*
G02*
X207037650Y-91196880I-218750J0D01*
G01*
G37*
%TD*%
%TO.C,C52*%
G36*
G01*
X207712000Y-115235250D02*
X207712000Y-114722750D01*
G75*
G02*
X207930750Y-114504000I218750J0D01*
G01*
X208368250Y-114504000D01*
G75*
G02*
X208587000Y-114722750I0J-218750D01*
G01*
X208587000Y-115235250D01*
G75*
G02*
X208368250Y-115454000I-218750J0D01*
G01*
X207930750Y-115454000D01*
G75*
G02*
X207712000Y-115235250I0J218750D01*
G01*
G37*
G36*
G01*
X206137000Y-115235250D02*
X206137000Y-114722750D01*
G75*
G02*
X206355750Y-114504000I218750J0D01*
G01*
X206793250Y-114504000D01*
G75*
G02*
X207012000Y-114722750I0J-218750D01*
G01*
X207012000Y-115235250D01*
G75*
G02*
X206793250Y-115454000I-218750J0D01*
G01*
X206355750Y-115454000D01*
G75*
G02*
X206137000Y-115235250I0J218750D01*
G01*
G37*
%TD*%
%TO.C,C51*%
G36*
G01*
X209041050Y-89316380D02*
X208128550Y-89316380D01*
G75*
G02*
X207884800Y-89072630I0J243750D01*
G01*
X207884800Y-88585130D01*
G75*
G02*
X208128550Y-88341380I243750J0D01*
G01*
X209041050Y-88341380D01*
G75*
G02*
X209284800Y-88585130I0J-243750D01*
G01*
X209284800Y-89072630D01*
G75*
G02*
X209041050Y-89316380I-243750J0D01*
G01*
G37*
G36*
G01*
X209041050Y-91191380D02*
X208128550Y-91191380D01*
G75*
G02*
X207884800Y-90947630I0J243750D01*
G01*
X207884800Y-90460130D01*
G75*
G02*
X208128550Y-90216380I243750J0D01*
G01*
X209041050Y-90216380D01*
G75*
G02*
X209284800Y-90460130I0J-243750D01*
G01*
X209284800Y-90947630D01*
G75*
G02*
X209041050Y-91191380I-243750J0D01*
G01*
G37*
%TD*%
%TO.C,C49*%
G36*
G01*
X204395500Y-119995000D02*
X204740500Y-119995000D01*
G75*
G02*
X204888000Y-120142500I0J-147500D01*
G01*
X204888000Y-120437500D01*
G75*
G02*
X204740500Y-120585000I-147500J0D01*
G01*
X204395500Y-120585000D01*
G75*
G02*
X204248000Y-120437500I0J147500D01*
G01*
X204248000Y-120142500D01*
G75*
G02*
X204395500Y-119995000I147500J0D01*
G01*
G37*
G36*
G01*
X204395500Y-119025000D02*
X204740500Y-119025000D01*
G75*
G02*
X204888000Y-119172500I0J-147500D01*
G01*
X204888000Y-119467500D01*
G75*
G02*
X204740500Y-119615000I-147500J0D01*
G01*
X204395500Y-119615000D01*
G75*
G02*
X204248000Y-119467500I0J147500D01*
G01*
X204248000Y-119172500D01*
G75*
G02*
X204395500Y-119025000I147500J0D01*
G01*
G37*
%TD*%
%TO.C,C48*%
G36*
G01*
X207081250Y-122750000D02*
X206568750Y-122750000D01*
G75*
G02*
X206350000Y-122531250I0J218750D01*
G01*
X206350000Y-122093750D01*
G75*
G02*
X206568750Y-121875000I218750J0D01*
G01*
X207081250Y-121875000D01*
G75*
G02*
X207300000Y-122093750I0J-218750D01*
G01*
X207300000Y-122531250D01*
G75*
G02*
X207081250Y-122750000I-218750J0D01*
G01*
G37*
G36*
G01*
X207081250Y-124325000D02*
X206568750Y-124325000D01*
G75*
G02*
X206350000Y-124106250I0J218750D01*
G01*
X206350000Y-123668750D01*
G75*
G02*
X206568750Y-123450000I218750J0D01*
G01*
X207081250Y-123450000D01*
G75*
G02*
X207300000Y-123668750I0J-218750D01*
G01*
X207300000Y-124106250D01*
G75*
G02*
X207081250Y-124325000I-218750J0D01*
G01*
G37*
%TD*%
%TO.C,C34*%
G36*
G01*
X192297500Y-100785000D02*
X191952500Y-100785000D01*
G75*
G02*
X191805000Y-100637500I0J147500D01*
G01*
X191805000Y-100342500D01*
G75*
G02*
X191952500Y-100195000I147500J0D01*
G01*
X192297500Y-100195000D01*
G75*
G02*
X192445000Y-100342500I0J-147500D01*
G01*
X192445000Y-100637500D01*
G75*
G02*
X192297500Y-100785000I-147500J0D01*
G01*
G37*
G36*
G01*
X192297500Y-101755000D02*
X191952500Y-101755000D01*
G75*
G02*
X191805000Y-101607500I0J147500D01*
G01*
X191805000Y-101312500D01*
G75*
G02*
X191952500Y-101165000I147500J0D01*
G01*
X192297500Y-101165000D01*
G75*
G02*
X192445000Y-101312500I0J-147500D01*
G01*
X192445000Y-101607500D01*
G75*
G02*
X192297500Y-101755000I-147500J0D01*
G01*
G37*
%TD*%
%TO.C,C32*%
G36*
G01*
X192385000Y-99302500D02*
X192385000Y-99647500D01*
G75*
G02*
X192237500Y-99795000I-147500J0D01*
G01*
X191942500Y-99795000D01*
G75*
G02*
X191795000Y-99647500I0J147500D01*
G01*
X191795000Y-99302500D01*
G75*
G02*
X191942500Y-99155000I147500J0D01*
G01*
X192237500Y-99155000D01*
G75*
G02*
X192385000Y-99302500I0J-147500D01*
G01*
G37*
G36*
G01*
X193355000Y-99302500D02*
X193355000Y-99647500D01*
G75*
G02*
X193207500Y-99795000I-147500J0D01*
G01*
X192912500Y-99795000D01*
G75*
G02*
X192765000Y-99647500I0J147500D01*
G01*
X192765000Y-99302500D01*
G75*
G02*
X192912500Y-99155000I147500J0D01*
G01*
X193207500Y-99155000D01*
G75*
G02*
X193355000Y-99302500I0J-147500D01*
G01*
G37*
%TD*%
%TO.C,C26*%
G36*
G01*
X186687625Y-122968673D02*
X186443673Y-123212625D01*
G75*
G02*
X186235077Y-123212625I-104298J104298D01*
G01*
X186026481Y-123004029D01*
G75*
G02*
X186026481Y-122795433I104298J104298D01*
G01*
X186270433Y-122551481D01*
G75*
G02*
X186479029Y-122551481I104298J-104298D01*
G01*
X186687625Y-122760077D01*
G75*
G02*
X186687625Y-122968673I-104298J-104298D01*
G01*
G37*
G36*
G01*
X187373519Y-123654567D02*
X187129567Y-123898519D01*
G75*
G02*
X186920971Y-123898519I-104298J104298D01*
G01*
X186712375Y-123689923D01*
G75*
G02*
X186712375Y-123481327I104298J104298D01*
G01*
X186956327Y-123237375D01*
G75*
G02*
X187164923Y-123237375I104298J-104298D01*
G01*
X187373519Y-123445971D01*
G75*
G02*
X187373519Y-123654567I-104298J-104298D01*
G01*
G37*
%TD*%
%TO.C,C25*%
G36*
G01*
X182981327Y-106012625D02*
X182737375Y-105768673D01*
G75*
G02*
X182737375Y-105560077I104298J104298D01*
G01*
X182945971Y-105351481D01*
G75*
G02*
X183154567Y-105351481I104298J-104298D01*
G01*
X183398519Y-105595433D01*
G75*
G02*
X183398519Y-105804029I-104298J-104298D01*
G01*
X183189923Y-106012625D01*
G75*
G02*
X182981327Y-106012625I-104298J104298D01*
G01*
G37*
G36*
G01*
X182295433Y-106698519D02*
X182051481Y-106454567D01*
G75*
G02*
X182051481Y-106245971I104298J104298D01*
G01*
X182260077Y-106037375D01*
G75*
G02*
X182468673Y-106037375I104298J-104298D01*
G01*
X182712625Y-106281327D01*
G75*
G02*
X182712625Y-106489923I-104298J-104298D01*
G01*
X182504029Y-106698519D01*
G75*
G02*
X182295433Y-106698519I-104298J104298D01*
G01*
G37*
%TD*%
%TO.C,C24*%
G36*
G01*
X178287625Y-115043673D02*
X178043673Y-115287625D01*
G75*
G02*
X177835077Y-115287625I-104298J104298D01*
G01*
X177626481Y-115079029D01*
G75*
G02*
X177626481Y-114870433I104298J104298D01*
G01*
X177870433Y-114626481D01*
G75*
G02*
X178079029Y-114626481I104298J-104298D01*
G01*
X178287625Y-114835077D01*
G75*
G02*
X178287625Y-115043673I-104298J-104298D01*
G01*
G37*
G36*
G01*
X178973519Y-115729567D02*
X178729567Y-115973519D01*
G75*
G02*
X178520971Y-115973519I-104298J104298D01*
G01*
X178312375Y-115764923D01*
G75*
G02*
X178312375Y-115556327I104298J104298D01*
G01*
X178556327Y-115312375D01*
G75*
G02*
X178764923Y-115312375I104298J-104298D01*
G01*
X178973519Y-115520971D01*
G75*
G02*
X178973519Y-115729567I-104298J-104298D01*
G01*
G37*
%TD*%
%TO.C,C23*%
G36*
G01*
X188419428Y-105188380D02*
X188663380Y-104944428D01*
G75*
G02*
X188871976Y-104944428I104298J-104298D01*
G01*
X189080572Y-105153024D01*
G75*
G02*
X189080572Y-105361620I-104298J-104298D01*
G01*
X188836620Y-105605572D01*
G75*
G02*
X188628024Y-105605572I-104298J104298D01*
G01*
X188419428Y-105396976D01*
G75*
G02*
X188419428Y-105188380I104298J104298D01*
G01*
G37*
G36*
G01*
X187733534Y-104502486D02*
X187977486Y-104258534D01*
G75*
G02*
X188186082Y-104258534I104298J-104298D01*
G01*
X188394678Y-104467130D01*
G75*
G02*
X188394678Y-104675726I-104298J-104298D01*
G01*
X188150726Y-104919678D01*
G75*
G02*
X187942130Y-104919678I-104298J104298D01*
G01*
X187733534Y-104711082D01*
G75*
G02*
X187733534Y-104502486I104298J104298D01*
G01*
G37*
%TD*%
%TO.C,C22*%
G36*
G01*
X196418673Y-114312375D02*
X196662625Y-114556327D01*
G75*
G02*
X196662625Y-114764923I-104298J-104298D01*
G01*
X196454029Y-114973519D01*
G75*
G02*
X196245433Y-114973519I-104298J104298D01*
G01*
X196001481Y-114729567D01*
G75*
G02*
X196001481Y-114520971I104298J104298D01*
G01*
X196210077Y-114312375D01*
G75*
G02*
X196418673Y-114312375I104298J-104298D01*
G01*
G37*
G36*
G01*
X197104567Y-113626481D02*
X197348519Y-113870433D01*
G75*
G02*
X197348519Y-114079029I-104298J-104298D01*
G01*
X197139923Y-114287625D01*
G75*
G02*
X196931327Y-114287625I-104298J104298D01*
G01*
X196687375Y-114043673D01*
G75*
G02*
X196687375Y-113835077I104298J104298D01*
G01*
X196895971Y-113626481D01*
G75*
G02*
X197104567Y-113626481I104298J-104298D01*
G01*
G37*
%TD*%
%TO.C,C21*%
G36*
G01*
X186681327Y-106987625D02*
X186437375Y-106743673D01*
G75*
G02*
X186437375Y-106535077I104298J104298D01*
G01*
X186645971Y-106326481D01*
G75*
G02*
X186854567Y-106326481I104298J-104298D01*
G01*
X187098519Y-106570433D01*
G75*
G02*
X187098519Y-106779029I-104298J-104298D01*
G01*
X186889923Y-106987625D01*
G75*
G02*
X186681327Y-106987625I-104298J104298D01*
G01*
G37*
G36*
G01*
X185995433Y-107673519D02*
X185751481Y-107429567D01*
G75*
G02*
X185751481Y-107220971I104298J104298D01*
G01*
X185960077Y-107012375D01*
G75*
G02*
X186168673Y-107012375I104298J-104298D01*
G01*
X186412625Y-107256327D01*
G75*
G02*
X186412625Y-107464923I-104298J-104298D01*
G01*
X186204029Y-107673519D01*
G75*
G02*
X185995433Y-107673519I-104298J104298D01*
G01*
G37*
%TD*%
%TO.C,C19*%
G36*
G01*
X184818673Y-108362375D02*
X185062625Y-108606327D01*
G75*
G02*
X185062625Y-108814923I-104298J-104298D01*
G01*
X184854029Y-109023519D01*
G75*
G02*
X184645433Y-109023519I-104298J104298D01*
G01*
X184401481Y-108779567D01*
G75*
G02*
X184401481Y-108570971I104298J104298D01*
G01*
X184610077Y-108362375D01*
G75*
G02*
X184818673Y-108362375I104298J-104298D01*
G01*
G37*
G36*
G01*
X185504567Y-107676481D02*
X185748519Y-107920433D01*
G75*
G02*
X185748519Y-108129029I-104298J-104298D01*
G01*
X185539923Y-108337625D01*
G75*
G02*
X185331327Y-108337625I-104298J104298D01*
G01*
X185087375Y-108093673D01*
G75*
G02*
X185087375Y-107885077I104298J104298D01*
G01*
X185295971Y-107676481D01*
G75*
G02*
X185504567Y-107676481I104298J-104298D01*
G01*
G37*
%TD*%
%TO.C,C11*%
G36*
G01*
X180856327Y-112037625D02*
X180612375Y-111793673D01*
G75*
G02*
X180612375Y-111585077I104298J104298D01*
G01*
X180820971Y-111376481D01*
G75*
G02*
X181029567Y-111376481I104298J-104298D01*
G01*
X181273519Y-111620433D01*
G75*
G02*
X181273519Y-111829029I-104298J-104298D01*
G01*
X181064923Y-112037625D01*
G75*
G02*
X180856327Y-112037625I-104298J104298D01*
G01*
G37*
G36*
G01*
X180170433Y-112723519D02*
X179926481Y-112479567D01*
G75*
G02*
X179926481Y-112270971I104298J104298D01*
G01*
X180135077Y-112062375D01*
G75*
G02*
X180343673Y-112062375I104298J-104298D01*
G01*
X180587625Y-112306327D01*
G75*
G02*
X180587625Y-112514923I-104298J-104298D01*
G01*
X180379029Y-112723519D01*
G75*
G02*
X180170433Y-112723519I-104298J104298D01*
G01*
G37*
%TD*%
%TO.C,C10*%
G36*
G01*
X205143750Y-110222000D02*
X205656250Y-110222000D01*
G75*
G02*
X205875000Y-110440750I0J-218750D01*
G01*
X205875000Y-110878250D01*
G75*
G02*
X205656250Y-111097000I-218750J0D01*
G01*
X205143750Y-111097000D01*
G75*
G02*
X204925000Y-110878250I0J218750D01*
G01*
X204925000Y-110440750D01*
G75*
G02*
X205143750Y-110222000I218750J0D01*
G01*
G37*
G36*
G01*
X205143750Y-108647000D02*
X205656250Y-108647000D01*
G75*
G02*
X205875000Y-108865750I0J-218750D01*
G01*
X205875000Y-109303250D01*
G75*
G02*
X205656250Y-109522000I-218750J0D01*
G01*
X205143750Y-109522000D01*
G75*
G02*
X204925000Y-109303250I0J218750D01*
G01*
X204925000Y-108865750D01*
G75*
G02*
X205143750Y-108647000I218750J0D01*
G01*
G37*
%TD*%
%TO.C,C9*%
G36*
G01*
X182536250Y-94010000D02*
X182023750Y-94010000D01*
G75*
G02*
X181805000Y-93791250I0J218750D01*
G01*
X181805000Y-93353750D01*
G75*
G02*
X182023750Y-93135000I218750J0D01*
G01*
X182536250Y-93135000D01*
G75*
G02*
X182755000Y-93353750I0J-218750D01*
G01*
X182755000Y-93791250D01*
G75*
G02*
X182536250Y-94010000I-218750J0D01*
G01*
G37*
G36*
G01*
X182536250Y-95585000D02*
X182023750Y-95585000D01*
G75*
G02*
X181805000Y-95366250I0J218750D01*
G01*
X181805000Y-94928750D01*
G75*
G02*
X182023750Y-94710000I218750J0D01*
G01*
X182536250Y-94710000D01*
G75*
G02*
X182755000Y-94928750I0J-218750D01*
G01*
X182755000Y-95366250D01*
G75*
G02*
X182536250Y-95585000I-218750J0D01*
G01*
G37*
%TD*%
%TO.C,C8*%
G36*
G01*
X210243750Y-110050000D02*
X210756250Y-110050000D01*
G75*
G02*
X210975000Y-110268750I0J-218750D01*
G01*
X210975000Y-110706250D01*
G75*
G02*
X210756250Y-110925000I-218750J0D01*
G01*
X210243750Y-110925000D01*
G75*
G02*
X210025000Y-110706250I0J218750D01*
G01*
X210025000Y-110268750D01*
G75*
G02*
X210243750Y-110050000I218750J0D01*
G01*
G37*
G36*
G01*
X210243750Y-108475000D02*
X210756250Y-108475000D01*
G75*
G02*
X210975000Y-108693750I0J-218750D01*
G01*
X210975000Y-109131250D01*
G75*
G02*
X210756250Y-109350000I-218750J0D01*
G01*
X210243750Y-109350000D01*
G75*
G02*
X210025000Y-109131250I0J218750D01*
G01*
X210025000Y-108693750D01*
G75*
G02*
X210243750Y-108475000I218750J0D01*
G01*
G37*
%TD*%
%TO.C,C6*%
G36*
G01*
X187602375Y-106096327D02*
X187846327Y-105852375D01*
G75*
G02*
X188054923Y-105852375I104298J-104298D01*
G01*
X188263519Y-106060971D01*
G75*
G02*
X188263519Y-106269567I-104298J-104298D01*
G01*
X188019567Y-106513519D01*
G75*
G02*
X187810971Y-106513519I-104298J104298D01*
G01*
X187602375Y-106304923D01*
G75*
G02*
X187602375Y-106096327I104298J104298D01*
G01*
G37*
G36*
G01*
X186916481Y-105410433D02*
X187160433Y-105166481D01*
G75*
G02*
X187369029Y-105166481I104298J-104298D01*
G01*
X187577625Y-105375077D01*
G75*
G02*
X187577625Y-105583673I-104298J-104298D01*
G01*
X187333673Y-105827625D01*
G75*
G02*
X187125077Y-105827625I-104298J104298D01*
G01*
X186916481Y-105619029D01*
G75*
G02*
X186916481Y-105410433I104298J104298D01*
G01*
G37*
%TD*%
%TO.C,C5*%
G36*
G01*
X184066250Y-94020000D02*
X183553750Y-94020000D01*
G75*
G02*
X183335000Y-93801250I0J218750D01*
G01*
X183335000Y-93363750D01*
G75*
G02*
X183553750Y-93145000I218750J0D01*
G01*
X184066250Y-93145000D01*
G75*
G02*
X184285000Y-93363750I0J-218750D01*
G01*
X184285000Y-93801250D01*
G75*
G02*
X184066250Y-94020000I-218750J0D01*
G01*
G37*
G36*
G01*
X184066250Y-95595000D02*
X183553750Y-95595000D01*
G75*
G02*
X183335000Y-95376250I0J218750D01*
G01*
X183335000Y-94938750D01*
G75*
G02*
X183553750Y-94720000I218750J0D01*
G01*
X184066250Y-94720000D01*
G75*
G02*
X184285000Y-94938750I0J-218750D01*
G01*
X184285000Y-95376250D01*
G75*
G02*
X184066250Y-95595000I-218750J0D01*
G01*
G37*
%TD*%
%TO.C,C2*%
G36*
G01*
X181642500Y-88620000D02*
X181297500Y-88620000D01*
G75*
G02*
X181150000Y-88472500I0J147500D01*
G01*
X181150000Y-88177500D01*
G75*
G02*
X181297500Y-88030000I147500J0D01*
G01*
X181642500Y-88030000D01*
G75*
G02*
X181790000Y-88177500I0J-147500D01*
G01*
X181790000Y-88472500D01*
G75*
G02*
X181642500Y-88620000I-147500J0D01*
G01*
G37*
G36*
G01*
X181642500Y-89590000D02*
X181297500Y-89590000D01*
G75*
G02*
X181150000Y-89442500I0J147500D01*
G01*
X181150000Y-89147500D01*
G75*
G02*
X181297500Y-89000000I147500J0D01*
G01*
X181642500Y-89000000D01*
G75*
G02*
X181790000Y-89147500I0J-147500D01*
G01*
X181790000Y-89442500D01*
G75*
G02*
X181642500Y-89590000I-147500J0D01*
G01*
G37*
%TD*%
M02*
