%TF.GenerationSoftware,KiCad,Pcbnew,5.1.9+dfsg1-1~bpo10+1*%
%TF.CreationDate,2021-03-04T00:37:35+00:00*%
%TF.ProjectId,atlas,61746c61-732e-46b6-9963-61645f706362,rev?*%
%TF.SameCoordinates,Original*%
%TF.FileFunction,Legend,Top*%
%TF.FilePolarity,Positive*%
%FSLAX46Y46*%
G04 Gerber Fmt 4.6, Leading zero omitted, Abs format (unit mm)*
G04 Created by KiCad (PCBNEW 5.1.9+dfsg1-1~bpo10+1) date 2021-03-04 00:37:35*
%MOMM*%
%LPD*%
G01*
G04 APERTURE LIST*
%ADD10C,0.120000*%
%ADD11C,0.250000*%
%ADD12C,0.300000*%
%ADD13C,0.500000*%
%ADD14C,0.200000*%
%ADD15C,0.150000*%
%ADD16C,0.127000*%
%ADD17C,0.203200*%
%ADD18C,0.100000*%
%ADD19C,0.015000*%
%ADD20C,0.110000*%
G04 APERTURE END LIST*
D10*
X85310000Y-144897142D02*
X85867142Y-144897142D01*
X85567142Y-145240000D01*
X85695714Y-145240000D01*
X85781428Y-145282857D01*
X85824285Y-145325714D01*
X85867142Y-145411428D01*
X85867142Y-145625714D01*
X85824285Y-145711428D01*
X85781428Y-145754285D01*
X85695714Y-145797142D01*
X85438571Y-145797142D01*
X85352857Y-145754285D01*
X85310000Y-145711428D01*
X86124285Y-144897142D02*
X86424285Y-145797142D01*
X86724285Y-144897142D01*
X86938571Y-144897142D02*
X87495714Y-144897142D01*
X87195714Y-145240000D01*
X87324285Y-145240000D01*
X87410000Y-145282857D01*
X87452857Y-145325714D01*
X87495714Y-145411428D01*
X87495714Y-145625714D01*
X87452857Y-145711428D01*
X87410000Y-145754285D01*
X87324285Y-145797142D01*
X87067142Y-145797142D01*
X86981428Y-145754285D01*
X86938571Y-145711428D01*
X88524285Y-144854285D02*
X87752857Y-146011428D01*
X89252857Y-144897142D02*
X88824285Y-144897142D01*
X88781428Y-145325714D01*
X88824285Y-145282857D01*
X88910000Y-145240000D01*
X89124285Y-145240000D01*
X89210000Y-145282857D01*
X89252857Y-145325714D01*
X89295714Y-145411428D01*
X89295714Y-145625714D01*
X89252857Y-145711428D01*
X89210000Y-145754285D01*
X89124285Y-145797142D01*
X88910000Y-145797142D01*
X88824285Y-145754285D01*
X88781428Y-145711428D01*
X89552857Y-144897142D02*
X89852857Y-145797142D01*
X90152857Y-144897142D01*
D11*
X43560714Y-98603571D02*
X43060714Y-97889285D01*
X42703571Y-98603571D02*
X42703571Y-97103571D01*
X43275000Y-97103571D01*
X43417857Y-97175000D01*
X43489285Y-97246428D01*
X43560714Y-97389285D01*
X43560714Y-97603571D01*
X43489285Y-97746428D01*
X43417857Y-97817857D01*
X43275000Y-97889285D01*
X42703571Y-97889285D01*
X44775000Y-98532142D02*
X44632142Y-98603571D01*
X44346428Y-98603571D01*
X44203571Y-98532142D01*
X44132142Y-98389285D01*
X44132142Y-97817857D01*
X44203571Y-97675000D01*
X44346428Y-97603571D01*
X44632142Y-97603571D01*
X44775000Y-97675000D01*
X44846428Y-97817857D01*
X44846428Y-97960714D01*
X44132142Y-98103571D01*
X45346428Y-97603571D02*
X45703571Y-98603571D01*
X46060714Y-97603571D01*
X47703571Y-98175000D02*
X48417857Y-98175000D01*
X47560714Y-98603571D02*
X48060714Y-97103571D01*
X48560714Y-98603571D01*
X81467857Y-94667857D02*
X81682142Y-94739285D01*
X81753571Y-94810714D01*
X81825000Y-94953571D01*
X81825000Y-95167857D01*
X81753571Y-95310714D01*
X81682142Y-95382142D01*
X81539285Y-95453571D01*
X80967857Y-95453571D01*
X80967857Y-93953571D01*
X81467857Y-93953571D01*
X81610714Y-94025000D01*
X81682142Y-94096428D01*
X81753571Y-94239285D01*
X81753571Y-94382142D01*
X81682142Y-94525000D01*
X81610714Y-94596428D01*
X81467857Y-94667857D01*
X80967857Y-94667857D01*
X82325000Y-94453571D02*
X82682142Y-95453571D01*
X83039285Y-94453571D02*
X82682142Y-95453571D01*
X82539285Y-95810714D01*
X82467857Y-95882142D01*
X82325000Y-95953571D01*
X83610714Y-95453571D02*
X83610714Y-94453571D01*
X83610714Y-94739285D02*
X83682142Y-94596428D01*
X83753571Y-94525000D01*
X83896428Y-94453571D01*
X84039285Y-94453571D01*
X84753571Y-95453571D02*
X84610714Y-95382142D01*
X84539285Y-95310714D01*
X84467857Y-95167857D01*
X84467857Y-94739285D01*
X84539285Y-94596428D01*
X84610714Y-94525000D01*
X84753571Y-94453571D01*
X84967857Y-94453571D01*
X85110714Y-94525000D01*
X85182142Y-94596428D01*
X85253571Y-94739285D01*
X85253571Y-95167857D01*
X85182142Y-95310714D01*
X85110714Y-95382142D01*
X84967857Y-95453571D01*
X84753571Y-95453571D01*
X85896428Y-94453571D02*
X85896428Y-95453571D01*
X85896428Y-94596428D02*
X85967857Y-94525000D01*
X86110714Y-94453571D01*
X86325000Y-94453571D01*
X86467857Y-94525000D01*
X86539285Y-94667857D01*
X86539285Y-95453571D01*
X88182142Y-93953571D02*
X89039285Y-93953571D01*
X88610714Y-95453571D02*
X88610714Y-93953571D01*
X89539285Y-95453571D02*
X89539285Y-93953571D01*
X90182142Y-95453571D02*
X90182142Y-94667857D01*
X90110714Y-94525000D01*
X89967857Y-94453571D01*
X89753571Y-94453571D01*
X89610714Y-94525000D01*
X89539285Y-94596428D01*
X91467857Y-95382142D02*
X91325000Y-95453571D01*
X91039285Y-95453571D01*
X90896428Y-95382142D01*
X90825000Y-95239285D01*
X90825000Y-94667857D01*
X90896428Y-94525000D01*
X91039285Y-94453571D01*
X91325000Y-94453571D01*
X91467857Y-94525000D01*
X91539285Y-94667857D01*
X91539285Y-94810714D01*
X90825000Y-94953571D01*
X92396428Y-95453571D02*
X92253571Y-95382142D01*
X92182142Y-95310714D01*
X92110714Y-95167857D01*
X92110714Y-94739285D01*
X92182142Y-94596428D01*
X92253571Y-94525000D01*
X92396428Y-94453571D01*
X92610714Y-94453571D01*
X92753571Y-94525000D01*
X92825000Y-94596428D01*
X92896428Y-94739285D01*
X92896428Y-95167857D01*
X92825000Y-95310714D01*
X92753571Y-95382142D01*
X92610714Y-95453571D01*
X92396428Y-95453571D01*
X93539285Y-95453571D02*
X93539285Y-93953571D01*
X93539285Y-94525000D02*
X93682142Y-94453571D01*
X93967857Y-94453571D01*
X94110714Y-94525000D01*
X94182142Y-94596428D01*
X94253571Y-94739285D01*
X94253571Y-95167857D01*
X94182142Y-95310714D01*
X94110714Y-95382142D01*
X93967857Y-95453571D01*
X93682142Y-95453571D01*
X93539285Y-95382142D01*
X95539285Y-95453571D02*
X95539285Y-94667857D01*
X95467857Y-94525000D01*
X95325000Y-94453571D01*
X95039285Y-94453571D01*
X94896428Y-94525000D01*
X95539285Y-95382142D02*
X95396428Y-95453571D01*
X95039285Y-95453571D01*
X94896428Y-95382142D01*
X94825000Y-95239285D01*
X94825000Y-95096428D01*
X94896428Y-94953571D01*
X95039285Y-94882142D01*
X95396428Y-94882142D01*
X95539285Y-94810714D01*
X96467857Y-95453571D02*
X96325000Y-95382142D01*
X96253571Y-95239285D01*
X96253571Y-93953571D01*
X97682142Y-95453571D02*
X97682142Y-93953571D01*
X97682142Y-95382142D02*
X97539285Y-95453571D01*
X97253571Y-95453571D01*
X97110714Y-95382142D01*
X97039285Y-95310714D01*
X96967857Y-95167857D01*
X96967857Y-94739285D01*
X97039285Y-94596428D01*
X97110714Y-94525000D01*
X97253571Y-94453571D01*
X97539285Y-94453571D01*
X97682142Y-94525000D01*
X78896428Y-97953571D02*
X78896428Y-96453571D01*
X78896428Y-97025000D02*
X79039285Y-96953571D01*
X79325000Y-96953571D01*
X79467857Y-97025000D01*
X79539285Y-97096428D01*
X79610714Y-97239285D01*
X79610714Y-97667857D01*
X79539285Y-97810714D01*
X79467857Y-97882142D01*
X79325000Y-97953571D01*
X79039285Y-97953571D01*
X78896428Y-97882142D01*
X80039285Y-96953571D02*
X80610714Y-96953571D01*
X80253571Y-96453571D02*
X80253571Y-97739285D01*
X80325000Y-97882142D01*
X80467857Y-97953571D01*
X80610714Y-97953571D01*
X81110714Y-97953571D02*
X81110714Y-96453571D01*
X81753571Y-97953571D02*
X81753571Y-97167857D01*
X81682142Y-97025000D01*
X81539285Y-96953571D01*
X81325000Y-96953571D01*
X81182142Y-97025000D01*
X81110714Y-97096428D01*
X83039285Y-97882142D02*
X82896428Y-97953571D01*
X82610714Y-97953571D01*
X82467857Y-97882142D01*
X82396428Y-97739285D01*
X82396428Y-97167857D01*
X82467857Y-97025000D01*
X82610714Y-96953571D01*
X82896428Y-96953571D01*
X83039285Y-97025000D01*
X83110714Y-97167857D01*
X83110714Y-97310714D01*
X82396428Y-97453571D01*
X83967857Y-97953571D02*
X83825000Y-97882142D01*
X83753571Y-97810714D01*
X83682142Y-97667857D01*
X83682142Y-97239285D01*
X83753571Y-97096428D01*
X83825000Y-97025000D01*
X83967857Y-96953571D01*
X84182142Y-96953571D01*
X84325000Y-97025000D01*
X84396428Y-97096428D01*
X84467857Y-97239285D01*
X84467857Y-97667857D01*
X84396428Y-97810714D01*
X84325000Y-97882142D01*
X84182142Y-97953571D01*
X83967857Y-97953571D01*
X85110714Y-97953571D02*
X85110714Y-96453571D01*
X85110714Y-97025000D02*
X85253571Y-96953571D01*
X85539285Y-96953571D01*
X85682142Y-97025000D01*
X85753571Y-97096428D01*
X85825000Y-97239285D01*
X85825000Y-97667857D01*
X85753571Y-97810714D01*
X85682142Y-97882142D01*
X85539285Y-97953571D01*
X85253571Y-97953571D01*
X85110714Y-97882142D01*
X87110714Y-97953571D02*
X87110714Y-97167857D01*
X87039285Y-97025000D01*
X86896428Y-96953571D01*
X86610714Y-96953571D01*
X86467857Y-97025000D01*
X87110714Y-97882142D02*
X86967857Y-97953571D01*
X86610714Y-97953571D01*
X86467857Y-97882142D01*
X86396428Y-97739285D01*
X86396428Y-97596428D01*
X86467857Y-97453571D01*
X86610714Y-97382142D01*
X86967857Y-97382142D01*
X87110714Y-97310714D01*
X88039285Y-97953571D02*
X87896428Y-97882142D01*
X87825000Y-97739285D01*
X87825000Y-96453571D01*
X89253571Y-97953571D02*
X89253571Y-96453571D01*
X89253571Y-97882142D02*
X89110714Y-97953571D01*
X88825000Y-97953571D01*
X88682142Y-97882142D01*
X88610714Y-97810714D01*
X88539285Y-97667857D01*
X88539285Y-97239285D01*
X88610714Y-97096428D01*
X88682142Y-97025000D01*
X88825000Y-96953571D01*
X89110714Y-96953571D01*
X89253571Y-97025000D01*
X89967857Y-97810714D02*
X90039285Y-97882142D01*
X89967857Y-97953571D01*
X89896428Y-97882142D01*
X89967857Y-97810714D01*
X89967857Y-97953571D01*
X91325000Y-96953571D02*
X91325000Y-98167857D01*
X91253571Y-98310714D01*
X91182142Y-98382142D01*
X91039285Y-98453571D01*
X90825000Y-98453571D01*
X90682142Y-98382142D01*
X91325000Y-97882142D02*
X91182142Y-97953571D01*
X90896428Y-97953571D01*
X90753571Y-97882142D01*
X90682142Y-97810714D01*
X90610714Y-97667857D01*
X90610714Y-97239285D01*
X90682142Y-97096428D01*
X90753571Y-97025000D01*
X90896428Y-96953571D01*
X91182142Y-96953571D01*
X91325000Y-97025000D01*
X92039285Y-97953571D02*
X92039285Y-96953571D01*
X92039285Y-96453571D02*
X91967857Y-96525000D01*
X92039285Y-96596428D01*
X92110714Y-96525000D01*
X92039285Y-96453571D01*
X92039285Y-96596428D01*
X92539285Y-96953571D02*
X93110714Y-96953571D01*
X92753571Y-96453571D02*
X92753571Y-97739285D01*
X92825000Y-97882142D01*
X92967857Y-97953571D01*
X93110714Y-97953571D01*
X93610714Y-97953571D02*
X93610714Y-96453571D01*
X94253571Y-97953571D02*
X94253571Y-97167857D01*
X94182142Y-97025000D01*
X94039285Y-96953571D01*
X93825000Y-96953571D01*
X93682142Y-97025000D01*
X93610714Y-97096428D01*
X95610714Y-96953571D02*
X95610714Y-97953571D01*
X94967857Y-96953571D02*
X94967857Y-97739285D01*
X95039285Y-97882142D01*
X95182142Y-97953571D01*
X95396428Y-97953571D01*
X95539285Y-97882142D01*
X95610714Y-97810714D01*
X96325000Y-97953571D02*
X96325000Y-96453571D01*
X96325000Y-97025000D02*
X96467857Y-96953571D01*
X96753571Y-96953571D01*
X96896428Y-97025000D01*
X96967857Y-97096428D01*
X97039285Y-97239285D01*
X97039285Y-97667857D01*
X96967857Y-97810714D01*
X96896428Y-97882142D01*
X96753571Y-97953571D01*
X96467857Y-97953571D01*
X96325000Y-97882142D01*
X97682142Y-97810714D02*
X97753571Y-97882142D01*
X97682142Y-97953571D01*
X97610714Y-97882142D01*
X97682142Y-97810714D01*
X97682142Y-97953571D01*
X98396428Y-97953571D02*
X98396428Y-96953571D01*
X98396428Y-96453571D02*
X98325000Y-96525000D01*
X98396428Y-96596428D01*
X98467857Y-96525000D01*
X98396428Y-96453571D01*
X98396428Y-96596428D01*
X99325000Y-97953571D02*
X99182142Y-97882142D01*
X99110714Y-97810714D01*
X99039285Y-97667857D01*
X99039285Y-97239285D01*
X99110714Y-97096428D01*
X99182142Y-97025000D01*
X99325000Y-96953571D01*
X99539285Y-96953571D01*
X99682142Y-97025000D01*
X99753571Y-97096428D01*
X99825000Y-97239285D01*
X99825000Y-97667857D01*
X99753571Y-97810714D01*
X99682142Y-97882142D01*
X99539285Y-97953571D01*
X99325000Y-97953571D01*
D12*
X97114285Y-127032142D02*
X97328571Y-127103571D01*
X97685714Y-127103571D01*
X97828571Y-127032142D01*
X97900000Y-126960714D01*
X97971428Y-126817857D01*
X97971428Y-126675000D01*
X97900000Y-126532142D01*
X97828571Y-126460714D01*
X97685714Y-126389285D01*
X97400000Y-126317857D01*
X97257142Y-126246428D01*
X97185714Y-126175000D01*
X97114285Y-126032142D01*
X97114285Y-125889285D01*
X97185714Y-125746428D01*
X97257142Y-125675000D01*
X97400000Y-125603571D01*
X97757142Y-125603571D01*
X97971428Y-125675000D01*
X98471428Y-125603571D02*
X98828571Y-127103571D01*
X99114285Y-126032142D01*
X99400000Y-127103571D01*
X99757142Y-125603571D01*
X100328571Y-127103571D02*
X100328571Y-125603571D01*
X100685714Y-125603571D01*
X100900000Y-125675000D01*
X101042857Y-125817857D01*
X101114285Y-125960714D01*
X101185714Y-126246428D01*
X101185714Y-126460714D01*
X101114285Y-126746428D01*
X101042857Y-126889285D01*
X100900000Y-127032142D01*
X100685714Y-127103571D01*
X100328571Y-127103571D01*
D13*
X39739285Y-95042500D02*
X41167857Y-95042500D01*
X39453571Y-95899642D02*
X40453571Y-92899642D01*
X41453571Y-95899642D01*
X42025000Y-92899642D02*
X43739285Y-92899642D01*
X42882142Y-95899642D02*
X42882142Y-92899642D01*
X46167857Y-95899642D02*
X44739285Y-95899642D01*
X44739285Y-92899642D01*
X47025000Y-95042500D02*
X48453571Y-95042500D01*
X46739285Y-95899642D02*
X47739285Y-92899642D01*
X48739285Y-95899642D01*
X49596428Y-95756785D02*
X50025000Y-95899642D01*
X50739285Y-95899642D01*
X51025000Y-95756785D01*
X51167857Y-95613928D01*
X51310714Y-95328214D01*
X51310714Y-95042500D01*
X51167857Y-94756785D01*
X51025000Y-94613928D01*
X50739285Y-94471071D01*
X50167857Y-94328214D01*
X49882142Y-94185357D01*
X49739285Y-94042500D01*
X49596428Y-93756785D01*
X49596428Y-93471071D01*
X49739285Y-93185357D01*
X49882142Y-93042500D01*
X50167857Y-92899642D01*
X50882142Y-92899642D01*
X51310714Y-93042500D01*
D14*
X34347619Y-131588809D02*
X35347619Y-131588809D01*
X35252380Y-132017380D02*
X35300000Y-132065000D01*
X35347619Y-132160238D01*
X35347619Y-132398333D01*
X35300000Y-132493571D01*
X35252380Y-132541190D01*
X35157142Y-132588809D01*
X35061904Y-132588809D01*
X34919047Y-132541190D01*
X34347619Y-131969761D01*
X34347619Y-132588809D01*
X34442857Y-133588809D02*
X34395238Y-133541190D01*
X34347619Y-133398333D01*
X34347619Y-133303095D01*
X34395238Y-133160238D01*
X34490476Y-133065000D01*
X34585714Y-133017380D01*
X34776190Y-132969761D01*
X34919047Y-132969761D01*
X35109523Y-133017380D01*
X35204761Y-133065000D01*
X35300000Y-133160238D01*
X35347619Y-133303095D01*
X35347619Y-133398333D01*
X35300000Y-133541190D01*
X35252380Y-133588809D01*
D15*
X51814285Y-143052380D02*
X52385714Y-143052380D01*
X52100000Y-144052380D02*
X52100000Y-143052380D01*
X54019047Y-142746428D02*
X54780952Y-142746428D01*
X54400000Y-143127380D02*
X54400000Y-142365476D01*
X54019047Y-144396428D02*
X54780952Y-144396428D01*
D14*
X34871428Y-117192857D02*
X34871428Y-116859523D01*
X34347619Y-116859523D02*
X35347619Y-116859523D01*
X35347619Y-117335714D01*
X34347619Y-114738095D02*
X35347619Y-114738095D01*
X35347619Y-115119047D01*
X35300000Y-115214285D01*
X35252380Y-115261904D01*
X35157142Y-115309523D01*
X35014285Y-115309523D01*
X34919047Y-115261904D01*
X34871428Y-115214285D01*
X34823809Y-115119047D01*
X34823809Y-114738095D01*
X71642857Y-111078571D02*
X71785714Y-111126190D01*
X71833333Y-111173809D01*
X71880952Y-111269047D01*
X71880952Y-111411904D01*
X71833333Y-111507142D01*
X71785714Y-111554761D01*
X71690476Y-111602380D01*
X71309523Y-111602380D01*
X71309523Y-110602380D01*
X71642857Y-110602380D01*
X71738095Y-110650000D01*
X71785714Y-110697619D01*
X71833333Y-110792857D01*
X71833333Y-110888095D01*
X71785714Y-110983333D01*
X71738095Y-111030952D01*
X71642857Y-111078571D01*
X71309523Y-111078571D01*
X72500000Y-110602380D02*
X72690476Y-110602380D01*
X72785714Y-110650000D01*
X72880952Y-110745238D01*
X72928571Y-110935714D01*
X72928571Y-111269047D01*
X72880952Y-111459523D01*
X72785714Y-111554761D01*
X72690476Y-111602380D01*
X72500000Y-111602380D01*
X72404761Y-111554761D01*
X72309523Y-111459523D01*
X72261904Y-111269047D01*
X72261904Y-110935714D01*
X72309523Y-110745238D01*
X72404761Y-110650000D01*
X72500000Y-110602380D01*
X73547619Y-110602380D02*
X73738095Y-110602380D01*
X73833333Y-110650000D01*
X73928571Y-110745238D01*
X73976190Y-110935714D01*
X73976190Y-111269047D01*
X73928571Y-111459523D01*
X73833333Y-111554761D01*
X73738095Y-111602380D01*
X73547619Y-111602380D01*
X73452380Y-111554761D01*
X73357142Y-111459523D01*
X73309523Y-111269047D01*
X73309523Y-110935714D01*
X73357142Y-110745238D01*
X73452380Y-110650000D01*
X73547619Y-110602380D01*
X74261904Y-110602380D02*
X74833333Y-110602380D01*
X74547619Y-111602380D02*
X74547619Y-110602380D01*
X62647619Y-111752380D02*
X62314285Y-111276190D01*
X62076190Y-111752380D02*
X62076190Y-110752380D01*
X62457142Y-110752380D01*
X62552380Y-110800000D01*
X62600000Y-110847619D01*
X62647619Y-110942857D01*
X62647619Y-111085714D01*
X62600000Y-111180952D01*
X62552380Y-111228571D01*
X62457142Y-111276190D01*
X62076190Y-111276190D01*
X63076190Y-111228571D02*
X63409523Y-111228571D01*
X63552380Y-111752380D02*
X63076190Y-111752380D01*
X63076190Y-110752380D01*
X63552380Y-110752380D01*
X63933333Y-111704761D02*
X64076190Y-111752380D01*
X64314285Y-111752380D01*
X64409523Y-111704761D01*
X64457142Y-111657142D01*
X64504761Y-111561904D01*
X64504761Y-111466666D01*
X64457142Y-111371428D01*
X64409523Y-111323809D01*
X64314285Y-111276190D01*
X64123809Y-111228571D01*
X64028571Y-111180952D01*
X63980952Y-111133333D01*
X63933333Y-111038095D01*
X63933333Y-110942857D01*
X63980952Y-110847619D01*
X64028571Y-110800000D01*
X64123809Y-110752380D01*
X64361904Y-110752380D01*
X64504761Y-110800000D01*
X64933333Y-111228571D02*
X65266666Y-111228571D01*
X65409523Y-111752380D02*
X64933333Y-111752380D01*
X64933333Y-110752380D01*
X65409523Y-110752380D01*
X65695238Y-110752380D02*
X66266666Y-110752380D01*
X65980952Y-111752380D02*
X65980952Y-110752380D01*
D12*
X80264285Y-105907142D02*
X80478571Y-105978571D01*
X80835714Y-105978571D01*
X80978571Y-105907142D01*
X81050000Y-105835714D01*
X81121428Y-105692857D01*
X81121428Y-105550000D01*
X81050000Y-105407142D01*
X80978571Y-105335714D01*
X80835714Y-105264285D01*
X80550000Y-105192857D01*
X80407142Y-105121428D01*
X80335714Y-105050000D01*
X80264285Y-104907142D01*
X80264285Y-104764285D01*
X80335714Y-104621428D01*
X80407142Y-104550000D01*
X80550000Y-104478571D01*
X80907142Y-104478571D01*
X81121428Y-104550000D01*
X81621428Y-104478571D02*
X81978571Y-105978571D01*
X82264285Y-104907142D01*
X82550000Y-105978571D01*
X82907142Y-104478571D01*
X83478571Y-105978571D02*
X83478571Y-104478571D01*
X83835714Y-104478571D01*
X84050000Y-104550000D01*
X84192857Y-104692857D01*
X84264285Y-104835714D01*
X84335714Y-105121428D01*
X84335714Y-105335714D01*
X84264285Y-105621428D01*
X84192857Y-105764285D01*
X84050000Y-105907142D01*
X83835714Y-105978571D01*
X83478571Y-105978571D01*
X88242857Y-105978571D02*
X88242857Y-104478571D01*
X88742857Y-105550000D01*
X89242857Y-104478571D01*
X89242857Y-105978571D01*
X89957142Y-105978571D02*
X89957142Y-104978571D01*
X89957142Y-104478571D02*
X89885714Y-104550000D01*
X89957142Y-104621428D01*
X90028571Y-104550000D01*
X89957142Y-104478571D01*
X89957142Y-104621428D01*
X91314285Y-105907142D02*
X91171428Y-105978571D01*
X90885714Y-105978571D01*
X90742857Y-105907142D01*
X90671428Y-105835714D01*
X90600000Y-105692857D01*
X90600000Y-105264285D01*
X90671428Y-105121428D01*
X90742857Y-105050000D01*
X90885714Y-104978571D01*
X91171428Y-104978571D01*
X91314285Y-105050000D01*
X91957142Y-105978571D02*
X91957142Y-104978571D01*
X91957142Y-105264285D02*
X92028571Y-105121428D01*
X92100000Y-105050000D01*
X92242857Y-104978571D01*
X92385714Y-104978571D01*
X93100000Y-105978571D02*
X92957142Y-105907142D01*
X92885714Y-105835714D01*
X92814285Y-105692857D01*
X92814285Y-105264285D01*
X92885714Y-105121428D01*
X92957142Y-105050000D01*
X93100000Y-104978571D01*
X93314285Y-104978571D01*
X93457142Y-105050000D01*
X93528571Y-105121428D01*
X93600000Y-105264285D01*
X93600000Y-105692857D01*
X93528571Y-105835714D01*
X93457142Y-105907142D01*
X93314285Y-105978571D01*
X93100000Y-105978571D01*
X94171428Y-105907142D02*
X94385714Y-105978571D01*
X94742857Y-105978571D01*
X94885714Y-105907142D01*
X94957142Y-105835714D01*
X95028571Y-105692857D01*
X95028571Y-105550000D01*
X94957142Y-105407142D01*
X94885714Y-105335714D01*
X94742857Y-105264285D01*
X94457142Y-105192857D01*
X94314285Y-105121428D01*
X94242857Y-105050000D01*
X94171428Y-104907142D01*
X94171428Y-104764285D01*
X94242857Y-104621428D01*
X94314285Y-104550000D01*
X94457142Y-104478571D01*
X94814285Y-104478571D01*
X95028571Y-104550000D01*
X95671428Y-105978571D02*
X95671428Y-104478571D01*
X96028571Y-104478571D01*
X96242857Y-104550000D01*
X96385714Y-104692857D01*
X96457142Y-104835714D01*
X96528571Y-105121428D01*
X96528571Y-105335714D01*
X96457142Y-105621428D01*
X96385714Y-105764285D01*
X96242857Y-105907142D01*
X96028571Y-105978571D01*
X95671428Y-105978571D01*
X62778571Y-104850000D02*
X62635714Y-104778571D01*
X62421428Y-104778571D01*
X62207142Y-104850000D01*
X62064285Y-104992857D01*
X61992857Y-105135714D01*
X61921428Y-105421428D01*
X61921428Y-105635714D01*
X61992857Y-105921428D01*
X62064285Y-106064285D01*
X62207142Y-106207142D01*
X62421428Y-106278571D01*
X62564285Y-106278571D01*
X62778571Y-106207142D01*
X62850000Y-106135714D01*
X62850000Y-105635714D01*
X62564285Y-105635714D01*
X63492857Y-106278571D02*
X63492857Y-104778571D01*
X64064285Y-104778571D01*
X64207142Y-104850000D01*
X64278571Y-104921428D01*
X64350000Y-105064285D01*
X64350000Y-105278571D01*
X64278571Y-105421428D01*
X64207142Y-105492857D01*
X64064285Y-105564285D01*
X63492857Y-105564285D01*
X64921428Y-106207142D02*
X65135714Y-106278571D01*
X65492857Y-106278571D01*
X65635714Y-106207142D01*
X65707142Y-106135714D01*
X65778571Y-105992857D01*
X65778571Y-105850000D01*
X65707142Y-105707142D01*
X65635714Y-105635714D01*
X65492857Y-105564285D01*
X65207142Y-105492857D01*
X65064285Y-105421428D01*
X64992857Y-105350000D01*
X64921428Y-105207142D01*
X64921428Y-105064285D01*
X64992857Y-104921428D01*
X65064285Y-104850000D01*
X65207142Y-104778571D01*
X65564285Y-104778571D01*
X65778571Y-104850000D01*
X57314285Y-117092857D02*
X56814285Y-117092857D01*
X56814285Y-117878571D02*
X56814285Y-116378571D01*
X57528571Y-116378571D01*
X58814285Y-117878571D02*
X58100000Y-117878571D01*
X58100000Y-116378571D01*
X59242857Y-117450000D02*
X59957142Y-117450000D01*
X59100000Y-117878571D02*
X59600000Y-116378571D01*
X60100000Y-117878571D01*
X60528571Y-117807142D02*
X60742857Y-117878571D01*
X61100000Y-117878571D01*
X61242857Y-117807142D01*
X61314285Y-117735714D01*
X61385714Y-117592857D01*
X61385714Y-117450000D01*
X61314285Y-117307142D01*
X61242857Y-117235714D01*
X61100000Y-117164285D01*
X60814285Y-117092857D01*
X60671428Y-117021428D01*
X60600000Y-116950000D01*
X60528571Y-116807142D01*
X60528571Y-116664285D01*
X60600000Y-116521428D01*
X60671428Y-116450000D01*
X60814285Y-116378571D01*
X61171428Y-116378571D01*
X61385714Y-116450000D01*
X62028571Y-117878571D02*
X62028571Y-116378571D01*
X62028571Y-117092857D02*
X62885714Y-117092857D01*
X62885714Y-117878571D02*
X62885714Y-116378571D01*
X54007142Y-110750000D02*
X54721428Y-110750000D01*
X53864285Y-111178571D02*
X54364285Y-109678571D01*
X54864285Y-111178571D01*
X55364285Y-110607142D02*
X56507142Y-110607142D01*
X55935714Y-111178571D02*
X55935714Y-110035714D01*
X57221428Y-111178571D02*
X57221428Y-109678571D01*
X57721428Y-110750000D01*
X58221428Y-109678571D01*
X58221428Y-111178571D01*
X43875000Y-135403571D02*
X43875000Y-133903571D01*
X44446428Y-133903571D01*
X44589285Y-133975000D01*
X44660714Y-134046428D01*
X44732142Y-134189285D01*
X44732142Y-134403571D01*
X44660714Y-134546428D01*
X44589285Y-134617857D01*
X44446428Y-134689285D01*
X43875000Y-134689285D01*
X45232142Y-133903571D02*
X45589285Y-135403571D01*
X45875000Y-134332142D01*
X46160714Y-135403571D01*
X46517857Y-133903571D01*
X47946428Y-135403571D02*
X47446428Y-134689285D01*
X47089285Y-135403571D02*
X47089285Y-133903571D01*
X47660714Y-133903571D01*
X47803571Y-133975000D01*
X47875000Y-134046428D01*
X47946428Y-134189285D01*
X47946428Y-134403571D01*
X47875000Y-134546428D01*
X47803571Y-134617857D01*
X47660714Y-134689285D01*
X47089285Y-134689285D01*
X86850000Y-124235714D02*
X86778571Y-124307142D01*
X86564285Y-124378571D01*
X86421428Y-124378571D01*
X86207142Y-124307142D01*
X86064285Y-124164285D01*
X85992857Y-124021428D01*
X85921428Y-123735714D01*
X85921428Y-123521428D01*
X85992857Y-123235714D01*
X86064285Y-123092857D01*
X86207142Y-122950000D01*
X86421428Y-122878571D01*
X86564285Y-122878571D01*
X86778571Y-122950000D01*
X86850000Y-123021428D01*
X87778571Y-122878571D02*
X88064285Y-122878571D01*
X88207142Y-122950000D01*
X88350000Y-123092857D01*
X88421428Y-123378571D01*
X88421428Y-123878571D01*
X88350000Y-124164285D01*
X88207142Y-124307142D01*
X88064285Y-124378571D01*
X87778571Y-124378571D01*
X87635714Y-124307142D01*
X87492857Y-124164285D01*
X87421428Y-123878571D01*
X87421428Y-123378571D01*
X87492857Y-123092857D01*
X87635714Y-122950000D01*
X87778571Y-122878571D01*
X89921428Y-124378571D02*
X89421428Y-123664285D01*
X89064285Y-124378571D02*
X89064285Y-122878571D01*
X89635714Y-122878571D01*
X89778571Y-122950000D01*
X89850000Y-123021428D01*
X89921428Y-123164285D01*
X89921428Y-123378571D01*
X89850000Y-123521428D01*
X89778571Y-123592857D01*
X89635714Y-123664285D01*
X89064285Y-123664285D01*
X90564285Y-123592857D02*
X91064285Y-123592857D01*
X91278571Y-124378571D02*
X90564285Y-124378571D01*
X90564285Y-122878571D01*
X91278571Y-122878571D01*
X79314285Y-143278571D02*
X78814285Y-142564285D01*
X78457142Y-143278571D02*
X78457142Y-141778571D01*
X79028571Y-141778571D01*
X79171428Y-141850000D01*
X79242857Y-141921428D01*
X79314285Y-142064285D01*
X79314285Y-142278571D01*
X79242857Y-142421428D01*
X79171428Y-142492857D01*
X79028571Y-142564285D01*
X78457142Y-142564285D01*
X79885714Y-142850000D02*
X80600000Y-142850000D01*
X79742857Y-143278571D02*
X80242857Y-141778571D01*
X80742857Y-143278571D01*
X81242857Y-143278571D02*
X81242857Y-141778571D01*
X81742857Y-142850000D01*
X82242857Y-141778571D01*
X82242857Y-143278571D01*
X94571428Y-149542857D02*
X94785714Y-149614285D01*
X94857142Y-149685714D01*
X94928571Y-149828571D01*
X94928571Y-150042857D01*
X94857142Y-150185714D01*
X94785714Y-150257142D01*
X94642857Y-150328571D01*
X94071428Y-150328571D01*
X94071428Y-148828571D01*
X94571428Y-148828571D01*
X94714285Y-148900000D01*
X94785714Y-148971428D01*
X94857142Y-149114285D01*
X94857142Y-149257142D01*
X94785714Y-149400000D01*
X94714285Y-149471428D01*
X94571428Y-149542857D01*
X94071428Y-149542857D01*
X96285714Y-150328571D02*
X95571428Y-150328571D01*
X95571428Y-148828571D01*
X96785714Y-149542857D02*
X97285714Y-149542857D01*
X97500000Y-150328571D02*
X96785714Y-150328571D01*
X96785714Y-148828571D01*
X97500000Y-148828571D01*
X57850000Y-152542857D02*
X58064285Y-152614285D01*
X58135714Y-152685714D01*
X58207142Y-152828571D01*
X58207142Y-153042857D01*
X58135714Y-153185714D01*
X58064285Y-153257142D01*
X57921428Y-153328571D01*
X57350000Y-153328571D01*
X57350000Y-151828571D01*
X57850000Y-151828571D01*
X57992857Y-151900000D01*
X58064285Y-151971428D01*
X58135714Y-152114285D01*
X58135714Y-152257142D01*
X58064285Y-152400000D01*
X57992857Y-152471428D01*
X57850000Y-152542857D01*
X57350000Y-152542857D01*
X59564285Y-153328571D02*
X58850000Y-153328571D01*
X58850000Y-151828571D01*
X76464285Y-150028571D02*
X75750000Y-150028571D01*
X75750000Y-148528571D01*
X77821428Y-149885714D02*
X77750000Y-149957142D01*
X77535714Y-150028571D01*
X77392857Y-150028571D01*
X77178571Y-149957142D01*
X77035714Y-149814285D01*
X76964285Y-149671428D01*
X76892857Y-149385714D01*
X76892857Y-149171428D01*
X76964285Y-148885714D01*
X77035714Y-148742857D01*
X77178571Y-148600000D01*
X77392857Y-148528571D01*
X77535714Y-148528571D01*
X77750000Y-148600000D01*
X77821428Y-148671428D01*
X78464285Y-150028571D02*
X78464285Y-148528571D01*
X78821428Y-148528571D01*
X79035714Y-148600000D01*
X79178571Y-148742857D01*
X79250000Y-148885714D01*
X79321428Y-149171428D01*
X79321428Y-149385714D01*
X79250000Y-149671428D01*
X79178571Y-149814285D01*
X79035714Y-149957142D01*
X78821428Y-150028571D01*
X78464285Y-150028571D01*
X40257142Y-157878571D02*
X40257142Y-159092857D01*
X40328571Y-159235714D01*
X40400000Y-159307142D01*
X40542857Y-159378571D01*
X40828571Y-159378571D01*
X40971428Y-159307142D01*
X41042857Y-159235714D01*
X41114285Y-159092857D01*
X41114285Y-157878571D01*
X41757142Y-159307142D02*
X41971428Y-159378571D01*
X42328571Y-159378571D01*
X42471428Y-159307142D01*
X42542857Y-159235714D01*
X42614285Y-159092857D01*
X42614285Y-158950000D01*
X42542857Y-158807142D01*
X42471428Y-158735714D01*
X42328571Y-158664285D01*
X42042857Y-158592857D01*
X41900000Y-158521428D01*
X41828571Y-158450000D01*
X41757142Y-158307142D01*
X41757142Y-158164285D01*
X41828571Y-158021428D01*
X41900000Y-157950000D01*
X42042857Y-157878571D01*
X42400000Y-157878571D01*
X42614285Y-157950000D01*
X43757142Y-158592857D02*
X43971428Y-158664285D01*
X44042857Y-158735714D01*
X44114285Y-158878571D01*
X44114285Y-159092857D01*
X44042857Y-159235714D01*
X43971428Y-159307142D01*
X43828571Y-159378571D01*
X43257142Y-159378571D01*
X43257142Y-157878571D01*
X43757142Y-157878571D01*
X43900000Y-157950000D01*
X43971428Y-158021428D01*
X44042857Y-158164285D01*
X44042857Y-158307142D01*
X43971428Y-158450000D01*
X43900000Y-158521428D01*
X43757142Y-158592857D01*
X43257142Y-158592857D01*
D14*
X34347619Y-140819523D02*
X34823809Y-140486190D01*
X34347619Y-140248095D02*
X35347619Y-140248095D01*
X35347619Y-140629047D01*
X35300000Y-140724285D01*
X35252380Y-140771904D01*
X35157142Y-140819523D01*
X35014285Y-140819523D01*
X34919047Y-140771904D01*
X34871428Y-140724285D01*
X34823809Y-140629047D01*
X34823809Y-140248095D01*
X35347619Y-124190476D02*
X35347619Y-124285714D01*
X35300000Y-124380952D01*
X35252380Y-124428571D01*
X35157142Y-124476190D01*
X34966666Y-124523809D01*
X34728571Y-124523809D01*
X34538095Y-124476190D01*
X34442857Y-124428571D01*
X34395238Y-124380952D01*
X34347619Y-124285714D01*
X34347619Y-124190476D01*
X34395238Y-124095238D01*
X34442857Y-124047619D01*
X34538095Y-124000000D01*
X34728571Y-123952380D01*
X34966666Y-123952380D01*
X35157142Y-124000000D01*
X35252380Y-124047619D01*
X35300000Y-124095238D01*
X35347619Y-124190476D01*
X35395238Y-125666666D02*
X34109523Y-124809523D01*
X34347619Y-126000000D02*
X35347619Y-126000000D01*
X34347619Y-109809523D02*
X34347619Y-109333333D01*
X35347619Y-109333333D01*
X34347619Y-155876666D02*
X35347619Y-155876666D01*
X34633333Y-156210000D01*
X35347619Y-156543333D01*
X34347619Y-156543333D01*
X34442857Y-154487523D02*
X34395238Y-154439904D01*
X34347619Y-154297047D01*
X34347619Y-154201809D01*
X34395238Y-154058952D01*
X34490476Y-153963714D01*
X34585714Y-153916095D01*
X34776190Y-153868476D01*
X34919047Y-153868476D01*
X35109523Y-153916095D01*
X35204761Y-153963714D01*
X35300000Y-154058952D01*
X35347619Y-154201809D01*
X35347619Y-154297047D01*
X35300000Y-154439904D01*
X35252380Y-154487523D01*
X35347619Y-151860285D02*
X34538095Y-151860285D01*
X34442857Y-151907904D01*
X34395238Y-151955523D01*
X34347619Y-152050761D01*
X34347619Y-152241238D01*
X34395238Y-152336476D01*
X34442857Y-152384095D01*
X34538095Y-152431714D01*
X35347619Y-152431714D01*
D16*
%TO.C,U7*%
X98650000Y-151450000D02*
X98650000Y-160000000D01*
X98650000Y-160000000D02*
X95400000Y-160000000D01*
X95400000Y-160000000D02*
X95400000Y-151450000D01*
X95400000Y-151450000D02*
X98650000Y-151450000D01*
D14*
X95825000Y-150825000D02*
G75*
G03*
X95825000Y-150825000I-100000J0D01*
G01*
D10*
%TO.C,R24*%
X85700000Y-146200000D02*
X87700000Y-146200000D01*
X85700000Y-149000000D02*
X85700000Y-146200000D01*
X87700000Y-149000000D02*
X85700000Y-149000000D01*
X87700000Y-146200000D02*
X87700000Y-149000000D01*
%TO.C,R23*%
X88200000Y-146200000D02*
X90200000Y-146200000D01*
X88200000Y-149000000D02*
X88200000Y-146200000D01*
X90200000Y-149000000D02*
X88200000Y-149000000D01*
X90200000Y-146200000D02*
X90200000Y-149000000D01*
%TO.C,R17*%
X59910000Y-130962779D02*
X59910000Y-130637221D01*
X58890000Y-130962779D02*
X58890000Y-130637221D01*
%TO.C,R16*%
X56460000Y-131050279D02*
X56460000Y-130724721D01*
X55440000Y-131050279D02*
X55440000Y-130724721D01*
%TO.C,R10*%
X88530000Y-135952779D02*
X88530000Y-135627221D01*
X87510000Y-135952779D02*
X87510000Y-135627221D01*
%TO.C,R44*%
X62060000Y-103187221D02*
X62060000Y-103512779D01*
X61040000Y-103187221D02*
X61040000Y-103512779D01*
%TO.C,Q1*%
X58350000Y-104510000D02*
X60250000Y-104510000D01*
X59750000Y-102190000D02*
X58350000Y-102190000D01*
%TO.C,AE1*%
X60970000Y-100370000D02*
X58270000Y-100370000D01*
X60380000Y-97650000D02*
X60380000Y-97020000D01*
X58220000Y-97650000D02*
X58860000Y-97650000D01*
X61020000Y-97650000D02*
X60380000Y-97650000D01*
%TO.C,D12*%
X99280000Y-144490000D02*
X101965000Y-144490000D01*
X101965000Y-144490000D02*
X101965000Y-142570000D01*
X101965000Y-142570000D02*
X99280000Y-142570000D01*
%TO.C,R7*%
X92905279Y-136210000D02*
X92579721Y-136210000D01*
X92905279Y-135190000D02*
X92579721Y-135190000D01*
%TO.C,Q2*%
X93290000Y-134690000D02*
X93290000Y-133760000D01*
X93290000Y-131530000D02*
X93290000Y-132460000D01*
X93290000Y-131530000D02*
X91130000Y-131530000D01*
X93290000Y-134690000D02*
X91830000Y-134690000D01*
%TO.C,J4*%
X100925000Y-134395000D02*
X97395000Y-134395000D01*
X100925000Y-127925000D02*
X97395000Y-127925000D01*
X102250000Y-134330000D02*
X100925000Y-134330000D01*
X100925000Y-134395000D02*
X100925000Y-134330000D01*
X97395000Y-134395000D02*
X97395000Y-134330000D01*
X100925000Y-127990000D02*
X100925000Y-127925000D01*
X97395000Y-127990000D02*
X97395000Y-127925000D01*
%TO.C,R21*%
X98987221Y-136400000D02*
X99312779Y-136400000D01*
X98987221Y-137420000D02*
X99312779Y-137420000D01*
%TO.C,SW5*%
X101370000Y-138230000D02*
X101370000Y-138110000D01*
X101370000Y-140380000D02*
X101370000Y-139240000D01*
X101370000Y-141510000D02*
X101370000Y-141390000D01*
X96970000Y-141510000D02*
X101370000Y-141510000D01*
X96970000Y-141390000D02*
X96970000Y-141510000D01*
X96970000Y-139240000D02*
X96970000Y-140380000D01*
X96970000Y-138110000D02*
X96970000Y-138230000D01*
X101370000Y-138110000D02*
X96970000Y-138110000D01*
%TO.C,R22*%
X96540000Y-144182779D02*
X96540000Y-143857221D01*
X97560000Y-144182779D02*
X97560000Y-143857221D01*
%TO.C,C28*%
X93012779Y-151510000D02*
X92687221Y-151510000D01*
X93012779Y-150490000D02*
X92687221Y-150490000D01*
%TO.C,Y2*%
X101630000Y-153245000D02*
X101630000Y-154345000D01*
X99730000Y-153245000D02*
X99730000Y-154345000D01*
X101580000Y-151845000D02*
X99780000Y-151845000D01*
%TO.C,L6*%
X92500000Y-152300000D02*
X93200000Y-152300000D01*
X92500000Y-154500000D02*
X93200000Y-154500000D01*
D15*
%TO.C,U1*%
X68885000Y-117905000D02*
X68885000Y-118555000D01*
X83135000Y-117905000D02*
X83135000Y-118665000D01*
X83135000Y-132155000D02*
X83135000Y-131395000D01*
X68885000Y-132155000D02*
X68885000Y-131395000D01*
X68885000Y-117905000D02*
X69645000Y-117905000D01*
X68885000Y-132155000D02*
X69645000Y-132155000D01*
X83135000Y-132155000D02*
X82375000Y-132155000D01*
X83135000Y-117905000D02*
X82375000Y-117905000D01*
X68885000Y-118555000D02*
X67360000Y-118555000D01*
D10*
%TO.C,C53*%
X91972221Y-148070000D02*
X92297779Y-148070000D01*
X91972221Y-149090000D02*
X92297779Y-149090000D01*
D14*
%TO.C,J7*%
X87550000Y-157002000D02*
G75*
G03*
X87550000Y-157002000I-100000J0D01*
G01*
D16*
X64985000Y-151475000D02*
X64985000Y-152625000D01*
X90415000Y-151475000D02*
X64985000Y-151475000D01*
X90415000Y-152625000D02*
X90415000Y-151475000D01*
D17*
%TO.C,J9*%
X60200000Y-155550000D02*
X60900000Y-155550000D01*
X60200000Y-154550000D02*
X60200000Y-155550000D01*
X61800000Y-154550000D02*
X60200000Y-154550000D01*
X61800000Y-154350000D02*
X61800000Y-154550000D01*
X55300000Y-153950000D02*
X61400000Y-153950000D01*
X54900000Y-154550000D02*
X54900000Y-154350000D01*
X56500000Y-154550000D02*
X54900000Y-154550000D01*
X56500000Y-155550000D02*
X56500000Y-154550000D01*
X55800000Y-155550000D02*
X56500000Y-155550000D01*
X57100000Y-158750000D02*
X55800000Y-158750000D01*
X60900000Y-158750000D02*
X59600000Y-158750000D01*
X54900000Y-154350000D02*
G75*
G02*
X55300000Y-153950000I400000J0D01*
G01*
X61400000Y-153950000D02*
G75*
G02*
X61800000Y-154350000I0J-400000D01*
G01*
D10*
%TO.C,C18*%
X45808578Y-151240000D02*
X45291422Y-151240000D01*
X45808578Y-152660000D02*
X45291422Y-152660000D01*
%TO.C,R3*%
X41080000Y-133487221D02*
X41080000Y-133812779D01*
X42100000Y-133487221D02*
X42100000Y-133812779D01*
%TO.C,Y1*%
X64522000Y-129254000D02*
X64522000Y-125254000D01*
X61222000Y-129254000D02*
X64522000Y-129254000D01*
%TO.C,Y4*%
X59984000Y-123667000D02*
X61784000Y-123667000D01*
X61834000Y-122267000D02*
X61834000Y-121167000D01*
X59934000Y-122267000D02*
X59934000Y-121167000D01*
D18*
%TO.C,J3*%
X40080000Y-133815000D02*
G75*
G03*
X40080000Y-133815000I-50000J0D01*
G01*
D16*
X39560000Y-134615000D02*
X39560000Y-134285000D01*
X38830000Y-134615000D02*
X39560000Y-134615000D01*
X39560000Y-130515000D02*
X39560000Y-130845000D01*
X38830000Y-130515000D02*
X39560000Y-130515000D01*
X38830000Y-135065000D02*
X37250000Y-135065000D01*
X38830000Y-134615000D02*
X38830000Y-135065000D01*
X38830000Y-134285000D02*
X38830000Y-134615000D01*
X35730000Y-130765000D02*
X35730000Y-134365000D01*
X38830000Y-130065000D02*
X37250000Y-130065000D01*
X38830000Y-130515000D02*
X38830000Y-130065000D01*
X38830000Y-130845000D02*
X38830000Y-130515000D01*
D12*
%TO.C,J6*%
X102900000Y-112300000D02*
G75*
G03*
X102900000Y-112300000I-100000J0D01*
G01*
D16*
X87900000Y-116900000D02*
X87900000Y-114700000D01*
X87900000Y-107300000D02*
X87900000Y-112500000D01*
X101000000Y-107300000D02*
X87900000Y-107300000D01*
X103100000Y-109800000D02*
X103100000Y-108800000D01*
X102100000Y-109800000D02*
X103100000Y-109800000D01*
X102100000Y-119700000D02*
X102100000Y-109800000D01*
X87900000Y-121300000D02*
X100100000Y-121300000D01*
X87900000Y-120300000D02*
X87900000Y-121300000D01*
D10*
%TO.C,U6*%
X88820000Y-130840000D02*
G75*
G03*
X88820000Y-130840000I-50000J0D01*
G01*
X89130000Y-128730000D02*
X88605000Y-128730000D01*
X87320000Y-130550000D02*
X86795000Y-130550000D01*
X86810000Y-128730000D02*
X87335000Y-128730000D01*
%TO.C,SW3*%
X61960000Y-110200000D02*
X66360000Y-110200000D01*
X66360000Y-110200000D02*
X66360000Y-110080000D01*
X66360000Y-109070000D02*
X66360000Y-107930000D01*
X66360000Y-106920000D02*
X66360000Y-106800000D01*
X66360000Y-106800000D02*
X61960000Y-106800000D01*
X61960000Y-106800000D02*
X61960000Y-106920000D01*
X61960000Y-107930000D02*
X61960000Y-109070000D01*
X61960000Y-110080000D02*
X61960000Y-110200000D01*
%TO.C,SW7*%
X39100000Y-127200000D02*
X39100000Y-122800000D01*
X39100000Y-122800000D02*
X38980000Y-122800000D01*
X37970000Y-122800000D02*
X36830000Y-122800000D01*
X35820000Y-122800000D02*
X35700000Y-122800000D01*
X35700000Y-122800000D02*
X35700000Y-127200000D01*
X35700000Y-127200000D02*
X35820000Y-127200000D01*
X36830000Y-127200000D02*
X37970000Y-127200000D01*
X38980000Y-127200000D02*
X39100000Y-127200000D01*
%TO.C,SW4*%
X35700000Y-138310000D02*
X35700000Y-142710000D01*
X35700000Y-142710000D02*
X35820000Y-142710000D01*
X36830000Y-142710000D02*
X37970000Y-142710000D01*
X38980000Y-142710000D02*
X39100000Y-142710000D01*
X39100000Y-142710000D02*
X39100000Y-138310000D01*
X39100000Y-138310000D02*
X38980000Y-138310000D01*
X37970000Y-138310000D02*
X36830000Y-138310000D01*
X35820000Y-138310000D02*
X35700000Y-138310000D01*
%TO.C,SW2*%
X75360000Y-106800000D02*
X70960000Y-106800000D01*
X70960000Y-106800000D02*
X70960000Y-106920000D01*
X70960000Y-107930000D02*
X70960000Y-109070000D01*
X70960000Y-110080000D02*
X70960000Y-110200000D01*
X70960000Y-110200000D02*
X75360000Y-110200000D01*
X75360000Y-110200000D02*
X75360000Y-110080000D01*
X75360000Y-109070000D02*
X75360000Y-107930000D01*
X75360000Y-106920000D02*
X75360000Y-106800000D01*
%TO.C,SW1*%
X35700000Y-107300000D02*
X35700000Y-111700000D01*
X35700000Y-111700000D02*
X35820000Y-111700000D01*
X36830000Y-111700000D02*
X37970000Y-111700000D01*
X38980000Y-111700000D02*
X39100000Y-111700000D01*
X39100000Y-111700000D02*
X39100000Y-107300000D01*
X39100000Y-107300000D02*
X38980000Y-107300000D01*
X37970000Y-107300000D02*
X36830000Y-107300000D01*
X35820000Y-107300000D02*
X35700000Y-107300000D01*
%TO.C,U18*%
X52300000Y-109015000D02*
X52975000Y-109015000D01*
X52975000Y-109015000D02*
X52975000Y-109190000D01*
X52300000Y-112235000D02*
X52975000Y-112235000D01*
X52975000Y-112235000D02*
X52975000Y-112060000D01*
X50430000Y-112235000D02*
X49755000Y-112235000D01*
X49755000Y-112235000D02*
X49755000Y-112060000D01*
%TO.C,U5*%
X51515000Y-115670000D02*
X47040000Y-115670000D01*
X51515000Y-115670000D02*
X54140000Y-115670000D01*
X51515000Y-121130000D02*
X48890000Y-121130000D01*
X51515000Y-121130000D02*
X54140000Y-121130000D01*
%TO.C,U14*%
X62635000Y-136995000D02*
X62635000Y-136645000D01*
X62635000Y-136645000D02*
X62985000Y-136645000D01*
X59335000Y-136995000D02*
X59335000Y-136645000D01*
X59335000Y-136645000D02*
X58985000Y-136645000D01*
X59335000Y-132995000D02*
X59335000Y-133345000D01*
X59335000Y-133345000D02*
X58985000Y-133345000D01*
X62635000Y-132995000D02*
X62635000Y-132995000D01*
%TO.C,C50*%
X51517779Y-107430000D02*
X51192221Y-107430000D01*
X51517779Y-106410000D02*
X51192221Y-106410000D01*
%TO.C,R33*%
X40857221Y-128020000D02*
X41182779Y-128020000D01*
X40857221Y-127000000D02*
X41182779Y-127000000D01*
%TO.C,R18*%
X42810000Y-125162779D02*
X42810000Y-124837221D01*
X41790000Y-125162779D02*
X41790000Y-124837221D01*
%TO.C,D5*%
X39535000Y-124020000D02*
X39535000Y-126705000D01*
X39535000Y-126705000D02*
X41455000Y-126705000D01*
X41455000Y-126705000D02*
X41455000Y-124020000D01*
%TO.C,J2*%
X84065000Y-113685000D02*
X80535000Y-113685000D01*
X84065000Y-107215000D02*
X80535000Y-107215000D01*
X85390000Y-113620000D02*
X84065000Y-113620000D01*
X84065000Y-113685000D02*
X84065000Y-113620000D01*
X80535000Y-113685000D02*
X80535000Y-113620000D01*
X84065000Y-107280000D02*
X84065000Y-107215000D01*
X80535000Y-107280000D02*
X80535000Y-107215000D01*
%TO.C,R55*%
X86000000Y-117085279D02*
X86000000Y-116759721D01*
X87020000Y-117085279D02*
X87020000Y-116759721D01*
%TO.C,C31*%
X92091422Y-140365000D02*
X92608578Y-140365000D01*
X92091422Y-141785000D02*
X92608578Y-141785000D01*
%TO.C,C8*%
X58030000Y-126941422D02*
X58030000Y-127458578D01*
X59450000Y-126941422D02*
X59450000Y-127458578D01*
%TO.C,C45*%
X92393578Y-146075000D02*
X91876422Y-146075000D01*
X92393578Y-147495000D02*
X91876422Y-147495000D01*
%TO.C,C29*%
X45808578Y-150680000D02*
X45291422Y-150680000D01*
X45808578Y-149260000D02*
X45291422Y-149260000D01*
%TO.C,D10*%
X39535000Y-138845000D02*
X39535000Y-141530000D01*
X41455000Y-138845000D02*
X39535000Y-138845000D01*
X41455000Y-141530000D02*
X41455000Y-138845000D01*
%TO.C,D8*%
X39535000Y-108480000D02*
X39535000Y-111165000D01*
X39535000Y-111165000D02*
X41455000Y-111165000D01*
X41455000Y-111165000D02*
X41455000Y-108480000D01*
%TO.C,U9*%
X46575000Y-146535000D02*
X46575000Y-145985000D01*
X50975000Y-146535000D02*
X50975000Y-145985000D01*
X50425000Y-146535000D02*
X50975000Y-146535000D01*
X46575000Y-142135000D02*
X46575000Y-142685000D01*
X47125000Y-142135000D02*
X46575000Y-142135000D01*
X50975000Y-142135000D02*
X50425000Y-142135000D01*
X50975000Y-142685000D02*
X50975000Y-142135000D01*
%TO.C,U3*%
X55374000Y-126232000D02*
X55374000Y-128232000D01*
X57594000Y-127232000D02*
X57594000Y-128232000D01*
%TO.C,R37*%
X52860000Y-126342779D02*
X52860000Y-126017221D01*
X53880000Y-126342779D02*
X53880000Y-126017221D01*
%TO.C,R6*%
X40832779Y-153720000D02*
X40507221Y-153720000D01*
X40832779Y-154740000D02*
X40507221Y-154740000D01*
%TO.C,R2*%
X40832779Y-116550000D02*
X40507221Y-116550000D01*
X40832779Y-117570000D02*
X40507221Y-117570000D01*
%TO.C,D11*%
X62925000Y-147410000D02*
X62925000Y-143510000D01*
X64925000Y-147410000D02*
X64925000Y-143510000D01*
X62925000Y-147410000D02*
X64925000Y-147410000D01*
%TO.C,D6*%
X48500000Y-129750000D02*
X44600000Y-129750000D01*
X48500000Y-127750000D02*
X44600000Y-127750000D01*
X48500000Y-129750000D02*
X48500000Y-127750000D01*
%TO.C,D3*%
X35819000Y-155150000D02*
X38504000Y-155150000D01*
X35819000Y-153230000D02*
X35819000Y-155150000D01*
X38504000Y-153230000D02*
X35819000Y-153230000D01*
%TO.C,D2*%
X35819000Y-118010000D02*
X38504000Y-118010000D01*
X35819000Y-116090000D02*
X35819000Y-118010000D01*
X38504000Y-116090000D02*
X35819000Y-116090000D01*
%TO.C,R20*%
X58762779Y-150570000D02*
X58437221Y-150570000D01*
X58762779Y-149550000D02*
X58437221Y-149550000D01*
%TO.C,R87*%
X40832779Y-152640000D02*
X40507221Y-152640000D01*
X40832779Y-151620000D02*
X40507221Y-151620000D01*
%TO.C,R49*%
X57080000Y-135287221D02*
X57080000Y-135612779D01*
X56060000Y-135287221D02*
X56060000Y-135612779D01*
%TO.C,R48*%
X40847221Y-137540000D02*
X41172779Y-137540000D01*
X40847221Y-138560000D02*
X41172779Y-138560000D01*
%TO.C,R47*%
X61537779Y-140495000D02*
X61212221Y-140495000D01*
X61537779Y-139475000D02*
X61212221Y-139475000D01*
%TO.C,R43*%
X50040000Y-148857221D02*
X50040000Y-149182779D01*
X49020000Y-148857221D02*
X49020000Y-149182779D01*
%TO.C,R42*%
X42570000Y-132092779D02*
X42570000Y-131767221D01*
X43590000Y-132092779D02*
X43590000Y-131767221D01*
%TO.C,R41*%
X48560000Y-148857221D02*
X48560000Y-149182779D01*
X47540000Y-148857221D02*
X47540000Y-149182779D01*
%TO.C,R40*%
X40857221Y-111450000D02*
X41182779Y-111450000D01*
X40857221Y-112470000D02*
X41182779Y-112470000D01*
%TO.C,R39*%
X55190000Y-142212779D02*
X55190000Y-141887221D01*
X56210000Y-142212779D02*
X56210000Y-141887221D01*
%TO.C,R38*%
X55190000Y-145242779D02*
X55190000Y-144917221D01*
X56210000Y-145242779D02*
X56210000Y-144917221D01*
%TO.C,R36*%
X94285000Y-146712221D02*
X94285000Y-147037779D01*
X95305000Y-146712221D02*
X95305000Y-147037779D01*
%TO.C,R35*%
X94285000Y-143687221D02*
X94285000Y-144012779D01*
X95305000Y-143687221D02*
X95305000Y-144012779D01*
%TO.C,R29*%
X54425279Y-134805000D02*
X54099721Y-134805000D01*
X54425279Y-133785000D02*
X54099721Y-133785000D01*
%TO.C,R28*%
X54412779Y-136705000D02*
X54087221Y-136705000D01*
X54412779Y-135685000D02*
X54087221Y-135685000D01*
%TO.C,R27*%
X51980000Y-148877221D02*
X51980000Y-149202779D01*
X50960000Y-148877221D02*
X50960000Y-149202779D01*
%TO.C,R26*%
X53620000Y-148877221D02*
X53620000Y-149202779D01*
X52600000Y-148877221D02*
X52600000Y-149202779D01*
%TO.C,R25*%
X67356666Y-108952779D02*
X67356666Y-108627221D01*
X68376666Y-108952779D02*
X68376666Y-108627221D01*
%TO.C,R19*%
X42910000Y-140347221D02*
X42910000Y-140672779D01*
X41890000Y-140347221D02*
X41890000Y-140672779D01*
%TO.C,R11*%
X41765000Y-109662779D02*
X41765000Y-109337221D01*
X42785000Y-109662779D02*
X42785000Y-109337221D01*
%TO.C,R9*%
X40832779Y-115520000D02*
X40507221Y-115520000D01*
X40832779Y-114500000D02*
X40507221Y-114500000D01*
%TO.C,R8*%
X40822779Y-156780000D02*
X40497221Y-156780000D01*
X40822779Y-155760000D02*
X40497221Y-155760000D01*
%TO.C,R5*%
X53880000Y-129392779D02*
X53880000Y-129067221D01*
X52860000Y-129392779D02*
X52860000Y-129067221D01*
%TO.C,R4*%
X68943332Y-108952779D02*
X68943332Y-108627221D01*
X69963332Y-108952779D02*
X69963332Y-108627221D01*
%TO.C,L10*%
X57740000Y-141150000D02*
X57740000Y-142175000D01*
X57740000Y-141150000D02*
X58765000Y-141150000D01*
X62510000Y-141150000D02*
X61485000Y-141150000D01*
X62510000Y-141150000D02*
X62510000Y-142175000D01*
X62510000Y-145370000D02*
X62510000Y-144345000D01*
X57740000Y-145370000D02*
X57740000Y-144345000D01*
X62510000Y-145370000D02*
X61485000Y-145370000D01*
X57740000Y-145370000D02*
X58765000Y-145370000D01*
%TO.C,J1*%
X52910000Y-155540000D02*
X52530000Y-155540000D01*
X52910000Y-159590000D02*
X52910000Y-159850000D01*
X52910000Y-155540000D02*
X52910000Y-157310000D01*
X45290000Y-155540000D02*
X45670000Y-155540000D01*
X45290000Y-157310000D02*
X45290000Y-155540000D01*
X45290000Y-159850000D02*
X45290000Y-159590000D01*
D15*
%TO.C,U12*%
X61525000Y-148210000D02*
X61525000Y-146760000D01*
X59325000Y-148935000D02*
X59325000Y-146760000D01*
D10*
%TO.C,U10*%
X54375000Y-139885000D02*
X54375000Y-137885000D01*
X52155000Y-138885000D02*
X52155000Y-137885000D01*
%TO.C,U8*%
X93035000Y-142275000D02*
X90585000Y-142275000D01*
X91235000Y-145495000D02*
X93035000Y-145495000D01*
%TO.C,L4*%
X47211000Y-138997000D02*
X47911000Y-138997000D01*
X47211000Y-141197000D02*
X47911000Y-141197000D01*
%TO.C,L3*%
X48200000Y-126050000D02*
X48200000Y-125350000D01*
X46000000Y-126050000D02*
X46000000Y-125350000D01*
%TO.C,L2*%
X92450000Y-137425000D02*
X91750000Y-137425000D01*
X92450000Y-139625000D02*
X91750000Y-139625000D01*
%TO.C,L1*%
X90500000Y-129590000D02*
X90500000Y-128890000D01*
X92700000Y-129590000D02*
X92700000Y-128890000D01*
%TO.C,C37*%
X57815000Y-147272779D02*
X57815000Y-146947221D01*
X58835000Y-147272779D02*
X58835000Y-146947221D01*
%TO.C,C36*%
X49740000Y-140153578D02*
X49740000Y-139636422D01*
X51160000Y-140153578D02*
X51160000Y-139636422D01*
%TO.C,C35*%
X49191422Y-136389000D02*
X49708578Y-136389000D01*
X49191422Y-137809000D02*
X49708578Y-137809000D01*
%TO.C,C34*%
X44238578Y-145210000D02*
X43721422Y-145210000D01*
X44238578Y-143790000D02*
X43721422Y-143790000D01*
%TO.C,C32*%
X44238578Y-147120000D02*
X43721422Y-147120000D01*
X44238578Y-145700000D02*
X43721422Y-145700000D01*
%TO.C,C15*%
X88421078Y-127360000D02*
X87903922Y-127360000D01*
X88421078Y-125940000D02*
X87903922Y-125940000D01*
%TO.C,C14*%
X83917221Y-114670000D02*
X84242779Y-114670000D01*
X83917221Y-115690000D02*
X84242779Y-115690000D01*
%TO.C,C12*%
X83917221Y-116130000D02*
X84242779Y-116130000D01*
X83917221Y-117150000D02*
X84242779Y-117150000D01*
%TO.C,C9*%
X89198578Y-133390000D02*
X88681422Y-133390000D01*
X89198578Y-131970000D02*
X88681422Y-131970000D01*
%TO.C,C5*%
X85000000Y-134427221D02*
X85000000Y-134752779D01*
X83980000Y-134427221D02*
X83980000Y-134752779D01*
%TO.C,C4*%
X86460000Y-134427221D02*
X86460000Y-134752779D01*
X85440000Y-134427221D02*
X85440000Y-134752779D01*
%TO.C,C20*%
X66075279Y-158020000D02*
X65749721Y-158020000D01*
X66075279Y-157000000D02*
X65749721Y-157000000D01*
%TO.C,C13*%
X50336422Y-125404000D02*
X50853578Y-125404000D01*
X50336422Y-123984000D02*
X50853578Y-123984000D01*
%TO.C,C7*%
X50461422Y-131504000D02*
X50978578Y-131504000D01*
X50461422Y-130084000D02*
X50978578Y-130084000D01*
%TO.C,U4*%
X52305000Y-128719000D02*
X52305000Y-126269000D01*
X49085000Y-126919000D02*
X49085000Y-128719000D01*
%TO.C,U2*%
X72985000Y-144060000D02*
X71485000Y-144060000D01*
X71485000Y-144060000D02*
X71485000Y-142060000D01*
X72985000Y-144060000D02*
X71485000Y-144060000D01*
X71485000Y-144060000D02*
X71485000Y-142060000D01*
X72985000Y-135820000D02*
X71485000Y-135820000D01*
X71485000Y-135820000D02*
X71485000Y-137820000D01*
X72985000Y-144060000D02*
X71485000Y-144060000D01*
X71485000Y-144060000D02*
X71485000Y-142060000D01*
X76225000Y-135820000D02*
X77725000Y-135820000D01*
X77725000Y-135820000D02*
X77725000Y-137820000D01*
X76225000Y-144060000D02*
X76605000Y-144060000D01*
X76605000Y-144060000D02*
X77725000Y-142940000D01*
X77725000Y-142940000D02*
X77725000Y-142060000D01*
D14*
X77705000Y-143940000D02*
G75*
G03*
X77705000Y-143940000I-100000J0D01*
G01*
D10*
%TO.C,RN4*%
X82060000Y-157725000D02*
X82060000Y-158225000D01*
X84340000Y-157725000D02*
X84340000Y-158225000D01*
%TO.C,RN3*%
X77560000Y-157725000D02*
X77560000Y-158225000D01*
X79840000Y-157725000D02*
X79840000Y-158225000D01*
%TO.C,RN2*%
X73560000Y-157750000D02*
X73560000Y-158250000D01*
X75840000Y-157750000D02*
X75840000Y-158250000D01*
%TO.C,RN1*%
X69560000Y-157750000D02*
X69560000Y-158250000D01*
X71840000Y-157750000D02*
X71840000Y-158250000D01*
%TO.C,D7*%
X38504000Y-151180000D02*
X35819000Y-151180000D01*
X35819000Y-151180000D02*
X35819000Y-153100000D01*
X35819000Y-153100000D02*
X38504000Y-153100000D01*
%TO.C,D4*%
X38494000Y-155280000D02*
X35809000Y-155280000D01*
X35809000Y-155280000D02*
X35809000Y-157200000D01*
X35809000Y-157200000D02*
X38494000Y-157200000D01*
%TO.C,D1*%
X38504000Y-114040000D02*
X35819000Y-114040000D01*
X35819000Y-114040000D02*
X35819000Y-115960000D01*
X35819000Y-115960000D02*
X38504000Y-115960000D01*
%TO.C,C52*%
X63112221Y-147875000D02*
X63437779Y-147875000D01*
X63112221Y-148895000D02*
X63437779Y-148895000D01*
%TO.C,C27*%
X45862779Y-148740000D02*
X45537221Y-148740000D01*
X45862779Y-147720000D02*
X45537221Y-147720000D01*
%TO.C,C10*%
X56887779Y-125275000D02*
X56562221Y-125275000D01*
X56887779Y-124255000D02*
X56562221Y-124255000D01*
%TO.C,U7*%
D19*
X99370812Y-153110399D02*
X99760026Y-153110399D01*
X99805816Y-153087504D01*
X99828711Y-153064609D01*
X99851606Y-153018819D01*
X99851606Y-152927239D01*
X99828711Y-152881449D01*
X99805816Y-152858554D01*
X99760026Y-152835659D01*
X99370812Y-152835659D01*
X99370812Y-152652500D02*
X99370812Y-152331970D01*
X99851606Y-152538025D01*
%TO.C,R31*%
D20*
X90609285Y-158489285D02*
X90252142Y-158755952D01*
X90609285Y-158946428D02*
X89859285Y-158946428D01*
X89859285Y-158641666D01*
X89895000Y-158565476D01*
X89930714Y-158527380D01*
X90002142Y-158489285D01*
X90109285Y-158489285D01*
X90180714Y-158527380D01*
X90216428Y-158565476D01*
X90252142Y-158641666D01*
X90252142Y-158946428D01*
X89859285Y-158222619D02*
X89859285Y-157727380D01*
X90145000Y-157994047D01*
X90145000Y-157879761D01*
X90180714Y-157803571D01*
X90216428Y-157765476D01*
X90287857Y-157727380D01*
X90466428Y-157727380D01*
X90537857Y-157765476D01*
X90573571Y-157803571D01*
X90609285Y-157879761D01*
X90609285Y-158108333D01*
X90573571Y-158184523D01*
X90537857Y-158222619D01*
X90609285Y-156965476D02*
X90609285Y-157422619D01*
X90609285Y-157194047D02*
X89859285Y-157194047D01*
X89966428Y-157270238D01*
X90037857Y-157346428D01*
X90073571Y-157422619D01*
%TO.C,R17*%
X61285714Y-132039285D02*
X61019047Y-131682142D01*
X60828571Y-132039285D02*
X60828571Y-131289285D01*
X61133333Y-131289285D01*
X61209523Y-131325000D01*
X61247619Y-131360714D01*
X61285714Y-131432142D01*
X61285714Y-131539285D01*
X61247619Y-131610714D01*
X61209523Y-131646428D01*
X61133333Y-131682142D01*
X60828571Y-131682142D01*
X62047619Y-132039285D02*
X61590476Y-132039285D01*
X61819047Y-132039285D02*
X61819047Y-131289285D01*
X61742857Y-131396428D01*
X61666666Y-131467857D01*
X61590476Y-131503571D01*
X62314285Y-131289285D02*
X62847619Y-131289285D01*
X62504761Y-132039285D01*
%TO.C,R16*%
X53385714Y-133239285D02*
X53119047Y-132882142D01*
X52928571Y-133239285D02*
X52928571Y-132489285D01*
X53233333Y-132489285D01*
X53309523Y-132525000D01*
X53347619Y-132560714D01*
X53385714Y-132632142D01*
X53385714Y-132739285D01*
X53347619Y-132810714D01*
X53309523Y-132846428D01*
X53233333Y-132882142D01*
X52928571Y-132882142D01*
X54147619Y-133239285D02*
X53690476Y-133239285D01*
X53919047Y-133239285D02*
X53919047Y-132489285D01*
X53842857Y-132596428D01*
X53766666Y-132667857D01*
X53690476Y-132703571D01*
X54833333Y-132489285D02*
X54680952Y-132489285D01*
X54604761Y-132525000D01*
X54566666Y-132560714D01*
X54490476Y-132667857D01*
X54452380Y-132810714D01*
X54452380Y-133096428D01*
X54490476Y-133167857D01*
X54528571Y-133203571D01*
X54604761Y-133239285D01*
X54757142Y-133239285D01*
X54833333Y-133203571D01*
X54871428Y-133167857D01*
X54909523Y-133096428D01*
X54909523Y-132917857D01*
X54871428Y-132846428D01*
X54833333Y-132810714D01*
X54757142Y-132775000D01*
X54604761Y-132775000D01*
X54528571Y-132810714D01*
X54490476Y-132846428D01*
X54452380Y-132917857D01*
%TO.C,R10*%
X86095714Y-138799285D02*
X85829047Y-138442142D01*
X85638571Y-138799285D02*
X85638571Y-138049285D01*
X85943333Y-138049285D01*
X86019523Y-138085000D01*
X86057619Y-138120714D01*
X86095714Y-138192142D01*
X86095714Y-138299285D01*
X86057619Y-138370714D01*
X86019523Y-138406428D01*
X85943333Y-138442142D01*
X85638571Y-138442142D01*
X86857619Y-138799285D02*
X86400476Y-138799285D01*
X86629047Y-138799285D02*
X86629047Y-138049285D01*
X86552857Y-138156428D01*
X86476666Y-138227857D01*
X86400476Y-138263571D01*
X87352857Y-138049285D02*
X87429047Y-138049285D01*
X87505238Y-138085000D01*
X87543333Y-138120714D01*
X87581428Y-138192142D01*
X87619523Y-138335000D01*
X87619523Y-138513571D01*
X87581428Y-138656428D01*
X87543333Y-138727857D01*
X87505238Y-138763571D01*
X87429047Y-138799285D01*
X87352857Y-138799285D01*
X87276666Y-138763571D01*
X87238571Y-138727857D01*
X87200476Y-138656428D01*
X87162380Y-138513571D01*
X87162380Y-138335000D01*
X87200476Y-138192142D01*
X87238571Y-138120714D01*
X87276666Y-138085000D01*
X87352857Y-138049285D01*
%TO.C,L5*%
X57716666Y-96379285D02*
X57335714Y-96379285D01*
X57335714Y-95629285D01*
X58364285Y-95629285D02*
X57983333Y-95629285D01*
X57945238Y-95986428D01*
X57983333Y-95950714D01*
X58059523Y-95915000D01*
X58250000Y-95915000D01*
X58326190Y-95950714D01*
X58364285Y-95986428D01*
X58402380Y-96057857D01*
X58402380Y-96236428D01*
X58364285Y-96307857D01*
X58326190Y-96343571D01*
X58250000Y-96379285D01*
X58059523Y-96379285D01*
X57983333Y-96343571D01*
X57945238Y-96307857D01*
%TO.C,R44*%
X61005714Y-101599285D02*
X60739047Y-101242142D01*
X60548571Y-101599285D02*
X60548571Y-100849285D01*
X60853333Y-100849285D01*
X60929523Y-100885000D01*
X60967619Y-100920714D01*
X61005714Y-100992142D01*
X61005714Y-101099285D01*
X60967619Y-101170714D01*
X60929523Y-101206428D01*
X60853333Y-101242142D01*
X60548571Y-101242142D01*
X61691428Y-101099285D02*
X61691428Y-101599285D01*
X61500952Y-100813571D02*
X61310476Y-101349285D01*
X61805714Y-101349285D01*
X62453333Y-101099285D02*
X62453333Y-101599285D01*
X62262857Y-100813571D02*
X62072380Y-101349285D01*
X62567619Y-101349285D01*
%TO.C,Q1*%
X58923809Y-101640714D02*
X58847619Y-101605000D01*
X58771428Y-101533571D01*
X58657142Y-101426428D01*
X58580952Y-101390714D01*
X58504761Y-101390714D01*
X58542857Y-101569285D02*
X58466666Y-101533571D01*
X58390476Y-101462142D01*
X58352380Y-101319285D01*
X58352380Y-101069285D01*
X58390476Y-100926428D01*
X58466666Y-100855000D01*
X58542857Y-100819285D01*
X58695238Y-100819285D01*
X58771428Y-100855000D01*
X58847619Y-100926428D01*
X58885714Y-101069285D01*
X58885714Y-101319285D01*
X58847619Y-101462142D01*
X58771428Y-101533571D01*
X58695238Y-101569285D01*
X58542857Y-101569285D01*
X59647619Y-101569285D02*
X59190476Y-101569285D01*
X59419047Y-101569285D02*
X59419047Y-100819285D01*
X59342857Y-100926428D01*
X59266666Y-100997857D01*
X59190476Y-101033571D01*
%TO.C,R1*%
X56656666Y-101549285D02*
X56390000Y-101192142D01*
X56199523Y-101549285D02*
X56199523Y-100799285D01*
X56504285Y-100799285D01*
X56580476Y-100835000D01*
X56618571Y-100870714D01*
X56656666Y-100942142D01*
X56656666Y-101049285D01*
X56618571Y-101120714D01*
X56580476Y-101156428D01*
X56504285Y-101192142D01*
X56199523Y-101192142D01*
X57418571Y-101549285D02*
X56961428Y-101549285D01*
X57190000Y-101549285D02*
X57190000Y-100799285D01*
X57113809Y-100906428D01*
X57037619Y-100977857D01*
X56961428Y-101013571D01*
%TO.C,AE1*%
X54816666Y-99125000D02*
X55197619Y-99125000D01*
X54740476Y-99339285D02*
X55007142Y-98589285D01*
X55273809Y-99339285D01*
X55540476Y-98946428D02*
X55807142Y-98946428D01*
X55921428Y-99339285D02*
X55540476Y-99339285D01*
X55540476Y-98589285D01*
X55921428Y-98589285D01*
X56683333Y-99339285D02*
X56226190Y-99339285D01*
X56454761Y-99339285D02*
X56454761Y-98589285D01*
X56378571Y-98696428D01*
X56302380Y-98767857D01*
X56226190Y-98803571D01*
%TO.C,D12*%
X96778571Y-142589285D02*
X96778571Y-141839285D01*
X96969047Y-141839285D01*
X97083333Y-141875000D01*
X97159523Y-141946428D01*
X97197619Y-142017857D01*
X97235714Y-142160714D01*
X97235714Y-142267857D01*
X97197619Y-142410714D01*
X97159523Y-142482142D01*
X97083333Y-142553571D01*
X96969047Y-142589285D01*
X96778571Y-142589285D01*
X97997619Y-142589285D02*
X97540476Y-142589285D01*
X97769047Y-142589285D02*
X97769047Y-141839285D01*
X97692857Y-141946428D01*
X97616666Y-142017857D01*
X97540476Y-142053571D01*
X98302380Y-141910714D02*
X98340476Y-141875000D01*
X98416666Y-141839285D01*
X98607142Y-141839285D01*
X98683333Y-141875000D01*
X98721428Y-141910714D01*
X98759523Y-141982142D01*
X98759523Y-142053571D01*
X98721428Y-142160714D01*
X98264285Y-142589285D01*
X98759523Y-142589285D01*
%TO.C,R7*%
X95624666Y-135975285D02*
X95358000Y-135618142D01*
X95167523Y-135975285D02*
X95167523Y-135225285D01*
X95472285Y-135225285D01*
X95548476Y-135261000D01*
X95586571Y-135296714D01*
X95624666Y-135368142D01*
X95624666Y-135475285D01*
X95586571Y-135546714D01*
X95548476Y-135582428D01*
X95472285Y-135618142D01*
X95167523Y-135618142D01*
X95891333Y-135225285D02*
X96424666Y-135225285D01*
X96081809Y-135975285D01*
%TO.C,Q2*%
X89873809Y-136270714D02*
X89797619Y-136235000D01*
X89721428Y-136163571D01*
X89607142Y-136056428D01*
X89530952Y-136020714D01*
X89454761Y-136020714D01*
X89492857Y-136199285D02*
X89416666Y-136163571D01*
X89340476Y-136092142D01*
X89302380Y-135949285D01*
X89302380Y-135699285D01*
X89340476Y-135556428D01*
X89416666Y-135485000D01*
X89492857Y-135449285D01*
X89645238Y-135449285D01*
X89721428Y-135485000D01*
X89797619Y-135556428D01*
X89835714Y-135699285D01*
X89835714Y-135949285D01*
X89797619Y-136092142D01*
X89721428Y-136163571D01*
X89645238Y-136199285D01*
X89492857Y-136199285D01*
X90140476Y-135520714D02*
X90178571Y-135485000D01*
X90254761Y-135449285D01*
X90445238Y-135449285D01*
X90521428Y-135485000D01*
X90559523Y-135520714D01*
X90597619Y-135592142D01*
X90597619Y-135663571D01*
X90559523Y-135770714D01*
X90102380Y-136199285D01*
X90597619Y-136199285D01*
%TO.C,J4*%
X98893333Y-135139285D02*
X98893333Y-135675000D01*
X98855238Y-135782142D01*
X98779047Y-135853571D01*
X98664761Y-135889285D01*
X98588571Y-135889285D01*
X99617142Y-135389285D02*
X99617142Y-135889285D01*
X99426666Y-135103571D02*
X99236190Y-135639285D01*
X99731428Y-135639285D01*
%TO.C,R21*%
X95751714Y-137245285D02*
X95485047Y-136888142D01*
X95294571Y-137245285D02*
X95294571Y-136495285D01*
X95599333Y-136495285D01*
X95675523Y-136531000D01*
X95713619Y-136566714D01*
X95751714Y-136638142D01*
X95751714Y-136745285D01*
X95713619Y-136816714D01*
X95675523Y-136852428D01*
X95599333Y-136888142D01*
X95294571Y-136888142D01*
X96056476Y-136566714D02*
X96094571Y-136531000D01*
X96170761Y-136495285D01*
X96361238Y-136495285D01*
X96437428Y-136531000D01*
X96475523Y-136566714D01*
X96513619Y-136638142D01*
X96513619Y-136709571D01*
X96475523Y-136816714D01*
X96018380Y-137245285D01*
X96513619Y-137245285D01*
X97275523Y-137245285D02*
X96818380Y-137245285D01*
X97046952Y-137245285D02*
X97046952Y-136495285D01*
X96970761Y-136602428D01*
X96894571Y-136673857D01*
X96818380Y-136709571D01*
%TO.C,SW5*%
X94183333Y-140003571D02*
X94297619Y-140039285D01*
X94488095Y-140039285D01*
X94564285Y-140003571D01*
X94602380Y-139967857D01*
X94640476Y-139896428D01*
X94640476Y-139825000D01*
X94602380Y-139753571D01*
X94564285Y-139717857D01*
X94488095Y-139682142D01*
X94335714Y-139646428D01*
X94259523Y-139610714D01*
X94221428Y-139575000D01*
X94183333Y-139503571D01*
X94183333Y-139432142D01*
X94221428Y-139360714D01*
X94259523Y-139325000D01*
X94335714Y-139289285D01*
X94526190Y-139289285D01*
X94640476Y-139325000D01*
X94907142Y-139289285D02*
X95097619Y-140039285D01*
X95250000Y-139503571D01*
X95402380Y-140039285D01*
X95592857Y-139289285D01*
X96278571Y-139289285D02*
X95897619Y-139289285D01*
X95859523Y-139646428D01*
X95897619Y-139610714D01*
X95973809Y-139575000D01*
X96164285Y-139575000D01*
X96240476Y-139610714D01*
X96278571Y-139646428D01*
X96316666Y-139717857D01*
X96316666Y-139896428D01*
X96278571Y-139967857D01*
X96240476Y-140003571D01*
X96164285Y-140039285D01*
X95973809Y-140039285D01*
X95897619Y-140003571D01*
X95859523Y-139967857D01*
%TO.C,R22*%
X94735714Y-142071285D02*
X94469047Y-141714142D01*
X94278571Y-142071285D02*
X94278571Y-141321285D01*
X94583333Y-141321285D01*
X94659523Y-141357000D01*
X94697619Y-141392714D01*
X94735714Y-141464142D01*
X94735714Y-141571285D01*
X94697619Y-141642714D01*
X94659523Y-141678428D01*
X94583333Y-141714142D01*
X94278571Y-141714142D01*
X95040476Y-141392714D02*
X95078571Y-141357000D01*
X95154761Y-141321285D01*
X95345238Y-141321285D01*
X95421428Y-141357000D01*
X95459523Y-141392714D01*
X95497619Y-141464142D01*
X95497619Y-141535571D01*
X95459523Y-141642714D01*
X95002380Y-142071285D01*
X95497619Y-142071285D01*
X95802380Y-141392714D02*
X95840476Y-141357000D01*
X95916666Y-141321285D01*
X96107142Y-141321285D01*
X96183333Y-141357000D01*
X96221428Y-141392714D01*
X96259523Y-141464142D01*
X96259523Y-141535571D01*
X96221428Y-141642714D01*
X95764285Y-142071285D01*
X96259523Y-142071285D01*
%TO.C,C28*%
X89401714Y-150889857D02*
X89363619Y-150925571D01*
X89249333Y-150961285D01*
X89173142Y-150961285D01*
X89058857Y-150925571D01*
X88982666Y-150854142D01*
X88944571Y-150782714D01*
X88906476Y-150639857D01*
X88906476Y-150532714D01*
X88944571Y-150389857D01*
X88982666Y-150318428D01*
X89058857Y-150247000D01*
X89173142Y-150211285D01*
X89249333Y-150211285D01*
X89363619Y-150247000D01*
X89401714Y-150282714D01*
X89706476Y-150282714D02*
X89744571Y-150247000D01*
X89820761Y-150211285D01*
X90011238Y-150211285D01*
X90087428Y-150247000D01*
X90125523Y-150282714D01*
X90163619Y-150354142D01*
X90163619Y-150425571D01*
X90125523Y-150532714D01*
X89668380Y-150961285D01*
X90163619Y-150961285D01*
X90620761Y-150532714D02*
X90544571Y-150497000D01*
X90506476Y-150461285D01*
X90468380Y-150389857D01*
X90468380Y-150354142D01*
X90506476Y-150282714D01*
X90544571Y-150247000D01*
X90620761Y-150211285D01*
X90773142Y-150211285D01*
X90849333Y-150247000D01*
X90887428Y-150282714D01*
X90925523Y-150354142D01*
X90925523Y-150389857D01*
X90887428Y-150461285D01*
X90849333Y-150497000D01*
X90773142Y-150532714D01*
X90620761Y-150532714D01*
X90544571Y-150568428D01*
X90506476Y-150604142D01*
X90468380Y-150675571D01*
X90468380Y-150818428D01*
X90506476Y-150889857D01*
X90544571Y-150925571D01*
X90620761Y-150961285D01*
X90773142Y-150961285D01*
X90849333Y-150925571D01*
X90887428Y-150889857D01*
X90925523Y-150818428D01*
X90925523Y-150675571D01*
X90887428Y-150604142D01*
X90849333Y-150568428D01*
X90773142Y-150532714D01*
%TO.C,C40*%
X101593714Y-151397857D02*
X101555619Y-151433571D01*
X101441333Y-151469285D01*
X101365142Y-151469285D01*
X101250857Y-151433571D01*
X101174666Y-151362142D01*
X101136571Y-151290714D01*
X101098476Y-151147857D01*
X101098476Y-151040714D01*
X101136571Y-150897857D01*
X101174666Y-150826428D01*
X101250857Y-150755000D01*
X101365142Y-150719285D01*
X101441333Y-150719285D01*
X101555619Y-150755000D01*
X101593714Y-150790714D01*
X102279428Y-150969285D02*
X102279428Y-151469285D01*
X102088952Y-150683571D02*
X101898476Y-151219285D01*
X102393714Y-151219285D01*
X102850857Y-150719285D02*
X102927047Y-150719285D01*
X103003238Y-150755000D01*
X103041333Y-150790714D01*
X103079428Y-150862142D01*
X103117523Y-151005000D01*
X103117523Y-151183571D01*
X103079428Y-151326428D01*
X103041333Y-151397857D01*
X103003238Y-151433571D01*
X102927047Y-151469285D01*
X102850857Y-151469285D01*
X102774666Y-151433571D01*
X102736571Y-151397857D01*
X102698476Y-151326428D01*
X102660380Y-151183571D01*
X102660380Y-151005000D01*
X102698476Y-150862142D01*
X102736571Y-150790714D01*
X102774666Y-150755000D01*
X102850857Y-150719285D01*
%TO.C,Y2*%
X99419047Y-151132142D02*
X99419047Y-151489285D01*
X99152380Y-150739285D02*
X99419047Y-151132142D01*
X99685714Y-150739285D01*
X99914285Y-150810714D02*
X99952380Y-150775000D01*
X100028571Y-150739285D01*
X100219047Y-150739285D01*
X100295238Y-150775000D01*
X100333333Y-150810714D01*
X100371428Y-150882142D01*
X100371428Y-150953571D01*
X100333333Y-151060714D01*
X99876190Y-151489285D01*
X100371428Y-151489285D01*
%TO.C,L6*%
X93592666Y-156041285D02*
X93211714Y-156041285D01*
X93211714Y-155291285D01*
X94202190Y-155291285D02*
X94049809Y-155291285D01*
X93973619Y-155327000D01*
X93935523Y-155362714D01*
X93859333Y-155469857D01*
X93821238Y-155612714D01*
X93821238Y-155898428D01*
X93859333Y-155969857D01*
X93897428Y-156005571D01*
X93973619Y-156041285D01*
X94126000Y-156041285D01*
X94202190Y-156005571D01*
X94240285Y-155969857D01*
X94278380Y-155898428D01*
X94278380Y-155719857D01*
X94240285Y-155648428D01*
X94202190Y-155612714D01*
X94126000Y-155577000D01*
X93973619Y-155577000D01*
X93897428Y-155612714D01*
X93859333Y-155648428D01*
X93821238Y-155719857D01*
%TO.C,U1*%
X75400476Y-114969286D02*
X75400476Y-115576429D01*
X75438571Y-115647858D01*
X75476666Y-115683572D01*
X75552857Y-115719286D01*
X75705238Y-115719286D01*
X75781428Y-115683572D01*
X75819523Y-115647858D01*
X75857619Y-115576429D01*
X75857619Y-114969286D01*
X76657619Y-115719286D02*
X76200476Y-115719286D01*
X76429047Y-115719286D02*
X76429047Y-114969286D01*
X76352857Y-115076429D01*
X76276666Y-115147858D01*
X76200476Y-115183572D01*
%TO.C,C42*%
X81527714Y-154445857D02*
X81489619Y-154481571D01*
X81375333Y-154517285D01*
X81299142Y-154517285D01*
X81184857Y-154481571D01*
X81108666Y-154410142D01*
X81070571Y-154338714D01*
X81032476Y-154195857D01*
X81032476Y-154088714D01*
X81070571Y-153945857D01*
X81108666Y-153874428D01*
X81184857Y-153803000D01*
X81299142Y-153767285D01*
X81375333Y-153767285D01*
X81489619Y-153803000D01*
X81527714Y-153838714D01*
X82213428Y-154017285D02*
X82213428Y-154517285D01*
X82022952Y-153731571D02*
X81832476Y-154267285D01*
X82327714Y-154267285D01*
X82594380Y-153838714D02*
X82632476Y-153803000D01*
X82708666Y-153767285D01*
X82899142Y-153767285D01*
X82975333Y-153803000D01*
X83013428Y-153838714D01*
X83051523Y-153910142D01*
X83051523Y-153981571D01*
X83013428Y-154088714D01*
X82556285Y-154517285D01*
X83051523Y-154517285D01*
%TO.C,C53*%
X91935714Y-150087857D02*
X91897619Y-150123571D01*
X91783333Y-150159285D01*
X91707142Y-150159285D01*
X91592857Y-150123571D01*
X91516666Y-150052142D01*
X91478571Y-149980714D01*
X91440476Y-149837857D01*
X91440476Y-149730714D01*
X91478571Y-149587857D01*
X91516666Y-149516428D01*
X91592857Y-149445000D01*
X91707142Y-149409285D01*
X91783333Y-149409285D01*
X91897619Y-149445000D01*
X91935714Y-149480714D01*
X92659523Y-149409285D02*
X92278571Y-149409285D01*
X92240476Y-149766428D01*
X92278571Y-149730714D01*
X92354761Y-149695000D01*
X92545238Y-149695000D01*
X92621428Y-149730714D01*
X92659523Y-149766428D01*
X92697619Y-149837857D01*
X92697619Y-150016428D01*
X92659523Y-150087857D01*
X92621428Y-150123571D01*
X92545238Y-150159285D01*
X92354761Y-150159285D01*
X92278571Y-150123571D01*
X92240476Y-150087857D01*
X92964285Y-149409285D02*
X93459523Y-149409285D01*
X93192857Y-149695000D01*
X93307142Y-149695000D01*
X93383333Y-149730714D01*
X93421428Y-149766428D01*
X93459523Y-149837857D01*
X93459523Y-150016428D01*
X93421428Y-150087857D01*
X93383333Y-150123571D01*
X93307142Y-150159285D01*
X93078571Y-150159285D01*
X93002380Y-150123571D01*
X92964285Y-150087857D01*
%TO.C,C21*%
X62985714Y-119901857D02*
X62947619Y-119937571D01*
X62833333Y-119973285D01*
X62757142Y-119973285D01*
X62642857Y-119937571D01*
X62566666Y-119866142D01*
X62528571Y-119794714D01*
X62490476Y-119651857D01*
X62490476Y-119544714D01*
X62528571Y-119401857D01*
X62566666Y-119330428D01*
X62642857Y-119259000D01*
X62757142Y-119223285D01*
X62833333Y-119223285D01*
X62947619Y-119259000D01*
X62985714Y-119294714D01*
X63290476Y-119294714D02*
X63328571Y-119259000D01*
X63404761Y-119223285D01*
X63595238Y-119223285D01*
X63671428Y-119259000D01*
X63709523Y-119294714D01*
X63747619Y-119366142D01*
X63747619Y-119437571D01*
X63709523Y-119544714D01*
X63252380Y-119973285D01*
X63747619Y-119973285D01*
X64509523Y-119973285D02*
X64052380Y-119973285D01*
X64280952Y-119973285D02*
X64280952Y-119223285D01*
X64204761Y-119330428D01*
X64128571Y-119401857D01*
X64052380Y-119437571D01*
%TO.C,C19*%
X62985714Y-124219857D02*
X62947619Y-124255571D01*
X62833333Y-124291285D01*
X62757142Y-124291285D01*
X62642857Y-124255571D01*
X62566666Y-124184142D01*
X62528571Y-124112714D01*
X62490476Y-123969857D01*
X62490476Y-123862714D01*
X62528571Y-123719857D01*
X62566666Y-123648428D01*
X62642857Y-123577000D01*
X62757142Y-123541285D01*
X62833333Y-123541285D01*
X62947619Y-123577000D01*
X62985714Y-123612714D01*
X63747619Y-124291285D02*
X63290476Y-124291285D01*
X63519047Y-124291285D02*
X63519047Y-123541285D01*
X63442857Y-123648428D01*
X63366666Y-123719857D01*
X63290476Y-123755571D01*
X64128571Y-124291285D02*
X64280952Y-124291285D01*
X64357142Y-124255571D01*
X64395238Y-124219857D01*
X64471428Y-124112714D01*
X64509523Y-123969857D01*
X64509523Y-123684142D01*
X64471428Y-123612714D01*
X64433333Y-123577000D01*
X64357142Y-123541285D01*
X64204761Y-123541285D01*
X64128571Y-123577000D01*
X64090476Y-123612714D01*
X64052380Y-123684142D01*
X64052380Y-123862714D01*
X64090476Y-123934142D01*
X64128571Y-123969857D01*
X64204761Y-124005571D01*
X64357142Y-124005571D01*
X64433333Y-123969857D01*
X64471428Y-123934142D01*
X64509523Y-123862714D01*
%TO.C,C3*%
X64636666Y-130569857D02*
X64598571Y-130605571D01*
X64484285Y-130641285D01*
X64408095Y-130641285D01*
X64293809Y-130605571D01*
X64217619Y-130534142D01*
X64179523Y-130462714D01*
X64141428Y-130319857D01*
X64141428Y-130212714D01*
X64179523Y-130069857D01*
X64217619Y-129998428D01*
X64293809Y-129927000D01*
X64408095Y-129891285D01*
X64484285Y-129891285D01*
X64598571Y-129927000D01*
X64636666Y-129962714D01*
X64903333Y-129891285D02*
X65398571Y-129891285D01*
X65131904Y-130177000D01*
X65246190Y-130177000D01*
X65322380Y-130212714D01*
X65360476Y-130248428D01*
X65398571Y-130319857D01*
X65398571Y-130498428D01*
X65360476Y-130569857D01*
X65322380Y-130605571D01*
X65246190Y-130641285D01*
X65017619Y-130641285D01*
X64941428Y-130605571D01*
X64903333Y-130569857D01*
%TO.C,C1*%
X60166666Y-129167857D02*
X60128571Y-129203571D01*
X60014285Y-129239285D01*
X59938095Y-129239285D01*
X59823809Y-129203571D01*
X59747619Y-129132142D01*
X59709523Y-129060714D01*
X59671428Y-128917857D01*
X59671428Y-128810714D01*
X59709523Y-128667857D01*
X59747619Y-128596428D01*
X59823809Y-128525000D01*
X59938095Y-128489285D01*
X60014285Y-128489285D01*
X60128571Y-128525000D01*
X60166666Y-128560714D01*
X60928571Y-129239285D02*
X60471428Y-129239285D01*
X60700000Y-129239285D02*
X60700000Y-128489285D01*
X60623809Y-128596428D01*
X60547619Y-128667857D01*
X60471428Y-128703571D01*
%TO.C,R82*%
X82572714Y-152993285D02*
X82306047Y-152636142D01*
X82115571Y-152993285D02*
X82115571Y-152243285D01*
X82420333Y-152243285D01*
X82496523Y-152279000D01*
X82534619Y-152314714D01*
X82572714Y-152386142D01*
X82572714Y-152493285D01*
X82534619Y-152564714D01*
X82496523Y-152600428D01*
X82420333Y-152636142D01*
X82115571Y-152636142D01*
X83029857Y-152564714D02*
X82953666Y-152529000D01*
X82915571Y-152493285D01*
X82877476Y-152421857D01*
X82877476Y-152386142D01*
X82915571Y-152314714D01*
X82953666Y-152279000D01*
X83029857Y-152243285D01*
X83182238Y-152243285D01*
X83258428Y-152279000D01*
X83296523Y-152314714D01*
X83334619Y-152386142D01*
X83334619Y-152421857D01*
X83296523Y-152493285D01*
X83258428Y-152529000D01*
X83182238Y-152564714D01*
X83029857Y-152564714D01*
X82953666Y-152600428D01*
X82915571Y-152636142D01*
X82877476Y-152707571D01*
X82877476Y-152850428D01*
X82915571Y-152921857D01*
X82953666Y-152957571D01*
X83029857Y-152993285D01*
X83182238Y-152993285D01*
X83258428Y-152957571D01*
X83296523Y-152921857D01*
X83334619Y-152850428D01*
X83334619Y-152707571D01*
X83296523Y-152636142D01*
X83258428Y-152600428D01*
X83182238Y-152564714D01*
X83639380Y-152314714D02*
X83677476Y-152279000D01*
X83753666Y-152243285D01*
X83944142Y-152243285D01*
X84020333Y-152279000D01*
X84058428Y-152314714D01*
X84096523Y-152386142D01*
X84096523Y-152457571D01*
X84058428Y-152564714D01*
X83601285Y-152993285D01*
X84096523Y-152993285D01*
%TO.C,R84*%
X85620714Y-152993285D02*
X85354047Y-152636142D01*
X85163571Y-152993285D02*
X85163571Y-152243285D01*
X85468333Y-152243285D01*
X85544523Y-152279000D01*
X85582619Y-152314714D01*
X85620714Y-152386142D01*
X85620714Y-152493285D01*
X85582619Y-152564714D01*
X85544523Y-152600428D01*
X85468333Y-152636142D01*
X85163571Y-152636142D01*
X86077857Y-152564714D02*
X86001666Y-152529000D01*
X85963571Y-152493285D01*
X85925476Y-152421857D01*
X85925476Y-152386142D01*
X85963571Y-152314714D01*
X86001666Y-152279000D01*
X86077857Y-152243285D01*
X86230238Y-152243285D01*
X86306428Y-152279000D01*
X86344523Y-152314714D01*
X86382619Y-152386142D01*
X86382619Y-152421857D01*
X86344523Y-152493285D01*
X86306428Y-152529000D01*
X86230238Y-152564714D01*
X86077857Y-152564714D01*
X86001666Y-152600428D01*
X85963571Y-152636142D01*
X85925476Y-152707571D01*
X85925476Y-152850428D01*
X85963571Y-152921857D01*
X86001666Y-152957571D01*
X86077857Y-152993285D01*
X86230238Y-152993285D01*
X86306428Y-152957571D01*
X86344523Y-152921857D01*
X86382619Y-152850428D01*
X86382619Y-152707571D01*
X86344523Y-152636142D01*
X86306428Y-152600428D01*
X86230238Y-152564714D01*
X87068333Y-152493285D02*
X87068333Y-152993285D01*
X86877857Y-152207571D02*
X86687380Y-152743285D01*
X87182619Y-152743285D01*
%TO.C,R83*%
X84350714Y-154517285D02*
X84084047Y-154160142D01*
X83893571Y-154517285D02*
X83893571Y-153767285D01*
X84198333Y-153767285D01*
X84274523Y-153803000D01*
X84312619Y-153838714D01*
X84350714Y-153910142D01*
X84350714Y-154017285D01*
X84312619Y-154088714D01*
X84274523Y-154124428D01*
X84198333Y-154160142D01*
X83893571Y-154160142D01*
X84807857Y-154088714D02*
X84731666Y-154053000D01*
X84693571Y-154017285D01*
X84655476Y-153945857D01*
X84655476Y-153910142D01*
X84693571Y-153838714D01*
X84731666Y-153803000D01*
X84807857Y-153767285D01*
X84960238Y-153767285D01*
X85036428Y-153803000D01*
X85074523Y-153838714D01*
X85112619Y-153910142D01*
X85112619Y-153945857D01*
X85074523Y-154017285D01*
X85036428Y-154053000D01*
X84960238Y-154088714D01*
X84807857Y-154088714D01*
X84731666Y-154124428D01*
X84693571Y-154160142D01*
X84655476Y-154231571D01*
X84655476Y-154374428D01*
X84693571Y-154445857D01*
X84731666Y-154481571D01*
X84807857Y-154517285D01*
X84960238Y-154517285D01*
X85036428Y-154481571D01*
X85074523Y-154445857D01*
X85112619Y-154374428D01*
X85112619Y-154231571D01*
X85074523Y-154160142D01*
X85036428Y-154124428D01*
X84960238Y-154088714D01*
X85379285Y-153767285D02*
X85874523Y-153767285D01*
X85607857Y-154053000D01*
X85722142Y-154053000D01*
X85798333Y-154088714D01*
X85836428Y-154124428D01*
X85874523Y-154195857D01*
X85874523Y-154374428D01*
X85836428Y-154445857D01*
X85798333Y-154481571D01*
X85722142Y-154517285D01*
X85493571Y-154517285D01*
X85417380Y-154481571D01*
X85379285Y-154445857D01*
%TO.C,J7*%
X91427333Y-155291285D02*
X91427333Y-155827000D01*
X91389238Y-155934142D01*
X91313047Y-156005571D01*
X91198761Y-156041285D01*
X91122571Y-156041285D01*
X91732095Y-155291285D02*
X92265428Y-155291285D01*
X91922571Y-156041285D01*
%TO.C,J9*%
X62471333Y-155037285D02*
X62471333Y-155573000D01*
X62433238Y-155680142D01*
X62357047Y-155751571D01*
X62242761Y-155787285D01*
X62166571Y-155787285D01*
X62890380Y-155787285D02*
X63042761Y-155787285D01*
X63118952Y-155751571D01*
X63157047Y-155715857D01*
X63233238Y-155608714D01*
X63271333Y-155465857D01*
X63271333Y-155180142D01*
X63233238Y-155108714D01*
X63195142Y-155073000D01*
X63118952Y-155037285D01*
X62966571Y-155037285D01*
X62890380Y-155073000D01*
X62852285Y-155108714D01*
X62814190Y-155180142D01*
X62814190Y-155358714D01*
X62852285Y-155430142D01*
X62890380Y-155465857D01*
X62966571Y-155501571D01*
X63118952Y-155501571D01*
X63195142Y-155465857D01*
X63233238Y-155430142D01*
X63271333Y-155358714D01*
%TO.C,C18*%
X44485714Y-154167857D02*
X44447619Y-154203571D01*
X44333333Y-154239285D01*
X44257142Y-154239285D01*
X44142857Y-154203571D01*
X44066666Y-154132142D01*
X44028571Y-154060714D01*
X43990476Y-153917857D01*
X43990476Y-153810714D01*
X44028571Y-153667857D01*
X44066666Y-153596428D01*
X44142857Y-153525000D01*
X44257142Y-153489285D01*
X44333333Y-153489285D01*
X44447619Y-153525000D01*
X44485714Y-153560714D01*
X45247619Y-154239285D02*
X44790476Y-154239285D01*
X45019047Y-154239285D02*
X45019047Y-153489285D01*
X44942857Y-153596428D01*
X44866666Y-153667857D01*
X44790476Y-153703571D01*
X45704761Y-153810714D02*
X45628571Y-153775000D01*
X45590476Y-153739285D01*
X45552380Y-153667857D01*
X45552380Y-153632142D01*
X45590476Y-153560714D01*
X45628571Y-153525000D01*
X45704761Y-153489285D01*
X45857142Y-153489285D01*
X45933333Y-153525000D01*
X45971428Y-153560714D01*
X46009523Y-153632142D01*
X46009523Y-153667857D01*
X45971428Y-153739285D01*
X45933333Y-153775000D01*
X45857142Y-153810714D01*
X45704761Y-153810714D01*
X45628571Y-153846428D01*
X45590476Y-153882142D01*
X45552380Y-153953571D01*
X45552380Y-154096428D01*
X45590476Y-154167857D01*
X45628571Y-154203571D01*
X45704761Y-154239285D01*
X45857142Y-154239285D01*
X45933333Y-154203571D01*
X45971428Y-154167857D01*
X46009523Y-154096428D01*
X46009523Y-153953571D01*
X45971428Y-153882142D01*
X45933333Y-153846428D01*
X45857142Y-153810714D01*
%TO.C,R3*%
X41426666Y-131879285D02*
X41160000Y-131522142D01*
X40969523Y-131879285D02*
X40969523Y-131129285D01*
X41274285Y-131129285D01*
X41350476Y-131165000D01*
X41388571Y-131200714D01*
X41426666Y-131272142D01*
X41426666Y-131379285D01*
X41388571Y-131450714D01*
X41350476Y-131486428D01*
X41274285Y-131522142D01*
X40969523Y-131522142D01*
X41693333Y-131129285D02*
X42188571Y-131129285D01*
X41921904Y-131415000D01*
X42036190Y-131415000D01*
X42112380Y-131450714D01*
X42150476Y-131486428D01*
X42188571Y-131557857D01*
X42188571Y-131736428D01*
X42150476Y-131807857D01*
X42112380Y-131843571D01*
X42036190Y-131879285D01*
X41807619Y-131879285D01*
X41731428Y-131843571D01*
X41693333Y-131807857D01*
%TO.C,Y1*%
X60719047Y-124532142D02*
X60719047Y-124889285D01*
X60452380Y-124139285D02*
X60719047Y-124532142D01*
X60985714Y-124139285D01*
X61671428Y-124889285D02*
X61214285Y-124889285D01*
X61442857Y-124889285D02*
X61442857Y-124139285D01*
X61366666Y-124246428D01*
X61290476Y-124317857D01*
X61214285Y-124353571D01*
%TO.C,Y4*%
X58293047Y-121699142D02*
X58293047Y-122056285D01*
X58026380Y-121306285D02*
X58293047Y-121699142D01*
X58559714Y-121306285D01*
X59169238Y-121556285D02*
X59169238Y-122056285D01*
X58978761Y-121270571D02*
X58788285Y-121806285D01*
X59283523Y-121806285D01*
%TO.C,J3*%
X39183333Y-134989285D02*
X39183333Y-135525000D01*
X39145238Y-135632142D01*
X39069047Y-135703571D01*
X38954761Y-135739285D01*
X38878571Y-135739285D01*
X39488095Y-134989285D02*
X39983333Y-134989285D01*
X39716666Y-135275000D01*
X39830952Y-135275000D01*
X39907142Y-135310714D01*
X39945238Y-135346428D01*
X39983333Y-135417857D01*
X39983333Y-135596428D01*
X39945238Y-135667857D01*
X39907142Y-135703571D01*
X39830952Y-135739285D01*
X39602380Y-135739285D01*
X39526190Y-135703571D01*
X39488095Y-135667857D01*
%TO.C,J6*%
X86383333Y-106989285D02*
X86383333Y-107525000D01*
X86345238Y-107632142D01*
X86269047Y-107703571D01*
X86154761Y-107739285D01*
X86078571Y-107739285D01*
X87107142Y-106989285D02*
X86954761Y-106989285D01*
X86878571Y-107025000D01*
X86840476Y-107060714D01*
X86764285Y-107167857D01*
X86726190Y-107310714D01*
X86726190Y-107596428D01*
X86764285Y-107667857D01*
X86802380Y-107703571D01*
X86878571Y-107739285D01*
X87030952Y-107739285D01*
X87107142Y-107703571D01*
X87145238Y-107667857D01*
X87183333Y-107596428D01*
X87183333Y-107417857D01*
X87145238Y-107346428D01*
X87107142Y-107310714D01*
X87030952Y-107275000D01*
X86878571Y-107275000D01*
X86802380Y-107310714D01*
X86764285Y-107346428D01*
X86726190Y-107417857D01*
%TO.C,U6*%
X85750476Y-131161285D02*
X85750476Y-131768428D01*
X85788571Y-131839857D01*
X85826666Y-131875571D01*
X85902857Y-131911285D01*
X86055238Y-131911285D01*
X86131428Y-131875571D01*
X86169523Y-131839857D01*
X86207619Y-131768428D01*
X86207619Y-131161285D01*
X86931428Y-131161285D02*
X86779047Y-131161285D01*
X86702857Y-131197000D01*
X86664761Y-131232714D01*
X86588571Y-131339857D01*
X86550476Y-131482714D01*
X86550476Y-131768428D01*
X86588571Y-131839857D01*
X86626666Y-131875571D01*
X86702857Y-131911285D01*
X86855238Y-131911285D01*
X86931428Y-131875571D01*
X86969523Y-131839857D01*
X87007619Y-131768428D01*
X87007619Y-131589857D01*
X86969523Y-131518428D01*
X86931428Y-131482714D01*
X86855238Y-131447000D01*
X86702857Y-131447000D01*
X86626666Y-131482714D01*
X86588571Y-131518428D01*
X86550476Y-131589857D01*
%TO.C,SW7*%
X36333333Y-121953571D02*
X36447619Y-121989285D01*
X36638095Y-121989285D01*
X36714285Y-121953571D01*
X36752380Y-121917857D01*
X36790476Y-121846428D01*
X36790476Y-121775000D01*
X36752380Y-121703571D01*
X36714285Y-121667857D01*
X36638095Y-121632142D01*
X36485714Y-121596428D01*
X36409523Y-121560714D01*
X36371428Y-121525000D01*
X36333333Y-121453571D01*
X36333333Y-121382142D01*
X36371428Y-121310714D01*
X36409523Y-121275000D01*
X36485714Y-121239285D01*
X36676190Y-121239285D01*
X36790476Y-121275000D01*
X37057142Y-121239285D02*
X37247619Y-121989285D01*
X37400000Y-121453571D01*
X37552380Y-121989285D01*
X37742857Y-121239285D01*
X37971428Y-121239285D02*
X38504761Y-121239285D01*
X38161904Y-121989285D01*
%TO.C,SW4*%
X36283333Y-137453571D02*
X36397619Y-137489285D01*
X36588095Y-137489285D01*
X36664285Y-137453571D01*
X36702380Y-137417857D01*
X36740476Y-137346428D01*
X36740476Y-137275000D01*
X36702380Y-137203571D01*
X36664285Y-137167857D01*
X36588095Y-137132142D01*
X36435714Y-137096428D01*
X36359523Y-137060714D01*
X36321428Y-137025000D01*
X36283333Y-136953571D01*
X36283333Y-136882142D01*
X36321428Y-136810714D01*
X36359523Y-136775000D01*
X36435714Y-136739285D01*
X36626190Y-136739285D01*
X36740476Y-136775000D01*
X37007142Y-136739285D02*
X37197619Y-137489285D01*
X37350000Y-136953571D01*
X37502380Y-137489285D01*
X37692857Y-136739285D01*
X38340476Y-136989285D02*
X38340476Y-137489285D01*
X38150000Y-136703571D02*
X37959523Y-137239285D01*
X38454761Y-137239285D01*
%TO.C,SW1*%
X36333333Y-106503571D02*
X36447619Y-106539285D01*
X36638095Y-106539285D01*
X36714285Y-106503571D01*
X36752380Y-106467857D01*
X36790476Y-106396428D01*
X36790476Y-106325000D01*
X36752380Y-106253571D01*
X36714285Y-106217857D01*
X36638095Y-106182142D01*
X36485714Y-106146428D01*
X36409523Y-106110714D01*
X36371428Y-106075000D01*
X36333333Y-106003571D01*
X36333333Y-105932142D01*
X36371428Y-105860714D01*
X36409523Y-105825000D01*
X36485714Y-105789285D01*
X36676190Y-105789285D01*
X36790476Y-105825000D01*
X37057142Y-105789285D02*
X37247619Y-106539285D01*
X37400000Y-106003571D01*
X37552380Y-106539285D01*
X37742857Y-105789285D01*
X38466666Y-106539285D02*
X38009523Y-106539285D01*
X38238095Y-106539285D02*
X38238095Y-105789285D01*
X38161904Y-105896428D01*
X38085714Y-105967857D01*
X38009523Y-106003571D01*
%TO.C,U18*%
X46909523Y-106689285D02*
X46909523Y-107296428D01*
X46947619Y-107367857D01*
X46985714Y-107403571D01*
X47061904Y-107439285D01*
X47214285Y-107439285D01*
X47290476Y-107403571D01*
X47328571Y-107367857D01*
X47366666Y-107296428D01*
X47366666Y-106689285D01*
X48166666Y-107439285D02*
X47709523Y-107439285D01*
X47938095Y-107439285D02*
X47938095Y-106689285D01*
X47861904Y-106796428D01*
X47785714Y-106867857D01*
X47709523Y-106903571D01*
X48623809Y-107010714D02*
X48547619Y-106975000D01*
X48509523Y-106939285D01*
X48471428Y-106867857D01*
X48471428Y-106832142D01*
X48509523Y-106760714D01*
X48547619Y-106725000D01*
X48623809Y-106689285D01*
X48776190Y-106689285D01*
X48852380Y-106725000D01*
X48890476Y-106760714D01*
X48928571Y-106832142D01*
X48928571Y-106867857D01*
X48890476Y-106939285D01*
X48852380Y-106975000D01*
X48776190Y-107010714D01*
X48623809Y-107010714D01*
X48547619Y-107046428D01*
X48509523Y-107082142D01*
X48471428Y-107153571D01*
X48471428Y-107296428D01*
X48509523Y-107367857D01*
X48547619Y-107403571D01*
X48623809Y-107439285D01*
X48776190Y-107439285D01*
X48852380Y-107403571D01*
X48890476Y-107367857D01*
X48928571Y-107296428D01*
X48928571Y-107153571D01*
X48890476Y-107082142D01*
X48852380Y-107046428D01*
X48776190Y-107010714D01*
%TO.C,U5*%
X46940476Y-114589285D02*
X46940476Y-115196428D01*
X46978571Y-115267857D01*
X47016666Y-115303571D01*
X47092857Y-115339285D01*
X47245238Y-115339285D01*
X47321428Y-115303571D01*
X47359523Y-115267857D01*
X47397619Y-115196428D01*
X47397619Y-114589285D01*
X48159523Y-114589285D02*
X47778571Y-114589285D01*
X47740476Y-114946428D01*
X47778571Y-114910714D01*
X47854761Y-114875000D01*
X48045238Y-114875000D01*
X48121428Y-114910714D01*
X48159523Y-114946428D01*
X48197619Y-115017857D01*
X48197619Y-115196428D01*
X48159523Y-115267857D01*
X48121428Y-115303571D01*
X48045238Y-115339285D01*
X47854761Y-115339285D01*
X47778571Y-115303571D01*
X47740476Y-115267857D01*
%TO.C,U14*%
X63779523Y-135733285D02*
X63779523Y-136340428D01*
X63817619Y-136411857D01*
X63855714Y-136447571D01*
X63931904Y-136483285D01*
X64084285Y-136483285D01*
X64160476Y-136447571D01*
X64198571Y-136411857D01*
X64236666Y-136340428D01*
X64236666Y-135733285D01*
X65036666Y-136483285D02*
X64579523Y-136483285D01*
X64808095Y-136483285D02*
X64808095Y-135733285D01*
X64731904Y-135840428D01*
X64655714Y-135911857D01*
X64579523Y-135947571D01*
X65722380Y-135983285D02*
X65722380Y-136483285D01*
X65531904Y-135697571D02*
X65341428Y-136233285D01*
X65836666Y-136233285D01*
%TO.C,R51*%
X57285714Y-94569285D02*
X57019047Y-94212142D01*
X56828571Y-94569285D02*
X56828571Y-93819285D01*
X57133333Y-93819285D01*
X57209523Y-93855000D01*
X57247619Y-93890714D01*
X57285714Y-93962142D01*
X57285714Y-94069285D01*
X57247619Y-94140714D01*
X57209523Y-94176428D01*
X57133333Y-94212142D01*
X56828571Y-94212142D01*
X58009523Y-93819285D02*
X57628571Y-93819285D01*
X57590476Y-94176428D01*
X57628571Y-94140714D01*
X57704761Y-94105000D01*
X57895238Y-94105000D01*
X57971428Y-94140714D01*
X58009523Y-94176428D01*
X58047619Y-94247857D01*
X58047619Y-94426428D01*
X58009523Y-94497857D01*
X57971428Y-94533571D01*
X57895238Y-94569285D01*
X57704761Y-94569285D01*
X57628571Y-94533571D01*
X57590476Y-94497857D01*
X58809523Y-94569285D02*
X58352380Y-94569285D01*
X58580952Y-94569285D02*
X58580952Y-93819285D01*
X58504761Y-93926428D01*
X58428571Y-93997857D01*
X58352380Y-94033571D01*
%TO.C,R46*%
X57285714Y-93409285D02*
X57019047Y-93052142D01*
X56828571Y-93409285D02*
X56828571Y-92659285D01*
X57133333Y-92659285D01*
X57209523Y-92695000D01*
X57247619Y-92730714D01*
X57285714Y-92802142D01*
X57285714Y-92909285D01*
X57247619Y-92980714D01*
X57209523Y-93016428D01*
X57133333Y-93052142D01*
X56828571Y-93052142D01*
X57971428Y-92909285D02*
X57971428Y-93409285D01*
X57780952Y-92623571D02*
X57590476Y-93159285D01*
X58085714Y-93159285D01*
X58733333Y-92659285D02*
X58580952Y-92659285D01*
X58504761Y-92695000D01*
X58466666Y-92730714D01*
X58390476Y-92837857D01*
X58352380Y-92980714D01*
X58352380Y-93266428D01*
X58390476Y-93337857D01*
X58428571Y-93373571D01*
X58504761Y-93409285D01*
X58657142Y-93409285D01*
X58733333Y-93373571D01*
X58771428Y-93337857D01*
X58809523Y-93266428D01*
X58809523Y-93087857D01*
X58771428Y-93016428D01*
X58733333Y-92980714D01*
X58657142Y-92945000D01*
X58504761Y-92945000D01*
X58428571Y-92980714D01*
X58390476Y-93016428D01*
X58352380Y-93087857D01*
%TO.C,C50*%
X54035714Y-107117857D02*
X53997619Y-107153571D01*
X53883333Y-107189285D01*
X53807142Y-107189285D01*
X53692857Y-107153571D01*
X53616666Y-107082142D01*
X53578571Y-107010714D01*
X53540476Y-106867857D01*
X53540476Y-106760714D01*
X53578571Y-106617857D01*
X53616666Y-106546428D01*
X53692857Y-106475000D01*
X53807142Y-106439285D01*
X53883333Y-106439285D01*
X53997619Y-106475000D01*
X54035714Y-106510714D01*
X54759523Y-106439285D02*
X54378571Y-106439285D01*
X54340476Y-106796428D01*
X54378571Y-106760714D01*
X54454761Y-106725000D01*
X54645238Y-106725000D01*
X54721428Y-106760714D01*
X54759523Y-106796428D01*
X54797619Y-106867857D01*
X54797619Y-107046428D01*
X54759523Y-107117857D01*
X54721428Y-107153571D01*
X54645238Y-107189285D01*
X54454761Y-107189285D01*
X54378571Y-107153571D01*
X54340476Y-107117857D01*
X55292857Y-106439285D02*
X55369047Y-106439285D01*
X55445238Y-106475000D01*
X55483333Y-106510714D01*
X55521428Y-106582142D01*
X55559523Y-106725000D01*
X55559523Y-106903571D01*
X55521428Y-107046428D01*
X55483333Y-107117857D01*
X55445238Y-107153571D01*
X55369047Y-107189285D01*
X55292857Y-107189285D01*
X55216666Y-107153571D01*
X55178571Y-107117857D01*
X55140476Y-107046428D01*
X55102380Y-106903571D01*
X55102380Y-106725000D01*
X55140476Y-106582142D01*
X55178571Y-106510714D01*
X55216666Y-106475000D01*
X55292857Y-106439285D01*
%TO.C,R33*%
X43427714Y-127339285D02*
X43161047Y-126982142D01*
X42970571Y-127339285D02*
X42970571Y-126589285D01*
X43275333Y-126589285D01*
X43351523Y-126625000D01*
X43389619Y-126660714D01*
X43427714Y-126732142D01*
X43427714Y-126839285D01*
X43389619Y-126910714D01*
X43351523Y-126946428D01*
X43275333Y-126982142D01*
X42970571Y-126982142D01*
X43694380Y-126589285D02*
X44189619Y-126589285D01*
X43922952Y-126875000D01*
X44037238Y-126875000D01*
X44113428Y-126910714D01*
X44151523Y-126946428D01*
X44189619Y-127017857D01*
X44189619Y-127196428D01*
X44151523Y-127267857D01*
X44113428Y-127303571D01*
X44037238Y-127339285D01*
X43808666Y-127339285D01*
X43732476Y-127303571D01*
X43694380Y-127267857D01*
X44456285Y-126589285D02*
X44951523Y-126589285D01*
X44684857Y-126875000D01*
X44799142Y-126875000D01*
X44875333Y-126910714D01*
X44913428Y-126946428D01*
X44951523Y-127017857D01*
X44951523Y-127196428D01*
X44913428Y-127267857D01*
X44875333Y-127303571D01*
X44799142Y-127339285D01*
X44570571Y-127339285D01*
X44494380Y-127303571D01*
X44456285Y-127267857D01*
%TO.C,R18*%
X42919714Y-123021285D02*
X42653047Y-122664142D01*
X42462571Y-123021285D02*
X42462571Y-122271285D01*
X42767333Y-122271285D01*
X42843523Y-122307000D01*
X42881619Y-122342714D01*
X42919714Y-122414142D01*
X42919714Y-122521285D01*
X42881619Y-122592714D01*
X42843523Y-122628428D01*
X42767333Y-122664142D01*
X42462571Y-122664142D01*
X43681619Y-123021285D02*
X43224476Y-123021285D01*
X43453047Y-123021285D02*
X43453047Y-122271285D01*
X43376857Y-122378428D01*
X43300666Y-122449857D01*
X43224476Y-122485571D01*
X44138761Y-122592714D02*
X44062571Y-122557000D01*
X44024476Y-122521285D01*
X43986380Y-122449857D01*
X43986380Y-122414142D01*
X44024476Y-122342714D01*
X44062571Y-122307000D01*
X44138761Y-122271285D01*
X44291142Y-122271285D01*
X44367333Y-122307000D01*
X44405428Y-122342714D01*
X44443523Y-122414142D01*
X44443523Y-122449857D01*
X44405428Y-122521285D01*
X44367333Y-122557000D01*
X44291142Y-122592714D01*
X44138761Y-122592714D01*
X44062571Y-122628428D01*
X44024476Y-122664142D01*
X43986380Y-122735571D01*
X43986380Y-122878428D01*
X44024476Y-122949857D01*
X44062571Y-122985571D01*
X44138761Y-123021285D01*
X44291142Y-123021285D01*
X44367333Y-122985571D01*
X44405428Y-122949857D01*
X44443523Y-122878428D01*
X44443523Y-122735571D01*
X44405428Y-122664142D01*
X44367333Y-122628428D01*
X44291142Y-122592714D01*
%TO.C,D5*%
X40049523Y-123021285D02*
X40049523Y-122271285D01*
X40240000Y-122271285D01*
X40354285Y-122307000D01*
X40430476Y-122378428D01*
X40468571Y-122449857D01*
X40506666Y-122592714D01*
X40506666Y-122699857D01*
X40468571Y-122842714D01*
X40430476Y-122914142D01*
X40354285Y-122985571D01*
X40240000Y-123021285D01*
X40049523Y-123021285D01*
X41230476Y-122271285D02*
X40849523Y-122271285D01*
X40811428Y-122628428D01*
X40849523Y-122592714D01*
X40925714Y-122557000D01*
X41116190Y-122557000D01*
X41192380Y-122592714D01*
X41230476Y-122628428D01*
X41268571Y-122699857D01*
X41268571Y-122878428D01*
X41230476Y-122949857D01*
X41192380Y-122985571D01*
X41116190Y-123021285D01*
X40925714Y-123021285D01*
X40849523Y-122985571D01*
X40811428Y-122949857D01*
%TO.C,C65*%
X55035714Y-112917857D02*
X54997619Y-112953571D01*
X54883333Y-112989285D01*
X54807142Y-112989285D01*
X54692857Y-112953571D01*
X54616666Y-112882142D01*
X54578571Y-112810714D01*
X54540476Y-112667857D01*
X54540476Y-112560714D01*
X54578571Y-112417857D01*
X54616666Y-112346428D01*
X54692857Y-112275000D01*
X54807142Y-112239285D01*
X54883333Y-112239285D01*
X54997619Y-112275000D01*
X55035714Y-112310714D01*
X55721428Y-112239285D02*
X55569047Y-112239285D01*
X55492857Y-112275000D01*
X55454761Y-112310714D01*
X55378571Y-112417857D01*
X55340476Y-112560714D01*
X55340476Y-112846428D01*
X55378571Y-112917857D01*
X55416666Y-112953571D01*
X55492857Y-112989285D01*
X55645238Y-112989285D01*
X55721428Y-112953571D01*
X55759523Y-112917857D01*
X55797619Y-112846428D01*
X55797619Y-112667857D01*
X55759523Y-112596428D01*
X55721428Y-112560714D01*
X55645238Y-112525000D01*
X55492857Y-112525000D01*
X55416666Y-112560714D01*
X55378571Y-112596428D01*
X55340476Y-112667857D01*
X56521428Y-112239285D02*
X56140476Y-112239285D01*
X56102380Y-112596428D01*
X56140476Y-112560714D01*
X56216666Y-112525000D01*
X56407142Y-112525000D01*
X56483333Y-112560714D01*
X56521428Y-112596428D01*
X56559523Y-112667857D01*
X56559523Y-112846428D01*
X56521428Y-112917857D01*
X56483333Y-112953571D01*
X56407142Y-112989285D01*
X56216666Y-112989285D01*
X56140476Y-112953571D01*
X56102380Y-112917857D01*
%TO.C,C63*%
X46225714Y-111077857D02*
X46187619Y-111113571D01*
X46073333Y-111149285D01*
X45997142Y-111149285D01*
X45882857Y-111113571D01*
X45806666Y-111042142D01*
X45768571Y-110970714D01*
X45730476Y-110827857D01*
X45730476Y-110720714D01*
X45768571Y-110577857D01*
X45806666Y-110506428D01*
X45882857Y-110435000D01*
X45997142Y-110399285D01*
X46073333Y-110399285D01*
X46187619Y-110435000D01*
X46225714Y-110470714D01*
X46911428Y-110399285D02*
X46759047Y-110399285D01*
X46682857Y-110435000D01*
X46644761Y-110470714D01*
X46568571Y-110577857D01*
X46530476Y-110720714D01*
X46530476Y-111006428D01*
X46568571Y-111077857D01*
X46606666Y-111113571D01*
X46682857Y-111149285D01*
X46835238Y-111149285D01*
X46911428Y-111113571D01*
X46949523Y-111077857D01*
X46987619Y-111006428D01*
X46987619Y-110827857D01*
X46949523Y-110756428D01*
X46911428Y-110720714D01*
X46835238Y-110685000D01*
X46682857Y-110685000D01*
X46606666Y-110720714D01*
X46568571Y-110756428D01*
X46530476Y-110827857D01*
X47254285Y-110399285D02*
X47749523Y-110399285D01*
X47482857Y-110685000D01*
X47597142Y-110685000D01*
X47673333Y-110720714D01*
X47711428Y-110756428D01*
X47749523Y-110827857D01*
X47749523Y-111006428D01*
X47711428Y-111077857D01*
X47673333Y-111113571D01*
X47597142Y-111149285D01*
X47368571Y-111149285D01*
X47292380Y-111113571D01*
X47254285Y-111077857D01*
%TO.C,C61*%
X46435714Y-109027857D02*
X46397619Y-109063571D01*
X46283333Y-109099285D01*
X46207142Y-109099285D01*
X46092857Y-109063571D01*
X46016666Y-108992142D01*
X45978571Y-108920714D01*
X45940476Y-108777857D01*
X45940476Y-108670714D01*
X45978571Y-108527857D01*
X46016666Y-108456428D01*
X46092857Y-108385000D01*
X46207142Y-108349285D01*
X46283333Y-108349285D01*
X46397619Y-108385000D01*
X46435714Y-108420714D01*
X47121428Y-108349285D02*
X46969047Y-108349285D01*
X46892857Y-108385000D01*
X46854761Y-108420714D01*
X46778571Y-108527857D01*
X46740476Y-108670714D01*
X46740476Y-108956428D01*
X46778571Y-109027857D01*
X46816666Y-109063571D01*
X46892857Y-109099285D01*
X47045238Y-109099285D01*
X47121428Y-109063571D01*
X47159523Y-109027857D01*
X47197619Y-108956428D01*
X47197619Y-108777857D01*
X47159523Y-108706428D01*
X47121428Y-108670714D01*
X47045238Y-108635000D01*
X46892857Y-108635000D01*
X46816666Y-108670714D01*
X46778571Y-108706428D01*
X46740476Y-108777857D01*
X47959523Y-109099285D02*
X47502380Y-109099285D01*
X47730952Y-109099285D02*
X47730952Y-108349285D01*
X47654761Y-108456428D01*
X47578571Y-108527857D01*
X47502380Y-108563571D01*
%TO.C,C59*%
X54235714Y-108567857D02*
X54197619Y-108603571D01*
X54083333Y-108639285D01*
X54007142Y-108639285D01*
X53892857Y-108603571D01*
X53816666Y-108532142D01*
X53778571Y-108460714D01*
X53740476Y-108317857D01*
X53740476Y-108210714D01*
X53778571Y-108067857D01*
X53816666Y-107996428D01*
X53892857Y-107925000D01*
X54007142Y-107889285D01*
X54083333Y-107889285D01*
X54197619Y-107925000D01*
X54235714Y-107960714D01*
X54959523Y-107889285D02*
X54578571Y-107889285D01*
X54540476Y-108246428D01*
X54578571Y-108210714D01*
X54654761Y-108175000D01*
X54845238Y-108175000D01*
X54921428Y-108210714D01*
X54959523Y-108246428D01*
X54997619Y-108317857D01*
X54997619Y-108496428D01*
X54959523Y-108567857D01*
X54921428Y-108603571D01*
X54845238Y-108639285D01*
X54654761Y-108639285D01*
X54578571Y-108603571D01*
X54540476Y-108567857D01*
X55378571Y-108639285D02*
X55530952Y-108639285D01*
X55607142Y-108603571D01*
X55645238Y-108567857D01*
X55721428Y-108460714D01*
X55759523Y-108317857D01*
X55759523Y-108032142D01*
X55721428Y-107960714D01*
X55683333Y-107925000D01*
X55607142Y-107889285D01*
X55454761Y-107889285D01*
X55378571Y-107925000D01*
X55340476Y-107960714D01*
X55302380Y-108032142D01*
X55302380Y-108210714D01*
X55340476Y-108282142D01*
X55378571Y-108317857D01*
X55454761Y-108353571D01*
X55607142Y-108353571D01*
X55683333Y-108317857D01*
X55721428Y-108282142D01*
X55759523Y-108210714D01*
%TO.C,J2*%
X80708333Y-114439285D02*
X80708333Y-114975000D01*
X80670238Y-115082142D01*
X80594047Y-115153571D01*
X80479761Y-115189285D01*
X80403571Y-115189285D01*
X81051190Y-114510714D02*
X81089285Y-114475000D01*
X81165476Y-114439285D01*
X81355952Y-114439285D01*
X81432142Y-114475000D01*
X81470238Y-114510714D01*
X81508333Y-114582142D01*
X81508333Y-114653571D01*
X81470238Y-114760714D01*
X81013095Y-115189285D01*
X81508333Y-115189285D01*
%TO.C,R55*%
X92475714Y-118159285D02*
X92209047Y-117802142D01*
X92018571Y-118159285D02*
X92018571Y-117409285D01*
X92323333Y-117409285D01*
X92399523Y-117445000D01*
X92437619Y-117480714D01*
X92475714Y-117552142D01*
X92475714Y-117659285D01*
X92437619Y-117730714D01*
X92399523Y-117766428D01*
X92323333Y-117802142D01*
X92018571Y-117802142D01*
X93199523Y-117409285D02*
X92818571Y-117409285D01*
X92780476Y-117766428D01*
X92818571Y-117730714D01*
X92894761Y-117695000D01*
X93085238Y-117695000D01*
X93161428Y-117730714D01*
X93199523Y-117766428D01*
X93237619Y-117837857D01*
X93237619Y-118016428D01*
X93199523Y-118087857D01*
X93161428Y-118123571D01*
X93085238Y-118159285D01*
X92894761Y-118159285D01*
X92818571Y-118123571D01*
X92780476Y-118087857D01*
X93961428Y-117409285D02*
X93580476Y-117409285D01*
X93542380Y-117766428D01*
X93580476Y-117730714D01*
X93656666Y-117695000D01*
X93847142Y-117695000D01*
X93923333Y-117730714D01*
X93961428Y-117766428D01*
X93999523Y-117837857D01*
X93999523Y-118016428D01*
X93961428Y-118087857D01*
X93923333Y-118123571D01*
X93847142Y-118159285D01*
X93656666Y-118159285D01*
X93580476Y-118123571D01*
X93542380Y-118087857D01*
%TO.C,C58*%
X80003714Y-139713857D02*
X79965619Y-139749571D01*
X79851333Y-139785285D01*
X79775142Y-139785285D01*
X79660857Y-139749571D01*
X79584666Y-139678142D01*
X79546571Y-139606714D01*
X79508476Y-139463857D01*
X79508476Y-139356714D01*
X79546571Y-139213857D01*
X79584666Y-139142428D01*
X79660857Y-139071000D01*
X79775142Y-139035285D01*
X79851333Y-139035285D01*
X79965619Y-139071000D01*
X80003714Y-139106714D01*
X80727523Y-139035285D02*
X80346571Y-139035285D01*
X80308476Y-139392428D01*
X80346571Y-139356714D01*
X80422761Y-139321000D01*
X80613238Y-139321000D01*
X80689428Y-139356714D01*
X80727523Y-139392428D01*
X80765619Y-139463857D01*
X80765619Y-139642428D01*
X80727523Y-139713857D01*
X80689428Y-139749571D01*
X80613238Y-139785285D01*
X80422761Y-139785285D01*
X80346571Y-139749571D01*
X80308476Y-139713857D01*
X81222761Y-139356714D02*
X81146571Y-139321000D01*
X81108476Y-139285285D01*
X81070380Y-139213857D01*
X81070380Y-139178142D01*
X81108476Y-139106714D01*
X81146571Y-139071000D01*
X81222761Y-139035285D01*
X81375142Y-139035285D01*
X81451333Y-139071000D01*
X81489428Y-139106714D01*
X81527523Y-139178142D01*
X81527523Y-139213857D01*
X81489428Y-139285285D01*
X81451333Y-139321000D01*
X81375142Y-139356714D01*
X81222761Y-139356714D01*
X81146571Y-139392428D01*
X81108476Y-139428142D01*
X81070380Y-139499571D01*
X81070380Y-139642428D01*
X81108476Y-139713857D01*
X81146571Y-139749571D01*
X81222761Y-139785285D01*
X81375142Y-139785285D01*
X81451333Y-139749571D01*
X81489428Y-139713857D01*
X81527523Y-139642428D01*
X81527523Y-139499571D01*
X81489428Y-139428142D01*
X81451333Y-139392428D01*
X81375142Y-139356714D01*
%TO.C,C57*%
X76701714Y-145301857D02*
X76663619Y-145337571D01*
X76549333Y-145373285D01*
X76473142Y-145373285D01*
X76358857Y-145337571D01*
X76282666Y-145266142D01*
X76244571Y-145194714D01*
X76206476Y-145051857D01*
X76206476Y-144944714D01*
X76244571Y-144801857D01*
X76282666Y-144730428D01*
X76358857Y-144659000D01*
X76473142Y-144623285D01*
X76549333Y-144623285D01*
X76663619Y-144659000D01*
X76701714Y-144694714D01*
X77425523Y-144623285D02*
X77044571Y-144623285D01*
X77006476Y-144980428D01*
X77044571Y-144944714D01*
X77120761Y-144909000D01*
X77311238Y-144909000D01*
X77387428Y-144944714D01*
X77425523Y-144980428D01*
X77463619Y-145051857D01*
X77463619Y-145230428D01*
X77425523Y-145301857D01*
X77387428Y-145337571D01*
X77311238Y-145373285D01*
X77120761Y-145373285D01*
X77044571Y-145337571D01*
X77006476Y-145301857D01*
X77730285Y-144623285D02*
X78263619Y-144623285D01*
X77920761Y-145373285D01*
%TO.C,C56*%
X68065714Y-138692857D02*
X68027619Y-138728571D01*
X67913333Y-138764285D01*
X67837142Y-138764285D01*
X67722857Y-138728571D01*
X67646666Y-138657142D01*
X67608571Y-138585714D01*
X67570476Y-138442857D01*
X67570476Y-138335714D01*
X67608571Y-138192857D01*
X67646666Y-138121428D01*
X67722857Y-138050000D01*
X67837142Y-138014285D01*
X67913333Y-138014285D01*
X68027619Y-138050000D01*
X68065714Y-138085714D01*
X68789523Y-138014285D02*
X68408571Y-138014285D01*
X68370476Y-138371428D01*
X68408571Y-138335714D01*
X68484761Y-138300000D01*
X68675238Y-138300000D01*
X68751428Y-138335714D01*
X68789523Y-138371428D01*
X68827619Y-138442857D01*
X68827619Y-138621428D01*
X68789523Y-138692857D01*
X68751428Y-138728571D01*
X68675238Y-138764285D01*
X68484761Y-138764285D01*
X68408571Y-138728571D01*
X68370476Y-138692857D01*
X69513333Y-138014285D02*
X69360952Y-138014285D01*
X69284761Y-138050000D01*
X69246666Y-138085714D01*
X69170476Y-138192857D01*
X69132380Y-138335714D01*
X69132380Y-138621428D01*
X69170476Y-138692857D01*
X69208571Y-138728571D01*
X69284761Y-138764285D01*
X69437142Y-138764285D01*
X69513333Y-138728571D01*
X69551428Y-138692857D01*
X69589523Y-138621428D01*
X69589523Y-138442857D01*
X69551428Y-138371428D01*
X69513333Y-138335714D01*
X69437142Y-138300000D01*
X69284761Y-138300000D01*
X69208571Y-138335714D01*
X69170476Y-138371428D01*
X69132380Y-138442857D01*
%TO.C,C46*%
X65271714Y-134633857D02*
X65233619Y-134669571D01*
X65119333Y-134705285D01*
X65043142Y-134705285D01*
X64928857Y-134669571D01*
X64852666Y-134598142D01*
X64814571Y-134526714D01*
X64776476Y-134383857D01*
X64776476Y-134276714D01*
X64814571Y-134133857D01*
X64852666Y-134062428D01*
X64928857Y-133991000D01*
X65043142Y-133955285D01*
X65119333Y-133955285D01*
X65233619Y-133991000D01*
X65271714Y-134026714D01*
X65957428Y-134205285D02*
X65957428Y-134705285D01*
X65766952Y-133919571D02*
X65576476Y-134455285D01*
X66071714Y-134455285D01*
X66719333Y-133955285D02*
X66566952Y-133955285D01*
X66490761Y-133991000D01*
X66452666Y-134026714D01*
X66376476Y-134133857D01*
X66338380Y-134276714D01*
X66338380Y-134562428D01*
X66376476Y-134633857D01*
X66414571Y-134669571D01*
X66490761Y-134705285D01*
X66643142Y-134705285D01*
X66719333Y-134669571D01*
X66757428Y-134633857D01*
X66795523Y-134562428D01*
X66795523Y-134383857D01*
X66757428Y-134312428D01*
X66719333Y-134276714D01*
X66643142Y-134241000D01*
X66490761Y-134241000D01*
X66414571Y-134276714D01*
X66376476Y-134312428D01*
X66338380Y-134383857D01*
%TO.C,C26*%
X69405714Y-114677857D02*
X69367619Y-114713571D01*
X69253333Y-114749285D01*
X69177142Y-114749285D01*
X69062857Y-114713571D01*
X68986666Y-114642142D01*
X68948571Y-114570714D01*
X68910476Y-114427857D01*
X68910476Y-114320714D01*
X68948571Y-114177857D01*
X68986666Y-114106428D01*
X69062857Y-114035000D01*
X69177142Y-113999285D01*
X69253333Y-113999285D01*
X69367619Y-114035000D01*
X69405714Y-114070714D01*
X69710476Y-114070714D02*
X69748571Y-114035000D01*
X69824761Y-113999285D01*
X70015238Y-113999285D01*
X70091428Y-114035000D01*
X70129523Y-114070714D01*
X70167619Y-114142142D01*
X70167619Y-114213571D01*
X70129523Y-114320714D01*
X69672380Y-114749285D01*
X70167619Y-114749285D01*
X70853333Y-113999285D02*
X70700952Y-113999285D01*
X70624761Y-114035000D01*
X70586666Y-114070714D01*
X70510476Y-114177857D01*
X70472380Y-114320714D01*
X70472380Y-114606428D01*
X70510476Y-114677857D01*
X70548571Y-114713571D01*
X70624761Y-114749285D01*
X70777142Y-114749285D01*
X70853333Y-114713571D01*
X70891428Y-114677857D01*
X70929523Y-114606428D01*
X70929523Y-114427857D01*
X70891428Y-114356428D01*
X70853333Y-114320714D01*
X70777142Y-114285000D01*
X70624761Y-114285000D01*
X70548571Y-114320714D01*
X70510476Y-114356428D01*
X70472380Y-114427857D01*
%TO.C,C25*%
X65525714Y-125235857D02*
X65487619Y-125271571D01*
X65373333Y-125307285D01*
X65297142Y-125307285D01*
X65182857Y-125271571D01*
X65106666Y-125200142D01*
X65068571Y-125128714D01*
X65030476Y-124985857D01*
X65030476Y-124878714D01*
X65068571Y-124735857D01*
X65106666Y-124664428D01*
X65182857Y-124593000D01*
X65297142Y-124557285D01*
X65373333Y-124557285D01*
X65487619Y-124593000D01*
X65525714Y-124628714D01*
X65830476Y-124628714D02*
X65868571Y-124593000D01*
X65944761Y-124557285D01*
X66135238Y-124557285D01*
X66211428Y-124593000D01*
X66249523Y-124628714D01*
X66287619Y-124700142D01*
X66287619Y-124771571D01*
X66249523Y-124878714D01*
X65792380Y-125307285D01*
X66287619Y-125307285D01*
X67011428Y-124557285D02*
X66630476Y-124557285D01*
X66592380Y-124914428D01*
X66630476Y-124878714D01*
X66706666Y-124843000D01*
X66897142Y-124843000D01*
X66973333Y-124878714D01*
X67011428Y-124914428D01*
X67049523Y-124985857D01*
X67049523Y-125164428D01*
X67011428Y-125235857D01*
X66973333Y-125271571D01*
X66897142Y-125307285D01*
X66706666Y-125307285D01*
X66630476Y-125271571D01*
X66592380Y-125235857D01*
%TO.C,C24*%
X69335714Y-136157857D02*
X69297619Y-136193571D01*
X69183333Y-136229285D01*
X69107142Y-136229285D01*
X68992857Y-136193571D01*
X68916666Y-136122142D01*
X68878571Y-136050714D01*
X68840476Y-135907857D01*
X68840476Y-135800714D01*
X68878571Y-135657857D01*
X68916666Y-135586428D01*
X68992857Y-135515000D01*
X69107142Y-135479285D01*
X69183333Y-135479285D01*
X69297619Y-135515000D01*
X69335714Y-135550714D01*
X69640476Y-135550714D02*
X69678571Y-135515000D01*
X69754761Y-135479285D01*
X69945238Y-135479285D01*
X70021428Y-135515000D01*
X70059523Y-135550714D01*
X70097619Y-135622142D01*
X70097619Y-135693571D01*
X70059523Y-135800714D01*
X69602380Y-136229285D01*
X70097619Y-136229285D01*
X70783333Y-135729285D02*
X70783333Y-136229285D01*
X70592857Y-135443571D02*
X70402380Y-135979285D01*
X70897619Y-135979285D01*
%TO.C,C23*%
X78987714Y-136157857D02*
X78949619Y-136193571D01*
X78835333Y-136229285D01*
X78759142Y-136229285D01*
X78644857Y-136193571D01*
X78568666Y-136122142D01*
X78530571Y-136050714D01*
X78492476Y-135907857D01*
X78492476Y-135800714D01*
X78530571Y-135657857D01*
X78568666Y-135586428D01*
X78644857Y-135515000D01*
X78759142Y-135479285D01*
X78835333Y-135479285D01*
X78949619Y-135515000D01*
X78987714Y-135550714D01*
X79292476Y-135550714D02*
X79330571Y-135515000D01*
X79406761Y-135479285D01*
X79597238Y-135479285D01*
X79673428Y-135515000D01*
X79711523Y-135550714D01*
X79749619Y-135622142D01*
X79749619Y-135693571D01*
X79711523Y-135800714D01*
X79254380Y-136229285D01*
X79749619Y-136229285D01*
X80016285Y-135479285D02*
X80511523Y-135479285D01*
X80244857Y-135765000D01*
X80359142Y-135765000D01*
X80435333Y-135800714D01*
X80473428Y-135836428D01*
X80511523Y-135907857D01*
X80511523Y-136086428D01*
X80473428Y-136157857D01*
X80435333Y-136193571D01*
X80359142Y-136229285D01*
X80130571Y-136229285D01*
X80054380Y-136193571D01*
X80016285Y-136157857D01*
%TO.C,C22*%
X85835714Y-121417857D02*
X85797619Y-121453571D01*
X85683333Y-121489285D01*
X85607142Y-121489285D01*
X85492857Y-121453571D01*
X85416666Y-121382142D01*
X85378571Y-121310714D01*
X85340476Y-121167857D01*
X85340476Y-121060714D01*
X85378571Y-120917857D01*
X85416666Y-120846428D01*
X85492857Y-120775000D01*
X85607142Y-120739285D01*
X85683333Y-120739285D01*
X85797619Y-120775000D01*
X85835714Y-120810714D01*
X86140476Y-120810714D02*
X86178571Y-120775000D01*
X86254761Y-120739285D01*
X86445238Y-120739285D01*
X86521428Y-120775000D01*
X86559523Y-120810714D01*
X86597619Y-120882142D01*
X86597619Y-120953571D01*
X86559523Y-121060714D01*
X86102380Y-121489285D01*
X86597619Y-121489285D01*
X86902380Y-120810714D02*
X86940476Y-120775000D01*
X87016666Y-120739285D01*
X87207142Y-120739285D01*
X87283333Y-120775000D01*
X87321428Y-120810714D01*
X87359523Y-120882142D01*
X87359523Y-120953571D01*
X87321428Y-121060714D01*
X86864285Y-121489285D01*
X87359523Y-121489285D01*
%TO.C,C11*%
X65525714Y-126759857D02*
X65487619Y-126795571D01*
X65373333Y-126831285D01*
X65297142Y-126831285D01*
X65182857Y-126795571D01*
X65106666Y-126724142D01*
X65068571Y-126652714D01*
X65030476Y-126509857D01*
X65030476Y-126402714D01*
X65068571Y-126259857D01*
X65106666Y-126188428D01*
X65182857Y-126117000D01*
X65297142Y-126081285D01*
X65373333Y-126081285D01*
X65487619Y-126117000D01*
X65525714Y-126152714D01*
X66287619Y-126831285D02*
X65830476Y-126831285D01*
X66059047Y-126831285D02*
X66059047Y-126081285D01*
X65982857Y-126188428D01*
X65906666Y-126259857D01*
X65830476Y-126295571D01*
X67049523Y-126831285D02*
X66592380Y-126831285D01*
X66820952Y-126831285D02*
X66820952Y-126081285D01*
X66744761Y-126188428D01*
X66668571Y-126259857D01*
X66592380Y-126295571D01*
%TO.C,C6*%
X65652666Y-119901857D02*
X65614571Y-119937571D01*
X65500285Y-119973285D01*
X65424095Y-119973285D01*
X65309809Y-119937571D01*
X65233619Y-119866142D01*
X65195523Y-119794714D01*
X65157428Y-119651857D01*
X65157428Y-119544714D01*
X65195523Y-119401857D01*
X65233619Y-119330428D01*
X65309809Y-119259000D01*
X65424095Y-119223285D01*
X65500285Y-119223285D01*
X65614571Y-119259000D01*
X65652666Y-119294714D01*
X66338380Y-119223285D02*
X66186000Y-119223285D01*
X66109809Y-119259000D01*
X66071714Y-119294714D01*
X65995523Y-119401857D01*
X65957428Y-119544714D01*
X65957428Y-119830428D01*
X65995523Y-119901857D01*
X66033619Y-119937571D01*
X66109809Y-119973285D01*
X66262190Y-119973285D01*
X66338380Y-119937571D01*
X66376476Y-119901857D01*
X66414571Y-119830428D01*
X66414571Y-119651857D01*
X66376476Y-119580428D01*
X66338380Y-119544714D01*
X66262190Y-119509000D01*
X66109809Y-119509000D01*
X66033619Y-119544714D01*
X65995523Y-119580428D01*
X65957428Y-119651857D01*
%TO.C,C54*%
X66033714Y-159271857D02*
X65995619Y-159307571D01*
X65881333Y-159343285D01*
X65805142Y-159343285D01*
X65690857Y-159307571D01*
X65614666Y-159236142D01*
X65576571Y-159164714D01*
X65538476Y-159021857D01*
X65538476Y-158914714D01*
X65576571Y-158771857D01*
X65614666Y-158700428D01*
X65690857Y-158629000D01*
X65805142Y-158593285D01*
X65881333Y-158593285D01*
X65995619Y-158629000D01*
X66033714Y-158664714D01*
X66757523Y-158593285D02*
X66376571Y-158593285D01*
X66338476Y-158950428D01*
X66376571Y-158914714D01*
X66452761Y-158879000D01*
X66643238Y-158879000D01*
X66719428Y-158914714D01*
X66757523Y-158950428D01*
X66795619Y-159021857D01*
X66795619Y-159200428D01*
X66757523Y-159271857D01*
X66719428Y-159307571D01*
X66643238Y-159343285D01*
X66452761Y-159343285D01*
X66376571Y-159307571D01*
X66338476Y-159271857D01*
X67481333Y-158843285D02*
X67481333Y-159343285D01*
X67290857Y-158557571D02*
X67100380Y-159093285D01*
X67595619Y-159093285D01*
%TO.C,C39*%
X61160714Y-151629857D02*
X61122619Y-151665571D01*
X61008333Y-151701285D01*
X60932142Y-151701285D01*
X60817857Y-151665571D01*
X60741666Y-151594142D01*
X60703571Y-151522714D01*
X60665476Y-151379857D01*
X60665476Y-151272714D01*
X60703571Y-151129857D01*
X60741666Y-151058428D01*
X60817857Y-150987000D01*
X60932142Y-150951285D01*
X61008333Y-150951285D01*
X61122619Y-150987000D01*
X61160714Y-151022714D01*
X61427380Y-150951285D02*
X61922619Y-150951285D01*
X61655952Y-151237000D01*
X61770238Y-151237000D01*
X61846428Y-151272714D01*
X61884523Y-151308428D01*
X61922619Y-151379857D01*
X61922619Y-151558428D01*
X61884523Y-151629857D01*
X61846428Y-151665571D01*
X61770238Y-151701285D01*
X61541666Y-151701285D01*
X61465476Y-151665571D01*
X61427380Y-151629857D01*
X62303571Y-151701285D02*
X62455952Y-151701285D01*
X62532142Y-151665571D01*
X62570238Y-151629857D01*
X62646428Y-151522714D01*
X62684523Y-151379857D01*
X62684523Y-151094142D01*
X62646428Y-151022714D01*
X62608333Y-150987000D01*
X62532142Y-150951285D01*
X62379761Y-150951285D01*
X62303571Y-150987000D01*
X62265476Y-151022714D01*
X62227380Y-151094142D01*
X62227380Y-151272714D01*
X62265476Y-151344142D01*
X62303571Y-151379857D01*
X62379761Y-151415571D01*
X62532142Y-151415571D01*
X62608333Y-151379857D01*
X62646428Y-151344142D01*
X62684523Y-151272714D01*
%TO.C,C38*%
X39715714Y-130187857D02*
X39677619Y-130223571D01*
X39563333Y-130259285D01*
X39487142Y-130259285D01*
X39372857Y-130223571D01*
X39296666Y-130152142D01*
X39258571Y-130080714D01*
X39220476Y-129937857D01*
X39220476Y-129830714D01*
X39258571Y-129687857D01*
X39296666Y-129616428D01*
X39372857Y-129545000D01*
X39487142Y-129509285D01*
X39563333Y-129509285D01*
X39677619Y-129545000D01*
X39715714Y-129580714D01*
X39982380Y-129509285D02*
X40477619Y-129509285D01*
X40210952Y-129795000D01*
X40325238Y-129795000D01*
X40401428Y-129830714D01*
X40439523Y-129866428D01*
X40477619Y-129937857D01*
X40477619Y-130116428D01*
X40439523Y-130187857D01*
X40401428Y-130223571D01*
X40325238Y-130259285D01*
X40096666Y-130259285D01*
X40020476Y-130223571D01*
X39982380Y-130187857D01*
X40934761Y-129830714D02*
X40858571Y-129795000D01*
X40820476Y-129759285D01*
X40782380Y-129687857D01*
X40782380Y-129652142D01*
X40820476Y-129580714D01*
X40858571Y-129545000D01*
X40934761Y-129509285D01*
X41087142Y-129509285D01*
X41163333Y-129545000D01*
X41201428Y-129580714D01*
X41239523Y-129652142D01*
X41239523Y-129687857D01*
X41201428Y-129759285D01*
X41163333Y-129795000D01*
X41087142Y-129830714D01*
X40934761Y-129830714D01*
X40858571Y-129866428D01*
X40820476Y-129902142D01*
X40782380Y-129973571D01*
X40782380Y-130116428D01*
X40820476Y-130187857D01*
X40858571Y-130223571D01*
X40934761Y-130259285D01*
X41087142Y-130259285D01*
X41163333Y-130223571D01*
X41201428Y-130187857D01*
X41239523Y-130116428D01*
X41239523Y-129973571D01*
X41201428Y-129902142D01*
X41163333Y-129866428D01*
X41087142Y-129830714D01*
%TO.C,C33*%
X42919714Y-143015857D02*
X42881619Y-143051571D01*
X42767333Y-143087285D01*
X42691142Y-143087285D01*
X42576857Y-143051571D01*
X42500666Y-142980142D01*
X42462571Y-142908714D01*
X42424476Y-142765857D01*
X42424476Y-142658714D01*
X42462571Y-142515857D01*
X42500666Y-142444428D01*
X42576857Y-142373000D01*
X42691142Y-142337285D01*
X42767333Y-142337285D01*
X42881619Y-142373000D01*
X42919714Y-142408714D01*
X43186380Y-142337285D02*
X43681619Y-142337285D01*
X43414952Y-142623000D01*
X43529238Y-142623000D01*
X43605428Y-142658714D01*
X43643523Y-142694428D01*
X43681619Y-142765857D01*
X43681619Y-142944428D01*
X43643523Y-143015857D01*
X43605428Y-143051571D01*
X43529238Y-143087285D01*
X43300666Y-143087285D01*
X43224476Y-143051571D01*
X43186380Y-143015857D01*
X43948285Y-142337285D02*
X44443523Y-142337285D01*
X44176857Y-142623000D01*
X44291142Y-142623000D01*
X44367333Y-142658714D01*
X44405428Y-142694428D01*
X44443523Y-142765857D01*
X44443523Y-142944428D01*
X44405428Y-143015857D01*
X44367333Y-143051571D01*
X44291142Y-143087285D01*
X44062571Y-143087285D01*
X43986380Y-143051571D01*
X43948285Y-143015857D01*
%TO.C,C31*%
X88639714Y-141237857D02*
X88601619Y-141273571D01*
X88487333Y-141309285D01*
X88411142Y-141309285D01*
X88296857Y-141273571D01*
X88220666Y-141202142D01*
X88182571Y-141130714D01*
X88144476Y-140987857D01*
X88144476Y-140880714D01*
X88182571Y-140737857D01*
X88220666Y-140666428D01*
X88296857Y-140595000D01*
X88411142Y-140559285D01*
X88487333Y-140559285D01*
X88601619Y-140595000D01*
X88639714Y-140630714D01*
X88906380Y-140559285D02*
X89401619Y-140559285D01*
X89134952Y-140845000D01*
X89249238Y-140845000D01*
X89325428Y-140880714D01*
X89363523Y-140916428D01*
X89401619Y-140987857D01*
X89401619Y-141166428D01*
X89363523Y-141237857D01*
X89325428Y-141273571D01*
X89249238Y-141309285D01*
X89020666Y-141309285D01*
X88944476Y-141273571D01*
X88906380Y-141237857D01*
X90163523Y-141309285D02*
X89706380Y-141309285D01*
X89934952Y-141309285D02*
X89934952Y-140559285D01*
X89858761Y-140666428D01*
X89782571Y-140737857D01*
X89706380Y-140773571D01*
%TO.C,C30*%
X56381714Y-138443857D02*
X56343619Y-138479571D01*
X56229333Y-138515285D01*
X56153142Y-138515285D01*
X56038857Y-138479571D01*
X55962666Y-138408142D01*
X55924571Y-138336714D01*
X55886476Y-138193857D01*
X55886476Y-138086714D01*
X55924571Y-137943857D01*
X55962666Y-137872428D01*
X56038857Y-137801000D01*
X56153142Y-137765285D01*
X56229333Y-137765285D01*
X56343619Y-137801000D01*
X56381714Y-137836714D01*
X56648380Y-137765285D02*
X57143619Y-137765285D01*
X56876952Y-138051000D01*
X56991238Y-138051000D01*
X57067428Y-138086714D01*
X57105523Y-138122428D01*
X57143619Y-138193857D01*
X57143619Y-138372428D01*
X57105523Y-138443857D01*
X57067428Y-138479571D01*
X56991238Y-138515285D01*
X56762666Y-138515285D01*
X56686476Y-138479571D01*
X56648380Y-138443857D01*
X57638857Y-137765285D02*
X57715047Y-137765285D01*
X57791238Y-137801000D01*
X57829333Y-137836714D01*
X57867428Y-137908142D01*
X57905523Y-138051000D01*
X57905523Y-138229571D01*
X57867428Y-138372428D01*
X57829333Y-138443857D01*
X57791238Y-138479571D01*
X57715047Y-138515285D01*
X57638857Y-138515285D01*
X57562666Y-138479571D01*
X57524571Y-138443857D01*
X57486476Y-138372428D01*
X57448380Y-138229571D01*
X57448380Y-138051000D01*
X57486476Y-137908142D01*
X57524571Y-137836714D01*
X57562666Y-137801000D01*
X57638857Y-137765285D01*
%TO.C,C17*%
X81781714Y-136157857D02*
X81743619Y-136193571D01*
X81629333Y-136229285D01*
X81553142Y-136229285D01*
X81438857Y-136193571D01*
X81362666Y-136122142D01*
X81324571Y-136050714D01*
X81286476Y-135907857D01*
X81286476Y-135800714D01*
X81324571Y-135657857D01*
X81362666Y-135586428D01*
X81438857Y-135515000D01*
X81553142Y-135479285D01*
X81629333Y-135479285D01*
X81743619Y-135515000D01*
X81781714Y-135550714D01*
X82543619Y-136229285D02*
X82086476Y-136229285D01*
X82315047Y-136229285D02*
X82315047Y-135479285D01*
X82238857Y-135586428D01*
X82162666Y-135657857D01*
X82086476Y-135693571D01*
X82810285Y-135479285D02*
X83343619Y-135479285D01*
X83000761Y-136229285D01*
%TO.C,C16*%
X89760714Y-118117857D02*
X89722619Y-118153571D01*
X89608333Y-118189285D01*
X89532142Y-118189285D01*
X89417857Y-118153571D01*
X89341666Y-118082142D01*
X89303571Y-118010714D01*
X89265476Y-117867857D01*
X89265476Y-117760714D01*
X89303571Y-117617857D01*
X89341666Y-117546428D01*
X89417857Y-117475000D01*
X89532142Y-117439285D01*
X89608333Y-117439285D01*
X89722619Y-117475000D01*
X89760714Y-117510714D01*
X90522619Y-118189285D02*
X90065476Y-118189285D01*
X90294047Y-118189285D02*
X90294047Y-117439285D01*
X90217857Y-117546428D01*
X90141666Y-117617857D01*
X90065476Y-117653571D01*
X91208333Y-117439285D02*
X91055952Y-117439285D01*
X90979761Y-117475000D01*
X90941666Y-117510714D01*
X90865476Y-117617857D01*
X90827380Y-117760714D01*
X90827380Y-118046428D01*
X90865476Y-118117857D01*
X90903571Y-118153571D01*
X90979761Y-118189285D01*
X91132142Y-118189285D01*
X91208333Y-118153571D01*
X91246428Y-118117857D01*
X91284523Y-118046428D01*
X91284523Y-117867857D01*
X91246428Y-117796428D01*
X91208333Y-117760714D01*
X91132142Y-117725000D01*
X90979761Y-117725000D01*
X90903571Y-117760714D01*
X90865476Y-117796428D01*
X90827380Y-117867857D01*
%TO.C,C8*%
X59048666Y-125235857D02*
X59010571Y-125271571D01*
X58896285Y-125307285D01*
X58820095Y-125307285D01*
X58705809Y-125271571D01*
X58629619Y-125200142D01*
X58591523Y-125128714D01*
X58553428Y-124985857D01*
X58553428Y-124878714D01*
X58591523Y-124735857D01*
X58629619Y-124664428D01*
X58705809Y-124593000D01*
X58820095Y-124557285D01*
X58896285Y-124557285D01*
X59010571Y-124593000D01*
X59048666Y-124628714D01*
X59505809Y-124878714D02*
X59429619Y-124843000D01*
X59391523Y-124807285D01*
X59353428Y-124735857D01*
X59353428Y-124700142D01*
X59391523Y-124628714D01*
X59429619Y-124593000D01*
X59505809Y-124557285D01*
X59658190Y-124557285D01*
X59734380Y-124593000D01*
X59772476Y-124628714D01*
X59810571Y-124700142D01*
X59810571Y-124735857D01*
X59772476Y-124807285D01*
X59734380Y-124843000D01*
X59658190Y-124878714D01*
X59505809Y-124878714D01*
X59429619Y-124914428D01*
X59391523Y-124950142D01*
X59353428Y-125021571D01*
X59353428Y-125164428D01*
X59391523Y-125235857D01*
X59429619Y-125271571D01*
X59505809Y-125307285D01*
X59658190Y-125307285D01*
X59734380Y-125271571D01*
X59772476Y-125235857D01*
X59810571Y-125164428D01*
X59810571Y-125021571D01*
X59772476Y-124950142D01*
X59734380Y-124914428D01*
X59658190Y-124878714D01*
%TO.C,C2*%
X51416666Y-114267857D02*
X51378571Y-114303571D01*
X51264285Y-114339285D01*
X51188095Y-114339285D01*
X51073809Y-114303571D01*
X50997619Y-114232142D01*
X50959523Y-114160714D01*
X50921428Y-114017857D01*
X50921428Y-113910714D01*
X50959523Y-113767857D01*
X50997619Y-113696428D01*
X51073809Y-113625000D01*
X51188095Y-113589285D01*
X51264285Y-113589285D01*
X51378571Y-113625000D01*
X51416666Y-113660714D01*
X51721428Y-113660714D02*
X51759523Y-113625000D01*
X51835714Y-113589285D01*
X52026190Y-113589285D01*
X52102380Y-113625000D01*
X52140476Y-113660714D01*
X52178571Y-113732142D01*
X52178571Y-113803571D01*
X52140476Y-113910714D01*
X51683333Y-114339285D01*
X52178571Y-114339285D01*
%TO.C,C45*%
X88339714Y-144217857D02*
X88301619Y-144253571D01*
X88187333Y-144289285D01*
X88111142Y-144289285D01*
X87996857Y-144253571D01*
X87920666Y-144182142D01*
X87882571Y-144110714D01*
X87844476Y-143967857D01*
X87844476Y-143860714D01*
X87882571Y-143717857D01*
X87920666Y-143646428D01*
X87996857Y-143575000D01*
X88111142Y-143539285D01*
X88187333Y-143539285D01*
X88301619Y-143575000D01*
X88339714Y-143610714D01*
X89025428Y-143789285D02*
X89025428Y-144289285D01*
X88834952Y-143503571D02*
X88644476Y-144039285D01*
X89139714Y-144039285D01*
X89825428Y-143539285D02*
X89444476Y-143539285D01*
X89406380Y-143896428D01*
X89444476Y-143860714D01*
X89520666Y-143825000D01*
X89711142Y-143825000D01*
X89787333Y-143860714D01*
X89825428Y-143896428D01*
X89863523Y-143967857D01*
X89863523Y-144146428D01*
X89825428Y-144217857D01*
X89787333Y-144253571D01*
X89711142Y-144289285D01*
X89520666Y-144289285D01*
X89444476Y-144253571D01*
X89406380Y-144217857D01*
%TO.C,C29*%
X41435714Y-149617857D02*
X41397619Y-149653571D01*
X41283333Y-149689285D01*
X41207142Y-149689285D01*
X41092857Y-149653571D01*
X41016666Y-149582142D01*
X40978571Y-149510714D01*
X40940476Y-149367857D01*
X40940476Y-149260714D01*
X40978571Y-149117857D01*
X41016666Y-149046428D01*
X41092857Y-148975000D01*
X41207142Y-148939285D01*
X41283333Y-148939285D01*
X41397619Y-148975000D01*
X41435714Y-149010714D01*
X41740476Y-149010714D02*
X41778571Y-148975000D01*
X41854761Y-148939285D01*
X42045238Y-148939285D01*
X42121428Y-148975000D01*
X42159523Y-149010714D01*
X42197619Y-149082142D01*
X42197619Y-149153571D01*
X42159523Y-149260714D01*
X41702380Y-149689285D01*
X42197619Y-149689285D01*
X42578571Y-149689285D02*
X42730952Y-149689285D01*
X42807142Y-149653571D01*
X42845238Y-149617857D01*
X42921428Y-149510714D01*
X42959523Y-149367857D01*
X42959523Y-149082142D01*
X42921428Y-149010714D01*
X42883333Y-148975000D01*
X42807142Y-148939285D01*
X42654761Y-148939285D01*
X42578571Y-148975000D01*
X42540476Y-149010714D01*
X42502380Y-149082142D01*
X42502380Y-149260714D01*
X42540476Y-149332142D01*
X42578571Y-149367857D01*
X42654761Y-149403571D01*
X42807142Y-149403571D01*
X42883333Y-149367857D01*
X42921428Y-149332142D01*
X42959523Y-149260714D01*
%TO.C,D10*%
X39668571Y-143341285D02*
X39668571Y-142591285D01*
X39859047Y-142591285D01*
X39973333Y-142627000D01*
X40049523Y-142698428D01*
X40087619Y-142769857D01*
X40125714Y-142912714D01*
X40125714Y-143019857D01*
X40087619Y-143162714D01*
X40049523Y-143234142D01*
X39973333Y-143305571D01*
X39859047Y-143341285D01*
X39668571Y-143341285D01*
X40887619Y-143341285D02*
X40430476Y-143341285D01*
X40659047Y-143341285D02*
X40659047Y-142591285D01*
X40582857Y-142698428D01*
X40506666Y-142769857D01*
X40430476Y-142805571D01*
X41382857Y-142591285D02*
X41459047Y-142591285D01*
X41535238Y-142627000D01*
X41573333Y-142662714D01*
X41611428Y-142734142D01*
X41649523Y-142877000D01*
X41649523Y-143055571D01*
X41611428Y-143198428D01*
X41573333Y-143269857D01*
X41535238Y-143305571D01*
X41459047Y-143341285D01*
X41382857Y-143341285D01*
X41306666Y-143305571D01*
X41268571Y-143269857D01*
X41230476Y-143198428D01*
X41192380Y-143055571D01*
X41192380Y-142877000D01*
X41230476Y-142734142D01*
X41268571Y-142662714D01*
X41306666Y-142627000D01*
X41382857Y-142591285D01*
%TO.C,D8*%
X39859523Y-107289285D02*
X39859523Y-106539285D01*
X40050000Y-106539285D01*
X40164285Y-106575000D01*
X40240476Y-106646428D01*
X40278571Y-106717857D01*
X40316666Y-106860714D01*
X40316666Y-106967857D01*
X40278571Y-107110714D01*
X40240476Y-107182142D01*
X40164285Y-107253571D01*
X40050000Y-107289285D01*
X39859523Y-107289285D01*
X40773809Y-106860714D02*
X40697619Y-106825000D01*
X40659523Y-106789285D01*
X40621428Y-106717857D01*
X40621428Y-106682142D01*
X40659523Y-106610714D01*
X40697619Y-106575000D01*
X40773809Y-106539285D01*
X40926190Y-106539285D01*
X41002380Y-106575000D01*
X41040476Y-106610714D01*
X41078571Y-106682142D01*
X41078571Y-106717857D01*
X41040476Y-106789285D01*
X41002380Y-106825000D01*
X40926190Y-106860714D01*
X40773809Y-106860714D01*
X40697619Y-106896428D01*
X40659523Y-106932142D01*
X40621428Y-107003571D01*
X40621428Y-107146428D01*
X40659523Y-107217857D01*
X40697619Y-107253571D01*
X40773809Y-107289285D01*
X40926190Y-107289285D01*
X41002380Y-107253571D01*
X41040476Y-107217857D01*
X41078571Y-107146428D01*
X41078571Y-107003571D01*
X41040476Y-106932142D01*
X41002380Y-106896428D01*
X40926190Y-106860714D01*
%TO.C,U9*%
X43290476Y-141089285D02*
X43290476Y-141696428D01*
X43328571Y-141767857D01*
X43366666Y-141803571D01*
X43442857Y-141839285D01*
X43595238Y-141839285D01*
X43671428Y-141803571D01*
X43709523Y-141767857D01*
X43747619Y-141696428D01*
X43747619Y-141089285D01*
X44166666Y-141839285D02*
X44319047Y-141839285D01*
X44395238Y-141803571D01*
X44433333Y-141767857D01*
X44509523Y-141660714D01*
X44547619Y-141517857D01*
X44547619Y-141232142D01*
X44509523Y-141160714D01*
X44471428Y-141125000D01*
X44395238Y-141089285D01*
X44242857Y-141089285D01*
X44166666Y-141125000D01*
X44128571Y-141160714D01*
X44090476Y-141232142D01*
X44090476Y-141410714D01*
X44128571Y-141482142D01*
X44166666Y-141517857D01*
X44242857Y-141553571D01*
X44395238Y-141553571D01*
X44471428Y-141517857D01*
X44509523Y-141482142D01*
X44547619Y-141410714D01*
%TO.C,U3*%
X56990476Y-130189285D02*
X56990476Y-130796428D01*
X57028571Y-130867857D01*
X57066666Y-130903571D01*
X57142857Y-130939285D01*
X57295238Y-130939285D01*
X57371428Y-130903571D01*
X57409523Y-130867857D01*
X57447619Y-130796428D01*
X57447619Y-130189285D01*
X57752380Y-130189285D02*
X58247619Y-130189285D01*
X57980952Y-130475000D01*
X58095238Y-130475000D01*
X58171428Y-130510714D01*
X58209523Y-130546428D01*
X58247619Y-130617857D01*
X58247619Y-130796428D01*
X58209523Y-130867857D01*
X58171428Y-130903571D01*
X58095238Y-130939285D01*
X57866666Y-130939285D01*
X57790476Y-130903571D01*
X57752380Y-130867857D01*
%TO.C,R37*%
X53079714Y-123529285D02*
X52813047Y-123172142D01*
X52622571Y-123529285D02*
X52622571Y-122779285D01*
X52927333Y-122779285D01*
X53003523Y-122815000D01*
X53041619Y-122850714D01*
X53079714Y-122922142D01*
X53079714Y-123029285D01*
X53041619Y-123100714D01*
X53003523Y-123136428D01*
X52927333Y-123172142D01*
X52622571Y-123172142D01*
X53346380Y-122779285D02*
X53841619Y-122779285D01*
X53574952Y-123065000D01*
X53689238Y-123065000D01*
X53765428Y-123100714D01*
X53803523Y-123136428D01*
X53841619Y-123207857D01*
X53841619Y-123386428D01*
X53803523Y-123457857D01*
X53765428Y-123493571D01*
X53689238Y-123529285D01*
X53460666Y-123529285D01*
X53384476Y-123493571D01*
X53346380Y-123457857D01*
X54108285Y-122779285D02*
X54641619Y-122779285D01*
X54298761Y-123529285D01*
%TO.C,R6*%
X42886666Y-154269285D02*
X42620000Y-153912142D01*
X42429523Y-154269285D02*
X42429523Y-153519285D01*
X42734285Y-153519285D01*
X42810476Y-153555000D01*
X42848571Y-153590714D01*
X42886666Y-153662142D01*
X42886666Y-153769285D01*
X42848571Y-153840714D01*
X42810476Y-153876428D01*
X42734285Y-153912142D01*
X42429523Y-153912142D01*
X43572380Y-153519285D02*
X43420000Y-153519285D01*
X43343809Y-153555000D01*
X43305714Y-153590714D01*
X43229523Y-153697857D01*
X43191428Y-153840714D01*
X43191428Y-154126428D01*
X43229523Y-154197857D01*
X43267619Y-154233571D01*
X43343809Y-154269285D01*
X43496190Y-154269285D01*
X43572380Y-154233571D01*
X43610476Y-154197857D01*
X43648571Y-154126428D01*
X43648571Y-153947857D01*
X43610476Y-153876428D01*
X43572380Y-153840714D01*
X43496190Y-153805000D01*
X43343809Y-153805000D01*
X43267619Y-153840714D01*
X43229523Y-153876428D01*
X43191428Y-153947857D01*
%TO.C,R2*%
X40536666Y-118829285D02*
X40270000Y-118472142D01*
X40079523Y-118829285D02*
X40079523Y-118079285D01*
X40384285Y-118079285D01*
X40460476Y-118115000D01*
X40498571Y-118150714D01*
X40536666Y-118222142D01*
X40536666Y-118329285D01*
X40498571Y-118400714D01*
X40460476Y-118436428D01*
X40384285Y-118472142D01*
X40079523Y-118472142D01*
X40841428Y-118150714D02*
X40879523Y-118115000D01*
X40955714Y-118079285D01*
X41146190Y-118079285D01*
X41222380Y-118115000D01*
X41260476Y-118150714D01*
X41298571Y-118222142D01*
X41298571Y-118293571D01*
X41260476Y-118400714D01*
X40803333Y-118829285D01*
X41298571Y-118829285D01*
%TO.C,D11*%
X65576571Y-145499285D02*
X65576571Y-144749285D01*
X65767047Y-144749285D01*
X65881333Y-144785000D01*
X65957523Y-144856428D01*
X65995619Y-144927857D01*
X66033714Y-145070714D01*
X66033714Y-145177857D01*
X65995619Y-145320714D01*
X65957523Y-145392142D01*
X65881333Y-145463571D01*
X65767047Y-145499285D01*
X65576571Y-145499285D01*
X66795619Y-145499285D02*
X66338476Y-145499285D01*
X66567047Y-145499285D02*
X66567047Y-144749285D01*
X66490857Y-144856428D01*
X66414666Y-144927857D01*
X66338476Y-144963571D01*
X67557523Y-145499285D02*
X67100380Y-145499285D01*
X67328952Y-145499285D02*
X67328952Y-144749285D01*
X67252761Y-144856428D01*
X67176571Y-144927857D01*
X67100380Y-144963571D01*
%TO.C,D6*%
X45484523Y-131139285D02*
X45484523Y-130389285D01*
X45675000Y-130389285D01*
X45789285Y-130425000D01*
X45865476Y-130496428D01*
X45903571Y-130567857D01*
X45941666Y-130710714D01*
X45941666Y-130817857D01*
X45903571Y-130960714D01*
X45865476Y-131032142D01*
X45789285Y-131103571D01*
X45675000Y-131139285D01*
X45484523Y-131139285D01*
X46627380Y-130389285D02*
X46475000Y-130389285D01*
X46398809Y-130425000D01*
X46360714Y-130460714D01*
X46284523Y-130567857D01*
X46246428Y-130710714D01*
X46246428Y-130996428D01*
X46284523Y-131067857D01*
X46322619Y-131103571D01*
X46398809Y-131139285D01*
X46551190Y-131139285D01*
X46627380Y-131103571D01*
X46665476Y-131067857D01*
X46703571Y-130996428D01*
X46703571Y-130817857D01*
X46665476Y-130746428D01*
X46627380Y-130710714D01*
X46551190Y-130675000D01*
X46398809Y-130675000D01*
X46322619Y-130710714D01*
X46284523Y-130746428D01*
X46246428Y-130817857D01*
%TO.C,D3*%
X42309523Y-153089285D02*
X42309523Y-152339285D01*
X42500000Y-152339285D01*
X42614285Y-152375000D01*
X42690476Y-152446428D01*
X42728571Y-152517857D01*
X42766666Y-152660714D01*
X42766666Y-152767857D01*
X42728571Y-152910714D01*
X42690476Y-152982142D01*
X42614285Y-153053571D01*
X42500000Y-153089285D01*
X42309523Y-153089285D01*
X43033333Y-152339285D02*
X43528571Y-152339285D01*
X43261904Y-152625000D01*
X43376190Y-152625000D01*
X43452380Y-152660714D01*
X43490476Y-152696428D01*
X43528571Y-152767857D01*
X43528571Y-152946428D01*
X43490476Y-153017857D01*
X43452380Y-153053571D01*
X43376190Y-153089285D01*
X43147619Y-153089285D01*
X43071428Y-153053571D01*
X43033333Y-153017857D01*
%TO.C,D2*%
X36913523Y-119249285D02*
X36913523Y-118499285D01*
X37104000Y-118499285D01*
X37218285Y-118535000D01*
X37294476Y-118606428D01*
X37332571Y-118677857D01*
X37370666Y-118820714D01*
X37370666Y-118927857D01*
X37332571Y-119070714D01*
X37294476Y-119142142D01*
X37218285Y-119213571D01*
X37104000Y-119249285D01*
X36913523Y-119249285D01*
X37675428Y-118570714D02*
X37713523Y-118535000D01*
X37789714Y-118499285D01*
X37980190Y-118499285D01*
X38056380Y-118535000D01*
X38094476Y-118570714D01*
X38132571Y-118642142D01*
X38132571Y-118713571D01*
X38094476Y-118820714D01*
X37637333Y-119249285D01*
X38132571Y-119249285D01*
%TO.C,R20*%
X55365714Y-150431285D02*
X55099047Y-150074142D01*
X54908571Y-150431285D02*
X54908571Y-149681285D01*
X55213333Y-149681285D01*
X55289523Y-149717000D01*
X55327619Y-149752714D01*
X55365714Y-149824142D01*
X55365714Y-149931285D01*
X55327619Y-150002714D01*
X55289523Y-150038428D01*
X55213333Y-150074142D01*
X54908571Y-150074142D01*
X55670476Y-149752714D02*
X55708571Y-149717000D01*
X55784761Y-149681285D01*
X55975238Y-149681285D01*
X56051428Y-149717000D01*
X56089523Y-149752714D01*
X56127619Y-149824142D01*
X56127619Y-149895571D01*
X56089523Y-150002714D01*
X55632380Y-150431285D01*
X56127619Y-150431285D01*
X56622857Y-149681285D02*
X56699047Y-149681285D01*
X56775238Y-149717000D01*
X56813333Y-149752714D01*
X56851428Y-149824142D01*
X56889523Y-149967000D01*
X56889523Y-150145571D01*
X56851428Y-150288428D01*
X56813333Y-150359857D01*
X56775238Y-150395571D01*
X56699047Y-150431285D01*
X56622857Y-150431285D01*
X56546666Y-150395571D01*
X56508571Y-150359857D01*
X56470476Y-150288428D01*
X56432380Y-150145571D01*
X56432380Y-149967000D01*
X56470476Y-149824142D01*
X56508571Y-149752714D01*
X56546666Y-149717000D01*
X56622857Y-149681285D01*
%TO.C,R87*%
X40955714Y-151169285D02*
X40689047Y-150812142D01*
X40498571Y-151169285D02*
X40498571Y-150419285D01*
X40803333Y-150419285D01*
X40879523Y-150455000D01*
X40917619Y-150490714D01*
X40955714Y-150562142D01*
X40955714Y-150669285D01*
X40917619Y-150740714D01*
X40879523Y-150776428D01*
X40803333Y-150812142D01*
X40498571Y-150812142D01*
X41412857Y-150740714D02*
X41336666Y-150705000D01*
X41298571Y-150669285D01*
X41260476Y-150597857D01*
X41260476Y-150562142D01*
X41298571Y-150490714D01*
X41336666Y-150455000D01*
X41412857Y-150419285D01*
X41565238Y-150419285D01*
X41641428Y-150455000D01*
X41679523Y-150490714D01*
X41717619Y-150562142D01*
X41717619Y-150597857D01*
X41679523Y-150669285D01*
X41641428Y-150705000D01*
X41565238Y-150740714D01*
X41412857Y-150740714D01*
X41336666Y-150776428D01*
X41298571Y-150812142D01*
X41260476Y-150883571D01*
X41260476Y-151026428D01*
X41298571Y-151097857D01*
X41336666Y-151133571D01*
X41412857Y-151169285D01*
X41565238Y-151169285D01*
X41641428Y-151133571D01*
X41679523Y-151097857D01*
X41717619Y-151026428D01*
X41717619Y-150883571D01*
X41679523Y-150812142D01*
X41641428Y-150776428D01*
X41565238Y-150740714D01*
X41984285Y-150419285D02*
X42517619Y-150419285D01*
X42174761Y-151169285D01*
%TO.C,R49*%
X56085714Y-133339285D02*
X55819047Y-132982142D01*
X55628571Y-133339285D02*
X55628571Y-132589285D01*
X55933333Y-132589285D01*
X56009523Y-132625000D01*
X56047619Y-132660714D01*
X56085714Y-132732142D01*
X56085714Y-132839285D01*
X56047619Y-132910714D01*
X56009523Y-132946428D01*
X55933333Y-132982142D01*
X55628571Y-132982142D01*
X56771428Y-132839285D02*
X56771428Y-133339285D01*
X56580952Y-132553571D02*
X56390476Y-133089285D01*
X56885714Y-133089285D01*
X57228571Y-133339285D02*
X57380952Y-133339285D01*
X57457142Y-133303571D01*
X57495238Y-133267857D01*
X57571428Y-133160714D01*
X57609523Y-133017857D01*
X57609523Y-132732142D01*
X57571428Y-132660714D01*
X57533333Y-132625000D01*
X57457142Y-132589285D01*
X57304761Y-132589285D01*
X57228571Y-132625000D01*
X57190476Y-132660714D01*
X57152380Y-132732142D01*
X57152380Y-132910714D01*
X57190476Y-132982142D01*
X57228571Y-133017857D01*
X57304761Y-133053571D01*
X57457142Y-133053571D01*
X57533333Y-133017857D01*
X57571428Y-132982142D01*
X57609523Y-132910714D01*
%TO.C,R48*%
X40495714Y-136959285D02*
X40229047Y-136602142D01*
X40038571Y-136959285D02*
X40038571Y-136209285D01*
X40343333Y-136209285D01*
X40419523Y-136245000D01*
X40457619Y-136280714D01*
X40495714Y-136352142D01*
X40495714Y-136459285D01*
X40457619Y-136530714D01*
X40419523Y-136566428D01*
X40343333Y-136602142D01*
X40038571Y-136602142D01*
X41181428Y-136459285D02*
X41181428Y-136959285D01*
X40990952Y-136173571D02*
X40800476Y-136709285D01*
X41295714Y-136709285D01*
X41714761Y-136530714D02*
X41638571Y-136495000D01*
X41600476Y-136459285D01*
X41562380Y-136387857D01*
X41562380Y-136352142D01*
X41600476Y-136280714D01*
X41638571Y-136245000D01*
X41714761Y-136209285D01*
X41867142Y-136209285D01*
X41943333Y-136245000D01*
X41981428Y-136280714D01*
X42019523Y-136352142D01*
X42019523Y-136387857D01*
X41981428Y-136459285D01*
X41943333Y-136495000D01*
X41867142Y-136530714D01*
X41714761Y-136530714D01*
X41638571Y-136566428D01*
X41600476Y-136602142D01*
X41562380Y-136673571D01*
X41562380Y-136816428D01*
X41600476Y-136887857D01*
X41638571Y-136923571D01*
X41714761Y-136959285D01*
X41867142Y-136959285D01*
X41943333Y-136923571D01*
X41981428Y-136887857D01*
X42019523Y-136816428D01*
X42019523Y-136673571D01*
X41981428Y-136602142D01*
X41943333Y-136566428D01*
X41867142Y-136530714D01*
%TO.C,R47*%
X60860714Y-139001285D02*
X60594047Y-138644142D01*
X60403571Y-139001285D02*
X60403571Y-138251285D01*
X60708333Y-138251285D01*
X60784523Y-138287000D01*
X60822619Y-138322714D01*
X60860714Y-138394142D01*
X60860714Y-138501285D01*
X60822619Y-138572714D01*
X60784523Y-138608428D01*
X60708333Y-138644142D01*
X60403571Y-138644142D01*
X61546428Y-138501285D02*
X61546428Y-139001285D01*
X61355952Y-138215571D02*
X61165476Y-138751285D01*
X61660714Y-138751285D01*
X61889285Y-138251285D02*
X62422619Y-138251285D01*
X62079761Y-139001285D01*
%TO.C,R43*%
X48985714Y-153039285D02*
X48719047Y-152682142D01*
X48528571Y-153039285D02*
X48528571Y-152289285D01*
X48833333Y-152289285D01*
X48909523Y-152325000D01*
X48947619Y-152360714D01*
X48985714Y-152432142D01*
X48985714Y-152539285D01*
X48947619Y-152610714D01*
X48909523Y-152646428D01*
X48833333Y-152682142D01*
X48528571Y-152682142D01*
X49671428Y-152539285D02*
X49671428Y-153039285D01*
X49480952Y-152253571D02*
X49290476Y-152789285D01*
X49785714Y-152789285D01*
X50014285Y-152289285D02*
X50509523Y-152289285D01*
X50242857Y-152575000D01*
X50357142Y-152575000D01*
X50433333Y-152610714D01*
X50471428Y-152646428D01*
X50509523Y-152717857D01*
X50509523Y-152896428D01*
X50471428Y-152967857D01*
X50433333Y-153003571D01*
X50357142Y-153039285D01*
X50128571Y-153039285D01*
X50052380Y-153003571D01*
X50014285Y-152967857D01*
%TO.C,R42*%
X42125714Y-130249285D02*
X41859047Y-129892142D01*
X41668571Y-130249285D02*
X41668571Y-129499285D01*
X41973333Y-129499285D01*
X42049523Y-129535000D01*
X42087619Y-129570714D01*
X42125714Y-129642142D01*
X42125714Y-129749285D01*
X42087619Y-129820714D01*
X42049523Y-129856428D01*
X41973333Y-129892142D01*
X41668571Y-129892142D01*
X42811428Y-129749285D02*
X42811428Y-130249285D01*
X42620952Y-129463571D02*
X42430476Y-129999285D01*
X42925714Y-129999285D01*
X43192380Y-129570714D02*
X43230476Y-129535000D01*
X43306666Y-129499285D01*
X43497142Y-129499285D01*
X43573333Y-129535000D01*
X43611428Y-129570714D01*
X43649523Y-129642142D01*
X43649523Y-129713571D01*
X43611428Y-129820714D01*
X43154285Y-130249285D01*
X43649523Y-130249285D01*
%TO.C,R41*%
X48085714Y-151739285D02*
X47819047Y-151382142D01*
X47628571Y-151739285D02*
X47628571Y-150989285D01*
X47933333Y-150989285D01*
X48009523Y-151025000D01*
X48047619Y-151060714D01*
X48085714Y-151132142D01*
X48085714Y-151239285D01*
X48047619Y-151310714D01*
X48009523Y-151346428D01*
X47933333Y-151382142D01*
X47628571Y-151382142D01*
X48771428Y-151239285D02*
X48771428Y-151739285D01*
X48580952Y-150953571D02*
X48390476Y-151489285D01*
X48885714Y-151489285D01*
X49609523Y-151739285D02*
X49152380Y-151739285D01*
X49380952Y-151739285D02*
X49380952Y-150989285D01*
X49304761Y-151096428D01*
X49228571Y-151167857D01*
X49152380Y-151203571D01*
%TO.C,R40*%
X43515714Y-112309285D02*
X43249047Y-111952142D01*
X43058571Y-112309285D02*
X43058571Y-111559285D01*
X43363333Y-111559285D01*
X43439523Y-111595000D01*
X43477619Y-111630714D01*
X43515714Y-111702142D01*
X43515714Y-111809285D01*
X43477619Y-111880714D01*
X43439523Y-111916428D01*
X43363333Y-111952142D01*
X43058571Y-111952142D01*
X44201428Y-111809285D02*
X44201428Y-112309285D01*
X44010952Y-111523571D02*
X43820476Y-112059285D01*
X44315714Y-112059285D01*
X44772857Y-111559285D02*
X44849047Y-111559285D01*
X44925238Y-111595000D01*
X44963333Y-111630714D01*
X45001428Y-111702142D01*
X45039523Y-111845000D01*
X45039523Y-112023571D01*
X45001428Y-112166428D01*
X44963333Y-112237857D01*
X44925238Y-112273571D01*
X44849047Y-112309285D01*
X44772857Y-112309285D01*
X44696666Y-112273571D01*
X44658571Y-112237857D01*
X44620476Y-112166428D01*
X44582380Y-112023571D01*
X44582380Y-111845000D01*
X44620476Y-111702142D01*
X44658571Y-111630714D01*
X44696666Y-111595000D01*
X44772857Y-111559285D01*
%TO.C,R39*%
X52825714Y-141563285D02*
X52559047Y-141206142D01*
X52368571Y-141563285D02*
X52368571Y-140813285D01*
X52673333Y-140813285D01*
X52749523Y-140849000D01*
X52787619Y-140884714D01*
X52825714Y-140956142D01*
X52825714Y-141063285D01*
X52787619Y-141134714D01*
X52749523Y-141170428D01*
X52673333Y-141206142D01*
X52368571Y-141206142D01*
X53092380Y-140813285D02*
X53587619Y-140813285D01*
X53320952Y-141099000D01*
X53435238Y-141099000D01*
X53511428Y-141134714D01*
X53549523Y-141170428D01*
X53587619Y-141241857D01*
X53587619Y-141420428D01*
X53549523Y-141491857D01*
X53511428Y-141527571D01*
X53435238Y-141563285D01*
X53206666Y-141563285D01*
X53130476Y-141527571D01*
X53092380Y-141491857D01*
X53968571Y-141563285D02*
X54120952Y-141563285D01*
X54197142Y-141527571D01*
X54235238Y-141491857D01*
X54311428Y-141384714D01*
X54349523Y-141241857D01*
X54349523Y-140956142D01*
X54311428Y-140884714D01*
X54273333Y-140849000D01*
X54197142Y-140813285D01*
X54044761Y-140813285D01*
X53968571Y-140849000D01*
X53930476Y-140884714D01*
X53892380Y-140956142D01*
X53892380Y-141134714D01*
X53930476Y-141206142D01*
X53968571Y-141241857D01*
X54044761Y-141277571D01*
X54197142Y-141277571D01*
X54273333Y-141241857D01*
X54311428Y-141206142D01*
X54349523Y-141134714D01*
%TO.C,R38*%
X52885714Y-146539285D02*
X52619047Y-146182142D01*
X52428571Y-146539285D02*
X52428571Y-145789285D01*
X52733333Y-145789285D01*
X52809523Y-145825000D01*
X52847619Y-145860714D01*
X52885714Y-145932142D01*
X52885714Y-146039285D01*
X52847619Y-146110714D01*
X52809523Y-146146428D01*
X52733333Y-146182142D01*
X52428571Y-146182142D01*
X53152380Y-145789285D02*
X53647619Y-145789285D01*
X53380952Y-146075000D01*
X53495238Y-146075000D01*
X53571428Y-146110714D01*
X53609523Y-146146428D01*
X53647619Y-146217857D01*
X53647619Y-146396428D01*
X53609523Y-146467857D01*
X53571428Y-146503571D01*
X53495238Y-146539285D01*
X53266666Y-146539285D01*
X53190476Y-146503571D01*
X53152380Y-146467857D01*
X54104761Y-146110714D02*
X54028571Y-146075000D01*
X53990476Y-146039285D01*
X53952380Y-145967857D01*
X53952380Y-145932142D01*
X53990476Y-145860714D01*
X54028571Y-145825000D01*
X54104761Y-145789285D01*
X54257142Y-145789285D01*
X54333333Y-145825000D01*
X54371428Y-145860714D01*
X54409523Y-145932142D01*
X54409523Y-145967857D01*
X54371428Y-146039285D01*
X54333333Y-146075000D01*
X54257142Y-146110714D01*
X54104761Y-146110714D01*
X54028571Y-146146428D01*
X53990476Y-146182142D01*
X53952380Y-146253571D01*
X53952380Y-146396428D01*
X53990476Y-146467857D01*
X54028571Y-146503571D01*
X54104761Y-146539285D01*
X54257142Y-146539285D01*
X54333333Y-146503571D01*
X54371428Y-146467857D01*
X54409523Y-146396428D01*
X54409523Y-146253571D01*
X54371428Y-146182142D01*
X54333333Y-146146428D01*
X54257142Y-146110714D01*
%TO.C,R36*%
X96259714Y-147913285D02*
X95993047Y-147556142D01*
X95802571Y-147913285D02*
X95802571Y-147163285D01*
X96107333Y-147163285D01*
X96183523Y-147199000D01*
X96221619Y-147234714D01*
X96259714Y-147306142D01*
X96259714Y-147413285D01*
X96221619Y-147484714D01*
X96183523Y-147520428D01*
X96107333Y-147556142D01*
X95802571Y-147556142D01*
X96526380Y-147163285D02*
X97021619Y-147163285D01*
X96754952Y-147449000D01*
X96869238Y-147449000D01*
X96945428Y-147484714D01*
X96983523Y-147520428D01*
X97021619Y-147591857D01*
X97021619Y-147770428D01*
X96983523Y-147841857D01*
X96945428Y-147877571D01*
X96869238Y-147913285D01*
X96640666Y-147913285D01*
X96564476Y-147877571D01*
X96526380Y-147841857D01*
X97707333Y-147163285D02*
X97554952Y-147163285D01*
X97478761Y-147199000D01*
X97440666Y-147234714D01*
X97364476Y-147341857D01*
X97326380Y-147484714D01*
X97326380Y-147770428D01*
X97364476Y-147841857D01*
X97402571Y-147877571D01*
X97478761Y-147913285D01*
X97631142Y-147913285D01*
X97707333Y-147877571D01*
X97745428Y-147841857D01*
X97783523Y-147770428D01*
X97783523Y-147591857D01*
X97745428Y-147520428D01*
X97707333Y-147484714D01*
X97631142Y-147449000D01*
X97478761Y-147449000D01*
X97402571Y-147484714D01*
X97364476Y-147520428D01*
X97326380Y-147591857D01*
%TO.C,R35*%
X96259714Y-146643285D02*
X95993047Y-146286142D01*
X95802571Y-146643285D02*
X95802571Y-145893285D01*
X96107333Y-145893285D01*
X96183523Y-145929000D01*
X96221619Y-145964714D01*
X96259714Y-146036142D01*
X96259714Y-146143285D01*
X96221619Y-146214714D01*
X96183523Y-146250428D01*
X96107333Y-146286142D01*
X95802571Y-146286142D01*
X96526380Y-145893285D02*
X97021619Y-145893285D01*
X96754952Y-146179000D01*
X96869238Y-146179000D01*
X96945428Y-146214714D01*
X96983523Y-146250428D01*
X97021619Y-146321857D01*
X97021619Y-146500428D01*
X96983523Y-146571857D01*
X96945428Y-146607571D01*
X96869238Y-146643285D01*
X96640666Y-146643285D01*
X96564476Y-146607571D01*
X96526380Y-146571857D01*
X97745428Y-145893285D02*
X97364476Y-145893285D01*
X97326380Y-146250428D01*
X97364476Y-146214714D01*
X97440666Y-146179000D01*
X97631142Y-146179000D01*
X97707333Y-146214714D01*
X97745428Y-146250428D01*
X97783523Y-146321857D01*
X97783523Y-146500428D01*
X97745428Y-146571857D01*
X97707333Y-146607571D01*
X97631142Y-146643285D01*
X97440666Y-146643285D01*
X97364476Y-146607571D01*
X97326380Y-146571857D01*
%TO.C,R29*%
X50793714Y-134451285D02*
X50527047Y-134094142D01*
X50336571Y-134451285D02*
X50336571Y-133701285D01*
X50641333Y-133701285D01*
X50717523Y-133737000D01*
X50755619Y-133772714D01*
X50793714Y-133844142D01*
X50793714Y-133951285D01*
X50755619Y-134022714D01*
X50717523Y-134058428D01*
X50641333Y-134094142D01*
X50336571Y-134094142D01*
X51098476Y-133772714D02*
X51136571Y-133737000D01*
X51212761Y-133701285D01*
X51403238Y-133701285D01*
X51479428Y-133737000D01*
X51517523Y-133772714D01*
X51555619Y-133844142D01*
X51555619Y-133915571D01*
X51517523Y-134022714D01*
X51060380Y-134451285D01*
X51555619Y-134451285D01*
X51936571Y-134451285D02*
X52088952Y-134451285D01*
X52165142Y-134415571D01*
X52203238Y-134379857D01*
X52279428Y-134272714D01*
X52317523Y-134129857D01*
X52317523Y-133844142D01*
X52279428Y-133772714D01*
X52241333Y-133737000D01*
X52165142Y-133701285D01*
X52012761Y-133701285D01*
X51936571Y-133737000D01*
X51898476Y-133772714D01*
X51860380Y-133844142D01*
X51860380Y-134022714D01*
X51898476Y-134094142D01*
X51936571Y-134129857D01*
X52012761Y-134165571D01*
X52165142Y-134165571D01*
X52241333Y-134129857D01*
X52279428Y-134094142D01*
X52317523Y-134022714D01*
%TO.C,R28*%
X50793714Y-135721285D02*
X50527047Y-135364142D01*
X50336571Y-135721285D02*
X50336571Y-134971285D01*
X50641333Y-134971285D01*
X50717523Y-135007000D01*
X50755619Y-135042714D01*
X50793714Y-135114142D01*
X50793714Y-135221285D01*
X50755619Y-135292714D01*
X50717523Y-135328428D01*
X50641333Y-135364142D01*
X50336571Y-135364142D01*
X51098476Y-135042714D02*
X51136571Y-135007000D01*
X51212761Y-134971285D01*
X51403238Y-134971285D01*
X51479428Y-135007000D01*
X51517523Y-135042714D01*
X51555619Y-135114142D01*
X51555619Y-135185571D01*
X51517523Y-135292714D01*
X51060380Y-135721285D01*
X51555619Y-135721285D01*
X52012761Y-135292714D02*
X51936571Y-135257000D01*
X51898476Y-135221285D01*
X51860380Y-135149857D01*
X51860380Y-135114142D01*
X51898476Y-135042714D01*
X51936571Y-135007000D01*
X52012761Y-134971285D01*
X52165142Y-134971285D01*
X52241333Y-135007000D01*
X52279428Y-135042714D01*
X52317523Y-135114142D01*
X52317523Y-135149857D01*
X52279428Y-135221285D01*
X52241333Y-135257000D01*
X52165142Y-135292714D01*
X52012761Y-135292714D01*
X51936571Y-135328428D01*
X51898476Y-135364142D01*
X51860380Y-135435571D01*
X51860380Y-135578428D01*
X51898476Y-135649857D01*
X51936571Y-135685571D01*
X52012761Y-135721285D01*
X52165142Y-135721285D01*
X52241333Y-135685571D01*
X52279428Y-135649857D01*
X52317523Y-135578428D01*
X52317523Y-135435571D01*
X52279428Y-135364142D01*
X52241333Y-135328428D01*
X52165142Y-135292714D01*
%TO.C,R27*%
X51047714Y-151723285D02*
X50781047Y-151366142D01*
X50590571Y-151723285D02*
X50590571Y-150973285D01*
X50895333Y-150973285D01*
X50971523Y-151009000D01*
X51009619Y-151044714D01*
X51047714Y-151116142D01*
X51047714Y-151223285D01*
X51009619Y-151294714D01*
X50971523Y-151330428D01*
X50895333Y-151366142D01*
X50590571Y-151366142D01*
X51352476Y-151044714D02*
X51390571Y-151009000D01*
X51466761Y-150973285D01*
X51657238Y-150973285D01*
X51733428Y-151009000D01*
X51771523Y-151044714D01*
X51809619Y-151116142D01*
X51809619Y-151187571D01*
X51771523Y-151294714D01*
X51314380Y-151723285D01*
X51809619Y-151723285D01*
X52076285Y-150973285D02*
X52609619Y-150973285D01*
X52266761Y-151723285D01*
%TO.C,R26*%
X52317714Y-152993285D02*
X52051047Y-152636142D01*
X51860571Y-152993285D02*
X51860571Y-152243285D01*
X52165333Y-152243285D01*
X52241523Y-152279000D01*
X52279619Y-152314714D01*
X52317714Y-152386142D01*
X52317714Y-152493285D01*
X52279619Y-152564714D01*
X52241523Y-152600428D01*
X52165333Y-152636142D01*
X51860571Y-152636142D01*
X52622476Y-152314714D02*
X52660571Y-152279000D01*
X52736761Y-152243285D01*
X52927238Y-152243285D01*
X53003428Y-152279000D01*
X53041523Y-152314714D01*
X53079619Y-152386142D01*
X53079619Y-152457571D01*
X53041523Y-152564714D01*
X52584380Y-152993285D01*
X53079619Y-152993285D01*
X53765333Y-152243285D02*
X53612952Y-152243285D01*
X53536761Y-152279000D01*
X53498666Y-152314714D01*
X53422476Y-152421857D01*
X53384380Y-152564714D01*
X53384380Y-152850428D01*
X53422476Y-152921857D01*
X53460571Y-152957571D01*
X53536761Y-152993285D01*
X53689142Y-152993285D01*
X53765333Y-152957571D01*
X53803428Y-152921857D01*
X53841523Y-152850428D01*
X53841523Y-152671857D01*
X53803428Y-152600428D01*
X53765333Y-152564714D01*
X53689142Y-152529000D01*
X53536761Y-152529000D01*
X53460571Y-152564714D01*
X53422476Y-152600428D01*
X53384380Y-152671857D01*
%TO.C,R25*%
X68185714Y-111389285D02*
X67919047Y-111032142D01*
X67728571Y-111389285D02*
X67728571Y-110639285D01*
X68033333Y-110639285D01*
X68109523Y-110675000D01*
X68147619Y-110710714D01*
X68185714Y-110782142D01*
X68185714Y-110889285D01*
X68147619Y-110960714D01*
X68109523Y-110996428D01*
X68033333Y-111032142D01*
X67728571Y-111032142D01*
X68490476Y-110710714D02*
X68528571Y-110675000D01*
X68604761Y-110639285D01*
X68795238Y-110639285D01*
X68871428Y-110675000D01*
X68909523Y-110710714D01*
X68947619Y-110782142D01*
X68947619Y-110853571D01*
X68909523Y-110960714D01*
X68452380Y-111389285D01*
X68947619Y-111389285D01*
X69671428Y-110639285D02*
X69290476Y-110639285D01*
X69252380Y-110996428D01*
X69290476Y-110960714D01*
X69366666Y-110925000D01*
X69557142Y-110925000D01*
X69633333Y-110960714D01*
X69671428Y-110996428D01*
X69709523Y-111067857D01*
X69709523Y-111246428D01*
X69671428Y-111317857D01*
X69633333Y-111353571D01*
X69557142Y-111389285D01*
X69366666Y-111389285D01*
X69290476Y-111353571D01*
X69252380Y-111317857D01*
%TO.C,R19*%
X43885714Y-140539285D02*
X43619047Y-140182142D01*
X43428571Y-140539285D02*
X43428571Y-139789285D01*
X43733333Y-139789285D01*
X43809523Y-139825000D01*
X43847619Y-139860714D01*
X43885714Y-139932142D01*
X43885714Y-140039285D01*
X43847619Y-140110714D01*
X43809523Y-140146428D01*
X43733333Y-140182142D01*
X43428571Y-140182142D01*
X44647619Y-140539285D02*
X44190476Y-140539285D01*
X44419047Y-140539285D02*
X44419047Y-139789285D01*
X44342857Y-139896428D01*
X44266666Y-139967857D01*
X44190476Y-140003571D01*
X45028571Y-140539285D02*
X45180952Y-140539285D01*
X45257142Y-140503571D01*
X45295238Y-140467857D01*
X45371428Y-140360714D01*
X45409523Y-140217857D01*
X45409523Y-139932142D01*
X45371428Y-139860714D01*
X45333333Y-139825000D01*
X45257142Y-139789285D01*
X45104761Y-139789285D01*
X45028571Y-139825000D01*
X44990476Y-139860714D01*
X44952380Y-139932142D01*
X44952380Y-140110714D01*
X44990476Y-140182142D01*
X45028571Y-140217857D01*
X45104761Y-140253571D01*
X45257142Y-140253571D01*
X45333333Y-140217857D01*
X45371428Y-140182142D01*
X45409523Y-140110714D01*
%TO.C,R11*%
X43835714Y-110009285D02*
X43569047Y-109652142D01*
X43378571Y-110009285D02*
X43378571Y-109259285D01*
X43683333Y-109259285D01*
X43759523Y-109295000D01*
X43797619Y-109330714D01*
X43835714Y-109402142D01*
X43835714Y-109509285D01*
X43797619Y-109580714D01*
X43759523Y-109616428D01*
X43683333Y-109652142D01*
X43378571Y-109652142D01*
X44597619Y-110009285D02*
X44140476Y-110009285D01*
X44369047Y-110009285D02*
X44369047Y-109259285D01*
X44292857Y-109366428D01*
X44216666Y-109437857D01*
X44140476Y-109473571D01*
X45359523Y-110009285D02*
X44902380Y-110009285D01*
X45130952Y-110009285D02*
X45130952Y-109259285D01*
X45054761Y-109366428D01*
X44978571Y-109437857D01*
X44902380Y-109473571D01*
%TO.C,R9*%
X40496666Y-113939285D02*
X40230000Y-113582142D01*
X40039523Y-113939285D02*
X40039523Y-113189285D01*
X40344285Y-113189285D01*
X40420476Y-113225000D01*
X40458571Y-113260714D01*
X40496666Y-113332142D01*
X40496666Y-113439285D01*
X40458571Y-113510714D01*
X40420476Y-113546428D01*
X40344285Y-113582142D01*
X40039523Y-113582142D01*
X40877619Y-113939285D02*
X41030000Y-113939285D01*
X41106190Y-113903571D01*
X41144285Y-113867857D01*
X41220476Y-113760714D01*
X41258571Y-113617857D01*
X41258571Y-113332142D01*
X41220476Y-113260714D01*
X41182380Y-113225000D01*
X41106190Y-113189285D01*
X40953809Y-113189285D01*
X40877619Y-113225000D01*
X40839523Y-113260714D01*
X40801428Y-113332142D01*
X40801428Y-113510714D01*
X40839523Y-113582142D01*
X40877619Y-113617857D01*
X40953809Y-113653571D01*
X41106190Y-113653571D01*
X41182380Y-113617857D01*
X41220476Y-113582142D01*
X41258571Y-113510714D01*
%TO.C,R8*%
X42886666Y-157269285D02*
X42620000Y-156912142D01*
X42429523Y-157269285D02*
X42429523Y-156519285D01*
X42734285Y-156519285D01*
X42810476Y-156555000D01*
X42848571Y-156590714D01*
X42886666Y-156662142D01*
X42886666Y-156769285D01*
X42848571Y-156840714D01*
X42810476Y-156876428D01*
X42734285Y-156912142D01*
X42429523Y-156912142D01*
X43343809Y-156840714D02*
X43267619Y-156805000D01*
X43229523Y-156769285D01*
X43191428Y-156697857D01*
X43191428Y-156662142D01*
X43229523Y-156590714D01*
X43267619Y-156555000D01*
X43343809Y-156519285D01*
X43496190Y-156519285D01*
X43572380Y-156555000D01*
X43610476Y-156590714D01*
X43648571Y-156662142D01*
X43648571Y-156697857D01*
X43610476Y-156769285D01*
X43572380Y-156805000D01*
X43496190Y-156840714D01*
X43343809Y-156840714D01*
X43267619Y-156876428D01*
X43229523Y-156912142D01*
X43191428Y-156983571D01*
X43191428Y-157126428D01*
X43229523Y-157197857D01*
X43267619Y-157233571D01*
X43343809Y-157269285D01*
X43496190Y-157269285D01*
X43572380Y-157233571D01*
X43610476Y-157197857D01*
X43648571Y-157126428D01*
X43648571Y-156983571D01*
X43610476Y-156912142D01*
X43572380Y-156876428D01*
X43496190Y-156840714D01*
%TO.C,R5*%
X53206666Y-131911285D02*
X52940000Y-131554142D01*
X52749523Y-131911285D02*
X52749523Y-131161285D01*
X53054285Y-131161285D01*
X53130476Y-131197000D01*
X53168571Y-131232714D01*
X53206666Y-131304142D01*
X53206666Y-131411285D01*
X53168571Y-131482714D01*
X53130476Y-131518428D01*
X53054285Y-131554142D01*
X52749523Y-131554142D01*
X53930476Y-131161285D02*
X53549523Y-131161285D01*
X53511428Y-131518428D01*
X53549523Y-131482714D01*
X53625714Y-131447000D01*
X53816190Y-131447000D01*
X53892380Y-131482714D01*
X53930476Y-131518428D01*
X53968571Y-131589857D01*
X53968571Y-131768428D01*
X53930476Y-131839857D01*
X53892380Y-131875571D01*
X53816190Y-131911285D01*
X53625714Y-131911285D01*
X53549523Y-131875571D01*
X53511428Y-131839857D01*
%TO.C,R4*%
X68566666Y-112789285D02*
X68300000Y-112432142D01*
X68109523Y-112789285D02*
X68109523Y-112039285D01*
X68414285Y-112039285D01*
X68490476Y-112075000D01*
X68528571Y-112110714D01*
X68566666Y-112182142D01*
X68566666Y-112289285D01*
X68528571Y-112360714D01*
X68490476Y-112396428D01*
X68414285Y-112432142D01*
X68109523Y-112432142D01*
X69252380Y-112289285D02*
X69252380Y-112789285D01*
X69061904Y-112003571D02*
X68871428Y-112539285D01*
X69366666Y-112539285D01*
%TO.C,L10*%
X63385714Y-142314285D02*
X63004761Y-142314285D01*
X63004761Y-141564285D01*
X64071428Y-142314285D02*
X63614285Y-142314285D01*
X63842857Y-142314285D02*
X63842857Y-141564285D01*
X63766666Y-141671428D01*
X63690476Y-141742857D01*
X63614285Y-141778571D01*
X64566666Y-141564285D02*
X64642857Y-141564285D01*
X64719047Y-141600000D01*
X64757142Y-141635714D01*
X64795238Y-141707142D01*
X64833333Y-141850000D01*
X64833333Y-142028571D01*
X64795238Y-142171428D01*
X64757142Y-142242857D01*
X64719047Y-142278571D01*
X64642857Y-142314285D01*
X64566666Y-142314285D01*
X64490476Y-142278571D01*
X64452380Y-142242857D01*
X64414285Y-142171428D01*
X64376190Y-142028571D01*
X64376190Y-141850000D01*
X64414285Y-141707142D01*
X64452380Y-141635714D01*
X64490476Y-141600000D01*
X64566666Y-141564285D01*
%TO.C,J1*%
X53835333Y-155037285D02*
X53835333Y-155573000D01*
X53797238Y-155680142D01*
X53721047Y-155751571D01*
X53606761Y-155787285D01*
X53530571Y-155787285D01*
X54635333Y-155787285D02*
X54178190Y-155787285D01*
X54406761Y-155787285D02*
X54406761Y-155037285D01*
X54330571Y-155144428D01*
X54254380Y-155215857D01*
X54178190Y-155251571D01*
%TO.C,U12*%
X54889523Y-147903285D02*
X54889523Y-148510428D01*
X54927619Y-148581857D01*
X54965714Y-148617571D01*
X55041904Y-148653285D01*
X55194285Y-148653285D01*
X55270476Y-148617571D01*
X55308571Y-148581857D01*
X55346666Y-148510428D01*
X55346666Y-147903285D01*
X56146666Y-148653285D02*
X55689523Y-148653285D01*
X55918095Y-148653285D02*
X55918095Y-147903285D01*
X55841904Y-148010428D01*
X55765714Y-148081857D01*
X55689523Y-148117571D01*
X56451428Y-147974714D02*
X56489523Y-147939000D01*
X56565714Y-147903285D01*
X56756190Y-147903285D01*
X56832380Y-147939000D01*
X56870476Y-147974714D01*
X56908571Y-148046142D01*
X56908571Y-148117571D01*
X56870476Y-148224714D01*
X56413333Y-148653285D01*
X56908571Y-148653285D01*
%TO.C,U10*%
X55905523Y-139035285D02*
X55905523Y-139642428D01*
X55943619Y-139713857D01*
X55981714Y-139749571D01*
X56057904Y-139785285D01*
X56210285Y-139785285D01*
X56286476Y-139749571D01*
X56324571Y-139713857D01*
X56362666Y-139642428D01*
X56362666Y-139035285D01*
X57162666Y-139785285D02*
X56705523Y-139785285D01*
X56934095Y-139785285D02*
X56934095Y-139035285D01*
X56857904Y-139142428D01*
X56781714Y-139213857D01*
X56705523Y-139249571D01*
X57657904Y-139035285D02*
X57734095Y-139035285D01*
X57810285Y-139071000D01*
X57848380Y-139106714D01*
X57886476Y-139178142D01*
X57924571Y-139321000D01*
X57924571Y-139499571D01*
X57886476Y-139642428D01*
X57848380Y-139713857D01*
X57810285Y-139749571D01*
X57734095Y-139785285D01*
X57657904Y-139785285D01*
X57581714Y-139749571D01*
X57543619Y-139713857D01*
X57505523Y-139642428D01*
X57467428Y-139499571D01*
X57467428Y-139321000D01*
X57505523Y-139178142D01*
X57543619Y-139106714D01*
X57581714Y-139071000D01*
X57657904Y-139035285D01*
%TO.C,U8*%
X88640476Y-142339285D02*
X88640476Y-142946428D01*
X88678571Y-143017857D01*
X88716666Y-143053571D01*
X88792857Y-143089285D01*
X88945238Y-143089285D01*
X89021428Y-143053571D01*
X89059523Y-143017857D01*
X89097619Y-142946428D01*
X89097619Y-142339285D01*
X89592857Y-142660714D02*
X89516666Y-142625000D01*
X89478571Y-142589285D01*
X89440476Y-142517857D01*
X89440476Y-142482142D01*
X89478571Y-142410714D01*
X89516666Y-142375000D01*
X89592857Y-142339285D01*
X89745238Y-142339285D01*
X89821428Y-142375000D01*
X89859523Y-142410714D01*
X89897619Y-142482142D01*
X89897619Y-142517857D01*
X89859523Y-142589285D01*
X89821428Y-142625000D01*
X89745238Y-142660714D01*
X89592857Y-142660714D01*
X89516666Y-142696428D01*
X89478571Y-142732142D01*
X89440476Y-142803571D01*
X89440476Y-142946428D01*
X89478571Y-143017857D01*
X89516666Y-143053571D01*
X89592857Y-143089285D01*
X89745238Y-143089285D01*
X89821428Y-143053571D01*
X89859523Y-143017857D01*
X89897619Y-142946428D01*
X89897619Y-142803571D01*
X89859523Y-142732142D01*
X89821428Y-142696428D01*
X89745238Y-142660714D01*
%TO.C,L4*%
X44824666Y-139277285D02*
X44443714Y-139277285D01*
X44443714Y-138527285D01*
X45434190Y-138777285D02*
X45434190Y-139277285D01*
X45243714Y-138491571D02*
X45053238Y-139027285D01*
X45548476Y-139027285D01*
%TO.C,L3*%
X46856666Y-123529285D02*
X46475714Y-123529285D01*
X46475714Y-122779285D01*
X47047142Y-122779285D02*
X47542380Y-122779285D01*
X47275714Y-123065000D01*
X47390000Y-123065000D01*
X47466190Y-123100714D01*
X47504285Y-123136428D01*
X47542380Y-123207857D01*
X47542380Y-123386428D01*
X47504285Y-123457857D01*
X47466190Y-123493571D01*
X47390000Y-123529285D01*
X47161428Y-123529285D01*
X47085238Y-123493571D01*
X47047142Y-123457857D01*
%TO.C,L2*%
X89020666Y-138769285D02*
X88639714Y-138769285D01*
X88639714Y-138019285D01*
X89249238Y-138090714D02*
X89287333Y-138055000D01*
X89363523Y-138019285D01*
X89554000Y-138019285D01*
X89630190Y-138055000D01*
X89668285Y-138090714D01*
X89706380Y-138162142D01*
X89706380Y-138233571D01*
X89668285Y-138340714D01*
X89211142Y-138769285D01*
X89706380Y-138769285D01*
%TO.C,L1*%
X93766666Y-129539285D02*
X93385714Y-129539285D01*
X93385714Y-128789285D01*
X94452380Y-129539285D02*
X93995238Y-129539285D01*
X94223809Y-129539285D02*
X94223809Y-128789285D01*
X94147619Y-128896428D01*
X94071428Y-128967857D01*
X93995238Y-129003571D01*
%TO.C,C37*%
X55365714Y-147377857D02*
X55327619Y-147413571D01*
X55213333Y-147449285D01*
X55137142Y-147449285D01*
X55022857Y-147413571D01*
X54946666Y-147342142D01*
X54908571Y-147270714D01*
X54870476Y-147127857D01*
X54870476Y-147020714D01*
X54908571Y-146877857D01*
X54946666Y-146806428D01*
X55022857Y-146735000D01*
X55137142Y-146699285D01*
X55213333Y-146699285D01*
X55327619Y-146735000D01*
X55365714Y-146770714D01*
X55632380Y-146699285D02*
X56127619Y-146699285D01*
X55860952Y-146985000D01*
X55975238Y-146985000D01*
X56051428Y-147020714D01*
X56089523Y-147056428D01*
X56127619Y-147127857D01*
X56127619Y-147306428D01*
X56089523Y-147377857D01*
X56051428Y-147413571D01*
X55975238Y-147449285D01*
X55746666Y-147449285D01*
X55670476Y-147413571D01*
X55632380Y-147377857D01*
X56394285Y-146699285D02*
X56927619Y-146699285D01*
X56584761Y-147449285D01*
%TO.C,C36*%
X45713714Y-137935857D02*
X45675619Y-137971571D01*
X45561333Y-138007285D01*
X45485142Y-138007285D01*
X45370857Y-137971571D01*
X45294666Y-137900142D01*
X45256571Y-137828714D01*
X45218476Y-137685857D01*
X45218476Y-137578714D01*
X45256571Y-137435857D01*
X45294666Y-137364428D01*
X45370857Y-137293000D01*
X45485142Y-137257285D01*
X45561333Y-137257285D01*
X45675619Y-137293000D01*
X45713714Y-137328714D01*
X45980380Y-137257285D02*
X46475619Y-137257285D01*
X46208952Y-137543000D01*
X46323238Y-137543000D01*
X46399428Y-137578714D01*
X46437523Y-137614428D01*
X46475619Y-137685857D01*
X46475619Y-137864428D01*
X46437523Y-137935857D01*
X46399428Y-137971571D01*
X46323238Y-138007285D01*
X46094666Y-138007285D01*
X46018476Y-137971571D01*
X45980380Y-137935857D01*
X47161333Y-137257285D02*
X47008952Y-137257285D01*
X46932761Y-137293000D01*
X46894666Y-137328714D01*
X46818476Y-137435857D01*
X46780380Y-137578714D01*
X46780380Y-137864428D01*
X46818476Y-137935857D01*
X46856571Y-137971571D01*
X46932761Y-138007285D01*
X47085142Y-138007285D01*
X47161333Y-137971571D01*
X47199428Y-137935857D01*
X47237523Y-137864428D01*
X47237523Y-137685857D01*
X47199428Y-137614428D01*
X47161333Y-137578714D01*
X47085142Y-137543000D01*
X46932761Y-137543000D01*
X46856571Y-137578714D01*
X46818476Y-137614428D01*
X46780380Y-137685857D01*
%TO.C,C35*%
X45713714Y-136665857D02*
X45675619Y-136701571D01*
X45561333Y-136737285D01*
X45485142Y-136737285D01*
X45370857Y-136701571D01*
X45294666Y-136630142D01*
X45256571Y-136558714D01*
X45218476Y-136415857D01*
X45218476Y-136308714D01*
X45256571Y-136165857D01*
X45294666Y-136094428D01*
X45370857Y-136023000D01*
X45485142Y-135987285D01*
X45561333Y-135987285D01*
X45675619Y-136023000D01*
X45713714Y-136058714D01*
X45980380Y-135987285D02*
X46475619Y-135987285D01*
X46208952Y-136273000D01*
X46323238Y-136273000D01*
X46399428Y-136308714D01*
X46437523Y-136344428D01*
X46475619Y-136415857D01*
X46475619Y-136594428D01*
X46437523Y-136665857D01*
X46399428Y-136701571D01*
X46323238Y-136737285D01*
X46094666Y-136737285D01*
X46018476Y-136701571D01*
X45980380Y-136665857D01*
X47199428Y-135987285D02*
X46818476Y-135987285D01*
X46780380Y-136344428D01*
X46818476Y-136308714D01*
X46894666Y-136273000D01*
X47085142Y-136273000D01*
X47161333Y-136308714D01*
X47199428Y-136344428D01*
X47237523Y-136415857D01*
X47237523Y-136594428D01*
X47199428Y-136665857D01*
X47161333Y-136701571D01*
X47085142Y-136737285D01*
X46894666Y-136737285D01*
X46818476Y-136701571D01*
X46780380Y-136665857D01*
%TO.C,C34*%
X40379714Y-144793857D02*
X40341619Y-144829571D01*
X40227333Y-144865285D01*
X40151142Y-144865285D01*
X40036857Y-144829571D01*
X39960666Y-144758142D01*
X39922571Y-144686714D01*
X39884476Y-144543857D01*
X39884476Y-144436714D01*
X39922571Y-144293857D01*
X39960666Y-144222428D01*
X40036857Y-144151000D01*
X40151142Y-144115285D01*
X40227333Y-144115285D01*
X40341619Y-144151000D01*
X40379714Y-144186714D01*
X40646380Y-144115285D02*
X41141619Y-144115285D01*
X40874952Y-144401000D01*
X40989238Y-144401000D01*
X41065428Y-144436714D01*
X41103523Y-144472428D01*
X41141619Y-144543857D01*
X41141619Y-144722428D01*
X41103523Y-144793857D01*
X41065428Y-144829571D01*
X40989238Y-144865285D01*
X40760666Y-144865285D01*
X40684476Y-144829571D01*
X40646380Y-144793857D01*
X41827333Y-144365285D02*
X41827333Y-144865285D01*
X41636857Y-144079571D02*
X41446380Y-144615285D01*
X41941619Y-144615285D01*
%TO.C,C32*%
X40379714Y-146571857D02*
X40341619Y-146607571D01*
X40227333Y-146643285D01*
X40151142Y-146643285D01*
X40036857Y-146607571D01*
X39960666Y-146536142D01*
X39922571Y-146464714D01*
X39884476Y-146321857D01*
X39884476Y-146214714D01*
X39922571Y-146071857D01*
X39960666Y-146000428D01*
X40036857Y-145929000D01*
X40151142Y-145893285D01*
X40227333Y-145893285D01*
X40341619Y-145929000D01*
X40379714Y-145964714D01*
X40646380Y-145893285D02*
X41141619Y-145893285D01*
X40874952Y-146179000D01*
X40989238Y-146179000D01*
X41065428Y-146214714D01*
X41103523Y-146250428D01*
X41141619Y-146321857D01*
X41141619Y-146500428D01*
X41103523Y-146571857D01*
X41065428Y-146607571D01*
X40989238Y-146643285D01*
X40760666Y-146643285D01*
X40684476Y-146607571D01*
X40646380Y-146571857D01*
X41446380Y-145964714D02*
X41484476Y-145929000D01*
X41560666Y-145893285D01*
X41751142Y-145893285D01*
X41827333Y-145929000D01*
X41865428Y-145964714D01*
X41903523Y-146036142D01*
X41903523Y-146107571D01*
X41865428Y-146214714D01*
X41408285Y-146643285D01*
X41903523Y-146643285D01*
%TO.C,C15*%
X90935714Y-126967857D02*
X90897619Y-127003571D01*
X90783333Y-127039285D01*
X90707142Y-127039285D01*
X90592857Y-127003571D01*
X90516666Y-126932142D01*
X90478571Y-126860714D01*
X90440476Y-126717857D01*
X90440476Y-126610714D01*
X90478571Y-126467857D01*
X90516666Y-126396428D01*
X90592857Y-126325000D01*
X90707142Y-126289285D01*
X90783333Y-126289285D01*
X90897619Y-126325000D01*
X90935714Y-126360714D01*
X91697619Y-127039285D02*
X91240476Y-127039285D01*
X91469047Y-127039285D02*
X91469047Y-126289285D01*
X91392857Y-126396428D01*
X91316666Y-126467857D01*
X91240476Y-126503571D01*
X92421428Y-126289285D02*
X92040476Y-126289285D01*
X92002380Y-126646428D01*
X92040476Y-126610714D01*
X92116666Y-126575000D01*
X92307142Y-126575000D01*
X92383333Y-126610714D01*
X92421428Y-126646428D01*
X92459523Y-126717857D01*
X92459523Y-126896428D01*
X92421428Y-126967857D01*
X92383333Y-127003571D01*
X92307142Y-127039285D01*
X92116666Y-127039285D01*
X92040476Y-127003571D01*
X92002380Y-126967857D01*
%TO.C,C14*%
X89655714Y-115467857D02*
X89617619Y-115503571D01*
X89503333Y-115539285D01*
X89427142Y-115539285D01*
X89312857Y-115503571D01*
X89236666Y-115432142D01*
X89198571Y-115360714D01*
X89160476Y-115217857D01*
X89160476Y-115110714D01*
X89198571Y-114967857D01*
X89236666Y-114896428D01*
X89312857Y-114825000D01*
X89427142Y-114789285D01*
X89503333Y-114789285D01*
X89617619Y-114825000D01*
X89655714Y-114860714D01*
X90417619Y-115539285D02*
X89960476Y-115539285D01*
X90189047Y-115539285D02*
X90189047Y-114789285D01*
X90112857Y-114896428D01*
X90036666Y-114967857D01*
X89960476Y-115003571D01*
X91103333Y-115039285D02*
X91103333Y-115539285D01*
X90912857Y-114753571D02*
X90722380Y-115289285D01*
X91217619Y-115289285D01*
%TO.C,C12*%
X89625714Y-116877857D02*
X89587619Y-116913571D01*
X89473333Y-116949285D01*
X89397142Y-116949285D01*
X89282857Y-116913571D01*
X89206666Y-116842142D01*
X89168571Y-116770714D01*
X89130476Y-116627857D01*
X89130476Y-116520714D01*
X89168571Y-116377857D01*
X89206666Y-116306428D01*
X89282857Y-116235000D01*
X89397142Y-116199285D01*
X89473333Y-116199285D01*
X89587619Y-116235000D01*
X89625714Y-116270714D01*
X90387619Y-116949285D02*
X89930476Y-116949285D01*
X90159047Y-116949285D02*
X90159047Y-116199285D01*
X90082857Y-116306428D01*
X90006666Y-116377857D01*
X89930476Y-116413571D01*
X90692380Y-116270714D02*
X90730476Y-116235000D01*
X90806666Y-116199285D01*
X90997142Y-116199285D01*
X91073333Y-116235000D01*
X91111428Y-116270714D01*
X91149523Y-116342142D01*
X91149523Y-116413571D01*
X91111428Y-116520714D01*
X90654285Y-116949285D01*
X91149523Y-116949285D01*
%TO.C,C9*%
X89666666Y-134717857D02*
X89628571Y-134753571D01*
X89514285Y-134789285D01*
X89438095Y-134789285D01*
X89323809Y-134753571D01*
X89247619Y-134682142D01*
X89209523Y-134610714D01*
X89171428Y-134467857D01*
X89171428Y-134360714D01*
X89209523Y-134217857D01*
X89247619Y-134146428D01*
X89323809Y-134075000D01*
X89438095Y-134039285D01*
X89514285Y-134039285D01*
X89628571Y-134075000D01*
X89666666Y-134110714D01*
X90047619Y-134789285D02*
X90200000Y-134789285D01*
X90276190Y-134753571D01*
X90314285Y-134717857D01*
X90390476Y-134610714D01*
X90428571Y-134467857D01*
X90428571Y-134182142D01*
X90390476Y-134110714D01*
X90352380Y-134075000D01*
X90276190Y-134039285D01*
X90123809Y-134039285D01*
X90047619Y-134075000D01*
X90009523Y-134110714D01*
X89971428Y-134182142D01*
X89971428Y-134360714D01*
X90009523Y-134432142D01*
X90047619Y-134467857D01*
X90123809Y-134503571D01*
X90276190Y-134503571D01*
X90352380Y-134467857D01*
X90390476Y-134432142D01*
X90428571Y-134360714D01*
%TO.C,C5*%
X84194666Y-137173857D02*
X84156571Y-137209571D01*
X84042285Y-137245285D01*
X83966095Y-137245285D01*
X83851809Y-137209571D01*
X83775619Y-137138142D01*
X83737523Y-137066714D01*
X83699428Y-136923857D01*
X83699428Y-136816714D01*
X83737523Y-136673857D01*
X83775619Y-136602428D01*
X83851809Y-136531000D01*
X83966095Y-136495285D01*
X84042285Y-136495285D01*
X84156571Y-136531000D01*
X84194666Y-136566714D01*
X84918476Y-136495285D02*
X84537523Y-136495285D01*
X84499428Y-136852428D01*
X84537523Y-136816714D01*
X84613714Y-136781000D01*
X84804190Y-136781000D01*
X84880380Y-136816714D01*
X84918476Y-136852428D01*
X84956571Y-136923857D01*
X84956571Y-137102428D01*
X84918476Y-137173857D01*
X84880380Y-137209571D01*
X84804190Y-137245285D01*
X84613714Y-137245285D01*
X84537523Y-137209571D01*
X84499428Y-137173857D01*
%TO.C,C4*%
X86226666Y-137173857D02*
X86188571Y-137209571D01*
X86074285Y-137245285D01*
X85998095Y-137245285D01*
X85883809Y-137209571D01*
X85807619Y-137138142D01*
X85769523Y-137066714D01*
X85731428Y-136923857D01*
X85731428Y-136816714D01*
X85769523Y-136673857D01*
X85807619Y-136602428D01*
X85883809Y-136531000D01*
X85998095Y-136495285D01*
X86074285Y-136495285D01*
X86188571Y-136531000D01*
X86226666Y-136566714D01*
X86912380Y-136745285D02*
X86912380Y-137245285D01*
X86721904Y-136459571D02*
X86531428Y-136995285D01*
X87026666Y-136995285D01*
%TO.C,U11*%
X71709523Y-105239285D02*
X71709523Y-105846428D01*
X71747619Y-105917857D01*
X71785714Y-105953571D01*
X71861904Y-105989285D01*
X72014285Y-105989285D01*
X72090476Y-105953571D01*
X72128571Y-105917857D01*
X72166666Y-105846428D01*
X72166666Y-105239285D01*
X72966666Y-105989285D02*
X72509523Y-105989285D01*
X72738095Y-105989285D02*
X72738095Y-105239285D01*
X72661904Y-105346428D01*
X72585714Y-105417857D01*
X72509523Y-105453571D01*
X73728571Y-105989285D02*
X73271428Y-105989285D01*
X73500000Y-105989285D02*
X73500000Y-105239285D01*
X73423809Y-105346428D01*
X73347619Y-105417857D01*
X73271428Y-105453571D01*
D15*
X66700000Y-98566666D02*
X66366666Y-98566666D01*
X66366666Y-97866666D01*
X66966666Y-98566666D02*
X67100000Y-98566666D01*
X67166666Y-98533333D01*
X67200000Y-98500000D01*
X67266666Y-98400000D01*
X67300000Y-98266666D01*
X67300000Y-98000000D01*
X67266666Y-97933333D01*
X67233333Y-97900000D01*
X67166666Y-97866666D01*
X67033333Y-97866666D01*
X66966666Y-97900000D01*
X66933333Y-97933333D01*
X66900000Y-98000000D01*
X66900000Y-98166666D01*
X66933333Y-98233333D01*
X66966666Y-98266666D01*
X67033333Y-98300000D01*
X67166666Y-98300000D01*
X67233333Y-98266666D01*
X67266666Y-98233333D01*
X67300000Y-98166666D01*
X67900000Y-97866666D02*
X67766666Y-97866666D01*
X67700000Y-97900000D01*
X67666666Y-97933333D01*
X67600000Y-98033333D01*
X67566666Y-98166666D01*
X67566666Y-98433333D01*
X67600000Y-98500000D01*
X67633333Y-98533333D01*
X67700000Y-98566666D01*
X67833333Y-98566666D01*
X67900000Y-98533333D01*
X67933333Y-98500000D01*
X67966666Y-98433333D01*
X67966666Y-98266666D01*
X67933333Y-98200000D01*
X67900000Y-98166666D01*
X67833333Y-98133333D01*
X67700000Y-98133333D01*
X67633333Y-98166666D01*
X67600000Y-98200000D01*
X67566666Y-98266666D01*
X68266666Y-98300000D02*
X68800000Y-98300000D01*
X69133333Y-98566666D02*
X69133333Y-97866666D01*
X69366666Y-98366666D01*
X69600000Y-97866666D01*
X69600000Y-98566666D01*
X69866666Y-97866666D02*
X70300000Y-97866666D01*
X70066666Y-98133333D01*
X70166666Y-98133333D01*
X70233333Y-98166666D01*
X70266666Y-98200000D01*
X70300000Y-98266666D01*
X70300000Y-98433333D01*
X70266666Y-98500000D01*
X70233333Y-98533333D01*
X70166666Y-98566666D01*
X69966666Y-98566666D01*
X69900000Y-98533333D01*
X69866666Y-98500000D01*
X70533333Y-97866666D02*
X70966666Y-97866666D01*
X70733333Y-98133333D01*
X70833333Y-98133333D01*
X70900000Y-98166666D01*
X70933333Y-98200000D01*
X70966666Y-98266666D01*
X70966666Y-98433333D01*
X70933333Y-98500000D01*
X70900000Y-98533333D01*
X70833333Y-98566666D01*
X70633333Y-98566666D01*
X70566666Y-98533333D01*
X70533333Y-98500000D01*
%TO.C,C20*%
D20*
X63239714Y-159207857D02*
X63201619Y-159243571D01*
X63087333Y-159279285D01*
X63011142Y-159279285D01*
X62896857Y-159243571D01*
X62820666Y-159172142D01*
X62782571Y-159100714D01*
X62744476Y-158957857D01*
X62744476Y-158850714D01*
X62782571Y-158707857D01*
X62820666Y-158636428D01*
X62896857Y-158565000D01*
X63011142Y-158529285D01*
X63087333Y-158529285D01*
X63201619Y-158565000D01*
X63239714Y-158600714D01*
X63544476Y-158600714D02*
X63582571Y-158565000D01*
X63658761Y-158529285D01*
X63849238Y-158529285D01*
X63925428Y-158565000D01*
X63963523Y-158600714D01*
X64001619Y-158672142D01*
X64001619Y-158743571D01*
X63963523Y-158850714D01*
X63506380Y-159279285D01*
X64001619Y-159279285D01*
X64496857Y-158529285D02*
X64573047Y-158529285D01*
X64649238Y-158565000D01*
X64687333Y-158600714D01*
X64725428Y-158672142D01*
X64763523Y-158815000D01*
X64763523Y-158993571D01*
X64725428Y-159136428D01*
X64687333Y-159207857D01*
X64649238Y-159243571D01*
X64573047Y-159279285D01*
X64496857Y-159279285D01*
X64420666Y-159243571D01*
X64382571Y-159207857D01*
X64344476Y-159136428D01*
X64306380Y-158993571D01*
X64306380Y-158815000D01*
X64344476Y-158672142D01*
X64382571Y-158600714D01*
X64420666Y-158565000D01*
X64496857Y-158529285D01*
%TO.C,C13*%
X50031714Y-123457857D02*
X49993619Y-123493571D01*
X49879333Y-123529285D01*
X49803142Y-123529285D01*
X49688857Y-123493571D01*
X49612666Y-123422142D01*
X49574571Y-123350714D01*
X49536476Y-123207857D01*
X49536476Y-123100714D01*
X49574571Y-122957857D01*
X49612666Y-122886428D01*
X49688857Y-122815000D01*
X49803142Y-122779285D01*
X49879333Y-122779285D01*
X49993619Y-122815000D01*
X50031714Y-122850714D01*
X50793619Y-123529285D02*
X50336476Y-123529285D01*
X50565047Y-123529285D02*
X50565047Y-122779285D01*
X50488857Y-122886428D01*
X50412666Y-122957857D01*
X50336476Y-122993571D01*
X51060285Y-122779285D02*
X51555523Y-122779285D01*
X51288857Y-123065000D01*
X51403142Y-123065000D01*
X51479333Y-123100714D01*
X51517428Y-123136428D01*
X51555523Y-123207857D01*
X51555523Y-123386428D01*
X51517428Y-123457857D01*
X51479333Y-123493571D01*
X51403142Y-123529285D01*
X51174571Y-123529285D01*
X51098380Y-123493571D01*
X51060285Y-123457857D01*
%TO.C,C7*%
X50666666Y-132855857D02*
X50628571Y-132891571D01*
X50514285Y-132927285D01*
X50438095Y-132927285D01*
X50323809Y-132891571D01*
X50247619Y-132820142D01*
X50209523Y-132748714D01*
X50171428Y-132605857D01*
X50171428Y-132498714D01*
X50209523Y-132355857D01*
X50247619Y-132284428D01*
X50323809Y-132213000D01*
X50438095Y-132177285D01*
X50514285Y-132177285D01*
X50628571Y-132213000D01*
X50666666Y-132248714D01*
X50933333Y-132177285D02*
X51466666Y-132177285D01*
X51123809Y-132927285D01*
%TO.C,U4*%
X47396476Y-130399285D02*
X47396476Y-131006428D01*
X47434571Y-131077857D01*
X47472666Y-131113571D01*
X47548857Y-131149285D01*
X47701238Y-131149285D01*
X47777428Y-131113571D01*
X47815523Y-131077857D01*
X47853619Y-131006428D01*
X47853619Y-130399285D01*
X48577428Y-130649285D02*
X48577428Y-131149285D01*
X48386952Y-130363571D02*
X48196476Y-130899285D01*
X48691714Y-130899285D01*
%TO.C,U2*%
X71018476Y-144623285D02*
X71018476Y-145230428D01*
X71056571Y-145301857D01*
X71094666Y-145337571D01*
X71170857Y-145373285D01*
X71323238Y-145373285D01*
X71399428Y-145337571D01*
X71437523Y-145301857D01*
X71475619Y-145230428D01*
X71475619Y-144623285D01*
X71818476Y-144694714D02*
X71856571Y-144659000D01*
X71932761Y-144623285D01*
X72123238Y-144623285D01*
X72199428Y-144659000D01*
X72237523Y-144694714D01*
X72275619Y-144766142D01*
X72275619Y-144837571D01*
X72237523Y-144944714D01*
X71780380Y-145373285D01*
X72275619Y-145373285D01*
%TO.C,D7*%
X38409523Y-151189285D02*
X38409523Y-150439285D01*
X38600000Y-150439285D01*
X38714285Y-150475000D01*
X38790476Y-150546428D01*
X38828571Y-150617857D01*
X38866666Y-150760714D01*
X38866666Y-150867857D01*
X38828571Y-151010714D01*
X38790476Y-151082142D01*
X38714285Y-151153571D01*
X38600000Y-151189285D01*
X38409523Y-151189285D01*
X39133333Y-150439285D02*
X39666666Y-150439285D01*
X39323809Y-151189285D01*
%TO.C,D4*%
X42259523Y-156049285D02*
X42259523Y-155299285D01*
X42450000Y-155299285D01*
X42564285Y-155335000D01*
X42640476Y-155406428D01*
X42678571Y-155477857D01*
X42716666Y-155620714D01*
X42716666Y-155727857D01*
X42678571Y-155870714D01*
X42640476Y-155942142D01*
X42564285Y-156013571D01*
X42450000Y-156049285D01*
X42259523Y-156049285D01*
X43402380Y-155549285D02*
X43402380Y-156049285D01*
X43211904Y-155263571D02*
X43021428Y-155799285D01*
X43516666Y-155799285D01*
%TO.C,D1*%
X36913523Y-113689285D02*
X36913523Y-112939285D01*
X37104000Y-112939285D01*
X37218285Y-112975000D01*
X37294476Y-113046428D01*
X37332571Y-113117857D01*
X37370666Y-113260714D01*
X37370666Y-113367857D01*
X37332571Y-113510714D01*
X37294476Y-113582142D01*
X37218285Y-113653571D01*
X37104000Y-113689285D01*
X36913523Y-113689285D01*
X38132571Y-113689285D02*
X37675428Y-113689285D01*
X37904000Y-113689285D02*
X37904000Y-112939285D01*
X37827809Y-113046428D01*
X37751619Y-113117857D01*
X37675428Y-113153571D01*
%TO.C,C52*%
X66033714Y-148581857D02*
X65995619Y-148617571D01*
X65881333Y-148653285D01*
X65805142Y-148653285D01*
X65690857Y-148617571D01*
X65614666Y-148546142D01*
X65576571Y-148474714D01*
X65538476Y-148331857D01*
X65538476Y-148224714D01*
X65576571Y-148081857D01*
X65614666Y-148010428D01*
X65690857Y-147939000D01*
X65805142Y-147903285D01*
X65881333Y-147903285D01*
X65995619Y-147939000D01*
X66033714Y-147974714D01*
X66757523Y-147903285D02*
X66376571Y-147903285D01*
X66338476Y-148260428D01*
X66376571Y-148224714D01*
X66452761Y-148189000D01*
X66643238Y-148189000D01*
X66719428Y-148224714D01*
X66757523Y-148260428D01*
X66795619Y-148331857D01*
X66795619Y-148510428D01*
X66757523Y-148581857D01*
X66719428Y-148617571D01*
X66643238Y-148653285D01*
X66452761Y-148653285D01*
X66376571Y-148617571D01*
X66338476Y-148581857D01*
X67100380Y-147974714D02*
X67138476Y-147939000D01*
X67214666Y-147903285D01*
X67405142Y-147903285D01*
X67481333Y-147939000D01*
X67519428Y-147974714D01*
X67557523Y-148046142D01*
X67557523Y-148117571D01*
X67519428Y-148224714D01*
X67062285Y-148653285D01*
X67557523Y-148653285D01*
%TO.C,C27*%
X41553714Y-148453857D02*
X41515619Y-148489571D01*
X41401333Y-148525285D01*
X41325142Y-148525285D01*
X41210857Y-148489571D01*
X41134666Y-148418142D01*
X41096571Y-148346714D01*
X41058476Y-148203857D01*
X41058476Y-148096714D01*
X41096571Y-147953857D01*
X41134666Y-147882428D01*
X41210857Y-147811000D01*
X41325142Y-147775285D01*
X41401333Y-147775285D01*
X41515619Y-147811000D01*
X41553714Y-147846714D01*
X41858476Y-147846714D02*
X41896571Y-147811000D01*
X41972761Y-147775285D01*
X42163238Y-147775285D01*
X42239428Y-147811000D01*
X42277523Y-147846714D01*
X42315619Y-147918142D01*
X42315619Y-147989571D01*
X42277523Y-148096714D01*
X41820380Y-148525285D01*
X42315619Y-148525285D01*
X42582285Y-147775285D02*
X43115619Y-147775285D01*
X42772761Y-148525285D01*
%TO.C,C10*%
X56210714Y-123457857D02*
X56172619Y-123493571D01*
X56058333Y-123529285D01*
X55982142Y-123529285D01*
X55867857Y-123493571D01*
X55791666Y-123422142D01*
X55753571Y-123350714D01*
X55715476Y-123207857D01*
X55715476Y-123100714D01*
X55753571Y-122957857D01*
X55791666Y-122886428D01*
X55867857Y-122815000D01*
X55982142Y-122779285D01*
X56058333Y-122779285D01*
X56172619Y-122815000D01*
X56210714Y-122850714D01*
X56972619Y-123529285D02*
X56515476Y-123529285D01*
X56744047Y-123529285D02*
X56744047Y-122779285D01*
X56667857Y-122886428D01*
X56591666Y-122957857D01*
X56515476Y-122993571D01*
X57467857Y-122779285D02*
X57544047Y-122779285D01*
X57620238Y-122815000D01*
X57658333Y-122850714D01*
X57696428Y-122922142D01*
X57734523Y-123065000D01*
X57734523Y-123243571D01*
X57696428Y-123386428D01*
X57658333Y-123457857D01*
X57620238Y-123493571D01*
X57544047Y-123529285D01*
X57467857Y-123529285D01*
X57391666Y-123493571D01*
X57353571Y-123457857D01*
X57315476Y-123386428D01*
X57277380Y-123243571D01*
X57277380Y-123065000D01*
X57315476Y-122922142D01*
X57353571Y-122850714D01*
X57391666Y-122815000D01*
X57467857Y-122779285D01*
%TD*%
M02*
