M48
; DRILL file {KiCad 5.1.8+dfsg1-1~bpo10+1} date Sat Jan 23 23:28:02 2021
; FORMAT={-:-/ absolute / inch / decimal}
; #@! TF.CreationDate,2021-01-23T23:28:02+00:00
; #@! TF.GenerationSoftware,Kicad,Pcbnew,5.1.8+dfsg1-1~bpo10+1
; #@! TF.FileFunction,Plated,1,4,PTH
FMAT,2
INCH
T1C0.0100
T2C0.0157
T3C0.0197
%
G90
G05
T1
X6.9488Y-3.7181
X6.9492Y-3.7673
X6.9492Y-3.8673
X6.9496Y-3.6673
X6.9737Y-4.2078
X6.9798Y-4.5664
X6.9818Y-4.2294
X6.989Y-4.1665
X6.9961Y-4.5827
X7.002Y-4.2421
X7.0059Y-4.9705
X7.0315Y-4.1142
X7.0315Y-4.9055
X7.0315Y-4.9291
X7.0317Y-4.6795
X7.0472Y-4.9724
X7.0472Y-5.0906
X7.0492Y-5.0098
X7.0509Y-4.6996
X7.0531Y-4.0945
X7.0551Y-4.2913
X7.0669Y-5.1378
X7.0704Y-4.7183
X7.0846Y-5.0098
X7.0866Y-5.0906
X7.0946Y-4.7534
X7.098Y-3.6563
X7.1063Y-4.9213
X7.1077Y-4.8021
X7.1161Y-4.4449
X7.1175Y-4.7804
X7.1245Y-4.9705
X7.126Y-5.0492
X7.128Y-5.0906
X7.1323Y-3.5453
X7.1369Y-4.7502
X7.1398Y-4.4173
X7.1476Y-4.3602
X7.1496Y-4.039
X7.1577Y-4.5571
X7.1704Y-4.3567
X7.1723Y-4.0214
X7.1909Y-4.3465
X7.1925Y-4.0425
X7.2047Y-5.0118
X7.2047Y-5.0512
X7.2084Y-4.8071
X7.2126Y-4.311
X7.2201Y-4.1479
X7.2236Y-4.04
X7.224Y-3.3937
X7.2244Y-4.3799
X7.2254Y-3.7913
X7.2324Y-4.2933
X7.2331Y-4.0041
X7.2355Y-4.0609
X7.2373Y-3.9335
X7.2377Y-4.1058
X7.2559Y-4.4843
X7.2583Y-4.0575
X7.2795Y-4.2323
X7.2906Y-4.7315
X7.2915Y-4.3479
X7.2925Y-4.6535
X7.2958Y-4.216
X7.2992Y-4.8898
X7.3021Y-3.9935
X7.3071Y-5.2087
X7.3092Y-3.957
X7.313Y-4.2402
X7.3134Y-4.726
X7.315Y-5.4409
X7.3189Y-4.9094
X7.3193Y-3.6098
X7.3303Y-3.7602
X7.3307Y-4.0394
X7.3379Y-3.9992
X7.3492Y-3.6394
X7.3579Y-4.1689
X7.3701Y-4.5354
X7.3714Y-4.6916
X7.3727Y-4.7586
X7.3792Y-4.7263
X7.3839Y-4.5138
X7.3896Y-4.3387
X7.3898Y-4.0809
X7.3984Y-4.0446
X7.4134Y-3.6398
X7.4134Y-4.4094
X7.427Y-4.0607
X7.4331Y-5.4882
X7.4331Y-5.5276
X7.4366Y-4.32
X7.438Y-3.9085
X7.4409Y-4.878
X7.4419Y-4.0807
X7.4646Y-4.9606
X7.4648Y-4.0532
X7.4685Y-4.622
X7.4685Y-4.7953
X7.4764Y-4.2362
X7.4816Y-4.4572
X7.4992Y-4.2598
X7.5084Y-3.9301
X7.5157Y-4.7323
X7.5165Y-4.6285
X7.5167Y-4.675
X7.5172Y-4.7033
X7.5197Y-4.3307
X7.5228Y-3.6409
X7.526Y-4.5233
X7.5315Y-3.9154
X7.5335Y-4.8346
X7.5352Y-4.0552
X7.5367Y-4.2752
X7.5371Y-4.5444
X7.5373Y-4.0129
X7.5466Y-5.2071
X7.5472Y-5.3268
X7.5472Y-5.3622
X7.5484Y-5.2492
X7.556Y-5.017
X7.5581Y-4.0266
X7.5709Y-5.1535
X7.5748Y-4.2834
X7.5748Y-5.3622
X7.5765Y-4.1325
X7.5768Y-4.6732
X7.5805Y-4.9035
X7.5833Y-4.9431
X7.5846Y-3.9833
X7.5927Y-5.0473
X7.5984Y-5.3622
X7.6Y-4.7859
X7.6041Y-4.9574
X7.6184Y-4.8206
X7.6198Y-4.7977
X7.626Y-5.3622
X7.6309Y-3.9242
X7.6329Y-4.122
X7.6329Y-4.424
X7.6385Y-4.5579
X7.6403Y-4.5307
X7.6457Y-5.0827
X7.6457Y-5.1378
X7.6535Y-5.3622
X7.6557Y-4.9685
X7.6811Y-5.3622
X7.6887Y-4.3922
X7.689Y-5.0827
X7.689Y-5.1378
X7.7011Y-4.5453
X7.7086Y-4.4944
X7.7126Y-5.3622
X7.7165Y-5.1378
X7.7402Y-5.3622
X7.7441Y-5.1693
X7.7441Y-5.2087
X7.7441Y-5.2677
X7.7483Y-4.1538
X7.752Y-4.3031
X7.7559Y-5.0787
X7.7638Y-4.0336
X7.7677Y-4.9035
X7.7717Y-5.3622
X7.7741Y-4.4986
X7.7795Y-4.7677
X7.7795Y-5.1181
X7.7835Y-4.685
X7.7874Y-5.1693
X7.7874Y-5.2087
X7.7874Y-5.3031
X7.8031Y-5.3622
X7.8067Y-5.0917
X7.811Y-4.5827
X7.8189Y-4.4843
X7.8273Y-4.5664
X7.8465Y-4.4843
X7.847Y-4.2002
X7.8713Y-4.2267
X7.874Y-4.4843
X7.8937Y-3.9035
X7.8996Y-4.6811
X7.9013Y-4.2414
X7.9193Y-3.9016
X7.9213Y-4.7008
X7.9213Y-5.4252
X7.9213Y-5.4685
X7.9213Y-5.5079
X7.9236Y-4.2564
X7.9319Y-4.9562
X7.9331Y-5.3268
X7.9409Y-5.3661
X7.958Y-4.292
X7.9764Y-4.8386
X7.9803Y-5.4055
X7.9921Y-4.3819
X8.0256Y-3.7028
X8.0256Y-3.7815
X8.0256Y-3.8602
X8.0295Y-4.1122
X8.0295Y-4.1949
X8.0315Y-4.2402
X8.0394Y-5.0039
X8.0394Y-5.4409
X8.0433Y-5.3307
X8.0453Y-3.7618
X8.0453Y-3.8406
X8.0453Y-3.8799
X8.0472Y-4.2126
X8.0605Y-3.9001
X8.061Y-4.0965
X8.061Y-4.1752
X8.0619Y-4.9803
X8.0619Y-5.0037
X8.0619Y-5.0256
X8.065Y-3.7421
X8.065Y-3.8209
X8.0717Y-5.1189
X8.0748Y-4.6654
X8.0775Y-3.9201
X8.0807Y-4.0768
X8.0807Y-4.1555
X8.0822Y-4.0374
X8.0846Y-3.7224
X8.0846Y-3.8012
X8.0846Y-5.0039
X8.0866Y-4.3937
X8.0925Y-4.1909
X8.0926Y-3.939
X8.1004Y-4.0571
X8.1004Y-4.1358
X8.1024Y-5.3346
X8.1024Y-5.4134
X8.1039Y-4.5567
X8.1339Y-4.9134
X8.143Y-5.0674
X8.1445Y-5.1071
X8.1446Y-4.194
X8.1457Y-4.2717
X8.1457Y-4.3031
X8.1541Y-5.1643
X8.1572Y-5.1415
X8.1593Y-5.0893
X8.1634Y-3.8071
X8.1634Y-3.8543
X8.1654Y-5.4409
X8.1673Y-5.1831
X8.1673Y-5.2835
X8.1772Y-4.9528
X8.185Y-4.7244
X8.1889Y-4.2406
X8.189Y-4.0669
X8.189Y-4.3705
X8.189Y-4.4803
X8.189Y-4.7598
X8.1909Y-3.6535
X8.1949Y-3.8799
X8.2146Y-3.8996
X8.2283Y-4.1181
X8.2283Y-4.1378
X8.2283Y-4.1575
X8.2283Y-4.563
X8.2283Y-5.4055
X8.2343Y-3.9193
X8.2441Y-4.0945
X8.2441Y-4.8898
X8.2579Y-3.939
X8.2638Y-4.5945
X8.2835Y-3.5748
X8.2913Y-5.4409
X8.3071Y-4.5
X8.3189Y-4.9094
X8.3228Y-3.9724
X8.3263Y-4.3836
X8.3307Y-5.0315
X8.3346Y-4.7224
X8.3509Y-4.4314
X8.3636Y-4.2835
X8.4016Y-4.4843
X8.4449Y-4.5
X8.4606Y-3.6693
X8.4646Y-4.3976
X8.4685Y-4.8583
X8.4873Y-4.5959
X8.5062Y-4.609
T2
X8.2476Y-5.0433
X8.2476Y-5.1063
X8.2476Y-5.1378
X8.2476Y-5.1693
X8.2476Y-5.2008
X8.2476Y-5.2638
X8.2752Y-5.0591
X8.2752Y-5.0906
X8.2752Y-5.122
X8.2752Y-5.185
X8.2752Y-5.2165
X8.2752Y-5.248
T3
X8.3857Y-4.7933
X8.4251Y-4.7933
X8.4644Y-4.7933
X8.4607Y-4.1335
X8.4607Y-4.1728
X8.4607Y-4.2122
X7.7008Y-4.836
X7.7402Y-4.836
T3
G00X8.2594Y-4.9909
M15
G01X8.2831Y-4.9909
M16
G05
G00X8.2594Y-5.3161
M15
G01X8.2831Y-5.3161
M16
G05
G00X8.4937Y-4.9768
M15
G01X8.5173Y-4.9768
M16
G05
G00X8.4937Y-5.3303
M15
G01X8.5173Y-5.3303
M16
G05
T0
M30
