M48
; DRILL file {KiCad 5.1.9+dfsg1-1~bpo10+1} date Thu Mar  4 00:37:42 2021
; FORMAT={-:-/ absolute / inch / decimal}
; #@! TF.CreationDate,2021-03-04T00:37:42+00:00
; #@! TF.GenerationSoftware,Kicad,Pcbnew,5.1.9+dfsg1-1~bpo10+1
; #@! TF.FileFunction,Plated,1,4,PTH
FMAT,2
INCH
T1C0.0100
T2C0.0157
T3C0.0197
T4C0.0866
%
G90
G05
T1
X1.3895Y-6.0705
X1.4311Y-4.2677
X1.4311Y-4.3543
X1.4311Y-5.4882
X1.4311Y-5.5748
X1.4886Y-5.2555
X1.5835Y-5.1433
X1.5988Y-5.387
X1.6024Y-5.1744
X1.6181Y-5.4626
X1.626Y-4.378
X1.626Y-4.9902
X1.635Y-4.521
X1.6469Y-4.6075
X1.6639Y-5.1953
X1.6654Y-6.0902
X1.6665Y-6.1508
X1.6728Y-4.6748
X1.7008Y-4.987
X1.7165Y-5.4252
X1.7323Y-4.5945
X1.739Y-5.2248
X1.7559Y-4.9055
X1.7744Y-4.9146
X1.7937Y-4.9047
X1.8031Y-5.1142
X1.8065Y-5.6923
X1.8179Y-6.0217
X1.8376Y-5.1152
X1.8594Y-5.2461
X1.8732Y-5.572
X1.8886Y-4.3083
X1.8894Y-5.7114
X1.8909Y-5.6535
X1.9064Y-6.0039
X1.9177Y-4.9091
X1.9201Y-5.6827
X1.9242Y-4.4262
X1.9342Y-6.0167
X1.9402Y-4.3083
X1.9425Y-4.6185
X1.9496Y-5.6535
X1.9496Y-5.7114
X1.9531Y-5.7957
X1.9701Y-4.4189
X1.9811Y-5.2661
X1.985Y-5.4386
X1.9882Y-5.7961
X1.9959Y-4.9506
X1.9984Y-5.863
X2.002Y-5.5925
X2.0059Y-5.7669
X2.0339Y-5.7417
X2.0591Y-5.5787
X2.0622Y-5.6728
X2.065Y-5.7378
X2.0661Y-5.8126
X2.0673Y-4.2626
X2.0677Y-4.2421
X2.0695Y-4.5864
X2.0705Y-4.9091
X2.0787Y-5.3138
X2.1071Y-4.3248
X2.1087Y-5.4004
X2.1181Y-4.4469
X2.1366Y-5.3291
X2.1378Y-5.0945
X2.1386Y-5.1185
X2.1594Y-5.172
X2.2008Y-5.2618
X2.2118Y-5.0811
X2.2264Y-4.2315
X2.2336Y-4.9434
X2.252Y-5.2622
X2.2618Y-5.3533
X2.289Y-4.4783
X2.2894Y-5.172
X2.2969Y-6.1661
X2.2972Y-6.1201
X2.3075Y-3.8278
X2.3088Y-4.4423
X2.3185Y-3.7541
X2.3185Y-3.7888
X2.3259Y-5.3125
X2.3283Y-3.8785
X2.3287Y-3.723
X2.3445Y-5.4323
X2.3469Y-3.6967
X2.352Y-5.4724
X2.3622Y-5.0945
X2.3634Y-5.8067
X2.3654Y-3.8781
X2.3732Y-3.6801
X2.378Y-5.3335
X2.378Y-5.5512
X2.378Y-5.7323
X2.3799Y-6.0118
X2.3823Y-3.7463
X2.3858Y-4.0197
X2.3878Y-3.8278
X2.3902Y-4.1268
X2.3906Y-4.0685
X2.3953Y-5.8063
X2.3976Y-5.0413
X2.4043Y-3.6781
X2.4134Y-3.7888
X2.415Y-3.747
X2.4154Y-3.6429
X2.4193Y-5.4197
X2.4276Y-5.2295
X2.4276Y-5.8449
X2.428Y-5.813
X2.437Y-3.9945
X2.4429Y-5.878
X2.4429Y-5.939
X2.4476Y-3.7876
X2.4476Y-3.8675
X2.4476Y-3.9065
X2.448Y-3.7486
X2.4488Y-3.5856
X2.4488Y-3.6305
X2.4512Y-5.7988
X2.4516Y-5.7618
X2.4587Y-5.1965
X2.4665Y-5.878
X2.4665Y-5.939
X2.4753Y-5.01
X2.5082Y-4.8134
X2.511Y-4.1862
X2.5413Y-4.1654
X2.5476Y-4.6205
X2.5575Y-4.865
X2.5728Y-4.7283
X2.5752Y-4.0642
X2.5752Y-4.9992
X2.5756Y-4.024
X2.5807Y-5.0311
X2.5875Y-5.1055
X2.5988Y-4.9799
X2.6094Y-6.0738
X2.6142Y-4.9488
X2.6283Y-4.7846
X2.6354Y-4.9799
X2.6358Y-4.7067
X2.6598Y-6.2012
X2.6626Y-4.1466
X2.6953Y-4.2134
X2.7246Y-6.1896
X2.7321Y-5.1691
X2.7333Y-4.6014
X2.7343Y-4.2146
X2.7343Y-4.8524
X2.7346Y-4.8976
X2.7382Y-5.087
X2.7421Y-4.0319
X2.7465Y-5.327
X2.7575Y-5.4693
X2.7579Y-5.4311
X2.7594Y-4.8732
X2.7657Y-5.1673
X2.7677Y-5.0561
X2.7756Y-5.9764
X2.7766Y-4.6693
X2.7848Y-5.327
X2.7933Y-6.0059
X2.7947Y-4.5205
X2.813Y-6.0374
X2.815Y-5.9449
X2.8154Y-4.4882
X2.8287Y-5.0177
X2.8317Y-3.7569
X2.8319Y-3.7874
X2.8356Y-5.313
X2.8397Y-5.4152
X2.8524Y-5.9449
X2.8543Y-5.3691
X2.8622Y-6.2008
X2.8689Y-5.7
X2.872Y-5.9705
X2.874Y-4.2303
X2.874Y-5.3217
X2.8744Y-5.1902
X2.8744Y-5.2839
X2.8775Y-5.4498
X2.878Y-5.4902
X2.878Y-5.5681
X2.878Y-5.6098
X2.8863Y-4.686
X2.8917Y-5.9941
X2.8979Y-5.3691
X2.9008Y-5.1067
X2.9138Y-5.2791
X2.9154Y-5.415
X2.9154Y-5.3378
X2.9173Y-5.5685
X2.9183Y-5.4902
X2.9185Y-5.4488
X2.9206Y-4.6855
X2.9327Y-5.1709
X2.9335Y-5.3045
X2.9335Y-6.0239
X2.9508Y-6.0492
X2.9532Y-5.3346
X2.9537Y-3.747
X2.9539Y-4.1362
X2.9555Y-3.8268
X2.9567Y-5.5276
X2.9638Y-4.6665
X2.9646Y-5.9921
X2.9697Y-5.6996
X2.9705Y-6.0728
X2.9921Y-4.6575
X2.9961Y-4.563
X2.9961Y-5.4508
X3.002Y-5.1752
X3.0039Y-4.5
X3.0039Y-5.928
X3.0078Y-5.991
X3.0173Y-6.2008
X3.0197Y-4.6713
X3.0315Y-4.5197
X3.0343Y-5.4508
X3.0343Y-5.5283
X3.0354Y-4.9616
X3.0354Y-5.1083
X3.0394Y-5.9921
X3.0516Y-4.5528
X3.0571Y-5.8543
X3.0691Y-4.6697
X3.0709Y-5.9921
X3.0886Y-4.8764
X3.0909Y-4.5591
X3.0972Y-4.4457
X3.0984Y-6.0512
X3.1055Y-4.7437
X3.1083Y-6.0795
X3.1094Y-5.9961
X3.1138Y-4.9346
X3.1181Y-5.1752
X3.1201Y-4.9016
X3.1246Y-5.4701
X3.1279Y-6.0244
X3.1295Y-4.663
X3.1299Y-5.8004
X3.1307Y-6.1055
X3.1307Y-5.2894
X3.135Y-5.5339
X3.1358Y-5.6835
X3.1437Y-5.1102
X3.1447Y-4.9626
X3.1473Y-5.3278
X3.1496Y-4.8181
X3.15Y-4.5602
X3.1536Y-4.691
X3.159Y-6.034
X3.1614Y-5.1772
X3.1693Y-5.3004
X3.1713Y-5.9291
X3.1779Y-4.9323
X3.1811Y-6.0551
X3.1841Y-4.6909
X3.1866Y-6.2004
X3.187Y-4.5157
X3.2055Y-6.0799
X3.2067Y-4.7431
X3.2087Y-4.4941
X3.2106Y-4.7096
X3.2138Y-4.8772
X3.2315Y-5.1189
X3.2346Y-5.2581
X3.2352Y-5.565
X3.2362Y-4.9583
X3.237Y-5.3551
X3.2374Y-5.4276
X3.2421Y-5.7264
X3.2425Y-5.8787
X3.2496Y-4.4492
X3.2539Y-5.5315
X3.2677Y-6.0354
X3.2694Y-6.0755
X3.29Y-6.0979
X3.3103Y-6.0716
X3.3169Y-5.2343
X3.3445Y-4.624
X3.348Y-5.924
X3.3484Y-4.9222
X3.3492Y-5.7622
X3.353Y-5.1953
X3.3551Y-5.3157
X3.3551Y-5.3413
X3.3553Y-4.862
X3.3553Y-5.2677
X3.3553Y-5.6614
X3.3563Y-4.8287
X3.3593Y-4.7825
X3.3602Y-5.3996
X3.3612Y-5.501
X3.363Y-4.7496
X3.3673Y-4.967
X3.3673Y-5.0011
X3.3768Y-5.0602
X3.3799Y-5.2352
X3.3868Y-5.6001
X3.3868Y-4.4488
X3.3869Y-5.57
X3.3898Y-4.9416
X3.3937Y-5.0236
X3.3947Y-4.7313
X3.3996Y-5.0856
X3.4016Y-4.9882
X3.4043Y-4.6654
X3.4045Y-4.6988
X3.4055Y-4.8398
X3.4091Y-5.1803
X3.4124Y-4.8691
X3.4134Y-4.9193
X3.4173Y-6.0866
X3.4252Y-4.4705
X3.4421Y-5.4657
X3.4425Y-5.4146
X3.4439Y-5.6801
X3.4476Y-5.272
X3.4537Y-5.7539
X3.4567Y-4.5955
X3.4626Y-5.0384
X3.4665Y-5.8031
X3.5079Y-6.0744
X3.5079Y-6.2386
X3.5129Y-5.9332
X3.5177Y-4.9055
X3.5187Y-4.8043
X3.5187Y-4.8543
X3.5226Y-4.4705
X3.5226Y-4.6949
X3.5272Y-5.4661
X3.528Y-5.0854
X3.5285Y-5.6181
X3.5433Y-6.2667
X3.5443Y-6.1732
X3.565Y-4.7362
X3.5837Y-5.2421
X3.5846Y-5.31
X3.5915Y-6.1467
X3.6063Y-5.8976
X3.6203Y-5.3425
X3.6358Y-4.8012
X3.6457Y-4.7382
X3.6642Y-6.1472
X3.6644Y-5.5152
X3.6727Y-5.5991
X3.6891Y-4.8257
X3.6949Y-5.3858
X3.6988Y-5.5138
X3.7189Y-5.3319
X3.7323Y-5.872
X3.7323Y-6.0276
X3.7323Y-6.0827
X3.7402Y-5.2315
X3.7402Y-5.2854
X3.7402Y-6.1477
X3.7502Y-6.0553
X3.7551Y-6.006
X3.7707Y-5.9124
X3.7805Y-5.9439
X3.8Y-5.8082
X3.8031Y-6.0394
X3.8031Y-6.0827
X3.8114Y-5.7705
X3.8182Y-5.9569
X3.8256Y-5.2992
X3.8267Y-5.4082
X3.8288Y-4.5118
X3.8366Y-4.4705
X3.8376Y-6.0388
X3.8403Y-6.0765
X3.8492Y-4.5953
X3.8504Y-4.5531
X3.8504Y-4.6407
X3.8524Y-4.4213
X3.8817Y-5.2965
X3.8878Y-5.1854
X3.8909Y-5.9599
X3.8917Y-6.0507
X3.9036Y-6.0091
X3.9055Y-6.1476
X3.9094Y-6.0866
X3.9273Y-5.9524
X3.9429Y-5.3278
X3.9638Y-6.1041
X3.9665Y-5.3587
X3.9744Y-5.9665
X3.9783Y-6.1476
X3.9795Y-5.322
X4.0551Y-6.1476
T2
X1.37Y-5.61
X1.3713Y-3.6794
X1.3713Y-3.8254
X1.3713Y-4.23
X1.3713Y-4.39
X1.3713Y-4.6648
X1.3713Y-4.84
X1.3713Y-5.01
X1.3713Y-5.1758
X1.3713Y-5.3583
X1.3713Y-5.45
X1.3976Y-4.0157
X1.3976Y-5.6969
X1.3976Y-5.8268
X1.4078Y-5.0663
X1.4078Y-6.2342
X1.4167Y-3.9698
X1.4167Y-4.0617
X1.4167Y-5.7808
X1.4167Y-5.8727
X1.4443Y-3.6065
X1.4443Y-3.7524
X1.4443Y-3.8984
X1.4443Y-4.4459
X1.4443Y-4.7378
X1.4622Y-5.2276
X1.4626Y-3.9508
X1.4626Y-4.0807
X1.4626Y-5.7618
X1.4626Y-5.8917
X1.4808Y-4.2999
X1.4808Y-4.9203
X1.4808Y-5.3948
X1.4808Y-5.5407
X1.502Y-5.1398
X1.5085Y-3.9698
X1.5085Y-4.0617
X1.5085Y-5.7808
X1.5085Y-5.8727
X1.5173Y-3.6794
X1.5173Y-3.8254
X1.5173Y-4.6648
X1.5276Y-4.0157
X1.5276Y-5.8268
X1.5512Y-6.2323
X1.5538Y-4.2269
X1.5538Y-5.6137
X1.5903Y-3.6065
X1.5903Y-3.7524
X1.5903Y-3.8984
X1.5903Y-4.7378
X1.6268Y-4.0079
X1.6268Y-4.1539
X1.6268Y-5.6867
X1.6268Y-5.8327
X1.6633Y-3.6794
X1.6633Y-3.8254
X1.6909Y-5.939
X1.6988Y-4.7638
X1.6998Y-3.9349
X1.6998Y-4.0809
X1.6998Y-4.2269
X1.6998Y-5.0298
X1.6998Y-5.6137
X1.6998Y-6.1247
X1.7363Y-3.6065
X1.7363Y-3.7524
X1.7363Y-5.5043
X1.7539Y-6.1713
X1.7697Y-4.6004
X1.7728Y-3.8619
X1.7728Y-4.0079
X1.7728Y-4.1539
X1.7728Y-5.2488
X1.8093Y-3.6794
X1.8093Y-4.4094
X1.8093Y-5.4313
X1.8169Y-4.7037
X1.8458Y-3.7889
X1.8458Y-3.9349
X1.8458Y-4.0809
X1.8823Y-3.6065
X1.9188Y-3.7159
X1.9188Y-3.8619
X1.9188Y-4.0079
X1.9553Y-4.1174
X1.9553Y-4.2634
X1.9918Y-3.643
X1.9918Y-3.7889
X1.9918Y-3.9349
X1.9918Y-6.0152
X2.0283Y-4.0444
X2.0287Y-4.7693
X2.0648Y-3.7159
X2.0648Y-3.8619
X2.0648Y-4.4824
X2.0648Y-4.6283
X2.0648Y-5.9422
X2.1013Y-3.6065
X2.1013Y-3.9714
X2.1013Y-4.1174
X2.1013Y-6.0517
X2.1378Y-3.7889
X2.1378Y-4.2269
X2.1378Y-6.1612
X2.1555Y-4.4331
X2.1713Y-5.8681
X2.1743Y-3.6794
X2.1743Y-3.8984
X2.1743Y-4.0444
X2.1743Y-5.9787
X2.2108Y-5.4313
X2.2108Y-6.0882
X2.2108Y-6.2342
X2.2473Y-3.6065
X2.2473Y-3.7524
X2.2473Y-3.9714
X2.2473Y-5.7597
X2.2837Y-4.2269
X2.2837Y-4.3729
X2.2837Y-5.1028
X2.3202Y-4.9203
X2.3567Y-4.2999
X2.3567Y-4.4459
X2.3661Y-3.6043
X2.3932Y-6.1247
X2.4297Y-4.3729
X2.4297Y-4.5189
X2.4662Y-4.1174
X2.4662Y-6.1977
X2.5027Y-4.2634
X2.5027Y-4.4459
X2.5027Y-5.5407
X2.5027Y-6.0882
X2.5392Y-5.6502
X2.5757Y-4.3729
X2.5757Y-4.5189
X2.5757Y-5.4678
X2.5757Y-5.8692
X2.6122Y-3.7889
X2.6122Y-5.5772
X2.6122Y-5.7232
X2.6122Y-5.9787
X2.6487Y-3.8984
X2.6487Y-5.3948
X2.6852Y-5.5043
X2.6852Y-5.6502
X2.6852Y-5.7962
X2.7217Y-3.8254
X2.7217Y-4.4094
X2.7217Y-5.9057
X2.7217Y-6.0517
X2.7582Y-3.9349
X2.7582Y-5.5772
X2.7582Y-5.7232
X2.7947Y-5.8327
X2.8312Y-4.1174
X2.8312Y-5.6502
X2.8677Y-5.7597
X2.9042Y-4.3729
X2.9042Y-4.5189
X2.9407Y-5.0663
X2.9772Y-3.6065
X2.9772Y-3.9349
X2.9772Y-5.6502
X3.0039Y-4.4508
X3.0137Y-3.7159
X3.0137Y-4.0444
X3.0137Y-4.8108
X3.0502Y-3.8254
X3.0867Y-3.643
X3.0867Y-3.9714
X3.0867Y-4.1174
X3.1102Y-4.502
X3.1232Y-3.7524
X3.1232Y-5.0298
X3.1597Y-3.8619
X3.1597Y-4.0444
X3.1597Y-4.1904
X3.1961Y-3.6065
X3.2326Y-3.7159
X3.2326Y-3.9349
X3.2326Y-4.1174
X3.2691Y-3.8254
X3.3056Y-3.643
X3.3056Y-4.0079
X3.3056Y-4.1904
X3.3421Y-3.7524
X3.3421Y-3.8984
X3.3786Y-4.0809
X3.4151Y-3.6065
X3.4151Y-3.8254
X3.4151Y-3.9714
X3.4151Y-4.2269
X3.4151Y-4.3729
X3.4516Y-3.7159
X3.4881Y-3.8984
X3.4881Y-4.0444
X3.4881Y-4.2999
X3.5246Y-3.643
X3.5246Y-3.7889
X3.5246Y-4.1539
X3.5246Y-4.4094
X3.5611Y-3.9714
X3.5611Y-4.8108
X3.5748Y-5.9646
X3.5976Y-3.7159
X3.5976Y-3.8619
X3.5976Y-4.0809
X3.5976Y-4.2269
X3.5976Y-4.6648
X3.5976Y-4.9203
X3.6341Y-3.6065
X3.6341Y-4.3364
X3.6706Y-3.7889
X3.6706Y-3.9349
X3.6706Y-4.1539
X3.6706Y-4.4459
X3.6713Y-4.5965
X3.7071Y-3.6794
X3.7071Y-4.0444
X3.7071Y-4.2634
X3.7436Y-3.8619
X3.7436Y-4.3729
X3.7436Y-4.8108
X3.7436Y-4.9568
X3.7801Y-3.6065
X3.7801Y-3.7524
X3.7801Y-3.9714
X3.7801Y-4.1174
X3.7801Y-4.6283
X3.8166Y-4.2269
X3.8166Y-4.8838
X3.8531Y-3.6794
X3.8531Y-3.8254
X3.8531Y-4.3364
X3.8531Y-4.7743
X3.8531Y-4.9933
X3.8681Y-5.5079
X3.878Y-4.0157
X3.878Y-5.8268
X3.897Y-3.9698
X3.897Y-4.0617
X3.897Y-5.7808
X3.897Y-5.8727
X3.9261Y-3.6065
X3.9261Y-3.7524
X3.9261Y-3.8984
X3.9261Y-4.2634
X3.9261Y-4.8473
X3.9409Y-5.5079
X3.9429Y-3.9508
X3.9429Y-4.0807
X3.9429Y-5.7618
X3.9429Y-5.8917
X3.9626Y-4.3729
X3.9626Y-4.7013
X3.9626Y-4.9568
X3.9888Y-3.9698
X3.9888Y-4.0617
X3.9888Y-5.7808
X3.9888Y-5.8727
X3.9991Y-3.6794
X3.9991Y-3.8254
X3.9991Y-4.4824
X4.0079Y-4.0157
X4.0079Y-5.8268
X4.026Y-5.3925
X4.0335Y-5.6957
X4.0343Y-5.5992
X4.0356Y-4.2999
X4.0356Y-4.5919
X4.0356Y-4.8108
X4.0356Y-5.0298
X4.0421Y-5.9382
T3
X1.749Y-4.8711
X1.7795Y-4.4449
X1.7795Y-4.5256
X1.8602Y-4.5256
X1.8661Y-6.0453
X1.9311Y-5.248
X1.9409Y-4.5256
X2.0976Y-5.613
X2.0976Y-5.6524
X2.0976Y-5.6917
X2.2264Y-4.7815
X2.5217Y-5.9134
X2.7933Y-4.7648
X2.8356Y-4.8346
X2.874Y-4.7638
X3.5118Y-5.8622
T4
X1.4626Y-4.0157
X1.4626Y-5.8268
X3.9429Y-4.0157
X3.9429Y-5.8268
T0
M30
