%TF.GenerationSoftware,KiCad,Pcbnew,5.1.8+dfsg1-1~bpo10+1*%
%TF.CreationDate,2021-01-23T23:31:27+00:00*%
%TF.ProjectId,atlas,61746c61-732e-46b6-9963-61645f706362,rev?*%
%TF.SameCoordinates,Original*%
%TF.FileFunction,Soldermask,Top*%
%TF.FilePolarity,Negative*%
%FSLAX46Y46*%
G04 Gerber Fmt 4.6, Leading zero omitted, Abs format (unit mm)*
G04 Created by KiCad (PCBNEW 5.1.8+dfsg1-1~bpo10+1) date 2021-01-23 23:31:27*
%MOMM*%
%LPD*%
G01*
G04 APERTURE LIST*
%ADD10C,0.100000*%
%ADD11O,0.900000X0.900000*%
%ADD12C,2.250000*%
%ADD13C,0.450000*%
%ADD14O,1.450000X0.850000*%
%ADD15O,0.700000X1.000000*%
%ADD16C,0.700000*%
G04 APERTURE END LIST*
D10*
%TO.C,U10*%
G36*
X203532017Y-128618323D02*
G01*
X203545690Y-128619669D01*
X203548119Y-128620030D01*
X203561594Y-128622711D01*
X203563972Y-128623306D01*
X203577120Y-128627294D01*
X203579430Y-128628121D01*
X203592123Y-128633378D01*
X203594343Y-128634428D01*
X203606459Y-128640905D01*
X203608562Y-128642165D01*
X203619986Y-128649798D01*
X203621957Y-128651260D01*
X203632577Y-128659976D01*
X203634395Y-128661623D01*
X203644110Y-128671338D01*
X203645757Y-128673156D01*
X203654473Y-128683776D01*
X203655935Y-128685747D01*
X203663568Y-128697171D01*
X203664828Y-128699274D01*
X203671305Y-128711390D01*
X203672355Y-128713610D01*
X203677612Y-128726303D01*
X203678439Y-128728613D01*
X203682427Y-128741761D01*
X203683022Y-128744139D01*
X203685703Y-128757614D01*
X203686064Y-128760043D01*
X203687410Y-128773716D01*
X203687530Y-128776165D01*
X203687530Y-128781317D01*
X203687699Y-128783034D01*
X203687699Y-129493034D01*
X203687219Y-129497911D01*
X203685796Y-129502601D01*
X203683486Y-129506923D01*
X203680377Y-129510712D01*
X203676588Y-129513821D01*
X203672266Y-129516131D01*
X203667576Y-129517554D01*
X203662699Y-129518034D01*
X203382699Y-129518034D01*
X203377822Y-129517554D01*
X203373132Y-129516131D01*
X203368810Y-129513821D01*
X203365021Y-129510712D01*
X203361912Y-129506923D01*
X203359602Y-129502601D01*
X203358179Y-129497911D01*
X203357699Y-129493034D01*
X203357699Y-128783034D01*
X203357868Y-128781317D01*
X203357868Y-128776165D01*
X203357988Y-128773716D01*
X203359334Y-128760043D01*
X203359695Y-128757614D01*
X203362376Y-128744139D01*
X203362971Y-128741761D01*
X203366959Y-128728613D01*
X203367786Y-128726303D01*
X203373043Y-128713610D01*
X203374093Y-128711390D01*
X203380570Y-128699274D01*
X203381830Y-128697171D01*
X203389463Y-128685747D01*
X203390925Y-128683776D01*
X203399641Y-128673156D01*
X203401288Y-128671338D01*
X203411003Y-128661623D01*
X203412821Y-128659976D01*
X203423441Y-128651260D01*
X203425412Y-128649798D01*
X203436836Y-128642165D01*
X203438939Y-128640905D01*
X203451055Y-128634428D01*
X203453275Y-128633378D01*
X203465968Y-128628121D01*
X203468278Y-128627294D01*
X203481426Y-128623306D01*
X203483804Y-128622711D01*
X203497279Y-128620030D01*
X203499708Y-128619669D01*
X203513381Y-128618323D01*
X203515830Y-128618203D01*
X203529568Y-128618203D01*
X203532017Y-128618323D01*
G37*
G36*
X204032017Y-128618323D02*
G01*
X204045690Y-128619669D01*
X204048119Y-128620030D01*
X204061594Y-128622711D01*
X204063972Y-128623306D01*
X204077120Y-128627294D01*
X204079430Y-128628121D01*
X204092123Y-128633378D01*
X204094343Y-128634428D01*
X204106459Y-128640905D01*
X204108562Y-128642165D01*
X204119986Y-128649798D01*
X204121957Y-128651260D01*
X204132577Y-128659976D01*
X204134395Y-128661623D01*
X204144110Y-128671338D01*
X204145757Y-128673156D01*
X204154473Y-128683776D01*
X204155935Y-128685747D01*
X204163568Y-128697171D01*
X204164828Y-128699274D01*
X204171305Y-128711390D01*
X204172355Y-128713610D01*
X204177612Y-128726303D01*
X204178439Y-128728613D01*
X204182427Y-128741761D01*
X204183022Y-128744139D01*
X204185703Y-128757614D01*
X204186064Y-128760043D01*
X204187410Y-128773716D01*
X204187530Y-128776165D01*
X204187530Y-128781317D01*
X204187699Y-128783034D01*
X204187699Y-129493034D01*
X204187219Y-129497911D01*
X204185796Y-129502601D01*
X204183486Y-129506923D01*
X204180377Y-129510712D01*
X204176588Y-129513821D01*
X204172266Y-129516131D01*
X204167576Y-129517554D01*
X204162699Y-129518034D01*
X203882699Y-129518034D01*
X203877822Y-129517554D01*
X203873132Y-129516131D01*
X203868810Y-129513821D01*
X203865021Y-129510712D01*
X203861912Y-129506923D01*
X203859602Y-129502601D01*
X203858179Y-129497911D01*
X203857699Y-129493034D01*
X203857699Y-128783034D01*
X203857868Y-128781317D01*
X203857868Y-128776165D01*
X203857988Y-128773716D01*
X203859334Y-128760043D01*
X203859695Y-128757614D01*
X203862376Y-128744139D01*
X203862971Y-128741761D01*
X203866959Y-128728613D01*
X203867786Y-128726303D01*
X203873043Y-128713610D01*
X203874093Y-128711390D01*
X203880570Y-128699274D01*
X203881830Y-128697171D01*
X203889463Y-128685747D01*
X203890925Y-128683776D01*
X203899641Y-128673156D01*
X203901288Y-128671338D01*
X203911003Y-128661623D01*
X203912821Y-128659976D01*
X203923441Y-128651260D01*
X203925412Y-128649798D01*
X203936836Y-128642165D01*
X203938939Y-128640905D01*
X203951055Y-128634428D01*
X203953275Y-128633378D01*
X203965968Y-128628121D01*
X203968278Y-128627294D01*
X203981426Y-128623306D01*
X203983804Y-128622711D01*
X203997279Y-128620030D01*
X203999708Y-128619669D01*
X204013381Y-128618323D01*
X204015830Y-128618203D01*
X204029568Y-128618203D01*
X204032017Y-128618323D01*
G37*
G36*
X204532017Y-128618323D02*
G01*
X204545690Y-128619669D01*
X204548119Y-128620030D01*
X204561594Y-128622711D01*
X204563972Y-128623306D01*
X204577120Y-128627294D01*
X204579430Y-128628121D01*
X204592123Y-128633378D01*
X204594343Y-128634428D01*
X204606459Y-128640905D01*
X204608562Y-128642165D01*
X204619986Y-128649798D01*
X204621957Y-128651260D01*
X204632577Y-128659976D01*
X204634395Y-128661623D01*
X204644110Y-128671338D01*
X204645757Y-128673156D01*
X204654473Y-128683776D01*
X204655935Y-128685747D01*
X204663568Y-128697171D01*
X204664828Y-128699274D01*
X204671305Y-128711390D01*
X204672355Y-128713610D01*
X204677612Y-128726303D01*
X204678439Y-128728613D01*
X204682427Y-128741761D01*
X204683022Y-128744139D01*
X204685703Y-128757614D01*
X204686064Y-128760043D01*
X204687410Y-128773716D01*
X204687530Y-128776165D01*
X204687530Y-128781317D01*
X204687699Y-128783034D01*
X204687699Y-129493034D01*
X204687219Y-129497911D01*
X204685796Y-129502601D01*
X204683486Y-129506923D01*
X204680377Y-129510712D01*
X204676588Y-129513821D01*
X204672266Y-129516131D01*
X204667576Y-129517554D01*
X204662699Y-129518034D01*
X204382699Y-129518034D01*
X204377822Y-129517554D01*
X204373132Y-129516131D01*
X204368810Y-129513821D01*
X204365021Y-129510712D01*
X204361912Y-129506923D01*
X204359602Y-129502601D01*
X204358179Y-129497911D01*
X204357699Y-129493034D01*
X204357699Y-128783034D01*
X204357868Y-128781317D01*
X204357868Y-128776165D01*
X204357988Y-128773716D01*
X204359334Y-128760043D01*
X204359695Y-128757614D01*
X204362376Y-128744139D01*
X204362971Y-128741761D01*
X204366959Y-128728613D01*
X204367786Y-128726303D01*
X204373043Y-128713610D01*
X204374093Y-128711390D01*
X204380570Y-128699274D01*
X204381830Y-128697171D01*
X204389463Y-128685747D01*
X204390925Y-128683776D01*
X204399641Y-128673156D01*
X204401288Y-128671338D01*
X204411003Y-128661623D01*
X204412821Y-128659976D01*
X204423441Y-128651260D01*
X204425412Y-128649798D01*
X204436836Y-128642165D01*
X204438939Y-128640905D01*
X204451055Y-128634428D01*
X204453275Y-128633378D01*
X204465968Y-128628121D01*
X204468278Y-128627294D01*
X204481426Y-128623306D01*
X204483804Y-128622711D01*
X204497279Y-128620030D01*
X204499708Y-128619669D01*
X204513381Y-128618323D01*
X204515830Y-128618203D01*
X204529568Y-128618203D01*
X204532017Y-128618323D01*
G37*
G36*
X205032017Y-128618323D02*
G01*
X205045690Y-128619669D01*
X205048119Y-128620030D01*
X205061594Y-128622711D01*
X205063972Y-128623306D01*
X205077120Y-128627294D01*
X205079430Y-128628121D01*
X205092123Y-128633378D01*
X205094343Y-128634428D01*
X205106459Y-128640905D01*
X205108562Y-128642165D01*
X205119986Y-128649798D01*
X205121957Y-128651260D01*
X205132577Y-128659976D01*
X205134395Y-128661623D01*
X205144110Y-128671338D01*
X205145757Y-128673156D01*
X205154473Y-128683776D01*
X205155935Y-128685747D01*
X205163568Y-128697171D01*
X205164828Y-128699274D01*
X205171305Y-128711390D01*
X205172355Y-128713610D01*
X205177612Y-128726303D01*
X205178439Y-128728613D01*
X205182427Y-128741761D01*
X205183022Y-128744139D01*
X205185703Y-128757614D01*
X205186064Y-128760043D01*
X205187410Y-128773716D01*
X205187530Y-128776165D01*
X205187530Y-128781317D01*
X205187699Y-128783034D01*
X205187699Y-129493034D01*
X205187219Y-129497911D01*
X205185796Y-129502601D01*
X205183486Y-129506923D01*
X205180377Y-129510712D01*
X205176588Y-129513821D01*
X205172266Y-129516131D01*
X205167576Y-129517554D01*
X205162699Y-129518034D01*
X204882699Y-129518034D01*
X204877822Y-129517554D01*
X204873132Y-129516131D01*
X204868810Y-129513821D01*
X204865021Y-129510712D01*
X204861912Y-129506923D01*
X204859602Y-129502601D01*
X204858179Y-129497911D01*
X204857699Y-129493034D01*
X204857699Y-128783034D01*
X204857868Y-128781317D01*
X204857868Y-128776165D01*
X204857988Y-128773716D01*
X204859334Y-128760043D01*
X204859695Y-128757614D01*
X204862376Y-128744139D01*
X204862971Y-128741761D01*
X204866959Y-128728613D01*
X204867786Y-128726303D01*
X204873043Y-128713610D01*
X204874093Y-128711390D01*
X204880570Y-128699274D01*
X204881830Y-128697171D01*
X204889463Y-128685747D01*
X204890925Y-128683776D01*
X204899641Y-128673156D01*
X204901288Y-128671338D01*
X204911003Y-128661623D01*
X204912821Y-128659976D01*
X204923441Y-128651260D01*
X204925412Y-128649798D01*
X204936836Y-128642165D01*
X204938939Y-128640905D01*
X204951055Y-128634428D01*
X204953275Y-128633378D01*
X204965968Y-128628121D01*
X204968278Y-128627294D01*
X204981426Y-128623306D01*
X204983804Y-128622711D01*
X204997279Y-128620030D01*
X204999708Y-128619669D01*
X205013381Y-128618323D01*
X205015830Y-128618203D01*
X205029568Y-128618203D01*
X205032017Y-128618323D01*
G37*
G36*
X205532017Y-128618323D02*
G01*
X205545690Y-128619669D01*
X205548119Y-128620030D01*
X205561594Y-128622711D01*
X205563972Y-128623306D01*
X205577120Y-128627294D01*
X205579430Y-128628121D01*
X205592123Y-128633378D01*
X205594343Y-128634428D01*
X205606459Y-128640905D01*
X205608562Y-128642165D01*
X205619986Y-128649798D01*
X205621957Y-128651260D01*
X205632577Y-128659976D01*
X205634395Y-128661623D01*
X205644110Y-128671338D01*
X205645757Y-128673156D01*
X205654473Y-128683776D01*
X205655935Y-128685747D01*
X205663568Y-128697171D01*
X205664828Y-128699274D01*
X205671305Y-128711390D01*
X205672355Y-128713610D01*
X205677612Y-128726303D01*
X205678439Y-128728613D01*
X205682427Y-128741761D01*
X205683022Y-128744139D01*
X205685703Y-128757614D01*
X205686064Y-128760043D01*
X205687410Y-128773716D01*
X205687530Y-128776165D01*
X205687530Y-128781317D01*
X205687699Y-128783034D01*
X205687699Y-129493034D01*
X205687219Y-129497911D01*
X205685796Y-129502601D01*
X205683486Y-129506923D01*
X205680377Y-129510712D01*
X205676588Y-129513821D01*
X205672266Y-129516131D01*
X205667576Y-129517554D01*
X205662699Y-129518034D01*
X205382699Y-129518034D01*
X205377822Y-129517554D01*
X205373132Y-129516131D01*
X205368810Y-129513821D01*
X205365021Y-129510712D01*
X205361912Y-129506923D01*
X205359602Y-129502601D01*
X205358179Y-129497911D01*
X205357699Y-129493034D01*
X205357699Y-128783034D01*
X205357868Y-128781317D01*
X205357868Y-128776165D01*
X205357988Y-128773716D01*
X205359334Y-128760043D01*
X205359695Y-128757614D01*
X205362376Y-128744139D01*
X205362971Y-128741761D01*
X205366959Y-128728613D01*
X205367786Y-128726303D01*
X205373043Y-128713610D01*
X205374093Y-128711390D01*
X205380570Y-128699274D01*
X205381830Y-128697171D01*
X205389463Y-128685747D01*
X205390925Y-128683776D01*
X205399641Y-128673156D01*
X205401288Y-128671338D01*
X205411003Y-128661623D01*
X205412821Y-128659976D01*
X205423441Y-128651260D01*
X205425412Y-128649798D01*
X205436836Y-128642165D01*
X205438939Y-128640905D01*
X205451055Y-128634428D01*
X205453275Y-128633378D01*
X205465968Y-128628121D01*
X205468278Y-128627294D01*
X205481426Y-128623306D01*
X205483804Y-128622711D01*
X205497279Y-128620030D01*
X205499708Y-128619669D01*
X205513381Y-128618323D01*
X205515830Y-128618203D01*
X205529568Y-128618203D01*
X205532017Y-128618323D01*
G37*
G36*
X206032017Y-128618323D02*
G01*
X206045690Y-128619669D01*
X206048119Y-128620030D01*
X206061594Y-128622711D01*
X206063972Y-128623306D01*
X206077120Y-128627294D01*
X206079430Y-128628121D01*
X206092123Y-128633378D01*
X206094343Y-128634428D01*
X206106459Y-128640905D01*
X206108562Y-128642165D01*
X206119986Y-128649798D01*
X206121957Y-128651260D01*
X206132577Y-128659976D01*
X206134395Y-128661623D01*
X206144110Y-128671338D01*
X206145757Y-128673156D01*
X206154473Y-128683776D01*
X206155935Y-128685747D01*
X206163568Y-128697171D01*
X206164828Y-128699274D01*
X206171305Y-128711390D01*
X206172355Y-128713610D01*
X206177612Y-128726303D01*
X206178439Y-128728613D01*
X206182427Y-128741761D01*
X206183022Y-128744139D01*
X206185703Y-128757614D01*
X206186064Y-128760043D01*
X206187410Y-128773716D01*
X206187530Y-128776165D01*
X206187530Y-128781317D01*
X206187699Y-128783034D01*
X206187699Y-129493034D01*
X206187219Y-129497911D01*
X206185796Y-129502601D01*
X206183486Y-129506923D01*
X206180377Y-129510712D01*
X206176588Y-129513821D01*
X206172266Y-129516131D01*
X206167576Y-129517554D01*
X206162699Y-129518034D01*
X205882699Y-129518034D01*
X205877822Y-129517554D01*
X205873132Y-129516131D01*
X205868810Y-129513821D01*
X205865021Y-129510712D01*
X205861912Y-129506923D01*
X205859602Y-129502601D01*
X205858179Y-129497911D01*
X205857699Y-129493034D01*
X205857699Y-128783034D01*
X205857868Y-128781317D01*
X205857868Y-128776165D01*
X205857988Y-128773716D01*
X205859334Y-128760043D01*
X205859695Y-128757614D01*
X205862376Y-128744139D01*
X205862971Y-128741761D01*
X205866959Y-128728613D01*
X205867786Y-128726303D01*
X205873043Y-128713610D01*
X205874093Y-128711390D01*
X205880570Y-128699274D01*
X205881830Y-128697171D01*
X205889463Y-128685747D01*
X205890925Y-128683776D01*
X205899641Y-128673156D01*
X205901288Y-128671338D01*
X205911003Y-128661623D01*
X205912821Y-128659976D01*
X205923441Y-128651260D01*
X205925412Y-128649798D01*
X205936836Y-128642165D01*
X205938939Y-128640905D01*
X205951055Y-128634428D01*
X205953275Y-128633378D01*
X205965968Y-128628121D01*
X205968278Y-128627294D01*
X205981426Y-128623306D01*
X205983804Y-128622711D01*
X205997279Y-128620030D01*
X205999708Y-128619669D01*
X206013381Y-128618323D01*
X206015830Y-128618203D01*
X206029568Y-128618203D01*
X206032017Y-128618323D01*
G37*
G36*
X206297988Y-128333716D02*
G01*
X206299334Y-128320043D01*
X206299695Y-128317614D01*
X206302376Y-128304139D01*
X206302971Y-128301761D01*
X206306959Y-128288613D01*
X206307786Y-128286303D01*
X206313043Y-128273610D01*
X206314093Y-128271390D01*
X206320570Y-128259274D01*
X206321830Y-128257171D01*
X206329463Y-128245747D01*
X206330925Y-128243776D01*
X206339641Y-128233156D01*
X206341288Y-128231338D01*
X206351003Y-128221623D01*
X206352821Y-128219976D01*
X206363441Y-128211260D01*
X206365412Y-128209798D01*
X206376836Y-128202165D01*
X206378939Y-128200905D01*
X206391055Y-128194428D01*
X206393275Y-128193378D01*
X206405968Y-128188121D01*
X206408278Y-128187294D01*
X206421426Y-128183306D01*
X206423804Y-128182711D01*
X206437279Y-128180030D01*
X206439708Y-128179669D01*
X206453381Y-128178323D01*
X206455830Y-128178203D01*
X206460982Y-128178203D01*
X206462699Y-128178034D01*
X207172699Y-128178034D01*
X207177576Y-128178514D01*
X207182266Y-128179937D01*
X207186588Y-128182247D01*
X207190377Y-128185356D01*
X207193486Y-128189145D01*
X207195796Y-128193467D01*
X207197219Y-128198157D01*
X207197699Y-128203034D01*
X207197699Y-128483034D01*
X207197219Y-128487911D01*
X207195796Y-128492601D01*
X207193486Y-128496923D01*
X207190377Y-128500712D01*
X207186588Y-128503821D01*
X207182266Y-128506131D01*
X207177576Y-128507554D01*
X207172699Y-128508034D01*
X206462699Y-128508034D01*
X206460982Y-128507865D01*
X206455830Y-128507865D01*
X206453381Y-128507745D01*
X206439708Y-128506399D01*
X206437279Y-128506038D01*
X206423804Y-128503357D01*
X206421426Y-128502762D01*
X206408278Y-128498774D01*
X206405968Y-128497947D01*
X206393275Y-128492690D01*
X206391055Y-128491640D01*
X206378939Y-128485163D01*
X206376836Y-128483903D01*
X206365412Y-128476270D01*
X206363441Y-128474808D01*
X206352821Y-128466092D01*
X206351003Y-128464445D01*
X206341288Y-128454730D01*
X206339641Y-128452912D01*
X206330925Y-128442292D01*
X206329463Y-128440321D01*
X206321830Y-128428897D01*
X206320570Y-128426794D01*
X206314093Y-128414678D01*
X206313043Y-128412458D01*
X206307786Y-128399765D01*
X206306959Y-128397455D01*
X206302971Y-128384307D01*
X206302376Y-128381929D01*
X206299695Y-128368454D01*
X206299334Y-128366025D01*
X206297988Y-128352352D01*
X206297868Y-128349903D01*
X206297868Y-128336165D01*
X206297988Y-128333716D01*
G37*
G36*
X206297988Y-127833716D02*
G01*
X206299334Y-127820043D01*
X206299695Y-127817614D01*
X206302376Y-127804139D01*
X206302971Y-127801761D01*
X206306959Y-127788613D01*
X206307786Y-127786303D01*
X206313043Y-127773610D01*
X206314093Y-127771390D01*
X206320570Y-127759274D01*
X206321830Y-127757171D01*
X206329463Y-127745747D01*
X206330925Y-127743776D01*
X206339641Y-127733156D01*
X206341288Y-127731338D01*
X206351003Y-127721623D01*
X206352821Y-127719976D01*
X206363441Y-127711260D01*
X206365412Y-127709798D01*
X206376836Y-127702165D01*
X206378939Y-127700905D01*
X206391055Y-127694428D01*
X206393275Y-127693378D01*
X206405968Y-127688121D01*
X206408278Y-127687294D01*
X206421426Y-127683306D01*
X206423804Y-127682711D01*
X206437279Y-127680030D01*
X206439708Y-127679669D01*
X206453381Y-127678323D01*
X206455830Y-127678203D01*
X206460982Y-127678203D01*
X206462699Y-127678034D01*
X207172699Y-127678034D01*
X207177576Y-127678514D01*
X207182266Y-127679937D01*
X207186588Y-127682247D01*
X207190377Y-127685356D01*
X207193486Y-127689145D01*
X207195796Y-127693467D01*
X207197219Y-127698157D01*
X207197699Y-127703034D01*
X207197699Y-127983034D01*
X207197219Y-127987911D01*
X207195796Y-127992601D01*
X207193486Y-127996923D01*
X207190377Y-128000712D01*
X207186588Y-128003821D01*
X207182266Y-128006131D01*
X207177576Y-128007554D01*
X207172699Y-128008034D01*
X206462699Y-128008034D01*
X206460982Y-128007865D01*
X206455830Y-128007865D01*
X206453381Y-128007745D01*
X206439708Y-128006399D01*
X206437279Y-128006038D01*
X206423804Y-128003357D01*
X206421426Y-128002762D01*
X206408278Y-127998774D01*
X206405968Y-127997947D01*
X206393275Y-127992690D01*
X206391055Y-127991640D01*
X206378939Y-127985163D01*
X206376836Y-127983903D01*
X206365412Y-127976270D01*
X206363441Y-127974808D01*
X206352821Y-127966092D01*
X206351003Y-127964445D01*
X206341288Y-127954730D01*
X206339641Y-127952912D01*
X206330925Y-127942292D01*
X206329463Y-127940321D01*
X206321830Y-127928897D01*
X206320570Y-127926794D01*
X206314093Y-127914678D01*
X206313043Y-127912458D01*
X206307786Y-127899765D01*
X206306959Y-127897455D01*
X206302971Y-127884307D01*
X206302376Y-127881929D01*
X206299695Y-127868454D01*
X206299334Y-127866025D01*
X206297988Y-127852352D01*
X206297868Y-127849903D01*
X206297868Y-127836165D01*
X206297988Y-127833716D01*
G37*
G36*
X206297988Y-127333716D02*
G01*
X206299334Y-127320043D01*
X206299695Y-127317614D01*
X206302376Y-127304139D01*
X206302971Y-127301761D01*
X206306959Y-127288613D01*
X206307786Y-127286303D01*
X206313043Y-127273610D01*
X206314093Y-127271390D01*
X206320570Y-127259274D01*
X206321830Y-127257171D01*
X206329463Y-127245747D01*
X206330925Y-127243776D01*
X206339641Y-127233156D01*
X206341288Y-127231338D01*
X206351003Y-127221623D01*
X206352821Y-127219976D01*
X206363441Y-127211260D01*
X206365412Y-127209798D01*
X206376836Y-127202165D01*
X206378939Y-127200905D01*
X206391055Y-127194428D01*
X206393275Y-127193378D01*
X206405968Y-127188121D01*
X206408278Y-127187294D01*
X206421426Y-127183306D01*
X206423804Y-127182711D01*
X206437279Y-127180030D01*
X206439708Y-127179669D01*
X206453381Y-127178323D01*
X206455830Y-127178203D01*
X206460982Y-127178203D01*
X206462699Y-127178034D01*
X207172699Y-127178034D01*
X207177576Y-127178514D01*
X207182266Y-127179937D01*
X207186588Y-127182247D01*
X207190377Y-127185356D01*
X207193486Y-127189145D01*
X207195796Y-127193467D01*
X207197219Y-127198157D01*
X207197699Y-127203034D01*
X207197699Y-127483034D01*
X207197219Y-127487911D01*
X207195796Y-127492601D01*
X207193486Y-127496923D01*
X207190377Y-127500712D01*
X207186588Y-127503821D01*
X207182266Y-127506131D01*
X207177576Y-127507554D01*
X207172699Y-127508034D01*
X206462699Y-127508034D01*
X206460982Y-127507865D01*
X206455830Y-127507865D01*
X206453381Y-127507745D01*
X206439708Y-127506399D01*
X206437279Y-127506038D01*
X206423804Y-127503357D01*
X206421426Y-127502762D01*
X206408278Y-127498774D01*
X206405968Y-127497947D01*
X206393275Y-127492690D01*
X206391055Y-127491640D01*
X206378939Y-127485163D01*
X206376836Y-127483903D01*
X206365412Y-127476270D01*
X206363441Y-127474808D01*
X206352821Y-127466092D01*
X206351003Y-127464445D01*
X206341288Y-127454730D01*
X206339641Y-127452912D01*
X206330925Y-127442292D01*
X206329463Y-127440321D01*
X206321830Y-127428897D01*
X206320570Y-127426794D01*
X206314093Y-127414678D01*
X206313043Y-127412458D01*
X206307786Y-127399765D01*
X206306959Y-127397455D01*
X206302971Y-127384307D01*
X206302376Y-127381929D01*
X206299695Y-127368454D01*
X206299334Y-127366025D01*
X206297988Y-127352352D01*
X206297868Y-127349903D01*
X206297868Y-127336165D01*
X206297988Y-127333716D01*
G37*
G36*
X206297988Y-126833716D02*
G01*
X206299334Y-126820043D01*
X206299695Y-126817614D01*
X206302376Y-126804139D01*
X206302971Y-126801761D01*
X206306959Y-126788613D01*
X206307786Y-126786303D01*
X206313043Y-126773610D01*
X206314093Y-126771390D01*
X206320570Y-126759274D01*
X206321830Y-126757171D01*
X206329463Y-126745747D01*
X206330925Y-126743776D01*
X206339641Y-126733156D01*
X206341288Y-126731338D01*
X206351003Y-126721623D01*
X206352821Y-126719976D01*
X206363441Y-126711260D01*
X206365412Y-126709798D01*
X206376836Y-126702165D01*
X206378939Y-126700905D01*
X206391055Y-126694428D01*
X206393275Y-126693378D01*
X206405968Y-126688121D01*
X206408278Y-126687294D01*
X206421426Y-126683306D01*
X206423804Y-126682711D01*
X206437279Y-126680030D01*
X206439708Y-126679669D01*
X206453381Y-126678323D01*
X206455830Y-126678203D01*
X206460982Y-126678203D01*
X206462699Y-126678034D01*
X207172699Y-126678034D01*
X207177576Y-126678514D01*
X207182266Y-126679937D01*
X207186588Y-126682247D01*
X207190377Y-126685356D01*
X207193486Y-126689145D01*
X207195796Y-126693467D01*
X207197219Y-126698157D01*
X207197699Y-126703034D01*
X207197699Y-126983034D01*
X207197219Y-126987911D01*
X207195796Y-126992601D01*
X207193486Y-126996923D01*
X207190377Y-127000712D01*
X207186588Y-127003821D01*
X207182266Y-127006131D01*
X207177576Y-127007554D01*
X207172699Y-127008034D01*
X206462699Y-127008034D01*
X206460982Y-127007865D01*
X206455830Y-127007865D01*
X206453381Y-127007745D01*
X206439708Y-127006399D01*
X206437279Y-127006038D01*
X206423804Y-127003357D01*
X206421426Y-127002762D01*
X206408278Y-126998774D01*
X206405968Y-126997947D01*
X206393275Y-126992690D01*
X206391055Y-126991640D01*
X206378939Y-126985163D01*
X206376836Y-126983903D01*
X206365412Y-126976270D01*
X206363441Y-126974808D01*
X206352821Y-126966092D01*
X206351003Y-126964445D01*
X206341288Y-126954730D01*
X206339641Y-126952912D01*
X206330925Y-126942292D01*
X206329463Y-126940321D01*
X206321830Y-126928897D01*
X206320570Y-126926794D01*
X206314093Y-126914678D01*
X206313043Y-126912458D01*
X206307786Y-126899765D01*
X206306959Y-126897455D01*
X206302971Y-126884307D01*
X206302376Y-126881929D01*
X206299695Y-126868454D01*
X206299334Y-126866025D01*
X206297988Y-126852352D01*
X206297868Y-126849903D01*
X206297868Y-126836165D01*
X206297988Y-126833716D01*
G37*
G36*
X206297988Y-126333716D02*
G01*
X206299334Y-126320043D01*
X206299695Y-126317614D01*
X206302376Y-126304139D01*
X206302971Y-126301761D01*
X206306959Y-126288613D01*
X206307786Y-126286303D01*
X206313043Y-126273610D01*
X206314093Y-126271390D01*
X206320570Y-126259274D01*
X206321830Y-126257171D01*
X206329463Y-126245747D01*
X206330925Y-126243776D01*
X206339641Y-126233156D01*
X206341288Y-126231338D01*
X206351003Y-126221623D01*
X206352821Y-126219976D01*
X206363441Y-126211260D01*
X206365412Y-126209798D01*
X206376836Y-126202165D01*
X206378939Y-126200905D01*
X206391055Y-126194428D01*
X206393275Y-126193378D01*
X206405968Y-126188121D01*
X206408278Y-126187294D01*
X206421426Y-126183306D01*
X206423804Y-126182711D01*
X206437279Y-126180030D01*
X206439708Y-126179669D01*
X206453381Y-126178323D01*
X206455830Y-126178203D01*
X206460982Y-126178203D01*
X206462699Y-126178034D01*
X207172699Y-126178034D01*
X207177576Y-126178514D01*
X207182266Y-126179937D01*
X207186588Y-126182247D01*
X207190377Y-126185356D01*
X207193486Y-126189145D01*
X207195796Y-126193467D01*
X207197219Y-126198157D01*
X207197699Y-126203034D01*
X207197699Y-126483034D01*
X207197219Y-126487911D01*
X207195796Y-126492601D01*
X207193486Y-126496923D01*
X207190377Y-126500712D01*
X207186588Y-126503821D01*
X207182266Y-126506131D01*
X207177576Y-126507554D01*
X207172699Y-126508034D01*
X206462699Y-126508034D01*
X206460982Y-126507865D01*
X206455830Y-126507865D01*
X206453381Y-126507745D01*
X206439708Y-126506399D01*
X206437279Y-126506038D01*
X206423804Y-126503357D01*
X206421426Y-126502762D01*
X206408278Y-126498774D01*
X206405968Y-126497947D01*
X206393275Y-126492690D01*
X206391055Y-126491640D01*
X206378939Y-126485163D01*
X206376836Y-126483903D01*
X206365412Y-126476270D01*
X206363441Y-126474808D01*
X206352821Y-126466092D01*
X206351003Y-126464445D01*
X206341288Y-126454730D01*
X206339641Y-126452912D01*
X206330925Y-126442292D01*
X206329463Y-126440321D01*
X206321830Y-126428897D01*
X206320570Y-126426794D01*
X206314093Y-126414678D01*
X206313043Y-126412458D01*
X206307786Y-126399765D01*
X206306959Y-126397455D01*
X206302971Y-126384307D01*
X206302376Y-126381929D01*
X206299695Y-126368454D01*
X206299334Y-126366025D01*
X206297988Y-126352352D01*
X206297868Y-126349903D01*
X206297868Y-126336165D01*
X206297988Y-126333716D01*
G37*
G36*
X206297988Y-125833716D02*
G01*
X206299334Y-125820043D01*
X206299695Y-125817614D01*
X206302376Y-125804139D01*
X206302971Y-125801761D01*
X206306959Y-125788613D01*
X206307786Y-125786303D01*
X206313043Y-125773610D01*
X206314093Y-125771390D01*
X206320570Y-125759274D01*
X206321830Y-125757171D01*
X206329463Y-125745747D01*
X206330925Y-125743776D01*
X206339641Y-125733156D01*
X206341288Y-125731338D01*
X206351003Y-125721623D01*
X206352821Y-125719976D01*
X206363441Y-125711260D01*
X206365412Y-125709798D01*
X206376836Y-125702165D01*
X206378939Y-125700905D01*
X206391055Y-125694428D01*
X206393275Y-125693378D01*
X206405968Y-125688121D01*
X206408278Y-125687294D01*
X206421426Y-125683306D01*
X206423804Y-125682711D01*
X206437279Y-125680030D01*
X206439708Y-125679669D01*
X206453381Y-125678323D01*
X206455830Y-125678203D01*
X206460982Y-125678203D01*
X206462699Y-125678034D01*
X207172699Y-125678034D01*
X207177576Y-125678514D01*
X207182266Y-125679937D01*
X207186588Y-125682247D01*
X207190377Y-125685356D01*
X207193486Y-125689145D01*
X207195796Y-125693467D01*
X207197219Y-125698157D01*
X207197699Y-125703034D01*
X207197699Y-125983034D01*
X207197219Y-125987911D01*
X207195796Y-125992601D01*
X207193486Y-125996923D01*
X207190377Y-126000712D01*
X207186588Y-126003821D01*
X207182266Y-126006131D01*
X207177576Y-126007554D01*
X207172699Y-126008034D01*
X206462699Y-126008034D01*
X206460982Y-126007865D01*
X206455830Y-126007865D01*
X206453381Y-126007745D01*
X206439708Y-126006399D01*
X206437279Y-126006038D01*
X206423804Y-126003357D01*
X206421426Y-126002762D01*
X206408278Y-125998774D01*
X206405968Y-125997947D01*
X206393275Y-125992690D01*
X206391055Y-125991640D01*
X206378939Y-125985163D01*
X206376836Y-125983903D01*
X206365412Y-125976270D01*
X206363441Y-125974808D01*
X206352821Y-125966092D01*
X206351003Y-125964445D01*
X206341288Y-125954730D01*
X206339641Y-125952912D01*
X206330925Y-125942292D01*
X206329463Y-125940321D01*
X206321830Y-125928897D01*
X206320570Y-125926794D01*
X206314093Y-125914678D01*
X206313043Y-125912458D01*
X206307786Y-125899765D01*
X206306959Y-125897455D01*
X206302971Y-125884307D01*
X206302376Y-125881929D01*
X206299695Y-125868454D01*
X206299334Y-125866025D01*
X206297988Y-125852352D01*
X206297868Y-125849903D01*
X206297868Y-125836165D01*
X206297988Y-125833716D01*
G37*
G36*
X206013381Y-125567745D02*
G01*
X205999708Y-125566399D01*
X205997279Y-125566038D01*
X205983804Y-125563357D01*
X205981426Y-125562762D01*
X205968278Y-125558774D01*
X205965968Y-125557947D01*
X205953275Y-125552690D01*
X205951055Y-125551640D01*
X205938939Y-125545163D01*
X205936836Y-125543903D01*
X205925412Y-125536270D01*
X205923441Y-125534808D01*
X205912821Y-125526092D01*
X205911003Y-125524445D01*
X205901288Y-125514730D01*
X205899641Y-125512912D01*
X205890925Y-125502292D01*
X205889463Y-125500321D01*
X205881830Y-125488897D01*
X205880570Y-125486794D01*
X205874093Y-125474678D01*
X205873043Y-125472458D01*
X205867786Y-125459765D01*
X205866959Y-125457455D01*
X205862971Y-125444307D01*
X205862376Y-125441929D01*
X205859695Y-125428454D01*
X205859334Y-125426025D01*
X205857988Y-125412352D01*
X205857868Y-125409903D01*
X205857868Y-125404751D01*
X205857699Y-125403034D01*
X205857699Y-124693034D01*
X205858179Y-124688157D01*
X205859602Y-124683467D01*
X205861912Y-124679145D01*
X205865021Y-124675356D01*
X205868810Y-124672247D01*
X205873132Y-124669937D01*
X205877822Y-124668514D01*
X205882699Y-124668034D01*
X206162699Y-124668034D01*
X206167576Y-124668514D01*
X206172266Y-124669937D01*
X206176588Y-124672247D01*
X206180377Y-124675356D01*
X206183486Y-124679145D01*
X206185796Y-124683467D01*
X206187219Y-124688157D01*
X206187699Y-124693034D01*
X206187699Y-125403034D01*
X206187530Y-125404751D01*
X206187530Y-125409903D01*
X206187410Y-125412352D01*
X206186064Y-125426025D01*
X206185703Y-125428454D01*
X206183022Y-125441929D01*
X206182427Y-125444307D01*
X206178439Y-125457455D01*
X206177612Y-125459765D01*
X206172355Y-125472458D01*
X206171305Y-125474678D01*
X206164828Y-125486794D01*
X206163568Y-125488897D01*
X206155935Y-125500321D01*
X206154473Y-125502292D01*
X206145757Y-125512912D01*
X206144110Y-125514730D01*
X206134395Y-125524445D01*
X206132577Y-125526092D01*
X206121957Y-125534808D01*
X206119986Y-125536270D01*
X206108562Y-125543903D01*
X206106459Y-125545163D01*
X206094343Y-125551640D01*
X206092123Y-125552690D01*
X206079430Y-125557947D01*
X206077120Y-125558774D01*
X206063972Y-125562762D01*
X206061594Y-125563357D01*
X206048119Y-125566038D01*
X206045690Y-125566399D01*
X206032017Y-125567745D01*
X206029568Y-125567865D01*
X206015830Y-125567865D01*
X206013381Y-125567745D01*
G37*
G36*
X205513381Y-125567745D02*
G01*
X205499708Y-125566399D01*
X205497279Y-125566038D01*
X205483804Y-125563357D01*
X205481426Y-125562762D01*
X205468278Y-125558774D01*
X205465968Y-125557947D01*
X205453275Y-125552690D01*
X205451055Y-125551640D01*
X205438939Y-125545163D01*
X205436836Y-125543903D01*
X205425412Y-125536270D01*
X205423441Y-125534808D01*
X205412821Y-125526092D01*
X205411003Y-125524445D01*
X205401288Y-125514730D01*
X205399641Y-125512912D01*
X205390925Y-125502292D01*
X205389463Y-125500321D01*
X205381830Y-125488897D01*
X205380570Y-125486794D01*
X205374093Y-125474678D01*
X205373043Y-125472458D01*
X205367786Y-125459765D01*
X205366959Y-125457455D01*
X205362971Y-125444307D01*
X205362376Y-125441929D01*
X205359695Y-125428454D01*
X205359334Y-125426025D01*
X205357988Y-125412352D01*
X205357868Y-125409903D01*
X205357868Y-125404751D01*
X205357699Y-125403034D01*
X205357699Y-124693034D01*
X205358179Y-124688157D01*
X205359602Y-124683467D01*
X205361912Y-124679145D01*
X205365021Y-124675356D01*
X205368810Y-124672247D01*
X205373132Y-124669937D01*
X205377822Y-124668514D01*
X205382699Y-124668034D01*
X205662699Y-124668034D01*
X205667576Y-124668514D01*
X205672266Y-124669937D01*
X205676588Y-124672247D01*
X205680377Y-124675356D01*
X205683486Y-124679145D01*
X205685796Y-124683467D01*
X205687219Y-124688157D01*
X205687699Y-124693034D01*
X205687699Y-125403034D01*
X205687530Y-125404751D01*
X205687530Y-125409903D01*
X205687410Y-125412352D01*
X205686064Y-125426025D01*
X205685703Y-125428454D01*
X205683022Y-125441929D01*
X205682427Y-125444307D01*
X205678439Y-125457455D01*
X205677612Y-125459765D01*
X205672355Y-125472458D01*
X205671305Y-125474678D01*
X205664828Y-125486794D01*
X205663568Y-125488897D01*
X205655935Y-125500321D01*
X205654473Y-125502292D01*
X205645757Y-125512912D01*
X205644110Y-125514730D01*
X205634395Y-125524445D01*
X205632577Y-125526092D01*
X205621957Y-125534808D01*
X205619986Y-125536270D01*
X205608562Y-125543903D01*
X205606459Y-125545163D01*
X205594343Y-125551640D01*
X205592123Y-125552690D01*
X205579430Y-125557947D01*
X205577120Y-125558774D01*
X205563972Y-125562762D01*
X205561594Y-125563357D01*
X205548119Y-125566038D01*
X205545690Y-125566399D01*
X205532017Y-125567745D01*
X205529568Y-125567865D01*
X205515830Y-125567865D01*
X205513381Y-125567745D01*
G37*
G36*
X205013381Y-125567745D02*
G01*
X204999708Y-125566399D01*
X204997279Y-125566038D01*
X204983804Y-125563357D01*
X204981426Y-125562762D01*
X204968278Y-125558774D01*
X204965968Y-125557947D01*
X204953275Y-125552690D01*
X204951055Y-125551640D01*
X204938939Y-125545163D01*
X204936836Y-125543903D01*
X204925412Y-125536270D01*
X204923441Y-125534808D01*
X204912821Y-125526092D01*
X204911003Y-125524445D01*
X204901288Y-125514730D01*
X204899641Y-125512912D01*
X204890925Y-125502292D01*
X204889463Y-125500321D01*
X204881830Y-125488897D01*
X204880570Y-125486794D01*
X204874093Y-125474678D01*
X204873043Y-125472458D01*
X204867786Y-125459765D01*
X204866959Y-125457455D01*
X204862971Y-125444307D01*
X204862376Y-125441929D01*
X204859695Y-125428454D01*
X204859334Y-125426025D01*
X204857988Y-125412352D01*
X204857868Y-125409903D01*
X204857868Y-125404751D01*
X204857699Y-125403034D01*
X204857699Y-124693034D01*
X204858179Y-124688157D01*
X204859602Y-124683467D01*
X204861912Y-124679145D01*
X204865021Y-124675356D01*
X204868810Y-124672247D01*
X204873132Y-124669937D01*
X204877822Y-124668514D01*
X204882699Y-124668034D01*
X205162699Y-124668034D01*
X205167576Y-124668514D01*
X205172266Y-124669937D01*
X205176588Y-124672247D01*
X205180377Y-124675356D01*
X205183486Y-124679145D01*
X205185796Y-124683467D01*
X205187219Y-124688157D01*
X205187699Y-124693034D01*
X205187699Y-125403034D01*
X205187530Y-125404751D01*
X205187530Y-125409903D01*
X205187410Y-125412352D01*
X205186064Y-125426025D01*
X205185703Y-125428454D01*
X205183022Y-125441929D01*
X205182427Y-125444307D01*
X205178439Y-125457455D01*
X205177612Y-125459765D01*
X205172355Y-125472458D01*
X205171305Y-125474678D01*
X205164828Y-125486794D01*
X205163568Y-125488897D01*
X205155935Y-125500321D01*
X205154473Y-125502292D01*
X205145757Y-125512912D01*
X205144110Y-125514730D01*
X205134395Y-125524445D01*
X205132577Y-125526092D01*
X205121957Y-125534808D01*
X205119986Y-125536270D01*
X205108562Y-125543903D01*
X205106459Y-125545163D01*
X205094343Y-125551640D01*
X205092123Y-125552690D01*
X205079430Y-125557947D01*
X205077120Y-125558774D01*
X205063972Y-125562762D01*
X205061594Y-125563357D01*
X205048119Y-125566038D01*
X205045690Y-125566399D01*
X205032017Y-125567745D01*
X205029568Y-125567865D01*
X205015830Y-125567865D01*
X205013381Y-125567745D01*
G37*
G36*
X204513381Y-125567745D02*
G01*
X204499708Y-125566399D01*
X204497279Y-125566038D01*
X204483804Y-125563357D01*
X204481426Y-125562762D01*
X204468278Y-125558774D01*
X204465968Y-125557947D01*
X204453275Y-125552690D01*
X204451055Y-125551640D01*
X204438939Y-125545163D01*
X204436836Y-125543903D01*
X204425412Y-125536270D01*
X204423441Y-125534808D01*
X204412821Y-125526092D01*
X204411003Y-125524445D01*
X204401288Y-125514730D01*
X204399641Y-125512912D01*
X204390925Y-125502292D01*
X204389463Y-125500321D01*
X204381830Y-125488897D01*
X204380570Y-125486794D01*
X204374093Y-125474678D01*
X204373043Y-125472458D01*
X204367786Y-125459765D01*
X204366959Y-125457455D01*
X204362971Y-125444307D01*
X204362376Y-125441929D01*
X204359695Y-125428454D01*
X204359334Y-125426025D01*
X204357988Y-125412352D01*
X204357868Y-125409903D01*
X204357868Y-125404751D01*
X204357699Y-125403034D01*
X204357699Y-124693034D01*
X204358179Y-124688157D01*
X204359602Y-124683467D01*
X204361912Y-124679145D01*
X204365021Y-124675356D01*
X204368810Y-124672247D01*
X204373132Y-124669937D01*
X204377822Y-124668514D01*
X204382699Y-124668034D01*
X204662699Y-124668034D01*
X204667576Y-124668514D01*
X204672266Y-124669937D01*
X204676588Y-124672247D01*
X204680377Y-124675356D01*
X204683486Y-124679145D01*
X204685796Y-124683467D01*
X204687219Y-124688157D01*
X204687699Y-124693034D01*
X204687699Y-125403034D01*
X204687530Y-125404751D01*
X204687530Y-125409903D01*
X204687410Y-125412352D01*
X204686064Y-125426025D01*
X204685703Y-125428454D01*
X204683022Y-125441929D01*
X204682427Y-125444307D01*
X204678439Y-125457455D01*
X204677612Y-125459765D01*
X204672355Y-125472458D01*
X204671305Y-125474678D01*
X204664828Y-125486794D01*
X204663568Y-125488897D01*
X204655935Y-125500321D01*
X204654473Y-125502292D01*
X204645757Y-125512912D01*
X204644110Y-125514730D01*
X204634395Y-125524445D01*
X204632577Y-125526092D01*
X204621957Y-125534808D01*
X204619986Y-125536270D01*
X204608562Y-125543903D01*
X204606459Y-125545163D01*
X204594343Y-125551640D01*
X204592123Y-125552690D01*
X204579430Y-125557947D01*
X204577120Y-125558774D01*
X204563972Y-125562762D01*
X204561594Y-125563357D01*
X204548119Y-125566038D01*
X204545690Y-125566399D01*
X204532017Y-125567745D01*
X204529568Y-125567865D01*
X204515830Y-125567865D01*
X204513381Y-125567745D01*
G37*
G36*
X204013381Y-125567745D02*
G01*
X203999708Y-125566399D01*
X203997279Y-125566038D01*
X203983804Y-125563357D01*
X203981426Y-125562762D01*
X203968278Y-125558774D01*
X203965968Y-125557947D01*
X203953275Y-125552690D01*
X203951055Y-125551640D01*
X203938939Y-125545163D01*
X203936836Y-125543903D01*
X203925412Y-125536270D01*
X203923441Y-125534808D01*
X203912821Y-125526092D01*
X203911003Y-125524445D01*
X203901288Y-125514730D01*
X203899641Y-125512912D01*
X203890925Y-125502292D01*
X203889463Y-125500321D01*
X203881830Y-125488897D01*
X203880570Y-125486794D01*
X203874093Y-125474678D01*
X203873043Y-125472458D01*
X203867786Y-125459765D01*
X203866959Y-125457455D01*
X203862971Y-125444307D01*
X203862376Y-125441929D01*
X203859695Y-125428454D01*
X203859334Y-125426025D01*
X203857988Y-125412352D01*
X203857868Y-125409903D01*
X203857868Y-125404751D01*
X203857699Y-125403034D01*
X203857699Y-124693034D01*
X203858179Y-124688157D01*
X203859602Y-124683467D01*
X203861912Y-124679145D01*
X203865021Y-124675356D01*
X203868810Y-124672247D01*
X203873132Y-124669937D01*
X203877822Y-124668514D01*
X203882699Y-124668034D01*
X204162699Y-124668034D01*
X204167576Y-124668514D01*
X204172266Y-124669937D01*
X204176588Y-124672247D01*
X204180377Y-124675356D01*
X204183486Y-124679145D01*
X204185796Y-124683467D01*
X204187219Y-124688157D01*
X204187699Y-124693034D01*
X204187699Y-125403034D01*
X204187530Y-125404751D01*
X204187530Y-125409903D01*
X204187410Y-125412352D01*
X204186064Y-125426025D01*
X204185703Y-125428454D01*
X204183022Y-125441929D01*
X204182427Y-125444307D01*
X204178439Y-125457455D01*
X204177612Y-125459765D01*
X204172355Y-125472458D01*
X204171305Y-125474678D01*
X204164828Y-125486794D01*
X204163568Y-125488897D01*
X204155935Y-125500321D01*
X204154473Y-125502292D01*
X204145757Y-125512912D01*
X204144110Y-125514730D01*
X204134395Y-125524445D01*
X204132577Y-125526092D01*
X204121957Y-125534808D01*
X204119986Y-125536270D01*
X204108562Y-125543903D01*
X204106459Y-125545163D01*
X204094343Y-125551640D01*
X204092123Y-125552690D01*
X204079430Y-125557947D01*
X204077120Y-125558774D01*
X204063972Y-125562762D01*
X204061594Y-125563357D01*
X204048119Y-125566038D01*
X204045690Y-125566399D01*
X204032017Y-125567745D01*
X204029568Y-125567865D01*
X204015830Y-125567865D01*
X204013381Y-125567745D01*
G37*
G36*
X203513381Y-125567745D02*
G01*
X203499708Y-125566399D01*
X203497279Y-125566038D01*
X203483804Y-125563357D01*
X203481426Y-125562762D01*
X203468278Y-125558774D01*
X203465968Y-125557947D01*
X203453275Y-125552690D01*
X203451055Y-125551640D01*
X203438939Y-125545163D01*
X203436836Y-125543903D01*
X203425412Y-125536270D01*
X203423441Y-125534808D01*
X203412821Y-125526092D01*
X203411003Y-125524445D01*
X203401288Y-125514730D01*
X203399641Y-125512912D01*
X203390925Y-125502292D01*
X203389463Y-125500321D01*
X203381830Y-125488897D01*
X203380570Y-125486794D01*
X203374093Y-125474678D01*
X203373043Y-125472458D01*
X203367786Y-125459765D01*
X203366959Y-125457455D01*
X203362971Y-125444307D01*
X203362376Y-125441929D01*
X203359695Y-125428454D01*
X203359334Y-125426025D01*
X203357988Y-125412352D01*
X203357868Y-125409903D01*
X203357868Y-125404751D01*
X203357699Y-125403034D01*
X203357699Y-124693034D01*
X203358179Y-124688157D01*
X203359602Y-124683467D01*
X203361912Y-124679145D01*
X203365021Y-124675356D01*
X203368810Y-124672247D01*
X203373132Y-124669937D01*
X203377822Y-124668514D01*
X203382699Y-124668034D01*
X203662699Y-124668034D01*
X203667576Y-124668514D01*
X203672266Y-124669937D01*
X203676588Y-124672247D01*
X203680377Y-124675356D01*
X203683486Y-124679145D01*
X203685796Y-124683467D01*
X203687219Y-124688157D01*
X203687699Y-124693034D01*
X203687699Y-125403034D01*
X203687530Y-125404751D01*
X203687530Y-125409903D01*
X203687410Y-125412352D01*
X203686064Y-125426025D01*
X203685703Y-125428454D01*
X203683022Y-125441929D01*
X203682427Y-125444307D01*
X203678439Y-125457455D01*
X203677612Y-125459765D01*
X203672355Y-125472458D01*
X203671305Y-125474678D01*
X203664828Y-125486794D01*
X203663568Y-125488897D01*
X203655935Y-125500321D01*
X203654473Y-125502292D01*
X203645757Y-125512912D01*
X203644110Y-125514730D01*
X203634395Y-125524445D01*
X203632577Y-125526092D01*
X203621957Y-125534808D01*
X203619986Y-125536270D01*
X203608562Y-125543903D01*
X203606459Y-125545163D01*
X203594343Y-125551640D01*
X203592123Y-125552690D01*
X203579430Y-125557947D01*
X203577120Y-125558774D01*
X203563972Y-125562762D01*
X203561594Y-125563357D01*
X203548119Y-125566038D01*
X203545690Y-125566399D01*
X203532017Y-125567745D01*
X203529568Y-125567865D01*
X203515830Y-125567865D01*
X203513381Y-125567745D01*
G37*
G36*
X203247410Y-125852352D02*
G01*
X203246064Y-125866025D01*
X203245703Y-125868454D01*
X203243022Y-125881929D01*
X203242427Y-125884307D01*
X203238439Y-125897455D01*
X203237612Y-125899765D01*
X203232355Y-125912458D01*
X203231305Y-125914678D01*
X203224828Y-125926794D01*
X203223568Y-125928897D01*
X203215935Y-125940321D01*
X203214473Y-125942292D01*
X203205757Y-125952912D01*
X203204110Y-125954730D01*
X203194395Y-125964445D01*
X203192577Y-125966092D01*
X203181957Y-125974808D01*
X203179986Y-125976270D01*
X203168562Y-125983903D01*
X203166459Y-125985163D01*
X203154343Y-125991640D01*
X203152123Y-125992690D01*
X203139430Y-125997947D01*
X203137120Y-125998774D01*
X203123972Y-126002762D01*
X203121594Y-126003357D01*
X203108119Y-126006038D01*
X203105690Y-126006399D01*
X203092017Y-126007745D01*
X203089568Y-126007865D01*
X203084416Y-126007865D01*
X203082699Y-126008034D01*
X202372699Y-126008034D01*
X202367822Y-126007554D01*
X202363132Y-126006131D01*
X202358810Y-126003821D01*
X202355021Y-126000712D01*
X202351912Y-125996923D01*
X202349602Y-125992601D01*
X202348179Y-125987911D01*
X202347699Y-125983034D01*
X202347699Y-125703034D01*
X202348179Y-125698157D01*
X202349602Y-125693467D01*
X202351912Y-125689145D01*
X202355021Y-125685356D01*
X202358810Y-125682247D01*
X202363132Y-125679937D01*
X202367822Y-125678514D01*
X202372699Y-125678034D01*
X203082699Y-125678034D01*
X203084416Y-125678203D01*
X203089568Y-125678203D01*
X203092017Y-125678323D01*
X203105690Y-125679669D01*
X203108119Y-125680030D01*
X203121594Y-125682711D01*
X203123972Y-125683306D01*
X203137120Y-125687294D01*
X203139430Y-125688121D01*
X203152123Y-125693378D01*
X203154343Y-125694428D01*
X203166459Y-125700905D01*
X203168562Y-125702165D01*
X203179986Y-125709798D01*
X203181957Y-125711260D01*
X203192577Y-125719976D01*
X203194395Y-125721623D01*
X203204110Y-125731338D01*
X203205757Y-125733156D01*
X203214473Y-125743776D01*
X203215935Y-125745747D01*
X203223568Y-125757171D01*
X203224828Y-125759274D01*
X203231305Y-125771390D01*
X203232355Y-125773610D01*
X203237612Y-125786303D01*
X203238439Y-125788613D01*
X203242427Y-125801761D01*
X203243022Y-125804139D01*
X203245703Y-125817614D01*
X203246064Y-125820043D01*
X203247410Y-125833716D01*
X203247530Y-125836165D01*
X203247530Y-125849903D01*
X203247410Y-125852352D01*
G37*
G36*
X203247410Y-126352352D02*
G01*
X203246064Y-126366025D01*
X203245703Y-126368454D01*
X203243022Y-126381929D01*
X203242427Y-126384307D01*
X203238439Y-126397455D01*
X203237612Y-126399765D01*
X203232355Y-126412458D01*
X203231305Y-126414678D01*
X203224828Y-126426794D01*
X203223568Y-126428897D01*
X203215935Y-126440321D01*
X203214473Y-126442292D01*
X203205757Y-126452912D01*
X203204110Y-126454730D01*
X203194395Y-126464445D01*
X203192577Y-126466092D01*
X203181957Y-126474808D01*
X203179986Y-126476270D01*
X203168562Y-126483903D01*
X203166459Y-126485163D01*
X203154343Y-126491640D01*
X203152123Y-126492690D01*
X203139430Y-126497947D01*
X203137120Y-126498774D01*
X203123972Y-126502762D01*
X203121594Y-126503357D01*
X203108119Y-126506038D01*
X203105690Y-126506399D01*
X203092017Y-126507745D01*
X203089568Y-126507865D01*
X203084416Y-126507865D01*
X203082699Y-126508034D01*
X202372699Y-126508034D01*
X202367822Y-126507554D01*
X202363132Y-126506131D01*
X202358810Y-126503821D01*
X202355021Y-126500712D01*
X202351912Y-126496923D01*
X202349602Y-126492601D01*
X202348179Y-126487911D01*
X202347699Y-126483034D01*
X202347699Y-126203034D01*
X202348179Y-126198157D01*
X202349602Y-126193467D01*
X202351912Y-126189145D01*
X202355021Y-126185356D01*
X202358810Y-126182247D01*
X202363132Y-126179937D01*
X202367822Y-126178514D01*
X202372699Y-126178034D01*
X203082699Y-126178034D01*
X203084416Y-126178203D01*
X203089568Y-126178203D01*
X203092017Y-126178323D01*
X203105690Y-126179669D01*
X203108119Y-126180030D01*
X203121594Y-126182711D01*
X203123972Y-126183306D01*
X203137120Y-126187294D01*
X203139430Y-126188121D01*
X203152123Y-126193378D01*
X203154343Y-126194428D01*
X203166459Y-126200905D01*
X203168562Y-126202165D01*
X203179986Y-126209798D01*
X203181957Y-126211260D01*
X203192577Y-126219976D01*
X203194395Y-126221623D01*
X203204110Y-126231338D01*
X203205757Y-126233156D01*
X203214473Y-126243776D01*
X203215935Y-126245747D01*
X203223568Y-126257171D01*
X203224828Y-126259274D01*
X203231305Y-126271390D01*
X203232355Y-126273610D01*
X203237612Y-126286303D01*
X203238439Y-126288613D01*
X203242427Y-126301761D01*
X203243022Y-126304139D01*
X203245703Y-126317614D01*
X203246064Y-126320043D01*
X203247410Y-126333716D01*
X203247530Y-126336165D01*
X203247530Y-126349903D01*
X203247410Y-126352352D01*
G37*
G36*
X203247410Y-126852352D02*
G01*
X203246064Y-126866025D01*
X203245703Y-126868454D01*
X203243022Y-126881929D01*
X203242427Y-126884307D01*
X203238439Y-126897455D01*
X203237612Y-126899765D01*
X203232355Y-126912458D01*
X203231305Y-126914678D01*
X203224828Y-126926794D01*
X203223568Y-126928897D01*
X203215935Y-126940321D01*
X203214473Y-126942292D01*
X203205757Y-126952912D01*
X203204110Y-126954730D01*
X203194395Y-126964445D01*
X203192577Y-126966092D01*
X203181957Y-126974808D01*
X203179986Y-126976270D01*
X203168562Y-126983903D01*
X203166459Y-126985163D01*
X203154343Y-126991640D01*
X203152123Y-126992690D01*
X203139430Y-126997947D01*
X203137120Y-126998774D01*
X203123972Y-127002762D01*
X203121594Y-127003357D01*
X203108119Y-127006038D01*
X203105690Y-127006399D01*
X203092017Y-127007745D01*
X203089568Y-127007865D01*
X203084416Y-127007865D01*
X203082699Y-127008034D01*
X202372699Y-127008034D01*
X202367822Y-127007554D01*
X202363132Y-127006131D01*
X202358810Y-127003821D01*
X202355021Y-127000712D01*
X202351912Y-126996923D01*
X202349602Y-126992601D01*
X202348179Y-126987911D01*
X202347699Y-126983034D01*
X202347699Y-126703034D01*
X202348179Y-126698157D01*
X202349602Y-126693467D01*
X202351912Y-126689145D01*
X202355021Y-126685356D01*
X202358810Y-126682247D01*
X202363132Y-126679937D01*
X202367822Y-126678514D01*
X202372699Y-126678034D01*
X203082699Y-126678034D01*
X203084416Y-126678203D01*
X203089568Y-126678203D01*
X203092017Y-126678323D01*
X203105690Y-126679669D01*
X203108119Y-126680030D01*
X203121594Y-126682711D01*
X203123972Y-126683306D01*
X203137120Y-126687294D01*
X203139430Y-126688121D01*
X203152123Y-126693378D01*
X203154343Y-126694428D01*
X203166459Y-126700905D01*
X203168562Y-126702165D01*
X203179986Y-126709798D01*
X203181957Y-126711260D01*
X203192577Y-126719976D01*
X203194395Y-126721623D01*
X203204110Y-126731338D01*
X203205757Y-126733156D01*
X203214473Y-126743776D01*
X203215935Y-126745747D01*
X203223568Y-126757171D01*
X203224828Y-126759274D01*
X203231305Y-126771390D01*
X203232355Y-126773610D01*
X203237612Y-126786303D01*
X203238439Y-126788613D01*
X203242427Y-126801761D01*
X203243022Y-126804139D01*
X203245703Y-126817614D01*
X203246064Y-126820043D01*
X203247410Y-126833716D01*
X203247530Y-126836165D01*
X203247530Y-126849903D01*
X203247410Y-126852352D01*
G37*
G36*
X203247410Y-127352352D02*
G01*
X203246064Y-127366025D01*
X203245703Y-127368454D01*
X203243022Y-127381929D01*
X203242427Y-127384307D01*
X203238439Y-127397455D01*
X203237612Y-127399765D01*
X203232355Y-127412458D01*
X203231305Y-127414678D01*
X203224828Y-127426794D01*
X203223568Y-127428897D01*
X203215935Y-127440321D01*
X203214473Y-127442292D01*
X203205757Y-127452912D01*
X203204110Y-127454730D01*
X203194395Y-127464445D01*
X203192577Y-127466092D01*
X203181957Y-127474808D01*
X203179986Y-127476270D01*
X203168562Y-127483903D01*
X203166459Y-127485163D01*
X203154343Y-127491640D01*
X203152123Y-127492690D01*
X203139430Y-127497947D01*
X203137120Y-127498774D01*
X203123972Y-127502762D01*
X203121594Y-127503357D01*
X203108119Y-127506038D01*
X203105690Y-127506399D01*
X203092017Y-127507745D01*
X203089568Y-127507865D01*
X203084416Y-127507865D01*
X203082699Y-127508034D01*
X202372699Y-127508034D01*
X202367822Y-127507554D01*
X202363132Y-127506131D01*
X202358810Y-127503821D01*
X202355021Y-127500712D01*
X202351912Y-127496923D01*
X202349602Y-127492601D01*
X202348179Y-127487911D01*
X202347699Y-127483034D01*
X202347699Y-127203034D01*
X202348179Y-127198157D01*
X202349602Y-127193467D01*
X202351912Y-127189145D01*
X202355021Y-127185356D01*
X202358810Y-127182247D01*
X202363132Y-127179937D01*
X202367822Y-127178514D01*
X202372699Y-127178034D01*
X203082699Y-127178034D01*
X203084416Y-127178203D01*
X203089568Y-127178203D01*
X203092017Y-127178323D01*
X203105690Y-127179669D01*
X203108119Y-127180030D01*
X203121594Y-127182711D01*
X203123972Y-127183306D01*
X203137120Y-127187294D01*
X203139430Y-127188121D01*
X203152123Y-127193378D01*
X203154343Y-127194428D01*
X203166459Y-127200905D01*
X203168562Y-127202165D01*
X203179986Y-127209798D01*
X203181957Y-127211260D01*
X203192577Y-127219976D01*
X203194395Y-127221623D01*
X203204110Y-127231338D01*
X203205757Y-127233156D01*
X203214473Y-127243776D01*
X203215935Y-127245747D01*
X203223568Y-127257171D01*
X203224828Y-127259274D01*
X203231305Y-127271390D01*
X203232355Y-127273610D01*
X203237612Y-127286303D01*
X203238439Y-127288613D01*
X203242427Y-127301761D01*
X203243022Y-127304139D01*
X203245703Y-127317614D01*
X203246064Y-127320043D01*
X203247410Y-127333716D01*
X203247530Y-127336165D01*
X203247530Y-127349903D01*
X203247410Y-127352352D01*
G37*
G36*
X203247410Y-127852352D02*
G01*
X203246064Y-127866025D01*
X203245703Y-127868454D01*
X203243022Y-127881929D01*
X203242427Y-127884307D01*
X203238439Y-127897455D01*
X203237612Y-127899765D01*
X203232355Y-127912458D01*
X203231305Y-127914678D01*
X203224828Y-127926794D01*
X203223568Y-127928897D01*
X203215935Y-127940321D01*
X203214473Y-127942292D01*
X203205757Y-127952912D01*
X203204110Y-127954730D01*
X203194395Y-127964445D01*
X203192577Y-127966092D01*
X203181957Y-127974808D01*
X203179986Y-127976270D01*
X203168562Y-127983903D01*
X203166459Y-127985163D01*
X203154343Y-127991640D01*
X203152123Y-127992690D01*
X203139430Y-127997947D01*
X203137120Y-127998774D01*
X203123972Y-128002762D01*
X203121594Y-128003357D01*
X203108119Y-128006038D01*
X203105690Y-128006399D01*
X203092017Y-128007745D01*
X203089568Y-128007865D01*
X203084416Y-128007865D01*
X203082699Y-128008034D01*
X202372699Y-128008034D01*
X202367822Y-128007554D01*
X202363132Y-128006131D01*
X202358810Y-128003821D01*
X202355021Y-128000712D01*
X202351912Y-127996923D01*
X202349602Y-127992601D01*
X202348179Y-127987911D01*
X202347699Y-127983034D01*
X202347699Y-127703034D01*
X202348179Y-127698157D01*
X202349602Y-127693467D01*
X202351912Y-127689145D01*
X202355021Y-127685356D01*
X202358810Y-127682247D01*
X202363132Y-127679937D01*
X202367822Y-127678514D01*
X202372699Y-127678034D01*
X203082699Y-127678034D01*
X203084416Y-127678203D01*
X203089568Y-127678203D01*
X203092017Y-127678323D01*
X203105690Y-127679669D01*
X203108119Y-127680030D01*
X203121594Y-127682711D01*
X203123972Y-127683306D01*
X203137120Y-127687294D01*
X203139430Y-127688121D01*
X203152123Y-127693378D01*
X203154343Y-127694428D01*
X203166459Y-127700905D01*
X203168562Y-127702165D01*
X203179986Y-127709798D01*
X203181957Y-127711260D01*
X203192577Y-127719976D01*
X203194395Y-127721623D01*
X203204110Y-127731338D01*
X203205757Y-127733156D01*
X203214473Y-127743776D01*
X203215935Y-127745747D01*
X203223568Y-127757171D01*
X203224828Y-127759274D01*
X203231305Y-127771390D01*
X203232355Y-127773610D01*
X203237612Y-127786303D01*
X203238439Y-127788613D01*
X203242427Y-127801761D01*
X203243022Y-127804139D01*
X203245703Y-127817614D01*
X203246064Y-127820043D01*
X203247410Y-127833716D01*
X203247530Y-127836165D01*
X203247530Y-127849903D01*
X203247410Y-127852352D01*
G37*
G36*
X203247410Y-128352352D02*
G01*
X203246064Y-128366025D01*
X203245703Y-128368454D01*
X203243022Y-128381929D01*
X203242427Y-128384307D01*
X203238439Y-128397455D01*
X203237612Y-128399765D01*
X203232355Y-128412458D01*
X203231305Y-128414678D01*
X203224828Y-128426794D01*
X203223568Y-128428897D01*
X203215935Y-128440321D01*
X203214473Y-128442292D01*
X203205757Y-128452912D01*
X203204110Y-128454730D01*
X203194395Y-128464445D01*
X203192577Y-128466092D01*
X203181957Y-128474808D01*
X203179986Y-128476270D01*
X203168562Y-128483903D01*
X203166459Y-128485163D01*
X203154343Y-128491640D01*
X203152123Y-128492690D01*
X203139430Y-128497947D01*
X203137120Y-128498774D01*
X203123972Y-128502762D01*
X203121594Y-128503357D01*
X203108119Y-128506038D01*
X203105690Y-128506399D01*
X203092017Y-128507745D01*
X203089568Y-128507865D01*
X203084416Y-128507865D01*
X203082699Y-128508034D01*
X202372699Y-128508034D01*
X202367822Y-128507554D01*
X202363132Y-128506131D01*
X202358810Y-128503821D01*
X202355021Y-128500712D01*
X202351912Y-128496923D01*
X202349602Y-128492601D01*
X202348179Y-128487911D01*
X202347699Y-128483034D01*
X202347699Y-128203034D01*
X202348179Y-128198157D01*
X202349602Y-128193467D01*
X202351912Y-128189145D01*
X202355021Y-128185356D01*
X202358810Y-128182247D01*
X202363132Y-128179937D01*
X202367822Y-128178514D01*
X202372699Y-128178034D01*
X203082699Y-128178034D01*
X203084416Y-128178203D01*
X203089568Y-128178203D01*
X203092017Y-128178323D01*
X203105690Y-128179669D01*
X203108119Y-128180030D01*
X203121594Y-128182711D01*
X203123972Y-128183306D01*
X203137120Y-128187294D01*
X203139430Y-128188121D01*
X203152123Y-128193378D01*
X203154343Y-128194428D01*
X203166459Y-128200905D01*
X203168562Y-128202165D01*
X203179986Y-128209798D01*
X203181957Y-128211260D01*
X203192577Y-128219976D01*
X203194395Y-128221623D01*
X203204110Y-128231338D01*
X203205757Y-128233156D01*
X203214473Y-128243776D01*
X203215935Y-128245747D01*
X203223568Y-128257171D01*
X203224828Y-128259274D01*
X203231305Y-128271390D01*
X203232355Y-128273610D01*
X203237612Y-128286303D01*
X203238439Y-128288613D01*
X203242427Y-128301761D01*
X203243022Y-128304139D01*
X203245703Y-128317614D01*
X203246064Y-128320043D01*
X203247410Y-128333716D01*
X203247530Y-128336165D01*
X203247530Y-128349903D01*
X203247410Y-128352352D01*
G37*
G36*
G01*
X206122699Y-128468034D02*
X203422699Y-128468034D01*
G75*
G02*
X203397699Y-128443034I0J25000D01*
G01*
X203397699Y-125743034D01*
G75*
G02*
X203422699Y-125718034I25000J0D01*
G01*
X206122699Y-125718034D01*
G75*
G02*
X206147699Y-125743034I0J-25000D01*
G01*
X206147699Y-128443034D01*
G75*
G02*
X206122699Y-128468034I-25000J0D01*
G01*
G37*
%TD*%
%TO.C,J11*%
G36*
G01*
X186486400Y-127070200D02*
X186486400Y-127670200D01*
G75*
G02*
X186461400Y-127695200I-25000J0D01*
G01*
X184711400Y-127695200D01*
G75*
G02*
X184686400Y-127670200I0J25000D01*
G01*
X184686400Y-127070200D01*
G75*
G02*
X184711400Y-127045200I25000J0D01*
G01*
X186461400Y-127045200D01*
G75*
G02*
X186486400Y-127070200I0J-25000D01*
G01*
G37*
G36*
G01*
X186486400Y-129070200D02*
X186486400Y-129670200D01*
G75*
G02*
X186461400Y-129695200I-25000J0D01*
G01*
X184711400Y-129695200D01*
G75*
G02*
X184686400Y-129670200I0J25000D01*
G01*
X184686400Y-129070200D01*
G75*
G02*
X184711400Y-129045200I25000J0D01*
G01*
X186461400Y-129045200D01*
G75*
G02*
X186486400Y-129070200I0J-25000D01*
G01*
G37*
G36*
G01*
X186486400Y-131070200D02*
X186486400Y-131670200D01*
G75*
G02*
X186461400Y-131695200I-25000J0D01*
G01*
X184711400Y-131695200D01*
G75*
G02*
X184686400Y-131670200I0J25000D01*
G01*
X184686400Y-131070200D01*
G75*
G02*
X184711400Y-131045200I25000J0D01*
G01*
X186461400Y-131045200D01*
G75*
G02*
X186486400Y-131070200I0J-25000D01*
G01*
G37*
G36*
G01*
X188236400Y-128070200D02*
X188236400Y-128670200D01*
G75*
G02*
X188211400Y-128695200I-25000J0D01*
G01*
X186461400Y-128695200D01*
G75*
G02*
X186436400Y-128670200I0J25000D01*
G01*
X186436400Y-128070200D01*
G75*
G02*
X186461400Y-128045200I25000J0D01*
G01*
X188211400Y-128045200D01*
G75*
G02*
X188236400Y-128070200I0J-25000D01*
G01*
G37*
G36*
G01*
X188236400Y-130070200D02*
X188236400Y-130670200D01*
G75*
G02*
X188211400Y-130695200I-25000J0D01*
G01*
X186461400Y-130695200D01*
G75*
G02*
X186436400Y-130670200I0J25000D01*
G01*
X186436400Y-130070200D01*
G75*
G02*
X186461400Y-130045200I25000J0D01*
G01*
X188211400Y-130045200D01*
G75*
G02*
X188236400Y-130070200I0J-25000D01*
G01*
G37*
G36*
G01*
X188236400Y-132070200D02*
X188236400Y-132670200D01*
G75*
G02*
X188211400Y-132695200I-25000J0D01*
G01*
X186461400Y-132695200D01*
G75*
G02*
X186436400Y-132670200I0J25000D01*
G01*
X186436400Y-132070200D01*
G75*
G02*
X186461400Y-132045200I25000J0D01*
G01*
X188211400Y-132045200D01*
G75*
G02*
X188236400Y-132070200I0J-25000D01*
G01*
G37*
%TD*%
D11*
%TO.C,J7*%
X195600000Y-122834400D03*
G36*
G01*
X196175000Y-122384400D02*
X197025000Y-122384400D01*
G75*
G02*
X197050000Y-122409400I0J-25000D01*
G01*
X197050000Y-123259400D01*
G75*
G02*
X197025000Y-123284400I-25000J0D01*
G01*
X196175000Y-123284400D01*
G75*
G02*
X196150000Y-123259400I0J25000D01*
G01*
X196150000Y-122409400D01*
G75*
G02*
X196175000Y-122384400I25000J0D01*
G01*
G37*
%TD*%
D12*
%TO.C,REF\u002A\u002A*%
X214000000Y-138750000D03*
%TD*%
%TO.C,REF\u002A\u002A*%
X214000000Y-87750000D03*
%TD*%
%TO.C,C13*%
G36*
G01*
X207523000Y-113258750D02*
X207523000Y-112321250D01*
G75*
G02*
X207779250Y-112065000I256250J0D01*
G01*
X208291750Y-112065000D01*
G75*
G02*
X208548000Y-112321250I0J-256250D01*
G01*
X208548000Y-113258750D01*
G75*
G02*
X208291750Y-113515000I-256250J0D01*
G01*
X207779250Y-113515000D01*
G75*
G02*
X207523000Y-113258750I0J256250D01*
G01*
G37*
G36*
G01*
X205648000Y-113258750D02*
X205648000Y-112321250D01*
G75*
G02*
X205904250Y-112065000I256250J0D01*
G01*
X206416750Y-112065000D01*
G75*
G02*
X206673000Y-112321250I0J-256250D01*
G01*
X206673000Y-113258750D01*
G75*
G02*
X206416750Y-113515000I-256250J0D01*
G01*
X205904250Y-113515000D01*
G75*
G02*
X205648000Y-113258750I0J256250D01*
G01*
G37*
%TD*%
%TO.C,C7*%
G36*
G01*
X207648000Y-119358750D02*
X207648000Y-118421250D01*
G75*
G02*
X207904250Y-118165000I256250J0D01*
G01*
X208416750Y-118165000D01*
G75*
G02*
X208673000Y-118421250I0J-256250D01*
G01*
X208673000Y-119358750D01*
G75*
G02*
X208416750Y-119615000I-256250J0D01*
G01*
X207904250Y-119615000D01*
G75*
G02*
X207648000Y-119358750I0J256250D01*
G01*
G37*
G36*
G01*
X205773000Y-119358750D02*
X205773000Y-118421250D01*
G75*
G02*
X206029250Y-118165000I256250J0D01*
G01*
X206541750Y-118165000D01*
G75*
G02*
X206798000Y-118421250I0J-256250D01*
G01*
X206798000Y-119358750D01*
G75*
G02*
X206541750Y-119615000I-256250J0D01*
G01*
X206029250Y-119615000D01*
G75*
G02*
X205773000Y-119358750I0J256250D01*
G01*
G37*
%TD*%
%TO.C,U4*%
G36*
G01*
X207823000Y-116460000D02*
X208473000Y-116460000D01*
G75*
G02*
X208498000Y-116485000I0J-25000D01*
G01*
X208498000Y-117545000D01*
G75*
G02*
X208473000Y-117570000I-25000J0D01*
G01*
X207823000Y-117570000D01*
G75*
G02*
X207798000Y-117545000I0J25000D01*
G01*
X207798000Y-116485000D01*
G75*
G02*
X207823000Y-116460000I25000J0D01*
G01*
G37*
G36*
G01*
X205923000Y-116460000D02*
X206573000Y-116460000D01*
G75*
G02*
X206598000Y-116485000I0J-25000D01*
G01*
X206598000Y-117545000D01*
G75*
G02*
X206573000Y-117570000I-25000J0D01*
G01*
X205923000Y-117570000D01*
G75*
G02*
X205898000Y-117545000I0J25000D01*
G01*
X205898000Y-116485000D01*
G75*
G02*
X205923000Y-116460000I25000J0D01*
G01*
G37*
G36*
G01*
X205923000Y-114260000D02*
X206573000Y-114260000D01*
G75*
G02*
X206598000Y-114285000I0J-25000D01*
G01*
X206598000Y-115345000D01*
G75*
G02*
X206573000Y-115370000I-25000J0D01*
G01*
X205923000Y-115370000D01*
G75*
G02*
X205898000Y-115345000I0J25000D01*
G01*
X205898000Y-114285000D01*
G75*
G02*
X205923000Y-114260000I25000J0D01*
G01*
G37*
G36*
G01*
X206873000Y-114260000D02*
X207523000Y-114260000D01*
G75*
G02*
X207548000Y-114285000I0J-25000D01*
G01*
X207548000Y-115345000D01*
G75*
G02*
X207523000Y-115370000I-25000J0D01*
G01*
X206873000Y-115370000D01*
G75*
G02*
X206848000Y-115345000I0J25000D01*
G01*
X206848000Y-114285000D01*
G75*
G02*
X206873000Y-114260000I25000J0D01*
G01*
G37*
G36*
G01*
X207823000Y-114260000D02*
X208473000Y-114260000D01*
G75*
G02*
X208498000Y-114285000I0J-25000D01*
G01*
X208498000Y-115345000D01*
G75*
G02*
X208473000Y-115370000I-25000J0D01*
G01*
X207823000Y-115370000D01*
G75*
G02*
X207798000Y-115345000I0J25000D01*
G01*
X207798000Y-114285000D01*
G75*
G02*
X207823000Y-114260000I25000J0D01*
G01*
G37*
%TD*%
%TO.C,REF\u002A\u002A*%
X178050000Y-87750000D03*
%TD*%
%TO.C,REF\u002A\u002A*%
X178050000Y-138750000D03*
%TD*%
%TO.C,L9*%
G36*
G01*
X214447000Y-102300000D02*
X214447000Y-99600000D01*
G75*
G02*
X214472000Y-99575000I25000J0D01*
G01*
X215272000Y-99575000D01*
G75*
G02*
X215297000Y-99600000I0J-25000D01*
G01*
X215297000Y-102300000D01*
G75*
G02*
X215272000Y-102325000I-25000J0D01*
G01*
X214472000Y-102325000D01*
G75*
G02*
X214447000Y-102300000I0J25000D01*
G01*
G37*
G36*
G01*
X212247000Y-102300000D02*
X212247000Y-99600000D01*
G75*
G02*
X212272000Y-99575000I25000J0D01*
G01*
X213072000Y-99575000D01*
G75*
G02*
X213097000Y-99600000I0J-25000D01*
G01*
X213097000Y-102300000D01*
G75*
G02*
X213072000Y-102325000I-25000J0D01*
G01*
X212272000Y-102325000D01*
G75*
G02*
X212247000Y-102300000I0J25000D01*
G01*
G37*
%TD*%
%TO.C,U1*%
G36*
G01*
X186059494Y-103471203D02*
X186257484Y-103273213D01*
G75*
G02*
X186292840Y-103273213I17678J-17678D01*
G01*
X187353500Y-104333873D01*
G75*
G02*
X187353500Y-104369229I-17678J-17678D01*
G01*
X187155510Y-104567219D01*
G75*
G02*
X187120154Y-104567219I-17678J17678D01*
G01*
X186059494Y-103506559D01*
G75*
G02*
X186059494Y-103471203I17678J17678D01*
G01*
G37*
G36*
G01*
X185705941Y-103824756D02*
X185903931Y-103626766D01*
G75*
G02*
X185939287Y-103626766I17678J-17678D01*
G01*
X186999947Y-104687426D01*
G75*
G02*
X186999947Y-104722782I-17678J-17678D01*
G01*
X186801957Y-104920772D01*
G75*
G02*
X186766601Y-104920772I-17678J17678D01*
G01*
X185705941Y-103860112D01*
G75*
G02*
X185705941Y-103824756I17678J17678D01*
G01*
G37*
G36*
G01*
X185352387Y-104178310D02*
X185550377Y-103980320D01*
G75*
G02*
X185585733Y-103980320I17678J-17678D01*
G01*
X186646393Y-105040980D01*
G75*
G02*
X186646393Y-105076336I-17678J-17678D01*
G01*
X186448403Y-105274326D01*
G75*
G02*
X186413047Y-105274326I-17678J17678D01*
G01*
X185352387Y-104213666D01*
G75*
G02*
X185352387Y-104178310I17678J17678D01*
G01*
G37*
G36*
G01*
X184998834Y-104531863D02*
X185196824Y-104333873D01*
G75*
G02*
X185232180Y-104333873I17678J-17678D01*
G01*
X186292840Y-105394533D01*
G75*
G02*
X186292840Y-105429889I-17678J-17678D01*
G01*
X186094850Y-105627879D01*
G75*
G02*
X186059494Y-105627879I-17678J17678D01*
G01*
X184998834Y-104567219D01*
G75*
G02*
X184998834Y-104531863I17678J17678D01*
G01*
G37*
G36*
G01*
X184645281Y-104885416D02*
X184843271Y-104687426D01*
G75*
G02*
X184878627Y-104687426I17678J-17678D01*
G01*
X185939287Y-105748086D01*
G75*
G02*
X185939287Y-105783442I-17678J-17678D01*
G01*
X185741297Y-105981432D01*
G75*
G02*
X185705941Y-105981432I-17678J17678D01*
G01*
X184645281Y-104920772D01*
G75*
G02*
X184645281Y-104885416I17678J17678D01*
G01*
G37*
G36*
G01*
X184291727Y-105238970D02*
X184489717Y-105040980D01*
G75*
G02*
X184525073Y-105040980I17678J-17678D01*
G01*
X185585733Y-106101640D01*
G75*
G02*
X185585733Y-106136996I-17678J-17678D01*
G01*
X185387743Y-106334986D01*
G75*
G02*
X185352387Y-106334986I-17678J17678D01*
G01*
X184291727Y-105274326D01*
G75*
G02*
X184291727Y-105238970I17678J17678D01*
G01*
G37*
G36*
G01*
X183938174Y-105592523D02*
X184136164Y-105394533D01*
G75*
G02*
X184171520Y-105394533I17678J-17678D01*
G01*
X185232180Y-106455193D01*
G75*
G02*
X185232180Y-106490549I-17678J-17678D01*
G01*
X185034190Y-106688539D01*
G75*
G02*
X184998834Y-106688539I-17678J17678D01*
G01*
X183938174Y-105627879D01*
G75*
G02*
X183938174Y-105592523I17678J17678D01*
G01*
G37*
G36*
G01*
X183584620Y-105946076D02*
X183782610Y-105748086D01*
G75*
G02*
X183817966Y-105748086I17678J-17678D01*
G01*
X184878626Y-106808746D01*
G75*
G02*
X184878626Y-106844102I-17678J-17678D01*
G01*
X184680636Y-107042092D01*
G75*
G02*
X184645280Y-107042092I-17678J17678D01*
G01*
X183584620Y-105981432D01*
G75*
G02*
X183584620Y-105946076I17678J17678D01*
G01*
G37*
G36*
G01*
X183231067Y-106299630D02*
X183429057Y-106101640D01*
G75*
G02*
X183464413Y-106101640I17678J-17678D01*
G01*
X184525073Y-107162300D01*
G75*
G02*
X184525073Y-107197656I-17678J-17678D01*
G01*
X184327083Y-107395646D01*
G75*
G02*
X184291727Y-107395646I-17678J17678D01*
G01*
X183231067Y-106334986D01*
G75*
G02*
X183231067Y-106299630I17678J17678D01*
G01*
G37*
G36*
G01*
X182877514Y-106653183D02*
X183075504Y-106455193D01*
G75*
G02*
X183110860Y-106455193I17678J-17678D01*
G01*
X184171520Y-107515853D01*
G75*
G02*
X184171520Y-107551209I-17678J-17678D01*
G01*
X183973530Y-107749199D01*
G75*
G02*
X183938174Y-107749199I-17678J17678D01*
G01*
X182877514Y-106688539D01*
G75*
G02*
X182877514Y-106653183I17678J17678D01*
G01*
G37*
G36*
G01*
X182523960Y-107006737D02*
X182721950Y-106808747D01*
G75*
G02*
X182757306Y-106808747I17678J-17678D01*
G01*
X183817966Y-107869407D01*
G75*
G02*
X183817966Y-107904763I-17678J-17678D01*
G01*
X183619976Y-108102753D01*
G75*
G02*
X183584620Y-108102753I-17678J17678D01*
G01*
X182523960Y-107042093D01*
G75*
G02*
X182523960Y-107006737I17678J17678D01*
G01*
G37*
G36*
G01*
X182170407Y-107360290D02*
X182368397Y-107162300D01*
G75*
G02*
X182403753Y-107162300I17678J-17678D01*
G01*
X183464413Y-108222960D01*
G75*
G02*
X183464413Y-108258316I-17678J-17678D01*
G01*
X183266423Y-108456306D01*
G75*
G02*
X183231067Y-108456306I-17678J17678D01*
G01*
X182170407Y-107395646D01*
G75*
G02*
X182170407Y-107360290I17678J17678D01*
G01*
G37*
G36*
G01*
X181816853Y-107713843D02*
X182014843Y-107515853D01*
G75*
G02*
X182050199Y-107515853I17678J-17678D01*
G01*
X183110859Y-108576513D01*
G75*
G02*
X183110859Y-108611869I-17678J-17678D01*
G01*
X182912869Y-108809859D01*
G75*
G02*
X182877513Y-108809859I-17678J17678D01*
G01*
X181816853Y-107749199D01*
G75*
G02*
X181816853Y-107713843I17678J17678D01*
G01*
G37*
G36*
G01*
X181463300Y-108067397D02*
X181661290Y-107869407D01*
G75*
G02*
X181696646Y-107869407I17678J-17678D01*
G01*
X182757306Y-108930067D01*
G75*
G02*
X182757306Y-108965423I-17678J-17678D01*
G01*
X182559316Y-109163413D01*
G75*
G02*
X182523960Y-109163413I-17678J17678D01*
G01*
X181463300Y-108102753D01*
G75*
G02*
X181463300Y-108067397I17678J17678D01*
G01*
G37*
G36*
G01*
X181109747Y-108420950D02*
X181307737Y-108222960D01*
G75*
G02*
X181343093Y-108222960I17678J-17678D01*
G01*
X182403753Y-109283620D01*
G75*
G02*
X182403753Y-109318976I-17678J-17678D01*
G01*
X182205763Y-109516966D01*
G75*
G02*
X182170407Y-109516966I-17678J17678D01*
G01*
X181109747Y-108456306D01*
G75*
G02*
X181109747Y-108420950I17678J17678D01*
G01*
G37*
G36*
G01*
X180756193Y-108774504D02*
X180954183Y-108576514D01*
G75*
G02*
X180989539Y-108576514I17678J-17678D01*
G01*
X182050199Y-109637174D01*
G75*
G02*
X182050199Y-109672530I-17678J-17678D01*
G01*
X181852209Y-109870520D01*
G75*
G02*
X181816853Y-109870520I-17678J17678D01*
G01*
X180756193Y-108809860D01*
G75*
G02*
X180756193Y-108774504I17678J17678D01*
G01*
G37*
G36*
G01*
X180402640Y-109128057D02*
X180600630Y-108930067D01*
G75*
G02*
X180635986Y-108930067I17678J-17678D01*
G01*
X181696646Y-109990727D01*
G75*
G02*
X181696646Y-110026083I-17678J-17678D01*
G01*
X181498656Y-110224073D01*
G75*
G02*
X181463300Y-110224073I-17678J17678D01*
G01*
X180402640Y-109163413D01*
G75*
G02*
X180402640Y-109128057I17678J17678D01*
G01*
G37*
G36*
G01*
X180049086Y-109481610D02*
X180247076Y-109283620D01*
G75*
G02*
X180282432Y-109283620I17678J-17678D01*
G01*
X181343092Y-110344280D01*
G75*
G02*
X181343092Y-110379636I-17678J-17678D01*
G01*
X181145102Y-110577626D01*
G75*
G02*
X181109746Y-110577626I-17678J17678D01*
G01*
X180049086Y-109516966D01*
G75*
G02*
X180049086Y-109481610I17678J17678D01*
G01*
G37*
G36*
G01*
X179695533Y-109835164D02*
X179893523Y-109637174D01*
G75*
G02*
X179928879Y-109637174I17678J-17678D01*
G01*
X180989539Y-110697834D01*
G75*
G02*
X180989539Y-110733190I-17678J-17678D01*
G01*
X180791549Y-110931180D01*
G75*
G02*
X180756193Y-110931180I-17678J17678D01*
G01*
X179695533Y-109870520D01*
G75*
G02*
X179695533Y-109835164I17678J17678D01*
G01*
G37*
G36*
G01*
X179341980Y-110188717D02*
X179539970Y-109990727D01*
G75*
G02*
X179575326Y-109990727I17678J-17678D01*
G01*
X180635986Y-111051387D01*
G75*
G02*
X180635986Y-111086743I-17678J-17678D01*
G01*
X180437996Y-111284733D01*
G75*
G02*
X180402640Y-111284733I-17678J17678D01*
G01*
X179341980Y-110224073D01*
G75*
G02*
X179341980Y-110188717I17678J17678D01*
G01*
G37*
G36*
G01*
X178988426Y-110542271D02*
X179186416Y-110344281D01*
G75*
G02*
X179221772Y-110344281I17678J-17678D01*
G01*
X180282432Y-111404941D01*
G75*
G02*
X180282432Y-111440297I-17678J-17678D01*
G01*
X180084442Y-111638287D01*
G75*
G02*
X180049086Y-111638287I-17678J17678D01*
G01*
X178988426Y-110577627D01*
G75*
G02*
X178988426Y-110542271I17678J17678D01*
G01*
G37*
G36*
G01*
X178634873Y-110895824D02*
X178832863Y-110697834D01*
G75*
G02*
X178868219Y-110697834I17678J-17678D01*
G01*
X179928879Y-111758494D01*
G75*
G02*
X179928879Y-111793850I-17678J-17678D01*
G01*
X179730889Y-111991840D01*
G75*
G02*
X179695533Y-111991840I-17678J17678D01*
G01*
X178634873Y-110931180D01*
G75*
G02*
X178634873Y-110895824I17678J17678D01*
G01*
G37*
G36*
G01*
X178281320Y-111249377D02*
X178479310Y-111051387D01*
G75*
G02*
X178514666Y-111051387I17678J-17678D01*
G01*
X179575326Y-112112047D01*
G75*
G02*
X179575326Y-112147403I-17678J-17678D01*
G01*
X179377336Y-112345393D01*
G75*
G02*
X179341980Y-112345393I-17678J17678D01*
G01*
X178281320Y-111284733D01*
G75*
G02*
X178281320Y-111249377I17678J17678D01*
G01*
G37*
G36*
G01*
X177927766Y-111602931D02*
X178125756Y-111404941D01*
G75*
G02*
X178161112Y-111404941I17678J-17678D01*
G01*
X179221772Y-112465601D01*
G75*
G02*
X179221772Y-112500957I-17678J-17678D01*
G01*
X179023782Y-112698947D01*
G75*
G02*
X178988426Y-112698947I-17678J17678D01*
G01*
X177927766Y-111638287D01*
G75*
G02*
X177927766Y-111602931I17678J17678D01*
G01*
G37*
G36*
G01*
X177574213Y-111956484D02*
X177772203Y-111758494D01*
G75*
G02*
X177807559Y-111758494I17678J-17678D01*
G01*
X178868219Y-112819154D01*
G75*
G02*
X178868219Y-112854510I-17678J-17678D01*
G01*
X178670229Y-113052500D01*
G75*
G02*
X178634873Y-113052500I-17678J17678D01*
G01*
X177574213Y-111991840D01*
G75*
G02*
X177574213Y-111956484I17678J17678D01*
G01*
G37*
G36*
G01*
X177772203Y-115739506D02*
X177574213Y-115541516D01*
G75*
G02*
X177574213Y-115506160I17678J17678D01*
G01*
X178634873Y-114445500D01*
G75*
G02*
X178670229Y-114445500I17678J-17678D01*
G01*
X178868219Y-114643490D01*
G75*
G02*
X178868219Y-114678846I-17678J-17678D01*
G01*
X177807559Y-115739506D01*
G75*
G02*
X177772203Y-115739506I-17678J17678D01*
G01*
G37*
G36*
G01*
X178125756Y-116093059D02*
X177927766Y-115895069D01*
G75*
G02*
X177927766Y-115859713I17678J17678D01*
G01*
X178988426Y-114799053D01*
G75*
G02*
X179023782Y-114799053I17678J-17678D01*
G01*
X179221772Y-114997043D01*
G75*
G02*
X179221772Y-115032399I-17678J-17678D01*
G01*
X178161112Y-116093059D01*
G75*
G02*
X178125756Y-116093059I-17678J17678D01*
G01*
G37*
G36*
G01*
X178479310Y-116446613D02*
X178281320Y-116248623D01*
G75*
G02*
X178281320Y-116213267I17678J17678D01*
G01*
X179341980Y-115152607D01*
G75*
G02*
X179377336Y-115152607I17678J-17678D01*
G01*
X179575326Y-115350597D01*
G75*
G02*
X179575326Y-115385953I-17678J-17678D01*
G01*
X178514666Y-116446613D01*
G75*
G02*
X178479310Y-116446613I-17678J17678D01*
G01*
G37*
G36*
G01*
X178832863Y-116800166D02*
X178634873Y-116602176D01*
G75*
G02*
X178634873Y-116566820I17678J17678D01*
G01*
X179695533Y-115506160D01*
G75*
G02*
X179730889Y-115506160I17678J-17678D01*
G01*
X179928879Y-115704150D01*
G75*
G02*
X179928879Y-115739506I-17678J-17678D01*
G01*
X178868219Y-116800166D01*
G75*
G02*
X178832863Y-116800166I-17678J17678D01*
G01*
G37*
G36*
G01*
X179186416Y-117153719D02*
X178988426Y-116955729D01*
G75*
G02*
X178988426Y-116920373I17678J17678D01*
G01*
X180049086Y-115859713D01*
G75*
G02*
X180084442Y-115859713I17678J-17678D01*
G01*
X180282432Y-116057703D01*
G75*
G02*
X180282432Y-116093059I-17678J-17678D01*
G01*
X179221772Y-117153719D01*
G75*
G02*
X179186416Y-117153719I-17678J17678D01*
G01*
G37*
G36*
G01*
X179539970Y-117507273D02*
X179341980Y-117309283D01*
G75*
G02*
X179341980Y-117273927I17678J17678D01*
G01*
X180402640Y-116213267D01*
G75*
G02*
X180437996Y-116213267I17678J-17678D01*
G01*
X180635986Y-116411257D01*
G75*
G02*
X180635986Y-116446613I-17678J-17678D01*
G01*
X179575326Y-117507273D01*
G75*
G02*
X179539970Y-117507273I-17678J17678D01*
G01*
G37*
G36*
G01*
X179893523Y-117860826D02*
X179695533Y-117662836D01*
G75*
G02*
X179695533Y-117627480I17678J17678D01*
G01*
X180756193Y-116566820D01*
G75*
G02*
X180791549Y-116566820I17678J-17678D01*
G01*
X180989539Y-116764810D01*
G75*
G02*
X180989539Y-116800166I-17678J-17678D01*
G01*
X179928879Y-117860826D01*
G75*
G02*
X179893523Y-117860826I-17678J17678D01*
G01*
G37*
G36*
G01*
X180247076Y-118214380D02*
X180049086Y-118016390D01*
G75*
G02*
X180049086Y-117981034I17678J17678D01*
G01*
X181109746Y-116920374D01*
G75*
G02*
X181145102Y-116920374I17678J-17678D01*
G01*
X181343092Y-117118364D01*
G75*
G02*
X181343092Y-117153720I-17678J-17678D01*
G01*
X180282432Y-118214380D01*
G75*
G02*
X180247076Y-118214380I-17678J17678D01*
G01*
G37*
G36*
G01*
X180600630Y-118567933D02*
X180402640Y-118369943D01*
G75*
G02*
X180402640Y-118334587I17678J17678D01*
G01*
X181463300Y-117273927D01*
G75*
G02*
X181498656Y-117273927I17678J-17678D01*
G01*
X181696646Y-117471917D01*
G75*
G02*
X181696646Y-117507273I-17678J-17678D01*
G01*
X180635986Y-118567933D01*
G75*
G02*
X180600630Y-118567933I-17678J17678D01*
G01*
G37*
G36*
G01*
X180954183Y-118921486D02*
X180756193Y-118723496D01*
G75*
G02*
X180756193Y-118688140I17678J17678D01*
G01*
X181816853Y-117627480D01*
G75*
G02*
X181852209Y-117627480I17678J-17678D01*
G01*
X182050199Y-117825470D01*
G75*
G02*
X182050199Y-117860826I-17678J-17678D01*
G01*
X180989539Y-118921486D01*
G75*
G02*
X180954183Y-118921486I-17678J17678D01*
G01*
G37*
G36*
G01*
X181307737Y-119275040D02*
X181109747Y-119077050D01*
G75*
G02*
X181109747Y-119041694I17678J17678D01*
G01*
X182170407Y-117981034D01*
G75*
G02*
X182205763Y-117981034I17678J-17678D01*
G01*
X182403753Y-118179024D01*
G75*
G02*
X182403753Y-118214380I-17678J-17678D01*
G01*
X181343093Y-119275040D01*
G75*
G02*
X181307737Y-119275040I-17678J17678D01*
G01*
G37*
G36*
G01*
X181661290Y-119628593D02*
X181463300Y-119430603D01*
G75*
G02*
X181463300Y-119395247I17678J17678D01*
G01*
X182523960Y-118334587D01*
G75*
G02*
X182559316Y-118334587I17678J-17678D01*
G01*
X182757306Y-118532577D01*
G75*
G02*
X182757306Y-118567933I-17678J-17678D01*
G01*
X181696646Y-119628593D01*
G75*
G02*
X181661290Y-119628593I-17678J17678D01*
G01*
G37*
G36*
G01*
X182014843Y-119982147D02*
X181816853Y-119784157D01*
G75*
G02*
X181816853Y-119748801I17678J17678D01*
G01*
X182877513Y-118688141D01*
G75*
G02*
X182912869Y-118688141I17678J-17678D01*
G01*
X183110859Y-118886131D01*
G75*
G02*
X183110859Y-118921487I-17678J-17678D01*
G01*
X182050199Y-119982147D01*
G75*
G02*
X182014843Y-119982147I-17678J17678D01*
G01*
G37*
G36*
G01*
X182368397Y-120335700D02*
X182170407Y-120137710D01*
G75*
G02*
X182170407Y-120102354I17678J17678D01*
G01*
X183231067Y-119041694D01*
G75*
G02*
X183266423Y-119041694I17678J-17678D01*
G01*
X183464413Y-119239684D01*
G75*
G02*
X183464413Y-119275040I-17678J-17678D01*
G01*
X182403753Y-120335700D01*
G75*
G02*
X182368397Y-120335700I-17678J17678D01*
G01*
G37*
G36*
G01*
X182721950Y-120689253D02*
X182523960Y-120491263D01*
G75*
G02*
X182523960Y-120455907I17678J17678D01*
G01*
X183584620Y-119395247D01*
G75*
G02*
X183619976Y-119395247I17678J-17678D01*
G01*
X183817966Y-119593237D01*
G75*
G02*
X183817966Y-119628593I-17678J-17678D01*
G01*
X182757306Y-120689253D01*
G75*
G02*
X182721950Y-120689253I-17678J17678D01*
G01*
G37*
G36*
G01*
X183075504Y-121042807D02*
X182877514Y-120844817D01*
G75*
G02*
X182877514Y-120809461I17678J17678D01*
G01*
X183938174Y-119748801D01*
G75*
G02*
X183973530Y-119748801I17678J-17678D01*
G01*
X184171520Y-119946791D01*
G75*
G02*
X184171520Y-119982147I-17678J-17678D01*
G01*
X183110860Y-121042807D01*
G75*
G02*
X183075504Y-121042807I-17678J17678D01*
G01*
G37*
G36*
G01*
X183429057Y-121396360D02*
X183231067Y-121198370D01*
G75*
G02*
X183231067Y-121163014I17678J17678D01*
G01*
X184291727Y-120102354D01*
G75*
G02*
X184327083Y-120102354I17678J-17678D01*
G01*
X184525073Y-120300344D01*
G75*
G02*
X184525073Y-120335700I-17678J-17678D01*
G01*
X183464413Y-121396360D01*
G75*
G02*
X183429057Y-121396360I-17678J17678D01*
G01*
G37*
G36*
G01*
X183782610Y-121749914D02*
X183584620Y-121551924D01*
G75*
G02*
X183584620Y-121516568I17678J17678D01*
G01*
X184645280Y-120455908D01*
G75*
G02*
X184680636Y-120455908I17678J-17678D01*
G01*
X184878626Y-120653898D01*
G75*
G02*
X184878626Y-120689254I-17678J-17678D01*
G01*
X183817966Y-121749914D01*
G75*
G02*
X183782610Y-121749914I-17678J17678D01*
G01*
G37*
G36*
G01*
X184136164Y-122103467D02*
X183938174Y-121905477D01*
G75*
G02*
X183938174Y-121870121I17678J17678D01*
G01*
X184998834Y-120809461D01*
G75*
G02*
X185034190Y-120809461I17678J-17678D01*
G01*
X185232180Y-121007451D01*
G75*
G02*
X185232180Y-121042807I-17678J-17678D01*
G01*
X184171520Y-122103467D01*
G75*
G02*
X184136164Y-122103467I-17678J17678D01*
G01*
G37*
G36*
G01*
X184489717Y-122457020D02*
X184291727Y-122259030D01*
G75*
G02*
X184291727Y-122223674I17678J17678D01*
G01*
X185352387Y-121163014D01*
G75*
G02*
X185387743Y-121163014I17678J-17678D01*
G01*
X185585733Y-121361004D01*
G75*
G02*
X185585733Y-121396360I-17678J-17678D01*
G01*
X184525073Y-122457020D01*
G75*
G02*
X184489717Y-122457020I-17678J17678D01*
G01*
G37*
G36*
G01*
X184843271Y-122810574D02*
X184645281Y-122612584D01*
G75*
G02*
X184645281Y-122577228I17678J17678D01*
G01*
X185705941Y-121516568D01*
G75*
G02*
X185741297Y-121516568I17678J-17678D01*
G01*
X185939287Y-121714558D01*
G75*
G02*
X185939287Y-121749914I-17678J-17678D01*
G01*
X184878627Y-122810574D01*
G75*
G02*
X184843271Y-122810574I-17678J17678D01*
G01*
G37*
G36*
G01*
X185196824Y-123164127D02*
X184998834Y-122966137D01*
G75*
G02*
X184998834Y-122930781I17678J17678D01*
G01*
X186059494Y-121870121D01*
G75*
G02*
X186094850Y-121870121I17678J-17678D01*
G01*
X186292840Y-122068111D01*
G75*
G02*
X186292840Y-122103467I-17678J-17678D01*
G01*
X185232180Y-123164127D01*
G75*
G02*
X185196824Y-123164127I-17678J17678D01*
G01*
G37*
G36*
G01*
X185550377Y-123517680D02*
X185352387Y-123319690D01*
G75*
G02*
X185352387Y-123284334I17678J17678D01*
G01*
X186413047Y-122223674D01*
G75*
G02*
X186448403Y-122223674I17678J-17678D01*
G01*
X186646393Y-122421664D01*
G75*
G02*
X186646393Y-122457020I-17678J-17678D01*
G01*
X185585733Y-123517680D01*
G75*
G02*
X185550377Y-123517680I-17678J17678D01*
G01*
G37*
G36*
G01*
X185903931Y-123871234D02*
X185705941Y-123673244D01*
G75*
G02*
X185705941Y-123637888I17678J17678D01*
G01*
X186766601Y-122577228D01*
G75*
G02*
X186801957Y-122577228I17678J-17678D01*
G01*
X186999947Y-122775218D01*
G75*
G02*
X186999947Y-122810574I-17678J-17678D01*
G01*
X185939287Y-123871234D01*
G75*
G02*
X185903931Y-123871234I-17678J17678D01*
G01*
G37*
G36*
G01*
X186257484Y-124224787D02*
X186059494Y-124026797D01*
G75*
G02*
X186059494Y-123991441I17678J17678D01*
G01*
X187120154Y-122930781D01*
G75*
G02*
X187155510Y-122930781I17678J-17678D01*
G01*
X187353500Y-123128771D01*
G75*
G02*
X187353500Y-123164127I-17678J-17678D01*
G01*
X186292840Y-124224787D01*
G75*
G02*
X186257484Y-124224787I-17678J17678D01*
G01*
G37*
G36*
G01*
X188746500Y-123128771D02*
X188944490Y-122930781D01*
G75*
G02*
X188979846Y-122930781I17678J-17678D01*
G01*
X190040506Y-123991441D01*
G75*
G02*
X190040506Y-124026797I-17678J-17678D01*
G01*
X189842516Y-124224787D01*
G75*
G02*
X189807160Y-124224787I-17678J17678D01*
G01*
X188746500Y-123164127D01*
G75*
G02*
X188746500Y-123128771I17678J17678D01*
G01*
G37*
G36*
G01*
X189100053Y-122775218D02*
X189298043Y-122577228D01*
G75*
G02*
X189333399Y-122577228I17678J-17678D01*
G01*
X190394059Y-123637888D01*
G75*
G02*
X190394059Y-123673244I-17678J-17678D01*
G01*
X190196069Y-123871234D01*
G75*
G02*
X190160713Y-123871234I-17678J17678D01*
G01*
X189100053Y-122810574D01*
G75*
G02*
X189100053Y-122775218I17678J17678D01*
G01*
G37*
G36*
G01*
X189453607Y-122421664D02*
X189651597Y-122223674D01*
G75*
G02*
X189686953Y-122223674I17678J-17678D01*
G01*
X190747613Y-123284334D01*
G75*
G02*
X190747613Y-123319690I-17678J-17678D01*
G01*
X190549623Y-123517680D01*
G75*
G02*
X190514267Y-123517680I-17678J17678D01*
G01*
X189453607Y-122457020D01*
G75*
G02*
X189453607Y-122421664I17678J17678D01*
G01*
G37*
G36*
G01*
X189807160Y-122068111D02*
X190005150Y-121870121D01*
G75*
G02*
X190040506Y-121870121I17678J-17678D01*
G01*
X191101166Y-122930781D01*
G75*
G02*
X191101166Y-122966137I-17678J-17678D01*
G01*
X190903176Y-123164127D01*
G75*
G02*
X190867820Y-123164127I-17678J17678D01*
G01*
X189807160Y-122103467D01*
G75*
G02*
X189807160Y-122068111I17678J17678D01*
G01*
G37*
G36*
G01*
X190160713Y-121714558D02*
X190358703Y-121516568D01*
G75*
G02*
X190394059Y-121516568I17678J-17678D01*
G01*
X191454719Y-122577228D01*
G75*
G02*
X191454719Y-122612584I-17678J-17678D01*
G01*
X191256729Y-122810574D01*
G75*
G02*
X191221373Y-122810574I-17678J17678D01*
G01*
X190160713Y-121749914D01*
G75*
G02*
X190160713Y-121714558I17678J17678D01*
G01*
G37*
G36*
G01*
X190514267Y-121361004D02*
X190712257Y-121163014D01*
G75*
G02*
X190747613Y-121163014I17678J-17678D01*
G01*
X191808273Y-122223674D01*
G75*
G02*
X191808273Y-122259030I-17678J-17678D01*
G01*
X191610283Y-122457020D01*
G75*
G02*
X191574927Y-122457020I-17678J17678D01*
G01*
X190514267Y-121396360D01*
G75*
G02*
X190514267Y-121361004I17678J17678D01*
G01*
G37*
G36*
G01*
X190867820Y-121007451D02*
X191065810Y-120809461D01*
G75*
G02*
X191101166Y-120809461I17678J-17678D01*
G01*
X192161826Y-121870121D01*
G75*
G02*
X192161826Y-121905477I-17678J-17678D01*
G01*
X191963836Y-122103467D01*
G75*
G02*
X191928480Y-122103467I-17678J17678D01*
G01*
X190867820Y-121042807D01*
G75*
G02*
X190867820Y-121007451I17678J17678D01*
G01*
G37*
G36*
G01*
X191221374Y-120653898D02*
X191419364Y-120455908D01*
G75*
G02*
X191454720Y-120455908I17678J-17678D01*
G01*
X192515380Y-121516568D01*
G75*
G02*
X192515380Y-121551924I-17678J-17678D01*
G01*
X192317390Y-121749914D01*
G75*
G02*
X192282034Y-121749914I-17678J17678D01*
G01*
X191221374Y-120689254D01*
G75*
G02*
X191221374Y-120653898I17678J17678D01*
G01*
G37*
G36*
G01*
X191574927Y-120300344D02*
X191772917Y-120102354D01*
G75*
G02*
X191808273Y-120102354I17678J-17678D01*
G01*
X192868933Y-121163014D01*
G75*
G02*
X192868933Y-121198370I-17678J-17678D01*
G01*
X192670943Y-121396360D01*
G75*
G02*
X192635587Y-121396360I-17678J17678D01*
G01*
X191574927Y-120335700D01*
G75*
G02*
X191574927Y-120300344I17678J17678D01*
G01*
G37*
G36*
G01*
X191928480Y-119946791D02*
X192126470Y-119748801D01*
G75*
G02*
X192161826Y-119748801I17678J-17678D01*
G01*
X193222486Y-120809461D01*
G75*
G02*
X193222486Y-120844817I-17678J-17678D01*
G01*
X193024496Y-121042807D01*
G75*
G02*
X192989140Y-121042807I-17678J17678D01*
G01*
X191928480Y-119982147D01*
G75*
G02*
X191928480Y-119946791I17678J17678D01*
G01*
G37*
G36*
G01*
X192282034Y-119593237D02*
X192480024Y-119395247D01*
G75*
G02*
X192515380Y-119395247I17678J-17678D01*
G01*
X193576040Y-120455907D01*
G75*
G02*
X193576040Y-120491263I-17678J-17678D01*
G01*
X193378050Y-120689253D01*
G75*
G02*
X193342694Y-120689253I-17678J17678D01*
G01*
X192282034Y-119628593D01*
G75*
G02*
X192282034Y-119593237I17678J17678D01*
G01*
G37*
G36*
G01*
X192635587Y-119239684D02*
X192833577Y-119041694D01*
G75*
G02*
X192868933Y-119041694I17678J-17678D01*
G01*
X193929593Y-120102354D01*
G75*
G02*
X193929593Y-120137710I-17678J-17678D01*
G01*
X193731603Y-120335700D01*
G75*
G02*
X193696247Y-120335700I-17678J17678D01*
G01*
X192635587Y-119275040D01*
G75*
G02*
X192635587Y-119239684I17678J17678D01*
G01*
G37*
G36*
G01*
X192989141Y-118886131D02*
X193187131Y-118688141D01*
G75*
G02*
X193222487Y-118688141I17678J-17678D01*
G01*
X194283147Y-119748801D01*
G75*
G02*
X194283147Y-119784157I-17678J-17678D01*
G01*
X194085157Y-119982147D01*
G75*
G02*
X194049801Y-119982147I-17678J17678D01*
G01*
X192989141Y-118921487D01*
G75*
G02*
X192989141Y-118886131I17678J17678D01*
G01*
G37*
G36*
G01*
X193342694Y-118532577D02*
X193540684Y-118334587D01*
G75*
G02*
X193576040Y-118334587I17678J-17678D01*
G01*
X194636700Y-119395247D01*
G75*
G02*
X194636700Y-119430603I-17678J-17678D01*
G01*
X194438710Y-119628593D01*
G75*
G02*
X194403354Y-119628593I-17678J17678D01*
G01*
X193342694Y-118567933D01*
G75*
G02*
X193342694Y-118532577I17678J17678D01*
G01*
G37*
G36*
G01*
X193696247Y-118179024D02*
X193894237Y-117981034D01*
G75*
G02*
X193929593Y-117981034I17678J-17678D01*
G01*
X194990253Y-119041694D01*
G75*
G02*
X194990253Y-119077050I-17678J-17678D01*
G01*
X194792263Y-119275040D01*
G75*
G02*
X194756907Y-119275040I-17678J17678D01*
G01*
X193696247Y-118214380D01*
G75*
G02*
X193696247Y-118179024I17678J17678D01*
G01*
G37*
G36*
G01*
X194049801Y-117825470D02*
X194247791Y-117627480D01*
G75*
G02*
X194283147Y-117627480I17678J-17678D01*
G01*
X195343807Y-118688140D01*
G75*
G02*
X195343807Y-118723496I-17678J-17678D01*
G01*
X195145817Y-118921486D01*
G75*
G02*
X195110461Y-118921486I-17678J17678D01*
G01*
X194049801Y-117860826D01*
G75*
G02*
X194049801Y-117825470I17678J17678D01*
G01*
G37*
G36*
G01*
X194403354Y-117471917D02*
X194601344Y-117273927D01*
G75*
G02*
X194636700Y-117273927I17678J-17678D01*
G01*
X195697360Y-118334587D01*
G75*
G02*
X195697360Y-118369943I-17678J-17678D01*
G01*
X195499370Y-118567933D01*
G75*
G02*
X195464014Y-118567933I-17678J17678D01*
G01*
X194403354Y-117507273D01*
G75*
G02*
X194403354Y-117471917I17678J17678D01*
G01*
G37*
G36*
G01*
X194756908Y-117118364D02*
X194954898Y-116920374D01*
G75*
G02*
X194990254Y-116920374I17678J-17678D01*
G01*
X196050914Y-117981034D01*
G75*
G02*
X196050914Y-118016390I-17678J-17678D01*
G01*
X195852924Y-118214380D01*
G75*
G02*
X195817568Y-118214380I-17678J17678D01*
G01*
X194756908Y-117153720D01*
G75*
G02*
X194756908Y-117118364I17678J17678D01*
G01*
G37*
G36*
G01*
X195110461Y-116764810D02*
X195308451Y-116566820D01*
G75*
G02*
X195343807Y-116566820I17678J-17678D01*
G01*
X196404467Y-117627480D01*
G75*
G02*
X196404467Y-117662836I-17678J-17678D01*
G01*
X196206477Y-117860826D01*
G75*
G02*
X196171121Y-117860826I-17678J17678D01*
G01*
X195110461Y-116800166D01*
G75*
G02*
X195110461Y-116764810I17678J17678D01*
G01*
G37*
G36*
G01*
X195464014Y-116411257D02*
X195662004Y-116213267D01*
G75*
G02*
X195697360Y-116213267I17678J-17678D01*
G01*
X196758020Y-117273927D01*
G75*
G02*
X196758020Y-117309283I-17678J-17678D01*
G01*
X196560030Y-117507273D01*
G75*
G02*
X196524674Y-117507273I-17678J17678D01*
G01*
X195464014Y-116446613D01*
G75*
G02*
X195464014Y-116411257I17678J17678D01*
G01*
G37*
G36*
G01*
X195817568Y-116057703D02*
X196015558Y-115859713D01*
G75*
G02*
X196050914Y-115859713I17678J-17678D01*
G01*
X197111574Y-116920373D01*
G75*
G02*
X197111574Y-116955729I-17678J-17678D01*
G01*
X196913584Y-117153719D01*
G75*
G02*
X196878228Y-117153719I-17678J17678D01*
G01*
X195817568Y-116093059D01*
G75*
G02*
X195817568Y-116057703I17678J17678D01*
G01*
G37*
G36*
G01*
X196171121Y-115704150D02*
X196369111Y-115506160D01*
G75*
G02*
X196404467Y-115506160I17678J-17678D01*
G01*
X197465127Y-116566820D01*
G75*
G02*
X197465127Y-116602176I-17678J-17678D01*
G01*
X197267137Y-116800166D01*
G75*
G02*
X197231781Y-116800166I-17678J17678D01*
G01*
X196171121Y-115739506D01*
G75*
G02*
X196171121Y-115704150I17678J17678D01*
G01*
G37*
G36*
G01*
X196524674Y-115350597D02*
X196722664Y-115152607D01*
G75*
G02*
X196758020Y-115152607I17678J-17678D01*
G01*
X197818680Y-116213267D01*
G75*
G02*
X197818680Y-116248623I-17678J-17678D01*
G01*
X197620690Y-116446613D01*
G75*
G02*
X197585334Y-116446613I-17678J17678D01*
G01*
X196524674Y-115385953D01*
G75*
G02*
X196524674Y-115350597I17678J17678D01*
G01*
G37*
G36*
G01*
X196878228Y-114997043D02*
X197076218Y-114799053D01*
G75*
G02*
X197111574Y-114799053I17678J-17678D01*
G01*
X198172234Y-115859713D01*
G75*
G02*
X198172234Y-115895069I-17678J-17678D01*
G01*
X197974244Y-116093059D01*
G75*
G02*
X197938888Y-116093059I-17678J17678D01*
G01*
X196878228Y-115032399D01*
G75*
G02*
X196878228Y-114997043I17678J17678D01*
G01*
G37*
G36*
G01*
X197231781Y-114643490D02*
X197429771Y-114445500D01*
G75*
G02*
X197465127Y-114445500I17678J-17678D01*
G01*
X198525787Y-115506160D01*
G75*
G02*
X198525787Y-115541516I-17678J-17678D01*
G01*
X198327797Y-115739506D01*
G75*
G02*
X198292441Y-115739506I-17678J17678D01*
G01*
X197231781Y-114678846D01*
G75*
G02*
X197231781Y-114643490I17678J17678D01*
G01*
G37*
G36*
G01*
X197429771Y-113052500D02*
X197231781Y-112854510D01*
G75*
G02*
X197231781Y-112819154I17678J17678D01*
G01*
X198292441Y-111758494D01*
G75*
G02*
X198327797Y-111758494I17678J-17678D01*
G01*
X198525787Y-111956484D01*
G75*
G02*
X198525787Y-111991840I-17678J-17678D01*
G01*
X197465127Y-113052500D01*
G75*
G02*
X197429771Y-113052500I-17678J17678D01*
G01*
G37*
G36*
G01*
X197076218Y-112698947D02*
X196878228Y-112500957D01*
G75*
G02*
X196878228Y-112465601I17678J17678D01*
G01*
X197938888Y-111404941D01*
G75*
G02*
X197974244Y-111404941I17678J-17678D01*
G01*
X198172234Y-111602931D01*
G75*
G02*
X198172234Y-111638287I-17678J-17678D01*
G01*
X197111574Y-112698947D01*
G75*
G02*
X197076218Y-112698947I-17678J17678D01*
G01*
G37*
G36*
G01*
X196722664Y-112345393D02*
X196524674Y-112147403D01*
G75*
G02*
X196524674Y-112112047I17678J17678D01*
G01*
X197585334Y-111051387D01*
G75*
G02*
X197620690Y-111051387I17678J-17678D01*
G01*
X197818680Y-111249377D01*
G75*
G02*
X197818680Y-111284733I-17678J-17678D01*
G01*
X196758020Y-112345393D01*
G75*
G02*
X196722664Y-112345393I-17678J17678D01*
G01*
G37*
G36*
G01*
X196369111Y-111991840D02*
X196171121Y-111793850D01*
G75*
G02*
X196171121Y-111758494I17678J17678D01*
G01*
X197231781Y-110697834D01*
G75*
G02*
X197267137Y-110697834I17678J-17678D01*
G01*
X197465127Y-110895824D01*
G75*
G02*
X197465127Y-110931180I-17678J-17678D01*
G01*
X196404467Y-111991840D01*
G75*
G02*
X196369111Y-111991840I-17678J17678D01*
G01*
G37*
G36*
G01*
X196015558Y-111638287D02*
X195817568Y-111440297D01*
G75*
G02*
X195817568Y-111404941I17678J17678D01*
G01*
X196878228Y-110344281D01*
G75*
G02*
X196913584Y-110344281I17678J-17678D01*
G01*
X197111574Y-110542271D01*
G75*
G02*
X197111574Y-110577627I-17678J-17678D01*
G01*
X196050914Y-111638287D01*
G75*
G02*
X196015558Y-111638287I-17678J17678D01*
G01*
G37*
G36*
G01*
X195662004Y-111284733D02*
X195464014Y-111086743D01*
G75*
G02*
X195464014Y-111051387I17678J17678D01*
G01*
X196524674Y-109990727D01*
G75*
G02*
X196560030Y-109990727I17678J-17678D01*
G01*
X196758020Y-110188717D01*
G75*
G02*
X196758020Y-110224073I-17678J-17678D01*
G01*
X195697360Y-111284733D01*
G75*
G02*
X195662004Y-111284733I-17678J17678D01*
G01*
G37*
G36*
G01*
X195308451Y-110931180D02*
X195110461Y-110733190D01*
G75*
G02*
X195110461Y-110697834I17678J17678D01*
G01*
X196171121Y-109637174D01*
G75*
G02*
X196206477Y-109637174I17678J-17678D01*
G01*
X196404467Y-109835164D01*
G75*
G02*
X196404467Y-109870520I-17678J-17678D01*
G01*
X195343807Y-110931180D01*
G75*
G02*
X195308451Y-110931180I-17678J17678D01*
G01*
G37*
G36*
G01*
X194954898Y-110577626D02*
X194756908Y-110379636D01*
G75*
G02*
X194756908Y-110344280I17678J17678D01*
G01*
X195817568Y-109283620D01*
G75*
G02*
X195852924Y-109283620I17678J-17678D01*
G01*
X196050914Y-109481610D01*
G75*
G02*
X196050914Y-109516966I-17678J-17678D01*
G01*
X194990254Y-110577626D01*
G75*
G02*
X194954898Y-110577626I-17678J17678D01*
G01*
G37*
G36*
G01*
X194601344Y-110224073D02*
X194403354Y-110026083D01*
G75*
G02*
X194403354Y-109990727I17678J17678D01*
G01*
X195464014Y-108930067D01*
G75*
G02*
X195499370Y-108930067I17678J-17678D01*
G01*
X195697360Y-109128057D01*
G75*
G02*
X195697360Y-109163413I-17678J-17678D01*
G01*
X194636700Y-110224073D01*
G75*
G02*
X194601344Y-110224073I-17678J17678D01*
G01*
G37*
G36*
G01*
X194247791Y-109870520D02*
X194049801Y-109672530D01*
G75*
G02*
X194049801Y-109637174I17678J17678D01*
G01*
X195110461Y-108576514D01*
G75*
G02*
X195145817Y-108576514I17678J-17678D01*
G01*
X195343807Y-108774504D01*
G75*
G02*
X195343807Y-108809860I-17678J-17678D01*
G01*
X194283147Y-109870520D01*
G75*
G02*
X194247791Y-109870520I-17678J17678D01*
G01*
G37*
G36*
G01*
X193894237Y-109516966D02*
X193696247Y-109318976D01*
G75*
G02*
X193696247Y-109283620I17678J17678D01*
G01*
X194756907Y-108222960D01*
G75*
G02*
X194792263Y-108222960I17678J-17678D01*
G01*
X194990253Y-108420950D01*
G75*
G02*
X194990253Y-108456306I-17678J-17678D01*
G01*
X193929593Y-109516966D01*
G75*
G02*
X193894237Y-109516966I-17678J17678D01*
G01*
G37*
G36*
G01*
X193540684Y-109163413D02*
X193342694Y-108965423D01*
G75*
G02*
X193342694Y-108930067I17678J17678D01*
G01*
X194403354Y-107869407D01*
G75*
G02*
X194438710Y-107869407I17678J-17678D01*
G01*
X194636700Y-108067397D01*
G75*
G02*
X194636700Y-108102753I-17678J-17678D01*
G01*
X193576040Y-109163413D01*
G75*
G02*
X193540684Y-109163413I-17678J17678D01*
G01*
G37*
G36*
G01*
X193187131Y-108809859D02*
X192989141Y-108611869D01*
G75*
G02*
X192989141Y-108576513I17678J17678D01*
G01*
X194049801Y-107515853D01*
G75*
G02*
X194085157Y-107515853I17678J-17678D01*
G01*
X194283147Y-107713843D01*
G75*
G02*
X194283147Y-107749199I-17678J-17678D01*
G01*
X193222487Y-108809859D01*
G75*
G02*
X193187131Y-108809859I-17678J17678D01*
G01*
G37*
G36*
G01*
X192833577Y-108456306D02*
X192635587Y-108258316D01*
G75*
G02*
X192635587Y-108222960I17678J17678D01*
G01*
X193696247Y-107162300D01*
G75*
G02*
X193731603Y-107162300I17678J-17678D01*
G01*
X193929593Y-107360290D01*
G75*
G02*
X193929593Y-107395646I-17678J-17678D01*
G01*
X192868933Y-108456306D01*
G75*
G02*
X192833577Y-108456306I-17678J17678D01*
G01*
G37*
G36*
G01*
X192480024Y-108102753D02*
X192282034Y-107904763D01*
G75*
G02*
X192282034Y-107869407I17678J17678D01*
G01*
X193342694Y-106808747D01*
G75*
G02*
X193378050Y-106808747I17678J-17678D01*
G01*
X193576040Y-107006737D01*
G75*
G02*
X193576040Y-107042093I-17678J-17678D01*
G01*
X192515380Y-108102753D01*
G75*
G02*
X192480024Y-108102753I-17678J17678D01*
G01*
G37*
G36*
G01*
X192126470Y-107749199D02*
X191928480Y-107551209D01*
G75*
G02*
X191928480Y-107515853I17678J17678D01*
G01*
X192989140Y-106455193D01*
G75*
G02*
X193024496Y-106455193I17678J-17678D01*
G01*
X193222486Y-106653183D01*
G75*
G02*
X193222486Y-106688539I-17678J-17678D01*
G01*
X192161826Y-107749199D01*
G75*
G02*
X192126470Y-107749199I-17678J17678D01*
G01*
G37*
G36*
G01*
X191772917Y-107395646D02*
X191574927Y-107197656D01*
G75*
G02*
X191574927Y-107162300I17678J17678D01*
G01*
X192635587Y-106101640D01*
G75*
G02*
X192670943Y-106101640I17678J-17678D01*
G01*
X192868933Y-106299630D01*
G75*
G02*
X192868933Y-106334986I-17678J-17678D01*
G01*
X191808273Y-107395646D01*
G75*
G02*
X191772917Y-107395646I-17678J17678D01*
G01*
G37*
G36*
G01*
X191419364Y-107042092D02*
X191221374Y-106844102D01*
G75*
G02*
X191221374Y-106808746I17678J17678D01*
G01*
X192282034Y-105748086D01*
G75*
G02*
X192317390Y-105748086I17678J-17678D01*
G01*
X192515380Y-105946076D01*
G75*
G02*
X192515380Y-105981432I-17678J-17678D01*
G01*
X191454720Y-107042092D01*
G75*
G02*
X191419364Y-107042092I-17678J17678D01*
G01*
G37*
G36*
G01*
X191065810Y-106688539D02*
X190867820Y-106490549D01*
G75*
G02*
X190867820Y-106455193I17678J17678D01*
G01*
X191928480Y-105394533D01*
G75*
G02*
X191963836Y-105394533I17678J-17678D01*
G01*
X192161826Y-105592523D01*
G75*
G02*
X192161826Y-105627879I-17678J-17678D01*
G01*
X191101166Y-106688539D01*
G75*
G02*
X191065810Y-106688539I-17678J17678D01*
G01*
G37*
G36*
G01*
X190712257Y-106334986D02*
X190514267Y-106136996D01*
G75*
G02*
X190514267Y-106101640I17678J17678D01*
G01*
X191574927Y-105040980D01*
G75*
G02*
X191610283Y-105040980I17678J-17678D01*
G01*
X191808273Y-105238970D01*
G75*
G02*
X191808273Y-105274326I-17678J-17678D01*
G01*
X190747613Y-106334986D01*
G75*
G02*
X190712257Y-106334986I-17678J17678D01*
G01*
G37*
G36*
G01*
X190358703Y-105981432D02*
X190160713Y-105783442D01*
G75*
G02*
X190160713Y-105748086I17678J17678D01*
G01*
X191221373Y-104687426D01*
G75*
G02*
X191256729Y-104687426I17678J-17678D01*
G01*
X191454719Y-104885416D01*
G75*
G02*
X191454719Y-104920772I-17678J-17678D01*
G01*
X190394059Y-105981432D01*
G75*
G02*
X190358703Y-105981432I-17678J17678D01*
G01*
G37*
G36*
G01*
X190005150Y-105627879D02*
X189807160Y-105429889D01*
G75*
G02*
X189807160Y-105394533I17678J17678D01*
G01*
X190867820Y-104333873D01*
G75*
G02*
X190903176Y-104333873I17678J-17678D01*
G01*
X191101166Y-104531863D01*
G75*
G02*
X191101166Y-104567219I-17678J-17678D01*
G01*
X190040506Y-105627879D01*
G75*
G02*
X190005150Y-105627879I-17678J17678D01*
G01*
G37*
G36*
G01*
X189651597Y-105274326D02*
X189453607Y-105076336D01*
G75*
G02*
X189453607Y-105040980I17678J17678D01*
G01*
X190514267Y-103980320D01*
G75*
G02*
X190549623Y-103980320I17678J-17678D01*
G01*
X190747613Y-104178310D01*
G75*
G02*
X190747613Y-104213666I-17678J-17678D01*
G01*
X189686953Y-105274326D01*
G75*
G02*
X189651597Y-105274326I-17678J17678D01*
G01*
G37*
G36*
G01*
X189298043Y-104920772D02*
X189100053Y-104722782D01*
G75*
G02*
X189100053Y-104687426I17678J17678D01*
G01*
X190160713Y-103626766D01*
G75*
G02*
X190196069Y-103626766I17678J-17678D01*
G01*
X190394059Y-103824756D01*
G75*
G02*
X190394059Y-103860112I-17678J-17678D01*
G01*
X189333399Y-104920772D01*
G75*
G02*
X189298043Y-104920772I-17678J17678D01*
G01*
G37*
G36*
G01*
X188944490Y-104567219D02*
X188746500Y-104369229D01*
G75*
G02*
X188746500Y-104333873I17678J17678D01*
G01*
X189807160Y-103273213D01*
G75*
G02*
X189842516Y-103273213I17678J-17678D01*
G01*
X190040506Y-103471203D01*
G75*
G02*
X190040506Y-103506559I-17678J-17678D01*
G01*
X188979846Y-104567219D01*
G75*
G02*
X188944490Y-104567219I-17678J17678D01*
G01*
G37*
%TD*%
D11*
%TO.C,J4*%
X214901780Y-106990000D03*
X214901780Y-105990000D03*
G36*
G01*
X214451780Y-105415000D02*
X214451780Y-104565000D01*
G75*
G02*
X214476780Y-104540000I25000J0D01*
G01*
X215326780Y-104540000D01*
G75*
G02*
X215351780Y-104565000I0J-25000D01*
G01*
X215351780Y-105415000D01*
G75*
G02*
X215326780Y-105440000I-25000J0D01*
G01*
X214476780Y-105440000D01*
G75*
G02*
X214451780Y-105415000I0J25000D01*
G01*
G37*
%TD*%
%TO.C,U7*%
G36*
G01*
X211745000Y-110800000D02*
X211145000Y-110800000D01*
G75*
G02*
X211120000Y-110775000I0J25000D01*
G01*
X211120000Y-109225000D01*
G75*
G02*
X211145000Y-109200000I25000J0D01*
G01*
X211745000Y-109200000D01*
G75*
G02*
X211770000Y-109225000I0J-25000D01*
G01*
X211770000Y-110775000D01*
G75*
G02*
X211745000Y-110800000I-25000J0D01*
G01*
G37*
G36*
G01*
X213015000Y-110800000D02*
X212415000Y-110800000D01*
G75*
G02*
X212390000Y-110775000I0J25000D01*
G01*
X212390000Y-109225000D01*
G75*
G02*
X212415000Y-109200000I25000J0D01*
G01*
X213015000Y-109200000D01*
G75*
G02*
X213040000Y-109225000I0J-25000D01*
G01*
X213040000Y-110775000D01*
G75*
G02*
X213015000Y-110800000I-25000J0D01*
G01*
G37*
G36*
G01*
X214285000Y-110800000D02*
X213685000Y-110800000D01*
G75*
G02*
X213660000Y-110775000I0J25000D01*
G01*
X213660000Y-109225000D01*
G75*
G02*
X213685000Y-109200000I25000J0D01*
G01*
X214285000Y-109200000D01*
G75*
G02*
X214310000Y-109225000I0J-25000D01*
G01*
X214310000Y-110775000D01*
G75*
G02*
X214285000Y-110800000I-25000J0D01*
G01*
G37*
G36*
G01*
X215555000Y-110800000D02*
X214955000Y-110800000D01*
G75*
G02*
X214930000Y-110775000I0J25000D01*
G01*
X214930000Y-109225000D01*
G75*
G02*
X214955000Y-109200000I25000J0D01*
G01*
X215555000Y-109200000D01*
G75*
G02*
X215580000Y-109225000I0J-25000D01*
G01*
X215580000Y-110775000D01*
G75*
G02*
X215555000Y-110800000I-25000J0D01*
G01*
G37*
G36*
G01*
X215555000Y-116200000D02*
X214955000Y-116200000D01*
G75*
G02*
X214930000Y-116175000I0J25000D01*
G01*
X214930000Y-114625000D01*
G75*
G02*
X214955000Y-114600000I25000J0D01*
G01*
X215555000Y-114600000D01*
G75*
G02*
X215580000Y-114625000I0J-25000D01*
G01*
X215580000Y-116175000D01*
G75*
G02*
X215555000Y-116200000I-25000J0D01*
G01*
G37*
G36*
G01*
X214285000Y-116200000D02*
X213685000Y-116200000D01*
G75*
G02*
X213660000Y-116175000I0J25000D01*
G01*
X213660000Y-114625000D01*
G75*
G02*
X213685000Y-114600000I25000J0D01*
G01*
X214285000Y-114600000D01*
G75*
G02*
X214310000Y-114625000I0J-25000D01*
G01*
X214310000Y-116175000D01*
G75*
G02*
X214285000Y-116200000I-25000J0D01*
G01*
G37*
G36*
G01*
X213015000Y-116200000D02*
X212415000Y-116200000D01*
G75*
G02*
X212390000Y-116175000I0J25000D01*
G01*
X212390000Y-114625000D01*
G75*
G02*
X212415000Y-114600000I25000J0D01*
G01*
X213015000Y-114600000D01*
G75*
G02*
X213040000Y-114625000I0J-25000D01*
G01*
X213040000Y-116175000D01*
G75*
G02*
X213015000Y-116200000I-25000J0D01*
G01*
G37*
G36*
G01*
X211745000Y-116200000D02*
X211145000Y-116200000D01*
G75*
G02*
X211120000Y-116175000I0J25000D01*
G01*
X211120000Y-114625000D01*
G75*
G02*
X211145000Y-114600000I25000J0D01*
G01*
X211745000Y-114600000D01*
G75*
G02*
X211770000Y-114625000I0J-25000D01*
G01*
X211770000Y-116175000D01*
G75*
G02*
X211745000Y-116200000I-25000J0D01*
G01*
G37*
%TD*%
%TO.C,R1*%
G36*
G01*
X190647488Y-125214142D02*
X190385858Y-124952512D01*
G75*
G02*
X190385858Y-124726238I113137J113137D01*
G01*
X190612132Y-124499964D01*
G75*
G02*
X190838406Y-124499964I113137J-113137D01*
G01*
X191100036Y-124761594D01*
G75*
G02*
X191100036Y-124987868I-113137J-113137D01*
G01*
X190873762Y-125214142D01*
G75*
G02*
X190647488Y-125214142I-113137J113137D01*
G01*
G37*
G36*
G01*
X189961594Y-125900036D02*
X189699964Y-125638406D01*
G75*
G02*
X189699964Y-125412132I113137J113137D01*
G01*
X189926238Y-125185858D01*
G75*
G02*
X190152512Y-125185858I113137J-113137D01*
G01*
X190414142Y-125447488D01*
G75*
G02*
X190414142Y-125673762I-113137J-113137D01*
G01*
X190187868Y-125900036D01*
G75*
G02*
X189961594Y-125900036I-113137J113137D01*
G01*
G37*
%TD*%
%TO.C,J2*%
G36*
G01*
X180800000Y-98610000D02*
X180800000Y-97870000D01*
G75*
G02*
X180825000Y-97845000I25000J0D01*
G01*
X183225000Y-97845000D01*
G75*
G02*
X183250000Y-97870000I0J-25000D01*
G01*
X183250000Y-98610000D01*
G75*
G02*
X183225000Y-98635000I-25000J0D01*
G01*
X180825000Y-98635000D01*
G75*
G02*
X180800000Y-98610000I0J25000D01*
G01*
G37*
G36*
G01*
X176900000Y-98610000D02*
X176900000Y-97870000D01*
G75*
G02*
X176925000Y-97845000I25000J0D01*
G01*
X179325000Y-97845000D01*
G75*
G02*
X179350000Y-97870000I0J-25000D01*
G01*
X179350000Y-98610000D01*
G75*
G02*
X179325000Y-98635000I-25000J0D01*
G01*
X176925000Y-98635000D01*
G75*
G02*
X176900000Y-98610000I0J25000D01*
G01*
G37*
G36*
G01*
X180800000Y-97340000D02*
X180800000Y-96600000D01*
G75*
G02*
X180825000Y-96575000I25000J0D01*
G01*
X183225000Y-96575000D01*
G75*
G02*
X183250000Y-96600000I0J-25000D01*
G01*
X183250000Y-97340000D01*
G75*
G02*
X183225000Y-97365000I-25000J0D01*
G01*
X180825000Y-97365000D01*
G75*
G02*
X180800000Y-97340000I0J25000D01*
G01*
G37*
G36*
G01*
X176900000Y-97340000D02*
X176900000Y-96600000D01*
G75*
G02*
X176925000Y-96575000I25000J0D01*
G01*
X179325000Y-96575000D01*
G75*
G02*
X179350000Y-96600000I0J-25000D01*
G01*
X179350000Y-97340000D01*
G75*
G02*
X179325000Y-97365000I-25000J0D01*
G01*
X176925000Y-97365000D01*
G75*
G02*
X176900000Y-97340000I0J25000D01*
G01*
G37*
G36*
G01*
X180800000Y-96070000D02*
X180800000Y-95330000D01*
G75*
G02*
X180825000Y-95305000I25000J0D01*
G01*
X183225000Y-95305000D01*
G75*
G02*
X183250000Y-95330000I0J-25000D01*
G01*
X183250000Y-96070000D01*
G75*
G02*
X183225000Y-96095000I-25000J0D01*
G01*
X180825000Y-96095000D01*
G75*
G02*
X180800000Y-96070000I0J25000D01*
G01*
G37*
G36*
G01*
X176900000Y-96070000D02*
X176900000Y-95330000D01*
G75*
G02*
X176925000Y-95305000I25000J0D01*
G01*
X179325000Y-95305000D01*
G75*
G02*
X179350000Y-95330000I0J-25000D01*
G01*
X179350000Y-96070000D01*
G75*
G02*
X179325000Y-96095000I-25000J0D01*
G01*
X176925000Y-96095000D01*
G75*
G02*
X176900000Y-96070000I0J25000D01*
G01*
G37*
G36*
G01*
X180800000Y-94800000D02*
X180800000Y-94060000D01*
G75*
G02*
X180825000Y-94035000I25000J0D01*
G01*
X183225000Y-94035000D01*
G75*
G02*
X183250000Y-94060000I0J-25000D01*
G01*
X183250000Y-94800000D01*
G75*
G02*
X183225000Y-94825000I-25000J0D01*
G01*
X180825000Y-94825000D01*
G75*
G02*
X180800000Y-94800000I0J25000D01*
G01*
G37*
G36*
G01*
X176900000Y-94800000D02*
X176900000Y-94060000D01*
G75*
G02*
X176925000Y-94035000I25000J0D01*
G01*
X179325000Y-94035000D01*
G75*
G02*
X179350000Y-94060000I0J-25000D01*
G01*
X179350000Y-94800000D01*
G75*
G02*
X179325000Y-94825000I-25000J0D01*
G01*
X176925000Y-94825000D01*
G75*
G02*
X176900000Y-94800000I0J25000D01*
G01*
G37*
G36*
G01*
X180800000Y-93530000D02*
X180800000Y-92790000D01*
G75*
G02*
X180825000Y-92765000I25000J0D01*
G01*
X183225000Y-92765000D01*
G75*
G02*
X183250000Y-92790000I0J-25000D01*
G01*
X183250000Y-93530000D01*
G75*
G02*
X183225000Y-93555000I-25000J0D01*
G01*
X180825000Y-93555000D01*
G75*
G02*
X180800000Y-93530000I0J25000D01*
G01*
G37*
G36*
G01*
X176900000Y-93530000D02*
X176900000Y-92790000D01*
G75*
G02*
X176925000Y-92765000I25000J0D01*
G01*
X179325000Y-92765000D01*
G75*
G02*
X179350000Y-92790000I0J-25000D01*
G01*
X179350000Y-93530000D01*
G75*
G02*
X179325000Y-93555000I-25000J0D01*
G01*
X176925000Y-93555000D01*
G75*
G02*
X176900000Y-93530000I0J25000D01*
G01*
G37*
%TD*%
%TO.C,Y1*%
G36*
G01*
X180309834Y-107565775D02*
X179461306Y-106717247D01*
G75*
G02*
X179461306Y-106681891I17678J17678D01*
G01*
X180451256Y-105691941D01*
G75*
G02*
X180486612Y-105691941I17678J-17678D01*
G01*
X181335140Y-106540469D01*
G75*
G02*
X181335140Y-106575825I-17678J-17678D01*
G01*
X180345190Y-107565775D01*
G75*
G02*
X180309834Y-107565775I-17678J17678D01*
G01*
G37*
G36*
G01*
X181865469Y-106010140D02*
X181016941Y-105161612D01*
G75*
G02*
X181016941Y-105126256I17678J17678D01*
G01*
X182006891Y-104136306D01*
G75*
G02*
X182042247Y-104136306I17678J-17678D01*
G01*
X182890775Y-104984834D01*
G75*
G02*
X182890775Y-105020190I-17678J-17678D01*
G01*
X181900825Y-106010140D01*
G75*
G02*
X181865469Y-106010140I-17678J17678D01*
G01*
G37*
G36*
G01*
X180663388Y-104808059D02*
X179814860Y-103959531D01*
G75*
G02*
X179814860Y-103924175I17678J17678D01*
G01*
X180804810Y-102934225D01*
G75*
G02*
X180840166Y-102934225I17678J-17678D01*
G01*
X181688694Y-103782753D01*
G75*
G02*
X181688694Y-103818109I-17678J-17678D01*
G01*
X180698744Y-104808059D01*
G75*
G02*
X180663388Y-104808059I-17678J17678D01*
G01*
G37*
G36*
G01*
X179107753Y-106363694D02*
X178259225Y-105515166D01*
G75*
G02*
X178259225Y-105479810I17678J17678D01*
G01*
X179249175Y-104489860D01*
G75*
G02*
X179284531Y-104489860I17678J-17678D01*
G01*
X180133059Y-105338388D01*
G75*
G02*
X180133059Y-105373744I-17678J-17678D01*
G01*
X179143109Y-106363694D01*
G75*
G02*
X179107753Y-106363694I-17678J17678D01*
G01*
G37*
%TD*%
D13*
%TO.C,U2*%
X178500000Y-125800000D03*
X178500000Y-126800000D03*
X178500000Y-127800000D03*
X178500000Y-128800000D03*
X178500000Y-129800000D03*
X179500000Y-125800000D03*
X179500000Y-126800000D03*
X179500000Y-127800000D03*
X179500000Y-128800000D03*
X179500000Y-129800000D03*
X180500000Y-125800000D03*
X180500000Y-126800000D03*
X180500000Y-127800000D03*
X180500000Y-128800000D03*
X180500000Y-129800000D03*
X181500000Y-125800000D03*
X181500000Y-126800000D03*
X181500000Y-127800000D03*
X181500000Y-128800000D03*
X181500000Y-129800000D03*
X182500000Y-125800000D03*
X182500000Y-126800000D03*
X182500000Y-127800000D03*
X182500000Y-128800000D03*
%TD*%
%TO.C,R43*%
G36*
G01*
X197915000Y-104365000D02*
X198285000Y-104365000D01*
G75*
G02*
X198445000Y-104525000I0J-160000D01*
G01*
X198445000Y-104845000D01*
G75*
G02*
X198285000Y-105005000I-160000J0D01*
G01*
X197915000Y-105005000D01*
G75*
G02*
X197755000Y-104845000I0J160000D01*
G01*
X197755000Y-104525000D01*
G75*
G02*
X197915000Y-104365000I160000J0D01*
G01*
G37*
G36*
G01*
X197915000Y-103395000D02*
X198285000Y-103395000D01*
G75*
G02*
X198445000Y-103555000I0J-160000D01*
G01*
X198445000Y-103875000D01*
G75*
G02*
X198285000Y-104035000I-160000J0D01*
G01*
X197915000Y-104035000D01*
G75*
G02*
X197755000Y-103875000I0J160000D01*
G01*
X197755000Y-103555000D01*
G75*
G02*
X197915000Y-103395000I160000J0D01*
G01*
G37*
%TD*%
%TO.C,J5*%
G36*
G01*
X213421780Y-122199820D02*
X212571780Y-122199820D01*
G75*
G02*
X212546780Y-122174820I0J25000D01*
G01*
X212546780Y-121324820D01*
G75*
G02*
X212571780Y-121299820I25000J0D01*
G01*
X213421780Y-121299820D01*
G75*
G02*
X213446780Y-121324820I0J-25000D01*
G01*
X213446780Y-122174820D01*
G75*
G02*
X213421780Y-122199820I-25000J0D01*
G01*
G37*
D11*
X213996780Y-121749820D03*
X214996780Y-121749820D03*
%TD*%
%TO.C,C44*%
G36*
G01*
X202712700Y-122341784D02*
X202712700Y-121804284D01*
G75*
G02*
X202943950Y-121573034I231250J0D01*
G01*
X203406450Y-121573034D01*
G75*
G02*
X203637700Y-121804284I0J-231250D01*
G01*
X203637700Y-122341784D01*
G75*
G02*
X203406450Y-122573034I-231250J0D01*
G01*
X202943950Y-122573034D01*
G75*
G02*
X202712700Y-122341784I0J231250D01*
G01*
G37*
G36*
G01*
X204287700Y-122341784D02*
X204287700Y-121804284D01*
G75*
G02*
X204518950Y-121573034I231250J0D01*
G01*
X204981450Y-121573034D01*
G75*
G02*
X205212700Y-121804284I0J-231250D01*
G01*
X205212700Y-122341784D01*
G75*
G02*
X204981450Y-122573034I-231250J0D01*
G01*
X204518950Y-122573034D01*
G75*
G02*
X204287700Y-122341784I0J231250D01*
G01*
G37*
%TD*%
%TO.C,C35*%
G36*
G01*
X204006250Y-132475000D02*
X204543750Y-132475000D01*
G75*
G02*
X204775000Y-132706250I0J-231250D01*
G01*
X204775000Y-133168750D01*
G75*
G02*
X204543750Y-133400000I-231250J0D01*
G01*
X204006250Y-133400000D01*
G75*
G02*
X203775000Y-133168750I0J231250D01*
G01*
X203775000Y-132706250D01*
G75*
G02*
X204006250Y-132475000I231250J0D01*
G01*
G37*
G36*
G01*
X204006250Y-134050000D02*
X204543750Y-134050000D01*
G75*
G02*
X204775000Y-134281250I0J-231250D01*
G01*
X204775000Y-134743750D01*
G75*
G02*
X204543750Y-134975000I-231250J0D01*
G01*
X204006250Y-134975000D01*
G75*
G02*
X203775000Y-134743750I0J231250D01*
G01*
X203775000Y-134281250D01*
G75*
G02*
X204006250Y-134050000I231250J0D01*
G01*
G37*
%TD*%
%TO.C,C16*%
G36*
G01*
X202707700Y-123861784D02*
X202707700Y-123324284D01*
G75*
G02*
X202938950Y-123093034I231250J0D01*
G01*
X203401450Y-123093034D01*
G75*
G02*
X203632700Y-123324284I0J-231250D01*
G01*
X203632700Y-123861784D01*
G75*
G02*
X203401450Y-124093034I-231250J0D01*
G01*
X202938950Y-124093034D01*
G75*
G02*
X202707700Y-123861784I0J231250D01*
G01*
G37*
G36*
G01*
X204282700Y-123861784D02*
X204282700Y-123324284D01*
G75*
G02*
X204513950Y-123093034I231250J0D01*
G01*
X204976450Y-123093034D01*
G75*
G02*
X205207700Y-123324284I0J-231250D01*
G01*
X205207700Y-123861784D01*
G75*
G02*
X204976450Y-124093034I-231250J0D01*
G01*
X204513950Y-124093034D01*
G75*
G02*
X204282700Y-123861784I0J231250D01*
G01*
G37*
%TD*%
%TO.C,C15*%
G36*
G01*
X199197700Y-127351784D02*
X199197700Y-126814284D01*
G75*
G02*
X199428950Y-126583034I231250J0D01*
G01*
X199891450Y-126583034D01*
G75*
G02*
X200122700Y-126814284I0J-231250D01*
G01*
X200122700Y-127351784D01*
G75*
G02*
X199891450Y-127583034I-231250J0D01*
G01*
X199428950Y-127583034D01*
G75*
G02*
X199197700Y-127351784I0J231250D01*
G01*
G37*
G36*
G01*
X200772700Y-127351784D02*
X200772700Y-126814284D01*
G75*
G02*
X201003950Y-126583034I231250J0D01*
G01*
X201466450Y-126583034D01*
G75*
G02*
X201697700Y-126814284I0J-231250D01*
G01*
X201697700Y-127351784D01*
G75*
G02*
X201466450Y-127583034I-231250J0D01*
G01*
X201003950Y-127583034D01*
G75*
G02*
X200772700Y-127351784I0J231250D01*
G01*
G37*
%TD*%
%TO.C,C14*%
G36*
G01*
X209230000Y-123251250D02*
X209230000Y-123788750D01*
G75*
G02*
X208998750Y-124020000I-231250J0D01*
G01*
X208536250Y-124020000D01*
G75*
G02*
X208305000Y-123788750I0J231250D01*
G01*
X208305000Y-123251250D01*
G75*
G02*
X208536250Y-123020000I231250J0D01*
G01*
X208998750Y-123020000D01*
G75*
G02*
X209230000Y-123251250I0J-231250D01*
G01*
G37*
G36*
G01*
X207655000Y-123251250D02*
X207655000Y-123788750D01*
G75*
G02*
X207423750Y-124020000I-231250J0D01*
G01*
X206961250Y-124020000D01*
G75*
G02*
X206730000Y-123788750I0J231250D01*
G01*
X206730000Y-123251250D01*
G75*
G02*
X206961250Y-123020000I231250J0D01*
G01*
X207423750Y-123020000D01*
G75*
G02*
X207655000Y-123251250I0J-231250D01*
G01*
G37*
%TD*%
%TO.C,C12*%
G36*
G01*
X199194967Y-130394450D02*
X199194967Y-129856950D01*
G75*
G02*
X199426217Y-129625700I231250J0D01*
G01*
X199888717Y-129625700D01*
G75*
G02*
X200119967Y-129856950I0J-231250D01*
G01*
X200119967Y-130394450D01*
G75*
G02*
X199888717Y-130625700I-231250J0D01*
G01*
X199426217Y-130625700D01*
G75*
G02*
X199194967Y-130394450I0J231250D01*
G01*
G37*
G36*
G01*
X200769967Y-130394450D02*
X200769967Y-129856950D01*
G75*
G02*
X201001217Y-129625700I231250J0D01*
G01*
X201463717Y-129625700D01*
G75*
G02*
X201694967Y-129856950I0J-231250D01*
G01*
X201694967Y-130394450D01*
G75*
G02*
X201463717Y-130625700I-231250J0D01*
G01*
X201001217Y-130625700D01*
G75*
G02*
X200769967Y-130394450I0J231250D01*
G01*
G37*
%TD*%
%TO.C,C4*%
G36*
G01*
X199194967Y-128874450D02*
X199194967Y-128336950D01*
G75*
G02*
X199426217Y-128105700I231250J0D01*
G01*
X199888717Y-128105700D01*
G75*
G02*
X200119967Y-128336950I0J-231250D01*
G01*
X200119967Y-128874450D01*
G75*
G02*
X199888717Y-129105700I-231250J0D01*
G01*
X199426217Y-129105700D01*
G75*
G02*
X199194967Y-128874450I0J231250D01*
G01*
G37*
G36*
G01*
X200769967Y-128874450D02*
X200769967Y-128336950D01*
G75*
G02*
X201001217Y-128105700I231250J0D01*
G01*
X201463717Y-128105700D01*
G75*
G02*
X201694967Y-128336950I0J-231250D01*
G01*
X201694967Y-128874450D01*
G75*
G02*
X201463717Y-129105700I-231250J0D01*
G01*
X201001217Y-129105700D01*
G75*
G02*
X200769967Y-128874450I0J231250D01*
G01*
G37*
%TD*%
%TO.C,J3*%
G36*
G01*
X185825000Y-85650000D02*
X185825000Y-87850000D01*
G75*
G02*
X185800000Y-87875000I-25000J0D01*
G01*
X184000000Y-87875000D01*
G75*
G02*
X183975000Y-87850000I0J25000D01*
G01*
X183975000Y-85650000D01*
G75*
G02*
X184000000Y-85625000I25000J0D01*
G01*
X185800000Y-85625000D01*
G75*
G02*
X185825000Y-85650000I0J-25000D01*
G01*
G37*
G36*
G01*
X192125000Y-85650000D02*
X192125000Y-87850000D01*
G75*
G02*
X192100000Y-87875000I-25000J0D01*
G01*
X190300000Y-87875000D01*
G75*
G02*
X190275000Y-87850000I0J25000D01*
G01*
X190275000Y-85650000D01*
G75*
G02*
X190300000Y-85625000I25000J0D01*
G01*
X192100000Y-85625000D01*
G75*
G02*
X192125000Y-85650000I0J-25000D01*
G01*
G37*
G36*
G01*
X189475000Y-89350000D02*
X189475000Y-90650000D01*
G75*
G02*
X189450000Y-90675000I-25000J0D01*
G01*
X189150000Y-90675000D01*
G75*
G02*
X189125000Y-90650000I0J25000D01*
G01*
X189125000Y-89350000D01*
G75*
G02*
X189150000Y-89325000I25000J0D01*
G01*
X189450000Y-89325000D01*
G75*
G02*
X189475000Y-89350000I0J-25000D01*
G01*
G37*
G36*
G01*
X188975000Y-89350000D02*
X188975000Y-90650000D01*
G75*
G02*
X188950000Y-90675000I-25000J0D01*
G01*
X188650000Y-90675000D01*
G75*
G02*
X188625000Y-90650000I0J25000D01*
G01*
X188625000Y-89350000D01*
G75*
G02*
X188650000Y-89325000I25000J0D01*
G01*
X188950000Y-89325000D01*
G75*
G02*
X188975000Y-89350000I0J-25000D01*
G01*
G37*
G36*
G01*
X188475000Y-89350000D02*
X188475000Y-90650000D01*
G75*
G02*
X188450000Y-90675000I-25000J0D01*
G01*
X188150000Y-90675000D01*
G75*
G02*
X188125000Y-90650000I0J25000D01*
G01*
X188125000Y-89350000D01*
G75*
G02*
X188150000Y-89325000I25000J0D01*
G01*
X188450000Y-89325000D01*
G75*
G02*
X188475000Y-89350000I0J-25000D01*
G01*
G37*
G36*
G01*
X187975000Y-89350000D02*
X187975000Y-90650000D01*
G75*
G02*
X187950000Y-90675000I-25000J0D01*
G01*
X187650000Y-90675000D01*
G75*
G02*
X187625000Y-90650000I0J25000D01*
G01*
X187625000Y-89350000D01*
G75*
G02*
X187650000Y-89325000I25000J0D01*
G01*
X187950000Y-89325000D01*
G75*
G02*
X187975000Y-89350000I0J-25000D01*
G01*
G37*
G36*
G01*
X187475000Y-89350000D02*
X187475000Y-90650000D01*
G75*
G02*
X187450000Y-90675000I-25000J0D01*
G01*
X187150000Y-90675000D01*
G75*
G02*
X187125000Y-90650000I0J25000D01*
G01*
X187125000Y-89350000D01*
G75*
G02*
X187150000Y-89325000I25000J0D01*
G01*
X187450000Y-89325000D01*
G75*
G02*
X187475000Y-89350000I0J-25000D01*
G01*
G37*
G36*
G01*
X186975000Y-89350000D02*
X186975000Y-90650000D01*
G75*
G02*
X186950000Y-90675000I-25000J0D01*
G01*
X186650000Y-90675000D01*
G75*
G02*
X186625000Y-90650000I0J25000D01*
G01*
X186625000Y-89350000D01*
G75*
G02*
X186650000Y-89325000I25000J0D01*
G01*
X186950000Y-89325000D01*
G75*
G02*
X186975000Y-89350000I0J-25000D01*
G01*
G37*
%TD*%
%TO.C,SW3*%
G36*
G01*
X181475000Y-99950000D02*
X181475000Y-101450000D01*
G75*
G02*
X181450000Y-101475000I-25000J0D01*
G01*
X180450000Y-101475000D01*
G75*
G02*
X180425000Y-101450000I0J25000D01*
G01*
X180425000Y-99950000D01*
G75*
G02*
X180450000Y-99925000I25000J0D01*
G01*
X181450000Y-99925000D01*
G75*
G02*
X181475000Y-99950000I0J-25000D01*
G01*
G37*
G36*
G01*
X180175000Y-99950000D02*
X180175000Y-101450000D01*
G75*
G02*
X180150000Y-101475000I-25000J0D01*
G01*
X179150000Y-101475000D01*
G75*
G02*
X179125000Y-101450000I0J25000D01*
G01*
X179125000Y-99950000D01*
G75*
G02*
X179150000Y-99925000I25000J0D01*
G01*
X180150000Y-99925000D01*
G75*
G02*
X180175000Y-99950000I0J-25000D01*
G01*
G37*
%TD*%
D14*
%TO.C,J1*%
X210090000Y-135030000D03*
G36*
G01*
X208530000Y-133825000D02*
X207830000Y-133825000D01*
G75*
G02*
X207805000Y-133800000I0J25000D01*
G01*
X207805000Y-133500000D01*
G75*
G02*
X207830000Y-133475000I25000J0D01*
G01*
X208530000Y-133475000D01*
G75*
G02*
X208555000Y-133500000I0J-25000D01*
G01*
X208555000Y-133800000D01*
G75*
G02*
X208530000Y-133825000I-25000J0D01*
G01*
G37*
G36*
G01*
X208530000Y-133325000D02*
X207830000Y-133325000D01*
G75*
G02*
X207805000Y-133300000I0J25000D01*
G01*
X207805000Y-133000000D01*
G75*
G02*
X207830000Y-132975000I25000J0D01*
G01*
X208530000Y-132975000D01*
G75*
G02*
X208555000Y-133000000I0J-25000D01*
G01*
X208555000Y-133300000D01*
G75*
G02*
X208530000Y-133325000I-25000J0D01*
G01*
G37*
G36*
G01*
X208530000Y-132825000D02*
X207830000Y-132825000D01*
G75*
G02*
X207805000Y-132800000I0J25000D01*
G01*
X207805000Y-132500000D01*
G75*
G02*
X207830000Y-132475000I25000J0D01*
G01*
X208530000Y-132475000D01*
G75*
G02*
X208555000Y-132500000I0J-25000D01*
G01*
X208555000Y-132800000D01*
G75*
G02*
X208530000Y-132825000I-25000J0D01*
G01*
G37*
G36*
G01*
X208530000Y-132325000D02*
X207830000Y-132325000D01*
G75*
G02*
X207805000Y-132300000I0J25000D01*
G01*
X207805000Y-132000000D01*
G75*
G02*
X207830000Y-131975000I25000J0D01*
G01*
X208530000Y-131975000D01*
G75*
G02*
X208555000Y-132000000I0J-25000D01*
G01*
X208555000Y-132300000D01*
G75*
G02*
X208530000Y-132325000I-25000J0D01*
G01*
G37*
G36*
G01*
X208530000Y-131825000D02*
X207830000Y-131825000D01*
G75*
G02*
X207805000Y-131800000I0J25000D01*
G01*
X207805000Y-131500000D01*
G75*
G02*
X207830000Y-131475000I25000J0D01*
G01*
X208530000Y-131475000D01*
G75*
G02*
X208555000Y-131500000I0J-25000D01*
G01*
X208555000Y-131800000D01*
G75*
G02*
X208530000Y-131825000I-25000J0D01*
G01*
G37*
G36*
G01*
X208530000Y-131325000D02*
X207830000Y-131325000D01*
G75*
G02*
X207805000Y-131300000I0J25000D01*
G01*
X207805000Y-131000000D01*
G75*
G02*
X207830000Y-130975000I25000J0D01*
G01*
X208530000Y-130975000D01*
G75*
G02*
X208555000Y-131000000I0J-25000D01*
G01*
X208555000Y-131300000D01*
G75*
G02*
X208530000Y-131325000I-25000J0D01*
G01*
G37*
G36*
G01*
X208530000Y-130825000D02*
X207830000Y-130825000D01*
G75*
G02*
X207805000Y-130800000I0J25000D01*
G01*
X207805000Y-130500000D01*
G75*
G02*
X207830000Y-130475000I25000J0D01*
G01*
X208530000Y-130475000D01*
G75*
G02*
X208555000Y-130500000I0J-25000D01*
G01*
X208555000Y-130800000D01*
G75*
G02*
X208530000Y-130825000I-25000J0D01*
G01*
G37*
G36*
G01*
X208530000Y-128325000D02*
X207830000Y-128325000D01*
G75*
G02*
X207805000Y-128300000I0J25000D01*
G01*
X207805000Y-128000000D01*
G75*
G02*
X207830000Y-127975000I25000J0D01*
G01*
X208530000Y-127975000D01*
G75*
G02*
X208555000Y-128000000I0J-25000D01*
G01*
X208555000Y-128300000D01*
G75*
G02*
X208530000Y-128325000I-25000J0D01*
G01*
G37*
G36*
G01*
X208530000Y-129325000D02*
X207830000Y-129325000D01*
G75*
G02*
X207805000Y-129300000I0J25000D01*
G01*
X207805000Y-129000000D01*
G75*
G02*
X207830000Y-128975000I25000J0D01*
G01*
X208530000Y-128975000D01*
G75*
G02*
X208555000Y-129000000I0J-25000D01*
G01*
X208555000Y-129300000D01*
G75*
G02*
X208530000Y-129325000I-25000J0D01*
G01*
G37*
G36*
G01*
X208530000Y-129825000D02*
X207830000Y-129825000D01*
G75*
G02*
X207805000Y-129800000I0J25000D01*
G01*
X207805000Y-129500000D01*
G75*
G02*
X207830000Y-129475000I25000J0D01*
G01*
X208530000Y-129475000D01*
G75*
G02*
X208555000Y-129500000I0J-25000D01*
G01*
X208555000Y-129800000D01*
G75*
G02*
X208530000Y-129825000I-25000J0D01*
G01*
G37*
G36*
G01*
X208530000Y-130325000D02*
X207830000Y-130325000D01*
G75*
G02*
X207805000Y-130300000I0J25000D01*
G01*
X207805000Y-130000000D01*
G75*
G02*
X207830000Y-129975000I25000J0D01*
G01*
X208530000Y-129975000D01*
G75*
G02*
X208555000Y-130000000I0J-25000D01*
G01*
X208555000Y-130300000D01*
G75*
G02*
X208530000Y-130325000I-25000J0D01*
G01*
G37*
G36*
G01*
X208530000Y-128825000D02*
X207830000Y-128825000D01*
G75*
G02*
X207805000Y-128800000I0J25000D01*
G01*
X207805000Y-128500000D01*
G75*
G02*
X207830000Y-128475000I25000J0D01*
G01*
X208530000Y-128475000D01*
G75*
G02*
X208555000Y-128500000I0J-25000D01*
G01*
X208555000Y-128800000D01*
G75*
G02*
X208530000Y-128825000I-25000J0D01*
G01*
G37*
X210090000Y-126770000D03*
X216040000Y-126410000D03*
X216040000Y-135390000D03*
D15*
X208840000Y-127300000D03*
D16*
X208840000Y-134500000D03*
X209490000Y-128100000D03*
X209490000Y-129700000D03*
X209490000Y-130500000D03*
X209490000Y-131300000D03*
X209490000Y-132100000D03*
X209490000Y-133700000D03*
X210190000Y-128500000D03*
X210190000Y-129300000D03*
X210190000Y-130100000D03*
X210190000Y-131700000D03*
X210190000Y-132500000D03*
X210190000Y-133300000D03*
%TD*%
%TO.C,U6*%
G36*
G01*
X212448000Y-117409000D02*
X215008000Y-117409000D01*
G75*
G02*
X215033000Y-117434000I0J-25000D01*
G01*
X215033000Y-119394000D01*
G75*
G02*
X215008000Y-119419000I-25000J0D01*
G01*
X212448000Y-119419000D01*
G75*
G02*
X212423000Y-119394000I0J25000D01*
G01*
X212423000Y-117434000D01*
G75*
G02*
X212448000Y-117409000I25000J0D01*
G01*
G37*
G36*
G01*
X211428000Y-119189000D02*
X212128000Y-119189000D01*
G75*
G02*
X212153000Y-119214000I0J-25000D01*
G01*
X212153000Y-119564000D01*
G75*
G02*
X212128000Y-119589000I-25000J0D01*
G01*
X211428000Y-119589000D01*
G75*
G02*
X211403000Y-119564000I0J25000D01*
G01*
X211403000Y-119214000D01*
G75*
G02*
X211428000Y-119189000I25000J0D01*
G01*
G37*
G36*
G01*
X215328000Y-119189000D02*
X216028000Y-119189000D01*
G75*
G02*
X216053000Y-119214000I0J-25000D01*
G01*
X216053000Y-119564000D01*
G75*
G02*
X216028000Y-119589000I-25000J0D01*
G01*
X215328000Y-119589000D01*
G75*
G02*
X215303000Y-119564000I0J25000D01*
G01*
X215303000Y-119214000D01*
G75*
G02*
X215328000Y-119189000I25000J0D01*
G01*
G37*
G36*
G01*
X211428000Y-118539000D02*
X212128000Y-118539000D01*
G75*
G02*
X212153000Y-118564000I0J-25000D01*
G01*
X212153000Y-118914000D01*
G75*
G02*
X212128000Y-118939000I-25000J0D01*
G01*
X211428000Y-118939000D01*
G75*
G02*
X211403000Y-118914000I0J25000D01*
G01*
X211403000Y-118564000D01*
G75*
G02*
X211428000Y-118539000I25000J0D01*
G01*
G37*
G36*
G01*
X215328000Y-118539000D02*
X216028000Y-118539000D01*
G75*
G02*
X216053000Y-118564000I0J-25000D01*
G01*
X216053000Y-118914000D01*
G75*
G02*
X216028000Y-118939000I-25000J0D01*
G01*
X215328000Y-118939000D01*
G75*
G02*
X215303000Y-118914000I0J25000D01*
G01*
X215303000Y-118564000D01*
G75*
G02*
X215328000Y-118539000I25000J0D01*
G01*
G37*
G36*
G01*
X211428000Y-117889000D02*
X212128000Y-117889000D01*
G75*
G02*
X212153000Y-117914000I0J-25000D01*
G01*
X212153000Y-118264000D01*
G75*
G02*
X212128000Y-118289000I-25000J0D01*
G01*
X211428000Y-118289000D01*
G75*
G02*
X211403000Y-118264000I0J25000D01*
G01*
X211403000Y-117914000D01*
G75*
G02*
X211428000Y-117889000I25000J0D01*
G01*
G37*
G36*
G01*
X215328000Y-117889000D02*
X216028000Y-117889000D01*
G75*
G02*
X216053000Y-117914000I0J-25000D01*
G01*
X216053000Y-118264000D01*
G75*
G02*
X216028000Y-118289000I-25000J0D01*
G01*
X215328000Y-118289000D01*
G75*
G02*
X215303000Y-118264000I0J25000D01*
G01*
X215303000Y-117914000D01*
G75*
G02*
X215328000Y-117889000I25000J0D01*
G01*
G37*
G36*
G01*
X211428000Y-117239000D02*
X212128000Y-117239000D01*
G75*
G02*
X212153000Y-117264000I0J-25000D01*
G01*
X212153000Y-117614000D01*
G75*
G02*
X212128000Y-117639000I-25000J0D01*
G01*
X211428000Y-117639000D01*
G75*
G02*
X211403000Y-117614000I0J25000D01*
G01*
X211403000Y-117264000D01*
G75*
G02*
X211428000Y-117239000I25000J0D01*
G01*
G37*
G36*
G01*
X215328000Y-117239000D02*
X216028000Y-117239000D01*
G75*
G02*
X216053000Y-117264000I0J-25000D01*
G01*
X216053000Y-117614000D01*
G75*
G02*
X216028000Y-117639000I-25000J0D01*
G01*
X215328000Y-117639000D01*
G75*
G02*
X215303000Y-117614000I0J25000D01*
G01*
X215303000Y-117264000D01*
G75*
G02*
X215328000Y-117239000I25000J0D01*
G01*
G37*
%TD*%
%TO.C,J8*%
G36*
G01*
X208020678Y-85483901D02*
X208162099Y-85625322D01*
G75*
G02*
X208162099Y-85660678I-17678J-17678D01*
G01*
X208020678Y-85802099D01*
G75*
G02*
X207985322Y-85802099I-17678J17678D01*
G01*
X207843901Y-85660678D01*
G75*
G02*
X207843901Y-85625322I17678J17678D01*
G01*
X207985322Y-85483901D01*
G75*
G02*
X208020678Y-85483901I17678J-17678D01*
G01*
G37*
G36*
G01*
X196078000Y-90293000D02*
X196078000Y-91093000D01*
G75*
G02*
X196053000Y-91118000I-25000J0D01*
G01*
X194853000Y-91118000D01*
G75*
G02*
X194828000Y-91093000I0J25000D01*
G01*
X194828000Y-90293000D01*
G75*
G02*
X194853000Y-90268000I25000J0D01*
G01*
X196053000Y-90268000D01*
G75*
G02*
X196078000Y-90293000I0J-25000D01*
G01*
G37*
G36*
G01*
X208028000Y-85143000D02*
X208028000Y-85643000D01*
G75*
G02*
X208003000Y-85668000I-25000J0D01*
G01*
X207503000Y-85668000D01*
G75*
G02*
X207478000Y-85643000I0J25000D01*
G01*
X207478000Y-85143000D01*
G75*
G02*
X207503000Y-85118000I25000J0D01*
G01*
X208003000Y-85118000D01*
G75*
G02*
X208028000Y-85143000I0J-25000D01*
G01*
G37*
G36*
G01*
X197628000Y-100393000D02*
X197628000Y-101793000D01*
G75*
G02*
X197603000Y-101818000I-25000J0D01*
G01*
X196903000Y-101818000D01*
G75*
G02*
X196878000Y-101793000I0J25000D01*
G01*
X196878000Y-100393000D01*
G75*
G02*
X196903000Y-100368000I25000J0D01*
G01*
X197603000Y-100368000D01*
G75*
G02*
X197628000Y-100393000I0J-25000D01*
G01*
G37*
G36*
G01*
X198728000Y-100393000D02*
X198728000Y-101793000D01*
G75*
G02*
X198703000Y-101818000I-25000J0D01*
G01*
X198003000Y-101818000D01*
G75*
G02*
X197978000Y-101793000I0J25000D01*
G01*
X197978000Y-100393000D01*
G75*
G02*
X198003000Y-100368000I25000J0D01*
G01*
X198703000Y-100368000D01*
G75*
G02*
X198728000Y-100393000I0J-25000D01*
G01*
G37*
G36*
G01*
X199828000Y-100393000D02*
X199828000Y-101793000D01*
G75*
G02*
X199803000Y-101818000I-25000J0D01*
G01*
X199103000Y-101818000D01*
G75*
G02*
X199078000Y-101793000I0J25000D01*
G01*
X199078000Y-100393000D01*
G75*
G02*
X199103000Y-100368000I25000J0D01*
G01*
X199803000Y-100368000D01*
G75*
G02*
X199828000Y-100393000I0J-25000D01*
G01*
G37*
G36*
G01*
X200928000Y-100393000D02*
X200928000Y-101793000D01*
G75*
G02*
X200903000Y-101818000I-25000J0D01*
G01*
X200203000Y-101818000D01*
G75*
G02*
X200178000Y-101793000I0J25000D01*
G01*
X200178000Y-100393000D01*
G75*
G02*
X200203000Y-100368000I25000J0D01*
G01*
X200903000Y-100368000D01*
G75*
G02*
X200928000Y-100393000I0J-25000D01*
G01*
G37*
G36*
G01*
X202028000Y-100393000D02*
X202028000Y-101793000D01*
G75*
G02*
X202003000Y-101818000I-25000J0D01*
G01*
X201303000Y-101818000D01*
G75*
G02*
X201278000Y-101793000I0J25000D01*
G01*
X201278000Y-100393000D01*
G75*
G02*
X201303000Y-100368000I25000J0D01*
G01*
X202003000Y-100368000D01*
G75*
G02*
X202028000Y-100393000I0J-25000D01*
G01*
G37*
G36*
G01*
X203128000Y-100393000D02*
X203128000Y-101793000D01*
G75*
G02*
X203103000Y-101818000I-25000J0D01*
G01*
X202403000Y-101818000D01*
G75*
G02*
X202378000Y-101793000I0J25000D01*
G01*
X202378000Y-100393000D01*
G75*
G02*
X202403000Y-100368000I25000J0D01*
G01*
X203103000Y-100368000D01*
G75*
G02*
X203128000Y-100393000I0J-25000D01*
G01*
G37*
G36*
G01*
X204228000Y-100393000D02*
X204228000Y-101793000D01*
G75*
G02*
X204203000Y-101818000I-25000J0D01*
G01*
X203503000Y-101818000D01*
G75*
G02*
X203478000Y-101793000I0J25000D01*
G01*
X203478000Y-100393000D01*
G75*
G02*
X203503000Y-100368000I25000J0D01*
G01*
X204203000Y-100368000D01*
G75*
G02*
X204228000Y-100393000I0J-25000D01*
G01*
G37*
G36*
G01*
X196678000Y-100593000D02*
X196678000Y-101793000D01*
G75*
G02*
X196653000Y-101818000I-25000J0D01*
G01*
X195953000Y-101818000D01*
G75*
G02*
X195928000Y-101793000I0J25000D01*
G01*
X195928000Y-100593000D01*
G75*
G02*
X195953000Y-100568000I25000J0D01*
G01*
X196653000Y-100568000D01*
G75*
G02*
X196678000Y-100593000I0J-25000D01*
G01*
G37*
G36*
G01*
X196078000Y-85493000D02*
X196078000Y-88693000D01*
G75*
G02*
X196053000Y-88718000I-25000J0D01*
G01*
X194853000Y-88718000D01*
G75*
G02*
X194828000Y-88693000I0J25000D01*
G01*
X194828000Y-85493000D01*
G75*
G02*
X194853000Y-85468000I25000J0D01*
G01*
X196053000Y-85468000D01*
G75*
G02*
X196078000Y-85493000I0J-25000D01*
G01*
G37*
G36*
G01*
X196078000Y-96293000D02*
X196078000Y-97493000D01*
G75*
G02*
X196053000Y-97518000I-25000J0D01*
G01*
X194853000Y-97518000D01*
G75*
G02*
X194828000Y-97493000I0J25000D01*
G01*
X194828000Y-96293000D01*
G75*
G02*
X194853000Y-96268000I25000J0D01*
G01*
X196053000Y-96268000D01*
G75*
G02*
X196078000Y-96293000I0J-25000D01*
G01*
G37*
G36*
G01*
X207378000Y-100393000D02*
X207378000Y-101793000D01*
G75*
G02*
X207353000Y-101818000I-25000J0D01*
G01*
X206353000Y-101818000D01*
G75*
G02*
X206328000Y-101793000I0J25000D01*
G01*
X206328000Y-100393000D01*
G75*
G02*
X206353000Y-100368000I25000J0D01*
G01*
X207353000Y-100368000D01*
G75*
G02*
X207378000Y-100393000I0J-25000D01*
G01*
G37*
G36*
G01*
X209528000Y-85143000D02*
X209528000Y-87043000D01*
G75*
G02*
X209503000Y-87068000I-25000J0D01*
G01*
X208003000Y-87068000D01*
G75*
G02*
X207978000Y-87043000I0J25000D01*
G01*
X207978000Y-85143000D01*
G75*
G02*
X208003000Y-85118000I25000J0D01*
G01*
X209503000Y-85118000D01*
G75*
G02*
X209528000Y-85143000I0J-25000D01*
G01*
G37*
G36*
G01*
X205328000Y-100393000D02*
X205328000Y-101793000D01*
G75*
G02*
X205303000Y-101818000I-25000J0D01*
G01*
X204603000Y-101818000D01*
G75*
G02*
X204578000Y-101793000I0J25000D01*
G01*
X204578000Y-100393000D01*
G75*
G02*
X204603000Y-100368000I25000J0D01*
G01*
X205303000Y-100368000D01*
G75*
G02*
X205328000Y-100393000I0J-25000D01*
G01*
G37*
%TD*%
%TO.C,L7*%
G36*
G01*
X201747700Y-124733034D02*
X198147700Y-124733034D01*
G75*
G02*
X198122700Y-124708034I0J25000D01*
G01*
X198122700Y-123208034D01*
G75*
G02*
X198147700Y-123183034I25000J0D01*
G01*
X201747700Y-123183034D01*
G75*
G02*
X201772700Y-123208034I0J-25000D01*
G01*
X201772700Y-124708034D01*
G75*
G02*
X201747700Y-124733034I-25000J0D01*
G01*
G37*
G36*
G01*
X201747700Y-121683034D02*
X198147700Y-121683034D01*
G75*
G02*
X198122700Y-121658034I0J25000D01*
G01*
X198122700Y-120158034D01*
G75*
G02*
X198147700Y-120133034I25000J0D01*
G01*
X201747700Y-120133034D01*
G75*
G02*
X201772700Y-120158034I0J-25000D01*
G01*
X201772700Y-121658034D01*
G75*
G02*
X201747700Y-121683034I-25000J0D01*
G01*
G37*
%TD*%
%TO.C,L3*%
G36*
G01*
X204873000Y-113615000D02*
X201273000Y-113615000D01*
G75*
G02*
X201248000Y-113590000I0J25000D01*
G01*
X201248000Y-112090000D01*
G75*
G02*
X201273000Y-112065000I25000J0D01*
G01*
X204873000Y-112065000D01*
G75*
G02*
X204898000Y-112090000I0J-25000D01*
G01*
X204898000Y-113590000D01*
G75*
G02*
X204873000Y-113615000I-25000J0D01*
G01*
G37*
G36*
G01*
X204873000Y-116665000D02*
X201273000Y-116665000D01*
G75*
G02*
X201248000Y-116640000I0J25000D01*
G01*
X201248000Y-115140000D01*
G75*
G02*
X201273000Y-115115000I25000J0D01*
G01*
X204873000Y-115115000D01*
G75*
G02*
X204898000Y-115140000I0J-25000D01*
G01*
X204898000Y-116640000D01*
G75*
G02*
X204873000Y-116665000I-25000J0D01*
G01*
G37*
%TD*%
%TO.C,U15*%
G36*
G01*
X213197000Y-94585000D02*
X213197000Y-95235000D01*
G75*
G02*
X213172000Y-95260000I-25000J0D01*
G01*
X212112000Y-95260000D01*
G75*
G02*
X212087000Y-95235000I0J25000D01*
G01*
X212087000Y-94585000D01*
G75*
G02*
X212112000Y-94560000I25000J0D01*
G01*
X213172000Y-94560000D01*
G75*
G02*
X213197000Y-94585000I0J-25000D01*
G01*
G37*
G36*
G01*
X213197000Y-95535000D02*
X213197000Y-96185000D01*
G75*
G02*
X213172000Y-96210000I-25000J0D01*
G01*
X212112000Y-96210000D01*
G75*
G02*
X212087000Y-96185000I0J25000D01*
G01*
X212087000Y-95535000D01*
G75*
G02*
X212112000Y-95510000I25000J0D01*
G01*
X213172000Y-95510000D01*
G75*
G02*
X213197000Y-95535000I0J-25000D01*
G01*
G37*
G36*
G01*
X213197000Y-93635000D02*
X213197000Y-94285000D01*
G75*
G02*
X213172000Y-94310000I-25000J0D01*
G01*
X212112000Y-94310000D01*
G75*
G02*
X212087000Y-94285000I0J25000D01*
G01*
X212087000Y-93635000D01*
G75*
G02*
X212112000Y-93610000I25000J0D01*
G01*
X213172000Y-93610000D01*
G75*
G02*
X213197000Y-93635000I0J-25000D01*
G01*
G37*
G36*
G01*
X215397000Y-93635000D02*
X215397000Y-94285000D01*
G75*
G02*
X215372000Y-94310000I-25000J0D01*
G01*
X214312000Y-94310000D01*
G75*
G02*
X214287000Y-94285000I0J25000D01*
G01*
X214287000Y-93635000D01*
G75*
G02*
X214312000Y-93610000I25000J0D01*
G01*
X215372000Y-93610000D01*
G75*
G02*
X215397000Y-93635000I0J-25000D01*
G01*
G37*
G36*
G01*
X215397000Y-94585000D02*
X215397000Y-95235000D01*
G75*
G02*
X215372000Y-95260000I-25000J0D01*
G01*
X214312000Y-95260000D01*
G75*
G02*
X214287000Y-95235000I0J25000D01*
G01*
X214287000Y-94585000D01*
G75*
G02*
X214312000Y-94560000I25000J0D01*
G01*
X215372000Y-94560000D01*
G75*
G02*
X215397000Y-94585000I0J-25000D01*
G01*
G37*
G36*
G01*
X215397000Y-95535000D02*
X215397000Y-96185000D01*
G75*
G02*
X215372000Y-96210000I-25000J0D01*
G01*
X214312000Y-96210000D01*
G75*
G02*
X214287000Y-96185000I0J25000D01*
G01*
X214287000Y-95535000D01*
G75*
G02*
X214312000Y-95510000I25000J0D01*
G01*
X215372000Y-95510000D01*
G75*
G02*
X215397000Y-95535000I0J-25000D01*
G01*
G37*
%TD*%
%TO.C,U14*%
G36*
G01*
X210097000Y-104331000D02*
X210097000Y-103821000D01*
G75*
G02*
X210122000Y-103796000I25000J0D01*
G01*
X210822000Y-103796000D01*
G75*
G02*
X210847000Y-103821000I0J-25000D01*
G01*
X210847000Y-104331000D01*
G75*
G02*
X210822000Y-104356000I-25000J0D01*
G01*
X210122000Y-104356000D01*
G75*
G02*
X210097000Y-104331000I0J25000D01*
G01*
G37*
G36*
G01*
X210097000Y-106231000D02*
X210097000Y-105721000D01*
G75*
G02*
X210122000Y-105696000I25000J0D01*
G01*
X210822000Y-105696000D01*
G75*
G02*
X210847000Y-105721000I0J-25000D01*
G01*
X210847000Y-106231000D01*
G75*
G02*
X210822000Y-106256000I-25000J0D01*
G01*
X210122000Y-106256000D01*
G75*
G02*
X210097000Y-106231000I0J25000D01*
G01*
G37*
G36*
G01*
X207777000Y-106231000D02*
X207777000Y-105721000D01*
G75*
G02*
X207802000Y-105696000I25000J0D01*
G01*
X208502000Y-105696000D01*
G75*
G02*
X208527000Y-105721000I0J-25000D01*
G01*
X208527000Y-106231000D01*
G75*
G02*
X208502000Y-106256000I-25000J0D01*
G01*
X207802000Y-106256000D01*
G75*
G02*
X207777000Y-106231000I0J25000D01*
G01*
G37*
G36*
G01*
X207777000Y-105281000D02*
X207777000Y-104771000D01*
G75*
G02*
X207802000Y-104746000I25000J0D01*
G01*
X208502000Y-104746000D01*
G75*
G02*
X208527000Y-104771000I0J-25000D01*
G01*
X208527000Y-105281000D01*
G75*
G02*
X208502000Y-105306000I-25000J0D01*
G01*
X207802000Y-105306000D01*
G75*
G02*
X207777000Y-105281000I0J25000D01*
G01*
G37*
G36*
G01*
X207777000Y-104331000D02*
X207777000Y-103821000D01*
G75*
G02*
X207802000Y-103796000I25000J0D01*
G01*
X208502000Y-103796000D01*
G75*
G02*
X208527000Y-103821000I0J-25000D01*
G01*
X208527000Y-104331000D01*
G75*
G02*
X208502000Y-104356000I-25000J0D01*
G01*
X207802000Y-104356000D01*
G75*
G02*
X207777000Y-104331000I0J25000D01*
G01*
G37*
%TD*%
%TO.C,U13*%
G36*
G01*
X200175000Y-105700000D02*
X200175000Y-104700000D01*
G75*
G02*
X200200000Y-104675000I25000J0D01*
G01*
X203100000Y-104675000D01*
G75*
G02*
X203125000Y-104700000I0J-25000D01*
G01*
X203125000Y-105700000D01*
G75*
G02*
X203100000Y-105725000I-25000J0D01*
G01*
X200200000Y-105725000D01*
G75*
G02*
X200175000Y-105700000I0J25000D01*
G01*
G37*
G36*
G01*
X203520000Y-104375000D02*
X203280000Y-104375000D01*
G75*
G02*
X203255000Y-104350000I0J25000D01*
G01*
X203255000Y-103450000D01*
G75*
G02*
X203280000Y-103425000I25000J0D01*
G01*
X203520000Y-103425000D01*
G75*
G02*
X203545000Y-103450000I0J-25000D01*
G01*
X203545000Y-104350000D01*
G75*
G02*
X203520000Y-104375000I-25000J0D01*
G01*
G37*
G36*
G01*
X203020000Y-104375000D02*
X202780000Y-104375000D01*
G75*
G02*
X202755000Y-104350000I0J25000D01*
G01*
X202755000Y-103450000D01*
G75*
G02*
X202780000Y-103425000I25000J0D01*
G01*
X203020000Y-103425000D01*
G75*
G02*
X203045000Y-103450000I0J-25000D01*
G01*
X203045000Y-104350000D01*
G75*
G02*
X203020000Y-104375000I-25000J0D01*
G01*
G37*
G36*
G01*
X202520000Y-104375000D02*
X202280000Y-104375000D01*
G75*
G02*
X202255000Y-104350000I0J25000D01*
G01*
X202255000Y-103450000D01*
G75*
G02*
X202280000Y-103425000I25000J0D01*
G01*
X202520000Y-103425000D01*
G75*
G02*
X202545000Y-103450000I0J-25000D01*
G01*
X202545000Y-104350000D01*
G75*
G02*
X202520000Y-104375000I-25000J0D01*
G01*
G37*
G36*
G01*
X202020000Y-104375000D02*
X201780000Y-104375000D01*
G75*
G02*
X201755000Y-104350000I0J25000D01*
G01*
X201755000Y-103450000D01*
G75*
G02*
X201780000Y-103425000I25000J0D01*
G01*
X202020000Y-103425000D01*
G75*
G02*
X202045000Y-103450000I0J-25000D01*
G01*
X202045000Y-104350000D01*
G75*
G02*
X202020000Y-104375000I-25000J0D01*
G01*
G37*
G36*
G01*
X201520000Y-104375000D02*
X201280000Y-104375000D01*
G75*
G02*
X201255000Y-104350000I0J25000D01*
G01*
X201255000Y-103450000D01*
G75*
G02*
X201280000Y-103425000I25000J0D01*
G01*
X201520000Y-103425000D01*
G75*
G02*
X201545000Y-103450000I0J-25000D01*
G01*
X201545000Y-104350000D01*
G75*
G02*
X201520000Y-104375000I-25000J0D01*
G01*
G37*
G36*
G01*
X201020000Y-104375000D02*
X200780000Y-104375000D01*
G75*
G02*
X200755000Y-104350000I0J25000D01*
G01*
X200755000Y-103450000D01*
G75*
G02*
X200780000Y-103425000I25000J0D01*
G01*
X201020000Y-103425000D01*
G75*
G02*
X201045000Y-103450000I0J-25000D01*
G01*
X201045000Y-104350000D01*
G75*
G02*
X201020000Y-104375000I-25000J0D01*
G01*
G37*
G36*
G01*
X200520000Y-104375000D02*
X200280000Y-104375000D01*
G75*
G02*
X200255000Y-104350000I0J25000D01*
G01*
X200255000Y-103450000D01*
G75*
G02*
X200280000Y-103425000I25000J0D01*
G01*
X200520000Y-103425000D01*
G75*
G02*
X200545000Y-103450000I0J-25000D01*
G01*
X200545000Y-104350000D01*
G75*
G02*
X200520000Y-104375000I-25000J0D01*
G01*
G37*
G36*
G01*
X200020000Y-104375000D02*
X199780000Y-104375000D01*
G75*
G02*
X199755000Y-104350000I0J25000D01*
G01*
X199755000Y-103450000D01*
G75*
G02*
X199780000Y-103425000I25000J0D01*
G01*
X200020000Y-103425000D01*
G75*
G02*
X200045000Y-103450000I0J-25000D01*
G01*
X200045000Y-104350000D01*
G75*
G02*
X200020000Y-104375000I-25000J0D01*
G01*
G37*
G36*
G01*
X203520000Y-106975000D02*
X203280000Y-106975000D01*
G75*
G02*
X203255000Y-106950000I0J25000D01*
G01*
X203255000Y-106050000D01*
G75*
G02*
X203280000Y-106025000I25000J0D01*
G01*
X203520000Y-106025000D01*
G75*
G02*
X203545000Y-106050000I0J-25000D01*
G01*
X203545000Y-106950000D01*
G75*
G02*
X203520000Y-106975000I-25000J0D01*
G01*
G37*
G36*
G01*
X203020000Y-106975000D02*
X202780000Y-106975000D01*
G75*
G02*
X202755000Y-106950000I0J25000D01*
G01*
X202755000Y-106050000D01*
G75*
G02*
X202780000Y-106025000I25000J0D01*
G01*
X203020000Y-106025000D01*
G75*
G02*
X203045000Y-106050000I0J-25000D01*
G01*
X203045000Y-106950000D01*
G75*
G02*
X203020000Y-106975000I-25000J0D01*
G01*
G37*
G36*
G01*
X202520000Y-106975000D02*
X202280000Y-106975000D01*
G75*
G02*
X202255000Y-106950000I0J25000D01*
G01*
X202255000Y-106050000D01*
G75*
G02*
X202280000Y-106025000I25000J0D01*
G01*
X202520000Y-106025000D01*
G75*
G02*
X202545000Y-106050000I0J-25000D01*
G01*
X202545000Y-106950000D01*
G75*
G02*
X202520000Y-106975000I-25000J0D01*
G01*
G37*
G36*
G01*
X202020000Y-106975000D02*
X201780000Y-106975000D01*
G75*
G02*
X201755000Y-106950000I0J25000D01*
G01*
X201755000Y-106050000D01*
G75*
G02*
X201780000Y-106025000I25000J0D01*
G01*
X202020000Y-106025000D01*
G75*
G02*
X202045000Y-106050000I0J-25000D01*
G01*
X202045000Y-106950000D01*
G75*
G02*
X202020000Y-106975000I-25000J0D01*
G01*
G37*
G36*
G01*
X201520000Y-106975000D02*
X201280000Y-106975000D01*
G75*
G02*
X201255000Y-106950000I0J25000D01*
G01*
X201255000Y-106050000D01*
G75*
G02*
X201280000Y-106025000I25000J0D01*
G01*
X201520000Y-106025000D01*
G75*
G02*
X201545000Y-106050000I0J-25000D01*
G01*
X201545000Y-106950000D01*
G75*
G02*
X201520000Y-106975000I-25000J0D01*
G01*
G37*
G36*
G01*
X201020000Y-106975000D02*
X200780000Y-106975000D01*
G75*
G02*
X200755000Y-106950000I0J25000D01*
G01*
X200755000Y-106050000D01*
G75*
G02*
X200780000Y-106025000I25000J0D01*
G01*
X201020000Y-106025000D01*
G75*
G02*
X201045000Y-106050000I0J-25000D01*
G01*
X201045000Y-106950000D01*
G75*
G02*
X201020000Y-106975000I-25000J0D01*
G01*
G37*
G36*
G01*
X200520000Y-106975000D02*
X200280000Y-106975000D01*
G75*
G02*
X200255000Y-106950000I0J25000D01*
G01*
X200255000Y-106050000D01*
G75*
G02*
X200280000Y-106025000I25000J0D01*
G01*
X200520000Y-106025000D01*
G75*
G02*
X200545000Y-106050000I0J-25000D01*
G01*
X200545000Y-106950000D01*
G75*
G02*
X200520000Y-106975000I-25000J0D01*
G01*
G37*
G36*
G01*
X200020000Y-106975000D02*
X199780000Y-106975000D01*
G75*
G02*
X199755000Y-106950000I0J25000D01*
G01*
X199755000Y-106050000D01*
G75*
G02*
X199780000Y-106025000I25000J0D01*
G01*
X200020000Y-106025000D01*
G75*
G02*
X200045000Y-106050000I0J-25000D01*
G01*
X200045000Y-106950000D01*
G75*
G02*
X200020000Y-106975000I-25000J0D01*
G01*
G37*
G36*
G01*
X203475000Y-105070000D02*
X203475000Y-104830000D01*
G75*
G02*
X203500000Y-104805000I25000J0D01*
G01*
X204400000Y-104805000D01*
G75*
G02*
X204425000Y-104830000I0J-25000D01*
G01*
X204425000Y-105070000D01*
G75*
G02*
X204400000Y-105095000I-25000J0D01*
G01*
X203500000Y-105095000D01*
G75*
G02*
X203475000Y-105070000I0J25000D01*
G01*
G37*
G36*
G01*
X203475000Y-105570000D02*
X203475000Y-105330000D01*
G75*
G02*
X203500000Y-105305000I25000J0D01*
G01*
X204400000Y-105305000D01*
G75*
G02*
X204425000Y-105330000I0J-25000D01*
G01*
X204425000Y-105570000D01*
G75*
G02*
X204400000Y-105595000I-25000J0D01*
G01*
X203500000Y-105595000D01*
G75*
G02*
X203475000Y-105570000I0J25000D01*
G01*
G37*
G36*
G01*
X198875000Y-105070000D02*
X198875000Y-104830000D01*
G75*
G02*
X198900000Y-104805000I25000J0D01*
G01*
X199800000Y-104805000D01*
G75*
G02*
X199825000Y-104830000I0J-25000D01*
G01*
X199825000Y-105070000D01*
G75*
G02*
X199800000Y-105095000I-25000J0D01*
G01*
X198900000Y-105095000D01*
G75*
G02*
X198875000Y-105070000I0J25000D01*
G01*
G37*
G36*
G01*
X198875000Y-105570000D02*
X198875000Y-105330000D01*
G75*
G02*
X198900000Y-105305000I25000J0D01*
G01*
X199800000Y-105305000D01*
G75*
G02*
X199825000Y-105330000I0J-25000D01*
G01*
X199825000Y-105570000D01*
G75*
G02*
X199800000Y-105595000I-25000J0D01*
G01*
X198900000Y-105595000D01*
G75*
G02*
X198875000Y-105570000I0J25000D01*
G01*
G37*
%TD*%
%TO.C,U9*%
G36*
G01*
X192016000Y-101041000D02*
X192016000Y-101391000D01*
G75*
G02*
X191991000Y-101416000I-25000J0D01*
G01*
X191616000Y-101416000D01*
G75*
G02*
X191591000Y-101391000I0J25000D01*
G01*
X191591000Y-101041000D01*
G75*
G02*
X191616000Y-101016000I25000J0D01*
G01*
X191991000Y-101016000D01*
G75*
G02*
X192016000Y-101041000I0J-25000D01*
G01*
G37*
G36*
G01*
X192016000Y-100541000D02*
X192016000Y-100891000D01*
G75*
G02*
X191991000Y-100916000I-25000J0D01*
G01*
X191616000Y-100916000D01*
G75*
G02*
X191591000Y-100891000I0J25000D01*
G01*
X191591000Y-100541000D01*
G75*
G02*
X191616000Y-100516000I25000J0D01*
G01*
X191991000Y-100516000D01*
G75*
G02*
X192016000Y-100541000I0J-25000D01*
G01*
G37*
G36*
G01*
X193541000Y-100541000D02*
X193541000Y-100891000D01*
G75*
G02*
X193516000Y-100916000I-25000J0D01*
G01*
X193141000Y-100916000D01*
G75*
G02*
X193116000Y-100891000I0J25000D01*
G01*
X193116000Y-100541000D01*
G75*
G02*
X193141000Y-100516000I25000J0D01*
G01*
X193516000Y-100516000D01*
G75*
G02*
X193541000Y-100541000I0J-25000D01*
G01*
G37*
G36*
G01*
X193541000Y-101041000D02*
X193541000Y-101391000D01*
G75*
G02*
X193516000Y-101416000I-25000J0D01*
G01*
X193141000Y-101416000D01*
G75*
G02*
X193116000Y-101391000I0J25000D01*
G01*
X193116000Y-101041000D01*
G75*
G02*
X193141000Y-101016000I25000J0D01*
G01*
X193516000Y-101016000D01*
G75*
G02*
X193541000Y-101041000I0J-25000D01*
G01*
G37*
G36*
G01*
X191991000Y-100416000D02*
X191641000Y-100416000D01*
G75*
G02*
X191616000Y-100391000I0J25000D01*
G01*
X191616000Y-100016000D01*
G75*
G02*
X191641000Y-99991000I25000J0D01*
G01*
X191991000Y-99991000D01*
G75*
G02*
X192016000Y-100016000I0J-25000D01*
G01*
X192016000Y-100391000D01*
G75*
G02*
X191991000Y-100416000I-25000J0D01*
G01*
G37*
G36*
G01*
X191991000Y-101941000D02*
X191641000Y-101941000D01*
G75*
G02*
X191616000Y-101916000I0J25000D01*
G01*
X191616000Y-101541000D01*
G75*
G02*
X191641000Y-101516000I25000J0D01*
G01*
X191991000Y-101516000D01*
G75*
G02*
X192016000Y-101541000I0J-25000D01*
G01*
X192016000Y-101916000D01*
G75*
G02*
X191991000Y-101941000I-25000J0D01*
G01*
G37*
G36*
G01*
X193491000Y-100416000D02*
X193141000Y-100416000D01*
G75*
G02*
X193116000Y-100391000I0J25000D01*
G01*
X193116000Y-100016000D01*
G75*
G02*
X193141000Y-99991000I25000J0D01*
G01*
X193491000Y-99991000D01*
G75*
G02*
X193516000Y-100016000I0J-25000D01*
G01*
X193516000Y-100391000D01*
G75*
G02*
X193491000Y-100416000I-25000J0D01*
G01*
G37*
G36*
G01*
X193491000Y-101941000D02*
X193141000Y-101941000D01*
G75*
G02*
X193116000Y-101916000I0J25000D01*
G01*
X193116000Y-101541000D01*
G75*
G02*
X193141000Y-101516000I25000J0D01*
G01*
X193491000Y-101516000D01*
G75*
G02*
X193516000Y-101541000I0J-25000D01*
G01*
X193516000Y-101916000D01*
G75*
G02*
X193491000Y-101941000I-25000J0D01*
G01*
G37*
G36*
G01*
X192991000Y-100416000D02*
X192641000Y-100416000D01*
G75*
G02*
X192616000Y-100391000I0J25000D01*
G01*
X192616000Y-100016000D01*
G75*
G02*
X192641000Y-99991000I25000J0D01*
G01*
X192991000Y-99991000D01*
G75*
G02*
X193016000Y-100016000I0J-25000D01*
G01*
X193016000Y-100391000D01*
G75*
G02*
X192991000Y-100416000I-25000J0D01*
G01*
G37*
G36*
G01*
X192491000Y-100416000D02*
X192141000Y-100416000D01*
G75*
G02*
X192116000Y-100391000I0J25000D01*
G01*
X192116000Y-100016000D01*
G75*
G02*
X192141000Y-99991000I25000J0D01*
G01*
X192491000Y-99991000D01*
G75*
G02*
X192516000Y-100016000I0J-25000D01*
G01*
X192516000Y-100391000D01*
G75*
G02*
X192491000Y-100416000I-25000J0D01*
G01*
G37*
G36*
G01*
X192991000Y-101941000D02*
X192641000Y-101941000D01*
G75*
G02*
X192616000Y-101916000I0J25000D01*
G01*
X192616000Y-101541000D01*
G75*
G02*
X192641000Y-101516000I25000J0D01*
G01*
X192991000Y-101516000D01*
G75*
G02*
X193016000Y-101541000I0J-25000D01*
G01*
X193016000Y-101916000D01*
G75*
G02*
X192991000Y-101941000I-25000J0D01*
G01*
G37*
G36*
G01*
X192491000Y-101941000D02*
X192141000Y-101941000D01*
G75*
G02*
X192116000Y-101916000I0J25000D01*
G01*
X192116000Y-101541000D01*
G75*
G02*
X192141000Y-101516000I25000J0D01*
G01*
X192491000Y-101516000D01*
G75*
G02*
X192516000Y-101541000I0J-25000D01*
G01*
X192516000Y-101916000D01*
G75*
G02*
X192491000Y-101941000I-25000J0D01*
G01*
G37*
%TD*%
%TO.C,U8*%
G36*
G01*
X188032322Y-95819150D02*
X187325215Y-95112043D01*
G75*
G02*
X187325215Y-95076687I17678J17678D01*
G01*
X188032322Y-94369580D01*
G75*
G02*
X188067678Y-94369580I17678J-17678D01*
G01*
X188774785Y-95076687D01*
G75*
G02*
X188774785Y-95112043I-17678J-17678D01*
G01*
X188067678Y-95819150D01*
G75*
G02*
X188032322Y-95819150I-17678J17678D01*
G01*
G37*
G36*
G01*
X190330420Y-96667678D02*
X189623313Y-97374785D01*
G75*
G02*
X189587957Y-97374785I-17678J17678D01*
G01*
X188880850Y-96667678D01*
G75*
G02*
X188880850Y-96632322I17678J17678D01*
G01*
X189587957Y-95925215D01*
G75*
G02*
X189623313Y-95925215I17678J-17678D01*
G01*
X190330420Y-96632322D01*
G75*
G02*
X190330420Y-96667678I-17678J-17678D01*
G01*
G37*
G36*
G01*
X188032322Y-98930420D02*
X187325215Y-98223313D01*
G75*
G02*
X187325215Y-98187957I17678J17678D01*
G01*
X188032322Y-97480850D01*
G75*
G02*
X188067678Y-97480850I17678J-17678D01*
G01*
X188774785Y-98187957D01*
G75*
G02*
X188774785Y-98223313I-17678J-17678D01*
G01*
X188067678Y-98930420D01*
G75*
G02*
X188032322Y-98930420I-17678J17678D01*
G01*
G37*
G36*
G01*
X187219150Y-96667678D02*
X186512043Y-97374785D01*
G75*
G02*
X186476687Y-97374785I-17678J17678D01*
G01*
X185769580Y-96667678D01*
G75*
G02*
X185769580Y-96632322I17678J17678D01*
G01*
X186476687Y-95925215D01*
G75*
G02*
X186512043Y-95925215I17678J-17678D01*
G01*
X187219150Y-96632322D01*
G75*
G02*
X187219150Y-96667678I-17678J-17678D01*
G01*
G37*
%TD*%
%TO.C,R87*%
G36*
G01*
X210755000Y-139215000D02*
X210385000Y-139215000D01*
G75*
G02*
X210225000Y-139055000I0J160000D01*
G01*
X210225000Y-138735000D01*
G75*
G02*
X210385000Y-138575000I160000J0D01*
G01*
X210755000Y-138575000D01*
G75*
G02*
X210915000Y-138735000I0J-160000D01*
G01*
X210915000Y-139055000D01*
G75*
G02*
X210755000Y-139215000I-160000J0D01*
G01*
G37*
G36*
G01*
X210755000Y-140185000D02*
X210385000Y-140185000D01*
G75*
G02*
X210225000Y-140025000I0J160000D01*
G01*
X210225000Y-139705000D01*
G75*
G02*
X210385000Y-139545000I160000J0D01*
G01*
X210755000Y-139545000D01*
G75*
G02*
X210915000Y-139705000I0J-160000D01*
G01*
X210915000Y-140025000D01*
G75*
G02*
X210755000Y-140185000I-160000J0D01*
G01*
G37*
%TD*%
%TO.C,R76*%
G36*
G01*
X212077000Y-105841000D02*
X212077000Y-106211000D01*
G75*
G02*
X211917000Y-106371000I-160000J0D01*
G01*
X211597000Y-106371000D01*
G75*
G02*
X211437000Y-106211000I0J160000D01*
G01*
X211437000Y-105841000D01*
G75*
G02*
X211597000Y-105681000I160000J0D01*
G01*
X211917000Y-105681000D01*
G75*
G02*
X212077000Y-105841000I0J-160000D01*
G01*
G37*
G36*
G01*
X213047000Y-105841000D02*
X213047000Y-106211000D01*
G75*
G02*
X212887000Y-106371000I-160000J0D01*
G01*
X212567000Y-106371000D01*
G75*
G02*
X212407000Y-106211000I0J160000D01*
G01*
X212407000Y-105841000D01*
G75*
G02*
X212567000Y-105681000I160000J0D01*
G01*
X212887000Y-105681000D01*
G75*
G02*
X213047000Y-105841000I0J-160000D01*
G01*
G37*
%TD*%
%TO.C,R75*%
G36*
G01*
X211927000Y-104361000D02*
X211557000Y-104361000D01*
G75*
G02*
X211397000Y-104201000I0J160000D01*
G01*
X211397000Y-103881000D01*
G75*
G02*
X211557000Y-103721000I160000J0D01*
G01*
X211927000Y-103721000D01*
G75*
G02*
X212087000Y-103881000I0J-160000D01*
G01*
X212087000Y-104201000D01*
G75*
G02*
X211927000Y-104361000I-160000J0D01*
G01*
G37*
G36*
G01*
X211927000Y-105331000D02*
X211557000Y-105331000D01*
G75*
G02*
X211397000Y-105171000I0J160000D01*
G01*
X211397000Y-104851000D01*
G75*
G02*
X211557000Y-104691000I160000J0D01*
G01*
X211927000Y-104691000D01*
G75*
G02*
X212087000Y-104851000I0J-160000D01*
G01*
X212087000Y-105171000D01*
G75*
G02*
X211927000Y-105331000I-160000J0D01*
G01*
G37*
%TD*%
%TO.C,R57*%
G36*
G01*
X211237000Y-94275000D02*
X210867000Y-94275000D01*
G75*
G02*
X210707000Y-94115000I0J160000D01*
G01*
X210707000Y-93795000D01*
G75*
G02*
X210867000Y-93635000I160000J0D01*
G01*
X211237000Y-93635000D01*
G75*
G02*
X211397000Y-93795000I0J-160000D01*
G01*
X211397000Y-94115000D01*
G75*
G02*
X211237000Y-94275000I-160000J0D01*
G01*
G37*
G36*
G01*
X211237000Y-95245000D02*
X210867000Y-95245000D01*
G75*
G02*
X210707000Y-95085000I0J160000D01*
G01*
X210707000Y-94765000D01*
G75*
G02*
X210867000Y-94605000I160000J0D01*
G01*
X211237000Y-94605000D01*
G75*
G02*
X211397000Y-94765000I0J-160000D01*
G01*
X211397000Y-95085000D01*
G75*
G02*
X211237000Y-95245000I-160000J0D01*
G01*
G37*
%TD*%
%TO.C,R56*%
G36*
G01*
X212237000Y-92335000D02*
X212237000Y-91965000D01*
G75*
G02*
X212397000Y-91805000I160000J0D01*
G01*
X212717000Y-91805000D01*
G75*
G02*
X212877000Y-91965000I0J-160000D01*
G01*
X212877000Y-92335000D01*
G75*
G02*
X212717000Y-92495000I-160000J0D01*
G01*
X212397000Y-92495000D01*
G75*
G02*
X212237000Y-92335000I0J160000D01*
G01*
G37*
G36*
G01*
X211267000Y-92335000D02*
X211267000Y-91965000D01*
G75*
G02*
X211427000Y-91805000I160000J0D01*
G01*
X211747000Y-91805000D01*
G75*
G02*
X211907000Y-91965000I0J-160000D01*
G01*
X211907000Y-92335000D01*
G75*
G02*
X211747000Y-92495000I-160000J0D01*
G01*
X211427000Y-92495000D01*
G75*
G02*
X211267000Y-92335000I0J160000D01*
G01*
G37*
%TD*%
%TO.C,R55*%
G36*
G01*
X198260000Y-108285000D02*
X197890000Y-108285000D01*
G75*
G02*
X197730000Y-108125000I0J160000D01*
G01*
X197730000Y-107805000D01*
G75*
G02*
X197890000Y-107645000I160000J0D01*
G01*
X198260000Y-107645000D01*
G75*
G02*
X198420000Y-107805000I0J-160000D01*
G01*
X198420000Y-108125000D01*
G75*
G02*
X198260000Y-108285000I-160000J0D01*
G01*
G37*
G36*
G01*
X198260000Y-109255000D02*
X197890000Y-109255000D01*
G75*
G02*
X197730000Y-109095000I0J160000D01*
G01*
X197730000Y-108775000D01*
G75*
G02*
X197890000Y-108615000I160000J0D01*
G01*
X198260000Y-108615000D01*
G75*
G02*
X198420000Y-108775000I0J-160000D01*
G01*
X198420000Y-109095000D01*
G75*
G02*
X198260000Y-109255000I-160000J0D01*
G01*
G37*
%TD*%
%TO.C,R54*%
G36*
G01*
X210357000Y-108041000D02*
X210727000Y-108041000D01*
G75*
G02*
X210887000Y-108201000I0J-160000D01*
G01*
X210887000Y-108521000D01*
G75*
G02*
X210727000Y-108681000I-160000J0D01*
G01*
X210357000Y-108681000D01*
G75*
G02*
X210197000Y-108521000I0J160000D01*
G01*
X210197000Y-108201000D01*
G75*
G02*
X210357000Y-108041000I160000J0D01*
G01*
G37*
G36*
G01*
X210357000Y-107071000D02*
X210727000Y-107071000D01*
G75*
G02*
X210887000Y-107231000I0J-160000D01*
G01*
X210887000Y-107551000D01*
G75*
G02*
X210727000Y-107711000I-160000J0D01*
G01*
X210357000Y-107711000D01*
G75*
G02*
X210197000Y-107551000I0J160000D01*
G01*
X210197000Y-107231000D01*
G75*
G02*
X210357000Y-107071000I160000J0D01*
G01*
G37*
%TD*%
%TO.C,R49*%
G36*
G01*
X195950000Y-120915000D02*
X195950000Y-121285000D01*
G75*
G02*
X195790000Y-121445000I-160000J0D01*
G01*
X195470000Y-121445000D01*
G75*
G02*
X195310000Y-121285000I0J160000D01*
G01*
X195310000Y-120915000D01*
G75*
G02*
X195470000Y-120755000I160000J0D01*
G01*
X195790000Y-120755000D01*
G75*
G02*
X195950000Y-120915000I0J-160000D01*
G01*
G37*
G36*
G01*
X196920000Y-120915000D02*
X196920000Y-121285000D01*
G75*
G02*
X196760000Y-121445000I-160000J0D01*
G01*
X196440000Y-121445000D01*
G75*
G02*
X196280000Y-121285000I0J160000D01*
G01*
X196280000Y-120915000D01*
G75*
G02*
X196440000Y-120755000I160000J0D01*
G01*
X196760000Y-120755000D01*
G75*
G02*
X196920000Y-120915000I0J-160000D01*
G01*
G37*
%TD*%
%TO.C,R38*%
G36*
G01*
X193505000Y-99015000D02*
X193505000Y-98645000D01*
G75*
G02*
X193665000Y-98485000I160000J0D01*
G01*
X193985000Y-98485000D01*
G75*
G02*
X194145000Y-98645000I0J-160000D01*
G01*
X194145000Y-99015000D01*
G75*
G02*
X193985000Y-99175000I-160000J0D01*
G01*
X193665000Y-99175000D01*
G75*
G02*
X193505000Y-99015000I0J160000D01*
G01*
G37*
G36*
G01*
X192535000Y-99015000D02*
X192535000Y-98645000D01*
G75*
G02*
X192695000Y-98485000I160000J0D01*
G01*
X193015000Y-98485000D01*
G75*
G02*
X193175000Y-98645000I0J-160000D01*
G01*
X193175000Y-99015000D01*
G75*
G02*
X193015000Y-99175000I-160000J0D01*
G01*
X192695000Y-99175000D01*
G75*
G02*
X192535000Y-99015000I0J160000D01*
G01*
G37*
%TD*%
%TO.C,R37*%
G36*
G01*
X212355000Y-124335000D02*
X212355000Y-123965000D01*
G75*
G02*
X212515000Y-123805000I160000J0D01*
G01*
X212835000Y-123805000D01*
G75*
G02*
X212995000Y-123965000I0J-160000D01*
G01*
X212995000Y-124335000D01*
G75*
G02*
X212835000Y-124495000I-160000J0D01*
G01*
X212515000Y-124495000D01*
G75*
G02*
X212355000Y-124335000I0J160000D01*
G01*
G37*
G36*
G01*
X211385000Y-124335000D02*
X211385000Y-123965000D01*
G75*
G02*
X211545000Y-123805000I160000J0D01*
G01*
X211865000Y-123805000D01*
G75*
G02*
X212025000Y-123965000I0J-160000D01*
G01*
X212025000Y-124335000D01*
G75*
G02*
X211865000Y-124495000I-160000J0D01*
G01*
X211545000Y-124495000D01*
G75*
G02*
X211385000Y-124335000I0J160000D01*
G01*
G37*
%TD*%
%TO.C,R34*%
G36*
G01*
X193435000Y-102935000D02*
X193435000Y-102565000D01*
G75*
G02*
X193595000Y-102405000I160000J0D01*
G01*
X193915000Y-102405000D01*
G75*
G02*
X194075000Y-102565000I0J-160000D01*
G01*
X194075000Y-102935000D01*
G75*
G02*
X193915000Y-103095000I-160000J0D01*
G01*
X193595000Y-103095000D01*
G75*
G02*
X193435000Y-102935000I0J160000D01*
G01*
G37*
G36*
G01*
X192465000Y-102935000D02*
X192465000Y-102565000D01*
G75*
G02*
X192625000Y-102405000I160000J0D01*
G01*
X192945000Y-102405000D01*
G75*
G02*
X193105000Y-102565000I0J-160000D01*
G01*
X193105000Y-102935000D01*
G75*
G02*
X192945000Y-103095000I-160000J0D01*
G01*
X192625000Y-103095000D01*
G75*
G02*
X192465000Y-102935000I0J160000D01*
G01*
G37*
%TD*%
%TO.C,R29*%
G36*
G01*
X189565000Y-101195000D02*
X189565000Y-100825000D01*
G75*
G02*
X189725000Y-100665000I160000J0D01*
G01*
X190045000Y-100665000D01*
G75*
G02*
X190205000Y-100825000I0J-160000D01*
G01*
X190205000Y-101195000D01*
G75*
G02*
X190045000Y-101355000I-160000J0D01*
G01*
X189725000Y-101355000D01*
G75*
G02*
X189565000Y-101195000I0J160000D01*
G01*
G37*
G36*
G01*
X188595000Y-101195000D02*
X188595000Y-100825000D01*
G75*
G02*
X188755000Y-100665000I160000J0D01*
G01*
X189075000Y-100665000D01*
G75*
G02*
X189235000Y-100825000I0J-160000D01*
G01*
X189235000Y-101195000D01*
G75*
G02*
X189075000Y-101355000I-160000J0D01*
G01*
X188755000Y-101355000D01*
G75*
G02*
X188595000Y-101195000I0J160000D01*
G01*
G37*
%TD*%
%TO.C,R28*%
G36*
G01*
X189565000Y-100155000D02*
X189565000Y-99785000D01*
G75*
G02*
X189725000Y-99625000I160000J0D01*
G01*
X190045000Y-99625000D01*
G75*
G02*
X190205000Y-99785000I0J-160000D01*
G01*
X190205000Y-100155000D01*
G75*
G02*
X190045000Y-100315000I-160000J0D01*
G01*
X189725000Y-100315000D01*
G75*
G02*
X189565000Y-100155000I0J160000D01*
G01*
G37*
G36*
G01*
X188595000Y-100155000D02*
X188595000Y-99785000D01*
G75*
G02*
X188755000Y-99625000I160000J0D01*
G01*
X189075000Y-99625000D01*
G75*
G02*
X189235000Y-99785000I0J-160000D01*
G01*
X189235000Y-100155000D01*
G75*
G02*
X189075000Y-100315000I-160000J0D01*
G01*
X188755000Y-100315000D01*
G75*
G02*
X188595000Y-100155000I0J160000D01*
G01*
G37*
%TD*%
%TO.C,R25*%
G36*
G01*
X183515000Y-100875000D02*
X183515000Y-100505000D01*
G75*
G02*
X183675000Y-100345000I160000J0D01*
G01*
X183995000Y-100345000D01*
G75*
G02*
X184155000Y-100505000I0J-160000D01*
G01*
X184155000Y-100875000D01*
G75*
G02*
X183995000Y-101035000I-160000J0D01*
G01*
X183675000Y-101035000D01*
G75*
G02*
X183515000Y-100875000I0J160000D01*
G01*
G37*
G36*
G01*
X182545000Y-100875000D02*
X182545000Y-100505000D01*
G75*
G02*
X182705000Y-100345000I160000J0D01*
G01*
X183025000Y-100345000D01*
G75*
G02*
X183185000Y-100505000I0J-160000D01*
G01*
X183185000Y-100875000D01*
G75*
G02*
X183025000Y-101035000I-160000J0D01*
G01*
X182705000Y-101035000D01*
G75*
G02*
X182545000Y-100875000I0J160000D01*
G01*
G37*
%TD*%
%TO.C,R24*%
G36*
G01*
X209335000Y-124585000D02*
X209335000Y-124955000D01*
G75*
G02*
X209175000Y-125115000I-160000J0D01*
G01*
X208855000Y-125115000D01*
G75*
G02*
X208695000Y-124955000I0J160000D01*
G01*
X208695000Y-124585000D01*
G75*
G02*
X208855000Y-124425000I160000J0D01*
G01*
X209175000Y-124425000D01*
G75*
G02*
X209335000Y-124585000I0J-160000D01*
G01*
G37*
G36*
G01*
X208365000Y-124585000D02*
X208365000Y-124955000D01*
G75*
G02*
X208205000Y-125115000I-160000J0D01*
G01*
X207885000Y-125115000D01*
G75*
G02*
X207725000Y-124955000I0J160000D01*
G01*
X207725000Y-124585000D01*
G75*
G02*
X207885000Y-124425000I160000J0D01*
G01*
X208205000Y-124425000D01*
G75*
G02*
X208365000Y-124585000I0J-160000D01*
G01*
G37*
%TD*%
%TO.C,R17*%
G36*
G01*
X205757700Y-131893880D02*
X205757700Y-131523880D01*
G75*
G02*
X205917700Y-131363880I160000J0D01*
G01*
X206237700Y-131363880D01*
G75*
G02*
X206397700Y-131523880I0J-160000D01*
G01*
X206397700Y-131893880D01*
G75*
G02*
X206237700Y-132053880I-160000J0D01*
G01*
X205917700Y-132053880D01*
G75*
G02*
X205757700Y-131893880I0J160000D01*
G01*
G37*
G36*
G01*
X204787700Y-131893880D02*
X204787700Y-131523880D01*
G75*
G02*
X204947700Y-131363880I160000J0D01*
G01*
X205267700Y-131363880D01*
G75*
G02*
X205427700Y-131523880I0J-160000D01*
G01*
X205427700Y-131893880D01*
G75*
G02*
X205267700Y-132053880I-160000J0D01*
G01*
X204947700Y-132053880D01*
G75*
G02*
X204787700Y-131893880I0J160000D01*
G01*
G37*
%TD*%
%TO.C,R16*%
G36*
G01*
X205765000Y-130883033D02*
X205765000Y-130513033D01*
G75*
G02*
X205925000Y-130353033I160000J0D01*
G01*
X206245000Y-130353033D01*
G75*
G02*
X206405000Y-130513033I0J-160000D01*
G01*
X206405000Y-130883033D01*
G75*
G02*
X206245000Y-131043033I-160000J0D01*
G01*
X205925000Y-131043033D01*
G75*
G02*
X205765000Y-130883033I0J160000D01*
G01*
G37*
G36*
G01*
X204795000Y-130883033D02*
X204795000Y-130513033D01*
G75*
G02*
X204955000Y-130353033I160000J0D01*
G01*
X205275000Y-130353033D01*
G75*
G02*
X205435000Y-130513033I0J-160000D01*
G01*
X205435000Y-130883033D01*
G75*
G02*
X205275000Y-131043033I-160000J0D01*
G01*
X204955000Y-131043033D01*
G75*
G02*
X204795000Y-130883033I0J160000D01*
G01*
G37*
%TD*%
%TO.C,R10*%
G36*
G01*
X181815000Y-90065000D02*
X182185000Y-90065000D01*
G75*
G02*
X182345000Y-90225000I0J-160000D01*
G01*
X182345000Y-90545000D01*
G75*
G02*
X182185000Y-90705000I-160000J0D01*
G01*
X181815000Y-90705000D01*
G75*
G02*
X181655000Y-90545000I0J160000D01*
G01*
X181655000Y-90225000D01*
G75*
G02*
X181815000Y-90065000I160000J0D01*
G01*
G37*
G36*
G01*
X181815000Y-89095000D02*
X182185000Y-89095000D01*
G75*
G02*
X182345000Y-89255000I0J-160000D01*
G01*
X182345000Y-89575000D01*
G75*
G02*
X182185000Y-89735000I-160000J0D01*
G01*
X181815000Y-89735000D01*
G75*
G02*
X181655000Y-89575000I0J160000D01*
G01*
X181655000Y-89255000D01*
G75*
G02*
X181815000Y-89095000I160000J0D01*
G01*
G37*
%TD*%
%TO.C,R9*%
G36*
G01*
X185915000Y-139265000D02*
X185545000Y-139265000D01*
G75*
G02*
X185385000Y-139105000I0J160000D01*
G01*
X185385000Y-138785000D01*
G75*
G02*
X185545000Y-138625000I160000J0D01*
G01*
X185915000Y-138625000D01*
G75*
G02*
X186075000Y-138785000I0J-160000D01*
G01*
X186075000Y-139105000D01*
G75*
G02*
X185915000Y-139265000I-160000J0D01*
G01*
G37*
G36*
G01*
X185915000Y-140235000D02*
X185545000Y-140235000D01*
G75*
G02*
X185385000Y-140075000I0J160000D01*
G01*
X185385000Y-139755000D01*
G75*
G02*
X185545000Y-139595000I160000J0D01*
G01*
X185915000Y-139595000D01*
G75*
G02*
X186075000Y-139755000I0J-160000D01*
G01*
X186075000Y-140075000D01*
G75*
G02*
X185915000Y-140235000I-160000J0D01*
G01*
G37*
%TD*%
%TO.C,R8*%
G36*
G01*
X207575000Y-139215000D02*
X207205000Y-139215000D01*
G75*
G02*
X207045000Y-139055000I0J160000D01*
G01*
X207045000Y-138735000D01*
G75*
G02*
X207205000Y-138575000I160000J0D01*
G01*
X207575000Y-138575000D01*
G75*
G02*
X207735000Y-138735000I0J-160000D01*
G01*
X207735000Y-139055000D01*
G75*
G02*
X207575000Y-139215000I-160000J0D01*
G01*
G37*
G36*
G01*
X207575000Y-140185000D02*
X207205000Y-140185000D01*
G75*
G02*
X207045000Y-140025000I0J160000D01*
G01*
X207045000Y-139705000D01*
G75*
G02*
X207205000Y-139545000I160000J0D01*
G01*
X207575000Y-139545000D01*
G75*
G02*
X207735000Y-139705000I0J-160000D01*
G01*
X207735000Y-140025000D01*
G75*
G02*
X207575000Y-140185000I-160000J0D01*
G01*
G37*
%TD*%
%TO.C,R7*%
G36*
G01*
X204375000Y-139205000D02*
X204005000Y-139205000D01*
G75*
G02*
X203845000Y-139045000I0J160000D01*
G01*
X203845000Y-138725000D01*
G75*
G02*
X204005000Y-138565000I160000J0D01*
G01*
X204375000Y-138565000D01*
G75*
G02*
X204535000Y-138725000I0J-160000D01*
G01*
X204535000Y-139045000D01*
G75*
G02*
X204375000Y-139205000I-160000J0D01*
G01*
G37*
G36*
G01*
X204375000Y-140175000D02*
X204005000Y-140175000D01*
G75*
G02*
X203845000Y-140015000I0J160000D01*
G01*
X203845000Y-139695000D01*
G75*
G02*
X204005000Y-139535000I160000J0D01*
G01*
X204375000Y-139535000D01*
G75*
G02*
X204535000Y-139695000I0J-160000D01*
G01*
X204535000Y-140015000D01*
G75*
G02*
X204375000Y-140175000I-160000J0D01*
G01*
G37*
%TD*%
%TO.C,R5*%
G36*
G01*
X209363000Y-114405000D02*
X209733000Y-114405000D01*
G75*
G02*
X209893000Y-114565000I0J-160000D01*
G01*
X209893000Y-114885000D01*
G75*
G02*
X209733000Y-115045000I-160000J0D01*
G01*
X209363000Y-115045000D01*
G75*
G02*
X209203000Y-114885000I0J160000D01*
G01*
X209203000Y-114565000D01*
G75*
G02*
X209363000Y-114405000I160000J0D01*
G01*
G37*
G36*
G01*
X209363000Y-113435000D02*
X209733000Y-113435000D01*
G75*
G02*
X209893000Y-113595000I0J-160000D01*
G01*
X209893000Y-113915000D01*
G75*
G02*
X209733000Y-114075000I-160000J0D01*
G01*
X209363000Y-114075000D01*
G75*
G02*
X209203000Y-113915000I0J160000D01*
G01*
X209203000Y-113595000D01*
G75*
G02*
X209363000Y-113435000I160000J0D01*
G01*
G37*
%TD*%
%TO.C,R4*%
G36*
G01*
X209735000Y-113005000D02*
X209365000Y-113005000D01*
G75*
G02*
X209205000Y-112845000I0J160000D01*
G01*
X209205000Y-112525000D01*
G75*
G02*
X209365000Y-112365000I160000J0D01*
G01*
X209735000Y-112365000D01*
G75*
G02*
X209895000Y-112525000I0J-160000D01*
G01*
X209895000Y-112845000D01*
G75*
G02*
X209735000Y-113005000I-160000J0D01*
G01*
G37*
G36*
G01*
X209735000Y-112035000D02*
X209365000Y-112035000D01*
G75*
G02*
X209205000Y-111875000I0J160000D01*
G01*
X209205000Y-111555000D01*
G75*
G02*
X209365000Y-111395000I160000J0D01*
G01*
X209735000Y-111395000D01*
G75*
G02*
X209895000Y-111555000I0J-160000D01*
G01*
X209895000Y-111875000D01*
G75*
G02*
X209735000Y-112035000I-160000J0D01*
G01*
G37*
%TD*%
%TO.C,Q4*%
G36*
G01*
X207792000Y-109101000D02*
X208592000Y-109101000D01*
G75*
G02*
X208617000Y-109126000I0J-25000D01*
G01*
X208617000Y-110026000D01*
G75*
G02*
X208592000Y-110051000I-25000J0D01*
G01*
X207792000Y-110051000D01*
G75*
G02*
X207767000Y-110026000I0J25000D01*
G01*
X207767000Y-109126000D01*
G75*
G02*
X207792000Y-109101000I25000J0D01*
G01*
G37*
G36*
G01*
X206842000Y-107101000D02*
X207642000Y-107101000D01*
G75*
G02*
X207667000Y-107126000I0J-25000D01*
G01*
X207667000Y-108026000D01*
G75*
G02*
X207642000Y-108051000I-25000J0D01*
G01*
X206842000Y-108051000D01*
G75*
G02*
X206817000Y-108026000I0J25000D01*
G01*
X206817000Y-107126000D01*
G75*
G02*
X206842000Y-107101000I25000J0D01*
G01*
G37*
G36*
G01*
X208742000Y-107101000D02*
X209542000Y-107101000D01*
G75*
G02*
X209567000Y-107126000I0J-25000D01*
G01*
X209567000Y-108026000D01*
G75*
G02*
X209542000Y-108051000I-25000J0D01*
G01*
X208742000Y-108051000D01*
G75*
G02*
X208717000Y-108026000I0J25000D01*
G01*
X208717000Y-107126000D01*
G75*
G02*
X208742000Y-107101000I25000J0D01*
G01*
G37*
%TD*%
%TO.C,D7*%
G36*
G01*
X209448750Y-138980000D02*
X208511250Y-138980000D01*
G75*
G02*
X208255000Y-138723750I0J256250D01*
G01*
X208255000Y-138211250D01*
G75*
G02*
X208511250Y-137955000I256250J0D01*
G01*
X209448750Y-137955000D01*
G75*
G02*
X209705000Y-138211250I0J-256250D01*
G01*
X209705000Y-138723750D01*
G75*
G02*
X209448750Y-138980000I-256250J0D01*
G01*
G37*
G36*
G01*
X209448750Y-140855000D02*
X208511250Y-140855000D01*
G75*
G02*
X208255000Y-140598750I0J256250D01*
G01*
X208255000Y-140086250D01*
G75*
G02*
X208511250Y-139830000I256250J0D01*
G01*
X209448750Y-139830000D01*
G75*
G02*
X209705000Y-140086250I0J-256250D01*
G01*
X209705000Y-140598750D01*
G75*
G02*
X209448750Y-140855000I-256250J0D01*
G01*
G37*
%TD*%
%TO.C,D5*%
G36*
G01*
X215461400Y-124573150D02*
X215461400Y-123635650D01*
G75*
G02*
X215717650Y-123379400I256250J0D01*
G01*
X216230150Y-123379400D01*
G75*
G02*
X216486400Y-123635650I0J-256250D01*
G01*
X216486400Y-124573150D01*
G75*
G02*
X216230150Y-124829400I-256250J0D01*
G01*
X215717650Y-124829400D01*
G75*
G02*
X215461400Y-124573150I0J256250D01*
G01*
G37*
G36*
G01*
X213586400Y-124573150D02*
X213586400Y-123635650D01*
G75*
G02*
X213842650Y-123379400I256250J0D01*
G01*
X214355150Y-123379400D01*
G75*
G02*
X214611400Y-123635650I0J-256250D01*
G01*
X214611400Y-124573150D01*
G75*
G02*
X214355150Y-124829400I-256250J0D01*
G01*
X213842650Y-124829400D01*
G75*
G02*
X213586400Y-124573150I0J256250D01*
G01*
G37*
%TD*%
%TO.C,D4*%
G36*
G01*
X206248750Y-138980000D02*
X205311250Y-138980000D01*
G75*
G02*
X205055000Y-138723750I0J256250D01*
G01*
X205055000Y-138211250D01*
G75*
G02*
X205311250Y-137955000I256250J0D01*
G01*
X206248750Y-137955000D01*
G75*
G02*
X206505000Y-138211250I0J-256250D01*
G01*
X206505000Y-138723750D01*
G75*
G02*
X206248750Y-138980000I-256250J0D01*
G01*
G37*
G36*
G01*
X206248750Y-140855000D02*
X205311250Y-140855000D01*
G75*
G02*
X205055000Y-140598750I0J256250D01*
G01*
X205055000Y-140086250D01*
G75*
G02*
X205311250Y-139830000I256250J0D01*
G01*
X206248750Y-139830000D01*
G75*
G02*
X206505000Y-140086250I0J-256250D01*
G01*
X206505000Y-140598750D01*
G75*
G02*
X206248750Y-140855000I-256250J0D01*
G01*
G37*
%TD*%
%TO.C,D3*%
G36*
G01*
X202988750Y-138985000D02*
X202051250Y-138985000D01*
G75*
G02*
X201795000Y-138728750I0J256250D01*
G01*
X201795000Y-138216250D01*
G75*
G02*
X202051250Y-137960000I256250J0D01*
G01*
X202988750Y-137960000D01*
G75*
G02*
X203245000Y-138216250I0J-256250D01*
G01*
X203245000Y-138728750D01*
G75*
G02*
X202988750Y-138985000I-256250J0D01*
G01*
G37*
G36*
G01*
X202988750Y-140860000D02*
X202051250Y-140860000D01*
G75*
G02*
X201795000Y-140603750I0J256250D01*
G01*
X201795000Y-140091250D01*
G75*
G02*
X202051250Y-139835000I256250J0D01*
G01*
X202988750Y-139835000D01*
G75*
G02*
X203245000Y-140091250I0J-256250D01*
G01*
X203245000Y-140603750D01*
G75*
G02*
X202988750Y-140860000I-256250J0D01*
G01*
G37*
%TD*%
%TO.C,D2*%
G36*
G01*
X182488750Y-86385000D02*
X181551250Y-86385000D01*
G75*
G02*
X181295000Y-86128750I0J256250D01*
G01*
X181295000Y-85616250D01*
G75*
G02*
X181551250Y-85360000I256250J0D01*
G01*
X182488750Y-85360000D01*
G75*
G02*
X182745000Y-85616250I0J-256250D01*
G01*
X182745000Y-86128750D01*
G75*
G02*
X182488750Y-86385000I-256250J0D01*
G01*
G37*
G36*
G01*
X182488750Y-88260000D02*
X181551250Y-88260000D01*
G75*
G02*
X181295000Y-88003750I0J256250D01*
G01*
X181295000Y-87491250D01*
G75*
G02*
X181551250Y-87235000I256250J0D01*
G01*
X182488750Y-87235000D01*
G75*
G02*
X182745000Y-87491250I0J-256250D01*
G01*
X182745000Y-88003750D01*
G75*
G02*
X182488750Y-88260000I-256250J0D01*
G01*
G37*
%TD*%
%TO.C,D1*%
G36*
G01*
X187898750Y-138995000D02*
X186961250Y-138995000D01*
G75*
G02*
X186705000Y-138738750I0J256250D01*
G01*
X186705000Y-138226250D01*
G75*
G02*
X186961250Y-137970000I256250J0D01*
G01*
X187898750Y-137970000D01*
G75*
G02*
X188155000Y-138226250I0J-256250D01*
G01*
X188155000Y-138738750D01*
G75*
G02*
X187898750Y-138995000I-256250J0D01*
G01*
G37*
G36*
G01*
X187898750Y-140870000D02*
X186961250Y-140870000D01*
G75*
G02*
X186705000Y-140613750I0J256250D01*
G01*
X186705000Y-140101250D01*
G75*
G02*
X186961250Y-139845000I256250J0D01*
G01*
X187898750Y-139845000D01*
G75*
G02*
X188155000Y-140101250I0J-256250D01*
G01*
X188155000Y-140613750D01*
G75*
G02*
X187898750Y-140870000I-256250J0D01*
G01*
G37*
%TD*%
%TO.C,C63*%
G36*
G01*
X212607000Y-104691000D02*
X212977000Y-104691000D01*
G75*
G02*
X213137000Y-104851000I0J-160000D01*
G01*
X213137000Y-105171000D01*
G75*
G02*
X212977000Y-105331000I-160000J0D01*
G01*
X212607000Y-105331000D01*
G75*
G02*
X212447000Y-105171000I0J160000D01*
G01*
X212447000Y-104851000D01*
G75*
G02*
X212607000Y-104691000I160000J0D01*
G01*
G37*
G36*
G01*
X212607000Y-103721000D02*
X212977000Y-103721000D01*
G75*
G02*
X213137000Y-103881000I0J-160000D01*
G01*
X213137000Y-104201000D01*
G75*
G02*
X212977000Y-104361000I-160000J0D01*
G01*
X212607000Y-104361000D01*
G75*
G02*
X212447000Y-104201000I0J160000D01*
G01*
X212447000Y-103881000D01*
G75*
G02*
X212607000Y-103721000I160000J0D01*
G01*
G37*
%TD*%
%TO.C,C62*%
G36*
G01*
X206657000Y-104691000D02*
X207027000Y-104691000D01*
G75*
G02*
X207187000Y-104851000I0J-160000D01*
G01*
X207187000Y-105171000D01*
G75*
G02*
X207027000Y-105331000I-160000J0D01*
G01*
X206657000Y-105331000D01*
G75*
G02*
X206497000Y-105171000I0J160000D01*
G01*
X206497000Y-104851000D01*
G75*
G02*
X206657000Y-104691000I160000J0D01*
G01*
G37*
G36*
G01*
X206657000Y-103721000D02*
X207027000Y-103721000D01*
G75*
G02*
X207187000Y-103881000I0J-160000D01*
G01*
X207187000Y-104201000D01*
G75*
G02*
X207027000Y-104361000I-160000J0D01*
G01*
X206657000Y-104361000D01*
G75*
G02*
X206497000Y-104201000I0J160000D01*
G01*
X206497000Y-103881000D01*
G75*
G02*
X206657000Y-103721000I160000J0D01*
G01*
G37*
%TD*%
%TO.C,C60*%
G36*
G01*
X196915000Y-104365000D02*
X197285000Y-104365000D01*
G75*
G02*
X197445000Y-104525000I0J-160000D01*
G01*
X197445000Y-104845000D01*
G75*
G02*
X197285000Y-105005000I-160000J0D01*
G01*
X196915000Y-105005000D01*
G75*
G02*
X196755000Y-104845000I0J160000D01*
G01*
X196755000Y-104525000D01*
G75*
G02*
X196915000Y-104365000I160000J0D01*
G01*
G37*
G36*
G01*
X196915000Y-103395000D02*
X197285000Y-103395000D01*
G75*
G02*
X197445000Y-103555000I0J-160000D01*
G01*
X197445000Y-103875000D01*
G75*
G02*
X197285000Y-104035000I-160000J0D01*
G01*
X196915000Y-104035000D01*
G75*
G02*
X196755000Y-103875000I0J160000D01*
G01*
X196755000Y-103555000D01*
G75*
G02*
X196915000Y-103395000I160000J0D01*
G01*
G37*
%TD*%
%TO.C,C59*%
G36*
G01*
X198285000Y-106035000D02*
X197915000Y-106035000D01*
G75*
G02*
X197755000Y-105875000I0J160000D01*
G01*
X197755000Y-105555000D01*
G75*
G02*
X197915000Y-105395000I160000J0D01*
G01*
X198285000Y-105395000D01*
G75*
G02*
X198445000Y-105555000I0J-160000D01*
G01*
X198445000Y-105875000D01*
G75*
G02*
X198285000Y-106035000I-160000J0D01*
G01*
G37*
G36*
G01*
X198285000Y-107005000D02*
X197915000Y-107005000D01*
G75*
G02*
X197755000Y-106845000I0J160000D01*
G01*
X197755000Y-106525000D01*
G75*
G02*
X197915000Y-106365000I160000J0D01*
G01*
X198285000Y-106365000D01*
G75*
G02*
X198445000Y-106525000I0J-160000D01*
G01*
X198445000Y-106845000D01*
G75*
G02*
X198285000Y-107005000I-160000J0D01*
G01*
G37*
%TD*%
%TO.C,C50*%
G36*
G01*
X215057000Y-92418750D02*
X215057000Y-91881250D01*
G75*
G02*
X215288250Y-91650000I231250J0D01*
G01*
X215750750Y-91650000D01*
G75*
G02*
X215982000Y-91881250I0J-231250D01*
G01*
X215982000Y-92418750D01*
G75*
G02*
X215750750Y-92650000I-231250J0D01*
G01*
X215288250Y-92650000D01*
G75*
G02*
X215057000Y-92418750I0J231250D01*
G01*
G37*
G36*
G01*
X213482000Y-92418750D02*
X213482000Y-91881250D01*
G75*
G02*
X213713250Y-91650000I231250J0D01*
G01*
X214175750Y-91650000D01*
G75*
G02*
X214407000Y-91881250I0J-231250D01*
G01*
X214407000Y-92418750D01*
G75*
G02*
X214175750Y-92650000I-231250J0D01*
G01*
X213713250Y-92650000D01*
G75*
G02*
X213482000Y-92418750I0J231250D01*
G01*
G37*
%TD*%
%TO.C,C47*%
G36*
G01*
X212675000Y-97281250D02*
X212675000Y-97818750D01*
G75*
G02*
X212443750Y-98050000I-231250J0D01*
G01*
X211981250Y-98050000D01*
G75*
G02*
X211750000Y-97818750I0J231250D01*
G01*
X211750000Y-97281250D01*
G75*
G02*
X211981250Y-97050000I231250J0D01*
G01*
X212443750Y-97050000D01*
G75*
G02*
X212675000Y-97281250I0J-231250D01*
G01*
G37*
G36*
G01*
X214250000Y-97281250D02*
X214250000Y-97818750D01*
G75*
G02*
X214018750Y-98050000I-231250J0D01*
G01*
X213556250Y-98050000D01*
G75*
G02*
X213325000Y-97818750I0J231250D01*
G01*
X213325000Y-97281250D01*
G75*
G02*
X213556250Y-97050000I231250J0D01*
G01*
X214018750Y-97050000D01*
G75*
G02*
X214250000Y-97281250I0J-231250D01*
G01*
G37*
%TD*%
%TO.C,C41*%
G36*
G01*
X199095000Y-125985000D02*
X199095000Y-125615000D01*
G75*
G02*
X199255000Y-125455000I160000J0D01*
G01*
X199575000Y-125455000D01*
G75*
G02*
X199735000Y-125615000I0J-160000D01*
G01*
X199735000Y-125985000D01*
G75*
G02*
X199575000Y-126145000I-160000J0D01*
G01*
X199255000Y-126145000D01*
G75*
G02*
X199095000Y-125985000I0J160000D01*
G01*
G37*
G36*
G01*
X200065000Y-125985000D02*
X200065000Y-125615000D01*
G75*
G02*
X200225000Y-125455000I160000J0D01*
G01*
X200545000Y-125455000D01*
G75*
G02*
X200705000Y-125615000I0J-160000D01*
G01*
X200705000Y-125985000D01*
G75*
G02*
X200545000Y-126145000I-160000J0D01*
G01*
X200225000Y-126145000D01*
G75*
G02*
X200065000Y-125985000I0J160000D01*
G01*
G37*
%TD*%
%TO.C,C38*%
G36*
G01*
X187033000Y-91509000D02*
X187033000Y-91879000D01*
G75*
G02*
X186873000Y-92039000I-160000J0D01*
G01*
X186553000Y-92039000D01*
G75*
G02*
X186393000Y-91879000I0J160000D01*
G01*
X186393000Y-91509000D01*
G75*
G02*
X186553000Y-91349000I160000J0D01*
G01*
X186873000Y-91349000D01*
G75*
G02*
X187033000Y-91509000I0J-160000D01*
G01*
G37*
G36*
G01*
X188003000Y-91509000D02*
X188003000Y-91879000D01*
G75*
G02*
X187843000Y-92039000I-160000J0D01*
G01*
X187523000Y-92039000D01*
G75*
G02*
X187363000Y-91879000I0J160000D01*
G01*
X187363000Y-91509000D01*
G75*
G02*
X187523000Y-91349000I160000J0D01*
G01*
X187843000Y-91349000D01*
G75*
G02*
X188003000Y-91509000I0J-160000D01*
G01*
G37*
%TD*%
%TO.C,C33*%
G36*
G01*
X186297488Y-94684142D02*
X186035858Y-94422512D01*
G75*
G02*
X186035858Y-94196238I113137J113137D01*
G01*
X186262132Y-93969964D01*
G75*
G02*
X186488406Y-93969964I113137J-113137D01*
G01*
X186750036Y-94231594D01*
G75*
G02*
X186750036Y-94457868I-113137J-113137D01*
G01*
X186523762Y-94684142D01*
G75*
G02*
X186297488Y-94684142I-113137J113137D01*
G01*
G37*
G36*
G01*
X185611594Y-95370036D02*
X185349964Y-95108406D01*
G75*
G02*
X185349964Y-94882132I113137J113137D01*
G01*
X185576238Y-94655858D01*
G75*
G02*
X185802512Y-94655858I113137J-113137D01*
G01*
X186064142Y-94917488D01*
G75*
G02*
X186064142Y-95143762I-113137J-113137D01*
G01*
X185837868Y-95370036D01*
G75*
G02*
X185611594Y-95370036I-113137J113137D01*
G01*
G37*
%TD*%
%TO.C,C31*%
G36*
G01*
X210044250Y-118738000D02*
X210581750Y-118738000D01*
G75*
G02*
X210813000Y-118969250I0J-231250D01*
G01*
X210813000Y-119431750D01*
G75*
G02*
X210581750Y-119663000I-231250J0D01*
G01*
X210044250Y-119663000D01*
G75*
G02*
X209813000Y-119431750I0J231250D01*
G01*
X209813000Y-118969250D01*
G75*
G02*
X210044250Y-118738000I231250J0D01*
G01*
G37*
G36*
G01*
X210044250Y-117163000D02*
X210581750Y-117163000D01*
G75*
G02*
X210813000Y-117394250I0J-231250D01*
G01*
X210813000Y-117856750D01*
G75*
G02*
X210581750Y-118088000I-231250J0D01*
G01*
X210044250Y-118088000D01*
G75*
G02*
X209813000Y-117856750I0J231250D01*
G01*
X209813000Y-117394250D01*
G75*
G02*
X210044250Y-117163000I231250J0D01*
G01*
G37*
%TD*%
%TO.C,C27*%
G36*
G01*
X205531250Y-134050000D02*
X206068750Y-134050000D01*
G75*
G02*
X206300000Y-134281250I0J-231250D01*
G01*
X206300000Y-134743750D01*
G75*
G02*
X206068750Y-134975000I-231250J0D01*
G01*
X205531250Y-134975000D01*
G75*
G02*
X205300000Y-134743750I0J231250D01*
G01*
X205300000Y-134281250D01*
G75*
G02*
X205531250Y-134050000I231250J0D01*
G01*
G37*
G36*
G01*
X205531250Y-132475000D02*
X206068750Y-132475000D01*
G75*
G02*
X206300000Y-132706250I0J-231250D01*
G01*
X206300000Y-133168750D01*
G75*
G02*
X206068750Y-133400000I-231250J0D01*
G01*
X205531250Y-133400000D01*
G75*
G02*
X205300000Y-133168750I0J231250D01*
G01*
X205300000Y-132706250D01*
G75*
G02*
X205531250Y-132475000I231250J0D01*
G01*
G37*
%TD*%
%TO.C,C3*%
G36*
G01*
X178725858Y-107317488D02*
X178987488Y-107055858D01*
G75*
G02*
X179213762Y-107055858I113137J-113137D01*
G01*
X179440036Y-107282132D01*
G75*
G02*
X179440036Y-107508406I-113137J-113137D01*
G01*
X179178406Y-107770036D01*
G75*
G02*
X178952132Y-107770036I-113137J113137D01*
G01*
X178725858Y-107543762D01*
G75*
G02*
X178725858Y-107317488I113137J113137D01*
G01*
G37*
G36*
G01*
X178039964Y-106631594D02*
X178301594Y-106369964D01*
G75*
G02*
X178527868Y-106369964I113137J-113137D01*
G01*
X178754142Y-106596238D01*
G75*
G02*
X178754142Y-106822512I-113137J-113137D01*
G01*
X178492512Y-107084142D01*
G75*
G02*
X178266238Y-107084142I-113137J113137D01*
G01*
X178039964Y-106857868D01*
G75*
G02*
X178039964Y-106631594I113137J113137D01*
G01*
G37*
%TD*%
%TO.C,C1*%
G36*
G01*
X182435858Y-103662488D02*
X182697488Y-103400858D01*
G75*
G02*
X182923762Y-103400858I113137J-113137D01*
G01*
X183150036Y-103627132D01*
G75*
G02*
X183150036Y-103853406I-113137J-113137D01*
G01*
X182888406Y-104115036D01*
G75*
G02*
X182662132Y-104115036I-113137J113137D01*
G01*
X182435858Y-103888762D01*
G75*
G02*
X182435858Y-103662488I113137J113137D01*
G01*
G37*
G36*
G01*
X181749964Y-102976594D02*
X182011594Y-102714964D01*
G75*
G02*
X182237868Y-102714964I113137J-113137D01*
G01*
X182464142Y-102941238D01*
G75*
G02*
X182464142Y-103167512I-113137J-113137D01*
G01*
X182202512Y-103429142D01*
G75*
G02*
X181976238Y-103429142I-113137J113137D01*
G01*
X181749964Y-103202868D01*
G75*
G02*
X181749964Y-102976594I113137J113137D01*
G01*
G37*
%TD*%
M02*
