%TF.GenerationSoftware,KiCad,Pcbnew,5.1.8+dfsg1-1~bpo10+1*%
%TF.CreationDate,2021-01-23T23:31:27+00:00*%
%TF.ProjectId,atlas,61746c61-732e-46b6-9963-61645f706362,rev?*%
%TF.SameCoordinates,Original*%
%TF.FileFunction,Legend,Bot*%
%TF.FilePolarity,Positive*%
%FSLAX46Y46*%
G04 Gerber Fmt 4.6, Leading zero omitted, Abs format (unit mm)*
G04 Created by KiCad (PCBNEW 5.1.8+dfsg1-1~bpo10+1) date 2021-01-23 23:31:27*
%MOMM*%
%LPD*%
G01*
G04 APERTURE LIST*
%ADD10C,0.120000*%
%ADD11C,0.150000*%
G04 APERTURE END LIST*
D10*
%TO.C,C20*%
X205922661Y-106731340D02*
X206248219Y-106731340D01*
X205922661Y-107751340D02*
X206248219Y-107751340D01*
%TO.C,J13*%
X179750000Y-109410000D02*
X179750000Y-110900000D01*
X179750000Y-110900000D02*
X178410000Y-110900000D01*
X179750000Y-104090000D02*
X179750000Y-102600000D01*
X179750000Y-102600000D02*
X178410000Y-102600000D01*
X175690000Y-110900000D02*
X173950000Y-110900000D01*
X173950000Y-110900000D02*
X173950000Y-102600000D01*
X173950000Y-102600000D02*
X175690000Y-102600000D01*
X179750000Y-109410000D02*
X180950000Y-109410000D01*
%TO.C,D6*%
X208325000Y-117600000D02*
X210875000Y-117600000D01*
X208325000Y-116000000D02*
X210875000Y-116000000D01*
X208325000Y-117600000D02*
X208325000Y-116000000D01*
%TO.C,R20*%
X205586000Y-115578221D02*
X205586000Y-115903779D01*
X204566000Y-115578221D02*
X204566000Y-115903779D01*
%TO.C,L10*%
X208250000Y-121200000D02*
X208250000Y-118200000D01*
X211450000Y-121200000D02*
X211450000Y-118200000D01*
%TO.C,Q2*%
X201365000Y-121855000D02*
X202825000Y-121855000D01*
X201365000Y-118695000D02*
X203525000Y-118695000D01*
X201365000Y-118695000D02*
X201365000Y-119625000D01*
X201365000Y-121855000D02*
X201365000Y-120925000D01*
%TO.C,Y4*%
X184358579Y-105503984D02*
X183403984Y-106458579D01*
X185596016Y-106741421D02*
X184641421Y-107696016D01*
%TO.C,J10*%
X202150000Y-108460000D02*
X203350000Y-108460000D01*
X196350000Y-86650000D02*
X198090000Y-86650000D01*
X196350000Y-109950000D02*
X196350000Y-86650000D01*
X198090000Y-109950000D02*
X196350000Y-109950000D01*
X202150000Y-86650000D02*
X200810000Y-86650000D01*
X202150000Y-88140000D02*
X202150000Y-86650000D01*
X202150000Y-109950000D02*
X200810000Y-109950000D01*
X202150000Y-108460000D02*
X202150000Y-109950000D01*
%TO.C,U16*%
X205450000Y-120526000D02*
X205450000Y-118526000D01*
X207670000Y-119526000D02*
X207670000Y-118526000D01*
%TO.C,U5*%
X186790000Y-86010000D02*
X191265000Y-86010000D01*
X186790000Y-86010000D02*
X184165000Y-86010000D01*
X186790000Y-91470000D02*
X189415000Y-91470000D01*
X186790000Y-91470000D02*
X184165000Y-91470000D01*
%TO.C,U3*%
X206380000Y-109112000D02*
X206380000Y-110572000D01*
X209540000Y-109112000D02*
X209540000Y-111272000D01*
X209540000Y-109112000D02*
X208610000Y-109112000D01*
X206380000Y-109112000D02*
X207310000Y-109112000D01*
%TO.C,RN4*%
X207100000Y-91660000D02*
X206600000Y-91660000D01*
X207100000Y-93940000D02*
X206600000Y-93940000D01*
%TO.C,RN3*%
X207100000Y-94160000D02*
X206600000Y-94160000D01*
X207100000Y-96440000D02*
X206600000Y-96440000D01*
%TO.C,RN2*%
X207100000Y-98160000D02*
X206600000Y-98160000D01*
X207100000Y-100440000D02*
X206600000Y-100440000D01*
%TO.C,RN1*%
X207150000Y-102160000D02*
X206650000Y-102160000D01*
X207150000Y-104440000D02*
X206650000Y-104440000D01*
%TO.C,Q5*%
X211610000Y-109030000D02*
X211610000Y-110490000D01*
X214770000Y-109030000D02*
X214770000Y-111190000D01*
X214770000Y-109030000D02*
X213840000Y-109030000D01*
X211610000Y-109030000D02*
X212540000Y-109030000D01*
%TO.C,Q1*%
X197918800Y-121417200D02*
X199378800Y-121417200D01*
X197918800Y-118257200D02*
X200078800Y-118257200D01*
X197918800Y-118257200D02*
X197918800Y-119187200D01*
X197918800Y-121417200D02*
X197918800Y-120487200D01*
%TO.C,J9*%
X203400000Y-114050000D02*
X202200000Y-114050000D01*
X202200000Y-114050000D02*
X202200000Y-113650000D01*
X202200000Y-113650000D02*
X199900000Y-113650000D01*
X199900000Y-113650000D02*
X199900000Y-117850000D01*
X199900000Y-117850000D02*
X202200000Y-117850000D01*
X202200000Y-117850000D02*
X202200000Y-117450000D01*
X202200000Y-117450000D02*
X203400000Y-117450000D01*
X203400000Y-117450000D02*
X203400000Y-114050000D01*
X200600000Y-113650000D02*
X200600000Y-114550000D01*
X200600000Y-114550000D02*
X202900000Y-114550000D01*
X202900000Y-114550000D02*
X202900000Y-116950000D01*
X202900000Y-116950000D02*
X200600000Y-116950000D01*
X200600000Y-116950000D02*
X200600000Y-117850000D01*
X202400000Y-114550000D02*
X202400000Y-116950000D01*
X202400000Y-115000000D02*
X202900000Y-115000000D01*
X202400000Y-115500000D02*
X202900000Y-115500000D01*
X202400000Y-116000000D02*
X202900000Y-116000000D01*
X202400000Y-116500000D02*
X202900000Y-116500000D01*
%TO.C,J6*%
X179750000Y-98310000D02*
X179750000Y-99800000D01*
X179750000Y-99800000D02*
X178410000Y-99800000D01*
X179750000Y-92990000D02*
X179750000Y-91500000D01*
X179750000Y-91500000D02*
X178410000Y-91500000D01*
X175690000Y-99800000D02*
X173950000Y-99800000D01*
X173950000Y-99800000D02*
X173950000Y-91500000D01*
X173950000Y-91500000D02*
X175690000Y-91500000D01*
X179750000Y-98310000D02*
X180950000Y-98310000D01*
%TO.C,C53*%
X206271400Y-90134659D02*
X206271400Y-89809101D01*
X207291400Y-90134659D02*
X207291400Y-89809101D01*
%TO.C,C52*%
X207199221Y-114469000D02*
X207524779Y-114469000D01*
X207199221Y-115489000D02*
X207524779Y-115489000D01*
%TO.C,C51*%
X207874800Y-90024958D02*
X207874800Y-89507802D01*
X209294800Y-90024958D02*
X209294800Y-89507802D01*
%TO.C,C48*%
X206315000Y-123262779D02*
X206315000Y-122937221D01*
X207335000Y-123262779D02*
X207335000Y-122937221D01*
%TO.C,C10*%
X205910000Y-109709221D02*
X205910000Y-110034779D01*
X204890000Y-109709221D02*
X204890000Y-110034779D01*
%TO.C,C9*%
X181770000Y-94522779D02*
X181770000Y-94197221D01*
X182790000Y-94522779D02*
X182790000Y-94197221D01*
%TO.C,C8*%
X211010000Y-109537221D02*
X211010000Y-109862779D01*
X209990000Y-109537221D02*
X209990000Y-109862779D01*
%TO.C,C5*%
X183300000Y-94532779D02*
X183300000Y-94207221D01*
X184320000Y-94532779D02*
X184320000Y-94207221D01*
%TO.C,C28*%
D11*
X210707142Y-111897142D02*
X210754761Y-111849523D01*
X210802380Y-111706666D01*
X210802380Y-111611428D01*
X210754761Y-111468571D01*
X210659523Y-111373333D01*
X210564285Y-111325714D01*
X210373809Y-111278095D01*
X210230952Y-111278095D01*
X210040476Y-111325714D01*
X209945238Y-111373333D01*
X209850000Y-111468571D01*
X209802380Y-111611428D01*
X209802380Y-111706666D01*
X209850000Y-111849523D01*
X209897619Y-111897142D01*
X209897619Y-112278095D02*
X209850000Y-112325714D01*
X209802380Y-112420952D01*
X209802380Y-112659047D01*
X209850000Y-112754285D01*
X209897619Y-112801904D01*
X209992857Y-112849523D01*
X210088095Y-112849523D01*
X210230952Y-112801904D01*
X210802380Y-112230476D01*
X210802380Y-112849523D01*
X210230952Y-113420952D02*
X210183333Y-113325714D01*
X210135714Y-113278095D01*
X210040476Y-113230476D01*
X209992857Y-113230476D01*
X209897619Y-113278095D01*
X209850000Y-113325714D01*
X209802380Y-113420952D01*
X209802380Y-113611428D01*
X209850000Y-113706666D01*
X209897619Y-113754285D01*
X209992857Y-113801904D01*
X210040476Y-113801904D01*
X210135714Y-113754285D01*
X210183333Y-113706666D01*
X210230952Y-113611428D01*
X210230952Y-113420952D01*
X210278571Y-113325714D01*
X210326190Y-113278095D01*
X210421428Y-113230476D01*
X210611904Y-113230476D01*
X210707142Y-113278095D01*
X210754761Y-113325714D01*
X210802380Y-113420952D01*
X210802380Y-113611428D01*
X210754761Y-113706666D01*
X210707142Y-113754285D01*
X210611904Y-113801904D01*
X210421428Y-113801904D01*
X210326190Y-113754285D01*
X210278571Y-113706666D01*
X210230952Y-113611428D01*
%TO.C,C20*%
X206728297Y-109028482D02*
X206775916Y-109076101D01*
X206918773Y-109123720D01*
X207014011Y-109123720D01*
X207156868Y-109076101D01*
X207252106Y-108980863D01*
X207299725Y-108885625D01*
X207347344Y-108695149D01*
X207347344Y-108552292D01*
X207299725Y-108361816D01*
X207252106Y-108266578D01*
X207156868Y-108171340D01*
X207014011Y-108123720D01*
X206918773Y-108123720D01*
X206775916Y-108171340D01*
X206728297Y-108218959D01*
X206347344Y-108218959D02*
X206299725Y-108171340D01*
X206204487Y-108123720D01*
X205966392Y-108123720D01*
X205871154Y-108171340D01*
X205823535Y-108218959D01*
X205775916Y-108314197D01*
X205775916Y-108409435D01*
X205823535Y-108552292D01*
X206394963Y-109123720D01*
X205775916Y-109123720D01*
X205156868Y-108123720D02*
X205061630Y-108123720D01*
X204966392Y-108171340D01*
X204918773Y-108218959D01*
X204871154Y-108314197D01*
X204823535Y-108504673D01*
X204823535Y-108742768D01*
X204871154Y-108933244D01*
X204918773Y-109028482D01*
X204966392Y-109076101D01*
X205061630Y-109123720D01*
X205156868Y-109123720D01*
X205252106Y-109076101D01*
X205299725Y-109028482D01*
X205347344Y-108933244D01*
X205394963Y-108742768D01*
X205394963Y-108504673D01*
X205347344Y-108314197D01*
X205299725Y-108218959D01*
X205252106Y-108171340D01*
X205156868Y-108123720D01*
%TO.C,J13*%
X181602380Y-105940476D02*
X182316666Y-105940476D01*
X182459523Y-105892857D01*
X182554761Y-105797619D01*
X182602380Y-105654761D01*
X182602380Y-105559523D01*
X182602380Y-106940476D02*
X182602380Y-106369047D01*
X182602380Y-106654761D02*
X181602380Y-106654761D01*
X181745238Y-106559523D01*
X181840476Y-106464285D01*
X181888095Y-106369047D01*
X181602380Y-107273809D02*
X181602380Y-107892857D01*
X181983333Y-107559523D01*
X181983333Y-107702380D01*
X182030952Y-107797619D01*
X182078571Y-107845238D01*
X182173809Y-107892857D01*
X182411904Y-107892857D01*
X182507142Y-107845238D01*
X182554761Y-107797619D01*
X182602380Y-107702380D01*
X182602380Y-107416666D01*
X182554761Y-107321428D01*
X182507142Y-107273809D01*
%TO.C,C18*%
X188342857Y-134327142D02*
X188390476Y-134374761D01*
X188533333Y-134422380D01*
X188628571Y-134422380D01*
X188771428Y-134374761D01*
X188866666Y-134279523D01*
X188914285Y-134184285D01*
X188961904Y-133993809D01*
X188961904Y-133850952D01*
X188914285Y-133660476D01*
X188866666Y-133565238D01*
X188771428Y-133470000D01*
X188628571Y-133422380D01*
X188533333Y-133422380D01*
X188390476Y-133470000D01*
X188342857Y-133517619D01*
X187390476Y-134422380D02*
X187961904Y-134422380D01*
X187676190Y-134422380D02*
X187676190Y-133422380D01*
X187771428Y-133565238D01*
X187866666Y-133660476D01*
X187961904Y-133708095D01*
X186819047Y-133850952D02*
X186914285Y-133803333D01*
X186961904Y-133755714D01*
X187009523Y-133660476D01*
X187009523Y-133612857D01*
X186961904Y-133517619D01*
X186914285Y-133470000D01*
X186819047Y-133422380D01*
X186628571Y-133422380D01*
X186533333Y-133470000D01*
X186485714Y-133517619D01*
X186438095Y-133612857D01*
X186438095Y-133660476D01*
X186485714Y-133755714D01*
X186533333Y-133803333D01*
X186628571Y-133850952D01*
X186819047Y-133850952D01*
X186914285Y-133898571D01*
X186961904Y-133946190D01*
X187009523Y-134041428D01*
X187009523Y-134231904D01*
X186961904Y-134327142D01*
X186914285Y-134374761D01*
X186819047Y-134422380D01*
X186628571Y-134422380D01*
X186533333Y-134374761D01*
X186485714Y-134327142D01*
X186438095Y-134231904D01*
X186438095Y-134041428D01*
X186485714Y-133946190D01*
X186533333Y-133898571D01*
X186628571Y-133850952D01*
%TO.C,R31*%
X203667857Y-126472380D02*
X204001190Y-125996190D01*
X204239285Y-126472380D02*
X204239285Y-125472380D01*
X203858333Y-125472380D01*
X203763095Y-125520000D01*
X203715476Y-125567619D01*
X203667857Y-125662857D01*
X203667857Y-125805714D01*
X203715476Y-125900952D01*
X203763095Y-125948571D01*
X203858333Y-125996190D01*
X204239285Y-125996190D01*
X203334523Y-125472380D02*
X202715476Y-125472380D01*
X203048809Y-125853333D01*
X202905952Y-125853333D01*
X202810714Y-125900952D01*
X202763095Y-125948571D01*
X202715476Y-126043809D01*
X202715476Y-126281904D01*
X202763095Y-126377142D01*
X202810714Y-126424761D01*
X202905952Y-126472380D01*
X203191666Y-126472380D01*
X203286904Y-126424761D01*
X203334523Y-126377142D01*
X201763095Y-126472380D02*
X202334523Y-126472380D01*
X202048809Y-126472380D02*
X202048809Y-125472380D01*
X202144047Y-125615238D01*
X202239285Y-125710476D01*
X202334523Y-125758095D01*
%TO.C,D6*%
X210563095Y-118952380D02*
X210563095Y-117952380D01*
X210325000Y-117952380D01*
X210182142Y-118000000D01*
X210086904Y-118095238D01*
X210039285Y-118190476D01*
X209991666Y-118380952D01*
X209991666Y-118523809D01*
X210039285Y-118714285D01*
X210086904Y-118809523D01*
X210182142Y-118904761D01*
X210325000Y-118952380D01*
X210563095Y-118952380D01*
X209134523Y-117952380D02*
X209325000Y-117952380D01*
X209420238Y-118000000D01*
X209467857Y-118047619D01*
X209563095Y-118190476D01*
X209610714Y-118380952D01*
X209610714Y-118761904D01*
X209563095Y-118857142D01*
X209515476Y-118904761D01*
X209420238Y-118952380D01*
X209229761Y-118952380D01*
X209134523Y-118904761D01*
X209086904Y-118857142D01*
X209039285Y-118761904D01*
X209039285Y-118523809D01*
X209086904Y-118428571D01*
X209134523Y-118380952D01*
X209229761Y-118333333D01*
X209420238Y-118333333D01*
X209515476Y-118380952D01*
X209563095Y-118428571D01*
X209610714Y-118523809D01*
%TO.C,R20*%
X204098380Y-115098142D02*
X203622190Y-114764809D01*
X204098380Y-114526714D02*
X203098380Y-114526714D01*
X203098380Y-114907666D01*
X203146000Y-115002904D01*
X203193619Y-115050523D01*
X203288857Y-115098142D01*
X203431714Y-115098142D01*
X203526952Y-115050523D01*
X203574571Y-115002904D01*
X203622190Y-114907666D01*
X203622190Y-114526714D01*
X203193619Y-115479095D02*
X203146000Y-115526714D01*
X203098380Y-115621952D01*
X203098380Y-115860047D01*
X203146000Y-115955285D01*
X203193619Y-116002904D01*
X203288857Y-116050523D01*
X203384095Y-116050523D01*
X203526952Y-116002904D01*
X204098380Y-115431476D01*
X204098380Y-116050523D01*
X203098380Y-116669571D02*
X203098380Y-116764809D01*
X203146000Y-116860047D01*
X203193619Y-116907666D01*
X203288857Y-116955285D01*
X203479333Y-117002904D01*
X203717428Y-117002904D01*
X203907904Y-116955285D01*
X204003142Y-116907666D01*
X204050761Y-116860047D01*
X204098380Y-116764809D01*
X204098380Y-116669571D01*
X204050761Y-116574333D01*
X204003142Y-116526714D01*
X203907904Y-116479095D01*
X203717428Y-116431476D01*
X203479333Y-116431476D01*
X203288857Y-116479095D01*
X203193619Y-116526714D01*
X203146000Y-116574333D01*
X203098380Y-116669571D01*
%TO.C,L10*%
X212802380Y-119057142D02*
X212802380Y-118580952D01*
X211802380Y-118580952D01*
X212802380Y-119914285D02*
X212802380Y-119342857D01*
X212802380Y-119628571D02*
X211802380Y-119628571D01*
X211945238Y-119533333D01*
X212040476Y-119438095D01*
X212088095Y-119342857D01*
X211802380Y-120533333D02*
X211802380Y-120628571D01*
X211850000Y-120723809D01*
X211897619Y-120771428D01*
X211992857Y-120819047D01*
X212183333Y-120866666D01*
X212421428Y-120866666D01*
X212611904Y-120819047D01*
X212707142Y-120771428D01*
X212754761Y-120723809D01*
X212802380Y-120628571D01*
X212802380Y-120533333D01*
X212754761Y-120438095D01*
X212707142Y-120390476D01*
X212611904Y-120342857D01*
X212421428Y-120295238D01*
X212183333Y-120295238D01*
X211992857Y-120342857D01*
X211897619Y-120390476D01*
X211850000Y-120438095D01*
X211802380Y-120533333D01*
%TO.C,Q2*%
X202220238Y-118322619D02*
X202315476Y-118275000D01*
X202410714Y-118179761D01*
X202553571Y-118036904D01*
X202648809Y-117989285D01*
X202744047Y-117989285D01*
X202696428Y-118227380D02*
X202791666Y-118179761D01*
X202886904Y-118084523D01*
X202934523Y-117894047D01*
X202934523Y-117560714D01*
X202886904Y-117370238D01*
X202791666Y-117275000D01*
X202696428Y-117227380D01*
X202505952Y-117227380D01*
X202410714Y-117275000D01*
X202315476Y-117370238D01*
X202267857Y-117560714D01*
X202267857Y-117894047D01*
X202315476Y-118084523D01*
X202410714Y-118179761D01*
X202505952Y-118227380D01*
X202696428Y-118227380D01*
X201886904Y-117322619D02*
X201839285Y-117275000D01*
X201744047Y-117227380D01*
X201505952Y-117227380D01*
X201410714Y-117275000D01*
X201363095Y-117322619D01*
X201315476Y-117417857D01*
X201315476Y-117513095D01*
X201363095Y-117655952D01*
X201934523Y-118227380D01*
X201315476Y-118227380D01*
%TO.C,R44*%
X212842857Y-115622380D02*
X213176190Y-115146190D01*
X213414285Y-115622380D02*
X213414285Y-114622380D01*
X213033333Y-114622380D01*
X212938095Y-114670000D01*
X212890476Y-114717619D01*
X212842857Y-114812857D01*
X212842857Y-114955714D01*
X212890476Y-115050952D01*
X212938095Y-115098571D01*
X213033333Y-115146190D01*
X213414285Y-115146190D01*
X211985714Y-114955714D02*
X211985714Y-115622380D01*
X212223809Y-114574761D02*
X212461904Y-115289047D01*
X211842857Y-115289047D01*
X211033333Y-114955714D02*
X211033333Y-115622380D01*
X211271428Y-114574761D02*
X211509523Y-115289047D01*
X210890476Y-115289047D01*
%TO.C,Y4*%
X183405667Y-104832232D02*
X183742385Y-105168950D01*
X183270980Y-104226141D02*
X183405667Y-104832232D01*
X182799576Y-104697545D01*
X182496530Y-105471995D02*
X182967934Y-105943400D01*
X182395515Y-105034263D02*
X183068950Y-105370980D01*
X182631217Y-105808713D01*
%TO.C,J10*%
X204002380Y-97490476D02*
X204716666Y-97490476D01*
X204859523Y-97442857D01*
X204954761Y-97347619D01*
X205002380Y-97204761D01*
X205002380Y-97109523D01*
X205002380Y-98490476D02*
X205002380Y-97919047D01*
X205002380Y-98204761D02*
X204002380Y-98204761D01*
X204145238Y-98109523D01*
X204240476Y-98014285D01*
X204288095Y-97919047D01*
X204002380Y-99109523D02*
X204002380Y-99204761D01*
X204050000Y-99300000D01*
X204097619Y-99347619D01*
X204192857Y-99395238D01*
X204383333Y-99442857D01*
X204621428Y-99442857D01*
X204811904Y-99395238D01*
X204907142Y-99347619D01*
X204954761Y-99300000D01*
X205002380Y-99204761D01*
X205002380Y-99109523D01*
X204954761Y-99014285D01*
X204907142Y-98966666D01*
X204811904Y-98919047D01*
X204621428Y-98871428D01*
X204383333Y-98871428D01*
X204192857Y-98919047D01*
X204097619Y-98966666D01*
X204050000Y-99014285D01*
X204002380Y-99109523D01*
%TO.C,U11*%
X191516666Y-126516666D02*
X191516666Y-127083333D01*
X191483333Y-127150000D01*
X191450000Y-127183333D01*
X191383333Y-127216666D01*
X191250000Y-127216666D01*
X191183333Y-127183333D01*
X191150000Y-127150000D01*
X191116666Y-127083333D01*
X191116666Y-126516666D01*
X190416666Y-127216666D02*
X190816666Y-127216666D01*
X190616666Y-127216666D02*
X190616666Y-126516666D01*
X190683333Y-126616666D01*
X190750000Y-126683333D01*
X190816666Y-126716666D01*
X189750000Y-127216666D02*
X190150000Y-127216666D01*
X189950000Y-127216666D02*
X189950000Y-126516666D01*
X190016666Y-126616666D01*
X190083333Y-126683333D01*
X190150000Y-126716666D01*
X201950000Y-127216666D02*
X202283333Y-127216666D01*
X202283333Y-126516666D01*
X201683333Y-127216666D02*
X201550000Y-127216666D01*
X201483333Y-127183333D01*
X201450000Y-127150000D01*
X201383333Y-127050000D01*
X201350000Y-126916666D01*
X201350000Y-126650000D01*
X201383333Y-126583333D01*
X201416666Y-126550000D01*
X201483333Y-126516666D01*
X201616666Y-126516666D01*
X201683333Y-126550000D01*
X201716666Y-126583333D01*
X201750000Y-126650000D01*
X201750000Y-126816666D01*
X201716666Y-126883333D01*
X201683333Y-126916666D01*
X201616666Y-126950000D01*
X201483333Y-126950000D01*
X201416666Y-126916666D01*
X201383333Y-126883333D01*
X201350000Y-126816666D01*
X200750000Y-126516666D02*
X200883333Y-126516666D01*
X200950000Y-126550000D01*
X200983333Y-126583333D01*
X201050000Y-126683333D01*
X201083333Y-126816666D01*
X201083333Y-127083333D01*
X201050000Y-127150000D01*
X201016666Y-127183333D01*
X200950000Y-127216666D01*
X200816666Y-127216666D01*
X200750000Y-127183333D01*
X200716666Y-127150000D01*
X200683333Y-127083333D01*
X200683333Y-126916666D01*
X200716666Y-126850000D01*
X200750000Y-126816666D01*
X200816666Y-126783333D01*
X200950000Y-126783333D01*
X201016666Y-126816666D01*
X201050000Y-126850000D01*
X201083333Y-126916666D01*
X200383333Y-126950000D02*
X199850000Y-126950000D01*
X199516666Y-127216666D02*
X199516666Y-126516666D01*
X199283333Y-127016666D01*
X199050000Y-126516666D01*
X199050000Y-127216666D01*
X198783333Y-126516666D02*
X198350000Y-126516666D01*
X198583333Y-126783333D01*
X198483333Y-126783333D01*
X198416666Y-126816666D01*
X198383333Y-126850000D01*
X198350000Y-126916666D01*
X198350000Y-127083333D01*
X198383333Y-127150000D01*
X198416666Y-127183333D01*
X198483333Y-127216666D01*
X198683333Y-127216666D01*
X198750000Y-127183333D01*
X198783333Y-127150000D01*
X198116666Y-126516666D02*
X197683333Y-126516666D01*
X197916666Y-126783333D01*
X197816666Y-126783333D01*
X197750000Y-126816666D01*
X197716666Y-126850000D01*
X197683333Y-126916666D01*
X197683333Y-127083333D01*
X197716666Y-127150000D01*
X197750000Y-127183333D01*
X197816666Y-127216666D01*
X198016666Y-127216666D01*
X198083333Y-127183333D01*
X198116666Y-127150000D01*
%TO.C,U16*%
X209057619Y-120764095D02*
X208248095Y-120764095D01*
X208152857Y-120716476D01*
X208105238Y-120668857D01*
X208057619Y-120573619D01*
X208057619Y-120383142D01*
X208105238Y-120287904D01*
X208152857Y-120240285D01*
X208248095Y-120192666D01*
X209057619Y-120192666D01*
X208057619Y-119192666D02*
X208057619Y-119764095D01*
X208057619Y-119478380D02*
X209057619Y-119478380D01*
X208914761Y-119573619D01*
X208819523Y-119668857D01*
X208771904Y-119764095D01*
X209057619Y-118335523D02*
X209057619Y-118526000D01*
X209010000Y-118621238D01*
X208962380Y-118668857D01*
X208819523Y-118764095D01*
X208629047Y-118811714D01*
X208248095Y-118811714D01*
X208152857Y-118764095D01*
X208105238Y-118716476D01*
X208057619Y-118621238D01*
X208057619Y-118430761D01*
X208105238Y-118335523D01*
X208152857Y-118287904D01*
X208248095Y-118240285D01*
X208486190Y-118240285D01*
X208581428Y-118287904D01*
X208629047Y-118335523D01*
X208676666Y-118430761D01*
X208676666Y-118621238D01*
X208629047Y-118716476D01*
X208581428Y-118764095D01*
X208486190Y-118811714D01*
%TO.C,U5*%
X187551904Y-84622380D02*
X187551904Y-85431904D01*
X187504285Y-85527142D01*
X187456666Y-85574761D01*
X187361428Y-85622380D01*
X187170952Y-85622380D01*
X187075714Y-85574761D01*
X187028095Y-85527142D01*
X186980476Y-85431904D01*
X186980476Y-84622380D01*
X186028095Y-84622380D02*
X186504285Y-84622380D01*
X186551904Y-85098571D01*
X186504285Y-85050952D01*
X186409047Y-85003333D01*
X186170952Y-85003333D01*
X186075714Y-85050952D01*
X186028095Y-85098571D01*
X185980476Y-85193809D01*
X185980476Y-85431904D01*
X186028095Y-85527142D01*
X186075714Y-85574761D01*
X186170952Y-85622380D01*
X186409047Y-85622380D01*
X186504285Y-85574761D01*
X186551904Y-85527142D01*
%TO.C,U3*%
X209912380Y-109110095D02*
X210721904Y-109110095D01*
X210817142Y-109157714D01*
X210864761Y-109205333D01*
X210912380Y-109300571D01*
X210912380Y-109491047D01*
X210864761Y-109586285D01*
X210817142Y-109633904D01*
X210721904Y-109681523D01*
X209912380Y-109681523D01*
X209912380Y-110062476D02*
X209912380Y-110681523D01*
X210293333Y-110348190D01*
X210293333Y-110491047D01*
X210340952Y-110586285D01*
X210388571Y-110633904D01*
X210483809Y-110681523D01*
X210721904Y-110681523D01*
X210817142Y-110633904D01*
X210864761Y-110586285D01*
X210912380Y-110491047D01*
X210912380Y-110205333D01*
X210864761Y-110110095D01*
X210817142Y-110062476D01*
%TO.C,RN4*%
X207540476Y-95352380D02*
X207873809Y-94876190D01*
X208111904Y-95352380D02*
X208111904Y-94352380D01*
X207730952Y-94352380D01*
X207635714Y-94400000D01*
X207588095Y-94447619D01*
X207540476Y-94542857D01*
X207540476Y-94685714D01*
X207588095Y-94780952D01*
X207635714Y-94828571D01*
X207730952Y-94876190D01*
X208111904Y-94876190D01*
X207111904Y-95352380D02*
X207111904Y-94352380D01*
X206540476Y-95352380D01*
X206540476Y-94352380D01*
X205635714Y-94685714D02*
X205635714Y-95352380D01*
X205873809Y-94304761D02*
X206111904Y-95019047D01*
X205492857Y-95019047D01*
%TO.C,RN3*%
X207540476Y-97852380D02*
X207873809Y-97376190D01*
X208111904Y-97852380D02*
X208111904Y-96852380D01*
X207730952Y-96852380D01*
X207635714Y-96900000D01*
X207588095Y-96947619D01*
X207540476Y-97042857D01*
X207540476Y-97185714D01*
X207588095Y-97280952D01*
X207635714Y-97328571D01*
X207730952Y-97376190D01*
X208111904Y-97376190D01*
X207111904Y-97852380D02*
X207111904Y-96852380D01*
X206540476Y-97852380D01*
X206540476Y-96852380D01*
X206159523Y-96852380D02*
X205540476Y-96852380D01*
X205873809Y-97233333D01*
X205730952Y-97233333D01*
X205635714Y-97280952D01*
X205588095Y-97328571D01*
X205540476Y-97423809D01*
X205540476Y-97661904D01*
X205588095Y-97757142D01*
X205635714Y-97804761D01*
X205730952Y-97852380D01*
X206016666Y-97852380D01*
X206111904Y-97804761D01*
X206159523Y-97757142D01*
%TO.C,RN2*%
X207540476Y-101852380D02*
X207873809Y-101376190D01*
X208111904Y-101852380D02*
X208111904Y-100852380D01*
X207730952Y-100852380D01*
X207635714Y-100900000D01*
X207588095Y-100947619D01*
X207540476Y-101042857D01*
X207540476Y-101185714D01*
X207588095Y-101280952D01*
X207635714Y-101328571D01*
X207730952Y-101376190D01*
X208111904Y-101376190D01*
X207111904Y-101852380D02*
X207111904Y-100852380D01*
X206540476Y-101852380D01*
X206540476Y-100852380D01*
X206111904Y-100947619D02*
X206064285Y-100900000D01*
X205969047Y-100852380D01*
X205730952Y-100852380D01*
X205635714Y-100900000D01*
X205588095Y-100947619D01*
X205540476Y-101042857D01*
X205540476Y-101138095D01*
X205588095Y-101280952D01*
X206159523Y-101852380D01*
X205540476Y-101852380D01*
%TO.C,RN1*%
X207590476Y-105852380D02*
X207923809Y-105376190D01*
X208161904Y-105852380D02*
X208161904Y-104852380D01*
X207780952Y-104852380D01*
X207685714Y-104900000D01*
X207638095Y-104947619D01*
X207590476Y-105042857D01*
X207590476Y-105185714D01*
X207638095Y-105280952D01*
X207685714Y-105328571D01*
X207780952Y-105376190D01*
X208161904Y-105376190D01*
X207161904Y-105852380D02*
X207161904Y-104852380D01*
X206590476Y-105852380D01*
X206590476Y-104852380D01*
X205590476Y-105852380D02*
X206161904Y-105852380D01*
X205876190Y-105852380D02*
X205876190Y-104852380D01*
X205971428Y-104995238D01*
X206066666Y-105090476D01*
X206161904Y-105138095D01*
%TO.C,R86*%
X215772380Y-111897142D02*
X215296190Y-111563809D01*
X215772380Y-111325714D02*
X214772380Y-111325714D01*
X214772380Y-111706666D01*
X214820000Y-111801904D01*
X214867619Y-111849523D01*
X214962857Y-111897142D01*
X215105714Y-111897142D01*
X215200952Y-111849523D01*
X215248571Y-111801904D01*
X215296190Y-111706666D01*
X215296190Y-111325714D01*
X215200952Y-112468571D02*
X215153333Y-112373333D01*
X215105714Y-112325714D01*
X215010476Y-112278095D01*
X214962857Y-112278095D01*
X214867619Y-112325714D01*
X214820000Y-112373333D01*
X214772380Y-112468571D01*
X214772380Y-112659047D01*
X214820000Y-112754285D01*
X214867619Y-112801904D01*
X214962857Y-112849523D01*
X215010476Y-112849523D01*
X215105714Y-112801904D01*
X215153333Y-112754285D01*
X215200952Y-112659047D01*
X215200952Y-112468571D01*
X215248571Y-112373333D01*
X215296190Y-112325714D01*
X215391428Y-112278095D01*
X215581904Y-112278095D01*
X215677142Y-112325714D01*
X215724761Y-112373333D01*
X215772380Y-112468571D01*
X215772380Y-112659047D01*
X215724761Y-112754285D01*
X215677142Y-112801904D01*
X215581904Y-112849523D01*
X215391428Y-112849523D01*
X215296190Y-112801904D01*
X215248571Y-112754285D01*
X215200952Y-112659047D01*
X214772380Y-113706666D02*
X214772380Y-113516190D01*
X214820000Y-113420952D01*
X214867619Y-113373333D01*
X215010476Y-113278095D01*
X215200952Y-113230476D01*
X215581904Y-113230476D01*
X215677142Y-113278095D01*
X215724761Y-113325714D01*
X215772380Y-113420952D01*
X215772380Y-113611428D01*
X215724761Y-113706666D01*
X215677142Y-113754285D01*
X215581904Y-113801904D01*
X215343809Y-113801904D01*
X215248571Y-113754285D01*
X215200952Y-113706666D01*
X215153333Y-113611428D01*
X215153333Y-113420952D01*
X215200952Y-113325714D01*
X215248571Y-113278095D01*
X215343809Y-113230476D01*
%TO.C,R85*%
X209752380Y-111897142D02*
X209276190Y-111563809D01*
X209752380Y-111325714D02*
X208752380Y-111325714D01*
X208752380Y-111706666D01*
X208800000Y-111801904D01*
X208847619Y-111849523D01*
X208942857Y-111897142D01*
X209085714Y-111897142D01*
X209180952Y-111849523D01*
X209228571Y-111801904D01*
X209276190Y-111706666D01*
X209276190Y-111325714D01*
X209180952Y-112468571D02*
X209133333Y-112373333D01*
X209085714Y-112325714D01*
X208990476Y-112278095D01*
X208942857Y-112278095D01*
X208847619Y-112325714D01*
X208800000Y-112373333D01*
X208752380Y-112468571D01*
X208752380Y-112659047D01*
X208800000Y-112754285D01*
X208847619Y-112801904D01*
X208942857Y-112849523D01*
X208990476Y-112849523D01*
X209085714Y-112801904D01*
X209133333Y-112754285D01*
X209180952Y-112659047D01*
X209180952Y-112468571D01*
X209228571Y-112373333D01*
X209276190Y-112325714D01*
X209371428Y-112278095D01*
X209561904Y-112278095D01*
X209657142Y-112325714D01*
X209704761Y-112373333D01*
X209752380Y-112468571D01*
X209752380Y-112659047D01*
X209704761Y-112754285D01*
X209657142Y-112801904D01*
X209561904Y-112849523D01*
X209371428Y-112849523D01*
X209276190Y-112801904D01*
X209228571Y-112754285D01*
X209180952Y-112659047D01*
X208752380Y-113754285D02*
X208752380Y-113278095D01*
X209228571Y-113230476D01*
X209180952Y-113278095D01*
X209133333Y-113373333D01*
X209133333Y-113611428D01*
X209180952Y-113706666D01*
X209228571Y-113754285D01*
X209323809Y-113801904D01*
X209561904Y-113801904D01*
X209657142Y-113754285D01*
X209704761Y-113706666D01*
X209752380Y-113611428D01*
X209752380Y-113373333D01*
X209704761Y-113278095D01*
X209657142Y-113230476D01*
%TO.C,R84*%
X204067340Y-86265782D02*
X203591150Y-85932449D01*
X204067340Y-85694354D02*
X203067340Y-85694354D01*
X203067340Y-86075306D01*
X203114960Y-86170544D01*
X203162579Y-86218163D01*
X203257817Y-86265782D01*
X203400674Y-86265782D01*
X203495912Y-86218163D01*
X203543531Y-86170544D01*
X203591150Y-86075306D01*
X203591150Y-85694354D01*
X203495912Y-86837211D02*
X203448293Y-86741973D01*
X203400674Y-86694354D01*
X203305436Y-86646735D01*
X203257817Y-86646735D01*
X203162579Y-86694354D01*
X203114960Y-86741973D01*
X203067340Y-86837211D01*
X203067340Y-87027687D01*
X203114960Y-87122925D01*
X203162579Y-87170544D01*
X203257817Y-87218163D01*
X203305436Y-87218163D01*
X203400674Y-87170544D01*
X203448293Y-87122925D01*
X203495912Y-87027687D01*
X203495912Y-86837211D01*
X203543531Y-86741973D01*
X203591150Y-86694354D01*
X203686388Y-86646735D01*
X203876864Y-86646735D01*
X203972102Y-86694354D01*
X204019721Y-86741973D01*
X204067340Y-86837211D01*
X204067340Y-87027687D01*
X204019721Y-87122925D01*
X203972102Y-87170544D01*
X203876864Y-87218163D01*
X203686388Y-87218163D01*
X203591150Y-87170544D01*
X203543531Y-87122925D01*
X203495912Y-87027687D01*
X203400674Y-88075306D02*
X204067340Y-88075306D01*
X203019721Y-87837211D02*
X203734007Y-87599116D01*
X203734007Y-88218163D01*
%TO.C,R83*%
X205098580Y-86265782D02*
X204622390Y-85932449D01*
X205098580Y-85694354D02*
X204098580Y-85694354D01*
X204098580Y-86075306D01*
X204146200Y-86170544D01*
X204193819Y-86218163D01*
X204289057Y-86265782D01*
X204431914Y-86265782D01*
X204527152Y-86218163D01*
X204574771Y-86170544D01*
X204622390Y-86075306D01*
X204622390Y-85694354D01*
X204527152Y-86837211D02*
X204479533Y-86741973D01*
X204431914Y-86694354D01*
X204336676Y-86646735D01*
X204289057Y-86646735D01*
X204193819Y-86694354D01*
X204146200Y-86741973D01*
X204098580Y-86837211D01*
X204098580Y-87027687D01*
X204146200Y-87122925D01*
X204193819Y-87170544D01*
X204289057Y-87218163D01*
X204336676Y-87218163D01*
X204431914Y-87170544D01*
X204479533Y-87122925D01*
X204527152Y-87027687D01*
X204527152Y-86837211D01*
X204574771Y-86741973D01*
X204622390Y-86694354D01*
X204717628Y-86646735D01*
X204908104Y-86646735D01*
X205003342Y-86694354D01*
X205050961Y-86741973D01*
X205098580Y-86837211D01*
X205098580Y-87027687D01*
X205050961Y-87122925D01*
X205003342Y-87170544D01*
X204908104Y-87218163D01*
X204717628Y-87218163D01*
X204622390Y-87170544D01*
X204574771Y-87122925D01*
X204527152Y-87027687D01*
X204098580Y-87551497D02*
X204098580Y-88170544D01*
X204479533Y-87837211D01*
X204479533Y-87980068D01*
X204527152Y-88075306D01*
X204574771Y-88122925D01*
X204670009Y-88170544D01*
X204908104Y-88170544D01*
X205003342Y-88122925D01*
X205050961Y-88075306D01*
X205098580Y-87980068D01*
X205098580Y-87694354D01*
X205050961Y-87599116D01*
X205003342Y-87551497D01*
%TO.C,R82*%
X206129820Y-86265782D02*
X205653630Y-85932449D01*
X206129820Y-85694354D02*
X205129820Y-85694354D01*
X205129820Y-86075306D01*
X205177440Y-86170544D01*
X205225059Y-86218163D01*
X205320297Y-86265782D01*
X205463154Y-86265782D01*
X205558392Y-86218163D01*
X205606011Y-86170544D01*
X205653630Y-86075306D01*
X205653630Y-85694354D01*
X205558392Y-86837211D02*
X205510773Y-86741973D01*
X205463154Y-86694354D01*
X205367916Y-86646735D01*
X205320297Y-86646735D01*
X205225059Y-86694354D01*
X205177440Y-86741973D01*
X205129820Y-86837211D01*
X205129820Y-87027687D01*
X205177440Y-87122925D01*
X205225059Y-87170544D01*
X205320297Y-87218163D01*
X205367916Y-87218163D01*
X205463154Y-87170544D01*
X205510773Y-87122925D01*
X205558392Y-87027687D01*
X205558392Y-86837211D01*
X205606011Y-86741973D01*
X205653630Y-86694354D01*
X205748868Y-86646735D01*
X205939344Y-86646735D01*
X206034582Y-86694354D01*
X206082201Y-86741973D01*
X206129820Y-86837211D01*
X206129820Y-87027687D01*
X206082201Y-87122925D01*
X206034582Y-87170544D01*
X205939344Y-87218163D01*
X205748868Y-87218163D01*
X205653630Y-87170544D01*
X205606011Y-87122925D01*
X205558392Y-87027687D01*
X205225059Y-87599116D02*
X205177440Y-87646735D01*
X205129820Y-87741973D01*
X205129820Y-87980068D01*
X205177440Y-88075306D01*
X205225059Y-88122925D01*
X205320297Y-88170544D01*
X205415535Y-88170544D01*
X205558392Y-88122925D01*
X206129820Y-87551497D01*
X206129820Y-88170544D01*
%TO.C,R79*%
X205882380Y-116114142D02*
X205406190Y-115780809D01*
X205882380Y-115542714D02*
X204882380Y-115542714D01*
X204882380Y-115923666D01*
X204930000Y-116018904D01*
X204977619Y-116066523D01*
X205072857Y-116114142D01*
X205215714Y-116114142D01*
X205310952Y-116066523D01*
X205358571Y-116018904D01*
X205406190Y-115923666D01*
X205406190Y-115542714D01*
X204882380Y-116447476D02*
X204882380Y-117114142D01*
X205882380Y-116685571D01*
X205882380Y-117542714D02*
X205882380Y-117733190D01*
X205834761Y-117828428D01*
X205787142Y-117876047D01*
X205644285Y-117971285D01*
X205453809Y-118018904D01*
X205072857Y-118018904D01*
X204977619Y-117971285D01*
X204930000Y-117923666D01*
X204882380Y-117828428D01*
X204882380Y-117637952D01*
X204930000Y-117542714D01*
X204977619Y-117495095D01*
X205072857Y-117447476D01*
X205310952Y-117447476D01*
X205406190Y-117495095D01*
X205453809Y-117542714D01*
X205501428Y-117637952D01*
X205501428Y-117828428D01*
X205453809Y-117923666D01*
X205406190Y-117971285D01*
X205310952Y-118018904D01*
%TO.C,R78*%
X209238380Y-116091142D02*
X208762190Y-115757809D01*
X209238380Y-115519714D02*
X208238380Y-115519714D01*
X208238380Y-115900666D01*
X208286000Y-115995904D01*
X208333619Y-116043523D01*
X208428857Y-116091142D01*
X208571714Y-116091142D01*
X208666952Y-116043523D01*
X208714571Y-115995904D01*
X208762190Y-115900666D01*
X208762190Y-115519714D01*
X208238380Y-116424476D02*
X208238380Y-117091142D01*
X209238380Y-116662571D01*
X208666952Y-117614952D02*
X208619333Y-117519714D01*
X208571714Y-117472095D01*
X208476476Y-117424476D01*
X208428857Y-117424476D01*
X208333619Y-117472095D01*
X208286000Y-117519714D01*
X208238380Y-117614952D01*
X208238380Y-117805428D01*
X208286000Y-117900666D01*
X208333619Y-117948285D01*
X208428857Y-117995904D01*
X208476476Y-117995904D01*
X208571714Y-117948285D01*
X208619333Y-117900666D01*
X208666952Y-117805428D01*
X208666952Y-117614952D01*
X208714571Y-117519714D01*
X208762190Y-117472095D01*
X208857428Y-117424476D01*
X209047904Y-117424476D01*
X209143142Y-117472095D01*
X209190761Y-117519714D01*
X209238380Y-117614952D01*
X209238380Y-117805428D01*
X209190761Y-117900666D01*
X209143142Y-117948285D01*
X209047904Y-117995904D01*
X208857428Y-117995904D01*
X208762190Y-117948285D01*
X208714571Y-117900666D01*
X208666952Y-117805428D01*
%TO.C,R47*%
X206197380Y-122442142D02*
X205721190Y-122108809D01*
X206197380Y-121870714D02*
X205197380Y-121870714D01*
X205197380Y-122251666D01*
X205245000Y-122346904D01*
X205292619Y-122394523D01*
X205387857Y-122442142D01*
X205530714Y-122442142D01*
X205625952Y-122394523D01*
X205673571Y-122346904D01*
X205721190Y-122251666D01*
X205721190Y-121870714D01*
X205530714Y-123299285D02*
X206197380Y-123299285D01*
X205149761Y-123061190D02*
X205864047Y-122823095D01*
X205864047Y-123442142D01*
X205197380Y-123727857D02*
X205197380Y-124394523D01*
X206197380Y-123965952D01*
%TO.C,R42*%
X190492857Y-91732380D02*
X190826190Y-91256190D01*
X191064285Y-91732380D02*
X191064285Y-90732380D01*
X190683333Y-90732380D01*
X190588095Y-90780000D01*
X190540476Y-90827619D01*
X190492857Y-90922857D01*
X190492857Y-91065714D01*
X190540476Y-91160952D01*
X190588095Y-91208571D01*
X190683333Y-91256190D01*
X191064285Y-91256190D01*
X189635714Y-91065714D02*
X189635714Y-91732380D01*
X189873809Y-90684761D02*
X190111904Y-91399047D01*
X189492857Y-91399047D01*
X189159523Y-90827619D02*
X189111904Y-90780000D01*
X189016666Y-90732380D01*
X188778571Y-90732380D01*
X188683333Y-90780000D01*
X188635714Y-90827619D01*
X188588095Y-90922857D01*
X188588095Y-91018095D01*
X188635714Y-91160952D01*
X189207142Y-91732380D01*
X188588095Y-91732380D01*
%TO.C,R41*%
X190342857Y-121822380D02*
X190676190Y-121346190D01*
X190914285Y-121822380D02*
X190914285Y-120822380D01*
X190533333Y-120822380D01*
X190438095Y-120870000D01*
X190390476Y-120917619D01*
X190342857Y-121012857D01*
X190342857Y-121155714D01*
X190390476Y-121250952D01*
X190438095Y-121298571D01*
X190533333Y-121346190D01*
X190914285Y-121346190D01*
X189485714Y-121155714D02*
X189485714Y-121822380D01*
X189723809Y-120774761D02*
X189961904Y-121489047D01*
X189342857Y-121489047D01*
X188438095Y-121822380D02*
X189009523Y-121822380D01*
X188723809Y-121822380D02*
X188723809Y-120822380D01*
X188819047Y-120965238D01*
X188914285Y-121060476D01*
X189009523Y-121108095D01*
%TO.C,R39*%
X187482380Y-137157142D02*
X187006190Y-136823809D01*
X187482380Y-136585714D02*
X186482380Y-136585714D01*
X186482380Y-136966666D01*
X186530000Y-137061904D01*
X186577619Y-137109523D01*
X186672857Y-137157142D01*
X186815714Y-137157142D01*
X186910952Y-137109523D01*
X186958571Y-137061904D01*
X187006190Y-136966666D01*
X187006190Y-136585714D01*
X186482380Y-137490476D02*
X186482380Y-138109523D01*
X186863333Y-137776190D01*
X186863333Y-137919047D01*
X186910952Y-138014285D01*
X186958571Y-138061904D01*
X187053809Y-138109523D01*
X187291904Y-138109523D01*
X187387142Y-138061904D01*
X187434761Y-138014285D01*
X187482380Y-137919047D01*
X187482380Y-137633333D01*
X187434761Y-137538095D01*
X187387142Y-137490476D01*
X187482380Y-138585714D02*
X187482380Y-138776190D01*
X187434761Y-138871428D01*
X187387142Y-138919047D01*
X187244285Y-139014285D01*
X187053809Y-139061904D01*
X186672857Y-139061904D01*
X186577619Y-139014285D01*
X186530000Y-138966666D01*
X186482380Y-138871428D01*
X186482380Y-138680952D01*
X186530000Y-138585714D01*
X186577619Y-138538095D01*
X186672857Y-138490476D01*
X186910952Y-138490476D01*
X187006190Y-138538095D01*
X187053809Y-138585714D01*
X187101428Y-138680952D01*
X187101428Y-138871428D01*
X187053809Y-138966666D01*
X187006190Y-139014285D01*
X186910952Y-139061904D01*
%TO.C,R36*%
X196742857Y-123832380D02*
X197076190Y-123356190D01*
X197314285Y-123832380D02*
X197314285Y-122832380D01*
X196933333Y-122832380D01*
X196838095Y-122880000D01*
X196790476Y-122927619D01*
X196742857Y-123022857D01*
X196742857Y-123165714D01*
X196790476Y-123260952D01*
X196838095Y-123308571D01*
X196933333Y-123356190D01*
X197314285Y-123356190D01*
X196409523Y-122832380D02*
X195790476Y-122832380D01*
X196123809Y-123213333D01*
X195980952Y-123213333D01*
X195885714Y-123260952D01*
X195838095Y-123308571D01*
X195790476Y-123403809D01*
X195790476Y-123641904D01*
X195838095Y-123737142D01*
X195885714Y-123784761D01*
X195980952Y-123832380D01*
X196266666Y-123832380D01*
X196361904Y-123784761D01*
X196409523Y-123737142D01*
X194933333Y-122832380D02*
X195123809Y-122832380D01*
X195219047Y-122880000D01*
X195266666Y-122927619D01*
X195361904Y-123070476D01*
X195409523Y-123260952D01*
X195409523Y-123641904D01*
X195361904Y-123737142D01*
X195314285Y-123784761D01*
X195219047Y-123832380D01*
X195028571Y-123832380D01*
X194933333Y-123784761D01*
X194885714Y-123737142D01*
X194838095Y-123641904D01*
X194838095Y-123403809D01*
X194885714Y-123308571D01*
X194933333Y-123260952D01*
X195028571Y-123213333D01*
X195219047Y-123213333D01*
X195314285Y-123260952D01*
X195361904Y-123308571D01*
X195409523Y-123403809D01*
%TO.C,R35*%
X190342857Y-120822380D02*
X190676190Y-120346190D01*
X190914285Y-120822380D02*
X190914285Y-119822380D01*
X190533333Y-119822380D01*
X190438095Y-119870000D01*
X190390476Y-119917619D01*
X190342857Y-120012857D01*
X190342857Y-120155714D01*
X190390476Y-120250952D01*
X190438095Y-120298571D01*
X190533333Y-120346190D01*
X190914285Y-120346190D01*
X190009523Y-119822380D02*
X189390476Y-119822380D01*
X189723809Y-120203333D01*
X189580952Y-120203333D01*
X189485714Y-120250952D01*
X189438095Y-120298571D01*
X189390476Y-120393809D01*
X189390476Y-120631904D01*
X189438095Y-120727142D01*
X189485714Y-120774761D01*
X189580952Y-120822380D01*
X189866666Y-120822380D01*
X189961904Y-120774761D01*
X190009523Y-120727142D01*
X188485714Y-119822380D02*
X188961904Y-119822380D01*
X189009523Y-120298571D01*
X188961904Y-120250952D01*
X188866666Y-120203333D01*
X188628571Y-120203333D01*
X188533333Y-120250952D01*
X188485714Y-120298571D01*
X188438095Y-120393809D01*
X188438095Y-120631904D01*
X188485714Y-120727142D01*
X188533333Y-120774761D01*
X188628571Y-120822380D01*
X188866666Y-120822380D01*
X188961904Y-120774761D01*
X189009523Y-120727142D01*
%TO.C,R33*%
X190342857Y-119822380D02*
X190676190Y-119346190D01*
X190914285Y-119822380D02*
X190914285Y-118822380D01*
X190533333Y-118822380D01*
X190438095Y-118870000D01*
X190390476Y-118917619D01*
X190342857Y-119012857D01*
X190342857Y-119155714D01*
X190390476Y-119250952D01*
X190438095Y-119298571D01*
X190533333Y-119346190D01*
X190914285Y-119346190D01*
X190009523Y-118822380D02*
X189390476Y-118822380D01*
X189723809Y-119203333D01*
X189580952Y-119203333D01*
X189485714Y-119250952D01*
X189438095Y-119298571D01*
X189390476Y-119393809D01*
X189390476Y-119631904D01*
X189438095Y-119727142D01*
X189485714Y-119774761D01*
X189580952Y-119822380D01*
X189866666Y-119822380D01*
X189961904Y-119774761D01*
X190009523Y-119727142D01*
X189057142Y-118822380D02*
X188438095Y-118822380D01*
X188771428Y-119203333D01*
X188628571Y-119203333D01*
X188533333Y-119250952D01*
X188485714Y-119298571D01*
X188438095Y-119393809D01*
X188438095Y-119631904D01*
X188485714Y-119727142D01*
X188533333Y-119774761D01*
X188628571Y-119822380D01*
X188914285Y-119822380D01*
X189009523Y-119774761D01*
X189057142Y-119727142D01*
%TO.C,R32*%
X205592857Y-126472380D02*
X205926190Y-125996190D01*
X206164285Y-126472380D02*
X206164285Y-125472380D01*
X205783333Y-125472380D01*
X205688095Y-125520000D01*
X205640476Y-125567619D01*
X205592857Y-125662857D01*
X205592857Y-125805714D01*
X205640476Y-125900952D01*
X205688095Y-125948571D01*
X205783333Y-125996190D01*
X206164285Y-125996190D01*
X205259523Y-125472380D02*
X204640476Y-125472380D01*
X204973809Y-125853333D01*
X204830952Y-125853333D01*
X204735714Y-125900952D01*
X204688095Y-125948571D01*
X204640476Y-126043809D01*
X204640476Y-126281904D01*
X204688095Y-126377142D01*
X204735714Y-126424761D01*
X204830952Y-126472380D01*
X205116666Y-126472380D01*
X205211904Y-126424761D01*
X205259523Y-126377142D01*
X204259523Y-125567619D02*
X204211904Y-125520000D01*
X204116666Y-125472380D01*
X203878571Y-125472380D01*
X203783333Y-125520000D01*
X203735714Y-125567619D01*
X203688095Y-125662857D01*
X203688095Y-125758095D01*
X203735714Y-125900952D01*
X204307142Y-126472380D01*
X203688095Y-126472380D01*
%TO.C,R27*%
X192472380Y-100457142D02*
X191996190Y-100123809D01*
X192472380Y-99885714D02*
X191472380Y-99885714D01*
X191472380Y-100266666D01*
X191520000Y-100361904D01*
X191567619Y-100409523D01*
X191662857Y-100457142D01*
X191805714Y-100457142D01*
X191900952Y-100409523D01*
X191948571Y-100361904D01*
X191996190Y-100266666D01*
X191996190Y-99885714D01*
X191567619Y-100838095D02*
X191520000Y-100885714D01*
X191472380Y-100980952D01*
X191472380Y-101219047D01*
X191520000Y-101314285D01*
X191567619Y-101361904D01*
X191662857Y-101409523D01*
X191758095Y-101409523D01*
X191900952Y-101361904D01*
X192472380Y-100790476D01*
X192472380Y-101409523D01*
X191472380Y-101742857D02*
X191472380Y-102409523D01*
X192472380Y-101980952D01*
%TO.C,R26*%
X189182380Y-100457142D02*
X188706190Y-100123809D01*
X189182380Y-99885714D02*
X188182380Y-99885714D01*
X188182380Y-100266666D01*
X188230000Y-100361904D01*
X188277619Y-100409523D01*
X188372857Y-100457142D01*
X188515714Y-100457142D01*
X188610952Y-100409523D01*
X188658571Y-100361904D01*
X188706190Y-100266666D01*
X188706190Y-99885714D01*
X188277619Y-100838095D02*
X188230000Y-100885714D01*
X188182380Y-100980952D01*
X188182380Y-101219047D01*
X188230000Y-101314285D01*
X188277619Y-101361904D01*
X188372857Y-101409523D01*
X188468095Y-101409523D01*
X188610952Y-101361904D01*
X189182380Y-100790476D01*
X189182380Y-101409523D01*
X188182380Y-102266666D02*
X188182380Y-102076190D01*
X188230000Y-101980952D01*
X188277619Y-101933333D01*
X188420476Y-101838095D01*
X188610952Y-101790476D01*
X188991904Y-101790476D01*
X189087142Y-101838095D01*
X189134761Y-101885714D01*
X189182380Y-101980952D01*
X189182380Y-102171428D01*
X189134761Y-102266666D01*
X189087142Y-102314285D01*
X188991904Y-102361904D01*
X188753809Y-102361904D01*
X188658571Y-102314285D01*
X188610952Y-102266666D01*
X188563333Y-102171428D01*
X188563333Y-101980952D01*
X188610952Y-101885714D01*
X188658571Y-101838095D01*
X188753809Y-101790476D01*
%TO.C,R22*%
X188342857Y-130082380D02*
X188676190Y-129606190D01*
X188914285Y-130082380D02*
X188914285Y-129082380D01*
X188533333Y-129082380D01*
X188438095Y-129130000D01*
X188390476Y-129177619D01*
X188342857Y-129272857D01*
X188342857Y-129415714D01*
X188390476Y-129510952D01*
X188438095Y-129558571D01*
X188533333Y-129606190D01*
X188914285Y-129606190D01*
X187961904Y-129177619D02*
X187914285Y-129130000D01*
X187819047Y-129082380D01*
X187580952Y-129082380D01*
X187485714Y-129130000D01*
X187438095Y-129177619D01*
X187390476Y-129272857D01*
X187390476Y-129368095D01*
X187438095Y-129510952D01*
X188009523Y-130082380D01*
X187390476Y-130082380D01*
X187009523Y-129177619D02*
X186961904Y-129130000D01*
X186866666Y-129082380D01*
X186628571Y-129082380D01*
X186533333Y-129130000D01*
X186485714Y-129177619D01*
X186438095Y-129272857D01*
X186438095Y-129368095D01*
X186485714Y-129510952D01*
X187057142Y-130082380D01*
X186438095Y-130082380D01*
%TO.C,R21*%
X188342857Y-131082380D02*
X188676190Y-130606190D01*
X188914285Y-131082380D02*
X188914285Y-130082380D01*
X188533333Y-130082380D01*
X188438095Y-130130000D01*
X188390476Y-130177619D01*
X188342857Y-130272857D01*
X188342857Y-130415714D01*
X188390476Y-130510952D01*
X188438095Y-130558571D01*
X188533333Y-130606190D01*
X188914285Y-130606190D01*
X187961904Y-130177619D02*
X187914285Y-130130000D01*
X187819047Y-130082380D01*
X187580952Y-130082380D01*
X187485714Y-130130000D01*
X187438095Y-130177619D01*
X187390476Y-130272857D01*
X187390476Y-130368095D01*
X187438095Y-130510952D01*
X188009523Y-131082380D01*
X187390476Y-131082380D01*
X186438095Y-131082380D02*
X187009523Y-131082380D01*
X186723809Y-131082380D02*
X186723809Y-130082380D01*
X186819047Y-130225238D01*
X186914285Y-130320476D01*
X187009523Y-130368095D01*
%TO.C,R15*%
X206229897Y-133326260D02*
X206563230Y-132850070D01*
X206801325Y-133326260D02*
X206801325Y-132326260D01*
X206420373Y-132326260D01*
X206325135Y-132373880D01*
X206277516Y-132421499D01*
X206229897Y-132516737D01*
X206229897Y-132659594D01*
X206277516Y-132754832D01*
X206325135Y-132802451D01*
X206420373Y-132850070D01*
X206801325Y-132850070D01*
X205277516Y-133326260D02*
X205848944Y-133326260D01*
X205563230Y-133326260D02*
X205563230Y-132326260D01*
X205658468Y-132469118D01*
X205753706Y-132564356D01*
X205848944Y-132611975D01*
X204372754Y-132326260D02*
X204848944Y-132326260D01*
X204896563Y-132802451D01*
X204848944Y-132754832D01*
X204753706Y-132707213D01*
X204515611Y-132707213D01*
X204420373Y-132754832D01*
X204372754Y-132802451D01*
X204325135Y-132897689D01*
X204325135Y-133135784D01*
X204372754Y-133231022D01*
X204420373Y-133278641D01*
X204515611Y-133326260D01*
X204753706Y-133326260D01*
X204848944Y-133278641D01*
X204896563Y-133231022D01*
%TO.C,R14*%
X206233377Y-132320340D02*
X206566710Y-131844150D01*
X206804805Y-132320340D02*
X206804805Y-131320340D01*
X206423853Y-131320340D01*
X206328615Y-131367960D01*
X206280996Y-131415579D01*
X206233377Y-131510817D01*
X206233377Y-131653674D01*
X206280996Y-131748912D01*
X206328615Y-131796531D01*
X206423853Y-131844150D01*
X206804805Y-131844150D01*
X205280996Y-132320340D02*
X205852424Y-132320340D01*
X205566710Y-132320340D02*
X205566710Y-131320340D01*
X205661948Y-131463198D01*
X205757186Y-131558436D01*
X205852424Y-131606055D01*
X204423853Y-131653674D02*
X204423853Y-132320340D01*
X204661948Y-131272721D02*
X204900043Y-131987007D01*
X204280996Y-131987007D01*
%TO.C,R13*%
X213197380Y-128257142D02*
X212721190Y-127923809D01*
X213197380Y-127685714D02*
X212197380Y-127685714D01*
X212197380Y-128066666D01*
X212245000Y-128161904D01*
X212292619Y-128209523D01*
X212387857Y-128257142D01*
X212530714Y-128257142D01*
X212625952Y-128209523D01*
X212673571Y-128161904D01*
X212721190Y-128066666D01*
X212721190Y-127685714D01*
X213197380Y-129209523D02*
X213197380Y-128638095D01*
X213197380Y-128923809D02*
X212197380Y-128923809D01*
X212340238Y-128828571D01*
X212435476Y-128733333D01*
X212483095Y-128638095D01*
X212197380Y-129542857D02*
X212197380Y-130161904D01*
X212578333Y-129828571D01*
X212578333Y-129971428D01*
X212625952Y-130066666D01*
X212673571Y-130114285D01*
X212768809Y-130161904D01*
X213006904Y-130161904D01*
X213102142Y-130114285D01*
X213149761Y-130066666D01*
X213197380Y-129971428D01*
X213197380Y-129685714D01*
X213149761Y-129590476D01*
X213102142Y-129542857D01*
%TO.C,R12*%
X208672380Y-132357142D02*
X208196190Y-132023809D01*
X208672380Y-131785714D02*
X207672380Y-131785714D01*
X207672380Y-132166666D01*
X207720000Y-132261904D01*
X207767619Y-132309523D01*
X207862857Y-132357142D01*
X208005714Y-132357142D01*
X208100952Y-132309523D01*
X208148571Y-132261904D01*
X208196190Y-132166666D01*
X208196190Y-131785714D01*
X208672380Y-133309523D02*
X208672380Y-132738095D01*
X208672380Y-133023809D02*
X207672380Y-133023809D01*
X207815238Y-132928571D01*
X207910476Y-132833333D01*
X207958095Y-132738095D01*
X207767619Y-133690476D02*
X207720000Y-133738095D01*
X207672380Y-133833333D01*
X207672380Y-134071428D01*
X207720000Y-134166666D01*
X207767619Y-134214285D01*
X207862857Y-134261904D01*
X207958095Y-134261904D01*
X208100952Y-134214285D01*
X208672380Y-133642857D01*
X208672380Y-134261904D01*
%TO.C,R6*%
X214442380Y-112373333D02*
X213966190Y-112040000D01*
X214442380Y-111801904D02*
X213442380Y-111801904D01*
X213442380Y-112182857D01*
X213490000Y-112278095D01*
X213537619Y-112325714D01*
X213632857Y-112373333D01*
X213775714Y-112373333D01*
X213870952Y-112325714D01*
X213918571Y-112278095D01*
X213966190Y-112182857D01*
X213966190Y-111801904D01*
X213442380Y-113230476D02*
X213442380Y-113040000D01*
X213490000Y-112944761D01*
X213537619Y-112897142D01*
X213680476Y-112801904D01*
X213870952Y-112754285D01*
X214251904Y-112754285D01*
X214347142Y-112801904D01*
X214394761Y-112849523D01*
X214442380Y-112944761D01*
X214442380Y-113135238D01*
X214394761Y-113230476D01*
X214347142Y-113278095D01*
X214251904Y-113325714D01*
X214013809Y-113325714D01*
X213918571Y-113278095D01*
X213870952Y-113230476D01*
X213823333Y-113135238D01*
X213823333Y-112944761D01*
X213870952Y-112849523D01*
X213918571Y-112801904D01*
X214013809Y-112754285D01*
%TO.C,Q5*%
X216237619Y-109694761D02*
X216190000Y-109599523D01*
X216094761Y-109504285D01*
X215951904Y-109361428D01*
X215904285Y-109266190D01*
X215904285Y-109170952D01*
X216142380Y-109218571D02*
X216094761Y-109123333D01*
X215999523Y-109028095D01*
X215809047Y-108980476D01*
X215475714Y-108980476D01*
X215285238Y-109028095D01*
X215190000Y-109123333D01*
X215142380Y-109218571D01*
X215142380Y-109409047D01*
X215190000Y-109504285D01*
X215285238Y-109599523D01*
X215475714Y-109647142D01*
X215809047Y-109647142D01*
X215999523Y-109599523D01*
X216094761Y-109504285D01*
X216142380Y-109409047D01*
X216142380Y-109218571D01*
X215142380Y-110551904D02*
X215142380Y-110075714D01*
X215618571Y-110028095D01*
X215570952Y-110075714D01*
X215523333Y-110170952D01*
X215523333Y-110409047D01*
X215570952Y-110504285D01*
X215618571Y-110551904D01*
X215713809Y-110599523D01*
X215951904Y-110599523D01*
X216047142Y-110551904D01*
X216094761Y-110504285D01*
X216142380Y-110409047D01*
X216142380Y-110170952D01*
X216094761Y-110075714D01*
X216047142Y-110028095D01*
%TO.C,Q1*%
X198774038Y-117884819D02*
X198869276Y-117837200D01*
X198964514Y-117741961D01*
X199107371Y-117599104D01*
X199202609Y-117551485D01*
X199297847Y-117551485D01*
X199250228Y-117789580D02*
X199345466Y-117741961D01*
X199440704Y-117646723D01*
X199488323Y-117456247D01*
X199488323Y-117122914D01*
X199440704Y-116932438D01*
X199345466Y-116837200D01*
X199250228Y-116789580D01*
X199059752Y-116789580D01*
X198964514Y-116837200D01*
X198869276Y-116932438D01*
X198821657Y-117122914D01*
X198821657Y-117456247D01*
X198869276Y-117646723D01*
X198964514Y-117741961D01*
X199059752Y-117789580D01*
X199250228Y-117789580D01*
X197869276Y-117789580D02*
X198440704Y-117789580D01*
X198154990Y-117789580D02*
X198154990Y-116789580D01*
X198250228Y-116932438D01*
X198345466Y-117027676D01*
X198440704Y-117075295D01*
%TO.C,J9*%
X191952380Y-115416666D02*
X192666666Y-115416666D01*
X192809523Y-115369047D01*
X192904761Y-115273809D01*
X192952380Y-115130952D01*
X192952380Y-115035714D01*
X192952380Y-115940476D02*
X192952380Y-116130952D01*
X192904761Y-116226190D01*
X192857142Y-116273809D01*
X192714285Y-116369047D01*
X192523809Y-116416666D01*
X192142857Y-116416666D01*
X192047619Y-116369047D01*
X192000000Y-116321428D01*
X191952380Y-116226190D01*
X191952380Y-116035714D01*
X192000000Y-115940476D01*
X192047619Y-115892857D01*
X192142857Y-115845238D01*
X192380952Y-115845238D01*
X192476190Y-115892857D01*
X192523809Y-115940476D01*
X192571428Y-116035714D01*
X192571428Y-116226190D01*
X192523809Y-116321428D01*
X192476190Y-116369047D01*
X192380952Y-116416666D01*
%TO.C,J6*%
X181602380Y-95316666D02*
X182316666Y-95316666D01*
X182459523Y-95269047D01*
X182554761Y-95173809D01*
X182602380Y-95030952D01*
X182602380Y-94935714D01*
X181602380Y-96221428D02*
X181602380Y-96030952D01*
X181650000Y-95935714D01*
X181697619Y-95888095D01*
X181840476Y-95792857D01*
X182030952Y-95745238D01*
X182411904Y-95745238D01*
X182507142Y-95792857D01*
X182554761Y-95840476D01*
X182602380Y-95935714D01*
X182602380Y-96126190D01*
X182554761Y-96221428D01*
X182507142Y-96269047D01*
X182411904Y-96316666D01*
X182173809Y-96316666D01*
X182078571Y-96269047D01*
X182030952Y-96221428D01*
X181983333Y-96126190D01*
X181983333Y-95935714D01*
X182030952Y-95840476D01*
X182078571Y-95792857D01*
X182173809Y-95745238D01*
%TO.C,C61*%
X201207857Y-99037142D02*
X201255476Y-99084761D01*
X201398333Y-99132380D01*
X201493571Y-99132380D01*
X201636428Y-99084761D01*
X201731666Y-98989523D01*
X201779285Y-98894285D01*
X201826904Y-98703809D01*
X201826904Y-98560952D01*
X201779285Y-98370476D01*
X201731666Y-98275238D01*
X201636428Y-98180000D01*
X201493571Y-98132380D01*
X201398333Y-98132380D01*
X201255476Y-98180000D01*
X201207857Y-98227619D01*
X200350714Y-98132380D02*
X200541190Y-98132380D01*
X200636428Y-98180000D01*
X200684047Y-98227619D01*
X200779285Y-98370476D01*
X200826904Y-98560952D01*
X200826904Y-98941904D01*
X200779285Y-99037142D01*
X200731666Y-99084761D01*
X200636428Y-99132380D01*
X200445952Y-99132380D01*
X200350714Y-99084761D01*
X200303095Y-99037142D01*
X200255476Y-98941904D01*
X200255476Y-98703809D01*
X200303095Y-98608571D01*
X200350714Y-98560952D01*
X200445952Y-98513333D01*
X200636428Y-98513333D01*
X200731666Y-98560952D01*
X200779285Y-98608571D01*
X200826904Y-98703809D01*
X199303095Y-99132380D02*
X199874523Y-99132380D01*
X199588809Y-99132380D02*
X199588809Y-98132380D01*
X199684047Y-98275238D01*
X199779285Y-98370476D01*
X199874523Y-98418095D01*
%TO.C,C58*%
X179127142Y-124357142D02*
X179174761Y-124309523D01*
X179222380Y-124166666D01*
X179222380Y-124071428D01*
X179174761Y-123928571D01*
X179079523Y-123833333D01*
X178984285Y-123785714D01*
X178793809Y-123738095D01*
X178650952Y-123738095D01*
X178460476Y-123785714D01*
X178365238Y-123833333D01*
X178270000Y-123928571D01*
X178222380Y-124071428D01*
X178222380Y-124166666D01*
X178270000Y-124309523D01*
X178317619Y-124357142D01*
X178222380Y-125261904D02*
X178222380Y-124785714D01*
X178698571Y-124738095D01*
X178650952Y-124785714D01*
X178603333Y-124880952D01*
X178603333Y-125119047D01*
X178650952Y-125214285D01*
X178698571Y-125261904D01*
X178793809Y-125309523D01*
X179031904Y-125309523D01*
X179127142Y-125261904D01*
X179174761Y-125214285D01*
X179222380Y-125119047D01*
X179222380Y-124880952D01*
X179174761Y-124785714D01*
X179127142Y-124738095D01*
X178650952Y-125880952D02*
X178603333Y-125785714D01*
X178555714Y-125738095D01*
X178460476Y-125690476D01*
X178412857Y-125690476D01*
X178317619Y-125738095D01*
X178270000Y-125785714D01*
X178222380Y-125880952D01*
X178222380Y-126071428D01*
X178270000Y-126166666D01*
X178317619Y-126214285D01*
X178412857Y-126261904D01*
X178460476Y-126261904D01*
X178555714Y-126214285D01*
X178603333Y-126166666D01*
X178650952Y-126071428D01*
X178650952Y-125880952D01*
X178698571Y-125785714D01*
X178746190Y-125738095D01*
X178841428Y-125690476D01*
X179031904Y-125690476D01*
X179127142Y-125738095D01*
X179174761Y-125785714D01*
X179222380Y-125880952D01*
X179222380Y-126071428D01*
X179174761Y-126166666D01*
X179127142Y-126214285D01*
X179031904Y-126261904D01*
X178841428Y-126261904D01*
X178746190Y-126214285D01*
X178698571Y-126166666D01*
X178650952Y-126071428D01*
%TO.C,C57*%
X185127142Y-126657142D02*
X185174761Y-126609523D01*
X185222380Y-126466666D01*
X185222380Y-126371428D01*
X185174761Y-126228571D01*
X185079523Y-126133333D01*
X184984285Y-126085714D01*
X184793809Y-126038095D01*
X184650952Y-126038095D01*
X184460476Y-126085714D01*
X184365238Y-126133333D01*
X184270000Y-126228571D01*
X184222380Y-126371428D01*
X184222380Y-126466666D01*
X184270000Y-126609523D01*
X184317619Y-126657142D01*
X184222380Y-127561904D02*
X184222380Y-127085714D01*
X184698571Y-127038095D01*
X184650952Y-127085714D01*
X184603333Y-127180952D01*
X184603333Y-127419047D01*
X184650952Y-127514285D01*
X184698571Y-127561904D01*
X184793809Y-127609523D01*
X185031904Y-127609523D01*
X185127142Y-127561904D01*
X185174761Y-127514285D01*
X185222380Y-127419047D01*
X185222380Y-127180952D01*
X185174761Y-127085714D01*
X185127142Y-127038095D01*
X184222380Y-127942857D02*
X184222380Y-128609523D01*
X185222380Y-128180952D01*
%TO.C,C56*%
X180142857Y-127487142D02*
X180190476Y-127534761D01*
X180333333Y-127582380D01*
X180428571Y-127582380D01*
X180571428Y-127534761D01*
X180666666Y-127439523D01*
X180714285Y-127344285D01*
X180761904Y-127153809D01*
X180761904Y-127010952D01*
X180714285Y-126820476D01*
X180666666Y-126725238D01*
X180571428Y-126630000D01*
X180428571Y-126582380D01*
X180333333Y-126582380D01*
X180190476Y-126630000D01*
X180142857Y-126677619D01*
X179238095Y-126582380D02*
X179714285Y-126582380D01*
X179761904Y-127058571D01*
X179714285Y-127010952D01*
X179619047Y-126963333D01*
X179380952Y-126963333D01*
X179285714Y-127010952D01*
X179238095Y-127058571D01*
X179190476Y-127153809D01*
X179190476Y-127391904D01*
X179238095Y-127487142D01*
X179285714Y-127534761D01*
X179380952Y-127582380D01*
X179619047Y-127582380D01*
X179714285Y-127534761D01*
X179761904Y-127487142D01*
X178333333Y-126582380D02*
X178523809Y-126582380D01*
X178619047Y-126630000D01*
X178666666Y-126677619D01*
X178761904Y-126820476D01*
X178809523Y-127010952D01*
X178809523Y-127391904D01*
X178761904Y-127487142D01*
X178714285Y-127534761D01*
X178619047Y-127582380D01*
X178428571Y-127582380D01*
X178333333Y-127534761D01*
X178285714Y-127487142D01*
X178238095Y-127391904D01*
X178238095Y-127153809D01*
X178285714Y-127058571D01*
X178333333Y-127010952D01*
X178428571Y-126963333D01*
X178619047Y-126963333D01*
X178714285Y-127010952D01*
X178761904Y-127058571D01*
X178809523Y-127153809D01*
%TO.C,C54*%
X207274397Y-107513722D02*
X207322016Y-107561341D01*
X207464873Y-107608960D01*
X207560111Y-107608960D01*
X207702968Y-107561341D01*
X207798206Y-107466103D01*
X207845825Y-107370865D01*
X207893444Y-107180389D01*
X207893444Y-107037532D01*
X207845825Y-106847056D01*
X207798206Y-106751818D01*
X207702968Y-106656580D01*
X207560111Y-106608960D01*
X207464873Y-106608960D01*
X207322016Y-106656580D01*
X207274397Y-106704199D01*
X206369635Y-106608960D02*
X206845825Y-106608960D01*
X206893444Y-107085151D01*
X206845825Y-107037532D01*
X206750587Y-106989913D01*
X206512492Y-106989913D01*
X206417254Y-107037532D01*
X206369635Y-107085151D01*
X206322016Y-107180389D01*
X206322016Y-107418484D01*
X206369635Y-107513722D01*
X206417254Y-107561341D01*
X206512492Y-107608960D01*
X206750587Y-107608960D01*
X206845825Y-107561341D01*
X206893444Y-107513722D01*
X205464873Y-106942294D02*
X205464873Y-107608960D01*
X205702968Y-106561341D02*
X205941063Y-107275627D01*
X205322016Y-107275627D01*
%TO.C,C53*%
X208568542Y-89329022D02*
X208616161Y-89281403D01*
X208663780Y-89138546D01*
X208663780Y-89043308D01*
X208616161Y-88900451D01*
X208520923Y-88805213D01*
X208425685Y-88757594D01*
X208235209Y-88709975D01*
X208092352Y-88709975D01*
X207901876Y-88757594D01*
X207806638Y-88805213D01*
X207711400Y-88900451D01*
X207663780Y-89043308D01*
X207663780Y-89138546D01*
X207711400Y-89281403D01*
X207759019Y-89329022D01*
X207663780Y-90233784D02*
X207663780Y-89757594D01*
X208139971Y-89709975D01*
X208092352Y-89757594D01*
X208044733Y-89852832D01*
X208044733Y-90090927D01*
X208092352Y-90186165D01*
X208139971Y-90233784D01*
X208235209Y-90281403D01*
X208473304Y-90281403D01*
X208568542Y-90233784D01*
X208616161Y-90186165D01*
X208663780Y-90090927D01*
X208663780Y-89852832D01*
X208616161Y-89757594D01*
X208568542Y-89709975D01*
X207663780Y-90614737D02*
X207663780Y-91233784D01*
X208044733Y-90900451D01*
X208044733Y-91043308D01*
X208092352Y-91138546D01*
X208139971Y-91186165D01*
X208235209Y-91233784D01*
X208473304Y-91233784D01*
X208568542Y-91186165D01*
X208616161Y-91138546D01*
X208663780Y-91043308D01*
X208663780Y-90757594D01*
X208616161Y-90662356D01*
X208568542Y-90614737D01*
%TO.C,C52*%
X208004857Y-116766142D02*
X208052476Y-116813761D01*
X208195333Y-116861380D01*
X208290571Y-116861380D01*
X208433428Y-116813761D01*
X208528666Y-116718523D01*
X208576285Y-116623285D01*
X208623904Y-116432809D01*
X208623904Y-116289952D01*
X208576285Y-116099476D01*
X208528666Y-116004238D01*
X208433428Y-115909000D01*
X208290571Y-115861380D01*
X208195333Y-115861380D01*
X208052476Y-115909000D01*
X208004857Y-115956619D01*
X207100095Y-115861380D02*
X207576285Y-115861380D01*
X207623904Y-116337571D01*
X207576285Y-116289952D01*
X207481047Y-116242333D01*
X207242952Y-116242333D01*
X207147714Y-116289952D01*
X207100095Y-116337571D01*
X207052476Y-116432809D01*
X207052476Y-116670904D01*
X207100095Y-116766142D01*
X207147714Y-116813761D01*
X207242952Y-116861380D01*
X207481047Y-116861380D01*
X207576285Y-116813761D01*
X207623904Y-116766142D01*
X206671523Y-115956619D02*
X206623904Y-115909000D01*
X206528666Y-115861380D01*
X206290571Y-115861380D01*
X206195333Y-115909000D01*
X206147714Y-115956619D01*
X206100095Y-116051857D01*
X206100095Y-116147095D01*
X206147714Y-116289952D01*
X206719142Y-116861380D01*
X206100095Y-116861380D01*
%TO.C,C51*%
X210591942Y-89123522D02*
X210639561Y-89075903D01*
X210687180Y-88933046D01*
X210687180Y-88837808D01*
X210639561Y-88694951D01*
X210544323Y-88599713D01*
X210449085Y-88552094D01*
X210258609Y-88504475D01*
X210115752Y-88504475D01*
X209925276Y-88552094D01*
X209830038Y-88599713D01*
X209734800Y-88694951D01*
X209687180Y-88837808D01*
X209687180Y-88933046D01*
X209734800Y-89075903D01*
X209782419Y-89123522D01*
X209687180Y-90028284D02*
X209687180Y-89552094D01*
X210163371Y-89504475D01*
X210115752Y-89552094D01*
X210068133Y-89647332D01*
X210068133Y-89885427D01*
X210115752Y-89980665D01*
X210163371Y-90028284D01*
X210258609Y-90075903D01*
X210496704Y-90075903D01*
X210591942Y-90028284D01*
X210639561Y-89980665D01*
X210687180Y-89885427D01*
X210687180Y-89647332D01*
X210639561Y-89552094D01*
X210591942Y-89504475D01*
X210687180Y-91028284D02*
X210687180Y-90456856D01*
X210687180Y-90742570D02*
X209687180Y-90742570D01*
X209830038Y-90647332D01*
X209925276Y-90552094D01*
X209972895Y-90456856D01*
%TO.C,C49*%
X203755142Y-119162142D02*
X203802761Y-119114523D01*
X203850380Y-118971666D01*
X203850380Y-118876428D01*
X203802761Y-118733571D01*
X203707523Y-118638333D01*
X203612285Y-118590714D01*
X203421809Y-118543095D01*
X203278952Y-118543095D01*
X203088476Y-118590714D01*
X202993238Y-118638333D01*
X202898000Y-118733571D01*
X202850380Y-118876428D01*
X202850380Y-118971666D01*
X202898000Y-119114523D01*
X202945619Y-119162142D01*
X203183714Y-120019285D02*
X203850380Y-120019285D01*
X202802761Y-119781190D02*
X203517047Y-119543095D01*
X203517047Y-120162142D01*
X203850380Y-120590714D02*
X203850380Y-120781190D01*
X203802761Y-120876428D01*
X203755142Y-120924047D01*
X203612285Y-121019285D01*
X203421809Y-121066904D01*
X203040857Y-121066904D01*
X202945619Y-121019285D01*
X202898000Y-120971666D01*
X202850380Y-120876428D01*
X202850380Y-120685952D01*
X202898000Y-120590714D01*
X202945619Y-120543095D01*
X203040857Y-120495476D01*
X203278952Y-120495476D01*
X203374190Y-120543095D01*
X203421809Y-120590714D01*
X203469428Y-120685952D01*
X203469428Y-120876428D01*
X203421809Y-120971666D01*
X203374190Y-121019285D01*
X203278952Y-121066904D01*
%TO.C,C48*%
X208612142Y-122457142D02*
X208659761Y-122409523D01*
X208707380Y-122266666D01*
X208707380Y-122171428D01*
X208659761Y-122028571D01*
X208564523Y-121933333D01*
X208469285Y-121885714D01*
X208278809Y-121838095D01*
X208135952Y-121838095D01*
X207945476Y-121885714D01*
X207850238Y-121933333D01*
X207755000Y-122028571D01*
X207707380Y-122171428D01*
X207707380Y-122266666D01*
X207755000Y-122409523D01*
X207802619Y-122457142D01*
X208040714Y-123314285D02*
X208707380Y-123314285D01*
X207659761Y-123076190D02*
X208374047Y-122838095D01*
X208374047Y-123457142D01*
X208135952Y-123980952D02*
X208088333Y-123885714D01*
X208040714Y-123838095D01*
X207945476Y-123790476D01*
X207897857Y-123790476D01*
X207802619Y-123838095D01*
X207755000Y-123885714D01*
X207707380Y-123980952D01*
X207707380Y-124171428D01*
X207755000Y-124266666D01*
X207802619Y-124314285D01*
X207897857Y-124361904D01*
X207945476Y-124361904D01*
X208040714Y-124314285D01*
X208088333Y-124266666D01*
X208135952Y-124171428D01*
X208135952Y-123980952D01*
X208183571Y-123885714D01*
X208231190Y-123838095D01*
X208326428Y-123790476D01*
X208516904Y-123790476D01*
X208612142Y-123838095D01*
X208659761Y-123885714D01*
X208707380Y-123980952D01*
X208707380Y-124171428D01*
X208659761Y-124266666D01*
X208612142Y-124314285D01*
X208516904Y-124361904D01*
X208326428Y-124361904D01*
X208231190Y-124314285D01*
X208183571Y-124266666D01*
X208135952Y-124171428D01*
%TO.C,C34*%
X193652142Y-100332142D02*
X193699761Y-100284523D01*
X193747380Y-100141666D01*
X193747380Y-100046428D01*
X193699761Y-99903571D01*
X193604523Y-99808333D01*
X193509285Y-99760714D01*
X193318809Y-99713095D01*
X193175952Y-99713095D01*
X192985476Y-99760714D01*
X192890238Y-99808333D01*
X192795000Y-99903571D01*
X192747380Y-100046428D01*
X192747380Y-100141666D01*
X192795000Y-100284523D01*
X192842619Y-100332142D01*
X192747380Y-100665476D02*
X192747380Y-101284523D01*
X193128333Y-100951190D01*
X193128333Y-101094047D01*
X193175952Y-101189285D01*
X193223571Y-101236904D01*
X193318809Y-101284523D01*
X193556904Y-101284523D01*
X193652142Y-101236904D01*
X193699761Y-101189285D01*
X193747380Y-101094047D01*
X193747380Y-100808333D01*
X193699761Y-100713095D01*
X193652142Y-100665476D01*
X193080714Y-102141666D02*
X193747380Y-102141666D01*
X192699761Y-101903571D02*
X193414047Y-101665476D01*
X193414047Y-102284523D01*
%TO.C,C32*%
X193217857Y-98662142D02*
X193265476Y-98709761D01*
X193408333Y-98757380D01*
X193503571Y-98757380D01*
X193646428Y-98709761D01*
X193741666Y-98614523D01*
X193789285Y-98519285D01*
X193836904Y-98328809D01*
X193836904Y-98185952D01*
X193789285Y-97995476D01*
X193741666Y-97900238D01*
X193646428Y-97805000D01*
X193503571Y-97757380D01*
X193408333Y-97757380D01*
X193265476Y-97805000D01*
X193217857Y-97852619D01*
X192884523Y-97757380D02*
X192265476Y-97757380D01*
X192598809Y-98138333D01*
X192455952Y-98138333D01*
X192360714Y-98185952D01*
X192313095Y-98233571D01*
X192265476Y-98328809D01*
X192265476Y-98566904D01*
X192313095Y-98662142D01*
X192360714Y-98709761D01*
X192455952Y-98757380D01*
X192741666Y-98757380D01*
X192836904Y-98709761D01*
X192884523Y-98662142D01*
X191884523Y-97852619D02*
X191836904Y-97805000D01*
X191741666Y-97757380D01*
X191503571Y-97757380D01*
X191408333Y-97805000D01*
X191360714Y-97852619D01*
X191313095Y-97947857D01*
X191313095Y-98043095D01*
X191360714Y-98185952D01*
X191932142Y-98757380D01*
X191313095Y-98757380D01*
%TO.C,C26*%
X187729345Y-123104791D02*
X187729345Y-123172135D01*
X187796689Y-123306822D01*
X187864032Y-123374165D01*
X187998719Y-123441509D01*
X188133406Y-123441509D01*
X188234421Y-123407837D01*
X188402780Y-123306822D01*
X188503795Y-123205807D01*
X188604811Y-123037448D01*
X188638482Y-122936433D01*
X188638482Y-122801746D01*
X188571139Y-122667059D01*
X188503795Y-122599715D01*
X188369108Y-122532372D01*
X188301765Y-122532372D01*
X188032391Y-122262997D02*
X188032391Y-122195654D01*
X187998719Y-122094639D01*
X187830360Y-121926280D01*
X187729345Y-121892608D01*
X187662002Y-121892608D01*
X187560986Y-121926280D01*
X187493643Y-121993623D01*
X187426299Y-122128310D01*
X187426299Y-122936433D01*
X186988566Y-122498700D01*
X187089582Y-121185501D02*
X187224269Y-121320188D01*
X187257940Y-121421204D01*
X187257940Y-121488547D01*
X187224269Y-121656906D01*
X187123253Y-121825265D01*
X186853879Y-122094639D01*
X186752864Y-122128310D01*
X186685521Y-122128310D01*
X186584505Y-122094639D01*
X186449818Y-121959952D01*
X186416147Y-121858936D01*
X186416147Y-121791593D01*
X186449818Y-121690578D01*
X186618177Y-121522219D01*
X186719192Y-121488547D01*
X186786536Y-121488547D01*
X186887551Y-121522219D01*
X187022238Y-121656906D01*
X187055910Y-121757921D01*
X187055910Y-121825265D01*
X187022238Y-121926280D01*
%TO.C,C25*%
X184259421Y-106650284D02*
X184326765Y-106650284D01*
X184461452Y-106582940D01*
X184528795Y-106515597D01*
X184596139Y-106380910D01*
X184596139Y-106246223D01*
X184562467Y-106145208D01*
X184461452Y-105976849D01*
X184360437Y-105875834D01*
X184192078Y-105774818D01*
X184091063Y-105741147D01*
X183956376Y-105741147D01*
X183821689Y-105808490D01*
X183754345Y-105875834D01*
X183687002Y-106010521D01*
X183687002Y-106077864D01*
X183417627Y-106347238D02*
X183350284Y-106347238D01*
X183249269Y-106380910D01*
X183080910Y-106549269D01*
X183047238Y-106650284D01*
X183047238Y-106717627D01*
X183080910Y-106818643D01*
X183148253Y-106885986D01*
X183282940Y-106953330D01*
X184091063Y-106953330D01*
X183653330Y-107391063D01*
X182306460Y-107323719D02*
X182643177Y-106987002D01*
X183013566Y-107290047D01*
X182946223Y-107290047D01*
X182845208Y-107323719D01*
X182676849Y-107492078D01*
X182643177Y-107593093D01*
X182643177Y-107660437D01*
X182676849Y-107761452D01*
X182845208Y-107929811D01*
X182946223Y-107963482D01*
X183013566Y-107963482D01*
X183114582Y-107929811D01*
X183282940Y-107761452D01*
X183316612Y-107660437D01*
X183316612Y-107593093D01*
%TO.C,C24*%
X179329345Y-115179791D02*
X179329345Y-115247135D01*
X179396689Y-115381822D01*
X179464032Y-115449165D01*
X179598719Y-115516509D01*
X179733406Y-115516509D01*
X179834421Y-115482837D01*
X180002780Y-115381822D01*
X180103795Y-115280807D01*
X180204811Y-115112448D01*
X180238482Y-115011433D01*
X180238482Y-114876746D01*
X180171139Y-114742059D01*
X180103795Y-114674715D01*
X179969108Y-114607372D01*
X179901765Y-114607372D01*
X179632391Y-114337997D02*
X179632391Y-114270654D01*
X179598719Y-114169639D01*
X179430360Y-114001280D01*
X179329345Y-113967608D01*
X179262002Y-113967608D01*
X179160986Y-114001280D01*
X179093643Y-114068623D01*
X179026299Y-114203310D01*
X179026299Y-115011433D01*
X178588566Y-114573700D01*
X178453879Y-113496204D02*
X177982475Y-113967608D01*
X178891612Y-113395188D02*
X178554895Y-114068623D01*
X178117162Y-113630891D01*
%TO.C,C23*%
X187781768Y-106466474D02*
X187781768Y-106533818D01*
X187849112Y-106668505D01*
X187916455Y-106735848D01*
X188051142Y-106803192D01*
X188185829Y-106803192D01*
X188286844Y-106769520D01*
X188455203Y-106668505D01*
X188556218Y-106567490D01*
X188657234Y-106399131D01*
X188690905Y-106298116D01*
X188690905Y-106163429D01*
X188623562Y-106028742D01*
X188556218Y-105961398D01*
X188421531Y-105894055D01*
X188354188Y-105894055D01*
X188084814Y-105624680D02*
X188084814Y-105557337D01*
X188051142Y-105456322D01*
X187882783Y-105287963D01*
X187781768Y-105254291D01*
X187714425Y-105254291D01*
X187613409Y-105287963D01*
X187546066Y-105355306D01*
X187478722Y-105489993D01*
X187478722Y-106298116D01*
X187040989Y-105860383D01*
X187512394Y-104917574D02*
X187074661Y-104479841D01*
X187040989Y-104984917D01*
X186939974Y-104883902D01*
X186838959Y-104850230D01*
X186771615Y-104850230D01*
X186670600Y-104883902D01*
X186502241Y-105052261D01*
X186468570Y-105153276D01*
X186468570Y-105220619D01*
X186502241Y-105321635D01*
X186704272Y-105523665D01*
X186805287Y-105557337D01*
X186872631Y-105557337D01*
%TO.C,C22*%
X196554791Y-113270654D02*
X196622135Y-113270654D01*
X196756822Y-113203310D01*
X196824165Y-113135967D01*
X196891509Y-113001280D01*
X196891509Y-112866593D01*
X196857837Y-112765578D01*
X196756822Y-112597219D01*
X196655807Y-112496204D01*
X196487448Y-112395188D01*
X196386433Y-112361517D01*
X196251746Y-112361517D01*
X196117059Y-112428860D01*
X196049715Y-112496204D01*
X195982372Y-112630891D01*
X195982372Y-112698234D01*
X195712997Y-112967608D02*
X195645654Y-112967608D01*
X195544639Y-113001280D01*
X195376280Y-113169639D01*
X195342608Y-113270654D01*
X195342608Y-113337997D01*
X195376280Y-113439013D01*
X195443623Y-113506356D01*
X195578310Y-113573700D01*
X196386433Y-113573700D01*
X195948700Y-114011433D01*
X195039562Y-113641043D02*
X194972219Y-113641043D01*
X194871204Y-113674715D01*
X194702845Y-113843074D01*
X194669173Y-113944089D01*
X194669173Y-114011433D01*
X194702845Y-114112448D01*
X194770188Y-114179791D01*
X194904875Y-114247135D01*
X195712997Y-114247135D01*
X195275265Y-114684868D01*
%TO.C,C21*%
X187959421Y-107625284D02*
X188026765Y-107625284D01*
X188161452Y-107557940D01*
X188228795Y-107490597D01*
X188296139Y-107355910D01*
X188296139Y-107221223D01*
X188262467Y-107120208D01*
X188161452Y-106951849D01*
X188060437Y-106850834D01*
X187892078Y-106749818D01*
X187791063Y-106716147D01*
X187656376Y-106716147D01*
X187521689Y-106783490D01*
X187454345Y-106850834D01*
X187387002Y-106985521D01*
X187387002Y-107052864D01*
X187117627Y-107322238D02*
X187050284Y-107322238D01*
X186949269Y-107355910D01*
X186780910Y-107524269D01*
X186747238Y-107625284D01*
X186747238Y-107692627D01*
X186780910Y-107793643D01*
X186848253Y-107860986D01*
X186982940Y-107928330D01*
X187791063Y-107928330D01*
X187353330Y-108366063D01*
X186679895Y-109039498D02*
X187083956Y-108635437D01*
X186881925Y-108837467D02*
X186174818Y-108130360D01*
X186343177Y-108164032D01*
X186477864Y-108164032D01*
X186578879Y-108130360D01*
%TO.C,C19*%
X184954791Y-107320654D02*
X185022135Y-107320654D01*
X185156822Y-107253310D01*
X185224165Y-107185967D01*
X185291509Y-107051280D01*
X185291509Y-106916593D01*
X185257837Y-106815578D01*
X185156822Y-106647219D01*
X185055807Y-106546204D01*
X184887448Y-106445188D01*
X184786433Y-106411517D01*
X184651746Y-106411517D01*
X184517059Y-106478860D01*
X184449715Y-106546204D01*
X184382372Y-106680891D01*
X184382372Y-106748234D01*
X184348700Y-108061433D02*
X184752761Y-107657372D01*
X184550730Y-107859402D02*
X183843623Y-107152295D01*
X184011982Y-107185967D01*
X184146669Y-107185967D01*
X184247685Y-107152295D01*
X184011982Y-108398150D02*
X183877295Y-108532837D01*
X183776280Y-108566509D01*
X183708936Y-108566509D01*
X183540578Y-108532837D01*
X183372219Y-108431822D01*
X183102845Y-108162448D01*
X183069173Y-108061433D01*
X183069173Y-107994089D01*
X183102845Y-107893074D01*
X183237532Y-107758387D01*
X183338547Y-107724715D01*
X183405891Y-107724715D01*
X183506906Y-107758387D01*
X183675265Y-107926746D01*
X183708936Y-108027761D01*
X183708936Y-108095104D01*
X183675265Y-108196120D01*
X183540578Y-108330807D01*
X183439562Y-108364478D01*
X183372219Y-108364478D01*
X183271204Y-108330807D01*
%TO.C,C11*%
X182134421Y-112675284D02*
X182201765Y-112675284D01*
X182336452Y-112607940D01*
X182403795Y-112540597D01*
X182471139Y-112405910D01*
X182471139Y-112271223D01*
X182437467Y-112170208D01*
X182336452Y-112001849D01*
X182235437Y-111900834D01*
X182067078Y-111799818D01*
X181966063Y-111766147D01*
X181831376Y-111766147D01*
X181696689Y-111833490D01*
X181629345Y-111900834D01*
X181562002Y-112035521D01*
X181562002Y-112102864D01*
X181528330Y-113416063D02*
X181932391Y-113012002D01*
X181730360Y-113214032D02*
X181023253Y-112506925D01*
X181191612Y-112540597D01*
X181326299Y-112540597D01*
X181427315Y-112506925D01*
X180854895Y-114089498D02*
X181258956Y-113685437D01*
X181056925Y-113887467D02*
X180349818Y-113180360D01*
X180518177Y-113214032D01*
X180652864Y-113214032D01*
X180753879Y-113180360D01*
%TO.C,C10*%
X204327142Y-109229142D02*
X204374761Y-109181523D01*
X204422380Y-109038666D01*
X204422380Y-108943428D01*
X204374761Y-108800571D01*
X204279523Y-108705333D01*
X204184285Y-108657714D01*
X203993809Y-108610095D01*
X203850952Y-108610095D01*
X203660476Y-108657714D01*
X203565238Y-108705333D01*
X203470000Y-108800571D01*
X203422380Y-108943428D01*
X203422380Y-109038666D01*
X203470000Y-109181523D01*
X203517619Y-109229142D01*
X204422380Y-110181523D02*
X204422380Y-109610095D01*
X204422380Y-109895809D02*
X203422380Y-109895809D01*
X203565238Y-109800571D01*
X203660476Y-109705333D01*
X203708095Y-109610095D01*
X203422380Y-110800571D02*
X203422380Y-110895809D01*
X203470000Y-110991047D01*
X203517619Y-111038666D01*
X203612857Y-111086285D01*
X203803333Y-111133904D01*
X204041428Y-111133904D01*
X204231904Y-111086285D01*
X204327142Y-111038666D01*
X204374761Y-110991047D01*
X204422380Y-110895809D01*
X204422380Y-110800571D01*
X204374761Y-110705333D01*
X204327142Y-110657714D01*
X204231904Y-110610095D01*
X204041428Y-110562476D01*
X203803333Y-110562476D01*
X203612857Y-110610095D01*
X203517619Y-110657714D01*
X203470000Y-110705333D01*
X203422380Y-110800571D01*
%TO.C,C9*%
X184067142Y-94193333D02*
X184114761Y-94145714D01*
X184162380Y-94002857D01*
X184162380Y-93907619D01*
X184114761Y-93764761D01*
X184019523Y-93669523D01*
X183924285Y-93621904D01*
X183733809Y-93574285D01*
X183590952Y-93574285D01*
X183400476Y-93621904D01*
X183305238Y-93669523D01*
X183210000Y-93764761D01*
X183162380Y-93907619D01*
X183162380Y-94002857D01*
X183210000Y-94145714D01*
X183257619Y-94193333D01*
X184162380Y-94669523D02*
X184162380Y-94860000D01*
X184114761Y-94955238D01*
X184067142Y-95002857D01*
X183924285Y-95098095D01*
X183733809Y-95145714D01*
X183352857Y-95145714D01*
X183257619Y-95098095D01*
X183210000Y-95050476D01*
X183162380Y-94955238D01*
X183162380Y-94764761D01*
X183210000Y-94669523D01*
X183257619Y-94621904D01*
X183352857Y-94574285D01*
X183590952Y-94574285D01*
X183686190Y-94621904D01*
X183733809Y-94669523D01*
X183781428Y-94764761D01*
X183781428Y-94955238D01*
X183733809Y-95050476D01*
X183686190Y-95098095D01*
X183590952Y-95145714D01*
%TO.C,C8*%
X209427142Y-109533333D02*
X209474761Y-109485714D01*
X209522380Y-109342857D01*
X209522380Y-109247619D01*
X209474761Y-109104761D01*
X209379523Y-109009523D01*
X209284285Y-108961904D01*
X209093809Y-108914285D01*
X208950952Y-108914285D01*
X208760476Y-108961904D01*
X208665238Y-109009523D01*
X208570000Y-109104761D01*
X208522380Y-109247619D01*
X208522380Y-109342857D01*
X208570000Y-109485714D01*
X208617619Y-109533333D01*
X208950952Y-110104761D02*
X208903333Y-110009523D01*
X208855714Y-109961904D01*
X208760476Y-109914285D01*
X208712857Y-109914285D01*
X208617619Y-109961904D01*
X208570000Y-110009523D01*
X208522380Y-110104761D01*
X208522380Y-110295238D01*
X208570000Y-110390476D01*
X208617619Y-110438095D01*
X208712857Y-110485714D01*
X208760476Y-110485714D01*
X208855714Y-110438095D01*
X208903333Y-110390476D01*
X208950952Y-110295238D01*
X208950952Y-110104761D01*
X208998571Y-110009523D01*
X209046190Y-109961904D01*
X209141428Y-109914285D01*
X209331904Y-109914285D01*
X209427142Y-109961904D01*
X209474761Y-110009523D01*
X209522380Y-110104761D01*
X209522380Y-110295238D01*
X209474761Y-110390476D01*
X209427142Y-110438095D01*
X209331904Y-110485714D01*
X209141428Y-110485714D01*
X209046190Y-110438095D01*
X208998571Y-110390476D01*
X208950952Y-110295238D01*
%TO.C,C6*%
X186627997Y-107037704D02*
X186627997Y-107105047D01*
X186695341Y-107239734D01*
X186762685Y-107307078D01*
X186897372Y-107374421D01*
X187032059Y-107374421D01*
X187133074Y-107340750D01*
X187301433Y-107239734D01*
X187402448Y-107138719D01*
X187503463Y-106970360D01*
X187537135Y-106869345D01*
X187537135Y-106734658D01*
X187469791Y-106599971D01*
X187402448Y-106532627D01*
X187267761Y-106465284D01*
X187200417Y-106465284D01*
X186661669Y-105791849D02*
X186796356Y-105926536D01*
X186830028Y-106027551D01*
X186830028Y-106094895D01*
X186796356Y-106263253D01*
X186695341Y-106431612D01*
X186425967Y-106700986D01*
X186324952Y-106734658D01*
X186257608Y-106734658D01*
X186156593Y-106700986D01*
X186021906Y-106566299D01*
X185988234Y-106465284D01*
X185988234Y-106397940D01*
X186021906Y-106296925D01*
X186190265Y-106128566D01*
X186291280Y-106094895D01*
X186358623Y-106094895D01*
X186459639Y-106128566D01*
X186594326Y-106263253D01*
X186627997Y-106364269D01*
X186627997Y-106431612D01*
X186594326Y-106532627D01*
%TO.C,C5*%
X185597142Y-94203333D02*
X185644761Y-94155714D01*
X185692380Y-94012857D01*
X185692380Y-93917619D01*
X185644761Y-93774761D01*
X185549523Y-93679523D01*
X185454285Y-93631904D01*
X185263809Y-93584285D01*
X185120952Y-93584285D01*
X184930476Y-93631904D01*
X184835238Y-93679523D01*
X184740000Y-93774761D01*
X184692380Y-93917619D01*
X184692380Y-94012857D01*
X184740000Y-94155714D01*
X184787619Y-94203333D01*
X184692380Y-95108095D02*
X184692380Y-94631904D01*
X185168571Y-94584285D01*
X185120952Y-94631904D01*
X185073333Y-94727142D01*
X185073333Y-94965238D01*
X185120952Y-95060476D01*
X185168571Y-95108095D01*
X185263809Y-95155714D01*
X185501904Y-95155714D01*
X185597142Y-95108095D01*
X185644761Y-95060476D01*
X185692380Y-94965238D01*
X185692380Y-94727142D01*
X185644761Y-94631904D01*
X185597142Y-94584285D01*
%TO.C,C2*%
X182997142Y-88643333D02*
X183044761Y-88595714D01*
X183092380Y-88452857D01*
X183092380Y-88357619D01*
X183044761Y-88214761D01*
X182949523Y-88119523D01*
X182854285Y-88071904D01*
X182663809Y-88024285D01*
X182520952Y-88024285D01*
X182330476Y-88071904D01*
X182235238Y-88119523D01*
X182140000Y-88214761D01*
X182092380Y-88357619D01*
X182092380Y-88452857D01*
X182140000Y-88595714D01*
X182187619Y-88643333D01*
X182187619Y-89024285D02*
X182140000Y-89071904D01*
X182092380Y-89167142D01*
X182092380Y-89405238D01*
X182140000Y-89500476D01*
X182187619Y-89548095D01*
X182282857Y-89595714D01*
X182378095Y-89595714D01*
X182520952Y-89548095D01*
X183092380Y-88976666D01*
X183092380Y-89595714D01*
%TD*%
M02*
