%TF.GenerationSoftware,KiCad,Pcbnew,5.1.9+dfsg1-1~bpo10+1*%
%TF.CreationDate,2021-03-04T00:37:35+00:00*%
%TF.ProjectId,atlas,61746c61-732e-46b6-9963-61645f706362,rev?*%
%TF.SameCoordinates,Original*%
%TF.FileFunction,Paste,Top*%
%TF.FilePolarity,Positive*%
%FSLAX46Y46*%
G04 Gerber Fmt 4.6, Leading zero omitted, Abs format (unit mm)*
G04 Created by KiCad (PCBNEW 5.1.9+dfsg1-1~bpo10+1) date 2021-03-04 00:37:35*
%MOMM*%
%LPD*%
G01*
G04 APERTURE LIST*
%ADD10C,0.010000*%
%ADD11C,0.001000*%
%ADD12R,0.650000X0.400000*%
%ADD13R,1.050000X2.200000*%
%ADD14R,1.000000X1.050000*%
%ADD15R,0.900000X0.800000*%
%ADD16R,2.400000X0.740000*%
%ADD17R,1.050000X0.650000*%
%ADD18R,1.800000X1.000000*%
%ADD19R,0.850000X2.300000*%
%ADD20R,1.500000X0.280000*%
%ADD21R,0.280000X1.500000*%
%ADD22R,0.300000X1.100000*%
%ADD23R,2.300000X3.100000*%
%ADD24R,0.250000X1.400000*%
%ADD25R,1.200000X1.400000*%
%ADD26R,0.800000X0.300000*%
%ADD27R,0.800000X0.400000*%
%ADD28R,1.500000X0.800000*%
%ADD29R,1.900000X1.400000*%
%ADD30R,1.400000X1.300000*%
%ADD31R,1.000000X0.950000*%
%ADD32R,0.650000X1.050000*%
%ADD33R,0.300000X0.800000*%
%ADD34R,1.000000X1.000000*%
%ADD35C,0.100000*%
%ADD36R,1.100000X1.100000*%
%ADD37R,1.200000X0.900000*%
%ADD38R,0.900000X1.200000*%
%ADD39R,1.500000X3.600000*%
%ADD40R,0.450000X1.380000*%
%ADD41R,1.475000X2.100000*%
%ADD42R,2.375000X1.900000*%
%ADD43R,1.175000X1.900000*%
%ADD44R,0.350000X0.650000*%
%ADD45R,0.630000X0.820000*%
%ADD46R,1.060000X0.650000*%
%ADD47R,2.300000X0.850000*%
%ADD48O,2.150000X0.700000*%
%ADD49O,0.700000X2.150000*%
%ADD50R,0.650000X1.060000*%
%ADD51C,0.400000*%
%ADD52R,0.320000X0.500000*%
G04 APERTURE END LIST*
D10*
%TO.C,U7*%
G36*
X98450000Y-151701490D02*
G01*
X98450000Y-152145000D01*
X98150980Y-152145000D01*
X98150980Y-151701490D01*
X98450000Y-151701490D01*
G37*
X98450000Y-151701490D02*
X98450000Y-152145000D01*
X98150980Y-152145000D01*
X98150980Y-151701490D01*
X98450000Y-151701490D01*
G36*
X98395000Y-152499650D02*
G01*
X98395000Y-152800000D01*
X97955100Y-152800000D01*
X97955100Y-152499650D01*
X98395000Y-152499650D01*
G37*
X98395000Y-152499650D02*
X98395000Y-152800000D01*
X97955100Y-152800000D01*
X97955100Y-152499650D01*
X98395000Y-152499650D01*
G36*
X98395000Y-153097510D02*
G01*
X98395000Y-153400000D01*
X97955882Y-153400000D01*
X97955882Y-153097510D01*
X98395000Y-153097510D01*
G37*
X98395000Y-153097510D02*
X98395000Y-153400000D01*
X97955882Y-153400000D01*
X97955882Y-153097510D01*
X98395000Y-153097510D01*
G36*
X98395000Y-153697450D02*
G01*
X98395000Y-154000000D01*
X97956172Y-154000000D01*
X97956172Y-153697450D01*
X98395000Y-153697450D01*
G37*
X98395000Y-153697450D02*
X98395000Y-154000000D01*
X97956172Y-154000000D01*
X97956172Y-153697450D01*
X98395000Y-153697450D01*
G36*
X98395000Y-154297580D02*
G01*
X98395000Y-154600000D01*
X97956579Y-154600000D01*
X97956579Y-154297580D01*
X98395000Y-154297580D01*
G37*
X98395000Y-154297580D02*
X98395000Y-154600000D01*
X97956579Y-154600000D01*
X97956579Y-154297580D01*
X98395000Y-154297580D01*
G36*
X98395000Y-154899969D02*
G01*
X98395000Y-155200000D01*
X97955034Y-155200000D01*
X97955034Y-154899969D01*
X98395000Y-154899969D01*
G37*
X98395000Y-154899969D02*
X98395000Y-155200000D01*
X97955034Y-155200000D01*
X97955034Y-154899969D01*
X98395000Y-154899969D01*
G36*
X98395000Y-155499882D02*
G01*
X98395000Y-155800000D01*
X97955490Y-155800000D01*
X97955490Y-155499882D01*
X98395000Y-155499882D01*
G37*
X98395000Y-155499882D02*
X98395000Y-155800000D01*
X97955490Y-155800000D01*
X97955490Y-155499882D01*
X98395000Y-155499882D01*
G36*
X98395000Y-156100129D02*
G01*
X98395000Y-156400000D01*
X97955320Y-156400000D01*
X97955320Y-156100129D01*
X98395000Y-156100129D01*
G37*
X98395000Y-156100129D02*
X98395000Y-156400000D01*
X97955320Y-156400000D01*
X97955320Y-156100129D01*
X98395000Y-156100129D01*
G36*
X97775000Y-151703350D02*
G01*
X97775000Y-152145000D01*
X97475185Y-152145000D01*
X97475185Y-151703350D01*
X97775000Y-151703350D01*
G37*
X97775000Y-151703350D02*
X97775000Y-152145000D01*
X97475185Y-152145000D01*
X97475185Y-151703350D01*
X97775000Y-151703350D01*
G36*
X97175000Y-151700540D02*
G01*
X97175000Y-152145000D01*
X96874834Y-152145000D01*
X96874834Y-151700540D01*
X97175000Y-151700540D01*
G37*
X97175000Y-151700540D02*
X97175000Y-152145000D01*
X96874834Y-152145000D01*
X96874834Y-151700540D01*
X97175000Y-151700540D01*
G36*
X96575000Y-151699800D02*
G01*
X96575000Y-152145000D01*
X96274030Y-152145000D01*
X96274030Y-151699800D01*
X96575000Y-151699800D01*
G37*
X96575000Y-151699800D02*
X96575000Y-152145000D01*
X96274030Y-152145000D01*
X96274030Y-151699800D01*
X96575000Y-151699800D01*
G36*
X95900000Y-151699520D02*
G01*
X95900000Y-152145000D01*
X95598060Y-152145000D01*
X95598060Y-151699520D01*
X95900000Y-151699520D01*
G37*
X95900000Y-151699520D02*
X95900000Y-152145000D01*
X95598060Y-152145000D01*
X95598060Y-151699520D01*
X95900000Y-151699520D01*
G36*
X96095000Y-152497870D02*
G01*
X96095000Y-152800000D01*
X95654090Y-152800000D01*
X95654090Y-152497870D01*
X96095000Y-152497870D01*
G37*
X96095000Y-152497870D02*
X96095000Y-152800000D01*
X95654090Y-152800000D01*
X95654090Y-152497870D01*
X96095000Y-152497870D01*
G36*
X96095000Y-153097430D02*
G01*
X96095000Y-153400000D01*
X95653660Y-153400000D01*
X95653660Y-153097430D01*
X96095000Y-153097430D01*
G37*
X96095000Y-153097430D02*
X96095000Y-153400000D01*
X95653660Y-153400000D01*
X95653660Y-153097430D01*
X96095000Y-153097430D01*
G36*
X96095000Y-153698610D02*
G01*
X96095000Y-154000000D01*
X95654060Y-154000000D01*
X95654060Y-153698610D01*
X96095000Y-153698610D01*
G37*
X96095000Y-153698610D02*
X96095000Y-154000000D01*
X95654060Y-154000000D01*
X95654060Y-153698610D01*
X96095000Y-153698610D01*
G36*
X96095000Y-154298190D02*
G01*
X96095000Y-154600000D01*
X95653260Y-154600000D01*
X95653260Y-154298190D01*
X96095000Y-154298190D01*
G37*
X96095000Y-154298190D02*
X96095000Y-154600000D01*
X95653260Y-154600000D01*
X95653260Y-154298190D01*
X96095000Y-154298190D01*
G36*
X96095000Y-154898515D02*
G01*
X96095000Y-155200000D01*
X95652530Y-155200000D01*
X95652530Y-154898515D01*
X96095000Y-154898515D01*
G37*
X96095000Y-154898515D02*
X96095000Y-155200000D01*
X95652530Y-155200000D01*
X95652530Y-154898515D01*
X96095000Y-154898515D01*
G36*
X96095000Y-155499985D02*
G01*
X96095000Y-155800000D01*
X95654910Y-155800000D01*
X95654910Y-155499985D01*
X96095000Y-155499985D01*
G37*
X96095000Y-155499985D02*
X96095000Y-155800000D01*
X95654910Y-155800000D01*
X95654910Y-155499985D01*
X96095000Y-155499985D01*
G36*
X96095000Y-156100047D02*
G01*
X96095000Y-156400000D01*
X95654830Y-156400000D01*
X95654830Y-156100047D01*
X96095000Y-156100047D01*
G37*
X96095000Y-156100047D02*
X96095000Y-156400000D01*
X95654830Y-156400000D01*
X95654830Y-156100047D01*
X96095000Y-156100047D01*
G36*
X97475000Y-152551880D02*
G01*
X97475000Y-152995000D01*
X97175148Y-152995000D01*
X97175148Y-152551880D01*
X97475000Y-152551880D01*
G37*
X97475000Y-152551880D02*
X97475000Y-152995000D01*
X97175148Y-152995000D01*
X97175148Y-152551880D01*
X97475000Y-152551880D01*
G36*
X96875000Y-152551340D02*
G01*
X96875000Y-152995000D01*
X96574481Y-152995000D01*
X96574481Y-152551340D01*
X96875000Y-152551340D01*
G37*
X96875000Y-152551340D02*
X96875000Y-152995000D01*
X96574481Y-152995000D01*
X96574481Y-152551340D01*
X96875000Y-152551340D01*
G36*
X97175000Y-153827430D02*
G01*
X97175000Y-154270000D01*
X96874797Y-154270000D01*
X96874797Y-153827430D01*
X97175000Y-153827430D01*
G37*
X97175000Y-153827430D02*
X97175000Y-154270000D01*
X96874797Y-154270000D01*
X96874797Y-153827430D01*
X97175000Y-153827430D01*
G36*
X98450000Y-159311260D02*
G01*
X98450000Y-159745000D01*
X98151970Y-159745000D01*
X98151970Y-159311260D01*
X98450000Y-159311260D01*
G37*
X98450000Y-159311260D02*
X98450000Y-159745000D01*
X98151970Y-159745000D01*
X98151970Y-159311260D01*
X98450000Y-159311260D01*
G36*
X95900000Y-159309320D02*
G01*
X95900000Y-159745000D01*
X95598280Y-159745000D01*
X95598280Y-159309320D01*
X95900000Y-159309320D01*
G37*
X95900000Y-159309320D02*
X95900000Y-159745000D01*
X95598280Y-159745000D01*
X95598280Y-159309320D01*
X95900000Y-159309320D01*
D11*
G36*
X97400000Y-155975000D02*
G01*
X97410467Y-155975274D01*
X97420906Y-155976096D01*
X97431287Y-155977462D01*
X97441582Y-155979370D01*
X97451764Y-155981815D01*
X97461803Y-155984789D01*
X97471674Y-155988284D01*
X97481347Y-155992291D01*
X97490798Y-155996799D01*
X97500000Y-156001795D01*
X97508928Y-156007266D01*
X97517557Y-156013197D01*
X97525864Y-156019571D01*
X97533826Y-156026371D01*
X97541421Y-156033579D01*
X97548629Y-156041174D01*
X97555429Y-156049136D01*
X97561803Y-156057443D01*
X97567734Y-156066072D01*
X97573205Y-156075000D01*
X97578201Y-156084202D01*
X97582709Y-156093653D01*
X97586716Y-156103326D01*
X97590211Y-156113197D01*
X97593185Y-156123236D01*
X97595630Y-156133418D01*
X97597538Y-156143713D01*
X97598904Y-156154094D01*
X97599726Y-156164533D01*
X97600000Y-156175000D01*
X97599726Y-156185467D01*
X97598904Y-156195906D01*
X97597538Y-156206287D01*
X97595630Y-156216582D01*
X97593185Y-156226764D01*
X97590211Y-156236803D01*
X97586716Y-156246674D01*
X97582709Y-156256347D01*
X97578201Y-156265798D01*
X97573205Y-156275000D01*
X97567734Y-156283928D01*
X97561803Y-156292557D01*
X97555429Y-156300864D01*
X97548629Y-156308826D01*
X97541421Y-156316421D01*
X97533826Y-156323629D01*
X97525864Y-156330429D01*
X97517557Y-156336803D01*
X97508928Y-156342734D01*
X97500000Y-156348205D01*
X97490798Y-156353201D01*
X97481347Y-156357709D01*
X97471674Y-156361716D01*
X97461803Y-156365211D01*
X97451764Y-156368185D01*
X97441582Y-156370630D01*
X97431287Y-156372538D01*
X97420906Y-156373904D01*
X97410467Y-156374726D01*
X97400000Y-156375000D01*
X97389533Y-156374726D01*
X97379094Y-156373904D01*
X97368713Y-156372538D01*
X97358418Y-156370630D01*
X97348236Y-156368185D01*
X97338197Y-156365211D01*
X97328326Y-156361716D01*
X97318653Y-156357709D01*
X97309202Y-156353201D01*
X97300000Y-156348205D01*
X97291072Y-156342734D01*
X97282443Y-156336803D01*
X97274136Y-156330429D01*
X97266174Y-156323629D01*
X97258579Y-156316421D01*
X97251371Y-156308826D01*
X97244571Y-156300864D01*
X97238197Y-156292557D01*
X97232266Y-156283928D01*
X97226795Y-156275000D01*
X97221799Y-156265798D01*
X97217291Y-156256347D01*
X97213284Y-156246674D01*
X97209789Y-156236803D01*
X97206815Y-156226764D01*
X97204370Y-156216582D01*
X97202462Y-156206287D01*
X97201096Y-156195906D01*
X97200274Y-156185467D01*
X97200000Y-156175000D01*
X97200274Y-156164533D01*
X97201096Y-156154094D01*
X97202462Y-156143713D01*
X97204370Y-156133418D01*
X97206815Y-156123236D01*
X97209789Y-156113197D01*
X97213284Y-156103326D01*
X97217291Y-156093653D01*
X97221799Y-156084202D01*
X97226795Y-156075000D01*
X97232266Y-156066072D01*
X97238197Y-156057443D01*
X97244571Y-156049136D01*
X97251371Y-156041174D01*
X97258579Y-156033579D01*
X97266174Y-156026371D01*
X97274136Y-156019571D01*
X97282443Y-156013197D01*
X97291072Y-156007266D01*
X97300000Y-156001795D01*
X97309202Y-155996799D01*
X97318653Y-155992291D01*
X97328326Y-155988284D01*
X97338197Y-155984789D01*
X97348236Y-155981815D01*
X97358418Y-155979370D01*
X97368713Y-155977462D01*
X97379094Y-155976096D01*
X97389533Y-155975274D01*
X97400000Y-155975000D01*
G37*
X97400000Y-155975000D02*
X97410467Y-155975274D01*
X97420906Y-155976096D01*
X97431287Y-155977462D01*
X97441582Y-155979370D01*
X97451764Y-155981815D01*
X97461803Y-155984789D01*
X97471674Y-155988284D01*
X97481347Y-155992291D01*
X97490798Y-155996799D01*
X97500000Y-156001795D01*
X97508928Y-156007266D01*
X97517557Y-156013197D01*
X97525864Y-156019571D01*
X97533826Y-156026371D01*
X97541421Y-156033579D01*
X97548629Y-156041174D01*
X97555429Y-156049136D01*
X97561803Y-156057443D01*
X97567734Y-156066072D01*
X97573205Y-156075000D01*
X97578201Y-156084202D01*
X97582709Y-156093653D01*
X97586716Y-156103326D01*
X97590211Y-156113197D01*
X97593185Y-156123236D01*
X97595630Y-156133418D01*
X97597538Y-156143713D01*
X97598904Y-156154094D01*
X97599726Y-156164533D01*
X97600000Y-156175000D01*
X97599726Y-156185467D01*
X97598904Y-156195906D01*
X97597538Y-156206287D01*
X97595630Y-156216582D01*
X97593185Y-156226764D01*
X97590211Y-156236803D01*
X97586716Y-156246674D01*
X97582709Y-156256347D01*
X97578201Y-156265798D01*
X97573205Y-156275000D01*
X97567734Y-156283928D01*
X97561803Y-156292557D01*
X97555429Y-156300864D01*
X97548629Y-156308826D01*
X97541421Y-156316421D01*
X97533826Y-156323629D01*
X97525864Y-156330429D01*
X97517557Y-156336803D01*
X97508928Y-156342734D01*
X97500000Y-156348205D01*
X97490798Y-156353201D01*
X97481347Y-156357709D01*
X97471674Y-156361716D01*
X97461803Y-156365211D01*
X97451764Y-156368185D01*
X97441582Y-156370630D01*
X97431287Y-156372538D01*
X97420906Y-156373904D01*
X97410467Y-156374726D01*
X97400000Y-156375000D01*
X97389533Y-156374726D01*
X97379094Y-156373904D01*
X97368713Y-156372538D01*
X97358418Y-156370630D01*
X97348236Y-156368185D01*
X97338197Y-156365211D01*
X97328326Y-156361716D01*
X97318653Y-156357709D01*
X97309202Y-156353201D01*
X97300000Y-156348205D01*
X97291072Y-156342734D01*
X97282443Y-156336803D01*
X97274136Y-156330429D01*
X97266174Y-156323629D01*
X97258579Y-156316421D01*
X97251371Y-156308826D01*
X97244571Y-156300864D01*
X97238197Y-156292557D01*
X97232266Y-156283928D01*
X97226795Y-156275000D01*
X97221799Y-156265798D01*
X97217291Y-156256347D01*
X97213284Y-156246674D01*
X97209789Y-156236803D01*
X97206815Y-156226764D01*
X97204370Y-156216582D01*
X97202462Y-156206287D01*
X97201096Y-156195906D01*
X97200274Y-156185467D01*
X97200000Y-156175000D01*
X97200274Y-156164533D01*
X97201096Y-156154094D01*
X97202462Y-156143713D01*
X97204370Y-156133418D01*
X97206815Y-156123236D01*
X97209789Y-156113197D01*
X97213284Y-156103326D01*
X97217291Y-156093653D01*
X97221799Y-156084202D01*
X97226795Y-156075000D01*
X97232266Y-156066072D01*
X97238197Y-156057443D01*
X97244571Y-156049136D01*
X97251371Y-156041174D01*
X97258579Y-156033579D01*
X97266174Y-156026371D01*
X97274136Y-156019571D01*
X97282443Y-156013197D01*
X97291072Y-156007266D01*
X97300000Y-156001795D01*
X97309202Y-155996799D01*
X97318653Y-155992291D01*
X97328326Y-155988284D01*
X97338197Y-155984789D01*
X97348236Y-155981815D01*
X97358418Y-155979370D01*
X97368713Y-155977462D01*
X97379094Y-155976096D01*
X97389533Y-155975274D01*
X97400000Y-155975000D01*
G36*
X96650000Y-155075000D02*
G01*
X96660467Y-155075274D01*
X96670906Y-155076096D01*
X96681287Y-155077462D01*
X96691582Y-155079370D01*
X96701764Y-155081815D01*
X96711803Y-155084789D01*
X96721674Y-155088284D01*
X96731347Y-155092291D01*
X96740798Y-155096799D01*
X96750000Y-155101795D01*
X96758928Y-155107266D01*
X96767557Y-155113197D01*
X96775864Y-155119571D01*
X96783826Y-155126371D01*
X96791421Y-155133579D01*
X96798629Y-155141174D01*
X96805429Y-155149136D01*
X96811803Y-155157443D01*
X96817734Y-155166072D01*
X96823205Y-155175000D01*
X96828201Y-155184202D01*
X96832709Y-155193653D01*
X96836716Y-155203326D01*
X96840211Y-155213197D01*
X96843185Y-155223236D01*
X96845630Y-155233418D01*
X96847538Y-155243713D01*
X96848904Y-155254094D01*
X96849726Y-155264533D01*
X96850000Y-155275000D01*
X96849726Y-155285467D01*
X96848904Y-155295906D01*
X96847538Y-155306287D01*
X96845630Y-155316582D01*
X96843185Y-155326764D01*
X96840211Y-155336803D01*
X96836716Y-155346674D01*
X96832709Y-155356347D01*
X96828201Y-155365798D01*
X96823205Y-155375000D01*
X96817734Y-155383928D01*
X96811803Y-155392557D01*
X96805429Y-155400864D01*
X96798629Y-155408826D01*
X96791421Y-155416421D01*
X96783826Y-155423629D01*
X96775864Y-155430429D01*
X96767557Y-155436803D01*
X96758928Y-155442734D01*
X96750000Y-155448205D01*
X96740798Y-155453201D01*
X96731347Y-155457709D01*
X96721674Y-155461716D01*
X96711803Y-155465211D01*
X96701764Y-155468185D01*
X96691582Y-155470630D01*
X96681287Y-155472538D01*
X96670906Y-155473904D01*
X96660467Y-155474726D01*
X96650000Y-155475000D01*
X96639533Y-155474726D01*
X96629094Y-155473904D01*
X96618713Y-155472538D01*
X96608418Y-155470630D01*
X96598236Y-155468185D01*
X96588197Y-155465211D01*
X96578326Y-155461716D01*
X96568653Y-155457709D01*
X96559202Y-155453201D01*
X96550000Y-155448205D01*
X96541072Y-155442734D01*
X96532443Y-155436803D01*
X96524136Y-155430429D01*
X96516174Y-155423629D01*
X96508579Y-155416421D01*
X96501371Y-155408826D01*
X96494571Y-155400864D01*
X96488197Y-155392557D01*
X96482266Y-155383928D01*
X96476795Y-155375000D01*
X96471799Y-155365798D01*
X96467291Y-155356347D01*
X96463284Y-155346674D01*
X96459789Y-155336803D01*
X96456815Y-155326764D01*
X96454370Y-155316582D01*
X96452462Y-155306287D01*
X96451096Y-155295906D01*
X96450274Y-155285467D01*
X96450000Y-155275000D01*
X96450274Y-155264533D01*
X96451096Y-155254094D01*
X96452462Y-155243713D01*
X96454370Y-155233418D01*
X96456815Y-155223236D01*
X96459789Y-155213197D01*
X96463284Y-155203326D01*
X96467291Y-155193653D01*
X96471799Y-155184202D01*
X96476795Y-155175000D01*
X96482266Y-155166072D01*
X96488197Y-155157443D01*
X96494571Y-155149136D01*
X96501371Y-155141174D01*
X96508579Y-155133579D01*
X96516174Y-155126371D01*
X96524136Y-155119571D01*
X96532443Y-155113197D01*
X96541072Y-155107266D01*
X96550000Y-155101795D01*
X96559202Y-155096799D01*
X96568653Y-155092291D01*
X96578326Y-155088284D01*
X96588197Y-155084789D01*
X96598236Y-155081815D01*
X96608418Y-155079370D01*
X96618713Y-155077462D01*
X96629094Y-155076096D01*
X96639533Y-155075274D01*
X96650000Y-155075000D01*
G37*
X96650000Y-155075000D02*
X96660467Y-155075274D01*
X96670906Y-155076096D01*
X96681287Y-155077462D01*
X96691582Y-155079370D01*
X96701764Y-155081815D01*
X96711803Y-155084789D01*
X96721674Y-155088284D01*
X96731347Y-155092291D01*
X96740798Y-155096799D01*
X96750000Y-155101795D01*
X96758928Y-155107266D01*
X96767557Y-155113197D01*
X96775864Y-155119571D01*
X96783826Y-155126371D01*
X96791421Y-155133579D01*
X96798629Y-155141174D01*
X96805429Y-155149136D01*
X96811803Y-155157443D01*
X96817734Y-155166072D01*
X96823205Y-155175000D01*
X96828201Y-155184202D01*
X96832709Y-155193653D01*
X96836716Y-155203326D01*
X96840211Y-155213197D01*
X96843185Y-155223236D01*
X96845630Y-155233418D01*
X96847538Y-155243713D01*
X96848904Y-155254094D01*
X96849726Y-155264533D01*
X96850000Y-155275000D01*
X96849726Y-155285467D01*
X96848904Y-155295906D01*
X96847538Y-155306287D01*
X96845630Y-155316582D01*
X96843185Y-155326764D01*
X96840211Y-155336803D01*
X96836716Y-155346674D01*
X96832709Y-155356347D01*
X96828201Y-155365798D01*
X96823205Y-155375000D01*
X96817734Y-155383928D01*
X96811803Y-155392557D01*
X96805429Y-155400864D01*
X96798629Y-155408826D01*
X96791421Y-155416421D01*
X96783826Y-155423629D01*
X96775864Y-155430429D01*
X96767557Y-155436803D01*
X96758928Y-155442734D01*
X96750000Y-155448205D01*
X96740798Y-155453201D01*
X96731347Y-155457709D01*
X96721674Y-155461716D01*
X96711803Y-155465211D01*
X96701764Y-155468185D01*
X96691582Y-155470630D01*
X96681287Y-155472538D01*
X96670906Y-155473904D01*
X96660467Y-155474726D01*
X96650000Y-155475000D01*
X96639533Y-155474726D01*
X96629094Y-155473904D01*
X96618713Y-155472538D01*
X96608418Y-155470630D01*
X96598236Y-155468185D01*
X96588197Y-155465211D01*
X96578326Y-155461716D01*
X96568653Y-155457709D01*
X96559202Y-155453201D01*
X96550000Y-155448205D01*
X96541072Y-155442734D01*
X96532443Y-155436803D01*
X96524136Y-155430429D01*
X96516174Y-155423629D01*
X96508579Y-155416421D01*
X96501371Y-155408826D01*
X96494571Y-155400864D01*
X96488197Y-155392557D01*
X96482266Y-155383928D01*
X96476795Y-155375000D01*
X96471799Y-155365798D01*
X96467291Y-155356347D01*
X96463284Y-155346674D01*
X96459789Y-155336803D01*
X96456815Y-155326764D01*
X96454370Y-155316582D01*
X96452462Y-155306287D01*
X96451096Y-155295906D01*
X96450274Y-155285467D01*
X96450000Y-155275000D01*
X96450274Y-155264533D01*
X96451096Y-155254094D01*
X96452462Y-155243713D01*
X96454370Y-155233418D01*
X96456815Y-155223236D01*
X96459789Y-155213197D01*
X96463284Y-155203326D01*
X96467291Y-155193653D01*
X96471799Y-155184202D01*
X96476795Y-155175000D01*
X96482266Y-155166072D01*
X96488197Y-155157443D01*
X96494571Y-155149136D01*
X96501371Y-155141174D01*
X96508579Y-155133579D01*
X96516174Y-155126371D01*
X96524136Y-155119571D01*
X96532443Y-155113197D01*
X96541072Y-155107266D01*
X96550000Y-155101795D01*
X96559202Y-155096799D01*
X96568653Y-155092291D01*
X96578326Y-155088284D01*
X96588197Y-155084789D01*
X96598236Y-155081815D01*
X96608418Y-155079370D01*
X96618713Y-155077462D01*
X96629094Y-155076096D01*
X96639533Y-155075274D01*
X96650000Y-155075000D01*
G36*
X97400000Y-155075000D02*
G01*
X97410467Y-155075274D01*
X97420906Y-155076096D01*
X97431287Y-155077462D01*
X97441582Y-155079370D01*
X97451764Y-155081815D01*
X97461803Y-155084789D01*
X97471674Y-155088284D01*
X97481347Y-155092291D01*
X97490798Y-155096799D01*
X97500000Y-155101795D01*
X97508928Y-155107266D01*
X97517557Y-155113197D01*
X97525864Y-155119571D01*
X97533826Y-155126371D01*
X97541421Y-155133579D01*
X97548629Y-155141174D01*
X97555429Y-155149136D01*
X97561803Y-155157443D01*
X97567734Y-155166072D01*
X97573205Y-155175000D01*
X97578201Y-155184202D01*
X97582709Y-155193653D01*
X97586716Y-155203326D01*
X97590211Y-155213197D01*
X97593185Y-155223236D01*
X97595630Y-155233418D01*
X97597538Y-155243713D01*
X97598904Y-155254094D01*
X97599726Y-155264533D01*
X97600000Y-155275000D01*
X97599726Y-155285467D01*
X97598904Y-155295906D01*
X97597538Y-155306287D01*
X97595630Y-155316582D01*
X97593185Y-155326764D01*
X97590211Y-155336803D01*
X97586716Y-155346674D01*
X97582709Y-155356347D01*
X97578201Y-155365798D01*
X97573205Y-155375000D01*
X97567734Y-155383928D01*
X97561803Y-155392557D01*
X97555429Y-155400864D01*
X97548629Y-155408826D01*
X97541421Y-155416421D01*
X97533826Y-155423629D01*
X97525864Y-155430429D01*
X97517557Y-155436803D01*
X97508928Y-155442734D01*
X97500000Y-155448205D01*
X97490798Y-155453201D01*
X97481347Y-155457709D01*
X97471674Y-155461716D01*
X97461803Y-155465211D01*
X97451764Y-155468185D01*
X97441582Y-155470630D01*
X97431287Y-155472538D01*
X97420906Y-155473904D01*
X97410467Y-155474726D01*
X97400000Y-155475000D01*
X97389533Y-155474726D01*
X97379094Y-155473904D01*
X97368713Y-155472538D01*
X97358418Y-155470630D01*
X97348236Y-155468185D01*
X97338197Y-155465211D01*
X97328326Y-155461716D01*
X97318653Y-155457709D01*
X97309202Y-155453201D01*
X97300000Y-155448205D01*
X97291072Y-155442734D01*
X97282443Y-155436803D01*
X97274136Y-155430429D01*
X97266174Y-155423629D01*
X97258579Y-155416421D01*
X97251371Y-155408826D01*
X97244571Y-155400864D01*
X97238197Y-155392557D01*
X97232266Y-155383928D01*
X97226795Y-155375000D01*
X97221799Y-155365798D01*
X97217291Y-155356347D01*
X97213284Y-155346674D01*
X97209789Y-155336803D01*
X97206815Y-155326764D01*
X97204370Y-155316582D01*
X97202462Y-155306287D01*
X97201096Y-155295906D01*
X97200274Y-155285467D01*
X97200000Y-155275000D01*
X97200274Y-155264533D01*
X97201096Y-155254094D01*
X97202462Y-155243713D01*
X97204370Y-155233418D01*
X97206815Y-155223236D01*
X97209789Y-155213197D01*
X97213284Y-155203326D01*
X97217291Y-155193653D01*
X97221799Y-155184202D01*
X97226795Y-155175000D01*
X97232266Y-155166072D01*
X97238197Y-155157443D01*
X97244571Y-155149136D01*
X97251371Y-155141174D01*
X97258579Y-155133579D01*
X97266174Y-155126371D01*
X97274136Y-155119571D01*
X97282443Y-155113197D01*
X97291072Y-155107266D01*
X97300000Y-155101795D01*
X97309202Y-155096799D01*
X97318653Y-155092291D01*
X97328326Y-155088284D01*
X97338197Y-155084789D01*
X97348236Y-155081815D01*
X97358418Y-155079370D01*
X97368713Y-155077462D01*
X97379094Y-155076096D01*
X97389533Y-155075274D01*
X97400000Y-155075000D01*
G37*
X97400000Y-155075000D02*
X97410467Y-155075274D01*
X97420906Y-155076096D01*
X97431287Y-155077462D01*
X97441582Y-155079370D01*
X97451764Y-155081815D01*
X97461803Y-155084789D01*
X97471674Y-155088284D01*
X97481347Y-155092291D01*
X97490798Y-155096799D01*
X97500000Y-155101795D01*
X97508928Y-155107266D01*
X97517557Y-155113197D01*
X97525864Y-155119571D01*
X97533826Y-155126371D01*
X97541421Y-155133579D01*
X97548629Y-155141174D01*
X97555429Y-155149136D01*
X97561803Y-155157443D01*
X97567734Y-155166072D01*
X97573205Y-155175000D01*
X97578201Y-155184202D01*
X97582709Y-155193653D01*
X97586716Y-155203326D01*
X97590211Y-155213197D01*
X97593185Y-155223236D01*
X97595630Y-155233418D01*
X97597538Y-155243713D01*
X97598904Y-155254094D01*
X97599726Y-155264533D01*
X97600000Y-155275000D01*
X97599726Y-155285467D01*
X97598904Y-155295906D01*
X97597538Y-155306287D01*
X97595630Y-155316582D01*
X97593185Y-155326764D01*
X97590211Y-155336803D01*
X97586716Y-155346674D01*
X97582709Y-155356347D01*
X97578201Y-155365798D01*
X97573205Y-155375000D01*
X97567734Y-155383928D01*
X97561803Y-155392557D01*
X97555429Y-155400864D01*
X97548629Y-155408826D01*
X97541421Y-155416421D01*
X97533826Y-155423629D01*
X97525864Y-155430429D01*
X97517557Y-155436803D01*
X97508928Y-155442734D01*
X97500000Y-155448205D01*
X97490798Y-155453201D01*
X97481347Y-155457709D01*
X97471674Y-155461716D01*
X97461803Y-155465211D01*
X97451764Y-155468185D01*
X97441582Y-155470630D01*
X97431287Y-155472538D01*
X97420906Y-155473904D01*
X97410467Y-155474726D01*
X97400000Y-155475000D01*
X97389533Y-155474726D01*
X97379094Y-155473904D01*
X97368713Y-155472538D01*
X97358418Y-155470630D01*
X97348236Y-155468185D01*
X97338197Y-155465211D01*
X97328326Y-155461716D01*
X97318653Y-155457709D01*
X97309202Y-155453201D01*
X97300000Y-155448205D01*
X97291072Y-155442734D01*
X97282443Y-155436803D01*
X97274136Y-155430429D01*
X97266174Y-155423629D01*
X97258579Y-155416421D01*
X97251371Y-155408826D01*
X97244571Y-155400864D01*
X97238197Y-155392557D01*
X97232266Y-155383928D01*
X97226795Y-155375000D01*
X97221799Y-155365798D01*
X97217291Y-155356347D01*
X97213284Y-155346674D01*
X97209789Y-155336803D01*
X97206815Y-155326764D01*
X97204370Y-155316582D01*
X97202462Y-155306287D01*
X97201096Y-155295906D01*
X97200274Y-155285467D01*
X97200000Y-155275000D01*
X97200274Y-155264533D01*
X97201096Y-155254094D01*
X97202462Y-155243713D01*
X97204370Y-155233418D01*
X97206815Y-155223236D01*
X97209789Y-155213197D01*
X97213284Y-155203326D01*
X97217291Y-155193653D01*
X97221799Y-155184202D01*
X97226795Y-155175000D01*
X97232266Y-155166072D01*
X97238197Y-155157443D01*
X97244571Y-155149136D01*
X97251371Y-155141174D01*
X97258579Y-155133579D01*
X97266174Y-155126371D01*
X97274136Y-155119571D01*
X97282443Y-155113197D01*
X97291072Y-155107266D01*
X97300000Y-155101795D01*
X97309202Y-155096799D01*
X97318653Y-155092291D01*
X97328326Y-155088284D01*
X97338197Y-155084789D01*
X97348236Y-155081815D01*
X97358418Y-155079370D01*
X97368713Y-155077462D01*
X97379094Y-155076096D01*
X97389533Y-155075274D01*
X97400000Y-155075000D01*
G36*
X96650000Y-155975000D02*
G01*
X96660467Y-155975274D01*
X96670906Y-155976096D01*
X96681287Y-155977462D01*
X96691582Y-155979370D01*
X96701764Y-155981815D01*
X96711803Y-155984789D01*
X96721674Y-155988284D01*
X96731347Y-155992291D01*
X96740798Y-155996799D01*
X96750000Y-156001795D01*
X96758928Y-156007266D01*
X96767557Y-156013197D01*
X96775864Y-156019571D01*
X96783826Y-156026371D01*
X96791421Y-156033579D01*
X96798629Y-156041174D01*
X96805429Y-156049136D01*
X96811803Y-156057443D01*
X96817734Y-156066072D01*
X96823205Y-156075000D01*
X96828201Y-156084202D01*
X96832709Y-156093653D01*
X96836716Y-156103326D01*
X96840211Y-156113197D01*
X96843185Y-156123236D01*
X96845630Y-156133418D01*
X96847538Y-156143713D01*
X96848904Y-156154094D01*
X96849726Y-156164533D01*
X96850000Y-156175000D01*
X96849726Y-156185467D01*
X96848904Y-156195906D01*
X96847538Y-156206287D01*
X96845630Y-156216582D01*
X96843185Y-156226764D01*
X96840211Y-156236803D01*
X96836716Y-156246674D01*
X96832709Y-156256347D01*
X96828201Y-156265798D01*
X96823205Y-156275000D01*
X96817734Y-156283928D01*
X96811803Y-156292557D01*
X96805429Y-156300864D01*
X96798629Y-156308826D01*
X96791421Y-156316421D01*
X96783826Y-156323629D01*
X96775864Y-156330429D01*
X96767557Y-156336803D01*
X96758928Y-156342734D01*
X96750000Y-156348205D01*
X96740798Y-156353201D01*
X96731347Y-156357709D01*
X96721674Y-156361716D01*
X96711803Y-156365211D01*
X96701764Y-156368185D01*
X96691582Y-156370630D01*
X96681287Y-156372538D01*
X96670906Y-156373904D01*
X96660467Y-156374726D01*
X96650000Y-156375000D01*
X96639533Y-156374726D01*
X96629094Y-156373904D01*
X96618713Y-156372538D01*
X96608418Y-156370630D01*
X96598236Y-156368185D01*
X96588197Y-156365211D01*
X96578326Y-156361716D01*
X96568653Y-156357709D01*
X96559202Y-156353201D01*
X96550000Y-156348205D01*
X96541072Y-156342734D01*
X96532443Y-156336803D01*
X96524136Y-156330429D01*
X96516174Y-156323629D01*
X96508579Y-156316421D01*
X96501371Y-156308826D01*
X96494571Y-156300864D01*
X96488197Y-156292557D01*
X96482266Y-156283928D01*
X96476795Y-156275000D01*
X96471799Y-156265798D01*
X96467291Y-156256347D01*
X96463284Y-156246674D01*
X96459789Y-156236803D01*
X96456815Y-156226764D01*
X96454370Y-156216582D01*
X96452462Y-156206287D01*
X96451096Y-156195906D01*
X96450274Y-156185467D01*
X96450000Y-156175000D01*
X96450274Y-156164533D01*
X96451096Y-156154094D01*
X96452462Y-156143713D01*
X96454370Y-156133418D01*
X96456815Y-156123236D01*
X96459789Y-156113197D01*
X96463284Y-156103326D01*
X96467291Y-156093653D01*
X96471799Y-156084202D01*
X96476795Y-156075000D01*
X96482266Y-156066072D01*
X96488197Y-156057443D01*
X96494571Y-156049136D01*
X96501371Y-156041174D01*
X96508579Y-156033579D01*
X96516174Y-156026371D01*
X96524136Y-156019571D01*
X96532443Y-156013197D01*
X96541072Y-156007266D01*
X96550000Y-156001795D01*
X96559202Y-155996799D01*
X96568653Y-155992291D01*
X96578326Y-155988284D01*
X96588197Y-155984789D01*
X96598236Y-155981815D01*
X96608418Y-155979370D01*
X96618713Y-155977462D01*
X96629094Y-155976096D01*
X96639533Y-155975274D01*
X96650000Y-155975000D01*
G37*
X96650000Y-155975000D02*
X96660467Y-155975274D01*
X96670906Y-155976096D01*
X96681287Y-155977462D01*
X96691582Y-155979370D01*
X96701764Y-155981815D01*
X96711803Y-155984789D01*
X96721674Y-155988284D01*
X96731347Y-155992291D01*
X96740798Y-155996799D01*
X96750000Y-156001795D01*
X96758928Y-156007266D01*
X96767557Y-156013197D01*
X96775864Y-156019571D01*
X96783826Y-156026371D01*
X96791421Y-156033579D01*
X96798629Y-156041174D01*
X96805429Y-156049136D01*
X96811803Y-156057443D01*
X96817734Y-156066072D01*
X96823205Y-156075000D01*
X96828201Y-156084202D01*
X96832709Y-156093653D01*
X96836716Y-156103326D01*
X96840211Y-156113197D01*
X96843185Y-156123236D01*
X96845630Y-156133418D01*
X96847538Y-156143713D01*
X96848904Y-156154094D01*
X96849726Y-156164533D01*
X96850000Y-156175000D01*
X96849726Y-156185467D01*
X96848904Y-156195906D01*
X96847538Y-156206287D01*
X96845630Y-156216582D01*
X96843185Y-156226764D01*
X96840211Y-156236803D01*
X96836716Y-156246674D01*
X96832709Y-156256347D01*
X96828201Y-156265798D01*
X96823205Y-156275000D01*
X96817734Y-156283928D01*
X96811803Y-156292557D01*
X96805429Y-156300864D01*
X96798629Y-156308826D01*
X96791421Y-156316421D01*
X96783826Y-156323629D01*
X96775864Y-156330429D01*
X96767557Y-156336803D01*
X96758928Y-156342734D01*
X96750000Y-156348205D01*
X96740798Y-156353201D01*
X96731347Y-156357709D01*
X96721674Y-156361716D01*
X96711803Y-156365211D01*
X96701764Y-156368185D01*
X96691582Y-156370630D01*
X96681287Y-156372538D01*
X96670906Y-156373904D01*
X96660467Y-156374726D01*
X96650000Y-156375000D01*
X96639533Y-156374726D01*
X96629094Y-156373904D01*
X96618713Y-156372538D01*
X96608418Y-156370630D01*
X96598236Y-156368185D01*
X96588197Y-156365211D01*
X96578326Y-156361716D01*
X96568653Y-156357709D01*
X96559202Y-156353201D01*
X96550000Y-156348205D01*
X96541072Y-156342734D01*
X96532443Y-156336803D01*
X96524136Y-156330429D01*
X96516174Y-156323629D01*
X96508579Y-156316421D01*
X96501371Y-156308826D01*
X96494571Y-156300864D01*
X96488197Y-156292557D01*
X96482266Y-156283928D01*
X96476795Y-156275000D01*
X96471799Y-156265798D01*
X96467291Y-156256347D01*
X96463284Y-156246674D01*
X96459789Y-156236803D01*
X96456815Y-156226764D01*
X96454370Y-156216582D01*
X96452462Y-156206287D01*
X96451096Y-156195906D01*
X96450274Y-156185467D01*
X96450000Y-156175000D01*
X96450274Y-156164533D01*
X96451096Y-156154094D01*
X96452462Y-156143713D01*
X96454370Y-156133418D01*
X96456815Y-156123236D01*
X96459789Y-156113197D01*
X96463284Y-156103326D01*
X96467291Y-156093653D01*
X96471799Y-156084202D01*
X96476795Y-156075000D01*
X96482266Y-156066072D01*
X96488197Y-156057443D01*
X96494571Y-156049136D01*
X96501371Y-156041174D01*
X96508579Y-156033579D01*
X96516174Y-156026371D01*
X96524136Y-156019571D01*
X96532443Y-156013197D01*
X96541072Y-156007266D01*
X96550000Y-156001795D01*
X96559202Y-155996799D01*
X96568653Y-155992291D01*
X96578326Y-155988284D01*
X96588197Y-155984789D01*
X96598236Y-155981815D01*
X96608418Y-155979370D01*
X96618713Y-155977462D01*
X96629094Y-155976096D01*
X96639533Y-155975274D01*
X96650000Y-155975000D01*
D10*
%TO.C,J9*%
G36*
X56250000Y-156250000D02*
G01*
X55150000Y-156250000D01*
X55150000Y-155400000D01*
X56250000Y-155400000D01*
X56250000Y-156250000D01*
G37*
X56250000Y-156250000D02*
X55150000Y-156250000D01*
X55150000Y-155400000D01*
X56250000Y-155400000D01*
X56250000Y-156250000D01*
G36*
X56250000Y-158225000D02*
G01*
X54075000Y-158225000D01*
X54075000Y-156250000D01*
X56250000Y-156250000D01*
X56250000Y-158225000D01*
G37*
X56250000Y-158225000D02*
X54075000Y-158225000D01*
X54075000Y-156250000D01*
X56250000Y-156250000D01*
X56250000Y-158225000D01*
G36*
X61550000Y-156250000D02*
G01*
X60450000Y-156250000D01*
X60450000Y-155400000D01*
X61550000Y-155400000D01*
X61550000Y-156250000D01*
G37*
X61550000Y-156250000D02*
X60450000Y-156250000D01*
X60450000Y-155400000D01*
X61550000Y-155400000D01*
X61550000Y-156250000D01*
G36*
X62625000Y-158225000D02*
G01*
X60450000Y-158225000D01*
X60450000Y-156250000D01*
X62625000Y-156250000D01*
X62625000Y-158225000D01*
G37*
X62625000Y-158225000D02*
X60450000Y-158225000D01*
X60450000Y-156250000D01*
X62625000Y-156250000D01*
X62625000Y-158225000D01*
%TD*%
%TO.C,R31*%
G36*
G01*
X88927500Y-158165000D02*
X89272500Y-158165000D01*
G75*
G02*
X89420000Y-158312500I0J-147500D01*
G01*
X89420000Y-158607500D01*
G75*
G02*
X89272500Y-158755000I-147500J0D01*
G01*
X88927500Y-158755000D01*
G75*
G02*
X88780000Y-158607500I0J147500D01*
G01*
X88780000Y-158312500D01*
G75*
G02*
X88927500Y-158165000I147500J0D01*
G01*
G37*
G36*
G01*
X88927500Y-157195000D02*
X89272500Y-157195000D01*
G75*
G02*
X89420000Y-157342500I0J-147500D01*
G01*
X89420000Y-157637500D01*
G75*
G02*
X89272500Y-157785000I-147500J0D01*
G01*
X88927500Y-157785000D01*
G75*
G02*
X88780000Y-157637500I0J147500D01*
G01*
X88780000Y-157342500D01*
G75*
G02*
X88927500Y-157195000I147500J0D01*
G01*
G37*
%TD*%
%TO.C,R17*%
G36*
G01*
X59656250Y-130450000D02*
X59143750Y-130450000D01*
G75*
G02*
X58925000Y-130231250I0J218750D01*
G01*
X58925000Y-129793750D01*
G75*
G02*
X59143750Y-129575000I218750J0D01*
G01*
X59656250Y-129575000D01*
G75*
G02*
X59875000Y-129793750I0J-218750D01*
G01*
X59875000Y-130231250D01*
G75*
G02*
X59656250Y-130450000I-218750J0D01*
G01*
G37*
G36*
G01*
X59656250Y-132025000D02*
X59143750Y-132025000D01*
G75*
G02*
X58925000Y-131806250I0J218750D01*
G01*
X58925000Y-131368750D01*
G75*
G02*
X59143750Y-131150000I218750J0D01*
G01*
X59656250Y-131150000D01*
G75*
G02*
X59875000Y-131368750I0J-218750D01*
G01*
X59875000Y-131806250D01*
G75*
G02*
X59656250Y-132025000I-218750J0D01*
G01*
G37*
%TD*%
%TO.C,R16*%
G36*
G01*
X56206250Y-130537500D02*
X55693750Y-130537500D01*
G75*
G02*
X55475000Y-130318750I0J218750D01*
G01*
X55475000Y-129881250D01*
G75*
G02*
X55693750Y-129662500I218750J0D01*
G01*
X56206250Y-129662500D01*
G75*
G02*
X56425000Y-129881250I0J-218750D01*
G01*
X56425000Y-130318750D01*
G75*
G02*
X56206250Y-130537500I-218750J0D01*
G01*
G37*
G36*
G01*
X56206250Y-132112500D02*
X55693750Y-132112500D01*
G75*
G02*
X55475000Y-131893750I0J218750D01*
G01*
X55475000Y-131456250D01*
G75*
G02*
X55693750Y-131237500I218750J0D01*
G01*
X56206250Y-131237500D01*
G75*
G02*
X56425000Y-131456250I0J-218750D01*
G01*
X56425000Y-131893750D01*
G75*
G02*
X56206250Y-132112500I-218750J0D01*
G01*
G37*
%TD*%
%TO.C,R10*%
G36*
G01*
X88276250Y-135440000D02*
X87763750Y-135440000D01*
G75*
G02*
X87545000Y-135221250I0J218750D01*
G01*
X87545000Y-134783750D01*
G75*
G02*
X87763750Y-134565000I218750J0D01*
G01*
X88276250Y-134565000D01*
G75*
G02*
X88495000Y-134783750I0J-218750D01*
G01*
X88495000Y-135221250D01*
G75*
G02*
X88276250Y-135440000I-218750J0D01*
G01*
G37*
G36*
G01*
X88276250Y-137015000D02*
X87763750Y-137015000D01*
G75*
G02*
X87545000Y-136796250I0J218750D01*
G01*
X87545000Y-136358750D01*
G75*
G02*
X87763750Y-136140000I218750J0D01*
G01*
X88276250Y-136140000D01*
G75*
G02*
X88495000Y-136358750I0J-218750D01*
G01*
X88495000Y-136796250D01*
G75*
G02*
X88276250Y-137015000I-218750J0D01*
G01*
G37*
%TD*%
%TO.C,L5*%
G36*
G01*
X60320000Y-96217500D02*
X60320000Y-95872500D01*
G75*
G02*
X60467500Y-95725000I147500J0D01*
G01*
X60762500Y-95725000D01*
G75*
G02*
X60910000Y-95872500I0J-147500D01*
G01*
X60910000Y-96217500D01*
G75*
G02*
X60762500Y-96365000I-147500J0D01*
G01*
X60467500Y-96365000D01*
G75*
G02*
X60320000Y-96217500I0J147500D01*
G01*
G37*
G36*
G01*
X59350000Y-96217500D02*
X59350000Y-95872500D01*
G75*
G02*
X59497500Y-95725000I147500J0D01*
G01*
X59792500Y-95725000D01*
G75*
G02*
X59940000Y-95872500I0J-147500D01*
G01*
X59940000Y-96217500D01*
G75*
G02*
X59792500Y-96365000I-147500J0D01*
G01*
X59497500Y-96365000D01*
G75*
G02*
X59350000Y-96217500I0J147500D01*
G01*
G37*
%TD*%
%TO.C,R44*%
G36*
G01*
X61293750Y-103700000D02*
X61806250Y-103700000D01*
G75*
G02*
X62025000Y-103918750I0J-218750D01*
G01*
X62025000Y-104356250D01*
G75*
G02*
X61806250Y-104575000I-218750J0D01*
G01*
X61293750Y-104575000D01*
G75*
G02*
X61075000Y-104356250I0J218750D01*
G01*
X61075000Y-103918750D01*
G75*
G02*
X61293750Y-103700000I218750J0D01*
G01*
G37*
G36*
G01*
X61293750Y-102125000D02*
X61806250Y-102125000D01*
G75*
G02*
X62025000Y-102343750I0J-218750D01*
G01*
X62025000Y-102781250D01*
G75*
G02*
X61806250Y-103000000I-218750J0D01*
G01*
X61293750Y-103000000D01*
G75*
G02*
X61075000Y-102781250I0J218750D01*
G01*
X61075000Y-102343750D01*
G75*
G02*
X61293750Y-102125000I218750J0D01*
G01*
G37*
%TD*%
D12*
%TO.C,Q1*%
X58100000Y-104000000D03*
X58100000Y-102700000D03*
X60000000Y-103350000D03*
X58100000Y-103350000D03*
X60000000Y-102700000D03*
X60000000Y-104000000D03*
%TD*%
%TO.C,R1*%
G36*
G01*
X56677500Y-103540000D02*
X57022500Y-103540000D01*
G75*
G02*
X57170000Y-103687500I0J-147500D01*
G01*
X57170000Y-103982500D01*
G75*
G02*
X57022500Y-104130000I-147500J0D01*
G01*
X56677500Y-104130000D01*
G75*
G02*
X56530000Y-103982500I0J147500D01*
G01*
X56530000Y-103687500D01*
G75*
G02*
X56677500Y-103540000I147500J0D01*
G01*
G37*
G36*
G01*
X56677500Y-102570000D02*
X57022500Y-102570000D01*
G75*
G02*
X57170000Y-102717500I0J-147500D01*
G01*
X57170000Y-103012500D01*
G75*
G02*
X57022500Y-103160000I-147500J0D01*
G01*
X56677500Y-103160000D01*
G75*
G02*
X56530000Y-103012500I0J147500D01*
G01*
X56530000Y-102717500D01*
G75*
G02*
X56677500Y-102570000I147500J0D01*
G01*
G37*
%TD*%
D13*
%TO.C,AE1*%
X61095000Y-99010000D03*
D14*
X59620000Y-97485000D03*
D13*
X58145000Y-99010000D03*
%TD*%
%TO.C,D12*%
G36*
G01*
X99830000Y-143073750D02*
X99830000Y-143986250D01*
G75*
G02*
X99586250Y-144230000I-243750J0D01*
G01*
X99098750Y-144230000D01*
G75*
G02*
X98855000Y-143986250I0J243750D01*
G01*
X98855000Y-143073750D01*
G75*
G02*
X99098750Y-142830000I243750J0D01*
G01*
X99586250Y-142830000D01*
G75*
G02*
X99830000Y-143073750I0J-243750D01*
G01*
G37*
G36*
G01*
X101705000Y-143073750D02*
X101705000Y-143986250D01*
G75*
G02*
X101461250Y-144230000I-243750J0D01*
G01*
X100973750Y-144230000D01*
G75*
G02*
X100730000Y-143986250I0J243750D01*
G01*
X100730000Y-143073750D01*
G75*
G02*
X100973750Y-142830000I243750J0D01*
G01*
X101461250Y-142830000D01*
G75*
G02*
X101705000Y-143073750I0J-243750D01*
G01*
G37*
%TD*%
%TO.C,R7*%
G36*
G01*
X92392500Y-135443750D02*
X92392500Y-135956250D01*
G75*
G02*
X92173750Y-136175000I-218750J0D01*
G01*
X91736250Y-136175000D01*
G75*
G02*
X91517500Y-135956250I0J218750D01*
G01*
X91517500Y-135443750D01*
G75*
G02*
X91736250Y-135225000I218750J0D01*
G01*
X92173750Y-135225000D01*
G75*
G02*
X92392500Y-135443750I0J-218750D01*
G01*
G37*
G36*
G01*
X93967500Y-135443750D02*
X93967500Y-135956250D01*
G75*
G02*
X93748750Y-136175000I-218750J0D01*
G01*
X93311250Y-136175000D01*
G75*
G02*
X93092500Y-135956250I0J218750D01*
G01*
X93092500Y-135443750D01*
G75*
G02*
X93311250Y-135225000I218750J0D01*
G01*
X93748750Y-135225000D01*
G75*
G02*
X93967500Y-135443750I0J-218750D01*
G01*
G37*
%TD*%
D15*
%TO.C,Q2*%
X93530000Y-133110000D03*
X91530000Y-134060000D03*
X91530000Y-132160000D03*
%TD*%
D16*
%TO.C,J4*%
X97210000Y-128620000D03*
X101110000Y-128620000D03*
X97210000Y-129890000D03*
X101110000Y-129890000D03*
X97210000Y-131160000D03*
X101110000Y-131160000D03*
X97210000Y-132430000D03*
X101110000Y-132430000D03*
X97210000Y-133700000D03*
X101110000Y-133700000D03*
%TD*%
%TO.C,R21*%
G36*
G01*
X99500000Y-137166250D02*
X99500000Y-136653750D01*
G75*
G02*
X99718750Y-136435000I218750J0D01*
G01*
X100156250Y-136435000D01*
G75*
G02*
X100375000Y-136653750I0J-218750D01*
G01*
X100375000Y-137166250D01*
G75*
G02*
X100156250Y-137385000I-218750J0D01*
G01*
X99718750Y-137385000D01*
G75*
G02*
X99500000Y-137166250I0J218750D01*
G01*
G37*
G36*
G01*
X97925000Y-137166250D02*
X97925000Y-136653750D01*
G75*
G02*
X98143750Y-136435000I218750J0D01*
G01*
X98581250Y-136435000D01*
G75*
G02*
X98800000Y-136653750I0J-218750D01*
G01*
X98800000Y-137166250D01*
G75*
G02*
X98581250Y-137385000I-218750J0D01*
G01*
X98143750Y-137385000D01*
G75*
G02*
X97925000Y-137166250I0J218750D01*
G01*
G37*
%TD*%
D17*
%TO.C,SW5*%
X101245000Y-140885000D03*
X97095000Y-140885000D03*
X101245000Y-138735000D03*
X97095000Y-138735000D03*
%TD*%
%TO.C,R22*%
G36*
G01*
X97306250Y-143670000D02*
X96793750Y-143670000D01*
G75*
G02*
X96575000Y-143451250I0J218750D01*
G01*
X96575000Y-143013750D01*
G75*
G02*
X96793750Y-142795000I218750J0D01*
G01*
X97306250Y-142795000D01*
G75*
G02*
X97525000Y-143013750I0J-218750D01*
G01*
X97525000Y-143451250D01*
G75*
G02*
X97306250Y-143670000I-218750J0D01*
G01*
G37*
G36*
G01*
X97306250Y-145245000D02*
X96793750Y-145245000D01*
G75*
G02*
X96575000Y-145026250I0J218750D01*
G01*
X96575000Y-144588750D01*
G75*
G02*
X96793750Y-144370000I218750J0D01*
G01*
X97306250Y-144370000D01*
G75*
G02*
X97525000Y-144588750I0J-218750D01*
G01*
X97525000Y-145026250D01*
G75*
G02*
X97306250Y-145245000I-218750J0D01*
G01*
G37*
%TD*%
%TO.C,C28*%
G36*
G01*
X92500000Y-150743750D02*
X92500000Y-151256250D01*
G75*
G02*
X92281250Y-151475000I-218750J0D01*
G01*
X91843750Y-151475000D01*
G75*
G02*
X91625000Y-151256250I0J218750D01*
G01*
X91625000Y-150743750D01*
G75*
G02*
X91843750Y-150525000I218750J0D01*
G01*
X92281250Y-150525000D01*
G75*
G02*
X92500000Y-150743750I0J-218750D01*
G01*
G37*
G36*
G01*
X94075000Y-150743750D02*
X94075000Y-151256250D01*
G75*
G02*
X93856250Y-151475000I-218750J0D01*
G01*
X93418750Y-151475000D01*
G75*
G02*
X93200000Y-151256250I0J218750D01*
G01*
X93200000Y-150743750D01*
G75*
G02*
X93418750Y-150525000I218750J0D01*
G01*
X93856250Y-150525000D01*
G75*
G02*
X94075000Y-150743750I0J-218750D01*
G01*
G37*
%TD*%
%TO.C,C40*%
G36*
G01*
X102192500Y-154945000D02*
X102537500Y-154945000D01*
G75*
G02*
X102685000Y-155092500I0J-147500D01*
G01*
X102685000Y-155387500D01*
G75*
G02*
X102537500Y-155535000I-147500J0D01*
G01*
X102192500Y-155535000D01*
G75*
G02*
X102045000Y-155387500I0J147500D01*
G01*
X102045000Y-155092500D01*
G75*
G02*
X102192500Y-154945000I147500J0D01*
G01*
G37*
G36*
G01*
X102192500Y-153975000D02*
X102537500Y-153975000D01*
G75*
G02*
X102685000Y-154122500I0J-147500D01*
G01*
X102685000Y-154417500D01*
G75*
G02*
X102537500Y-154565000I-147500J0D01*
G01*
X102192500Y-154565000D01*
G75*
G02*
X102045000Y-154417500I0J147500D01*
G01*
X102045000Y-154122500D01*
G75*
G02*
X102192500Y-153975000I147500J0D01*
G01*
G37*
%TD*%
%TO.C,C41*%
G36*
G01*
X102537500Y-152600000D02*
X102192500Y-152600000D01*
G75*
G02*
X102045000Y-152452500I0J147500D01*
G01*
X102045000Y-152157500D01*
G75*
G02*
X102192500Y-152010000I147500J0D01*
G01*
X102537500Y-152010000D01*
G75*
G02*
X102685000Y-152157500I0J-147500D01*
G01*
X102685000Y-152452500D01*
G75*
G02*
X102537500Y-152600000I-147500J0D01*
G01*
G37*
G36*
G01*
X102537500Y-153570000D02*
X102192500Y-153570000D01*
G75*
G02*
X102045000Y-153422500I0J147500D01*
G01*
X102045000Y-153127500D01*
G75*
G02*
X102192500Y-152980000I147500J0D01*
G01*
X102537500Y-152980000D01*
G75*
G02*
X102685000Y-153127500I0J-147500D01*
G01*
X102685000Y-153422500D01*
G75*
G02*
X102537500Y-153570000I-147500J0D01*
G01*
G37*
%TD*%
D18*
%TO.C,Y2*%
X100680000Y-155045000D03*
X100680000Y-152545000D03*
%TD*%
D19*
%TO.C,L6*%
X93825000Y-153400000D03*
X91875000Y-153400000D03*
%TD*%
D20*
%TO.C,U1*%
X68110000Y-119030000D03*
X68110000Y-119530000D03*
X68110000Y-120030000D03*
X68110000Y-120530000D03*
X68110000Y-121030000D03*
X68110000Y-121530000D03*
X68110000Y-122030000D03*
X68110000Y-122530000D03*
X68110000Y-123030000D03*
X68110000Y-123530000D03*
X68110000Y-124030000D03*
X68110000Y-124530000D03*
X68110000Y-125030000D03*
X68110000Y-125530000D03*
X68110000Y-126030000D03*
X68110000Y-126530000D03*
X68110000Y-127030000D03*
X68110000Y-127530000D03*
X68110000Y-128030000D03*
X68110000Y-128530000D03*
X68110000Y-129030000D03*
X68110000Y-129530000D03*
X68110000Y-130030000D03*
X68110000Y-130530000D03*
X68110000Y-131030000D03*
D21*
X70010000Y-132930000D03*
X70510000Y-132930000D03*
X71010000Y-132930000D03*
X71510000Y-132930000D03*
X72010000Y-132930000D03*
X72510000Y-132930000D03*
X73010000Y-132930000D03*
X73510000Y-132930000D03*
X74010000Y-132930000D03*
X74510000Y-132930000D03*
X75010000Y-132930000D03*
X75510000Y-132930000D03*
X76010000Y-132930000D03*
X76510000Y-132930000D03*
X77010000Y-132930000D03*
X77510000Y-132930000D03*
X78010000Y-132930000D03*
X78510000Y-132930000D03*
X79010000Y-132930000D03*
X79510000Y-132930000D03*
X80010000Y-132930000D03*
X80510000Y-132930000D03*
X81010000Y-132930000D03*
X81510000Y-132930000D03*
X82010000Y-132930000D03*
D20*
X83910000Y-131030000D03*
X83910000Y-130530000D03*
X83910000Y-130030000D03*
X83910000Y-129530000D03*
X83910000Y-129030000D03*
X83910000Y-128530000D03*
X83910000Y-128030000D03*
X83910000Y-127530000D03*
X83910000Y-127030000D03*
X83910000Y-126530000D03*
X83910000Y-126030000D03*
X83910000Y-125530000D03*
X83910000Y-125030000D03*
X83910000Y-124530000D03*
X83910000Y-124030000D03*
X83910000Y-123530000D03*
X83910000Y-123030000D03*
X83910000Y-122530000D03*
X83910000Y-122030000D03*
X83910000Y-121530000D03*
X83910000Y-121030000D03*
X83910000Y-120530000D03*
X83910000Y-120030000D03*
X83910000Y-119530000D03*
X83910000Y-119030000D03*
D21*
X82010000Y-117130000D03*
X81510000Y-117130000D03*
X81010000Y-117130000D03*
X80510000Y-117130000D03*
X80010000Y-117130000D03*
X79510000Y-117130000D03*
X79010000Y-117130000D03*
X78510000Y-117130000D03*
X78010000Y-117130000D03*
X77510000Y-117130000D03*
X77010000Y-117130000D03*
X76510000Y-117130000D03*
X76010000Y-117130000D03*
X75510000Y-117130000D03*
X75010000Y-117130000D03*
X74510000Y-117130000D03*
X74010000Y-117130000D03*
X73510000Y-117130000D03*
X73010000Y-117130000D03*
X72510000Y-117130000D03*
X72010000Y-117130000D03*
X71510000Y-117130000D03*
X71010000Y-117130000D03*
X70510000Y-117130000D03*
X70010000Y-117130000D03*
%TD*%
%TO.C,C42*%
G36*
G01*
X85027500Y-157180000D02*
X85372500Y-157180000D01*
G75*
G02*
X85520000Y-157327500I0J-147500D01*
G01*
X85520000Y-157622500D01*
G75*
G02*
X85372500Y-157770000I-147500J0D01*
G01*
X85027500Y-157770000D01*
G75*
G02*
X84880000Y-157622500I0J147500D01*
G01*
X84880000Y-157327500D01*
G75*
G02*
X85027500Y-157180000I147500J0D01*
G01*
G37*
G36*
G01*
X85027500Y-158150000D02*
X85372500Y-158150000D01*
G75*
G02*
X85520000Y-158297500I0J-147500D01*
G01*
X85520000Y-158592500D01*
G75*
G02*
X85372500Y-158740000I-147500J0D01*
G01*
X85027500Y-158740000D01*
G75*
G02*
X84880000Y-158592500I0J147500D01*
G01*
X84880000Y-158297500D01*
G75*
G02*
X85027500Y-158150000I147500J0D01*
G01*
G37*
%TD*%
%TO.C,C53*%
G36*
G01*
X90910000Y-148836250D02*
X90910000Y-148323750D01*
G75*
G02*
X91128750Y-148105000I218750J0D01*
G01*
X91566250Y-148105000D01*
G75*
G02*
X91785000Y-148323750I0J-218750D01*
G01*
X91785000Y-148836250D01*
G75*
G02*
X91566250Y-149055000I-218750J0D01*
G01*
X91128750Y-149055000D01*
G75*
G02*
X90910000Y-148836250I0J218750D01*
G01*
G37*
G36*
G01*
X92485000Y-148836250D02*
X92485000Y-148323750D01*
G75*
G02*
X92703750Y-148105000I218750J0D01*
G01*
X93141250Y-148105000D01*
G75*
G02*
X93360000Y-148323750I0J-218750D01*
G01*
X93360000Y-148836250D01*
G75*
G02*
X93141250Y-149055000I-218750J0D01*
G01*
X92703750Y-149055000D01*
G75*
G02*
X92485000Y-148836250I0J218750D01*
G01*
G37*
%TD*%
%TO.C,C21*%
G36*
G01*
X64606500Y-121972000D02*
X64261500Y-121972000D01*
G75*
G02*
X64114000Y-121824500I0J147500D01*
G01*
X64114000Y-121529500D01*
G75*
G02*
X64261500Y-121382000I147500J0D01*
G01*
X64606500Y-121382000D01*
G75*
G02*
X64754000Y-121529500I0J-147500D01*
G01*
X64754000Y-121824500D01*
G75*
G02*
X64606500Y-121972000I-147500J0D01*
G01*
G37*
G36*
G01*
X64606500Y-121002000D02*
X64261500Y-121002000D01*
G75*
G02*
X64114000Y-120854500I0J147500D01*
G01*
X64114000Y-120559500D01*
G75*
G02*
X64261500Y-120412000I147500J0D01*
G01*
X64606500Y-120412000D01*
G75*
G02*
X64754000Y-120559500I0J-147500D01*
G01*
X64754000Y-120854500D01*
G75*
G02*
X64606500Y-121002000I-147500J0D01*
G01*
G37*
%TD*%
%TO.C,C19*%
G36*
G01*
X62711500Y-121462000D02*
X63056500Y-121462000D01*
G75*
G02*
X63204000Y-121609500I0J-147500D01*
G01*
X63204000Y-121904500D01*
G75*
G02*
X63056500Y-122052000I-147500J0D01*
G01*
X62711500Y-122052000D01*
G75*
G02*
X62564000Y-121904500I0J147500D01*
G01*
X62564000Y-121609500D01*
G75*
G02*
X62711500Y-121462000I147500J0D01*
G01*
G37*
G36*
G01*
X62711500Y-122432000D02*
X63056500Y-122432000D01*
G75*
G02*
X63204000Y-122579500I0J-147500D01*
G01*
X63204000Y-122874500D01*
G75*
G02*
X63056500Y-123022000I-147500J0D01*
G01*
X62711500Y-123022000D01*
G75*
G02*
X62564000Y-122874500I0J147500D01*
G01*
X62564000Y-122579500D01*
G75*
G02*
X62711500Y-122432000I147500J0D01*
G01*
G37*
%TD*%
%TO.C,C3*%
G36*
G01*
X62092000Y-130472500D02*
X62092000Y-130127500D01*
G75*
G02*
X62239500Y-129980000I147500J0D01*
G01*
X62534500Y-129980000D01*
G75*
G02*
X62682000Y-130127500I0J-147500D01*
G01*
X62682000Y-130472500D01*
G75*
G02*
X62534500Y-130620000I-147500J0D01*
G01*
X62239500Y-130620000D01*
G75*
G02*
X62092000Y-130472500I0J147500D01*
G01*
G37*
G36*
G01*
X63062000Y-130472500D02*
X63062000Y-130127500D01*
G75*
G02*
X63209500Y-129980000I147500J0D01*
G01*
X63504500Y-129980000D01*
G75*
G02*
X63652000Y-130127500I0J-147500D01*
G01*
X63652000Y-130472500D01*
G75*
G02*
X63504500Y-130620000I-147500J0D01*
G01*
X63209500Y-130620000D01*
G75*
G02*
X63062000Y-130472500I0J147500D01*
G01*
G37*
%TD*%
%TO.C,C1*%
G36*
G01*
X60370500Y-128034000D02*
X60025500Y-128034000D01*
G75*
G02*
X59878000Y-127886500I0J147500D01*
G01*
X59878000Y-127591500D01*
G75*
G02*
X60025500Y-127444000I147500J0D01*
G01*
X60370500Y-127444000D01*
G75*
G02*
X60518000Y-127591500I0J-147500D01*
G01*
X60518000Y-127886500D01*
G75*
G02*
X60370500Y-128034000I-147500J0D01*
G01*
G37*
G36*
G01*
X60370500Y-127064000D02*
X60025500Y-127064000D01*
G75*
G02*
X59878000Y-126916500I0J147500D01*
G01*
X59878000Y-126621500D01*
G75*
G02*
X60025500Y-126474000I147500J0D01*
G01*
X60370500Y-126474000D01*
G75*
G02*
X60518000Y-126621500I0J-147500D01*
G01*
X60518000Y-126916500D01*
G75*
G02*
X60370500Y-127064000I-147500J0D01*
G01*
G37*
%TD*%
%TO.C,R82*%
G36*
G01*
X86397500Y-158755000D02*
X86052500Y-158755000D01*
G75*
G02*
X85905000Y-158607500I0J147500D01*
G01*
X85905000Y-158312500D01*
G75*
G02*
X86052500Y-158165000I147500J0D01*
G01*
X86397500Y-158165000D01*
G75*
G02*
X86545000Y-158312500I0J-147500D01*
G01*
X86545000Y-158607500D01*
G75*
G02*
X86397500Y-158755000I-147500J0D01*
G01*
G37*
G36*
G01*
X86397500Y-157785000D02*
X86052500Y-157785000D01*
G75*
G02*
X85905000Y-157637500I0J147500D01*
G01*
X85905000Y-157342500D01*
G75*
G02*
X86052500Y-157195000I147500J0D01*
G01*
X86397500Y-157195000D01*
G75*
G02*
X86545000Y-157342500I0J-147500D01*
G01*
X86545000Y-157637500D01*
G75*
G02*
X86397500Y-157785000I-147500J0D01*
G01*
G37*
%TD*%
%TO.C,R84*%
G36*
G01*
X88297500Y-158755000D02*
X87952500Y-158755000D01*
G75*
G02*
X87805000Y-158607500I0J147500D01*
G01*
X87805000Y-158312500D01*
G75*
G02*
X87952500Y-158165000I147500J0D01*
G01*
X88297500Y-158165000D01*
G75*
G02*
X88445000Y-158312500I0J-147500D01*
G01*
X88445000Y-158607500D01*
G75*
G02*
X88297500Y-158755000I-147500J0D01*
G01*
G37*
G36*
G01*
X88297500Y-157785000D02*
X87952500Y-157785000D01*
G75*
G02*
X87805000Y-157637500I0J147500D01*
G01*
X87805000Y-157342500D01*
G75*
G02*
X87952500Y-157195000I147500J0D01*
G01*
X88297500Y-157195000D01*
G75*
G02*
X88445000Y-157342500I0J-147500D01*
G01*
X88445000Y-157637500D01*
G75*
G02*
X88297500Y-157785000I-147500J0D01*
G01*
G37*
%TD*%
%TO.C,R83*%
G36*
G01*
X87347500Y-158755000D02*
X87002500Y-158755000D01*
G75*
G02*
X86855000Y-158607500I0J147500D01*
G01*
X86855000Y-158312500D01*
G75*
G02*
X87002500Y-158165000I147500J0D01*
G01*
X87347500Y-158165000D01*
G75*
G02*
X87495000Y-158312500I0J-147500D01*
G01*
X87495000Y-158607500D01*
G75*
G02*
X87347500Y-158755000I-147500J0D01*
G01*
G37*
G36*
G01*
X87347500Y-157785000D02*
X87002500Y-157785000D01*
G75*
G02*
X86855000Y-157637500I0J147500D01*
G01*
X86855000Y-157342500D01*
G75*
G02*
X87002500Y-157195000I147500J0D01*
G01*
X87347500Y-157195000D01*
G75*
G02*
X87495000Y-157342500I0J-147500D01*
G01*
X87495000Y-157637500D01*
G75*
G02*
X87347500Y-157785000I-147500J0D01*
G01*
G37*
%TD*%
D22*
%TO.C,J7*%
X87450000Y-155875000D03*
X86950000Y-155875000D03*
X86450000Y-155875000D03*
X85950000Y-155875000D03*
X85450000Y-155875000D03*
X84950000Y-155875000D03*
X84450000Y-155875000D03*
X83950000Y-155875000D03*
X83450000Y-155875000D03*
X82950000Y-155875000D03*
X82450000Y-155875000D03*
X81950000Y-155875000D03*
X81450000Y-155875000D03*
X80950000Y-155875000D03*
X80450000Y-155875000D03*
X79950000Y-155875000D03*
X79450000Y-155875000D03*
X78950000Y-155875000D03*
X78450000Y-155875000D03*
X77950000Y-155875000D03*
X77450000Y-155875000D03*
X76950000Y-155875000D03*
X76450000Y-155875000D03*
X75950000Y-155875000D03*
X75450000Y-155875000D03*
X74950000Y-155875000D03*
X74450000Y-155875000D03*
X73950000Y-155875000D03*
X73450000Y-155875000D03*
X72950000Y-155875000D03*
X72450000Y-155875000D03*
X71950000Y-155875000D03*
X71450000Y-155875000D03*
X70950000Y-155875000D03*
X70450000Y-155875000D03*
X69950000Y-155875000D03*
X69450000Y-155875000D03*
X68950000Y-155875000D03*
X68450000Y-155875000D03*
X67950000Y-155875000D03*
D23*
X66280000Y-154175000D03*
X89120000Y-154175000D03*
%TD*%
D24*
%TO.C,J9*%
X59100000Y-158750000D03*
X58600000Y-158750000D03*
X58100000Y-158750000D03*
X57600000Y-158750000D03*
%TD*%
%TO.C,C18*%
G36*
G01*
X46975000Y-151493750D02*
X46975000Y-152406250D01*
G75*
G02*
X46731250Y-152650000I-243750J0D01*
G01*
X46243750Y-152650000D01*
G75*
G02*
X46000000Y-152406250I0J243750D01*
G01*
X46000000Y-151493750D01*
G75*
G02*
X46243750Y-151250000I243750J0D01*
G01*
X46731250Y-151250000D01*
G75*
G02*
X46975000Y-151493750I0J-243750D01*
G01*
G37*
G36*
G01*
X45100000Y-151493750D02*
X45100000Y-152406250D01*
G75*
G02*
X44856250Y-152650000I-243750J0D01*
G01*
X44368750Y-152650000D01*
G75*
G02*
X44125000Y-152406250I0J243750D01*
G01*
X44125000Y-151493750D01*
G75*
G02*
X44368750Y-151250000I243750J0D01*
G01*
X44856250Y-151250000D01*
G75*
G02*
X45100000Y-151493750I0J-243750D01*
G01*
G37*
%TD*%
%TO.C,R3*%
G36*
G01*
X41333750Y-132425000D02*
X41846250Y-132425000D01*
G75*
G02*
X42065000Y-132643750I0J-218750D01*
G01*
X42065000Y-133081250D01*
G75*
G02*
X41846250Y-133300000I-218750J0D01*
G01*
X41333750Y-133300000D01*
G75*
G02*
X41115000Y-133081250I0J218750D01*
G01*
X41115000Y-132643750D01*
G75*
G02*
X41333750Y-132425000I218750J0D01*
G01*
G37*
G36*
G01*
X41333750Y-134000000D02*
X41846250Y-134000000D01*
G75*
G02*
X42065000Y-134218750I0J-218750D01*
G01*
X42065000Y-134656250D01*
G75*
G02*
X41846250Y-134875000I-218750J0D01*
G01*
X41333750Y-134875000D01*
G75*
G02*
X41115000Y-134656250I0J218750D01*
G01*
X41115000Y-134218750D01*
G75*
G02*
X41333750Y-134000000I218750J0D01*
G01*
G37*
%TD*%
D25*
%TO.C,Y1*%
X63722000Y-128354000D03*
X63722000Y-126154000D03*
X62022000Y-126154000D03*
X62022000Y-128354000D03*
%TD*%
D18*
%TO.C,Y4*%
X60884000Y-122967000D03*
X60884000Y-120467000D03*
%TD*%
D26*
%TO.C,J3*%
X38780000Y-133815000D03*
X38780000Y-133315000D03*
X38780000Y-132815000D03*
X38780000Y-132315000D03*
X38780000Y-131815000D03*
X38780000Y-131315000D03*
D27*
X36280000Y-130315000D03*
X36280000Y-134815000D03*
%TD*%
D28*
%TO.C,J6*%
X99160000Y-112360000D03*
X98760000Y-113460000D03*
X99160000Y-114560000D03*
X99360000Y-115660000D03*
X99160000Y-116760000D03*
X99360000Y-117860000D03*
X99160000Y-118960000D03*
D29*
X102450000Y-107700000D03*
D30*
X88300000Y-113550000D03*
D31*
X88100000Y-117860000D03*
D30*
X88300000Y-119250000D03*
D29*
X101450000Y-120850000D03*
D28*
X99160000Y-120060000D03*
%TD*%
%TO.C,U6*%
G36*
G01*
X89095000Y-130140000D02*
X88445000Y-130140000D01*
G75*
G02*
X88395000Y-130090000I0J50000D01*
G01*
X88395000Y-129990000D01*
G75*
G02*
X88445000Y-129940000I50000J0D01*
G01*
X89095000Y-129940000D01*
G75*
G02*
X89145000Y-129990000I0J-50000D01*
G01*
X89145000Y-130090000D01*
G75*
G02*
X89095000Y-130140000I-50000J0D01*
G01*
G37*
G36*
G01*
X89095000Y-129740000D02*
X88445000Y-129740000D01*
G75*
G02*
X88395000Y-129690000I0J50000D01*
G01*
X88395000Y-129590000D01*
G75*
G02*
X88445000Y-129540000I50000J0D01*
G01*
X89095000Y-129540000D01*
G75*
G02*
X89145000Y-129590000I0J-50000D01*
G01*
X89145000Y-129690000D01*
G75*
G02*
X89095000Y-129740000I-50000J0D01*
G01*
G37*
G36*
G01*
X89095000Y-129340000D02*
X88445000Y-129340000D01*
G75*
G02*
X88395000Y-129290000I0J50000D01*
G01*
X88395000Y-129190000D01*
G75*
G02*
X88445000Y-129140000I50000J0D01*
G01*
X89095000Y-129140000D01*
G75*
G02*
X89145000Y-129190000I0J-50000D01*
G01*
X89145000Y-129290000D01*
G75*
G02*
X89095000Y-129340000I-50000J0D01*
G01*
G37*
G36*
G01*
X87495000Y-129340000D02*
X86845000Y-129340000D01*
G75*
G02*
X86795000Y-129290000I0J50000D01*
G01*
X86795000Y-129190000D01*
G75*
G02*
X86845000Y-129140000I50000J0D01*
G01*
X87495000Y-129140000D01*
G75*
G02*
X87545000Y-129190000I0J-50000D01*
G01*
X87545000Y-129290000D01*
G75*
G02*
X87495000Y-129340000I-50000J0D01*
G01*
G37*
G36*
G01*
X87495000Y-129740000D02*
X86845000Y-129740000D01*
G75*
G02*
X86795000Y-129690000I0J50000D01*
G01*
X86795000Y-129590000D01*
G75*
G02*
X86845000Y-129540000I50000J0D01*
G01*
X87495000Y-129540000D01*
G75*
G02*
X87545000Y-129590000I0J-50000D01*
G01*
X87545000Y-129690000D01*
G75*
G02*
X87495000Y-129740000I-50000J0D01*
G01*
G37*
G36*
G01*
X87495000Y-130140000D02*
X86845000Y-130140000D01*
G75*
G02*
X86795000Y-130090000I0J50000D01*
G01*
X86795000Y-129990000D01*
G75*
G02*
X86845000Y-129940000I50000J0D01*
G01*
X87495000Y-129940000D01*
G75*
G02*
X87545000Y-129990000I0J-50000D01*
G01*
X87545000Y-130090000D01*
G75*
G02*
X87495000Y-130140000I-50000J0D01*
G01*
G37*
G36*
G01*
X87495000Y-130540000D02*
X86845000Y-130540000D01*
G75*
G02*
X86795000Y-130490000I0J50000D01*
G01*
X86795000Y-130390000D01*
G75*
G02*
X86845000Y-130340000I50000J0D01*
G01*
X87495000Y-130340000D01*
G75*
G02*
X87545000Y-130390000I0J-50000D01*
G01*
X87545000Y-130490000D01*
G75*
G02*
X87495000Y-130540000I-50000J0D01*
G01*
G37*
G36*
G01*
X87495000Y-128940000D02*
X86845000Y-128940000D01*
G75*
G02*
X86795000Y-128890000I0J50000D01*
G01*
X86795000Y-128790000D01*
G75*
G02*
X86845000Y-128740000I50000J0D01*
G01*
X87495000Y-128740000D01*
G75*
G02*
X87545000Y-128790000I0J-50000D01*
G01*
X87545000Y-128890000D01*
G75*
G02*
X87495000Y-128940000I-50000J0D01*
G01*
G37*
G36*
G01*
X89095000Y-130540000D02*
X88445000Y-130540000D01*
G75*
G02*
X88395000Y-130490000I0J50000D01*
G01*
X88395000Y-130390000D01*
G75*
G02*
X88445000Y-130340000I50000J0D01*
G01*
X89095000Y-130340000D01*
G75*
G02*
X89145000Y-130390000I0J-50000D01*
G01*
X89145000Y-130490000D01*
G75*
G02*
X89095000Y-130540000I-50000J0D01*
G01*
G37*
G36*
G01*
X89095000Y-128940000D02*
X88445000Y-128940000D01*
G75*
G02*
X88395000Y-128890000I0J50000D01*
G01*
X88395000Y-128790000D01*
G75*
G02*
X88445000Y-128740000I50000J0D01*
G01*
X89095000Y-128740000D01*
G75*
G02*
X89145000Y-128790000I0J-50000D01*
G01*
X89145000Y-128890000D01*
G75*
G02*
X89095000Y-128940000I-50000J0D01*
G01*
G37*
G36*
G01*
X88120000Y-128615000D02*
X88120000Y-129065000D01*
G75*
G02*
X88045000Y-129140000I-75000J0D01*
G01*
X87895000Y-129140000D01*
G75*
G02*
X87820000Y-129065000I0J75000D01*
G01*
X87820000Y-128615000D01*
G75*
G02*
X87895000Y-128540000I75000J0D01*
G01*
X88045000Y-128540000D01*
G75*
G02*
X88120000Y-128615000I0J-75000D01*
G01*
G37*
G36*
G01*
X88120000Y-130215000D02*
X88120000Y-130665000D01*
G75*
G02*
X88045000Y-130740000I-75000J0D01*
G01*
X87895000Y-130740000D01*
G75*
G02*
X87820000Y-130665000I0J75000D01*
G01*
X87820000Y-130215000D01*
G75*
G02*
X87895000Y-130140000I75000J0D01*
G01*
X88045000Y-130140000D01*
G75*
G02*
X88120000Y-130215000I0J-75000D01*
G01*
G37*
%TD*%
D17*
%TO.C,SW3*%
X66235000Y-109575000D03*
X62085000Y-109575000D03*
X66235000Y-107425000D03*
X62085000Y-107425000D03*
%TD*%
D32*
%TO.C,SW7*%
X38475000Y-122925000D03*
X38475000Y-127075000D03*
X36325000Y-122925000D03*
X36325000Y-127075000D03*
%TD*%
%TO.C,SW4*%
X36325000Y-142585000D03*
X36325000Y-138435000D03*
X38475000Y-142585000D03*
X38475000Y-138435000D03*
%TD*%
D17*
%TO.C,SW2*%
X71085000Y-107425000D03*
X75235000Y-107425000D03*
X71085000Y-109575000D03*
X75235000Y-109575000D03*
%TD*%
D32*
%TO.C,SW1*%
X36325000Y-111575000D03*
X36325000Y-107425000D03*
X38475000Y-111575000D03*
X38475000Y-107425000D03*
%TD*%
D26*
%TO.C,U18*%
X50040000Y-109625000D03*
X50040000Y-110125000D03*
X50040000Y-110625000D03*
X50040000Y-111125000D03*
X50040000Y-111625000D03*
D33*
X50865000Y-111950000D03*
X51365000Y-111950000D03*
X51865000Y-111950000D03*
D26*
X52690000Y-111625000D03*
X52690000Y-111125000D03*
X52690000Y-110625000D03*
X52690000Y-110125000D03*
X52690000Y-109625000D03*
D33*
X51865000Y-109300000D03*
X51365000Y-109300000D03*
X50865000Y-109300000D03*
%TD*%
%TO.C,U5*%
G36*
G01*
X47040000Y-116645000D02*
X47040000Y-116345000D01*
G75*
G02*
X47190000Y-116195000I150000J0D01*
G01*
X48615000Y-116195000D01*
G75*
G02*
X48765000Y-116345000I0J-150000D01*
G01*
X48765000Y-116645000D01*
G75*
G02*
X48615000Y-116795000I-150000J0D01*
G01*
X47190000Y-116795000D01*
G75*
G02*
X47040000Y-116645000I0J150000D01*
G01*
G37*
G36*
G01*
X47040000Y-117915000D02*
X47040000Y-117615000D01*
G75*
G02*
X47190000Y-117465000I150000J0D01*
G01*
X48615000Y-117465000D01*
G75*
G02*
X48765000Y-117615000I0J-150000D01*
G01*
X48765000Y-117915000D01*
G75*
G02*
X48615000Y-118065000I-150000J0D01*
G01*
X47190000Y-118065000D01*
G75*
G02*
X47040000Y-117915000I0J150000D01*
G01*
G37*
G36*
G01*
X47040000Y-119185000D02*
X47040000Y-118885000D01*
G75*
G02*
X47190000Y-118735000I150000J0D01*
G01*
X48615000Y-118735000D01*
G75*
G02*
X48765000Y-118885000I0J-150000D01*
G01*
X48765000Y-119185000D01*
G75*
G02*
X48615000Y-119335000I-150000J0D01*
G01*
X47190000Y-119335000D01*
G75*
G02*
X47040000Y-119185000I0J150000D01*
G01*
G37*
G36*
G01*
X47040000Y-120455000D02*
X47040000Y-120155000D01*
G75*
G02*
X47190000Y-120005000I150000J0D01*
G01*
X48615000Y-120005000D01*
G75*
G02*
X48765000Y-120155000I0J-150000D01*
G01*
X48765000Y-120455000D01*
G75*
G02*
X48615000Y-120605000I-150000J0D01*
G01*
X47190000Y-120605000D01*
G75*
G02*
X47040000Y-120455000I0J150000D01*
G01*
G37*
G36*
G01*
X54265000Y-120455000D02*
X54265000Y-120155000D01*
G75*
G02*
X54415000Y-120005000I150000J0D01*
G01*
X55840000Y-120005000D01*
G75*
G02*
X55990000Y-120155000I0J-150000D01*
G01*
X55990000Y-120455000D01*
G75*
G02*
X55840000Y-120605000I-150000J0D01*
G01*
X54415000Y-120605000D01*
G75*
G02*
X54265000Y-120455000I0J150000D01*
G01*
G37*
G36*
G01*
X54265000Y-119185000D02*
X54265000Y-118885000D01*
G75*
G02*
X54415000Y-118735000I150000J0D01*
G01*
X55840000Y-118735000D01*
G75*
G02*
X55990000Y-118885000I0J-150000D01*
G01*
X55990000Y-119185000D01*
G75*
G02*
X55840000Y-119335000I-150000J0D01*
G01*
X54415000Y-119335000D01*
G75*
G02*
X54265000Y-119185000I0J150000D01*
G01*
G37*
G36*
G01*
X54265000Y-117915000D02*
X54265000Y-117615000D01*
G75*
G02*
X54415000Y-117465000I150000J0D01*
G01*
X55840000Y-117465000D01*
G75*
G02*
X55990000Y-117615000I0J-150000D01*
G01*
X55990000Y-117915000D01*
G75*
G02*
X55840000Y-118065000I-150000J0D01*
G01*
X54415000Y-118065000D01*
G75*
G02*
X54265000Y-117915000I0J150000D01*
G01*
G37*
G36*
G01*
X54265000Y-116645000D02*
X54265000Y-116345000D01*
G75*
G02*
X54415000Y-116195000I150000J0D01*
G01*
X55840000Y-116195000D01*
G75*
G02*
X55990000Y-116345000I0J-150000D01*
G01*
X55990000Y-116645000D01*
G75*
G02*
X55840000Y-116795000I-150000J0D01*
G01*
X54415000Y-116795000D01*
G75*
G02*
X54265000Y-116645000I0J150000D01*
G01*
G37*
%TD*%
D34*
%TO.C,U14*%
X62085000Y-136095000D03*
X59885000Y-136095000D03*
X59885000Y-133895000D03*
X62085000Y-133895000D03*
%TD*%
%TO.C,R51*%
G36*
G01*
X60560000Y-94407500D02*
X60560000Y-94062500D01*
G75*
G02*
X60707500Y-93915000I147500J0D01*
G01*
X61002500Y-93915000D01*
G75*
G02*
X61150000Y-94062500I0J-147500D01*
G01*
X61150000Y-94407500D01*
G75*
G02*
X61002500Y-94555000I-147500J0D01*
G01*
X60707500Y-94555000D01*
G75*
G02*
X60560000Y-94407500I0J147500D01*
G01*
G37*
G36*
G01*
X61530000Y-94407500D02*
X61530000Y-94062500D01*
G75*
G02*
X61677500Y-93915000I147500J0D01*
G01*
X61972500Y-93915000D01*
G75*
G02*
X62120000Y-94062500I0J-147500D01*
G01*
X62120000Y-94407500D01*
G75*
G02*
X61972500Y-94555000I-147500J0D01*
G01*
X61677500Y-94555000D01*
G75*
G02*
X61530000Y-94407500I0J147500D01*
G01*
G37*
%TD*%
%TO.C,R46*%
G36*
G01*
X61677500Y-92945000D02*
X62022500Y-92945000D01*
G75*
G02*
X62170000Y-93092500I0J-147500D01*
G01*
X62170000Y-93387500D01*
G75*
G02*
X62022500Y-93535000I-147500J0D01*
G01*
X61677500Y-93535000D01*
G75*
G02*
X61530000Y-93387500I0J147500D01*
G01*
X61530000Y-93092500D01*
G75*
G02*
X61677500Y-92945000I147500J0D01*
G01*
G37*
G36*
G01*
X61677500Y-93915000D02*
X62022500Y-93915000D01*
G75*
G02*
X62170000Y-94062500I0J-147500D01*
G01*
X62170000Y-94357500D01*
G75*
G02*
X62022500Y-94505000I-147500J0D01*
G01*
X61677500Y-94505000D01*
G75*
G02*
X61530000Y-94357500I0J147500D01*
G01*
X61530000Y-94062500D01*
G75*
G02*
X61677500Y-93915000I147500J0D01*
G01*
G37*
%TD*%
%TO.C,C50*%
G36*
G01*
X52580000Y-106663750D02*
X52580000Y-107176250D01*
G75*
G02*
X52361250Y-107395000I-218750J0D01*
G01*
X51923750Y-107395000D01*
G75*
G02*
X51705000Y-107176250I0J218750D01*
G01*
X51705000Y-106663750D01*
G75*
G02*
X51923750Y-106445000I218750J0D01*
G01*
X52361250Y-106445000D01*
G75*
G02*
X52580000Y-106663750I0J-218750D01*
G01*
G37*
G36*
G01*
X51005000Y-106663750D02*
X51005000Y-107176250D01*
G75*
G02*
X50786250Y-107395000I-218750J0D01*
G01*
X50348750Y-107395000D01*
G75*
G02*
X50130000Y-107176250I0J218750D01*
G01*
X50130000Y-106663750D01*
G75*
G02*
X50348750Y-106445000I218750J0D01*
G01*
X50786250Y-106445000D01*
G75*
G02*
X51005000Y-106663750I0J-218750D01*
G01*
G37*
%TD*%
%TO.C,R33*%
G36*
G01*
X39795000Y-127766250D02*
X39795000Y-127253750D01*
G75*
G02*
X40013750Y-127035000I218750J0D01*
G01*
X40451250Y-127035000D01*
G75*
G02*
X40670000Y-127253750I0J-218750D01*
G01*
X40670000Y-127766250D01*
G75*
G02*
X40451250Y-127985000I-218750J0D01*
G01*
X40013750Y-127985000D01*
G75*
G02*
X39795000Y-127766250I0J218750D01*
G01*
G37*
G36*
G01*
X41370000Y-127766250D02*
X41370000Y-127253750D01*
G75*
G02*
X41588750Y-127035000I218750J0D01*
G01*
X42026250Y-127035000D01*
G75*
G02*
X42245000Y-127253750I0J-218750D01*
G01*
X42245000Y-127766250D01*
G75*
G02*
X42026250Y-127985000I-218750J0D01*
G01*
X41588750Y-127985000D01*
G75*
G02*
X41370000Y-127766250I0J218750D01*
G01*
G37*
%TD*%
%TO.C,R18*%
G36*
G01*
X42556250Y-126225000D02*
X42043750Y-126225000D01*
G75*
G02*
X41825000Y-126006250I0J218750D01*
G01*
X41825000Y-125568750D01*
G75*
G02*
X42043750Y-125350000I218750J0D01*
G01*
X42556250Y-125350000D01*
G75*
G02*
X42775000Y-125568750I0J-218750D01*
G01*
X42775000Y-126006250D01*
G75*
G02*
X42556250Y-126225000I-218750J0D01*
G01*
G37*
G36*
G01*
X42556250Y-124650000D02*
X42043750Y-124650000D01*
G75*
G02*
X41825000Y-124431250I0J218750D01*
G01*
X41825000Y-123993750D01*
G75*
G02*
X42043750Y-123775000I218750J0D01*
G01*
X42556250Y-123775000D01*
G75*
G02*
X42775000Y-123993750I0J-218750D01*
G01*
X42775000Y-124431250D01*
G75*
G02*
X42556250Y-124650000I-218750J0D01*
G01*
G37*
%TD*%
%TO.C,D5*%
G36*
G01*
X40951250Y-124570000D02*
X40038750Y-124570000D01*
G75*
G02*
X39795000Y-124326250I0J243750D01*
G01*
X39795000Y-123838750D01*
G75*
G02*
X40038750Y-123595000I243750J0D01*
G01*
X40951250Y-123595000D01*
G75*
G02*
X41195000Y-123838750I0J-243750D01*
G01*
X41195000Y-124326250D01*
G75*
G02*
X40951250Y-124570000I-243750J0D01*
G01*
G37*
G36*
G01*
X40951250Y-126445000D02*
X40038750Y-126445000D01*
G75*
G02*
X39795000Y-126201250I0J243750D01*
G01*
X39795000Y-125713750D01*
G75*
G02*
X40038750Y-125470000I243750J0D01*
G01*
X40951250Y-125470000D01*
G75*
G02*
X41195000Y-125713750I0J-243750D01*
G01*
X41195000Y-126201250D01*
G75*
G02*
X40951250Y-126445000I-243750J0D01*
G01*
G37*
%TD*%
%TO.C,C65*%
G36*
G01*
X51810000Y-113102500D02*
X51810000Y-112757500D01*
G75*
G02*
X51957500Y-112610000I147500J0D01*
G01*
X52252500Y-112610000D01*
G75*
G02*
X52400000Y-112757500I0J-147500D01*
G01*
X52400000Y-113102500D01*
G75*
G02*
X52252500Y-113250000I-147500J0D01*
G01*
X51957500Y-113250000D01*
G75*
G02*
X51810000Y-113102500I0J147500D01*
G01*
G37*
G36*
G01*
X52780000Y-113102500D02*
X52780000Y-112757500D01*
G75*
G02*
X52927500Y-112610000I147500J0D01*
G01*
X53222500Y-112610000D01*
G75*
G02*
X53370000Y-112757500I0J-147500D01*
G01*
X53370000Y-113102500D01*
G75*
G02*
X53222500Y-113250000I-147500J0D01*
G01*
X52927500Y-113250000D01*
G75*
G02*
X52780000Y-113102500I0J147500D01*
G01*
G37*
%TD*%
%TO.C,C63*%
G36*
G01*
X48482500Y-110020000D02*
X48827500Y-110020000D01*
G75*
G02*
X48975000Y-110167500I0J-147500D01*
G01*
X48975000Y-110462500D01*
G75*
G02*
X48827500Y-110610000I-147500J0D01*
G01*
X48482500Y-110610000D01*
G75*
G02*
X48335000Y-110462500I0J147500D01*
G01*
X48335000Y-110167500D01*
G75*
G02*
X48482500Y-110020000I147500J0D01*
G01*
G37*
G36*
G01*
X48482500Y-110990000D02*
X48827500Y-110990000D01*
G75*
G02*
X48975000Y-111137500I0J-147500D01*
G01*
X48975000Y-111432500D01*
G75*
G02*
X48827500Y-111580000I-147500J0D01*
G01*
X48482500Y-111580000D01*
G75*
G02*
X48335000Y-111432500I0J147500D01*
G01*
X48335000Y-111137500D01*
G75*
G02*
X48482500Y-110990000I147500J0D01*
G01*
G37*
%TD*%
%TO.C,C61*%
G36*
G01*
X48827500Y-109720000D02*
X48482500Y-109720000D01*
G75*
G02*
X48335000Y-109572500I0J147500D01*
G01*
X48335000Y-109277500D01*
G75*
G02*
X48482500Y-109130000I147500J0D01*
G01*
X48827500Y-109130000D01*
G75*
G02*
X48975000Y-109277500I0J-147500D01*
G01*
X48975000Y-109572500D01*
G75*
G02*
X48827500Y-109720000I-147500J0D01*
G01*
G37*
G36*
G01*
X48827500Y-108750000D02*
X48482500Y-108750000D01*
G75*
G02*
X48335000Y-108602500I0J147500D01*
G01*
X48335000Y-108307500D01*
G75*
G02*
X48482500Y-108160000I147500J0D01*
G01*
X48827500Y-108160000D01*
G75*
G02*
X48975000Y-108307500I0J-147500D01*
G01*
X48975000Y-108602500D01*
G75*
G02*
X48827500Y-108750000I-147500J0D01*
G01*
G37*
%TD*%
%TO.C,C59*%
G36*
G01*
X52135000Y-108072500D02*
X52135000Y-108417500D01*
G75*
G02*
X51987500Y-108565000I-147500J0D01*
G01*
X51692500Y-108565000D01*
G75*
G02*
X51545000Y-108417500I0J147500D01*
G01*
X51545000Y-108072500D01*
G75*
G02*
X51692500Y-107925000I147500J0D01*
G01*
X51987500Y-107925000D01*
G75*
G02*
X52135000Y-108072500I0J-147500D01*
G01*
G37*
G36*
G01*
X51165000Y-108072500D02*
X51165000Y-108417500D01*
G75*
G02*
X51017500Y-108565000I-147500J0D01*
G01*
X50722500Y-108565000D01*
G75*
G02*
X50575000Y-108417500I0J147500D01*
G01*
X50575000Y-108072500D01*
G75*
G02*
X50722500Y-107925000I147500J0D01*
G01*
X51017500Y-107925000D01*
G75*
G02*
X51165000Y-108072500I0J-147500D01*
G01*
G37*
%TD*%
D16*
%TO.C,J2*%
X84250000Y-112990000D03*
X80350000Y-112990000D03*
X84250000Y-111720000D03*
X80350000Y-111720000D03*
X84250000Y-110450000D03*
X80350000Y-110450000D03*
X84250000Y-109180000D03*
X80350000Y-109180000D03*
X84250000Y-107910000D03*
X80350000Y-107910000D03*
%TD*%
%TO.C,R55*%
G36*
G01*
X86766250Y-118147500D02*
X86253750Y-118147500D01*
G75*
G02*
X86035000Y-117928750I0J218750D01*
G01*
X86035000Y-117491250D01*
G75*
G02*
X86253750Y-117272500I218750J0D01*
G01*
X86766250Y-117272500D01*
G75*
G02*
X86985000Y-117491250I0J-218750D01*
G01*
X86985000Y-117928750D01*
G75*
G02*
X86766250Y-118147500I-218750J0D01*
G01*
G37*
G36*
G01*
X86766250Y-116572500D02*
X86253750Y-116572500D01*
G75*
G02*
X86035000Y-116353750I0J218750D01*
G01*
X86035000Y-115916250D01*
G75*
G02*
X86253750Y-115697500I218750J0D01*
G01*
X86766250Y-115697500D01*
G75*
G02*
X86985000Y-115916250I0J-218750D01*
G01*
X86985000Y-116353750D01*
G75*
G02*
X86766250Y-116572500I-218750J0D01*
G01*
G37*
%TD*%
%TO.C,C58*%
G36*
G01*
X78622500Y-140205000D02*
X78277500Y-140205000D01*
G75*
G02*
X78130000Y-140057500I0J147500D01*
G01*
X78130000Y-139762500D01*
G75*
G02*
X78277500Y-139615000I147500J0D01*
G01*
X78622500Y-139615000D01*
G75*
G02*
X78770000Y-139762500I0J-147500D01*
G01*
X78770000Y-140057500D01*
G75*
G02*
X78622500Y-140205000I-147500J0D01*
G01*
G37*
G36*
G01*
X78622500Y-139235000D02*
X78277500Y-139235000D01*
G75*
G02*
X78130000Y-139087500I0J147500D01*
G01*
X78130000Y-138792500D01*
G75*
G02*
X78277500Y-138645000I147500J0D01*
G01*
X78622500Y-138645000D01*
G75*
G02*
X78770000Y-138792500I0J-147500D01*
G01*
X78770000Y-139087500D01*
G75*
G02*
X78622500Y-139235000I-147500J0D01*
G01*
G37*
%TD*%
%TO.C,C57*%
G36*
G01*
X74905000Y-144602500D02*
X74905000Y-144947500D01*
G75*
G02*
X74757500Y-145095000I-147500J0D01*
G01*
X74462500Y-145095000D01*
G75*
G02*
X74315000Y-144947500I0J147500D01*
G01*
X74315000Y-144602500D01*
G75*
G02*
X74462500Y-144455000I147500J0D01*
G01*
X74757500Y-144455000D01*
G75*
G02*
X74905000Y-144602500I0J-147500D01*
G01*
G37*
G36*
G01*
X73935000Y-144602500D02*
X73935000Y-144947500D01*
G75*
G02*
X73787500Y-145095000I-147500J0D01*
G01*
X73492500Y-145095000D01*
G75*
G02*
X73345000Y-144947500I0J147500D01*
G01*
X73345000Y-144602500D01*
G75*
G02*
X73492500Y-144455000I147500J0D01*
G01*
X73787500Y-144455000D01*
G75*
G02*
X73935000Y-144602500I0J-147500D01*
G01*
G37*
%TD*%
%TO.C,C56*%
G36*
G01*
X70947500Y-139205000D02*
X70602500Y-139205000D01*
G75*
G02*
X70455000Y-139057500I0J147500D01*
G01*
X70455000Y-138762500D01*
G75*
G02*
X70602500Y-138615000I147500J0D01*
G01*
X70947500Y-138615000D01*
G75*
G02*
X71095000Y-138762500I0J-147500D01*
G01*
X71095000Y-139057500D01*
G75*
G02*
X70947500Y-139205000I-147500J0D01*
G01*
G37*
G36*
G01*
X70947500Y-138235000D02*
X70602500Y-138235000D01*
G75*
G02*
X70455000Y-138087500I0J147500D01*
G01*
X70455000Y-137792500D01*
G75*
G02*
X70602500Y-137645000I147500J0D01*
G01*
X70947500Y-137645000D01*
G75*
G02*
X71095000Y-137792500I0J-147500D01*
G01*
X71095000Y-138087500D01*
G75*
G02*
X70947500Y-138235000I-147500J0D01*
G01*
G37*
%TD*%
%TO.C,C46*%
G36*
G01*
X63577500Y-133540000D02*
X63922500Y-133540000D01*
G75*
G02*
X64070000Y-133687500I0J-147500D01*
G01*
X64070000Y-133982500D01*
G75*
G02*
X63922500Y-134130000I-147500J0D01*
G01*
X63577500Y-134130000D01*
G75*
G02*
X63430000Y-133982500I0J147500D01*
G01*
X63430000Y-133687500D01*
G75*
G02*
X63577500Y-133540000I147500J0D01*
G01*
G37*
G36*
G01*
X63577500Y-134510000D02*
X63922500Y-134510000D01*
G75*
G02*
X64070000Y-134657500I0J-147500D01*
G01*
X64070000Y-134952500D01*
G75*
G02*
X63922500Y-135100000I-147500J0D01*
G01*
X63577500Y-135100000D01*
G75*
G02*
X63430000Y-134952500I0J147500D01*
G01*
X63430000Y-134657500D01*
G75*
G02*
X63577500Y-134510000I147500J0D01*
G01*
G37*
%TD*%
%TO.C,C26*%
G36*
G01*
X69140000Y-115752500D02*
X69140000Y-115407500D01*
G75*
G02*
X69287500Y-115260000I147500J0D01*
G01*
X69582500Y-115260000D01*
G75*
G02*
X69730000Y-115407500I0J-147500D01*
G01*
X69730000Y-115752500D01*
G75*
G02*
X69582500Y-115900000I-147500J0D01*
G01*
X69287500Y-115900000D01*
G75*
G02*
X69140000Y-115752500I0J147500D01*
G01*
G37*
G36*
G01*
X70110000Y-115752500D02*
X70110000Y-115407500D01*
G75*
G02*
X70257500Y-115260000I147500J0D01*
G01*
X70552500Y-115260000D01*
G75*
G02*
X70700000Y-115407500I0J-147500D01*
G01*
X70700000Y-115752500D01*
G75*
G02*
X70552500Y-115900000I-147500J0D01*
G01*
X70257500Y-115900000D01*
G75*
G02*
X70110000Y-115752500I0J147500D01*
G01*
G37*
%TD*%
%TO.C,C25*%
G36*
G01*
X66900000Y-123627500D02*
X66900000Y-123972500D01*
G75*
G02*
X66752500Y-124120000I-147500J0D01*
G01*
X66457500Y-124120000D01*
G75*
G02*
X66310000Y-123972500I0J147500D01*
G01*
X66310000Y-123627500D01*
G75*
G02*
X66457500Y-123480000I147500J0D01*
G01*
X66752500Y-123480000D01*
G75*
G02*
X66900000Y-123627500I0J-147500D01*
G01*
G37*
G36*
G01*
X65930000Y-123627500D02*
X65930000Y-123972500D01*
G75*
G02*
X65782500Y-124120000I-147500J0D01*
G01*
X65487500Y-124120000D01*
G75*
G02*
X65340000Y-123972500I0J147500D01*
G01*
X65340000Y-123627500D01*
G75*
G02*
X65487500Y-123480000I147500J0D01*
G01*
X65782500Y-123480000D01*
G75*
G02*
X65930000Y-123627500I0J-147500D01*
G01*
G37*
%TD*%
%TO.C,C24*%
G36*
G01*
X71030000Y-134352500D02*
X71030000Y-134697500D01*
G75*
G02*
X70882500Y-134845000I-147500J0D01*
G01*
X70587500Y-134845000D01*
G75*
G02*
X70440000Y-134697500I0J147500D01*
G01*
X70440000Y-134352500D01*
G75*
G02*
X70587500Y-134205000I147500J0D01*
G01*
X70882500Y-134205000D01*
G75*
G02*
X71030000Y-134352500I0J-147500D01*
G01*
G37*
G36*
G01*
X70060000Y-134352500D02*
X70060000Y-134697500D01*
G75*
G02*
X69912500Y-134845000I-147500J0D01*
G01*
X69617500Y-134845000D01*
G75*
G02*
X69470000Y-134697500I0J147500D01*
G01*
X69470000Y-134352500D01*
G75*
G02*
X69617500Y-134205000I147500J0D01*
G01*
X69912500Y-134205000D01*
G75*
G02*
X70060000Y-134352500I0J-147500D01*
G01*
G37*
%TD*%
%TO.C,C23*%
G36*
G01*
X82530000Y-134317500D02*
X82530000Y-134662500D01*
G75*
G02*
X82382500Y-134810000I-147500J0D01*
G01*
X82087500Y-134810000D01*
G75*
G02*
X81940000Y-134662500I0J147500D01*
G01*
X81940000Y-134317500D01*
G75*
G02*
X82087500Y-134170000I147500J0D01*
G01*
X82382500Y-134170000D01*
G75*
G02*
X82530000Y-134317500I0J-147500D01*
G01*
G37*
G36*
G01*
X81560000Y-134317500D02*
X81560000Y-134662500D01*
G75*
G02*
X81412500Y-134810000I-147500J0D01*
G01*
X81117500Y-134810000D01*
G75*
G02*
X80970000Y-134662500I0J147500D01*
G01*
X80970000Y-134317500D01*
G75*
G02*
X81117500Y-134170000I147500J0D01*
G01*
X81412500Y-134170000D01*
G75*
G02*
X81560000Y-134317500I0J-147500D01*
G01*
G37*
%TD*%
%TO.C,C22*%
G36*
G01*
X85357500Y-118560000D02*
X85702500Y-118560000D01*
G75*
G02*
X85850000Y-118707500I0J-147500D01*
G01*
X85850000Y-119002500D01*
G75*
G02*
X85702500Y-119150000I-147500J0D01*
G01*
X85357500Y-119150000D01*
G75*
G02*
X85210000Y-119002500I0J147500D01*
G01*
X85210000Y-118707500D01*
G75*
G02*
X85357500Y-118560000I147500J0D01*
G01*
G37*
G36*
G01*
X85357500Y-119530000D02*
X85702500Y-119530000D01*
G75*
G02*
X85850000Y-119677500I0J-147500D01*
G01*
X85850000Y-119972500D01*
G75*
G02*
X85702500Y-120120000I-147500J0D01*
G01*
X85357500Y-120120000D01*
G75*
G02*
X85210000Y-119972500I0J147500D01*
G01*
X85210000Y-119677500D01*
G75*
G02*
X85357500Y-119530000I147500J0D01*
G01*
G37*
%TD*%
%TO.C,C11*%
G36*
G01*
X66612500Y-129320000D02*
X66267500Y-129320000D01*
G75*
G02*
X66120000Y-129172500I0J147500D01*
G01*
X66120000Y-128877500D01*
G75*
G02*
X66267500Y-128730000I147500J0D01*
G01*
X66612500Y-128730000D01*
G75*
G02*
X66760000Y-128877500I0J-147500D01*
G01*
X66760000Y-129172500D01*
G75*
G02*
X66612500Y-129320000I-147500J0D01*
G01*
G37*
G36*
G01*
X66612500Y-128350000D02*
X66267500Y-128350000D01*
G75*
G02*
X66120000Y-128202500I0J147500D01*
G01*
X66120000Y-127907500D01*
G75*
G02*
X66267500Y-127760000I147500J0D01*
G01*
X66612500Y-127760000D01*
G75*
G02*
X66760000Y-127907500I0J-147500D01*
G01*
X66760000Y-128202500D01*
G75*
G02*
X66612500Y-128350000I-147500J0D01*
G01*
G37*
%TD*%
%TO.C,C6*%
G36*
G01*
X66132500Y-121970000D02*
X65787500Y-121970000D01*
G75*
G02*
X65640000Y-121822500I0J147500D01*
G01*
X65640000Y-121527500D01*
G75*
G02*
X65787500Y-121380000I147500J0D01*
G01*
X66132500Y-121380000D01*
G75*
G02*
X66280000Y-121527500I0J-147500D01*
G01*
X66280000Y-121822500D01*
G75*
G02*
X66132500Y-121970000I-147500J0D01*
G01*
G37*
G36*
G01*
X66132500Y-121000000D02*
X65787500Y-121000000D01*
G75*
G02*
X65640000Y-120852500I0J147500D01*
G01*
X65640000Y-120557500D01*
G75*
G02*
X65787500Y-120410000I147500J0D01*
G01*
X66132500Y-120410000D01*
G75*
G02*
X66280000Y-120557500I0J-147500D01*
G01*
X66280000Y-120852500D01*
G75*
G02*
X66132500Y-121000000I-147500J0D01*
G01*
G37*
%TD*%
%TO.C,C54*%
G36*
G01*
X68137500Y-157220000D02*
X68482500Y-157220000D01*
G75*
G02*
X68630000Y-157367500I0J-147500D01*
G01*
X68630000Y-157662500D01*
G75*
G02*
X68482500Y-157810000I-147500J0D01*
G01*
X68137500Y-157810000D01*
G75*
G02*
X67990000Y-157662500I0J147500D01*
G01*
X67990000Y-157367500D01*
G75*
G02*
X68137500Y-157220000I147500J0D01*
G01*
G37*
G36*
G01*
X68137500Y-158190000D02*
X68482500Y-158190000D01*
G75*
G02*
X68630000Y-158337500I0J-147500D01*
G01*
X68630000Y-158632500D01*
G75*
G02*
X68482500Y-158780000I-147500J0D01*
G01*
X68137500Y-158780000D01*
G75*
G02*
X67990000Y-158632500I0J147500D01*
G01*
X67990000Y-158337500D01*
G75*
G02*
X68137500Y-158190000I147500J0D01*
G01*
G37*
%TD*%
%TO.C,C39*%
G36*
G01*
X60895000Y-150232500D02*
X60895000Y-149887500D01*
G75*
G02*
X61042500Y-149740000I147500J0D01*
G01*
X61337500Y-149740000D01*
G75*
G02*
X61485000Y-149887500I0J-147500D01*
G01*
X61485000Y-150232500D01*
G75*
G02*
X61337500Y-150380000I-147500J0D01*
G01*
X61042500Y-150380000D01*
G75*
G02*
X60895000Y-150232500I0J147500D01*
G01*
G37*
G36*
G01*
X61865000Y-150232500D02*
X61865000Y-149887500D01*
G75*
G02*
X62012500Y-149740000I147500J0D01*
G01*
X62307500Y-149740000D01*
G75*
G02*
X62455000Y-149887500I0J-147500D01*
G01*
X62455000Y-150232500D01*
G75*
G02*
X62307500Y-150380000I-147500J0D01*
G01*
X62012500Y-150380000D01*
G75*
G02*
X61865000Y-150232500I0J147500D01*
G01*
G37*
%TD*%
%TO.C,C38*%
G36*
G01*
X40512500Y-133860000D02*
X40167500Y-133860000D01*
G75*
G02*
X40020000Y-133712500I0J147500D01*
G01*
X40020000Y-133417500D01*
G75*
G02*
X40167500Y-133270000I147500J0D01*
G01*
X40512500Y-133270000D01*
G75*
G02*
X40660000Y-133417500I0J-147500D01*
G01*
X40660000Y-133712500D01*
G75*
G02*
X40512500Y-133860000I-147500J0D01*
G01*
G37*
G36*
G01*
X40512500Y-132890000D02*
X40167500Y-132890000D01*
G75*
G02*
X40020000Y-132742500I0J147500D01*
G01*
X40020000Y-132447500D01*
G75*
G02*
X40167500Y-132300000I147500J0D01*
G01*
X40512500Y-132300000D01*
G75*
G02*
X40660000Y-132447500I0J-147500D01*
G01*
X40660000Y-132742500D01*
G75*
G02*
X40512500Y-132890000I-147500J0D01*
G01*
G37*
%TD*%
%TO.C,C33*%
G36*
G01*
X45027500Y-141760000D02*
X45372500Y-141760000D01*
G75*
G02*
X45520000Y-141907500I0J-147500D01*
G01*
X45520000Y-142202500D01*
G75*
G02*
X45372500Y-142350000I-147500J0D01*
G01*
X45027500Y-142350000D01*
G75*
G02*
X44880000Y-142202500I0J147500D01*
G01*
X44880000Y-141907500D01*
G75*
G02*
X45027500Y-141760000I147500J0D01*
G01*
G37*
G36*
G01*
X45027500Y-142730000D02*
X45372500Y-142730000D01*
G75*
G02*
X45520000Y-142877500I0J-147500D01*
G01*
X45520000Y-143172500D01*
G75*
G02*
X45372500Y-143320000I-147500J0D01*
G01*
X45027500Y-143320000D01*
G75*
G02*
X44880000Y-143172500I0J147500D01*
G01*
X44880000Y-142877500D01*
G75*
G02*
X45027500Y-142730000I147500J0D01*
G01*
G37*
%TD*%
%TO.C,C31*%
G36*
G01*
X92800000Y-141531250D02*
X92800000Y-140618750D01*
G75*
G02*
X93043750Y-140375000I243750J0D01*
G01*
X93531250Y-140375000D01*
G75*
G02*
X93775000Y-140618750I0J-243750D01*
G01*
X93775000Y-141531250D01*
G75*
G02*
X93531250Y-141775000I-243750J0D01*
G01*
X93043750Y-141775000D01*
G75*
G02*
X92800000Y-141531250I0J243750D01*
G01*
G37*
G36*
G01*
X90925000Y-141531250D02*
X90925000Y-140618750D01*
G75*
G02*
X91168750Y-140375000I243750J0D01*
G01*
X91656250Y-140375000D01*
G75*
G02*
X91900000Y-140618750I0J-243750D01*
G01*
X91900000Y-141531250D01*
G75*
G02*
X91656250Y-141775000I-243750J0D01*
G01*
X91168750Y-141775000D01*
G75*
G02*
X90925000Y-141531250I0J243750D01*
G01*
G37*
%TD*%
%TO.C,C30*%
G36*
G01*
X55297500Y-139675000D02*
X54952500Y-139675000D01*
G75*
G02*
X54805000Y-139527500I0J147500D01*
G01*
X54805000Y-139232500D01*
G75*
G02*
X54952500Y-139085000I147500J0D01*
G01*
X55297500Y-139085000D01*
G75*
G02*
X55445000Y-139232500I0J-147500D01*
G01*
X55445000Y-139527500D01*
G75*
G02*
X55297500Y-139675000I-147500J0D01*
G01*
G37*
G36*
G01*
X55297500Y-138705000D02*
X54952500Y-138705000D01*
G75*
G02*
X54805000Y-138557500I0J147500D01*
G01*
X54805000Y-138262500D01*
G75*
G02*
X54952500Y-138115000I147500J0D01*
G01*
X55297500Y-138115000D01*
G75*
G02*
X55445000Y-138262500I0J-147500D01*
G01*
X55445000Y-138557500D01*
G75*
G02*
X55297500Y-138705000I-147500J0D01*
G01*
G37*
%TD*%
%TO.C,C17*%
G36*
G01*
X83067500Y-133250000D02*
X83412500Y-133250000D01*
G75*
G02*
X83560000Y-133397500I0J-147500D01*
G01*
X83560000Y-133692500D01*
G75*
G02*
X83412500Y-133840000I-147500J0D01*
G01*
X83067500Y-133840000D01*
G75*
G02*
X82920000Y-133692500I0J147500D01*
G01*
X82920000Y-133397500D01*
G75*
G02*
X83067500Y-133250000I147500J0D01*
G01*
G37*
G36*
G01*
X83067500Y-134220000D02*
X83412500Y-134220000D01*
G75*
G02*
X83560000Y-134367500I0J-147500D01*
G01*
X83560000Y-134662500D01*
G75*
G02*
X83412500Y-134810000I-147500J0D01*
G01*
X83067500Y-134810000D01*
G75*
G02*
X82920000Y-134662500I0J147500D01*
G01*
X82920000Y-134367500D01*
G75*
G02*
X83067500Y-134220000I147500J0D01*
G01*
G37*
%TD*%
%TO.C,C16*%
G36*
G01*
X83095000Y-118072500D02*
X83095000Y-117727500D01*
G75*
G02*
X83242500Y-117580000I147500J0D01*
G01*
X83537500Y-117580000D01*
G75*
G02*
X83685000Y-117727500I0J-147500D01*
G01*
X83685000Y-118072500D01*
G75*
G02*
X83537500Y-118220000I-147500J0D01*
G01*
X83242500Y-118220000D01*
G75*
G02*
X83095000Y-118072500I0J147500D01*
G01*
G37*
G36*
G01*
X84065000Y-118072500D02*
X84065000Y-117727500D01*
G75*
G02*
X84212500Y-117580000I147500J0D01*
G01*
X84507500Y-117580000D01*
G75*
G02*
X84655000Y-117727500I0J-147500D01*
G01*
X84655000Y-118072500D01*
G75*
G02*
X84507500Y-118220000I-147500J0D01*
G01*
X84212500Y-118220000D01*
G75*
G02*
X84065000Y-118072500I0J147500D01*
G01*
G37*
%TD*%
%TO.C,C8*%
G36*
G01*
X58283750Y-125775000D02*
X59196250Y-125775000D01*
G75*
G02*
X59440000Y-126018750I0J-243750D01*
G01*
X59440000Y-126506250D01*
G75*
G02*
X59196250Y-126750000I-243750J0D01*
G01*
X58283750Y-126750000D01*
G75*
G02*
X58040000Y-126506250I0J243750D01*
G01*
X58040000Y-126018750D01*
G75*
G02*
X58283750Y-125775000I243750J0D01*
G01*
G37*
G36*
G01*
X58283750Y-127650000D02*
X59196250Y-127650000D01*
G75*
G02*
X59440000Y-127893750I0J-243750D01*
G01*
X59440000Y-128381250D01*
G75*
G02*
X59196250Y-128625000I-243750J0D01*
G01*
X58283750Y-128625000D01*
G75*
G02*
X58040000Y-128381250I0J243750D01*
G01*
X58040000Y-127893750D01*
G75*
G02*
X58283750Y-127650000I243750J0D01*
G01*
G37*
%TD*%
%TO.C,C2*%
G36*
G01*
X50735000Y-115137500D02*
X50735000Y-114792500D01*
G75*
G02*
X50882500Y-114645000I147500J0D01*
G01*
X51177500Y-114645000D01*
G75*
G02*
X51325000Y-114792500I0J-147500D01*
G01*
X51325000Y-115137500D01*
G75*
G02*
X51177500Y-115285000I-147500J0D01*
G01*
X50882500Y-115285000D01*
G75*
G02*
X50735000Y-115137500I0J147500D01*
G01*
G37*
G36*
G01*
X51705000Y-115137500D02*
X51705000Y-114792500D01*
G75*
G02*
X51852500Y-114645000I147500J0D01*
G01*
X52147500Y-114645000D01*
G75*
G02*
X52295000Y-114792500I0J-147500D01*
G01*
X52295000Y-115137500D01*
G75*
G02*
X52147500Y-115285000I-147500J0D01*
G01*
X51852500Y-115285000D01*
G75*
G02*
X51705000Y-115137500I0J147500D01*
G01*
G37*
%TD*%
%TO.C,C45*%
G36*
G01*
X91685000Y-146328750D02*
X91685000Y-147241250D01*
G75*
G02*
X91441250Y-147485000I-243750J0D01*
G01*
X90953750Y-147485000D01*
G75*
G02*
X90710000Y-147241250I0J243750D01*
G01*
X90710000Y-146328750D01*
G75*
G02*
X90953750Y-146085000I243750J0D01*
G01*
X91441250Y-146085000D01*
G75*
G02*
X91685000Y-146328750I0J-243750D01*
G01*
G37*
G36*
G01*
X93560000Y-146328750D02*
X93560000Y-147241250D01*
G75*
G02*
X93316250Y-147485000I-243750J0D01*
G01*
X92828750Y-147485000D01*
G75*
G02*
X92585000Y-147241250I0J243750D01*
G01*
X92585000Y-146328750D01*
G75*
G02*
X92828750Y-146085000I243750J0D01*
G01*
X93316250Y-146085000D01*
G75*
G02*
X93560000Y-146328750I0J-243750D01*
G01*
G37*
%TD*%
%TO.C,C29*%
G36*
G01*
X46975000Y-149513750D02*
X46975000Y-150426250D01*
G75*
G02*
X46731250Y-150670000I-243750J0D01*
G01*
X46243750Y-150670000D01*
G75*
G02*
X46000000Y-150426250I0J243750D01*
G01*
X46000000Y-149513750D01*
G75*
G02*
X46243750Y-149270000I243750J0D01*
G01*
X46731250Y-149270000D01*
G75*
G02*
X46975000Y-149513750I0J-243750D01*
G01*
G37*
G36*
G01*
X45100000Y-149513750D02*
X45100000Y-150426250D01*
G75*
G02*
X44856250Y-150670000I-243750J0D01*
G01*
X44368750Y-150670000D01*
G75*
G02*
X44125000Y-150426250I0J243750D01*
G01*
X44125000Y-149513750D01*
G75*
G02*
X44368750Y-149270000I243750J0D01*
G01*
X44856250Y-149270000D01*
G75*
G02*
X45100000Y-149513750I0J-243750D01*
G01*
G37*
%TD*%
%TO.C,D10*%
G36*
G01*
X40038750Y-140980000D02*
X40951250Y-140980000D01*
G75*
G02*
X41195000Y-141223750I0J-243750D01*
G01*
X41195000Y-141711250D01*
G75*
G02*
X40951250Y-141955000I-243750J0D01*
G01*
X40038750Y-141955000D01*
G75*
G02*
X39795000Y-141711250I0J243750D01*
G01*
X39795000Y-141223750D01*
G75*
G02*
X40038750Y-140980000I243750J0D01*
G01*
G37*
G36*
G01*
X40038750Y-139105000D02*
X40951250Y-139105000D01*
G75*
G02*
X41195000Y-139348750I0J-243750D01*
G01*
X41195000Y-139836250D01*
G75*
G02*
X40951250Y-140080000I-243750J0D01*
G01*
X40038750Y-140080000D01*
G75*
G02*
X39795000Y-139836250I0J243750D01*
G01*
X39795000Y-139348750D01*
G75*
G02*
X40038750Y-139105000I243750J0D01*
G01*
G37*
%TD*%
%TO.C,D8*%
G36*
G01*
X40951250Y-110905000D02*
X40038750Y-110905000D01*
G75*
G02*
X39795000Y-110661250I0J243750D01*
G01*
X39795000Y-110173750D01*
G75*
G02*
X40038750Y-109930000I243750J0D01*
G01*
X40951250Y-109930000D01*
G75*
G02*
X41195000Y-110173750I0J-243750D01*
G01*
X41195000Y-110661250D01*
G75*
G02*
X40951250Y-110905000I-243750J0D01*
G01*
G37*
G36*
G01*
X40951250Y-109030000D02*
X40038750Y-109030000D01*
G75*
G02*
X39795000Y-108786250I0J243750D01*
G01*
X39795000Y-108298750D01*
G75*
G02*
X40038750Y-108055000I243750J0D01*
G01*
X40951250Y-108055000D01*
G75*
G02*
X41195000Y-108298750I0J-243750D01*
G01*
X41195000Y-108786250D01*
G75*
G02*
X40951250Y-109030000I-243750J0D01*
G01*
G37*
%TD*%
D35*
%TO.C,U9*%
G36*
X47223485Y-145605542D02*
G01*
X47220804Y-145619017D01*
X47216816Y-145632165D01*
X47211559Y-145644858D01*
X47205082Y-145656974D01*
X47197449Y-145668398D01*
X47188733Y-145679018D01*
X47179018Y-145688733D01*
X47168398Y-145697449D01*
X47156974Y-145705082D01*
X47144858Y-145711559D01*
X47132165Y-145716816D01*
X47119017Y-145720804D01*
X47105542Y-145723485D01*
X47091869Y-145724831D01*
X47085000Y-145724831D01*
X47085000Y-145725000D01*
X46375000Y-145725000D01*
X46375000Y-145445000D01*
X47085000Y-145445000D01*
X47085000Y-145445169D01*
X47091869Y-145445169D01*
X47105542Y-145446515D01*
X47119017Y-145449196D01*
X47132165Y-145453184D01*
X47144858Y-145458441D01*
X47156974Y-145464918D01*
X47168398Y-145472551D01*
X47179018Y-145481267D01*
X47188733Y-145490982D01*
X47197449Y-145501602D01*
X47205082Y-145513026D01*
X47211559Y-145525142D01*
X47216816Y-145537835D01*
X47220804Y-145550983D01*
X47223485Y-145564458D01*
X47224831Y-145578131D01*
X47224831Y-145591869D01*
X47223485Y-145605542D01*
G37*
G36*
X47223485Y-145105542D02*
G01*
X47220804Y-145119017D01*
X47216816Y-145132165D01*
X47211559Y-145144858D01*
X47205082Y-145156974D01*
X47197449Y-145168398D01*
X47188733Y-145179018D01*
X47179018Y-145188733D01*
X47168398Y-145197449D01*
X47156974Y-145205082D01*
X47144858Y-145211559D01*
X47132165Y-145216816D01*
X47119017Y-145220804D01*
X47105542Y-145223485D01*
X47091869Y-145224831D01*
X47085000Y-145224831D01*
X47085000Y-145225000D01*
X46375000Y-145225000D01*
X46375000Y-144945000D01*
X47085000Y-144945000D01*
X47085000Y-144945169D01*
X47091869Y-144945169D01*
X47105542Y-144946515D01*
X47119017Y-144949196D01*
X47132165Y-144953184D01*
X47144858Y-144958441D01*
X47156974Y-144964918D01*
X47168398Y-144972551D01*
X47179018Y-144981267D01*
X47188733Y-144990982D01*
X47197449Y-145001602D01*
X47205082Y-145013026D01*
X47211559Y-145025142D01*
X47216816Y-145037835D01*
X47220804Y-145050983D01*
X47223485Y-145064458D01*
X47224831Y-145078131D01*
X47224831Y-145091869D01*
X47223485Y-145105542D01*
G37*
G36*
X47223485Y-144605542D02*
G01*
X47220804Y-144619017D01*
X47216816Y-144632165D01*
X47211559Y-144644858D01*
X47205082Y-144656974D01*
X47197449Y-144668398D01*
X47188733Y-144679018D01*
X47179018Y-144688733D01*
X47168398Y-144697449D01*
X47156974Y-144705082D01*
X47144858Y-144711559D01*
X47132165Y-144716816D01*
X47119017Y-144720804D01*
X47105542Y-144723485D01*
X47091869Y-144724831D01*
X47085000Y-144724831D01*
X47085000Y-144725000D01*
X46375000Y-144725000D01*
X46375000Y-144445000D01*
X47085000Y-144445000D01*
X47085000Y-144445169D01*
X47091869Y-144445169D01*
X47105542Y-144446515D01*
X47119017Y-144449196D01*
X47132165Y-144453184D01*
X47144858Y-144458441D01*
X47156974Y-144464918D01*
X47168398Y-144472551D01*
X47179018Y-144481267D01*
X47188733Y-144490982D01*
X47197449Y-144501602D01*
X47205082Y-144513026D01*
X47211559Y-144525142D01*
X47216816Y-144537835D01*
X47220804Y-144550983D01*
X47223485Y-144564458D01*
X47224831Y-144578131D01*
X47224831Y-144591869D01*
X47223485Y-144605542D01*
G37*
G36*
X47223485Y-144105542D02*
G01*
X47220804Y-144119017D01*
X47216816Y-144132165D01*
X47211559Y-144144858D01*
X47205082Y-144156974D01*
X47197449Y-144168398D01*
X47188733Y-144179018D01*
X47179018Y-144188733D01*
X47168398Y-144197449D01*
X47156974Y-144205082D01*
X47144858Y-144211559D01*
X47132165Y-144216816D01*
X47119017Y-144220804D01*
X47105542Y-144223485D01*
X47091869Y-144224831D01*
X47085000Y-144224831D01*
X47085000Y-144225000D01*
X46375000Y-144225000D01*
X46375000Y-143945000D01*
X47085000Y-143945000D01*
X47085000Y-143945169D01*
X47091869Y-143945169D01*
X47105542Y-143946515D01*
X47119017Y-143949196D01*
X47132165Y-143953184D01*
X47144858Y-143958441D01*
X47156974Y-143964918D01*
X47168398Y-143972551D01*
X47179018Y-143981267D01*
X47188733Y-143990982D01*
X47197449Y-144001602D01*
X47205082Y-144013026D01*
X47211559Y-144025142D01*
X47216816Y-144037835D01*
X47220804Y-144050983D01*
X47223485Y-144064458D01*
X47224831Y-144078131D01*
X47224831Y-144091869D01*
X47223485Y-144105542D01*
G37*
G36*
X47223485Y-143605542D02*
G01*
X47220804Y-143619017D01*
X47216816Y-143632165D01*
X47211559Y-143644858D01*
X47205082Y-143656974D01*
X47197449Y-143668398D01*
X47188733Y-143679018D01*
X47179018Y-143688733D01*
X47168398Y-143697449D01*
X47156974Y-143705082D01*
X47144858Y-143711559D01*
X47132165Y-143716816D01*
X47119017Y-143720804D01*
X47105542Y-143723485D01*
X47091869Y-143724831D01*
X47085000Y-143724831D01*
X47085000Y-143725000D01*
X46375000Y-143725000D01*
X46375000Y-143445000D01*
X47085000Y-143445000D01*
X47085000Y-143445169D01*
X47091869Y-143445169D01*
X47105542Y-143446515D01*
X47119017Y-143449196D01*
X47132165Y-143453184D01*
X47144858Y-143458441D01*
X47156974Y-143464918D01*
X47168398Y-143472551D01*
X47179018Y-143481267D01*
X47188733Y-143490982D01*
X47197449Y-143501602D01*
X47205082Y-143513026D01*
X47211559Y-143525142D01*
X47216816Y-143537835D01*
X47220804Y-143550983D01*
X47223485Y-143564458D01*
X47224831Y-143578131D01*
X47224831Y-143591869D01*
X47223485Y-143605542D01*
G37*
G36*
X47223485Y-143105542D02*
G01*
X47220804Y-143119017D01*
X47216816Y-143132165D01*
X47211559Y-143144858D01*
X47205082Y-143156974D01*
X47197449Y-143168398D01*
X47188733Y-143179018D01*
X47179018Y-143188733D01*
X47168398Y-143197449D01*
X47156974Y-143205082D01*
X47144858Y-143211559D01*
X47132165Y-143216816D01*
X47119017Y-143220804D01*
X47105542Y-143223485D01*
X47091869Y-143224831D01*
X47085000Y-143224831D01*
X47085000Y-143225000D01*
X46375000Y-143225000D01*
X46375000Y-142945000D01*
X47085000Y-142945000D01*
X47085000Y-142945169D01*
X47091869Y-142945169D01*
X47105542Y-142946515D01*
X47119017Y-142949196D01*
X47132165Y-142953184D01*
X47144858Y-142958441D01*
X47156974Y-142964918D01*
X47168398Y-142972551D01*
X47179018Y-142981267D01*
X47188733Y-142990982D01*
X47197449Y-143001602D01*
X47205082Y-143013026D01*
X47211559Y-143025142D01*
X47216816Y-143037835D01*
X47220804Y-143050983D01*
X47223485Y-143064458D01*
X47224831Y-143078131D01*
X47224831Y-143091869D01*
X47223485Y-143105542D01*
G37*
G36*
X47504458Y-142783485D02*
G01*
X47490983Y-142780804D01*
X47477835Y-142776816D01*
X47465142Y-142771559D01*
X47453026Y-142765082D01*
X47441602Y-142757449D01*
X47430982Y-142748733D01*
X47421267Y-142739018D01*
X47412551Y-142728398D01*
X47404918Y-142716974D01*
X47398441Y-142704858D01*
X47393184Y-142692165D01*
X47389196Y-142679017D01*
X47386515Y-142665542D01*
X47385169Y-142651869D01*
X47385169Y-142645000D01*
X47385000Y-142645000D01*
X47385000Y-141935000D01*
X47665000Y-141935000D01*
X47665000Y-142645000D01*
X47664831Y-142645000D01*
X47664831Y-142651869D01*
X47663485Y-142665542D01*
X47660804Y-142679017D01*
X47656816Y-142692165D01*
X47651559Y-142704858D01*
X47645082Y-142716974D01*
X47637449Y-142728398D01*
X47628733Y-142739018D01*
X47619018Y-142748733D01*
X47608398Y-142757449D01*
X47596974Y-142765082D01*
X47584858Y-142771559D01*
X47572165Y-142776816D01*
X47559017Y-142780804D01*
X47545542Y-142783485D01*
X47531869Y-142784831D01*
X47518131Y-142784831D01*
X47504458Y-142783485D01*
G37*
G36*
X48004458Y-142783485D02*
G01*
X47990983Y-142780804D01*
X47977835Y-142776816D01*
X47965142Y-142771559D01*
X47953026Y-142765082D01*
X47941602Y-142757449D01*
X47930982Y-142748733D01*
X47921267Y-142739018D01*
X47912551Y-142728398D01*
X47904918Y-142716974D01*
X47898441Y-142704858D01*
X47893184Y-142692165D01*
X47889196Y-142679017D01*
X47886515Y-142665542D01*
X47885169Y-142651869D01*
X47885169Y-142645000D01*
X47885000Y-142645000D01*
X47885000Y-141935000D01*
X48165000Y-141935000D01*
X48165000Y-142645000D01*
X48164831Y-142645000D01*
X48164831Y-142651869D01*
X48163485Y-142665542D01*
X48160804Y-142679017D01*
X48156816Y-142692165D01*
X48151559Y-142704858D01*
X48145082Y-142716974D01*
X48137449Y-142728398D01*
X48128733Y-142739018D01*
X48119018Y-142748733D01*
X48108398Y-142757449D01*
X48096974Y-142765082D01*
X48084858Y-142771559D01*
X48072165Y-142776816D01*
X48059017Y-142780804D01*
X48045542Y-142783485D01*
X48031869Y-142784831D01*
X48018131Y-142784831D01*
X48004458Y-142783485D01*
G37*
G36*
X48504458Y-142783485D02*
G01*
X48490983Y-142780804D01*
X48477835Y-142776816D01*
X48465142Y-142771559D01*
X48453026Y-142765082D01*
X48441602Y-142757449D01*
X48430982Y-142748733D01*
X48421267Y-142739018D01*
X48412551Y-142728398D01*
X48404918Y-142716974D01*
X48398441Y-142704858D01*
X48393184Y-142692165D01*
X48389196Y-142679017D01*
X48386515Y-142665542D01*
X48385169Y-142651869D01*
X48385169Y-142645000D01*
X48385000Y-142645000D01*
X48385000Y-141935000D01*
X48665000Y-141935000D01*
X48665000Y-142645000D01*
X48664831Y-142645000D01*
X48664831Y-142651869D01*
X48663485Y-142665542D01*
X48660804Y-142679017D01*
X48656816Y-142692165D01*
X48651559Y-142704858D01*
X48645082Y-142716974D01*
X48637449Y-142728398D01*
X48628733Y-142739018D01*
X48619018Y-142748733D01*
X48608398Y-142757449D01*
X48596974Y-142765082D01*
X48584858Y-142771559D01*
X48572165Y-142776816D01*
X48559017Y-142780804D01*
X48545542Y-142783485D01*
X48531869Y-142784831D01*
X48518131Y-142784831D01*
X48504458Y-142783485D01*
G37*
G36*
X49004458Y-142783485D02*
G01*
X48990983Y-142780804D01*
X48977835Y-142776816D01*
X48965142Y-142771559D01*
X48953026Y-142765082D01*
X48941602Y-142757449D01*
X48930982Y-142748733D01*
X48921267Y-142739018D01*
X48912551Y-142728398D01*
X48904918Y-142716974D01*
X48898441Y-142704858D01*
X48893184Y-142692165D01*
X48889196Y-142679017D01*
X48886515Y-142665542D01*
X48885169Y-142651869D01*
X48885169Y-142645000D01*
X48885000Y-142645000D01*
X48885000Y-141935000D01*
X49165000Y-141935000D01*
X49165000Y-142645000D01*
X49164831Y-142645000D01*
X49164831Y-142651869D01*
X49163485Y-142665542D01*
X49160804Y-142679017D01*
X49156816Y-142692165D01*
X49151559Y-142704858D01*
X49145082Y-142716974D01*
X49137449Y-142728398D01*
X49128733Y-142739018D01*
X49119018Y-142748733D01*
X49108398Y-142757449D01*
X49096974Y-142765082D01*
X49084858Y-142771559D01*
X49072165Y-142776816D01*
X49059017Y-142780804D01*
X49045542Y-142783485D01*
X49031869Y-142784831D01*
X49018131Y-142784831D01*
X49004458Y-142783485D01*
G37*
G36*
X49504458Y-142783485D02*
G01*
X49490983Y-142780804D01*
X49477835Y-142776816D01*
X49465142Y-142771559D01*
X49453026Y-142765082D01*
X49441602Y-142757449D01*
X49430982Y-142748733D01*
X49421267Y-142739018D01*
X49412551Y-142728398D01*
X49404918Y-142716974D01*
X49398441Y-142704858D01*
X49393184Y-142692165D01*
X49389196Y-142679017D01*
X49386515Y-142665542D01*
X49385169Y-142651869D01*
X49385169Y-142645000D01*
X49385000Y-142645000D01*
X49385000Y-141935000D01*
X49665000Y-141935000D01*
X49665000Y-142645000D01*
X49664831Y-142645000D01*
X49664831Y-142651869D01*
X49663485Y-142665542D01*
X49660804Y-142679017D01*
X49656816Y-142692165D01*
X49651559Y-142704858D01*
X49645082Y-142716974D01*
X49637449Y-142728398D01*
X49628733Y-142739018D01*
X49619018Y-142748733D01*
X49608398Y-142757449D01*
X49596974Y-142765082D01*
X49584858Y-142771559D01*
X49572165Y-142776816D01*
X49559017Y-142780804D01*
X49545542Y-142783485D01*
X49531869Y-142784831D01*
X49518131Y-142784831D01*
X49504458Y-142783485D01*
G37*
G36*
X50004458Y-142783485D02*
G01*
X49990983Y-142780804D01*
X49977835Y-142776816D01*
X49965142Y-142771559D01*
X49953026Y-142765082D01*
X49941602Y-142757449D01*
X49930982Y-142748733D01*
X49921267Y-142739018D01*
X49912551Y-142728398D01*
X49904918Y-142716974D01*
X49898441Y-142704858D01*
X49893184Y-142692165D01*
X49889196Y-142679017D01*
X49886515Y-142665542D01*
X49885169Y-142651869D01*
X49885169Y-142645000D01*
X49885000Y-142645000D01*
X49885000Y-141935000D01*
X50165000Y-141935000D01*
X50165000Y-142645000D01*
X50164831Y-142645000D01*
X50164831Y-142651869D01*
X50163485Y-142665542D01*
X50160804Y-142679017D01*
X50156816Y-142692165D01*
X50151559Y-142704858D01*
X50145082Y-142716974D01*
X50137449Y-142728398D01*
X50128733Y-142739018D01*
X50119018Y-142748733D01*
X50108398Y-142757449D01*
X50096974Y-142765082D01*
X50084858Y-142771559D01*
X50072165Y-142776816D01*
X50059017Y-142780804D01*
X50045542Y-142783485D01*
X50031869Y-142784831D01*
X50018131Y-142784831D01*
X50004458Y-142783485D01*
G37*
G36*
X50326515Y-143064458D02*
G01*
X50329196Y-143050983D01*
X50333184Y-143037835D01*
X50338441Y-143025142D01*
X50344918Y-143013026D01*
X50352551Y-143001602D01*
X50361267Y-142990982D01*
X50370982Y-142981267D01*
X50381602Y-142972551D01*
X50393026Y-142964918D01*
X50405142Y-142958441D01*
X50417835Y-142953184D01*
X50430983Y-142949196D01*
X50444458Y-142946515D01*
X50458131Y-142945169D01*
X50465000Y-142945169D01*
X50465000Y-142945000D01*
X51175000Y-142945000D01*
X51175000Y-143225000D01*
X50465000Y-143225000D01*
X50465000Y-143224831D01*
X50458131Y-143224831D01*
X50444458Y-143223485D01*
X50430983Y-143220804D01*
X50417835Y-143216816D01*
X50405142Y-143211559D01*
X50393026Y-143205082D01*
X50381602Y-143197449D01*
X50370982Y-143188733D01*
X50361267Y-143179018D01*
X50352551Y-143168398D01*
X50344918Y-143156974D01*
X50338441Y-143144858D01*
X50333184Y-143132165D01*
X50329196Y-143119017D01*
X50326515Y-143105542D01*
X50325169Y-143091869D01*
X50325169Y-143078131D01*
X50326515Y-143064458D01*
G37*
G36*
X50326515Y-143564458D02*
G01*
X50329196Y-143550983D01*
X50333184Y-143537835D01*
X50338441Y-143525142D01*
X50344918Y-143513026D01*
X50352551Y-143501602D01*
X50361267Y-143490982D01*
X50370982Y-143481267D01*
X50381602Y-143472551D01*
X50393026Y-143464918D01*
X50405142Y-143458441D01*
X50417835Y-143453184D01*
X50430983Y-143449196D01*
X50444458Y-143446515D01*
X50458131Y-143445169D01*
X50465000Y-143445169D01*
X50465000Y-143445000D01*
X51175000Y-143445000D01*
X51175000Y-143725000D01*
X50465000Y-143725000D01*
X50465000Y-143724831D01*
X50458131Y-143724831D01*
X50444458Y-143723485D01*
X50430983Y-143720804D01*
X50417835Y-143716816D01*
X50405142Y-143711559D01*
X50393026Y-143705082D01*
X50381602Y-143697449D01*
X50370982Y-143688733D01*
X50361267Y-143679018D01*
X50352551Y-143668398D01*
X50344918Y-143656974D01*
X50338441Y-143644858D01*
X50333184Y-143632165D01*
X50329196Y-143619017D01*
X50326515Y-143605542D01*
X50325169Y-143591869D01*
X50325169Y-143578131D01*
X50326515Y-143564458D01*
G37*
G36*
X50326515Y-144064458D02*
G01*
X50329196Y-144050983D01*
X50333184Y-144037835D01*
X50338441Y-144025142D01*
X50344918Y-144013026D01*
X50352551Y-144001602D01*
X50361267Y-143990982D01*
X50370982Y-143981267D01*
X50381602Y-143972551D01*
X50393026Y-143964918D01*
X50405142Y-143958441D01*
X50417835Y-143953184D01*
X50430983Y-143949196D01*
X50444458Y-143946515D01*
X50458131Y-143945169D01*
X50465000Y-143945169D01*
X50465000Y-143945000D01*
X51175000Y-143945000D01*
X51175000Y-144225000D01*
X50465000Y-144225000D01*
X50465000Y-144224831D01*
X50458131Y-144224831D01*
X50444458Y-144223485D01*
X50430983Y-144220804D01*
X50417835Y-144216816D01*
X50405142Y-144211559D01*
X50393026Y-144205082D01*
X50381602Y-144197449D01*
X50370982Y-144188733D01*
X50361267Y-144179018D01*
X50352551Y-144168398D01*
X50344918Y-144156974D01*
X50338441Y-144144858D01*
X50333184Y-144132165D01*
X50329196Y-144119017D01*
X50326515Y-144105542D01*
X50325169Y-144091869D01*
X50325169Y-144078131D01*
X50326515Y-144064458D01*
G37*
G36*
X50326515Y-144564458D02*
G01*
X50329196Y-144550983D01*
X50333184Y-144537835D01*
X50338441Y-144525142D01*
X50344918Y-144513026D01*
X50352551Y-144501602D01*
X50361267Y-144490982D01*
X50370982Y-144481267D01*
X50381602Y-144472551D01*
X50393026Y-144464918D01*
X50405142Y-144458441D01*
X50417835Y-144453184D01*
X50430983Y-144449196D01*
X50444458Y-144446515D01*
X50458131Y-144445169D01*
X50465000Y-144445169D01*
X50465000Y-144445000D01*
X51175000Y-144445000D01*
X51175000Y-144725000D01*
X50465000Y-144725000D01*
X50465000Y-144724831D01*
X50458131Y-144724831D01*
X50444458Y-144723485D01*
X50430983Y-144720804D01*
X50417835Y-144716816D01*
X50405142Y-144711559D01*
X50393026Y-144705082D01*
X50381602Y-144697449D01*
X50370982Y-144688733D01*
X50361267Y-144679018D01*
X50352551Y-144668398D01*
X50344918Y-144656974D01*
X50338441Y-144644858D01*
X50333184Y-144632165D01*
X50329196Y-144619017D01*
X50326515Y-144605542D01*
X50325169Y-144591869D01*
X50325169Y-144578131D01*
X50326515Y-144564458D01*
G37*
G36*
X50326515Y-145064458D02*
G01*
X50329196Y-145050983D01*
X50333184Y-145037835D01*
X50338441Y-145025142D01*
X50344918Y-145013026D01*
X50352551Y-145001602D01*
X50361267Y-144990982D01*
X50370982Y-144981267D01*
X50381602Y-144972551D01*
X50393026Y-144964918D01*
X50405142Y-144958441D01*
X50417835Y-144953184D01*
X50430983Y-144949196D01*
X50444458Y-144946515D01*
X50458131Y-144945169D01*
X50465000Y-144945169D01*
X50465000Y-144945000D01*
X51175000Y-144945000D01*
X51175000Y-145225000D01*
X50465000Y-145225000D01*
X50465000Y-145224831D01*
X50458131Y-145224831D01*
X50444458Y-145223485D01*
X50430983Y-145220804D01*
X50417835Y-145216816D01*
X50405142Y-145211559D01*
X50393026Y-145205082D01*
X50381602Y-145197449D01*
X50370982Y-145188733D01*
X50361267Y-145179018D01*
X50352551Y-145168398D01*
X50344918Y-145156974D01*
X50338441Y-145144858D01*
X50333184Y-145132165D01*
X50329196Y-145119017D01*
X50326515Y-145105542D01*
X50325169Y-145091869D01*
X50325169Y-145078131D01*
X50326515Y-145064458D01*
G37*
G36*
X50326515Y-145564458D02*
G01*
X50329196Y-145550983D01*
X50333184Y-145537835D01*
X50338441Y-145525142D01*
X50344918Y-145513026D01*
X50352551Y-145501602D01*
X50361267Y-145490982D01*
X50370982Y-145481267D01*
X50381602Y-145472551D01*
X50393026Y-145464918D01*
X50405142Y-145458441D01*
X50417835Y-145453184D01*
X50430983Y-145449196D01*
X50444458Y-145446515D01*
X50458131Y-145445169D01*
X50465000Y-145445169D01*
X50465000Y-145445000D01*
X51175000Y-145445000D01*
X51175000Y-145725000D01*
X50465000Y-145725000D01*
X50465000Y-145724831D01*
X50458131Y-145724831D01*
X50444458Y-145723485D01*
X50430983Y-145720804D01*
X50417835Y-145716816D01*
X50405142Y-145711559D01*
X50393026Y-145705082D01*
X50381602Y-145697449D01*
X50370982Y-145688733D01*
X50361267Y-145679018D01*
X50352551Y-145668398D01*
X50344918Y-145656974D01*
X50338441Y-145644858D01*
X50333184Y-145632165D01*
X50329196Y-145619017D01*
X50326515Y-145605542D01*
X50325169Y-145591869D01*
X50325169Y-145578131D01*
X50326515Y-145564458D01*
G37*
G36*
X50045542Y-145886515D02*
G01*
X50059017Y-145889196D01*
X50072165Y-145893184D01*
X50084858Y-145898441D01*
X50096974Y-145904918D01*
X50108398Y-145912551D01*
X50119018Y-145921267D01*
X50128733Y-145930982D01*
X50137449Y-145941602D01*
X50145082Y-145953026D01*
X50151559Y-145965142D01*
X50156816Y-145977835D01*
X50160804Y-145990983D01*
X50163485Y-146004458D01*
X50164831Y-146018131D01*
X50164831Y-146025000D01*
X50165000Y-146025000D01*
X50165000Y-146735000D01*
X49885000Y-146735000D01*
X49885000Y-146025000D01*
X49885169Y-146025000D01*
X49885169Y-146018131D01*
X49886515Y-146004458D01*
X49889196Y-145990983D01*
X49893184Y-145977835D01*
X49898441Y-145965142D01*
X49904918Y-145953026D01*
X49912551Y-145941602D01*
X49921267Y-145930982D01*
X49930982Y-145921267D01*
X49941602Y-145912551D01*
X49953026Y-145904918D01*
X49965142Y-145898441D01*
X49977835Y-145893184D01*
X49990983Y-145889196D01*
X50004458Y-145886515D01*
X50018131Y-145885169D01*
X50031869Y-145885169D01*
X50045542Y-145886515D01*
G37*
G36*
X49545542Y-145886515D02*
G01*
X49559017Y-145889196D01*
X49572165Y-145893184D01*
X49584858Y-145898441D01*
X49596974Y-145904918D01*
X49608398Y-145912551D01*
X49619018Y-145921267D01*
X49628733Y-145930982D01*
X49637449Y-145941602D01*
X49645082Y-145953026D01*
X49651559Y-145965142D01*
X49656816Y-145977835D01*
X49660804Y-145990983D01*
X49663485Y-146004458D01*
X49664831Y-146018131D01*
X49664831Y-146025000D01*
X49665000Y-146025000D01*
X49665000Y-146735000D01*
X49385000Y-146735000D01*
X49385000Y-146025000D01*
X49385169Y-146025000D01*
X49385169Y-146018131D01*
X49386515Y-146004458D01*
X49389196Y-145990983D01*
X49393184Y-145977835D01*
X49398441Y-145965142D01*
X49404918Y-145953026D01*
X49412551Y-145941602D01*
X49421267Y-145930982D01*
X49430982Y-145921267D01*
X49441602Y-145912551D01*
X49453026Y-145904918D01*
X49465142Y-145898441D01*
X49477835Y-145893184D01*
X49490983Y-145889196D01*
X49504458Y-145886515D01*
X49518131Y-145885169D01*
X49531869Y-145885169D01*
X49545542Y-145886515D01*
G37*
G36*
X49045542Y-145886515D02*
G01*
X49059017Y-145889196D01*
X49072165Y-145893184D01*
X49084858Y-145898441D01*
X49096974Y-145904918D01*
X49108398Y-145912551D01*
X49119018Y-145921267D01*
X49128733Y-145930982D01*
X49137449Y-145941602D01*
X49145082Y-145953026D01*
X49151559Y-145965142D01*
X49156816Y-145977835D01*
X49160804Y-145990983D01*
X49163485Y-146004458D01*
X49164831Y-146018131D01*
X49164831Y-146025000D01*
X49165000Y-146025000D01*
X49165000Y-146735000D01*
X48885000Y-146735000D01*
X48885000Y-146025000D01*
X48885169Y-146025000D01*
X48885169Y-146018131D01*
X48886515Y-146004458D01*
X48889196Y-145990983D01*
X48893184Y-145977835D01*
X48898441Y-145965142D01*
X48904918Y-145953026D01*
X48912551Y-145941602D01*
X48921267Y-145930982D01*
X48930982Y-145921267D01*
X48941602Y-145912551D01*
X48953026Y-145904918D01*
X48965142Y-145898441D01*
X48977835Y-145893184D01*
X48990983Y-145889196D01*
X49004458Y-145886515D01*
X49018131Y-145885169D01*
X49031869Y-145885169D01*
X49045542Y-145886515D01*
G37*
G36*
X48545542Y-145886515D02*
G01*
X48559017Y-145889196D01*
X48572165Y-145893184D01*
X48584858Y-145898441D01*
X48596974Y-145904918D01*
X48608398Y-145912551D01*
X48619018Y-145921267D01*
X48628733Y-145930982D01*
X48637449Y-145941602D01*
X48645082Y-145953026D01*
X48651559Y-145965142D01*
X48656816Y-145977835D01*
X48660804Y-145990983D01*
X48663485Y-146004458D01*
X48664831Y-146018131D01*
X48664831Y-146025000D01*
X48665000Y-146025000D01*
X48665000Y-146735000D01*
X48385000Y-146735000D01*
X48385000Y-146025000D01*
X48385169Y-146025000D01*
X48385169Y-146018131D01*
X48386515Y-146004458D01*
X48389196Y-145990983D01*
X48393184Y-145977835D01*
X48398441Y-145965142D01*
X48404918Y-145953026D01*
X48412551Y-145941602D01*
X48421267Y-145930982D01*
X48430982Y-145921267D01*
X48441602Y-145912551D01*
X48453026Y-145904918D01*
X48465142Y-145898441D01*
X48477835Y-145893184D01*
X48490983Y-145889196D01*
X48504458Y-145886515D01*
X48518131Y-145885169D01*
X48531869Y-145885169D01*
X48545542Y-145886515D01*
G37*
G36*
X48045542Y-145886515D02*
G01*
X48059017Y-145889196D01*
X48072165Y-145893184D01*
X48084858Y-145898441D01*
X48096974Y-145904918D01*
X48108398Y-145912551D01*
X48119018Y-145921267D01*
X48128733Y-145930982D01*
X48137449Y-145941602D01*
X48145082Y-145953026D01*
X48151559Y-145965142D01*
X48156816Y-145977835D01*
X48160804Y-145990983D01*
X48163485Y-146004458D01*
X48164831Y-146018131D01*
X48164831Y-146025000D01*
X48165000Y-146025000D01*
X48165000Y-146735000D01*
X47885000Y-146735000D01*
X47885000Y-146025000D01*
X47885169Y-146025000D01*
X47885169Y-146018131D01*
X47886515Y-146004458D01*
X47889196Y-145990983D01*
X47893184Y-145977835D01*
X47898441Y-145965142D01*
X47904918Y-145953026D01*
X47912551Y-145941602D01*
X47921267Y-145930982D01*
X47930982Y-145921267D01*
X47941602Y-145912551D01*
X47953026Y-145904918D01*
X47965142Y-145898441D01*
X47977835Y-145893184D01*
X47990983Y-145889196D01*
X48004458Y-145886515D01*
X48018131Y-145885169D01*
X48031869Y-145885169D01*
X48045542Y-145886515D01*
G37*
G36*
X47545542Y-145886515D02*
G01*
X47559017Y-145889196D01*
X47572165Y-145893184D01*
X47584858Y-145898441D01*
X47596974Y-145904918D01*
X47608398Y-145912551D01*
X47619018Y-145921267D01*
X47628733Y-145930982D01*
X47637449Y-145941602D01*
X47645082Y-145953026D01*
X47651559Y-145965142D01*
X47656816Y-145977835D01*
X47660804Y-145990983D01*
X47663485Y-146004458D01*
X47664831Y-146018131D01*
X47664831Y-146025000D01*
X47665000Y-146025000D01*
X47665000Y-146735000D01*
X47385000Y-146735000D01*
X47385000Y-146025000D01*
X47385169Y-146025000D01*
X47385169Y-146018131D01*
X47386515Y-146004458D01*
X47389196Y-145990983D01*
X47393184Y-145977835D01*
X47398441Y-145965142D01*
X47404918Y-145953026D01*
X47412551Y-145941602D01*
X47421267Y-145930982D01*
X47430982Y-145921267D01*
X47441602Y-145912551D01*
X47453026Y-145904918D01*
X47465142Y-145898441D01*
X47477835Y-145893184D01*
X47490983Y-145889196D01*
X47504458Y-145886515D01*
X47518131Y-145885169D01*
X47531869Y-145885169D01*
X47545542Y-145886515D01*
G37*
D36*
X48075000Y-145035000D03*
X48075000Y-143635000D03*
X49475000Y-143635000D03*
X49475000Y-145035000D03*
%TD*%
%TO.C,U3*%
G36*
G01*
X56649000Y-126827000D02*
X57069000Y-126827000D01*
G75*
G02*
X57159000Y-126917000I0J-90000D01*
G01*
X57159000Y-127097000D01*
G75*
G02*
X57069000Y-127187000I-90000J0D01*
G01*
X56649000Y-127187000D01*
G75*
G02*
X56559000Y-127097000I0J90000D01*
G01*
X56559000Y-126917000D01*
G75*
G02*
X56649000Y-126827000I90000J0D01*
G01*
G37*
G36*
G01*
X55899000Y-126827000D02*
X56319000Y-126827000D01*
G75*
G02*
X56409000Y-126917000I0J-90000D01*
G01*
X56409000Y-127097000D01*
G75*
G02*
X56319000Y-127187000I-90000J0D01*
G01*
X55899000Y-127187000D01*
G75*
G02*
X55809000Y-127097000I0J90000D01*
G01*
X55809000Y-126917000D01*
G75*
G02*
X55899000Y-126827000I90000J0D01*
G01*
G37*
G36*
G01*
X56649000Y-127277000D02*
X57069000Y-127277000D01*
G75*
G02*
X57159000Y-127367000I0J-90000D01*
G01*
X57159000Y-127547000D01*
G75*
G02*
X57069000Y-127637000I-90000J0D01*
G01*
X56649000Y-127637000D01*
G75*
G02*
X56559000Y-127547000I0J90000D01*
G01*
X56559000Y-127367000D01*
G75*
G02*
X56649000Y-127277000I90000J0D01*
G01*
G37*
G36*
G01*
X55899000Y-127277000D02*
X56319000Y-127277000D01*
G75*
G02*
X56409000Y-127367000I0J-90000D01*
G01*
X56409000Y-127547000D01*
G75*
G02*
X56319000Y-127637000I-90000J0D01*
G01*
X55899000Y-127637000D01*
G75*
G02*
X55809000Y-127547000I0J90000D01*
G01*
X55809000Y-127367000D01*
G75*
G02*
X55899000Y-127277000I90000J0D01*
G01*
G37*
G36*
G01*
X57171500Y-125882000D02*
X57296500Y-125882000D01*
G75*
G02*
X57359000Y-125944500I0J-62500D01*
G01*
X57359000Y-126519500D01*
G75*
G02*
X57296500Y-126582000I-62500J0D01*
G01*
X57171500Y-126582000D01*
G75*
G02*
X57109000Y-126519500I0J62500D01*
G01*
X57109000Y-125944500D01*
G75*
G02*
X57171500Y-125882000I62500J0D01*
G01*
G37*
G36*
G01*
X56671500Y-125882000D02*
X56796500Y-125882000D01*
G75*
G02*
X56859000Y-125944500I0J-62500D01*
G01*
X56859000Y-126519500D01*
G75*
G02*
X56796500Y-126582000I-62500J0D01*
G01*
X56671500Y-126582000D01*
G75*
G02*
X56609000Y-126519500I0J62500D01*
G01*
X56609000Y-125944500D01*
G75*
G02*
X56671500Y-125882000I62500J0D01*
G01*
G37*
G36*
G01*
X56171500Y-125882000D02*
X56296500Y-125882000D01*
G75*
G02*
X56359000Y-125944500I0J-62500D01*
G01*
X56359000Y-126519500D01*
G75*
G02*
X56296500Y-126582000I-62500J0D01*
G01*
X56171500Y-126582000D01*
G75*
G02*
X56109000Y-126519500I0J62500D01*
G01*
X56109000Y-125944500D01*
G75*
G02*
X56171500Y-125882000I62500J0D01*
G01*
G37*
G36*
G01*
X55671500Y-125882000D02*
X55796500Y-125882000D01*
G75*
G02*
X55859000Y-125944500I0J-62500D01*
G01*
X55859000Y-126519500D01*
G75*
G02*
X55796500Y-126582000I-62500J0D01*
G01*
X55671500Y-126582000D01*
G75*
G02*
X55609000Y-126519500I0J62500D01*
G01*
X55609000Y-125944500D01*
G75*
G02*
X55671500Y-125882000I62500J0D01*
G01*
G37*
G36*
G01*
X55671500Y-127882000D02*
X55796500Y-127882000D01*
G75*
G02*
X55859000Y-127944500I0J-62500D01*
G01*
X55859000Y-128519500D01*
G75*
G02*
X55796500Y-128582000I-62500J0D01*
G01*
X55671500Y-128582000D01*
G75*
G02*
X55609000Y-128519500I0J62500D01*
G01*
X55609000Y-127944500D01*
G75*
G02*
X55671500Y-127882000I62500J0D01*
G01*
G37*
G36*
G01*
X56171500Y-127882000D02*
X56296500Y-127882000D01*
G75*
G02*
X56359000Y-127944500I0J-62500D01*
G01*
X56359000Y-128519500D01*
G75*
G02*
X56296500Y-128582000I-62500J0D01*
G01*
X56171500Y-128582000D01*
G75*
G02*
X56109000Y-128519500I0J62500D01*
G01*
X56109000Y-127944500D01*
G75*
G02*
X56171500Y-127882000I62500J0D01*
G01*
G37*
G36*
G01*
X56671500Y-127882000D02*
X56796500Y-127882000D01*
G75*
G02*
X56859000Y-127944500I0J-62500D01*
G01*
X56859000Y-128519500D01*
G75*
G02*
X56796500Y-128582000I-62500J0D01*
G01*
X56671500Y-128582000D01*
G75*
G02*
X56609000Y-128519500I0J62500D01*
G01*
X56609000Y-127944500D01*
G75*
G02*
X56671500Y-127882000I62500J0D01*
G01*
G37*
G36*
G01*
X57171500Y-127882000D02*
X57296500Y-127882000D01*
G75*
G02*
X57359000Y-127944500I0J-62500D01*
G01*
X57359000Y-128519500D01*
G75*
G02*
X57296500Y-128582000I-62500J0D01*
G01*
X57171500Y-128582000D01*
G75*
G02*
X57109000Y-128519500I0J62500D01*
G01*
X57109000Y-127944500D01*
G75*
G02*
X57171500Y-127882000I62500J0D01*
G01*
G37*
%TD*%
%TO.C,R37*%
G36*
G01*
X53626250Y-125830000D02*
X53113750Y-125830000D01*
G75*
G02*
X52895000Y-125611250I0J218750D01*
G01*
X52895000Y-125173750D01*
G75*
G02*
X53113750Y-124955000I218750J0D01*
G01*
X53626250Y-124955000D01*
G75*
G02*
X53845000Y-125173750I0J-218750D01*
G01*
X53845000Y-125611250D01*
G75*
G02*
X53626250Y-125830000I-218750J0D01*
G01*
G37*
G36*
G01*
X53626250Y-127405000D02*
X53113750Y-127405000D01*
G75*
G02*
X52895000Y-127186250I0J218750D01*
G01*
X52895000Y-126748750D01*
G75*
G02*
X53113750Y-126530000I218750J0D01*
G01*
X53626250Y-126530000D01*
G75*
G02*
X53845000Y-126748750I0J-218750D01*
G01*
X53845000Y-127186250D01*
G75*
G02*
X53626250Y-127405000I-218750J0D01*
G01*
G37*
%TD*%
%TO.C,R6*%
G36*
G01*
X41895000Y-153973750D02*
X41895000Y-154486250D01*
G75*
G02*
X41676250Y-154705000I-218750J0D01*
G01*
X41238750Y-154705000D01*
G75*
G02*
X41020000Y-154486250I0J218750D01*
G01*
X41020000Y-153973750D01*
G75*
G02*
X41238750Y-153755000I218750J0D01*
G01*
X41676250Y-153755000D01*
G75*
G02*
X41895000Y-153973750I0J-218750D01*
G01*
G37*
G36*
G01*
X40320000Y-153973750D02*
X40320000Y-154486250D01*
G75*
G02*
X40101250Y-154705000I-218750J0D01*
G01*
X39663750Y-154705000D01*
G75*
G02*
X39445000Y-154486250I0J218750D01*
G01*
X39445000Y-153973750D01*
G75*
G02*
X39663750Y-153755000I218750J0D01*
G01*
X40101250Y-153755000D01*
G75*
G02*
X40320000Y-153973750I0J-218750D01*
G01*
G37*
%TD*%
%TO.C,R2*%
G36*
G01*
X41895000Y-116803750D02*
X41895000Y-117316250D01*
G75*
G02*
X41676250Y-117535000I-218750J0D01*
G01*
X41238750Y-117535000D01*
G75*
G02*
X41020000Y-117316250I0J218750D01*
G01*
X41020000Y-116803750D01*
G75*
G02*
X41238750Y-116585000I218750J0D01*
G01*
X41676250Y-116585000D01*
G75*
G02*
X41895000Y-116803750I0J-218750D01*
G01*
G37*
G36*
G01*
X40320000Y-116803750D02*
X40320000Y-117316250D01*
G75*
G02*
X40101250Y-117535000I-218750J0D01*
G01*
X39663750Y-117535000D01*
G75*
G02*
X39445000Y-117316250I0J218750D01*
G01*
X39445000Y-116803750D01*
G75*
G02*
X39663750Y-116585000I218750J0D01*
G01*
X40101250Y-116585000D01*
G75*
G02*
X40320000Y-116803750I0J-218750D01*
G01*
G37*
%TD*%
D37*
%TO.C,D11*%
X63925000Y-146810000D03*
X63925000Y-143510000D03*
%TD*%
D38*
%TO.C,D6*%
X47900000Y-128750000D03*
X44600000Y-128750000D03*
%TD*%
%TO.C,D3*%
G36*
G01*
X36079000Y-154646250D02*
X36079000Y-153733750D01*
G75*
G02*
X36322750Y-153490000I243750J0D01*
G01*
X36810250Y-153490000D01*
G75*
G02*
X37054000Y-153733750I0J-243750D01*
G01*
X37054000Y-154646250D01*
G75*
G02*
X36810250Y-154890000I-243750J0D01*
G01*
X36322750Y-154890000D01*
G75*
G02*
X36079000Y-154646250I0J243750D01*
G01*
G37*
G36*
G01*
X37954000Y-154646250D02*
X37954000Y-153733750D01*
G75*
G02*
X38197750Y-153490000I243750J0D01*
G01*
X38685250Y-153490000D01*
G75*
G02*
X38929000Y-153733750I0J-243750D01*
G01*
X38929000Y-154646250D01*
G75*
G02*
X38685250Y-154890000I-243750J0D01*
G01*
X38197750Y-154890000D01*
G75*
G02*
X37954000Y-154646250I0J243750D01*
G01*
G37*
%TD*%
%TO.C,D2*%
G36*
G01*
X36079000Y-117506250D02*
X36079000Y-116593750D01*
G75*
G02*
X36322750Y-116350000I243750J0D01*
G01*
X36810250Y-116350000D01*
G75*
G02*
X37054000Y-116593750I0J-243750D01*
G01*
X37054000Y-117506250D01*
G75*
G02*
X36810250Y-117750000I-243750J0D01*
G01*
X36322750Y-117750000D01*
G75*
G02*
X36079000Y-117506250I0J243750D01*
G01*
G37*
G36*
G01*
X37954000Y-117506250D02*
X37954000Y-116593750D01*
G75*
G02*
X38197750Y-116350000I243750J0D01*
G01*
X38685250Y-116350000D01*
G75*
G02*
X38929000Y-116593750I0J-243750D01*
G01*
X38929000Y-117506250D01*
G75*
G02*
X38685250Y-117750000I-243750J0D01*
G01*
X38197750Y-117750000D01*
G75*
G02*
X37954000Y-117506250I0J243750D01*
G01*
G37*
%TD*%
%TO.C,R20*%
G36*
G01*
X59825000Y-149803750D02*
X59825000Y-150316250D01*
G75*
G02*
X59606250Y-150535000I-218750J0D01*
G01*
X59168750Y-150535000D01*
G75*
G02*
X58950000Y-150316250I0J218750D01*
G01*
X58950000Y-149803750D01*
G75*
G02*
X59168750Y-149585000I218750J0D01*
G01*
X59606250Y-149585000D01*
G75*
G02*
X59825000Y-149803750I0J-218750D01*
G01*
G37*
G36*
G01*
X58250000Y-149803750D02*
X58250000Y-150316250D01*
G75*
G02*
X58031250Y-150535000I-218750J0D01*
G01*
X57593750Y-150535000D01*
G75*
G02*
X57375000Y-150316250I0J218750D01*
G01*
X57375000Y-149803750D01*
G75*
G02*
X57593750Y-149585000I218750J0D01*
G01*
X58031250Y-149585000D01*
G75*
G02*
X58250000Y-149803750I0J-218750D01*
G01*
G37*
%TD*%
%TO.C,R87*%
G36*
G01*
X41895000Y-151873750D02*
X41895000Y-152386250D01*
G75*
G02*
X41676250Y-152605000I-218750J0D01*
G01*
X41238750Y-152605000D01*
G75*
G02*
X41020000Y-152386250I0J218750D01*
G01*
X41020000Y-151873750D01*
G75*
G02*
X41238750Y-151655000I218750J0D01*
G01*
X41676250Y-151655000D01*
G75*
G02*
X41895000Y-151873750I0J-218750D01*
G01*
G37*
G36*
G01*
X40320000Y-151873750D02*
X40320000Y-152386250D01*
G75*
G02*
X40101250Y-152605000I-218750J0D01*
G01*
X39663750Y-152605000D01*
G75*
G02*
X39445000Y-152386250I0J218750D01*
G01*
X39445000Y-151873750D01*
G75*
G02*
X39663750Y-151655000I218750J0D01*
G01*
X40101250Y-151655000D01*
G75*
G02*
X40320000Y-151873750I0J-218750D01*
G01*
G37*
%TD*%
%TO.C,R49*%
G36*
G01*
X56313750Y-134225000D02*
X56826250Y-134225000D01*
G75*
G02*
X57045000Y-134443750I0J-218750D01*
G01*
X57045000Y-134881250D01*
G75*
G02*
X56826250Y-135100000I-218750J0D01*
G01*
X56313750Y-135100000D01*
G75*
G02*
X56095000Y-134881250I0J218750D01*
G01*
X56095000Y-134443750D01*
G75*
G02*
X56313750Y-134225000I218750J0D01*
G01*
G37*
G36*
G01*
X56313750Y-135800000D02*
X56826250Y-135800000D01*
G75*
G02*
X57045000Y-136018750I0J-218750D01*
G01*
X57045000Y-136456250D01*
G75*
G02*
X56826250Y-136675000I-218750J0D01*
G01*
X56313750Y-136675000D01*
G75*
G02*
X56095000Y-136456250I0J218750D01*
G01*
X56095000Y-136018750D01*
G75*
G02*
X56313750Y-135800000I218750J0D01*
G01*
G37*
%TD*%
%TO.C,R48*%
G36*
G01*
X39785000Y-138306250D02*
X39785000Y-137793750D01*
G75*
G02*
X40003750Y-137575000I218750J0D01*
G01*
X40441250Y-137575000D01*
G75*
G02*
X40660000Y-137793750I0J-218750D01*
G01*
X40660000Y-138306250D01*
G75*
G02*
X40441250Y-138525000I-218750J0D01*
G01*
X40003750Y-138525000D01*
G75*
G02*
X39785000Y-138306250I0J218750D01*
G01*
G37*
G36*
G01*
X41360000Y-138306250D02*
X41360000Y-137793750D01*
G75*
G02*
X41578750Y-137575000I218750J0D01*
G01*
X42016250Y-137575000D01*
G75*
G02*
X42235000Y-137793750I0J-218750D01*
G01*
X42235000Y-138306250D01*
G75*
G02*
X42016250Y-138525000I-218750J0D01*
G01*
X41578750Y-138525000D01*
G75*
G02*
X41360000Y-138306250I0J218750D01*
G01*
G37*
%TD*%
%TO.C,R47*%
G36*
G01*
X62600000Y-139728750D02*
X62600000Y-140241250D01*
G75*
G02*
X62381250Y-140460000I-218750J0D01*
G01*
X61943750Y-140460000D01*
G75*
G02*
X61725000Y-140241250I0J218750D01*
G01*
X61725000Y-139728750D01*
G75*
G02*
X61943750Y-139510000I218750J0D01*
G01*
X62381250Y-139510000D01*
G75*
G02*
X62600000Y-139728750I0J-218750D01*
G01*
G37*
G36*
G01*
X61025000Y-139728750D02*
X61025000Y-140241250D01*
G75*
G02*
X60806250Y-140460000I-218750J0D01*
G01*
X60368750Y-140460000D01*
G75*
G02*
X60150000Y-140241250I0J218750D01*
G01*
X60150000Y-139728750D01*
G75*
G02*
X60368750Y-139510000I218750J0D01*
G01*
X60806250Y-139510000D01*
G75*
G02*
X61025000Y-139728750I0J-218750D01*
G01*
G37*
%TD*%
%TO.C,R43*%
G36*
G01*
X49273750Y-147795000D02*
X49786250Y-147795000D01*
G75*
G02*
X50005000Y-148013750I0J-218750D01*
G01*
X50005000Y-148451250D01*
G75*
G02*
X49786250Y-148670000I-218750J0D01*
G01*
X49273750Y-148670000D01*
G75*
G02*
X49055000Y-148451250I0J218750D01*
G01*
X49055000Y-148013750D01*
G75*
G02*
X49273750Y-147795000I218750J0D01*
G01*
G37*
G36*
G01*
X49273750Y-149370000D02*
X49786250Y-149370000D01*
G75*
G02*
X50005000Y-149588750I0J-218750D01*
G01*
X50005000Y-150026250D01*
G75*
G02*
X49786250Y-150245000I-218750J0D01*
G01*
X49273750Y-150245000D01*
G75*
G02*
X49055000Y-150026250I0J218750D01*
G01*
X49055000Y-149588750D01*
G75*
G02*
X49273750Y-149370000I218750J0D01*
G01*
G37*
%TD*%
%TO.C,R42*%
G36*
G01*
X43336250Y-133155000D02*
X42823750Y-133155000D01*
G75*
G02*
X42605000Y-132936250I0J218750D01*
G01*
X42605000Y-132498750D01*
G75*
G02*
X42823750Y-132280000I218750J0D01*
G01*
X43336250Y-132280000D01*
G75*
G02*
X43555000Y-132498750I0J-218750D01*
G01*
X43555000Y-132936250D01*
G75*
G02*
X43336250Y-133155000I-218750J0D01*
G01*
G37*
G36*
G01*
X43336250Y-131580000D02*
X42823750Y-131580000D01*
G75*
G02*
X42605000Y-131361250I0J218750D01*
G01*
X42605000Y-130923750D01*
G75*
G02*
X42823750Y-130705000I218750J0D01*
G01*
X43336250Y-130705000D01*
G75*
G02*
X43555000Y-130923750I0J-218750D01*
G01*
X43555000Y-131361250D01*
G75*
G02*
X43336250Y-131580000I-218750J0D01*
G01*
G37*
%TD*%
%TO.C,R41*%
G36*
G01*
X47793750Y-147795000D02*
X48306250Y-147795000D01*
G75*
G02*
X48525000Y-148013750I0J-218750D01*
G01*
X48525000Y-148451250D01*
G75*
G02*
X48306250Y-148670000I-218750J0D01*
G01*
X47793750Y-148670000D01*
G75*
G02*
X47575000Y-148451250I0J218750D01*
G01*
X47575000Y-148013750D01*
G75*
G02*
X47793750Y-147795000I218750J0D01*
G01*
G37*
G36*
G01*
X47793750Y-149370000D02*
X48306250Y-149370000D01*
G75*
G02*
X48525000Y-149588750I0J-218750D01*
G01*
X48525000Y-150026250D01*
G75*
G02*
X48306250Y-150245000I-218750J0D01*
G01*
X47793750Y-150245000D01*
G75*
G02*
X47575000Y-150026250I0J218750D01*
G01*
X47575000Y-149588750D01*
G75*
G02*
X47793750Y-149370000I218750J0D01*
G01*
G37*
%TD*%
%TO.C,R40*%
G36*
G01*
X39795000Y-112216250D02*
X39795000Y-111703750D01*
G75*
G02*
X40013750Y-111485000I218750J0D01*
G01*
X40451250Y-111485000D01*
G75*
G02*
X40670000Y-111703750I0J-218750D01*
G01*
X40670000Y-112216250D01*
G75*
G02*
X40451250Y-112435000I-218750J0D01*
G01*
X40013750Y-112435000D01*
G75*
G02*
X39795000Y-112216250I0J218750D01*
G01*
G37*
G36*
G01*
X41370000Y-112216250D02*
X41370000Y-111703750D01*
G75*
G02*
X41588750Y-111485000I218750J0D01*
G01*
X42026250Y-111485000D01*
G75*
G02*
X42245000Y-111703750I0J-218750D01*
G01*
X42245000Y-112216250D01*
G75*
G02*
X42026250Y-112435000I-218750J0D01*
G01*
X41588750Y-112435000D01*
G75*
G02*
X41370000Y-112216250I0J218750D01*
G01*
G37*
%TD*%
%TO.C,R39*%
G36*
G01*
X55956250Y-143275000D02*
X55443750Y-143275000D01*
G75*
G02*
X55225000Y-143056250I0J218750D01*
G01*
X55225000Y-142618750D01*
G75*
G02*
X55443750Y-142400000I218750J0D01*
G01*
X55956250Y-142400000D01*
G75*
G02*
X56175000Y-142618750I0J-218750D01*
G01*
X56175000Y-143056250D01*
G75*
G02*
X55956250Y-143275000I-218750J0D01*
G01*
G37*
G36*
G01*
X55956250Y-141700000D02*
X55443750Y-141700000D01*
G75*
G02*
X55225000Y-141481250I0J218750D01*
G01*
X55225000Y-141043750D01*
G75*
G02*
X55443750Y-140825000I218750J0D01*
G01*
X55956250Y-140825000D01*
G75*
G02*
X56175000Y-141043750I0J-218750D01*
G01*
X56175000Y-141481250D01*
G75*
G02*
X55956250Y-141700000I-218750J0D01*
G01*
G37*
%TD*%
%TO.C,R38*%
G36*
G01*
X55956250Y-146305000D02*
X55443750Y-146305000D01*
G75*
G02*
X55225000Y-146086250I0J218750D01*
G01*
X55225000Y-145648750D01*
G75*
G02*
X55443750Y-145430000I218750J0D01*
G01*
X55956250Y-145430000D01*
G75*
G02*
X56175000Y-145648750I0J-218750D01*
G01*
X56175000Y-146086250D01*
G75*
G02*
X55956250Y-146305000I-218750J0D01*
G01*
G37*
G36*
G01*
X55956250Y-144730000D02*
X55443750Y-144730000D01*
G75*
G02*
X55225000Y-144511250I0J218750D01*
G01*
X55225000Y-144073750D01*
G75*
G02*
X55443750Y-143855000I218750J0D01*
G01*
X55956250Y-143855000D01*
G75*
G02*
X56175000Y-144073750I0J-218750D01*
G01*
X56175000Y-144511250D01*
G75*
G02*
X55956250Y-144730000I-218750J0D01*
G01*
G37*
%TD*%
%TO.C,R36*%
G36*
G01*
X94538750Y-147225000D02*
X95051250Y-147225000D01*
G75*
G02*
X95270000Y-147443750I0J-218750D01*
G01*
X95270000Y-147881250D01*
G75*
G02*
X95051250Y-148100000I-218750J0D01*
G01*
X94538750Y-148100000D01*
G75*
G02*
X94320000Y-147881250I0J218750D01*
G01*
X94320000Y-147443750D01*
G75*
G02*
X94538750Y-147225000I218750J0D01*
G01*
G37*
G36*
G01*
X94538750Y-145650000D02*
X95051250Y-145650000D01*
G75*
G02*
X95270000Y-145868750I0J-218750D01*
G01*
X95270000Y-146306250D01*
G75*
G02*
X95051250Y-146525000I-218750J0D01*
G01*
X94538750Y-146525000D01*
G75*
G02*
X94320000Y-146306250I0J218750D01*
G01*
X94320000Y-145868750D01*
G75*
G02*
X94538750Y-145650000I218750J0D01*
G01*
G37*
%TD*%
%TO.C,R35*%
G36*
G01*
X94538750Y-144200000D02*
X95051250Y-144200000D01*
G75*
G02*
X95270000Y-144418750I0J-218750D01*
G01*
X95270000Y-144856250D01*
G75*
G02*
X95051250Y-145075000I-218750J0D01*
G01*
X94538750Y-145075000D01*
G75*
G02*
X94320000Y-144856250I0J218750D01*
G01*
X94320000Y-144418750D01*
G75*
G02*
X94538750Y-144200000I218750J0D01*
G01*
G37*
G36*
G01*
X94538750Y-142625000D02*
X95051250Y-142625000D01*
G75*
G02*
X95270000Y-142843750I0J-218750D01*
G01*
X95270000Y-143281250D01*
G75*
G02*
X95051250Y-143500000I-218750J0D01*
G01*
X94538750Y-143500000D01*
G75*
G02*
X94320000Y-143281250I0J218750D01*
G01*
X94320000Y-142843750D01*
G75*
G02*
X94538750Y-142625000I218750J0D01*
G01*
G37*
%TD*%
%TO.C,R29*%
G36*
G01*
X55487500Y-134038750D02*
X55487500Y-134551250D01*
G75*
G02*
X55268750Y-134770000I-218750J0D01*
G01*
X54831250Y-134770000D01*
G75*
G02*
X54612500Y-134551250I0J218750D01*
G01*
X54612500Y-134038750D01*
G75*
G02*
X54831250Y-133820000I218750J0D01*
G01*
X55268750Y-133820000D01*
G75*
G02*
X55487500Y-134038750I0J-218750D01*
G01*
G37*
G36*
G01*
X53912500Y-134038750D02*
X53912500Y-134551250D01*
G75*
G02*
X53693750Y-134770000I-218750J0D01*
G01*
X53256250Y-134770000D01*
G75*
G02*
X53037500Y-134551250I0J218750D01*
G01*
X53037500Y-134038750D01*
G75*
G02*
X53256250Y-133820000I218750J0D01*
G01*
X53693750Y-133820000D01*
G75*
G02*
X53912500Y-134038750I0J-218750D01*
G01*
G37*
%TD*%
%TO.C,R28*%
G36*
G01*
X55475000Y-135938750D02*
X55475000Y-136451250D01*
G75*
G02*
X55256250Y-136670000I-218750J0D01*
G01*
X54818750Y-136670000D01*
G75*
G02*
X54600000Y-136451250I0J218750D01*
G01*
X54600000Y-135938750D01*
G75*
G02*
X54818750Y-135720000I218750J0D01*
G01*
X55256250Y-135720000D01*
G75*
G02*
X55475000Y-135938750I0J-218750D01*
G01*
G37*
G36*
G01*
X53900000Y-135938750D02*
X53900000Y-136451250D01*
G75*
G02*
X53681250Y-136670000I-218750J0D01*
G01*
X53243750Y-136670000D01*
G75*
G02*
X53025000Y-136451250I0J218750D01*
G01*
X53025000Y-135938750D01*
G75*
G02*
X53243750Y-135720000I218750J0D01*
G01*
X53681250Y-135720000D01*
G75*
G02*
X53900000Y-135938750I0J-218750D01*
G01*
G37*
%TD*%
%TO.C,R27*%
G36*
G01*
X51213750Y-147815000D02*
X51726250Y-147815000D01*
G75*
G02*
X51945000Y-148033750I0J-218750D01*
G01*
X51945000Y-148471250D01*
G75*
G02*
X51726250Y-148690000I-218750J0D01*
G01*
X51213750Y-148690000D01*
G75*
G02*
X50995000Y-148471250I0J218750D01*
G01*
X50995000Y-148033750D01*
G75*
G02*
X51213750Y-147815000I218750J0D01*
G01*
G37*
G36*
G01*
X51213750Y-149390000D02*
X51726250Y-149390000D01*
G75*
G02*
X51945000Y-149608750I0J-218750D01*
G01*
X51945000Y-150046250D01*
G75*
G02*
X51726250Y-150265000I-218750J0D01*
G01*
X51213750Y-150265000D01*
G75*
G02*
X50995000Y-150046250I0J218750D01*
G01*
X50995000Y-149608750D01*
G75*
G02*
X51213750Y-149390000I218750J0D01*
G01*
G37*
%TD*%
%TO.C,R26*%
G36*
G01*
X52853750Y-147815000D02*
X53366250Y-147815000D01*
G75*
G02*
X53585000Y-148033750I0J-218750D01*
G01*
X53585000Y-148471250D01*
G75*
G02*
X53366250Y-148690000I-218750J0D01*
G01*
X52853750Y-148690000D01*
G75*
G02*
X52635000Y-148471250I0J218750D01*
G01*
X52635000Y-148033750D01*
G75*
G02*
X52853750Y-147815000I218750J0D01*
G01*
G37*
G36*
G01*
X52853750Y-149390000D02*
X53366250Y-149390000D01*
G75*
G02*
X53585000Y-149608750I0J-218750D01*
G01*
X53585000Y-150046250D01*
G75*
G02*
X53366250Y-150265000I-218750J0D01*
G01*
X52853750Y-150265000D01*
G75*
G02*
X52635000Y-150046250I0J218750D01*
G01*
X52635000Y-149608750D01*
G75*
G02*
X52853750Y-149390000I218750J0D01*
G01*
G37*
%TD*%
%TO.C,R25*%
G36*
G01*
X68122916Y-110015000D02*
X67610416Y-110015000D01*
G75*
G02*
X67391666Y-109796250I0J218750D01*
G01*
X67391666Y-109358750D01*
G75*
G02*
X67610416Y-109140000I218750J0D01*
G01*
X68122916Y-109140000D01*
G75*
G02*
X68341666Y-109358750I0J-218750D01*
G01*
X68341666Y-109796250D01*
G75*
G02*
X68122916Y-110015000I-218750J0D01*
G01*
G37*
G36*
G01*
X68122916Y-108440000D02*
X67610416Y-108440000D01*
G75*
G02*
X67391666Y-108221250I0J218750D01*
G01*
X67391666Y-107783750D01*
G75*
G02*
X67610416Y-107565000I218750J0D01*
G01*
X68122916Y-107565000D01*
G75*
G02*
X68341666Y-107783750I0J-218750D01*
G01*
X68341666Y-108221250D01*
G75*
G02*
X68122916Y-108440000I-218750J0D01*
G01*
G37*
%TD*%
%TO.C,R19*%
G36*
G01*
X42143750Y-139285000D02*
X42656250Y-139285000D01*
G75*
G02*
X42875000Y-139503750I0J-218750D01*
G01*
X42875000Y-139941250D01*
G75*
G02*
X42656250Y-140160000I-218750J0D01*
G01*
X42143750Y-140160000D01*
G75*
G02*
X41925000Y-139941250I0J218750D01*
G01*
X41925000Y-139503750D01*
G75*
G02*
X42143750Y-139285000I218750J0D01*
G01*
G37*
G36*
G01*
X42143750Y-140860000D02*
X42656250Y-140860000D01*
G75*
G02*
X42875000Y-141078750I0J-218750D01*
G01*
X42875000Y-141516250D01*
G75*
G02*
X42656250Y-141735000I-218750J0D01*
G01*
X42143750Y-141735000D01*
G75*
G02*
X41925000Y-141516250I0J218750D01*
G01*
X41925000Y-141078750D01*
G75*
G02*
X42143750Y-140860000I218750J0D01*
G01*
G37*
%TD*%
%TO.C,R11*%
G36*
G01*
X42531250Y-110725000D02*
X42018750Y-110725000D01*
G75*
G02*
X41800000Y-110506250I0J218750D01*
G01*
X41800000Y-110068750D01*
G75*
G02*
X42018750Y-109850000I218750J0D01*
G01*
X42531250Y-109850000D01*
G75*
G02*
X42750000Y-110068750I0J-218750D01*
G01*
X42750000Y-110506250D01*
G75*
G02*
X42531250Y-110725000I-218750J0D01*
G01*
G37*
G36*
G01*
X42531250Y-109150000D02*
X42018750Y-109150000D01*
G75*
G02*
X41800000Y-108931250I0J218750D01*
G01*
X41800000Y-108493750D01*
G75*
G02*
X42018750Y-108275000I218750J0D01*
G01*
X42531250Y-108275000D01*
G75*
G02*
X42750000Y-108493750I0J-218750D01*
G01*
X42750000Y-108931250D01*
G75*
G02*
X42531250Y-109150000I-218750J0D01*
G01*
G37*
%TD*%
%TO.C,R9*%
G36*
G01*
X41895000Y-114753750D02*
X41895000Y-115266250D01*
G75*
G02*
X41676250Y-115485000I-218750J0D01*
G01*
X41238750Y-115485000D01*
G75*
G02*
X41020000Y-115266250I0J218750D01*
G01*
X41020000Y-114753750D01*
G75*
G02*
X41238750Y-114535000I218750J0D01*
G01*
X41676250Y-114535000D01*
G75*
G02*
X41895000Y-114753750I0J-218750D01*
G01*
G37*
G36*
G01*
X40320000Y-114753750D02*
X40320000Y-115266250D01*
G75*
G02*
X40101250Y-115485000I-218750J0D01*
G01*
X39663750Y-115485000D01*
G75*
G02*
X39445000Y-115266250I0J218750D01*
G01*
X39445000Y-114753750D01*
G75*
G02*
X39663750Y-114535000I218750J0D01*
G01*
X40101250Y-114535000D01*
G75*
G02*
X40320000Y-114753750I0J-218750D01*
G01*
G37*
%TD*%
%TO.C,R8*%
G36*
G01*
X41885000Y-156013750D02*
X41885000Y-156526250D01*
G75*
G02*
X41666250Y-156745000I-218750J0D01*
G01*
X41228750Y-156745000D01*
G75*
G02*
X41010000Y-156526250I0J218750D01*
G01*
X41010000Y-156013750D01*
G75*
G02*
X41228750Y-155795000I218750J0D01*
G01*
X41666250Y-155795000D01*
G75*
G02*
X41885000Y-156013750I0J-218750D01*
G01*
G37*
G36*
G01*
X40310000Y-156013750D02*
X40310000Y-156526250D01*
G75*
G02*
X40091250Y-156745000I-218750J0D01*
G01*
X39653750Y-156745000D01*
G75*
G02*
X39435000Y-156526250I0J218750D01*
G01*
X39435000Y-156013750D01*
G75*
G02*
X39653750Y-155795000I218750J0D01*
G01*
X40091250Y-155795000D01*
G75*
G02*
X40310000Y-156013750I0J-218750D01*
G01*
G37*
%TD*%
%TO.C,R5*%
G36*
G01*
X53626250Y-128880000D02*
X53113750Y-128880000D01*
G75*
G02*
X52895000Y-128661250I0J218750D01*
G01*
X52895000Y-128223750D01*
G75*
G02*
X53113750Y-128005000I218750J0D01*
G01*
X53626250Y-128005000D01*
G75*
G02*
X53845000Y-128223750I0J-218750D01*
G01*
X53845000Y-128661250D01*
G75*
G02*
X53626250Y-128880000I-218750J0D01*
G01*
G37*
G36*
G01*
X53626250Y-130455000D02*
X53113750Y-130455000D01*
G75*
G02*
X52895000Y-130236250I0J218750D01*
G01*
X52895000Y-129798750D01*
G75*
G02*
X53113750Y-129580000I218750J0D01*
G01*
X53626250Y-129580000D01*
G75*
G02*
X53845000Y-129798750I0J-218750D01*
G01*
X53845000Y-130236250D01*
G75*
G02*
X53626250Y-130455000I-218750J0D01*
G01*
G37*
%TD*%
%TO.C,R4*%
G36*
G01*
X69709582Y-110015000D02*
X69197082Y-110015000D01*
G75*
G02*
X68978332Y-109796250I0J218750D01*
G01*
X68978332Y-109358750D01*
G75*
G02*
X69197082Y-109140000I218750J0D01*
G01*
X69709582Y-109140000D01*
G75*
G02*
X69928332Y-109358750I0J-218750D01*
G01*
X69928332Y-109796250D01*
G75*
G02*
X69709582Y-110015000I-218750J0D01*
G01*
G37*
G36*
G01*
X69709582Y-108440000D02*
X69197082Y-108440000D01*
G75*
G02*
X68978332Y-108221250I0J218750D01*
G01*
X68978332Y-107783750D01*
G75*
G02*
X69197082Y-107565000I218750J0D01*
G01*
X69709582Y-107565000D01*
G75*
G02*
X69928332Y-107783750I0J-218750D01*
G01*
X69928332Y-108221250D01*
G75*
G02*
X69709582Y-108440000I-218750J0D01*
G01*
G37*
%TD*%
D39*
%TO.C,L10*%
X58600000Y-143260000D03*
X61650000Y-143260000D03*
%TD*%
D40*
%TO.C,J1*%
X47800000Y-155790000D03*
X48450000Y-155790000D03*
X49100000Y-155790000D03*
X49750000Y-155790000D03*
X50400000Y-155790000D03*
D41*
X46637500Y-156150000D03*
X51562500Y-156150000D03*
D42*
X46190000Y-158450000D03*
X52010000Y-158450000D03*
D43*
X48260000Y-158450000D03*
X49940000Y-158450000D03*
%TD*%
D44*
%TO.C,U12*%
X59775000Y-148535000D03*
X60425000Y-148535000D03*
X61075000Y-148535000D03*
X61075000Y-146435000D03*
X60425000Y-146435000D03*
X59775000Y-146435000D03*
D45*
X60025000Y-147485000D03*
X60825000Y-147485000D03*
%TD*%
%TO.C,U10*%
G36*
G01*
X52577500Y-138235000D02*
X52452500Y-138235000D01*
G75*
G02*
X52390000Y-138172500I0J62500D01*
G01*
X52390000Y-137597500D01*
G75*
G02*
X52452500Y-137535000I62500J0D01*
G01*
X52577500Y-137535000D01*
G75*
G02*
X52640000Y-137597500I0J-62500D01*
G01*
X52640000Y-138172500D01*
G75*
G02*
X52577500Y-138235000I-62500J0D01*
G01*
G37*
G36*
G01*
X53077500Y-138235000D02*
X52952500Y-138235000D01*
G75*
G02*
X52890000Y-138172500I0J62500D01*
G01*
X52890000Y-137597500D01*
G75*
G02*
X52952500Y-137535000I62500J0D01*
G01*
X53077500Y-137535000D01*
G75*
G02*
X53140000Y-137597500I0J-62500D01*
G01*
X53140000Y-138172500D01*
G75*
G02*
X53077500Y-138235000I-62500J0D01*
G01*
G37*
G36*
G01*
X53577500Y-138235000D02*
X53452500Y-138235000D01*
G75*
G02*
X53390000Y-138172500I0J62500D01*
G01*
X53390000Y-137597500D01*
G75*
G02*
X53452500Y-137535000I62500J0D01*
G01*
X53577500Y-137535000D01*
G75*
G02*
X53640000Y-137597500I0J-62500D01*
G01*
X53640000Y-138172500D01*
G75*
G02*
X53577500Y-138235000I-62500J0D01*
G01*
G37*
G36*
G01*
X54077500Y-138235000D02*
X53952500Y-138235000D01*
G75*
G02*
X53890000Y-138172500I0J62500D01*
G01*
X53890000Y-137597500D01*
G75*
G02*
X53952500Y-137535000I62500J0D01*
G01*
X54077500Y-137535000D01*
G75*
G02*
X54140000Y-137597500I0J-62500D01*
G01*
X54140000Y-138172500D01*
G75*
G02*
X54077500Y-138235000I-62500J0D01*
G01*
G37*
G36*
G01*
X54077500Y-140235000D02*
X53952500Y-140235000D01*
G75*
G02*
X53890000Y-140172500I0J62500D01*
G01*
X53890000Y-139597500D01*
G75*
G02*
X53952500Y-139535000I62500J0D01*
G01*
X54077500Y-139535000D01*
G75*
G02*
X54140000Y-139597500I0J-62500D01*
G01*
X54140000Y-140172500D01*
G75*
G02*
X54077500Y-140235000I-62500J0D01*
G01*
G37*
G36*
G01*
X53577500Y-140235000D02*
X53452500Y-140235000D01*
G75*
G02*
X53390000Y-140172500I0J62500D01*
G01*
X53390000Y-139597500D01*
G75*
G02*
X53452500Y-139535000I62500J0D01*
G01*
X53577500Y-139535000D01*
G75*
G02*
X53640000Y-139597500I0J-62500D01*
G01*
X53640000Y-140172500D01*
G75*
G02*
X53577500Y-140235000I-62500J0D01*
G01*
G37*
G36*
G01*
X53077500Y-140235000D02*
X52952500Y-140235000D01*
G75*
G02*
X52890000Y-140172500I0J62500D01*
G01*
X52890000Y-139597500D01*
G75*
G02*
X52952500Y-139535000I62500J0D01*
G01*
X53077500Y-139535000D01*
G75*
G02*
X53140000Y-139597500I0J-62500D01*
G01*
X53140000Y-140172500D01*
G75*
G02*
X53077500Y-140235000I-62500J0D01*
G01*
G37*
G36*
G01*
X52577500Y-140235000D02*
X52452500Y-140235000D01*
G75*
G02*
X52390000Y-140172500I0J62500D01*
G01*
X52390000Y-139597500D01*
G75*
G02*
X52452500Y-139535000I62500J0D01*
G01*
X52577500Y-139535000D01*
G75*
G02*
X52640000Y-139597500I0J-62500D01*
G01*
X52640000Y-140172500D01*
G75*
G02*
X52577500Y-140235000I-62500J0D01*
G01*
G37*
G36*
G01*
X53850000Y-138840000D02*
X53430000Y-138840000D01*
G75*
G02*
X53340000Y-138750000I0J90000D01*
G01*
X53340000Y-138570000D01*
G75*
G02*
X53430000Y-138480000I90000J0D01*
G01*
X53850000Y-138480000D01*
G75*
G02*
X53940000Y-138570000I0J-90000D01*
G01*
X53940000Y-138750000D01*
G75*
G02*
X53850000Y-138840000I-90000J0D01*
G01*
G37*
G36*
G01*
X53100000Y-138840000D02*
X52680000Y-138840000D01*
G75*
G02*
X52590000Y-138750000I0J90000D01*
G01*
X52590000Y-138570000D01*
G75*
G02*
X52680000Y-138480000I90000J0D01*
G01*
X53100000Y-138480000D01*
G75*
G02*
X53190000Y-138570000I0J-90000D01*
G01*
X53190000Y-138750000D01*
G75*
G02*
X53100000Y-138840000I-90000J0D01*
G01*
G37*
G36*
G01*
X53850000Y-139290000D02*
X53430000Y-139290000D01*
G75*
G02*
X53340000Y-139200000I0J90000D01*
G01*
X53340000Y-139020000D01*
G75*
G02*
X53430000Y-138930000I90000J0D01*
G01*
X53850000Y-138930000D01*
G75*
G02*
X53940000Y-139020000I0J-90000D01*
G01*
X53940000Y-139200000D01*
G75*
G02*
X53850000Y-139290000I-90000J0D01*
G01*
G37*
G36*
G01*
X53100000Y-139290000D02*
X52680000Y-139290000D01*
G75*
G02*
X52590000Y-139200000I0J90000D01*
G01*
X52590000Y-139020000D01*
G75*
G02*
X52680000Y-138930000I90000J0D01*
G01*
X53100000Y-138930000D01*
G75*
G02*
X53190000Y-139020000I0J-90000D01*
G01*
X53190000Y-139200000D01*
G75*
G02*
X53100000Y-139290000I-90000J0D01*
G01*
G37*
%TD*%
D46*
%TO.C,U8*%
X93235000Y-143885000D03*
X93235000Y-142935000D03*
X93235000Y-144835000D03*
X91035000Y-144835000D03*
X91035000Y-143885000D03*
X91035000Y-142935000D03*
%TD*%
D19*
%TO.C,L4*%
X46586000Y-140097000D03*
X48536000Y-140097000D03*
%TD*%
D47*
%TO.C,L3*%
X47100000Y-124725000D03*
X47100000Y-126675000D03*
%TD*%
D19*
%TO.C,L2*%
X91125000Y-138525000D03*
X93075000Y-138525000D03*
%TD*%
D47*
%TO.C,L1*%
X91600000Y-130215000D03*
X91600000Y-128265000D03*
%TD*%
%TO.C,C37*%
G36*
G01*
X58581250Y-148335000D02*
X58068750Y-148335000D01*
G75*
G02*
X57850000Y-148116250I0J218750D01*
G01*
X57850000Y-147678750D01*
G75*
G02*
X58068750Y-147460000I218750J0D01*
G01*
X58581250Y-147460000D01*
G75*
G02*
X58800000Y-147678750I0J-218750D01*
G01*
X58800000Y-148116250D01*
G75*
G02*
X58581250Y-148335000I-218750J0D01*
G01*
G37*
G36*
G01*
X58581250Y-146760000D02*
X58068750Y-146760000D01*
G75*
G02*
X57850000Y-146541250I0J218750D01*
G01*
X57850000Y-146103750D01*
G75*
G02*
X58068750Y-145885000I218750J0D01*
G01*
X58581250Y-145885000D01*
G75*
G02*
X58800000Y-146103750I0J-218750D01*
G01*
X58800000Y-146541250D01*
G75*
G02*
X58581250Y-146760000I-218750J0D01*
G01*
G37*
%TD*%
%TO.C,C36*%
G36*
G01*
X50906250Y-141320000D02*
X49993750Y-141320000D01*
G75*
G02*
X49750000Y-141076250I0J243750D01*
G01*
X49750000Y-140588750D01*
G75*
G02*
X49993750Y-140345000I243750J0D01*
G01*
X50906250Y-140345000D01*
G75*
G02*
X51150000Y-140588750I0J-243750D01*
G01*
X51150000Y-141076250D01*
G75*
G02*
X50906250Y-141320000I-243750J0D01*
G01*
G37*
G36*
G01*
X50906250Y-139445000D02*
X49993750Y-139445000D01*
G75*
G02*
X49750000Y-139201250I0J243750D01*
G01*
X49750000Y-138713750D01*
G75*
G02*
X49993750Y-138470000I243750J0D01*
G01*
X50906250Y-138470000D01*
G75*
G02*
X51150000Y-138713750I0J-243750D01*
G01*
X51150000Y-139201250D01*
G75*
G02*
X50906250Y-139445000I-243750J0D01*
G01*
G37*
%TD*%
%TO.C,C35*%
G36*
G01*
X48025000Y-137555250D02*
X48025000Y-136642750D01*
G75*
G02*
X48268750Y-136399000I243750J0D01*
G01*
X48756250Y-136399000D01*
G75*
G02*
X49000000Y-136642750I0J-243750D01*
G01*
X49000000Y-137555250D01*
G75*
G02*
X48756250Y-137799000I-243750J0D01*
G01*
X48268750Y-137799000D01*
G75*
G02*
X48025000Y-137555250I0J243750D01*
G01*
G37*
G36*
G01*
X49900000Y-137555250D02*
X49900000Y-136642750D01*
G75*
G02*
X50143750Y-136399000I243750J0D01*
G01*
X50631250Y-136399000D01*
G75*
G02*
X50875000Y-136642750I0J-243750D01*
G01*
X50875000Y-137555250D01*
G75*
G02*
X50631250Y-137799000I-243750J0D01*
G01*
X50143750Y-137799000D01*
G75*
G02*
X49900000Y-137555250I0J243750D01*
G01*
G37*
%TD*%
%TO.C,C34*%
G36*
G01*
X45405000Y-144043750D02*
X45405000Y-144956250D01*
G75*
G02*
X45161250Y-145200000I-243750J0D01*
G01*
X44673750Y-145200000D01*
G75*
G02*
X44430000Y-144956250I0J243750D01*
G01*
X44430000Y-144043750D01*
G75*
G02*
X44673750Y-143800000I243750J0D01*
G01*
X45161250Y-143800000D01*
G75*
G02*
X45405000Y-144043750I0J-243750D01*
G01*
G37*
G36*
G01*
X43530000Y-144043750D02*
X43530000Y-144956250D01*
G75*
G02*
X43286250Y-145200000I-243750J0D01*
G01*
X42798750Y-145200000D01*
G75*
G02*
X42555000Y-144956250I0J243750D01*
G01*
X42555000Y-144043750D01*
G75*
G02*
X42798750Y-143800000I243750J0D01*
G01*
X43286250Y-143800000D01*
G75*
G02*
X43530000Y-144043750I0J-243750D01*
G01*
G37*
%TD*%
%TO.C,C32*%
G36*
G01*
X45405000Y-145953750D02*
X45405000Y-146866250D01*
G75*
G02*
X45161250Y-147110000I-243750J0D01*
G01*
X44673750Y-147110000D01*
G75*
G02*
X44430000Y-146866250I0J243750D01*
G01*
X44430000Y-145953750D01*
G75*
G02*
X44673750Y-145710000I243750J0D01*
G01*
X45161250Y-145710000D01*
G75*
G02*
X45405000Y-145953750I0J-243750D01*
G01*
G37*
G36*
G01*
X43530000Y-145953750D02*
X43530000Y-146866250D01*
G75*
G02*
X43286250Y-147110000I-243750J0D01*
G01*
X42798750Y-147110000D01*
G75*
G02*
X42555000Y-146866250I0J243750D01*
G01*
X42555000Y-145953750D01*
G75*
G02*
X42798750Y-145710000I243750J0D01*
G01*
X43286250Y-145710000D01*
G75*
G02*
X43530000Y-145953750I0J-243750D01*
G01*
G37*
%TD*%
%TO.C,C15*%
G36*
G01*
X89587500Y-126193750D02*
X89587500Y-127106250D01*
G75*
G02*
X89343750Y-127350000I-243750J0D01*
G01*
X88856250Y-127350000D01*
G75*
G02*
X88612500Y-127106250I0J243750D01*
G01*
X88612500Y-126193750D01*
G75*
G02*
X88856250Y-125950000I243750J0D01*
G01*
X89343750Y-125950000D01*
G75*
G02*
X89587500Y-126193750I0J-243750D01*
G01*
G37*
G36*
G01*
X87712500Y-126193750D02*
X87712500Y-127106250D01*
G75*
G02*
X87468750Y-127350000I-243750J0D01*
G01*
X86981250Y-127350000D01*
G75*
G02*
X86737500Y-127106250I0J243750D01*
G01*
X86737500Y-126193750D01*
G75*
G02*
X86981250Y-125950000I243750J0D01*
G01*
X87468750Y-125950000D01*
G75*
G02*
X87712500Y-126193750I0J-243750D01*
G01*
G37*
%TD*%
%TO.C,C14*%
G36*
G01*
X82855000Y-115436250D02*
X82855000Y-114923750D01*
G75*
G02*
X83073750Y-114705000I218750J0D01*
G01*
X83511250Y-114705000D01*
G75*
G02*
X83730000Y-114923750I0J-218750D01*
G01*
X83730000Y-115436250D01*
G75*
G02*
X83511250Y-115655000I-218750J0D01*
G01*
X83073750Y-115655000D01*
G75*
G02*
X82855000Y-115436250I0J218750D01*
G01*
G37*
G36*
G01*
X84430000Y-115436250D02*
X84430000Y-114923750D01*
G75*
G02*
X84648750Y-114705000I218750J0D01*
G01*
X85086250Y-114705000D01*
G75*
G02*
X85305000Y-114923750I0J-218750D01*
G01*
X85305000Y-115436250D01*
G75*
G02*
X85086250Y-115655000I-218750J0D01*
G01*
X84648750Y-115655000D01*
G75*
G02*
X84430000Y-115436250I0J218750D01*
G01*
G37*
%TD*%
%TO.C,C12*%
G36*
G01*
X82855000Y-116896250D02*
X82855000Y-116383750D01*
G75*
G02*
X83073750Y-116165000I218750J0D01*
G01*
X83511250Y-116165000D01*
G75*
G02*
X83730000Y-116383750I0J-218750D01*
G01*
X83730000Y-116896250D01*
G75*
G02*
X83511250Y-117115000I-218750J0D01*
G01*
X83073750Y-117115000D01*
G75*
G02*
X82855000Y-116896250I0J218750D01*
G01*
G37*
G36*
G01*
X84430000Y-116896250D02*
X84430000Y-116383750D01*
G75*
G02*
X84648750Y-116165000I218750J0D01*
G01*
X85086250Y-116165000D01*
G75*
G02*
X85305000Y-116383750I0J-218750D01*
G01*
X85305000Y-116896250D01*
G75*
G02*
X85086250Y-117115000I-218750J0D01*
G01*
X84648750Y-117115000D01*
G75*
G02*
X84430000Y-116896250I0J218750D01*
G01*
G37*
%TD*%
%TO.C,C9*%
G36*
G01*
X90365000Y-132223750D02*
X90365000Y-133136250D01*
G75*
G02*
X90121250Y-133380000I-243750J0D01*
G01*
X89633750Y-133380000D01*
G75*
G02*
X89390000Y-133136250I0J243750D01*
G01*
X89390000Y-132223750D01*
G75*
G02*
X89633750Y-131980000I243750J0D01*
G01*
X90121250Y-131980000D01*
G75*
G02*
X90365000Y-132223750I0J-243750D01*
G01*
G37*
G36*
G01*
X88490000Y-132223750D02*
X88490000Y-133136250D01*
G75*
G02*
X88246250Y-133380000I-243750J0D01*
G01*
X87758750Y-133380000D01*
G75*
G02*
X87515000Y-133136250I0J243750D01*
G01*
X87515000Y-132223750D01*
G75*
G02*
X87758750Y-131980000I243750J0D01*
G01*
X88246250Y-131980000D01*
G75*
G02*
X88490000Y-132223750I0J-243750D01*
G01*
G37*
%TD*%
%TO.C,C5*%
G36*
G01*
X84233750Y-133365000D02*
X84746250Y-133365000D01*
G75*
G02*
X84965000Y-133583750I0J-218750D01*
G01*
X84965000Y-134021250D01*
G75*
G02*
X84746250Y-134240000I-218750J0D01*
G01*
X84233750Y-134240000D01*
G75*
G02*
X84015000Y-134021250I0J218750D01*
G01*
X84015000Y-133583750D01*
G75*
G02*
X84233750Y-133365000I218750J0D01*
G01*
G37*
G36*
G01*
X84233750Y-134940000D02*
X84746250Y-134940000D01*
G75*
G02*
X84965000Y-135158750I0J-218750D01*
G01*
X84965000Y-135596250D01*
G75*
G02*
X84746250Y-135815000I-218750J0D01*
G01*
X84233750Y-135815000D01*
G75*
G02*
X84015000Y-135596250I0J218750D01*
G01*
X84015000Y-135158750D01*
G75*
G02*
X84233750Y-134940000I218750J0D01*
G01*
G37*
%TD*%
%TO.C,C4*%
G36*
G01*
X85693750Y-133365000D02*
X86206250Y-133365000D01*
G75*
G02*
X86425000Y-133583750I0J-218750D01*
G01*
X86425000Y-134021250D01*
G75*
G02*
X86206250Y-134240000I-218750J0D01*
G01*
X85693750Y-134240000D01*
G75*
G02*
X85475000Y-134021250I0J218750D01*
G01*
X85475000Y-133583750D01*
G75*
G02*
X85693750Y-133365000I218750J0D01*
G01*
G37*
G36*
G01*
X85693750Y-134940000D02*
X86206250Y-134940000D01*
G75*
G02*
X86425000Y-135158750I0J-218750D01*
G01*
X86425000Y-135596250D01*
G75*
G02*
X86206250Y-135815000I-218750J0D01*
G01*
X85693750Y-135815000D01*
G75*
G02*
X85475000Y-135596250I0J218750D01*
G01*
X85475000Y-135158750D01*
G75*
G02*
X85693750Y-134940000I218750J0D01*
G01*
G37*
%TD*%
D48*
%TO.C,U11*%
X63850000Y-91050000D03*
X63850000Y-92200000D03*
X63850000Y-93200000D03*
X63850000Y-94200000D03*
X63850000Y-95200000D03*
X63850000Y-96200000D03*
X63850000Y-97200000D03*
X63850000Y-98200000D03*
X63850000Y-99200000D03*
X63850000Y-100200000D03*
X63850000Y-101200000D03*
X63850000Y-102200000D03*
D49*
X66650000Y-103950000D03*
X67650000Y-103950000D03*
X68650000Y-103950000D03*
X69650000Y-103950000D03*
X70650000Y-103950000D03*
D48*
X73450000Y-102200000D03*
X73450000Y-101200000D03*
X73450000Y-100200000D03*
X73450000Y-99200000D03*
X73450000Y-98200000D03*
X73450000Y-97200000D03*
X73450000Y-96200000D03*
X73450000Y-95200000D03*
X73450000Y-94200000D03*
X73450000Y-93200000D03*
X73450000Y-92200000D03*
X73450000Y-91050000D03*
X63850000Y-103200000D03*
X73450000Y-103200000D03*
%TD*%
%TO.C,C20*%
G36*
G01*
X67137500Y-157253750D02*
X67137500Y-157766250D01*
G75*
G02*
X66918750Y-157985000I-218750J0D01*
G01*
X66481250Y-157985000D01*
G75*
G02*
X66262500Y-157766250I0J218750D01*
G01*
X66262500Y-157253750D01*
G75*
G02*
X66481250Y-157035000I218750J0D01*
G01*
X66918750Y-157035000D01*
G75*
G02*
X67137500Y-157253750I0J-218750D01*
G01*
G37*
G36*
G01*
X65562500Y-157253750D02*
X65562500Y-157766250D01*
G75*
G02*
X65343750Y-157985000I-218750J0D01*
G01*
X64906250Y-157985000D01*
G75*
G02*
X64687500Y-157766250I0J218750D01*
G01*
X64687500Y-157253750D01*
G75*
G02*
X64906250Y-157035000I218750J0D01*
G01*
X65343750Y-157035000D01*
G75*
G02*
X65562500Y-157253750I0J-218750D01*
G01*
G37*
%TD*%
%TO.C,C13*%
G36*
G01*
X51045000Y-125150250D02*
X51045000Y-124237750D01*
G75*
G02*
X51288750Y-123994000I243750J0D01*
G01*
X51776250Y-123994000D01*
G75*
G02*
X52020000Y-124237750I0J-243750D01*
G01*
X52020000Y-125150250D01*
G75*
G02*
X51776250Y-125394000I-243750J0D01*
G01*
X51288750Y-125394000D01*
G75*
G02*
X51045000Y-125150250I0J243750D01*
G01*
G37*
G36*
G01*
X49170000Y-125150250D02*
X49170000Y-124237750D01*
G75*
G02*
X49413750Y-123994000I243750J0D01*
G01*
X49901250Y-123994000D01*
G75*
G02*
X50145000Y-124237750I0J-243750D01*
G01*
X50145000Y-125150250D01*
G75*
G02*
X49901250Y-125394000I-243750J0D01*
G01*
X49413750Y-125394000D01*
G75*
G02*
X49170000Y-125150250I0J243750D01*
G01*
G37*
%TD*%
%TO.C,C7*%
G36*
G01*
X51170000Y-131250250D02*
X51170000Y-130337750D01*
G75*
G02*
X51413750Y-130094000I243750J0D01*
G01*
X51901250Y-130094000D01*
G75*
G02*
X52145000Y-130337750I0J-243750D01*
G01*
X52145000Y-131250250D01*
G75*
G02*
X51901250Y-131494000I-243750J0D01*
G01*
X51413750Y-131494000D01*
G75*
G02*
X51170000Y-131250250I0J243750D01*
G01*
G37*
G36*
G01*
X49295000Y-131250250D02*
X49295000Y-130337750D01*
G75*
G02*
X49538750Y-130094000I243750J0D01*
G01*
X50026250Y-130094000D01*
G75*
G02*
X50270000Y-130337750I0J-243750D01*
G01*
X50270000Y-131250250D01*
G75*
G02*
X50026250Y-131494000I-243750J0D01*
G01*
X49538750Y-131494000D01*
G75*
G02*
X49295000Y-131250250I0J243750D01*
G01*
G37*
%TD*%
D50*
%TO.C,U4*%
X51645000Y-128919000D03*
X49745000Y-128919000D03*
X49745000Y-126719000D03*
X50695000Y-126719000D03*
X51645000Y-126719000D03*
%TD*%
D51*
%TO.C,U2*%
X76605000Y-140940000D03*
X76605000Y-139940000D03*
X76605000Y-138940000D03*
X76605000Y-137940000D03*
X75605000Y-141940000D03*
X75605000Y-140940000D03*
X75605000Y-139940000D03*
X75605000Y-138940000D03*
X75605000Y-137940000D03*
X74605000Y-141940000D03*
X74605000Y-140940000D03*
X74605000Y-139940000D03*
X74605000Y-138940000D03*
X74605000Y-137940000D03*
X73605000Y-141940000D03*
X73605000Y-140940000D03*
X73605000Y-139940000D03*
X73605000Y-138940000D03*
X73605000Y-137940000D03*
X72605000Y-141940000D03*
X72605000Y-140940000D03*
X72605000Y-139940000D03*
X72605000Y-138940000D03*
X72605000Y-137940000D03*
%TD*%
D52*
%TO.C,RN4*%
X82450000Y-158475000D03*
X83450000Y-158475000D03*
X82950000Y-158475000D03*
X83950000Y-158475000D03*
X82950000Y-157475000D03*
X82450000Y-157475000D03*
X83450000Y-157475000D03*
X83950000Y-157475000D03*
%TD*%
%TO.C,RN3*%
X77950000Y-158475000D03*
X78950000Y-158475000D03*
X78450000Y-158475000D03*
X79450000Y-158475000D03*
X78450000Y-157475000D03*
X77950000Y-157475000D03*
X78950000Y-157475000D03*
X79450000Y-157475000D03*
%TD*%
%TO.C,RN2*%
X73950000Y-158500000D03*
X74950000Y-158500000D03*
X74450000Y-158500000D03*
X75450000Y-158500000D03*
X74450000Y-157500000D03*
X73950000Y-157500000D03*
X74950000Y-157500000D03*
X75450000Y-157500000D03*
%TD*%
%TO.C,RN1*%
X69950000Y-158500000D03*
X70950000Y-158500000D03*
X70450000Y-158500000D03*
X71450000Y-158500000D03*
X70450000Y-157500000D03*
X69950000Y-157500000D03*
X70950000Y-157500000D03*
X71450000Y-157500000D03*
%TD*%
%TO.C,D7*%
G36*
G01*
X36079000Y-152596250D02*
X36079000Y-151683750D01*
G75*
G02*
X36322750Y-151440000I243750J0D01*
G01*
X36810250Y-151440000D01*
G75*
G02*
X37054000Y-151683750I0J-243750D01*
G01*
X37054000Y-152596250D01*
G75*
G02*
X36810250Y-152840000I-243750J0D01*
G01*
X36322750Y-152840000D01*
G75*
G02*
X36079000Y-152596250I0J243750D01*
G01*
G37*
G36*
G01*
X37954000Y-152596250D02*
X37954000Y-151683750D01*
G75*
G02*
X38197750Y-151440000I243750J0D01*
G01*
X38685250Y-151440000D01*
G75*
G02*
X38929000Y-151683750I0J-243750D01*
G01*
X38929000Y-152596250D01*
G75*
G02*
X38685250Y-152840000I-243750J0D01*
G01*
X38197750Y-152840000D01*
G75*
G02*
X37954000Y-152596250I0J243750D01*
G01*
G37*
%TD*%
%TO.C,D4*%
G36*
G01*
X36069000Y-156696250D02*
X36069000Y-155783750D01*
G75*
G02*
X36312750Y-155540000I243750J0D01*
G01*
X36800250Y-155540000D01*
G75*
G02*
X37044000Y-155783750I0J-243750D01*
G01*
X37044000Y-156696250D01*
G75*
G02*
X36800250Y-156940000I-243750J0D01*
G01*
X36312750Y-156940000D01*
G75*
G02*
X36069000Y-156696250I0J243750D01*
G01*
G37*
G36*
G01*
X37944000Y-156696250D02*
X37944000Y-155783750D01*
G75*
G02*
X38187750Y-155540000I243750J0D01*
G01*
X38675250Y-155540000D01*
G75*
G02*
X38919000Y-155783750I0J-243750D01*
G01*
X38919000Y-156696250D01*
G75*
G02*
X38675250Y-156940000I-243750J0D01*
G01*
X38187750Y-156940000D01*
G75*
G02*
X37944000Y-156696250I0J243750D01*
G01*
G37*
%TD*%
%TO.C,D1*%
G36*
G01*
X36079000Y-115456250D02*
X36079000Y-114543750D01*
G75*
G02*
X36322750Y-114300000I243750J0D01*
G01*
X36810250Y-114300000D01*
G75*
G02*
X37054000Y-114543750I0J-243750D01*
G01*
X37054000Y-115456250D01*
G75*
G02*
X36810250Y-115700000I-243750J0D01*
G01*
X36322750Y-115700000D01*
G75*
G02*
X36079000Y-115456250I0J243750D01*
G01*
G37*
G36*
G01*
X37954000Y-115456250D02*
X37954000Y-114543750D01*
G75*
G02*
X38197750Y-114300000I243750J0D01*
G01*
X38685250Y-114300000D01*
G75*
G02*
X38929000Y-114543750I0J-243750D01*
G01*
X38929000Y-115456250D01*
G75*
G02*
X38685250Y-115700000I-243750J0D01*
G01*
X38197750Y-115700000D01*
G75*
G02*
X37954000Y-115456250I0J243750D01*
G01*
G37*
%TD*%
%TO.C,C52*%
G36*
G01*
X62050000Y-148641250D02*
X62050000Y-148128750D01*
G75*
G02*
X62268750Y-147910000I218750J0D01*
G01*
X62706250Y-147910000D01*
G75*
G02*
X62925000Y-148128750I0J-218750D01*
G01*
X62925000Y-148641250D01*
G75*
G02*
X62706250Y-148860000I-218750J0D01*
G01*
X62268750Y-148860000D01*
G75*
G02*
X62050000Y-148641250I0J218750D01*
G01*
G37*
G36*
G01*
X63625000Y-148641250D02*
X63625000Y-148128750D01*
G75*
G02*
X63843750Y-147910000I218750J0D01*
G01*
X64281250Y-147910000D01*
G75*
G02*
X64500000Y-148128750I0J-218750D01*
G01*
X64500000Y-148641250D01*
G75*
G02*
X64281250Y-148860000I-218750J0D01*
G01*
X63843750Y-148860000D01*
G75*
G02*
X63625000Y-148641250I0J218750D01*
G01*
G37*
%TD*%
%TO.C,C27*%
G36*
G01*
X46925000Y-147973750D02*
X46925000Y-148486250D01*
G75*
G02*
X46706250Y-148705000I-218750J0D01*
G01*
X46268750Y-148705000D01*
G75*
G02*
X46050000Y-148486250I0J218750D01*
G01*
X46050000Y-147973750D01*
G75*
G02*
X46268750Y-147755000I218750J0D01*
G01*
X46706250Y-147755000D01*
G75*
G02*
X46925000Y-147973750I0J-218750D01*
G01*
G37*
G36*
G01*
X45350000Y-147973750D02*
X45350000Y-148486250D01*
G75*
G02*
X45131250Y-148705000I-218750J0D01*
G01*
X44693750Y-148705000D01*
G75*
G02*
X44475000Y-148486250I0J218750D01*
G01*
X44475000Y-147973750D01*
G75*
G02*
X44693750Y-147755000I218750J0D01*
G01*
X45131250Y-147755000D01*
G75*
G02*
X45350000Y-147973750I0J-218750D01*
G01*
G37*
%TD*%
%TO.C,C10*%
G36*
G01*
X57950000Y-124508750D02*
X57950000Y-125021250D01*
G75*
G02*
X57731250Y-125240000I-218750J0D01*
G01*
X57293750Y-125240000D01*
G75*
G02*
X57075000Y-125021250I0J218750D01*
G01*
X57075000Y-124508750D01*
G75*
G02*
X57293750Y-124290000I218750J0D01*
G01*
X57731250Y-124290000D01*
G75*
G02*
X57950000Y-124508750I0J-218750D01*
G01*
G37*
G36*
G01*
X56375000Y-124508750D02*
X56375000Y-125021250D01*
G75*
G02*
X56156250Y-125240000I-218750J0D01*
G01*
X55718750Y-125240000D01*
G75*
G02*
X55500000Y-125021250I0J218750D01*
G01*
X55500000Y-124508750D01*
G75*
G02*
X55718750Y-124290000I218750J0D01*
G01*
X56156250Y-124290000D01*
G75*
G02*
X56375000Y-124508750I0J-218750D01*
G01*
G37*
%TD*%
M02*
