%TF.GenerationSoftware,KiCad,Pcbnew,5.1.8+dfsg1-1~bpo10+1*%
%TF.CreationDate,2021-01-23T23:31:27+00:00*%
%TF.ProjectId,atlas,61746c61-732e-46b6-9963-61645f706362,rev?*%
%TF.SameCoordinates,Original*%
%TF.FileFunction,Soldermask,Bot*%
%TF.FilePolarity,Negative*%
%FSLAX46Y46*%
G04 Gerber Fmt 4.6, Leading zero omitted, Abs format (unit mm)*
G04 Created by KiCad (PCBNEW 5.1.8+dfsg1-1~bpo10+1) date 2021-01-23 23:31:27*
%MOMM*%
%LPD*%
G01*
G04 APERTURE LIST*
%ADD10O,0.900000X0.900000*%
%ADD11C,2.250000*%
%ADD12O,1.450000X0.850000*%
%ADD13O,0.700000X1.000000*%
%ADD14C,0.700000*%
%ADD15O,2.200000X0.750000*%
%ADD16O,0.750000X2.200000*%
G04 APERTURE END LIST*
%TO.C,C28*%
G36*
G01*
X211335000Y-112705000D02*
X211705000Y-112705000D01*
G75*
G02*
X211865000Y-112865000I0J-160000D01*
G01*
X211865000Y-113185000D01*
G75*
G02*
X211705000Y-113345000I-160000J0D01*
G01*
X211335000Y-113345000D01*
G75*
G02*
X211175000Y-113185000I0J160000D01*
G01*
X211175000Y-112865000D01*
G75*
G02*
X211335000Y-112705000I160000J0D01*
G01*
G37*
G36*
G01*
X211335000Y-111735000D02*
X211705000Y-111735000D01*
G75*
G02*
X211865000Y-111895000I0J-160000D01*
G01*
X211865000Y-112215000D01*
G75*
G02*
X211705000Y-112375000I-160000J0D01*
G01*
X211335000Y-112375000D01*
G75*
G02*
X211175000Y-112215000I0J160000D01*
G01*
X211175000Y-111895000D01*
G75*
G02*
X211335000Y-111735000I160000J0D01*
G01*
G37*
%TD*%
%TO.C,C20*%
G36*
G01*
X206410440Y-107510090D02*
X206410440Y-106972590D01*
G75*
G02*
X206641690Y-106741340I231250J0D01*
G01*
X207104190Y-106741340D01*
G75*
G02*
X207335440Y-106972590I0J-231250D01*
G01*
X207335440Y-107510090D01*
G75*
G02*
X207104190Y-107741340I-231250J0D01*
G01*
X206641690Y-107741340D01*
G75*
G02*
X206410440Y-107510090I0J231250D01*
G01*
G37*
G36*
G01*
X204835440Y-107510090D02*
X204835440Y-106972590D01*
G75*
G02*
X205066690Y-106741340I231250J0D01*
G01*
X205529190Y-106741340D01*
G75*
G02*
X205760440Y-106972590I0J-231250D01*
G01*
X205760440Y-107510090D01*
G75*
G02*
X205529190Y-107741340I-231250J0D01*
G01*
X205066690Y-107741340D01*
G75*
G02*
X204835440Y-107510090I0J231250D01*
G01*
G37*
%TD*%
D10*
%TO.C,J7*%
X195600000Y-122834400D03*
G36*
G01*
X196175000Y-122384400D02*
X197025000Y-122384400D01*
G75*
G02*
X197050000Y-122409400I0J-25000D01*
G01*
X197050000Y-123259400D01*
G75*
G02*
X197025000Y-123284400I-25000J0D01*
G01*
X196175000Y-123284400D01*
G75*
G02*
X196150000Y-123259400I0J25000D01*
G01*
X196150000Y-122409400D01*
G75*
G02*
X196175000Y-122384400I25000J0D01*
G01*
G37*
%TD*%
D11*
%TO.C,REF\u002A\u002A*%
X214000000Y-138750000D03*
%TD*%
%TO.C,REF\u002A\u002A*%
X214000000Y-87750000D03*
%TD*%
%TO.C,J13*%
G36*
G01*
X178150000Y-103525000D02*
X175950000Y-103525000D01*
G75*
G02*
X175925000Y-103500000I0J25000D01*
G01*
X175925000Y-101700000D01*
G75*
G02*
X175950000Y-101675000I25000J0D01*
G01*
X178150000Y-101675000D01*
G75*
G02*
X178175000Y-101700000I0J-25000D01*
G01*
X178175000Y-103500000D01*
G75*
G02*
X178150000Y-103525000I-25000J0D01*
G01*
G37*
G36*
G01*
X178150000Y-111825000D02*
X175950000Y-111825000D01*
G75*
G02*
X175925000Y-111800000I0J25000D01*
G01*
X175925000Y-110000000D01*
G75*
G02*
X175950000Y-109975000I25000J0D01*
G01*
X178150000Y-109975000D01*
G75*
G02*
X178175000Y-110000000I0J-25000D01*
G01*
X178175000Y-111800000D01*
G75*
G02*
X178150000Y-111825000I-25000J0D01*
G01*
G37*
G36*
G01*
X180950000Y-109175000D02*
X179650000Y-109175000D01*
G75*
G02*
X179625000Y-109150000I0J25000D01*
G01*
X179625000Y-108850000D01*
G75*
G02*
X179650000Y-108825000I25000J0D01*
G01*
X180950000Y-108825000D01*
G75*
G02*
X180975000Y-108850000I0J-25000D01*
G01*
X180975000Y-109150000D01*
G75*
G02*
X180950000Y-109175000I-25000J0D01*
G01*
G37*
G36*
G01*
X180950000Y-108675000D02*
X179650000Y-108675000D01*
G75*
G02*
X179625000Y-108650000I0J25000D01*
G01*
X179625000Y-108350000D01*
G75*
G02*
X179650000Y-108325000I25000J0D01*
G01*
X180950000Y-108325000D01*
G75*
G02*
X180975000Y-108350000I0J-25000D01*
G01*
X180975000Y-108650000D01*
G75*
G02*
X180950000Y-108675000I-25000J0D01*
G01*
G37*
G36*
G01*
X180950000Y-108175000D02*
X179650000Y-108175000D01*
G75*
G02*
X179625000Y-108150000I0J25000D01*
G01*
X179625000Y-107850000D01*
G75*
G02*
X179650000Y-107825000I25000J0D01*
G01*
X180950000Y-107825000D01*
G75*
G02*
X180975000Y-107850000I0J-25000D01*
G01*
X180975000Y-108150000D01*
G75*
G02*
X180950000Y-108175000I-25000J0D01*
G01*
G37*
G36*
G01*
X180950000Y-107675000D02*
X179650000Y-107675000D01*
G75*
G02*
X179625000Y-107650000I0J25000D01*
G01*
X179625000Y-107350000D01*
G75*
G02*
X179650000Y-107325000I25000J0D01*
G01*
X180950000Y-107325000D01*
G75*
G02*
X180975000Y-107350000I0J-25000D01*
G01*
X180975000Y-107650000D01*
G75*
G02*
X180950000Y-107675000I-25000J0D01*
G01*
G37*
G36*
G01*
X180950000Y-107175000D02*
X179650000Y-107175000D01*
G75*
G02*
X179625000Y-107150000I0J25000D01*
G01*
X179625000Y-106850000D01*
G75*
G02*
X179650000Y-106825000I25000J0D01*
G01*
X180950000Y-106825000D01*
G75*
G02*
X180975000Y-106850000I0J-25000D01*
G01*
X180975000Y-107150000D01*
G75*
G02*
X180950000Y-107175000I-25000J0D01*
G01*
G37*
G36*
G01*
X180950000Y-106675000D02*
X179650000Y-106675000D01*
G75*
G02*
X179625000Y-106650000I0J25000D01*
G01*
X179625000Y-106350000D01*
G75*
G02*
X179650000Y-106325000I25000J0D01*
G01*
X180950000Y-106325000D01*
G75*
G02*
X180975000Y-106350000I0J-25000D01*
G01*
X180975000Y-106650000D01*
G75*
G02*
X180950000Y-106675000I-25000J0D01*
G01*
G37*
G36*
G01*
X180950000Y-106175000D02*
X179650000Y-106175000D01*
G75*
G02*
X179625000Y-106150000I0J25000D01*
G01*
X179625000Y-105850000D01*
G75*
G02*
X179650000Y-105825000I25000J0D01*
G01*
X180950000Y-105825000D01*
G75*
G02*
X180975000Y-105850000I0J-25000D01*
G01*
X180975000Y-106150000D01*
G75*
G02*
X180950000Y-106175000I-25000J0D01*
G01*
G37*
G36*
G01*
X180950000Y-105675000D02*
X179650000Y-105675000D01*
G75*
G02*
X179625000Y-105650000I0J25000D01*
G01*
X179625000Y-105350000D01*
G75*
G02*
X179650000Y-105325000I25000J0D01*
G01*
X180950000Y-105325000D01*
G75*
G02*
X180975000Y-105350000I0J-25000D01*
G01*
X180975000Y-105650000D01*
G75*
G02*
X180950000Y-105675000I-25000J0D01*
G01*
G37*
G36*
G01*
X180950000Y-105175000D02*
X179650000Y-105175000D01*
G75*
G02*
X179625000Y-105150000I0J25000D01*
G01*
X179625000Y-104850000D01*
G75*
G02*
X179650000Y-104825000I25000J0D01*
G01*
X180950000Y-104825000D01*
G75*
G02*
X180975000Y-104850000I0J-25000D01*
G01*
X180975000Y-105150000D01*
G75*
G02*
X180950000Y-105175000I-25000J0D01*
G01*
G37*
G36*
G01*
X180950000Y-104675000D02*
X179650000Y-104675000D01*
G75*
G02*
X179625000Y-104650000I0J25000D01*
G01*
X179625000Y-104350000D01*
G75*
G02*
X179650000Y-104325000I25000J0D01*
G01*
X180950000Y-104325000D01*
G75*
G02*
X180975000Y-104350000I0J-25000D01*
G01*
X180975000Y-104650000D01*
G75*
G02*
X180950000Y-104675000I-25000J0D01*
G01*
G37*
%TD*%
%TO.C,C18*%
G36*
G01*
X187865000Y-132985000D02*
X187865000Y-132615000D01*
G75*
G02*
X188025000Y-132455000I160000J0D01*
G01*
X188345000Y-132455000D01*
G75*
G02*
X188505000Y-132615000I0J-160000D01*
G01*
X188505000Y-132985000D01*
G75*
G02*
X188345000Y-133145000I-160000J0D01*
G01*
X188025000Y-133145000D01*
G75*
G02*
X187865000Y-132985000I0J160000D01*
G01*
G37*
G36*
G01*
X186895000Y-132985000D02*
X186895000Y-132615000D01*
G75*
G02*
X187055000Y-132455000I160000J0D01*
G01*
X187375000Y-132455000D01*
G75*
G02*
X187535000Y-132615000I0J-160000D01*
G01*
X187535000Y-132985000D01*
G75*
G02*
X187375000Y-133145000I-160000J0D01*
G01*
X187055000Y-133145000D01*
G75*
G02*
X186895000Y-132985000I0J160000D01*
G01*
G37*
%TD*%
%TO.C,R31*%
G36*
G01*
X202220000Y-125035000D02*
X202220000Y-124665000D01*
G75*
G02*
X202380000Y-124505000I160000J0D01*
G01*
X202700000Y-124505000D01*
G75*
G02*
X202860000Y-124665000I0J-160000D01*
G01*
X202860000Y-125035000D01*
G75*
G02*
X202700000Y-125195000I-160000J0D01*
G01*
X202380000Y-125195000D01*
G75*
G02*
X202220000Y-125035000I0J160000D01*
G01*
G37*
G36*
G01*
X203190000Y-125035000D02*
X203190000Y-124665000D01*
G75*
G02*
X203350000Y-124505000I160000J0D01*
G01*
X203670000Y-124505000D01*
G75*
G02*
X203830000Y-124665000I0J-160000D01*
G01*
X203830000Y-125035000D01*
G75*
G02*
X203670000Y-125195000I-160000J0D01*
G01*
X203350000Y-125195000D01*
G75*
G02*
X203190000Y-125035000I0J160000D01*
G01*
G37*
%TD*%
%TO.C,D6*%
G36*
G01*
X210350000Y-117300000D02*
X210350000Y-116300000D01*
G75*
G02*
X210375000Y-116275000I25000J0D01*
G01*
X211175000Y-116275000D01*
G75*
G02*
X211200000Y-116300000I0J-25000D01*
G01*
X211200000Y-117300000D01*
G75*
G02*
X211175000Y-117325000I-25000J0D01*
G01*
X210375000Y-117325000D01*
G75*
G02*
X210350000Y-117300000I0J25000D01*
G01*
G37*
G36*
G01*
X208450000Y-117300000D02*
X208450000Y-116300000D01*
G75*
G02*
X208475000Y-116275000I25000J0D01*
G01*
X209275000Y-116275000D01*
G75*
G02*
X209300000Y-116300000I0J-25000D01*
G01*
X209300000Y-117300000D01*
G75*
G02*
X209275000Y-117325000I-25000J0D01*
G01*
X208475000Y-117325000D01*
G75*
G02*
X208450000Y-117300000I0J25000D01*
G01*
G37*
%TD*%
%TO.C,R20*%
G36*
G01*
X204807250Y-116066000D02*
X205344750Y-116066000D01*
G75*
G02*
X205576000Y-116297250I0J-231250D01*
G01*
X205576000Y-116759750D01*
G75*
G02*
X205344750Y-116991000I-231250J0D01*
G01*
X204807250Y-116991000D01*
G75*
G02*
X204576000Y-116759750I0J231250D01*
G01*
X204576000Y-116297250D01*
G75*
G02*
X204807250Y-116066000I231250J0D01*
G01*
G37*
G36*
G01*
X204807250Y-114491000D02*
X205344750Y-114491000D01*
G75*
G02*
X205576000Y-114722250I0J-231250D01*
G01*
X205576000Y-115184750D01*
G75*
G02*
X205344750Y-115416000I-231250J0D01*
G01*
X204807250Y-115416000D01*
G75*
G02*
X204576000Y-115184750I0J231250D01*
G01*
X204576000Y-114722250D01*
G75*
G02*
X204807250Y-114491000I231250J0D01*
G01*
G37*
%TD*%
%TO.C,REF\u002A\u002A*%
X178050000Y-87750000D03*
%TD*%
%TO.C,REF\u002A\u002A*%
X178050000Y-138750000D03*
%TD*%
%TO.C,L10*%
G36*
G01*
X211200000Y-119025000D02*
X208500000Y-119025000D01*
G75*
G02*
X208475000Y-119000000I0J25000D01*
G01*
X208475000Y-118200000D01*
G75*
G02*
X208500000Y-118175000I25000J0D01*
G01*
X211200000Y-118175000D01*
G75*
G02*
X211225000Y-118200000I0J-25000D01*
G01*
X211225000Y-119000000D01*
G75*
G02*
X211200000Y-119025000I-25000J0D01*
G01*
G37*
G36*
G01*
X211200000Y-121225000D02*
X208500000Y-121225000D01*
G75*
G02*
X208475000Y-121200000I0J25000D01*
G01*
X208475000Y-120400000D01*
G75*
G02*
X208500000Y-120375000I25000J0D01*
G01*
X211200000Y-120375000D01*
G75*
G02*
X211225000Y-120400000I0J-25000D01*
G01*
X211225000Y-121200000D01*
G75*
G02*
X211200000Y-121225000I-25000J0D01*
G01*
G37*
%TD*%
%TO.C,Q2*%
G36*
G01*
X201600000Y-119875000D02*
X201600000Y-120675000D01*
G75*
G02*
X201575000Y-120700000I-25000J0D01*
G01*
X200675000Y-120700000D01*
G75*
G02*
X200650000Y-120675000I0J25000D01*
G01*
X200650000Y-119875000D01*
G75*
G02*
X200675000Y-119850000I25000J0D01*
G01*
X201575000Y-119850000D01*
G75*
G02*
X201600000Y-119875000I0J-25000D01*
G01*
G37*
G36*
G01*
X203600000Y-120825000D02*
X203600000Y-121625000D01*
G75*
G02*
X203575000Y-121650000I-25000J0D01*
G01*
X202675000Y-121650000D01*
G75*
G02*
X202650000Y-121625000I0J25000D01*
G01*
X202650000Y-120825000D01*
G75*
G02*
X202675000Y-120800000I25000J0D01*
G01*
X203575000Y-120800000D01*
G75*
G02*
X203600000Y-120825000I0J-25000D01*
G01*
G37*
G36*
G01*
X203600000Y-118925000D02*
X203600000Y-119725000D01*
G75*
G02*
X203575000Y-119750000I-25000J0D01*
G01*
X202675000Y-119750000D01*
G75*
G02*
X202650000Y-119725000I0J25000D01*
G01*
X202650000Y-118925000D01*
G75*
G02*
X202675000Y-118900000I25000J0D01*
G01*
X203575000Y-118900000D01*
G75*
G02*
X203600000Y-118925000I0J-25000D01*
G01*
G37*
%TD*%
D10*
%TO.C,J4*%
X214901780Y-106990000D03*
X214901780Y-105990000D03*
G36*
G01*
X214451780Y-105415000D02*
X214451780Y-104565000D01*
G75*
G02*
X214476780Y-104540000I25000J0D01*
G01*
X215326780Y-104540000D01*
G75*
G02*
X215351780Y-104565000I0J-25000D01*
G01*
X215351780Y-105415000D01*
G75*
G02*
X215326780Y-105440000I-25000J0D01*
G01*
X214476780Y-105440000D01*
G75*
G02*
X214451780Y-105415000I0J25000D01*
G01*
G37*
%TD*%
%TO.C,R44*%
G36*
G01*
X212365000Y-114185000D02*
X212365000Y-113815000D01*
G75*
G02*
X212525000Y-113655000I160000J0D01*
G01*
X212845000Y-113655000D01*
G75*
G02*
X213005000Y-113815000I0J-160000D01*
G01*
X213005000Y-114185000D01*
G75*
G02*
X212845000Y-114345000I-160000J0D01*
G01*
X212525000Y-114345000D01*
G75*
G02*
X212365000Y-114185000I0J160000D01*
G01*
G37*
G36*
G01*
X211395000Y-114185000D02*
X211395000Y-113815000D01*
G75*
G02*
X211555000Y-113655000I160000J0D01*
G01*
X211875000Y-113655000D01*
G75*
G02*
X212035000Y-113815000I0J-160000D01*
G01*
X212035000Y-114185000D01*
G75*
G02*
X211875000Y-114345000I-160000J0D01*
G01*
X211555000Y-114345000D01*
G75*
G02*
X211395000Y-114185000I0J160000D01*
G01*
G37*
%TD*%
%TO.C,Y4*%
G36*
G01*
X185118718Y-104708490D02*
X186391510Y-105981282D01*
G75*
G02*
X186391510Y-106016638I-17678J-17678D01*
G01*
X185684404Y-106723744D01*
G75*
G02*
X185649048Y-106723744I-17678J17678D01*
G01*
X184376256Y-105450952D01*
G75*
G02*
X184376256Y-105415596I17678J17678D01*
G01*
X185083362Y-104708490D01*
G75*
G02*
X185118718Y-104708490I17678J-17678D01*
G01*
G37*
G36*
G01*
X183350952Y-106476256D02*
X184623744Y-107749048D01*
G75*
G02*
X184623744Y-107784404I-17678J-17678D01*
G01*
X183916638Y-108491510D01*
G75*
G02*
X183881282Y-108491510I-17678J17678D01*
G01*
X182608490Y-107218718D01*
G75*
G02*
X182608490Y-107183362I17678J17678D01*
G01*
X183315596Y-106476256D01*
G75*
G02*
X183350952Y-106476256I17678J-17678D01*
G01*
G37*
%TD*%
%TO.C,J5*%
G36*
G01*
X213421780Y-122199820D02*
X212571780Y-122199820D01*
G75*
G02*
X212546780Y-122174820I0J25000D01*
G01*
X212546780Y-121324820D01*
G75*
G02*
X212571780Y-121299820I25000J0D01*
G01*
X213421780Y-121299820D01*
G75*
G02*
X213446780Y-121324820I0J-25000D01*
G01*
X213446780Y-122174820D01*
G75*
G02*
X213421780Y-122199820I-25000J0D01*
G01*
G37*
X213996780Y-121749820D03*
X214996780Y-121749820D03*
%TD*%
D12*
%TO.C,J1*%
X210090000Y-135030000D03*
X210090000Y-126770000D03*
X216040000Y-126410000D03*
X216040000Y-135390000D03*
D13*
X208840000Y-127300000D03*
D14*
X208840000Y-134500000D03*
X209490000Y-128100000D03*
X209490000Y-129700000D03*
X209490000Y-130500000D03*
X209490000Y-131300000D03*
X209490000Y-132100000D03*
X209490000Y-133700000D03*
X210190000Y-128500000D03*
X210190000Y-129300000D03*
X210190000Y-130100000D03*
X210190000Y-131700000D03*
X210190000Y-132500000D03*
X210190000Y-133300000D03*
%TD*%
%TO.C,J10*%
G36*
G01*
X203350000Y-88725000D02*
X202050000Y-88725000D01*
G75*
G02*
X202025000Y-88700000I0J25000D01*
G01*
X202025000Y-88400000D01*
G75*
G02*
X202050000Y-88375000I25000J0D01*
G01*
X203350000Y-88375000D01*
G75*
G02*
X203375000Y-88400000I0J-25000D01*
G01*
X203375000Y-88700000D01*
G75*
G02*
X203350000Y-88725000I-25000J0D01*
G01*
G37*
G36*
G01*
X203350000Y-89225000D02*
X202050000Y-89225000D01*
G75*
G02*
X202025000Y-89200000I0J25000D01*
G01*
X202025000Y-88900000D01*
G75*
G02*
X202050000Y-88875000I25000J0D01*
G01*
X203350000Y-88875000D01*
G75*
G02*
X203375000Y-88900000I0J-25000D01*
G01*
X203375000Y-89200000D01*
G75*
G02*
X203350000Y-89225000I-25000J0D01*
G01*
G37*
G36*
G01*
X203350000Y-89725000D02*
X202050000Y-89725000D01*
G75*
G02*
X202025000Y-89700000I0J25000D01*
G01*
X202025000Y-89400000D01*
G75*
G02*
X202050000Y-89375000I25000J0D01*
G01*
X203350000Y-89375000D01*
G75*
G02*
X203375000Y-89400000I0J-25000D01*
G01*
X203375000Y-89700000D01*
G75*
G02*
X203350000Y-89725000I-25000J0D01*
G01*
G37*
G36*
G01*
X203350000Y-90225000D02*
X202050000Y-90225000D01*
G75*
G02*
X202025000Y-90200000I0J25000D01*
G01*
X202025000Y-89900000D01*
G75*
G02*
X202050000Y-89875000I25000J0D01*
G01*
X203350000Y-89875000D01*
G75*
G02*
X203375000Y-89900000I0J-25000D01*
G01*
X203375000Y-90200000D01*
G75*
G02*
X203350000Y-90225000I-25000J0D01*
G01*
G37*
G36*
G01*
X203350000Y-90725000D02*
X202050000Y-90725000D01*
G75*
G02*
X202025000Y-90700000I0J25000D01*
G01*
X202025000Y-90400000D01*
G75*
G02*
X202050000Y-90375000I25000J0D01*
G01*
X203350000Y-90375000D01*
G75*
G02*
X203375000Y-90400000I0J-25000D01*
G01*
X203375000Y-90700000D01*
G75*
G02*
X203350000Y-90725000I-25000J0D01*
G01*
G37*
G36*
G01*
X203350000Y-91225000D02*
X202050000Y-91225000D01*
G75*
G02*
X202025000Y-91200000I0J25000D01*
G01*
X202025000Y-90900000D01*
G75*
G02*
X202050000Y-90875000I25000J0D01*
G01*
X203350000Y-90875000D01*
G75*
G02*
X203375000Y-90900000I0J-25000D01*
G01*
X203375000Y-91200000D01*
G75*
G02*
X203350000Y-91225000I-25000J0D01*
G01*
G37*
G36*
G01*
X203350000Y-91725000D02*
X202050000Y-91725000D01*
G75*
G02*
X202025000Y-91700000I0J25000D01*
G01*
X202025000Y-91400000D01*
G75*
G02*
X202050000Y-91375000I25000J0D01*
G01*
X203350000Y-91375000D01*
G75*
G02*
X203375000Y-91400000I0J-25000D01*
G01*
X203375000Y-91700000D01*
G75*
G02*
X203350000Y-91725000I-25000J0D01*
G01*
G37*
G36*
G01*
X203350000Y-92225000D02*
X202050000Y-92225000D01*
G75*
G02*
X202025000Y-92200000I0J25000D01*
G01*
X202025000Y-91900000D01*
G75*
G02*
X202050000Y-91875000I25000J0D01*
G01*
X203350000Y-91875000D01*
G75*
G02*
X203375000Y-91900000I0J-25000D01*
G01*
X203375000Y-92200000D01*
G75*
G02*
X203350000Y-92225000I-25000J0D01*
G01*
G37*
G36*
G01*
X203350000Y-92725000D02*
X202050000Y-92725000D01*
G75*
G02*
X202025000Y-92700000I0J25000D01*
G01*
X202025000Y-92400000D01*
G75*
G02*
X202050000Y-92375000I25000J0D01*
G01*
X203350000Y-92375000D01*
G75*
G02*
X203375000Y-92400000I0J-25000D01*
G01*
X203375000Y-92700000D01*
G75*
G02*
X203350000Y-92725000I-25000J0D01*
G01*
G37*
G36*
G01*
X203350000Y-93225000D02*
X202050000Y-93225000D01*
G75*
G02*
X202025000Y-93200000I0J25000D01*
G01*
X202025000Y-92900000D01*
G75*
G02*
X202050000Y-92875000I25000J0D01*
G01*
X203350000Y-92875000D01*
G75*
G02*
X203375000Y-92900000I0J-25000D01*
G01*
X203375000Y-93200000D01*
G75*
G02*
X203350000Y-93225000I-25000J0D01*
G01*
G37*
G36*
G01*
X203350000Y-93725000D02*
X202050000Y-93725000D01*
G75*
G02*
X202025000Y-93700000I0J25000D01*
G01*
X202025000Y-93400000D01*
G75*
G02*
X202050000Y-93375000I25000J0D01*
G01*
X203350000Y-93375000D01*
G75*
G02*
X203375000Y-93400000I0J-25000D01*
G01*
X203375000Y-93700000D01*
G75*
G02*
X203350000Y-93725000I-25000J0D01*
G01*
G37*
G36*
G01*
X203350000Y-94225000D02*
X202050000Y-94225000D01*
G75*
G02*
X202025000Y-94200000I0J25000D01*
G01*
X202025000Y-93900000D01*
G75*
G02*
X202050000Y-93875000I25000J0D01*
G01*
X203350000Y-93875000D01*
G75*
G02*
X203375000Y-93900000I0J-25000D01*
G01*
X203375000Y-94200000D01*
G75*
G02*
X203350000Y-94225000I-25000J0D01*
G01*
G37*
G36*
G01*
X203350000Y-94725000D02*
X202050000Y-94725000D01*
G75*
G02*
X202025000Y-94700000I0J25000D01*
G01*
X202025000Y-94400000D01*
G75*
G02*
X202050000Y-94375000I25000J0D01*
G01*
X203350000Y-94375000D01*
G75*
G02*
X203375000Y-94400000I0J-25000D01*
G01*
X203375000Y-94700000D01*
G75*
G02*
X203350000Y-94725000I-25000J0D01*
G01*
G37*
G36*
G01*
X203350000Y-95225000D02*
X202050000Y-95225000D01*
G75*
G02*
X202025000Y-95200000I0J25000D01*
G01*
X202025000Y-94900000D01*
G75*
G02*
X202050000Y-94875000I25000J0D01*
G01*
X203350000Y-94875000D01*
G75*
G02*
X203375000Y-94900000I0J-25000D01*
G01*
X203375000Y-95200000D01*
G75*
G02*
X203350000Y-95225000I-25000J0D01*
G01*
G37*
G36*
G01*
X203350000Y-95725000D02*
X202050000Y-95725000D01*
G75*
G02*
X202025000Y-95700000I0J25000D01*
G01*
X202025000Y-95400000D01*
G75*
G02*
X202050000Y-95375000I25000J0D01*
G01*
X203350000Y-95375000D01*
G75*
G02*
X203375000Y-95400000I0J-25000D01*
G01*
X203375000Y-95700000D01*
G75*
G02*
X203350000Y-95725000I-25000J0D01*
G01*
G37*
G36*
G01*
X203350000Y-96225000D02*
X202050000Y-96225000D01*
G75*
G02*
X202025000Y-96200000I0J25000D01*
G01*
X202025000Y-95900000D01*
G75*
G02*
X202050000Y-95875000I25000J0D01*
G01*
X203350000Y-95875000D01*
G75*
G02*
X203375000Y-95900000I0J-25000D01*
G01*
X203375000Y-96200000D01*
G75*
G02*
X203350000Y-96225000I-25000J0D01*
G01*
G37*
G36*
G01*
X203350000Y-96725000D02*
X202050000Y-96725000D01*
G75*
G02*
X202025000Y-96700000I0J25000D01*
G01*
X202025000Y-96400000D01*
G75*
G02*
X202050000Y-96375000I25000J0D01*
G01*
X203350000Y-96375000D01*
G75*
G02*
X203375000Y-96400000I0J-25000D01*
G01*
X203375000Y-96700000D01*
G75*
G02*
X203350000Y-96725000I-25000J0D01*
G01*
G37*
G36*
G01*
X203350000Y-97225000D02*
X202050000Y-97225000D01*
G75*
G02*
X202025000Y-97200000I0J25000D01*
G01*
X202025000Y-96900000D01*
G75*
G02*
X202050000Y-96875000I25000J0D01*
G01*
X203350000Y-96875000D01*
G75*
G02*
X203375000Y-96900000I0J-25000D01*
G01*
X203375000Y-97200000D01*
G75*
G02*
X203350000Y-97225000I-25000J0D01*
G01*
G37*
G36*
G01*
X203350000Y-97725000D02*
X202050000Y-97725000D01*
G75*
G02*
X202025000Y-97700000I0J25000D01*
G01*
X202025000Y-97400000D01*
G75*
G02*
X202050000Y-97375000I25000J0D01*
G01*
X203350000Y-97375000D01*
G75*
G02*
X203375000Y-97400000I0J-25000D01*
G01*
X203375000Y-97700000D01*
G75*
G02*
X203350000Y-97725000I-25000J0D01*
G01*
G37*
G36*
G01*
X203350000Y-98225000D02*
X202050000Y-98225000D01*
G75*
G02*
X202025000Y-98200000I0J25000D01*
G01*
X202025000Y-97900000D01*
G75*
G02*
X202050000Y-97875000I25000J0D01*
G01*
X203350000Y-97875000D01*
G75*
G02*
X203375000Y-97900000I0J-25000D01*
G01*
X203375000Y-98200000D01*
G75*
G02*
X203350000Y-98225000I-25000J0D01*
G01*
G37*
G36*
G01*
X203350000Y-98725000D02*
X202050000Y-98725000D01*
G75*
G02*
X202025000Y-98700000I0J25000D01*
G01*
X202025000Y-98400000D01*
G75*
G02*
X202050000Y-98375000I25000J0D01*
G01*
X203350000Y-98375000D01*
G75*
G02*
X203375000Y-98400000I0J-25000D01*
G01*
X203375000Y-98700000D01*
G75*
G02*
X203350000Y-98725000I-25000J0D01*
G01*
G37*
G36*
G01*
X203350000Y-99225000D02*
X202050000Y-99225000D01*
G75*
G02*
X202025000Y-99200000I0J25000D01*
G01*
X202025000Y-98900000D01*
G75*
G02*
X202050000Y-98875000I25000J0D01*
G01*
X203350000Y-98875000D01*
G75*
G02*
X203375000Y-98900000I0J-25000D01*
G01*
X203375000Y-99200000D01*
G75*
G02*
X203350000Y-99225000I-25000J0D01*
G01*
G37*
G36*
G01*
X203350000Y-99725000D02*
X202050000Y-99725000D01*
G75*
G02*
X202025000Y-99700000I0J25000D01*
G01*
X202025000Y-99400000D01*
G75*
G02*
X202050000Y-99375000I25000J0D01*
G01*
X203350000Y-99375000D01*
G75*
G02*
X203375000Y-99400000I0J-25000D01*
G01*
X203375000Y-99700000D01*
G75*
G02*
X203350000Y-99725000I-25000J0D01*
G01*
G37*
G36*
G01*
X203350000Y-100225000D02*
X202050000Y-100225000D01*
G75*
G02*
X202025000Y-100200000I0J25000D01*
G01*
X202025000Y-99900000D01*
G75*
G02*
X202050000Y-99875000I25000J0D01*
G01*
X203350000Y-99875000D01*
G75*
G02*
X203375000Y-99900000I0J-25000D01*
G01*
X203375000Y-100200000D01*
G75*
G02*
X203350000Y-100225000I-25000J0D01*
G01*
G37*
G36*
G01*
X203350000Y-100725000D02*
X202050000Y-100725000D01*
G75*
G02*
X202025000Y-100700000I0J25000D01*
G01*
X202025000Y-100400000D01*
G75*
G02*
X202050000Y-100375000I25000J0D01*
G01*
X203350000Y-100375000D01*
G75*
G02*
X203375000Y-100400000I0J-25000D01*
G01*
X203375000Y-100700000D01*
G75*
G02*
X203350000Y-100725000I-25000J0D01*
G01*
G37*
G36*
G01*
X203350000Y-101225000D02*
X202050000Y-101225000D01*
G75*
G02*
X202025000Y-101200000I0J25000D01*
G01*
X202025000Y-100900000D01*
G75*
G02*
X202050000Y-100875000I25000J0D01*
G01*
X203350000Y-100875000D01*
G75*
G02*
X203375000Y-100900000I0J-25000D01*
G01*
X203375000Y-101200000D01*
G75*
G02*
X203350000Y-101225000I-25000J0D01*
G01*
G37*
G36*
G01*
X203350000Y-101725000D02*
X202050000Y-101725000D01*
G75*
G02*
X202025000Y-101700000I0J25000D01*
G01*
X202025000Y-101400000D01*
G75*
G02*
X202050000Y-101375000I25000J0D01*
G01*
X203350000Y-101375000D01*
G75*
G02*
X203375000Y-101400000I0J-25000D01*
G01*
X203375000Y-101700000D01*
G75*
G02*
X203350000Y-101725000I-25000J0D01*
G01*
G37*
G36*
G01*
X203350000Y-102225000D02*
X202050000Y-102225000D01*
G75*
G02*
X202025000Y-102200000I0J25000D01*
G01*
X202025000Y-101900000D01*
G75*
G02*
X202050000Y-101875000I25000J0D01*
G01*
X203350000Y-101875000D01*
G75*
G02*
X203375000Y-101900000I0J-25000D01*
G01*
X203375000Y-102200000D01*
G75*
G02*
X203350000Y-102225000I-25000J0D01*
G01*
G37*
G36*
G01*
X203350000Y-102725000D02*
X202050000Y-102725000D01*
G75*
G02*
X202025000Y-102700000I0J25000D01*
G01*
X202025000Y-102400000D01*
G75*
G02*
X202050000Y-102375000I25000J0D01*
G01*
X203350000Y-102375000D01*
G75*
G02*
X203375000Y-102400000I0J-25000D01*
G01*
X203375000Y-102700000D01*
G75*
G02*
X203350000Y-102725000I-25000J0D01*
G01*
G37*
G36*
G01*
X203350000Y-103225000D02*
X202050000Y-103225000D01*
G75*
G02*
X202025000Y-103200000I0J25000D01*
G01*
X202025000Y-102900000D01*
G75*
G02*
X202050000Y-102875000I25000J0D01*
G01*
X203350000Y-102875000D01*
G75*
G02*
X203375000Y-102900000I0J-25000D01*
G01*
X203375000Y-103200000D01*
G75*
G02*
X203350000Y-103225000I-25000J0D01*
G01*
G37*
G36*
G01*
X203350000Y-103725000D02*
X202050000Y-103725000D01*
G75*
G02*
X202025000Y-103700000I0J25000D01*
G01*
X202025000Y-103400000D01*
G75*
G02*
X202050000Y-103375000I25000J0D01*
G01*
X203350000Y-103375000D01*
G75*
G02*
X203375000Y-103400000I0J-25000D01*
G01*
X203375000Y-103700000D01*
G75*
G02*
X203350000Y-103725000I-25000J0D01*
G01*
G37*
G36*
G01*
X203350000Y-104225000D02*
X202050000Y-104225000D01*
G75*
G02*
X202025000Y-104200000I0J25000D01*
G01*
X202025000Y-103900000D01*
G75*
G02*
X202050000Y-103875000I25000J0D01*
G01*
X203350000Y-103875000D01*
G75*
G02*
X203375000Y-103900000I0J-25000D01*
G01*
X203375000Y-104200000D01*
G75*
G02*
X203350000Y-104225000I-25000J0D01*
G01*
G37*
G36*
G01*
X203350000Y-104725000D02*
X202050000Y-104725000D01*
G75*
G02*
X202025000Y-104700000I0J25000D01*
G01*
X202025000Y-104400000D01*
G75*
G02*
X202050000Y-104375000I25000J0D01*
G01*
X203350000Y-104375000D01*
G75*
G02*
X203375000Y-104400000I0J-25000D01*
G01*
X203375000Y-104700000D01*
G75*
G02*
X203350000Y-104725000I-25000J0D01*
G01*
G37*
G36*
G01*
X203350000Y-105225000D02*
X202050000Y-105225000D01*
G75*
G02*
X202025000Y-105200000I0J25000D01*
G01*
X202025000Y-104900000D01*
G75*
G02*
X202050000Y-104875000I25000J0D01*
G01*
X203350000Y-104875000D01*
G75*
G02*
X203375000Y-104900000I0J-25000D01*
G01*
X203375000Y-105200000D01*
G75*
G02*
X203350000Y-105225000I-25000J0D01*
G01*
G37*
G36*
G01*
X203350000Y-105725000D02*
X202050000Y-105725000D01*
G75*
G02*
X202025000Y-105700000I0J25000D01*
G01*
X202025000Y-105400000D01*
G75*
G02*
X202050000Y-105375000I25000J0D01*
G01*
X203350000Y-105375000D01*
G75*
G02*
X203375000Y-105400000I0J-25000D01*
G01*
X203375000Y-105700000D01*
G75*
G02*
X203350000Y-105725000I-25000J0D01*
G01*
G37*
G36*
G01*
X203350000Y-106225000D02*
X202050000Y-106225000D01*
G75*
G02*
X202025000Y-106200000I0J25000D01*
G01*
X202025000Y-105900000D01*
G75*
G02*
X202050000Y-105875000I25000J0D01*
G01*
X203350000Y-105875000D01*
G75*
G02*
X203375000Y-105900000I0J-25000D01*
G01*
X203375000Y-106200000D01*
G75*
G02*
X203350000Y-106225000I-25000J0D01*
G01*
G37*
G36*
G01*
X203350000Y-106725000D02*
X202050000Y-106725000D01*
G75*
G02*
X202025000Y-106700000I0J25000D01*
G01*
X202025000Y-106400000D01*
G75*
G02*
X202050000Y-106375000I25000J0D01*
G01*
X203350000Y-106375000D01*
G75*
G02*
X203375000Y-106400000I0J-25000D01*
G01*
X203375000Y-106700000D01*
G75*
G02*
X203350000Y-106725000I-25000J0D01*
G01*
G37*
G36*
G01*
X203350000Y-107225000D02*
X202050000Y-107225000D01*
G75*
G02*
X202025000Y-107200000I0J25000D01*
G01*
X202025000Y-106900000D01*
G75*
G02*
X202050000Y-106875000I25000J0D01*
G01*
X203350000Y-106875000D01*
G75*
G02*
X203375000Y-106900000I0J-25000D01*
G01*
X203375000Y-107200000D01*
G75*
G02*
X203350000Y-107225000I-25000J0D01*
G01*
G37*
G36*
G01*
X203350000Y-107725000D02*
X202050000Y-107725000D01*
G75*
G02*
X202025000Y-107700000I0J25000D01*
G01*
X202025000Y-107400000D01*
G75*
G02*
X202050000Y-107375000I25000J0D01*
G01*
X203350000Y-107375000D01*
G75*
G02*
X203375000Y-107400000I0J-25000D01*
G01*
X203375000Y-107700000D01*
G75*
G02*
X203350000Y-107725000I-25000J0D01*
G01*
G37*
G36*
G01*
X203350000Y-108225000D02*
X202050000Y-108225000D01*
G75*
G02*
X202025000Y-108200000I0J25000D01*
G01*
X202025000Y-107900000D01*
G75*
G02*
X202050000Y-107875000I25000J0D01*
G01*
X203350000Y-107875000D01*
G75*
G02*
X203375000Y-107900000I0J-25000D01*
G01*
X203375000Y-108200000D01*
G75*
G02*
X203350000Y-108225000I-25000J0D01*
G01*
G37*
G36*
G01*
X200550000Y-110875000D02*
X198350000Y-110875000D01*
G75*
G02*
X198325000Y-110850000I0J25000D01*
G01*
X198325000Y-109050000D01*
G75*
G02*
X198350000Y-109025000I25000J0D01*
G01*
X200550000Y-109025000D01*
G75*
G02*
X200575000Y-109050000I0J-25000D01*
G01*
X200575000Y-110850000D01*
G75*
G02*
X200550000Y-110875000I-25000J0D01*
G01*
G37*
G36*
G01*
X200550000Y-87575000D02*
X198350000Y-87575000D01*
G75*
G02*
X198325000Y-87550000I0J25000D01*
G01*
X198325000Y-85750000D01*
G75*
G02*
X198350000Y-85725000I25000J0D01*
G01*
X200550000Y-85725000D01*
G75*
G02*
X200575000Y-85750000I0J-25000D01*
G01*
X200575000Y-87550000D01*
G75*
G02*
X200550000Y-87575000I-25000J0D01*
G01*
G37*
%TD*%
D15*
%TO.C,U11*%
X199850000Y-128300000D03*
X190250000Y-128300000D03*
X199850000Y-140450000D03*
X199850000Y-139300000D03*
X199850000Y-138300000D03*
X199850000Y-137300000D03*
X199850000Y-136300000D03*
X199850000Y-135300000D03*
X199850000Y-134300000D03*
X199850000Y-133300000D03*
X199850000Y-132300000D03*
X199850000Y-131300000D03*
X199850000Y-130300000D03*
X199850000Y-129300000D03*
D16*
X197050000Y-127550000D03*
X196050000Y-127550000D03*
X195050000Y-127550000D03*
X194050000Y-127550000D03*
X193050000Y-127550000D03*
D15*
X190250000Y-129300000D03*
X190250000Y-130300000D03*
X190250000Y-131300000D03*
X190250000Y-132300000D03*
X190250000Y-133300000D03*
X190250000Y-134300000D03*
X190250000Y-135300000D03*
X190250000Y-136300000D03*
X190250000Y-137300000D03*
X190250000Y-138300000D03*
X190250000Y-139300000D03*
X190250000Y-140450000D03*
%TD*%
%TO.C,U16*%
G36*
G01*
X207385000Y-118901000D02*
X207235000Y-118901000D01*
G75*
G02*
X207160000Y-118826000I0J75000D01*
G01*
X207160000Y-118226000D01*
G75*
G02*
X207235000Y-118151000I75000J0D01*
G01*
X207385000Y-118151000D01*
G75*
G02*
X207460000Y-118226000I0J-75000D01*
G01*
X207460000Y-118826000D01*
G75*
G02*
X207385000Y-118901000I-75000J0D01*
G01*
G37*
G36*
G01*
X206885000Y-118901000D02*
X206735000Y-118901000D01*
G75*
G02*
X206660000Y-118826000I0J75000D01*
G01*
X206660000Y-118226000D01*
G75*
G02*
X206735000Y-118151000I75000J0D01*
G01*
X206885000Y-118151000D01*
G75*
G02*
X206960000Y-118226000I0J-75000D01*
G01*
X206960000Y-118826000D01*
G75*
G02*
X206885000Y-118901000I-75000J0D01*
G01*
G37*
G36*
G01*
X206385000Y-118901000D02*
X206235000Y-118901000D01*
G75*
G02*
X206160000Y-118826000I0J75000D01*
G01*
X206160000Y-118226000D01*
G75*
G02*
X206235000Y-118151000I75000J0D01*
G01*
X206385000Y-118151000D01*
G75*
G02*
X206460000Y-118226000I0J-75000D01*
G01*
X206460000Y-118826000D01*
G75*
G02*
X206385000Y-118901000I-75000J0D01*
G01*
G37*
G36*
G01*
X205885000Y-118901000D02*
X205735000Y-118901000D01*
G75*
G02*
X205660000Y-118826000I0J75000D01*
G01*
X205660000Y-118226000D01*
G75*
G02*
X205735000Y-118151000I75000J0D01*
G01*
X205885000Y-118151000D01*
G75*
G02*
X205960000Y-118226000I0J-75000D01*
G01*
X205960000Y-118826000D01*
G75*
G02*
X205885000Y-118901000I-75000J0D01*
G01*
G37*
G36*
G01*
X205885000Y-120901000D02*
X205735000Y-120901000D01*
G75*
G02*
X205660000Y-120826000I0J75000D01*
G01*
X205660000Y-120226000D01*
G75*
G02*
X205735000Y-120151000I75000J0D01*
G01*
X205885000Y-120151000D01*
G75*
G02*
X205960000Y-120226000I0J-75000D01*
G01*
X205960000Y-120826000D01*
G75*
G02*
X205885000Y-120901000I-75000J0D01*
G01*
G37*
G36*
G01*
X206385000Y-120901000D02*
X206235000Y-120901000D01*
G75*
G02*
X206160000Y-120826000I0J75000D01*
G01*
X206160000Y-120226000D01*
G75*
G02*
X206235000Y-120151000I75000J0D01*
G01*
X206385000Y-120151000D01*
G75*
G02*
X206460000Y-120226000I0J-75000D01*
G01*
X206460000Y-120826000D01*
G75*
G02*
X206385000Y-120901000I-75000J0D01*
G01*
G37*
G36*
G01*
X206885000Y-120901000D02*
X206735000Y-120901000D01*
G75*
G02*
X206660000Y-120826000I0J75000D01*
G01*
X206660000Y-120226000D01*
G75*
G02*
X206735000Y-120151000I75000J0D01*
G01*
X206885000Y-120151000D01*
G75*
G02*
X206960000Y-120226000I0J-75000D01*
G01*
X206960000Y-120826000D01*
G75*
G02*
X206885000Y-120901000I-75000J0D01*
G01*
G37*
G36*
G01*
X207385000Y-120901000D02*
X207235000Y-120901000D01*
G75*
G02*
X207160000Y-120826000I0J75000D01*
G01*
X207160000Y-120226000D01*
G75*
G02*
X207235000Y-120151000I75000J0D01*
G01*
X207385000Y-120151000D01*
G75*
G02*
X207460000Y-120226000I0J-75000D01*
G01*
X207460000Y-120826000D01*
G75*
G02*
X207385000Y-120901000I-75000J0D01*
G01*
G37*
G36*
G01*
X207097500Y-120001000D02*
X206022500Y-120001000D01*
G75*
G02*
X205785000Y-119763500I0J237500D01*
G01*
X205785000Y-119288500D01*
G75*
G02*
X206022500Y-119051000I237500J0D01*
G01*
X207097500Y-119051000D01*
G75*
G02*
X207335000Y-119288500I0J-237500D01*
G01*
X207335000Y-119763500D01*
G75*
G02*
X207097500Y-120001000I-237500J0D01*
G01*
G37*
%TD*%
%TO.C,U5*%
G36*
G01*
X184065000Y-86672500D02*
X184065000Y-86997500D01*
G75*
G02*
X183902500Y-87160000I-162500J0D01*
G01*
X182452500Y-87160000D01*
G75*
G02*
X182290000Y-86997500I0J162500D01*
G01*
X182290000Y-86672500D01*
G75*
G02*
X182452500Y-86510000I162500J0D01*
G01*
X183902500Y-86510000D01*
G75*
G02*
X184065000Y-86672500I0J-162500D01*
G01*
G37*
G36*
G01*
X184065000Y-87942500D02*
X184065000Y-88267500D01*
G75*
G02*
X183902500Y-88430000I-162500J0D01*
G01*
X182452500Y-88430000D01*
G75*
G02*
X182290000Y-88267500I0J162500D01*
G01*
X182290000Y-87942500D01*
G75*
G02*
X182452500Y-87780000I162500J0D01*
G01*
X183902500Y-87780000D01*
G75*
G02*
X184065000Y-87942500I0J-162500D01*
G01*
G37*
G36*
G01*
X184065000Y-89212500D02*
X184065000Y-89537500D01*
G75*
G02*
X183902500Y-89700000I-162500J0D01*
G01*
X182452500Y-89700000D01*
G75*
G02*
X182290000Y-89537500I0J162500D01*
G01*
X182290000Y-89212500D01*
G75*
G02*
X182452500Y-89050000I162500J0D01*
G01*
X183902500Y-89050000D01*
G75*
G02*
X184065000Y-89212500I0J-162500D01*
G01*
G37*
G36*
G01*
X184065000Y-90482500D02*
X184065000Y-90807500D01*
G75*
G02*
X183902500Y-90970000I-162500J0D01*
G01*
X182452500Y-90970000D01*
G75*
G02*
X182290000Y-90807500I0J162500D01*
G01*
X182290000Y-90482500D01*
G75*
G02*
X182452500Y-90320000I162500J0D01*
G01*
X183902500Y-90320000D01*
G75*
G02*
X184065000Y-90482500I0J-162500D01*
G01*
G37*
G36*
G01*
X191290000Y-90482500D02*
X191290000Y-90807500D01*
G75*
G02*
X191127500Y-90970000I-162500J0D01*
G01*
X189677500Y-90970000D01*
G75*
G02*
X189515000Y-90807500I0J162500D01*
G01*
X189515000Y-90482500D01*
G75*
G02*
X189677500Y-90320000I162500J0D01*
G01*
X191127500Y-90320000D01*
G75*
G02*
X191290000Y-90482500I0J-162500D01*
G01*
G37*
G36*
G01*
X191290000Y-89212500D02*
X191290000Y-89537500D01*
G75*
G02*
X191127500Y-89700000I-162500J0D01*
G01*
X189677500Y-89700000D01*
G75*
G02*
X189515000Y-89537500I0J162500D01*
G01*
X189515000Y-89212500D01*
G75*
G02*
X189677500Y-89050000I162500J0D01*
G01*
X191127500Y-89050000D01*
G75*
G02*
X191290000Y-89212500I0J-162500D01*
G01*
G37*
G36*
G01*
X191290000Y-87942500D02*
X191290000Y-88267500D01*
G75*
G02*
X191127500Y-88430000I-162500J0D01*
G01*
X189677500Y-88430000D01*
G75*
G02*
X189515000Y-88267500I0J162500D01*
G01*
X189515000Y-87942500D01*
G75*
G02*
X189677500Y-87780000I162500J0D01*
G01*
X191127500Y-87780000D01*
G75*
G02*
X191290000Y-87942500I0J-162500D01*
G01*
G37*
G36*
G01*
X191290000Y-86672500D02*
X191290000Y-86997500D01*
G75*
G02*
X191127500Y-87160000I-162500J0D01*
G01*
X189677500Y-87160000D01*
G75*
G02*
X189515000Y-86997500I0J162500D01*
G01*
X189515000Y-86672500D01*
G75*
G02*
X189677500Y-86510000I162500J0D01*
G01*
X191127500Y-86510000D01*
G75*
G02*
X191290000Y-86672500I0J-162500D01*
G01*
G37*
%TD*%
%TO.C,U3*%
G36*
G01*
X208360000Y-109347000D02*
X207560000Y-109347000D01*
G75*
G02*
X207535000Y-109322000I0J25000D01*
G01*
X207535000Y-108422000D01*
G75*
G02*
X207560000Y-108397000I25000J0D01*
G01*
X208360000Y-108397000D01*
G75*
G02*
X208385000Y-108422000I0J-25000D01*
G01*
X208385000Y-109322000D01*
G75*
G02*
X208360000Y-109347000I-25000J0D01*
G01*
G37*
G36*
G01*
X207410000Y-111347000D02*
X206610000Y-111347000D01*
G75*
G02*
X206585000Y-111322000I0J25000D01*
G01*
X206585000Y-110422000D01*
G75*
G02*
X206610000Y-110397000I25000J0D01*
G01*
X207410000Y-110397000D01*
G75*
G02*
X207435000Y-110422000I0J-25000D01*
G01*
X207435000Y-111322000D01*
G75*
G02*
X207410000Y-111347000I-25000J0D01*
G01*
G37*
G36*
G01*
X209310000Y-111347000D02*
X208510000Y-111347000D01*
G75*
G02*
X208485000Y-111322000I0J25000D01*
G01*
X208485000Y-110422000D01*
G75*
G02*
X208510000Y-110397000I25000J0D01*
G01*
X209310000Y-110397000D01*
G75*
G02*
X209335000Y-110422000I0J-25000D01*
G01*
X209335000Y-111322000D01*
G75*
G02*
X209310000Y-111347000I-25000J0D01*
G01*
G37*
%TD*%
%TO.C,RN4*%
G36*
G01*
X207075000Y-92210000D02*
X207075000Y-91890000D01*
G75*
G02*
X207100000Y-91865000I25000J0D01*
G01*
X207600000Y-91865000D01*
G75*
G02*
X207625000Y-91890000I0J-25000D01*
G01*
X207625000Y-92210000D01*
G75*
G02*
X207600000Y-92235000I-25000J0D01*
G01*
X207100000Y-92235000D01*
G75*
G02*
X207075000Y-92210000I0J25000D01*
G01*
G37*
G36*
G01*
X207075000Y-92710000D02*
X207075000Y-92390000D01*
G75*
G02*
X207100000Y-92365000I25000J0D01*
G01*
X207600000Y-92365000D01*
G75*
G02*
X207625000Y-92390000I0J-25000D01*
G01*
X207625000Y-92710000D01*
G75*
G02*
X207600000Y-92735000I-25000J0D01*
G01*
X207100000Y-92735000D01*
G75*
G02*
X207075000Y-92710000I0J25000D01*
G01*
G37*
G36*
G01*
X207075000Y-93710000D02*
X207075000Y-93390000D01*
G75*
G02*
X207100000Y-93365000I25000J0D01*
G01*
X207600000Y-93365000D01*
G75*
G02*
X207625000Y-93390000I0J-25000D01*
G01*
X207625000Y-93710000D01*
G75*
G02*
X207600000Y-93735000I-25000J0D01*
G01*
X207100000Y-93735000D01*
G75*
G02*
X207075000Y-93710000I0J25000D01*
G01*
G37*
G36*
G01*
X207075000Y-93210000D02*
X207075000Y-92890000D01*
G75*
G02*
X207100000Y-92865000I25000J0D01*
G01*
X207600000Y-92865000D01*
G75*
G02*
X207625000Y-92890000I0J-25000D01*
G01*
X207625000Y-93210000D01*
G75*
G02*
X207600000Y-93235000I-25000J0D01*
G01*
X207100000Y-93235000D01*
G75*
G02*
X207075000Y-93210000I0J25000D01*
G01*
G37*
G36*
G01*
X206075000Y-92210000D02*
X206075000Y-91890000D01*
G75*
G02*
X206100000Y-91865000I25000J0D01*
G01*
X206600000Y-91865000D01*
G75*
G02*
X206625000Y-91890000I0J-25000D01*
G01*
X206625000Y-92210000D01*
G75*
G02*
X206600000Y-92235000I-25000J0D01*
G01*
X206100000Y-92235000D01*
G75*
G02*
X206075000Y-92210000I0J25000D01*
G01*
G37*
G36*
G01*
X206075000Y-93210000D02*
X206075000Y-92890000D01*
G75*
G02*
X206100000Y-92865000I25000J0D01*
G01*
X206600000Y-92865000D01*
G75*
G02*
X206625000Y-92890000I0J-25000D01*
G01*
X206625000Y-93210000D01*
G75*
G02*
X206600000Y-93235000I-25000J0D01*
G01*
X206100000Y-93235000D01*
G75*
G02*
X206075000Y-93210000I0J25000D01*
G01*
G37*
G36*
G01*
X206075000Y-92710000D02*
X206075000Y-92390000D01*
G75*
G02*
X206100000Y-92365000I25000J0D01*
G01*
X206600000Y-92365000D01*
G75*
G02*
X206625000Y-92390000I0J-25000D01*
G01*
X206625000Y-92710000D01*
G75*
G02*
X206600000Y-92735000I-25000J0D01*
G01*
X206100000Y-92735000D01*
G75*
G02*
X206075000Y-92710000I0J25000D01*
G01*
G37*
G36*
G01*
X206075000Y-93710000D02*
X206075000Y-93390000D01*
G75*
G02*
X206100000Y-93365000I25000J0D01*
G01*
X206600000Y-93365000D01*
G75*
G02*
X206625000Y-93390000I0J-25000D01*
G01*
X206625000Y-93710000D01*
G75*
G02*
X206600000Y-93735000I-25000J0D01*
G01*
X206100000Y-93735000D01*
G75*
G02*
X206075000Y-93710000I0J25000D01*
G01*
G37*
%TD*%
%TO.C,RN3*%
G36*
G01*
X207075000Y-94710000D02*
X207075000Y-94390000D01*
G75*
G02*
X207100000Y-94365000I25000J0D01*
G01*
X207600000Y-94365000D01*
G75*
G02*
X207625000Y-94390000I0J-25000D01*
G01*
X207625000Y-94710000D01*
G75*
G02*
X207600000Y-94735000I-25000J0D01*
G01*
X207100000Y-94735000D01*
G75*
G02*
X207075000Y-94710000I0J25000D01*
G01*
G37*
G36*
G01*
X207075000Y-95210000D02*
X207075000Y-94890000D01*
G75*
G02*
X207100000Y-94865000I25000J0D01*
G01*
X207600000Y-94865000D01*
G75*
G02*
X207625000Y-94890000I0J-25000D01*
G01*
X207625000Y-95210000D01*
G75*
G02*
X207600000Y-95235000I-25000J0D01*
G01*
X207100000Y-95235000D01*
G75*
G02*
X207075000Y-95210000I0J25000D01*
G01*
G37*
G36*
G01*
X207075000Y-96210000D02*
X207075000Y-95890000D01*
G75*
G02*
X207100000Y-95865000I25000J0D01*
G01*
X207600000Y-95865000D01*
G75*
G02*
X207625000Y-95890000I0J-25000D01*
G01*
X207625000Y-96210000D01*
G75*
G02*
X207600000Y-96235000I-25000J0D01*
G01*
X207100000Y-96235000D01*
G75*
G02*
X207075000Y-96210000I0J25000D01*
G01*
G37*
G36*
G01*
X207075000Y-95710000D02*
X207075000Y-95390000D01*
G75*
G02*
X207100000Y-95365000I25000J0D01*
G01*
X207600000Y-95365000D01*
G75*
G02*
X207625000Y-95390000I0J-25000D01*
G01*
X207625000Y-95710000D01*
G75*
G02*
X207600000Y-95735000I-25000J0D01*
G01*
X207100000Y-95735000D01*
G75*
G02*
X207075000Y-95710000I0J25000D01*
G01*
G37*
G36*
G01*
X206075000Y-94710000D02*
X206075000Y-94390000D01*
G75*
G02*
X206100000Y-94365000I25000J0D01*
G01*
X206600000Y-94365000D01*
G75*
G02*
X206625000Y-94390000I0J-25000D01*
G01*
X206625000Y-94710000D01*
G75*
G02*
X206600000Y-94735000I-25000J0D01*
G01*
X206100000Y-94735000D01*
G75*
G02*
X206075000Y-94710000I0J25000D01*
G01*
G37*
G36*
G01*
X206075000Y-95710000D02*
X206075000Y-95390000D01*
G75*
G02*
X206100000Y-95365000I25000J0D01*
G01*
X206600000Y-95365000D01*
G75*
G02*
X206625000Y-95390000I0J-25000D01*
G01*
X206625000Y-95710000D01*
G75*
G02*
X206600000Y-95735000I-25000J0D01*
G01*
X206100000Y-95735000D01*
G75*
G02*
X206075000Y-95710000I0J25000D01*
G01*
G37*
G36*
G01*
X206075000Y-95210000D02*
X206075000Y-94890000D01*
G75*
G02*
X206100000Y-94865000I25000J0D01*
G01*
X206600000Y-94865000D01*
G75*
G02*
X206625000Y-94890000I0J-25000D01*
G01*
X206625000Y-95210000D01*
G75*
G02*
X206600000Y-95235000I-25000J0D01*
G01*
X206100000Y-95235000D01*
G75*
G02*
X206075000Y-95210000I0J25000D01*
G01*
G37*
G36*
G01*
X206075000Y-96210000D02*
X206075000Y-95890000D01*
G75*
G02*
X206100000Y-95865000I25000J0D01*
G01*
X206600000Y-95865000D01*
G75*
G02*
X206625000Y-95890000I0J-25000D01*
G01*
X206625000Y-96210000D01*
G75*
G02*
X206600000Y-96235000I-25000J0D01*
G01*
X206100000Y-96235000D01*
G75*
G02*
X206075000Y-96210000I0J25000D01*
G01*
G37*
%TD*%
%TO.C,RN2*%
G36*
G01*
X207075000Y-98710000D02*
X207075000Y-98390000D01*
G75*
G02*
X207100000Y-98365000I25000J0D01*
G01*
X207600000Y-98365000D01*
G75*
G02*
X207625000Y-98390000I0J-25000D01*
G01*
X207625000Y-98710000D01*
G75*
G02*
X207600000Y-98735000I-25000J0D01*
G01*
X207100000Y-98735000D01*
G75*
G02*
X207075000Y-98710000I0J25000D01*
G01*
G37*
G36*
G01*
X207075000Y-99210000D02*
X207075000Y-98890000D01*
G75*
G02*
X207100000Y-98865000I25000J0D01*
G01*
X207600000Y-98865000D01*
G75*
G02*
X207625000Y-98890000I0J-25000D01*
G01*
X207625000Y-99210000D01*
G75*
G02*
X207600000Y-99235000I-25000J0D01*
G01*
X207100000Y-99235000D01*
G75*
G02*
X207075000Y-99210000I0J25000D01*
G01*
G37*
G36*
G01*
X207075000Y-100210000D02*
X207075000Y-99890000D01*
G75*
G02*
X207100000Y-99865000I25000J0D01*
G01*
X207600000Y-99865000D01*
G75*
G02*
X207625000Y-99890000I0J-25000D01*
G01*
X207625000Y-100210000D01*
G75*
G02*
X207600000Y-100235000I-25000J0D01*
G01*
X207100000Y-100235000D01*
G75*
G02*
X207075000Y-100210000I0J25000D01*
G01*
G37*
G36*
G01*
X207075000Y-99710000D02*
X207075000Y-99390000D01*
G75*
G02*
X207100000Y-99365000I25000J0D01*
G01*
X207600000Y-99365000D01*
G75*
G02*
X207625000Y-99390000I0J-25000D01*
G01*
X207625000Y-99710000D01*
G75*
G02*
X207600000Y-99735000I-25000J0D01*
G01*
X207100000Y-99735000D01*
G75*
G02*
X207075000Y-99710000I0J25000D01*
G01*
G37*
G36*
G01*
X206075000Y-98710000D02*
X206075000Y-98390000D01*
G75*
G02*
X206100000Y-98365000I25000J0D01*
G01*
X206600000Y-98365000D01*
G75*
G02*
X206625000Y-98390000I0J-25000D01*
G01*
X206625000Y-98710000D01*
G75*
G02*
X206600000Y-98735000I-25000J0D01*
G01*
X206100000Y-98735000D01*
G75*
G02*
X206075000Y-98710000I0J25000D01*
G01*
G37*
G36*
G01*
X206075000Y-99710000D02*
X206075000Y-99390000D01*
G75*
G02*
X206100000Y-99365000I25000J0D01*
G01*
X206600000Y-99365000D01*
G75*
G02*
X206625000Y-99390000I0J-25000D01*
G01*
X206625000Y-99710000D01*
G75*
G02*
X206600000Y-99735000I-25000J0D01*
G01*
X206100000Y-99735000D01*
G75*
G02*
X206075000Y-99710000I0J25000D01*
G01*
G37*
G36*
G01*
X206075000Y-99210000D02*
X206075000Y-98890000D01*
G75*
G02*
X206100000Y-98865000I25000J0D01*
G01*
X206600000Y-98865000D01*
G75*
G02*
X206625000Y-98890000I0J-25000D01*
G01*
X206625000Y-99210000D01*
G75*
G02*
X206600000Y-99235000I-25000J0D01*
G01*
X206100000Y-99235000D01*
G75*
G02*
X206075000Y-99210000I0J25000D01*
G01*
G37*
G36*
G01*
X206075000Y-100210000D02*
X206075000Y-99890000D01*
G75*
G02*
X206100000Y-99865000I25000J0D01*
G01*
X206600000Y-99865000D01*
G75*
G02*
X206625000Y-99890000I0J-25000D01*
G01*
X206625000Y-100210000D01*
G75*
G02*
X206600000Y-100235000I-25000J0D01*
G01*
X206100000Y-100235000D01*
G75*
G02*
X206075000Y-100210000I0J25000D01*
G01*
G37*
%TD*%
%TO.C,RN1*%
G36*
G01*
X207125000Y-102710000D02*
X207125000Y-102390000D01*
G75*
G02*
X207150000Y-102365000I25000J0D01*
G01*
X207650000Y-102365000D01*
G75*
G02*
X207675000Y-102390000I0J-25000D01*
G01*
X207675000Y-102710000D01*
G75*
G02*
X207650000Y-102735000I-25000J0D01*
G01*
X207150000Y-102735000D01*
G75*
G02*
X207125000Y-102710000I0J25000D01*
G01*
G37*
G36*
G01*
X207125000Y-103210000D02*
X207125000Y-102890000D01*
G75*
G02*
X207150000Y-102865000I25000J0D01*
G01*
X207650000Y-102865000D01*
G75*
G02*
X207675000Y-102890000I0J-25000D01*
G01*
X207675000Y-103210000D01*
G75*
G02*
X207650000Y-103235000I-25000J0D01*
G01*
X207150000Y-103235000D01*
G75*
G02*
X207125000Y-103210000I0J25000D01*
G01*
G37*
G36*
G01*
X207125000Y-104210000D02*
X207125000Y-103890000D01*
G75*
G02*
X207150000Y-103865000I25000J0D01*
G01*
X207650000Y-103865000D01*
G75*
G02*
X207675000Y-103890000I0J-25000D01*
G01*
X207675000Y-104210000D01*
G75*
G02*
X207650000Y-104235000I-25000J0D01*
G01*
X207150000Y-104235000D01*
G75*
G02*
X207125000Y-104210000I0J25000D01*
G01*
G37*
G36*
G01*
X207125000Y-103710000D02*
X207125000Y-103390000D01*
G75*
G02*
X207150000Y-103365000I25000J0D01*
G01*
X207650000Y-103365000D01*
G75*
G02*
X207675000Y-103390000I0J-25000D01*
G01*
X207675000Y-103710000D01*
G75*
G02*
X207650000Y-103735000I-25000J0D01*
G01*
X207150000Y-103735000D01*
G75*
G02*
X207125000Y-103710000I0J25000D01*
G01*
G37*
G36*
G01*
X206125000Y-102710000D02*
X206125000Y-102390000D01*
G75*
G02*
X206150000Y-102365000I25000J0D01*
G01*
X206650000Y-102365000D01*
G75*
G02*
X206675000Y-102390000I0J-25000D01*
G01*
X206675000Y-102710000D01*
G75*
G02*
X206650000Y-102735000I-25000J0D01*
G01*
X206150000Y-102735000D01*
G75*
G02*
X206125000Y-102710000I0J25000D01*
G01*
G37*
G36*
G01*
X206125000Y-103710000D02*
X206125000Y-103390000D01*
G75*
G02*
X206150000Y-103365000I25000J0D01*
G01*
X206650000Y-103365000D01*
G75*
G02*
X206675000Y-103390000I0J-25000D01*
G01*
X206675000Y-103710000D01*
G75*
G02*
X206650000Y-103735000I-25000J0D01*
G01*
X206150000Y-103735000D01*
G75*
G02*
X206125000Y-103710000I0J25000D01*
G01*
G37*
G36*
G01*
X206125000Y-103210000D02*
X206125000Y-102890000D01*
G75*
G02*
X206150000Y-102865000I25000J0D01*
G01*
X206650000Y-102865000D01*
G75*
G02*
X206675000Y-102890000I0J-25000D01*
G01*
X206675000Y-103210000D01*
G75*
G02*
X206650000Y-103235000I-25000J0D01*
G01*
X206150000Y-103235000D01*
G75*
G02*
X206125000Y-103210000I0J25000D01*
G01*
G37*
G36*
G01*
X206125000Y-104210000D02*
X206125000Y-103890000D01*
G75*
G02*
X206150000Y-103865000I25000J0D01*
G01*
X206650000Y-103865000D01*
G75*
G02*
X206675000Y-103890000I0J-25000D01*
G01*
X206675000Y-104210000D01*
G75*
G02*
X206650000Y-104235000I-25000J0D01*
G01*
X206150000Y-104235000D01*
G75*
G02*
X206125000Y-104210000I0J25000D01*
G01*
G37*
%TD*%
%TO.C,R86*%
G36*
G01*
X214335000Y-112375000D02*
X213965000Y-112375000D01*
G75*
G02*
X213805000Y-112215000I0J160000D01*
G01*
X213805000Y-111895000D01*
G75*
G02*
X213965000Y-111735000I160000J0D01*
G01*
X214335000Y-111735000D01*
G75*
G02*
X214495000Y-111895000I0J-160000D01*
G01*
X214495000Y-112215000D01*
G75*
G02*
X214335000Y-112375000I-160000J0D01*
G01*
G37*
G36*
G01*
X214335000Y-113345000D02*
X213965000Y-113345000D01*
G75*
G02*
X213805000Y-113185000I0J160000D01*
G01*
X213805000Y-112865000D01*
G75*
G02*
X213965000Y-112705000I160000J0D01*
G01*
X214335000Y-112705000D01*
G75*
G02*
X214495000Y-112865000I0J-160000D01*
G01*
X214495000Y-113185000D01*
G75*
G02*
X214335000Y-113345000I-160000J0D01*
G01*
G37*
%TD*%
%TO.C,R85*%
G36*
G01*
X210285000Y-112705000D02*
X210655000Y-112705000D01*
G75*
G02*
X210815000Y-112865000I0J-160000D01*
G01*
X210815000Y-113185000D01*
G75*
G02*
X210655000Y-113345000I-160000J0D01*
G01*
X210285000Y-113345000D01*
G75*
G02*
X210125000Y-113185000I0J160000D01*
G01*
X210125000Y-112865000D01*
G75*
G02*
X210285000Y-112705000I160000J0D01*
G01*
G37*
G36*
G01*
X210285000Y-111735000D02*
X210655000Y-111735000D01*
G75*
G02*
X210815000Y-111895000I0J-160000D01*
G01*
X210815000Y-112215000D01*
G75*
G02*
X210655000Y-112375000I-160000J0D01*
G01*
X210285000Y-112375000D01*
G75*
G02*
X210125000Y-112215000I0J160000D01*
G01*
X210125000Y-111895000D01*
G75*
G02*
X210285000Y-111735000I160000J0D01*
G01*
G37*
%TD*%
%TO.C,R84*%
G36*
G01*
X204599960Y-87073640D02*
X204969960Y-87073640D01*
G75*
G02*
X205129960Y-87233640I0J-160000D01*
G01*
X205129960Y-87553640D01*
G75*
G02*
X204969960Y-87713640I-160000J0D01*
G01*
X204599960Y-87713640D01*
G75*
G02*
X204439960Y-87553640I0J160000D01*
G01*
X204439960Y-87233640D01*
G75*
G02*
X204599960Y-87073640I160000J0D01*
G01*
G37*
G36*
G01*
X204599960Y-86103640D02*
X204969960Y-86103640D01*
G75*
G02*
X205129960Y-86263640I0J-160000D01*
G01*
X205129960Y-86583640D01*
G75*
G02*
X204969960Y-86743640I-160000J0D01*
G01*
X204599960Y-86743640D01*
G75*
G02*
X204439960Y-86583640I0J160000D01*
G01*
X204439960Y-86263640D01*
G75*
G02*
X204599960Y-86103640I160000J0D01*
G01*
G37*
%TD*%
%TO.C,R83*%
G36*
G01*
X205631200Y-87073640D02*
X206001200Y-87073640D01*
G75*
G02*
X206161200Y-87233640I0J-160000D01*
G01*
X206161200Y-87553640D01*
G75*
G02*
X206001200Y-87713640I-160000J0D01*
G01*
X205631200Y-87713640D01*
G75*
G02*
X205471200Y-87553640I0J160000D01*
G01*
X205471200Y-87233640D01*
G75*
G02*
X205631200Y-87073640I160000J0D01*
G01*
G37*
G36*
G01*
X205631200Y-86103640D02*
X206001200Y-86103640D01*
G75*
G02*
X206161200Y-86263640I0J-160000D01*
G01*
X206161200Y-86583640D01*
G75*
G02*
X206001200Y-86743640I-160000J0D01*
G01*
X205631200Y-86743640D01*
G75*
G02*
X205471200Y-86583640I0J160000D01*
G01*
X205471200Y-86263640D01*
G75*
G02*
X205631200Y-86103640I160000J0D01*
G01*
G37*
%TD*%
%TO.C,R82*%
G36*
G01*
X206662440Y-87073640D02*
X207032440Y-87073640D01*
G75*
G02*
X207192440Y-87233640I0J-160000D01*
G01*
X207192440Y-87553640D01*
G75*
G02*
X207032440Y-87713640I-160000J0D01*
G01*
X206662440Y-87713640D01*
G75*
G02*
X206502440Y-87553640I0J160000D01*
G01*
X206502440Y-87233640D01*
G75*
G02*
X206662440Y-87073640I160000J0D01*
G01*
G37*
G36*
G01*
X206662440Y-86103640D02*
X207032440Y-86103640D01*
G75*
G02*
X207192440Y-86263640I0J-160000D01*
G01*
X207192440Y-86583640D01*
G75*
G02*
X207032440Y-86743640I-160000J0D01*
G01*
X206662440Y-86743640D01*
G75*
G02*
X206502440Y-86583640I0J160000D01*
G01*
X206502440Y-86263640D01*
G75*
G02*
X206662440Y-86103640I160000J0D01*
G01*
G37*
%TD*%
%TO.C,R79*%
G36*
G01*
X206415000Y-116922000D02*
X206785000Y-116922000D01*
G75*
G02*
X206945000Y-117082000I0J-160000D01*
G01*
X206945000Y-117402000D01*
G75*
G02*
X206785000Y-117562000I-160000J0D01*
G01*
X206415000Y-117562000D01*
G75*
G02*
X206255000Y-117402000I0J160000D01*
G01*
X206255000Y-117082000D01*
G75*
G02*
X206415000Y-116922000I160000J0D01*
G01*
G37*
G36*
G01*
X206415000Y-115952000D02*
X206785000Y-115952000D01*
G75*
G02*
X206945000Y-116112000I0J-160000D01*
G01*
X206945000Y-116432000D01*
G75*
G02*
X206785000Y-116592000I-160000J0D01*
G01*
X206415000Y-116592000D01*
G75*
G02*
X206255000Y-116432000I0J160000D01*
G01*
X206255000Y-116112000D01*
G75*
G02*
X206415000Y-115952000I160000J0D01*
G01*
G37*
%TD*%
%TO.C,R78*%
G36*
G01*
X207801000Y-116569000D02*
X207431000Y-116569000D01*
G75*
G02*
X207271000Y-116409000I0J160000D01*
G01*
X207271000Y-116089000D01*
G75*
G02*
X207431000Y-115929000I160000J0D01*
G01*
X207801000Y-115929000D01*
G75*
G02*
X207961000Y-116089000I0J-160000D01*
G01*
X207961000Y-116409000D01*
G75*
G02*
X207801000Y-116569000I-160000J0D01*
G01*
G37*
G36*
G01*
X207801000Y-117539000D02*
X207431000Y-117539000D01*
G75*
G02*
X207271000Y-117379000I0J160000D01*
G01*
X207271000Y-117059000D01*
G75*
G02*
X207431000Y-116899000I160000J0D01*
G01*
X207801000Y-116899000D01*
G75*
G02*
X207961000Y-117059000I0J-160000D01*
G01*
X207961000Y-117379000D01*
G75*
G02*
X207801000Y-117539000I-160000J0D01*
G01*
G37*
%TD*%
%TO.C,R47*%
G36*
G01*
X204760000Y-122920000D02*
X204390000Y-122920000D01*
G75*
G02*
X204230000Y-122760000I0J160000D01*
G01*
X204230000Y-122440000D01*
G75*
G02*
X204390000Y-122280000I160000J0D01*
G01*
X204760000Y-122280000D01*
G75*
G02*
X204920000Y-122440000I0J-160000D01*
G01*
X204920000Y-122760000D01*
G75*
G02*
X204760000Y-122920000I-160000J0D01*
G01*
G37*
G36*
G01*
X204760000Y-123890000D02*
X204390000Y-123890000D01*
G75*
G02*
X204230000Y-123730000I0J160000D01*
G01*
X204230000Y-123410000D01*
G75*
G02*
X204390000Y-123250000I160000J0D01*
G01*
X204760000Y-123250000D01*
G75*
G02*
X204920000Y-123410000I0J-160000D01*
G01*
X204920000Y-123730000D01*
G75*
G02*
X204760000Y-123890000I-160000J0D01*
G01*
G37*
%TD*%
%TO.C,R42*%
G36*
G01*
X189685000Y-92265000D02*
X189685000Y-92635000D01*
G75*
G02*
X189525000Y-92795000I-160000J0D01*
G01*
X189205000Y-92795000D01*
G75*
G02*
X189045000Y-92635000I0J160000D01*
G01*
X189045000Y-92265000D01*
G75*
G02*
X189205000Y-92105000I160000J0D01*
G01*
X189525000Y-92105000D01*
G75*
G02*
X189685000Y-92265000I0J-160000D01*
G01*
G37*
G36*
G01*
X190655000Y-92265000D02*
X190655000Y-92635000D01*
G75*
G02*
X190495000Y-92795000I-160000J0D01*
G01*
X190175000Y-92795000D01*
G75*
G02*
X190015000Y-92635000I0J160000D01*
G01*
X190015000Y-92265000D01*
G75*
G02*
X190175000Y-92105000I160000J0D01*
G01*
X190495000Y-92105000D01*
G75*
G02*
X190655000Y-92265000I0J-160000D01*
G01*
G37*
%TD*%
%TO.C,R41*%
G36*
G01*
X189865000Y-120385000D02*
X189865000Y-120015000D01*
G75*
G02*
X190025000Y-119855000I160000J0D01*
G01*
X190345000Y-119855000D01*
G75*
G02*
X190505000Y-120015000I0J-160000D01*
G01*
X190505000Y-120385000D01*
G75*
G02*
X190345000Y-120545000I-160000J0D01*
G01*
X190025000Y-120545000D01*
G75*
G02*
X189865000Y-120385000I0J160000D01*
G01*
G37*
G36*
G01*
X188895000Y-120385000D02*
X188895000Y-120015000D01*
G75*
G02*
X189055000Y-119855000I160000J0D01*
G01*
X189375000Y-119855000D01*
G75*
G02*
X189535000Y-120015000I0J-160000D01*
G01*
X189535000Y-120385000D01*
G75*
G02*
X189375000Y-120545000I-160000J0D01*
G01*
X189055000Y-120545000D01*
G75*
G02*
X188895000Y-120385000I0J160000D01*
G01*
G37*
%TD*%
%TO.C,R39*%
G36*
G01*
X188015000Y-137965000D02*
X188385000Y-137965000D01*
G75*
G02*
X188545000Y-138125000I0J-160000D01*
G01*
X188545000Y-138445000D01*
G75*
G02*
X188385000Y-138605000I-160000J0D01*
G01*
X188015000Y-138605000D01*
G75*
G02*
X187855000Y-138445000I0J160000D01*
G01*
X187855000Y-138125000D01*
G75*
G02*
X188015000Y-137965000I160000J0D01*
G01*
G37*
G36*
G01*
X188015000Y-136995000D02*
X188385000Y-136995000D01*
G75*
G02*
X188545000Y-137155000I0J-160000D01*
G01*
X188545000Y-137475000D01*
G75*
G02*
X188385000Y-137635000I-160000J0D01*
G01*
X188015000Y-137635000D01*
G75*
G02*
X187855000Y-137475000I0J160000D01*
G01*
X187855000Y-137155000D01*
G75*
G02*
X188015000Y-136995000I160000J0D01*
G01*
G37*
%TD*%
%TO.C,R36*%
G36*
G01*
X195935000Y-124365000D02*
X195935000Y-124735000D01*
G75*
G02*
X195775000Y-124895000I-160000J0D01*
G01*
X195455000Y-124895000D01*
G75*
G02*
X195295000Y-124735000I0J160000D01*
G01*
X195295000Y-124365000D01*
G75*
G02*
X195455000Y-124205000I160000J0D01*
G01*
X195775000Y-124205000D01*
G75*
G02*
X195935000Y-124365000I0J-160000D01*
G01*
G37*
G36*
G01*
X196905000Y-124365000D02*
X196905000Y-124735000D01*
G75*
G02*
X196745000Y-124895000I-160000J0D01*
G01*
X196425000Y-124895000D01*
G75*
G02*
X196265000Y-124735000I0J160000D01*
G01*
X196265000Y-124365000D01*
G75*
G02*
X196425000Y-124205000I160000J0D01*
G01*
X196745000Y-124205000D01*
G75*
G02*
X196905000Y-124365000I0J-160000D01*
G01*
G37*
%TD*%
%TO.C,R35*%
G36*
G01*
X189865000Y-119385000D02*
X189865000Y-119015000D01*
G75*
G02*
X190025000Y-118855000I160000J0D01*
G01*
X190345000Y-118855000D01*
G75*
G02*
X190505000Y-119015000I0J-160000D01*
G01*
X190505000Y-119385000D01*
G75*
G02*
X190345000Y-119545000I-160000J0D01*
G01*
X190025000Y-119545000D01*
G75*
G02*
X189865000Y-119385000I0J160000D01*
G01*
G37*
G36*
G01*
X188895000Y-119385000D02*
X188895000Y-119015000D01*
G75*
G02*
X189055000Y-118855000I160000J0D01*
G01*
X189375000Y-118855000D01*
G75*
G02*
X189535000Y-119015000I0J-160000D01*
G01*
X189535000Y-119385000D01*
G75*
G02*
X189375000Y-119545000I-160000J0D01*
G01*
X189055000Y-119545000D01*
G75*
G02*
X188895000Y-119385000I0J160000D01*
G01*
G37*
%TD*%
%TO.C,R33*%
G36*
G01*
X189865000Y-118385000D02*
X189865000Y-118015000D01*
G75*
G02*
X190025000Y-117855000I160000J0D01*
G01*
X190345000Y-117855000D01*
G75*
G02*
X190505000Y-118015000I0J-160000D01*
G01*
X190505000Y-118385000D01*
G75*
G02*
X190345000Y-118545000I-160000J0D01*
G01*
X190025000Y-118545000D01*
G75*
G02*
X189865000Y-118385000I0J160000D01*
G01*
G37*
G36*
G01*
X188895000Y-118385000D02*
X188895000Y-118015000D01*
G75*
G02*
X189055000Y-117855000I160000J0D01*
G01*
X189375000Y-117855000D01*
G75*
G02*
X189535000Y-118015000I0J-160000D01*
G01*
X189535000Y-118385000D01*
G75*
G02*
X189375000Y-118545000I-160000J0D01*
G01*
X189055000Y-118545000D01*
G75*
G02*
X188895000Y-118385000I0J160000D01*
G01*
G37*
%TD*%
%TO.C,R32*%
G36*
G01*
X204145000Y-125035000D02*
X204145000Y-124665000D01*
G75*
G02*
X204305000Y-124505000I160000J0D01*
G01*
X204625000Y-124505000D01*
G75*
G02*
X204785000Y-124665000I0J-160000D01*
G01*
X204785000Y-125035000D01*
G75*
G02*
X204625000Y-125195000I-160000J0D01*
G01*
X204305000Y-125195000D01*
G75*
G02*
X204145000Y-125035000I0J160000D01*
G01*
G37*
G36*
G01*
X205115000Y-125035000D02*
X205115000Y-124665000D01*
G75*
G02*
X205275000Y-124505000I160000J0D01*
G01*
X205595000Y-124505000D01*
G75*
G02*
X205755000Y-124665000I0J-160000D01*
G01*
X205755000Y-125035000D01*
G75*
G02*
X205595000Y-125195000I-160000J0D01*
G01*
X205275000Y-125195000D01*
G75*
G02*
X205115000Y-125035000I0J160000D01*
G01*
G37*
%TD*%
%TO.C,R27*%
G36*
G01*
X191035000Y-100935000D02*
X190665000Y-100935000D01*
G75*
G02*
X190505000Y-100775000I0J160000D01*
G01*
X190505000Y-100455000D01*
G75*
G02*
X190665000Y-100295000I160000J0D01*
G01*
X191035000Y-100295000D01*
G75*
G02*
X191195000Y-100455000I0J-160000D01*
G01*
X191195000Y-100775000D01*
G75*
G02*
X191035000Y-100935000I-160000J0D01*
G01*
G37*
G36*
G01*
X191035000Y-101905000D02*
X190665000Y-101905000D01*
G75*
G02*
X190505000Y-101745000I0J160000D01*
G01*
X190505000Y-101425000D01*
G75*
G02*
X190665000Y-101265000I160000J0D01*
G01*
X191035000Y-101265000D01*
G75*
G02*
X191195000Y-101425000I0J-160000D01*
G01*
X191195000Y-101745000D01*
G75*
G02*
X191035000Y-101905000I-160000J0D01*
G01*
G37*
%TD*%
%TO.C,R26*%
G36*
G01*
X189715000Y-101265000D02*
X190085000Y-101265000D01*
G75*
G02*
X190245000Y-101425000I0J-160000D01*
G01*
X190245000Y-101745000D01*
G75*
G02*
X190085000Y-101905000I-160000J0D01*
G01*
X189715000Y-101905000D01*
G75*
G02*
X189555000Y-101745000I0J160000D01*
G01*
X189555000Y-101425000D01*
G75*
G02*
X189715000Y-101265000I160000J0D01*
G01*
G37*
G36*
G01*
X189715000Y-100295000D02*
X190085000Y-100295000D01*
G75*
G02*
X190245000Y-100455000I0J-160000D01*
G01*
X190245000Y-100775000D01*
G75*
G02*
X190085000Y-100935000I-160000J0D01*
G01*
X189715000Y-100935000D01*
G75*
G02*
X189555000Y-100775000I0J160000D01*
G01*
X189555000Y-100455000D01*
G75*
G02*
X189715000Y-100295000I160000J0D01*
G01*
G37*
%TD*%
%TO.C,R22*%
G36*
G01*
X187535000Y-130615000D02*
X187535000Y-130985000D01*
G75*
G02*
X187375000Y-131145000I-160000J0D01*
G01*
X187055000Y-131145000D01*
G75*
G02*
X186895000Y-130985000I0J160000D01*
G01*
X186895000Y-130615000D01*
G75*
G02*
X187055000Y-130455000I160000J0D01*
G01*
X187375000Y-130455000D01*
G75*
G02*
X187535000Y-130615000I0J-160000D01*
G01*
G37*
G36*
G01*
X188505000Y-130615000D02*
X188505000Y-130985000D01*
G75*
G02*
X188345000Y-131145000I-160000J0D01*
G01*
X188025000Y-131145000D01*
G75*
G02*
X187865000Y-130985000I0J160000D01*
G01*
X187865000Y-130615000D01*
G75*
G02*
X188025000Y-130455000I160000J0D01*
G01*
X188345000Y-130455000D01*
G75*
G02*
X188505000Y-130615000I0J-160000D01*
G01*
G37*
%TD*%
%TO.C,R21*%
G36*
G01*
X187535000Y-131615000D02*
X187535000Y-131985000D01*
G75*
G02*
X187375000Y-132145000I-160000J0D01*
G01*
X187055000Y-132145000D01*
G75*
G02*
X186895000Y-131985000I0J160000D01*
G01*
X186895000Y-131615000D01*
G75*
G02*
X187055000Y-131455000I160000J0D01*
G01*
X187375000Y-131455000D01*
G75*
G02*
X187535000Y-131615000I0J-160000D01*
G01*
G37*
G36*
G01*
X188505000Y-131615000D02*
X188505000Y-131985000D01*
G75*
G02*
X188345000Y-132145000I-160000J0D01*
G01*
X188025000Y-132145000D01*
G75*
G02*
X187865000Y-131985000I0J160000D01*
G01*
X187865000Y-131615000D01*
G75*
G02*
X188025000Y-131455000I160000J0D01*
G01*
X188345000Y-131455000D01*
G75*
G02*
X188505000Y-131615000I0J-160000D01*
G01*
G37*
%TD*%
%TO.C,R15*%
G36*
G01*
X205752040Y-131888880D02*
X205752040Y-131518880D01*
G75*
G02*
X205912040Y-131358880I160000J0D01*
G01*
X206232040Y-131358880D01*
G75*
G02*
X206392040Y-131518880I0J-160000D01*
G01*
X206392040Y-131888880D01*
G75*
G02*
X206232040Y-132048880I-160000J0D01*
G01*
X205912040Y-132048880D01*
G75*
G02*
X205752040Y-131888880I0J160000D01*
G01*
G37*
G36*
G01*
X204782040Y-131888880D02*
X204782040Y-131518880D01*
G75*
G02*
X204942040Y-131358880I160000J0D01*
G01*
X205262040Y-131358880D01*
G75*
G02*
X205422040Y-131518880I0J-160000D01*
G01*
X205422040Y-131888880D01*
G75*
G02*
X205262040Y-132048880I-160000J0D01*
G01*
X204942040Y-132048880D01*
G75*
G02*
X204782040Y-131888880I0J160000D01*
G01*
G37*
%TD*%
%TO.C,R14*%
G36*
G01*
X205755520Y-130882960D02*
X205755520Y-130512960D01*
G75*
G02*
X205915520Y-130352960I160000J0D01*
G01*
X206235520Y-130352960D01*
G75*
G02*
X206395520Y-130512960I0J-160000D01*
G01*
X206395520Y-130882960D01*
G75*
G02*
X206235520Y-131042960I-160000J0D01*
G01*
X205915520Y-131042960D01*
G75*
G02*
X205755520Y-130882960I0J160000D01*
G01*
G37*
G36*
G01*
X204785520Y-130882960D02*
X204785520Y-130512960D01*
G75*
G02*
X204945520Y-130352960I160000J0D01*
G01*
X205265520Y-130352960D01*
G75*
G02*
X205425520Y-130512960I0J-160000D01*
G01*
X205425520Y-130882960D01*
G75*
G02*
X205265520Y-131042960I-160000J0D01*
G01*
X204945520Y-131042960D01*
G75*
G02*
X204785520Y-130882960I0J160000D01*
G01*
G37*
%TD*%
%TO.C,R13*%
G36*
G01*
X211760000Y-128735000D02*
X211390000Y-128735000D01*
G75*
G02*
X211230000Y-128575000I0J160000D01*
G01*
X211230000Y-128255000D01*
G75*
G02*
X211390000Y-128095000I160000J0D01*
G01*
X211760000Y-128095000D01*
G75*
G02*
X211920000Y-128255000I0J-160000D01*
G01*
X211920000Y-128575000D01*
G75*
G02*
X211760000Y-128735000I-160000J0D01*
G01*
G37*
G36*
G01*
X211760000Y-129705000D02*
X211390000Y-129705000D01*
G75*
G02*
X211230000Y-129545000I0J160000D01*
G01*
X211230000Y-129225000D01*
G75*
G02*
X211390000Y-129065000I160000J0D01*
G01*
X211760000Y-129065000D01*
G75*
G02*
X211920000Y-129225000I0J-160000D01*
G01*
X211920000Y-129545000D01*
G75*
G02*
X211760000Y-129705000I-160000J0D01*
G01*
G37*
%TD*%
%TO.C,R12*%
G36*
G01*
X207235000Y-132835000D02*
X206865000Y-132835000D01*
G75*
G02*
X206705000Y-132675000I0J160000D01*
G01*
X206705000Y-132355000D01*
G75*
G02*
X206865000Y-132195000I160000J0D01*
G01*
X207235000Y-132195000D01*
G75*
G02*
X207395000Y-132355000I0J-160000D01*
G01*
X207395000Y-132675000D01*
G75*
G02*
X207235000Y-132835000I-160000J0D01*
G01*
G37*
G36*
G01*
X207235000Y-133805000D02*
X206865000Y-133805000D01*
G75*
G02*
X206705000Y-133645000I0J160000D01*
G01*
X206705000Y-133325000D01*
G75*
G02*
X206865000Y-133165000I160000J0D01*
G01*
X207235000Y-133165000D01*
G75*
G02*
X207395000Y-133325000I0J-160000D01*
G01*
X207395000Y-133645000D01*
G75*
G02*
X207235000Y-133805000I-160000J0D01*
G01*
G37*
%TD*%
%TO.C,R6*%
G36*
G01*
X213005000Y-112375000D02*
X212635000Y-112375000D01*
G75*
G02*
X212475000Y-112215000I0J160000D01*
G01*
X212475000Y-111895000D01*
G75*
G02*
X212635000Y-111735000I160000J0D01*
G01*
X213005000Y-111735000D01*
G75*
G02*
X213165000Y-111895000I0J-160000D01*
G01*
X213165000Y-112215000D01*
G75*
G02*
X213005000Y-112375000I-160000J0D01*
G01*
G37*
G36*
G01*
X213005000Y-113345000D02*
X212635000Y-113345000D01*
G75*
G02*
X212475000Y-113185000I0J160000D01*
G01*
X212475000Y-112865000D01*
G75*
G02*
X212635000Y-112705000I160000J0D01*
G01*
X213005000Y-112705000D01*
G75*
G02*
X213165000Y-112865000I0J-160000D01*
G01*
X213165000Y-113185000D01*
G75*
G02*
X213005000Y-113345000I-160000J0D01*
G01*
G37*
%TD*%
%TO.C,Q5*%
G36*
G01*
X213590000Y-109265000D02*
X212790000Y-109265000D01*
G75*
G02*
X212765000Y-109240000I0J25000D01*
G01*
X212765000Y-108340000D01*
G75*
G02*
X212790000Y-108315000I25000J0D01*
G01*
X213590000Y-108315000D01*
G75*
G02*
X213615000Y-108340000I0J-25000D01*
G01*
X213615000Y-109240000D01*
G75*
G02*
X213590000Y-109265000I-25000J0D01*
G01*
G37*
G36*
G01*
X212640000Y-111265000D02*
X211840000Y-111265000D01*
G75*
G02*
X211815000Y-111240000I0J25000D01*
G01*
X211815000Y-110340000D01*
G75*
G02*
X211840000Y-110315000I25000J0D01*
G01*
X212640000Y-110315000D01*
G75*
G02*
X212665000Y-110340000I0J-25000D01*
G01*
X212665000Y-111240000D01*
G75*
G02*
X212640000Y-111265000I-25000J0D01*
G01*
G37*
G36*
G01*
X214540000Y-111265000D02*
X213740000Y-111265000D01*
G75*
G02*
X213715000Y-111240000I0J25000D01*
G01*
X213715000Y-110340000D01*
G75*
G02*
X213740000Y-110315000I25000J0D01*
G01*
X214540000Y-110315000D01*
G75*
G02*
X214565000Y-110340000I0J-25000D01*
G01*
X214565000Y-111240000D01*
G75*
G02*
X214540000Y-111265000I-25000J0D01*
G01*
G37*
%TD*%
%TO.C,Q1*%
G36*
G01*
X198153800Y-119437200D02*
X198153800Y-120237200D01*
G75*
G02*
X198128800Y-120262200I-25000J0D01*
G01*
X197228800Y-120262200D01*
G75*
G02*
X197203800Y-120237200I0J25000D01*
G01*
X197203800Y-119437200D01*
G75*
G02*
X197228800Y-119412200I25000J0D01*
G01*
X198128800Y-119412200D01*
G75*
G02*
X198153800Y-119437200I0J-25000D01*
G01*
G37*
G36*
G01*
X200153800Y-120387200D02*
X200153800Y-121187200D01*
G75*
G02*
X200128800Y-121212200I-25000J0D01*
G01*
X199228800Y-121212200D01*
G75*
G02*
X199203800Y-121187200I0J25000D01*
G01*
X199203800Y-120387200D01*
G75*
G02*
X199228800Y-120362200I25000J0D01*
G01*
X200128800Y-120362200D01*
G75*
G02*
X200153800Y-120387200I0J-25000D01*
G01*
G37*
G36*
G01*
X200153800Y-118487200D02*
X200153800Y-119287200D01*
G75*
G02*
X200128800Y-119312200I-25000J0D01*
G01*
X199228800Y-119312200D01*
G75*
G02*
X199203800Y-119287200I0J25000D01*
G01*
X199203800Y-118487200D01*
G75*
G02*
X199228800Y-118462200I25000J0D01*
G01*
X200128800Y-118462200D01*
G75*
G02*
X200153800Y-118487200I0J-25000D01*
G01*
G37*
%TD*%
%TO.C,J9*%
G36*
G01*
X199450000Y-115325000D02*
X200550000Y-115325000D01*
G75*
G02*
X200575000Y-115350000I0J-25000D01*
G01*
X200575000Y-115650000D01*
G75*
G02*
X200550000Y-115675000I-25000J0D01*
G01*
X199450000Y-115675000D01*
G75*
G02*
X199425000Y-115650000I0J25000D01*
G01*
X199425000Y-115350000D01*
G75*
G02*
X199450000Y-115325000I25000J0D01*
G01*
G37*
G36*
G01*
X199450000Y-114825000D02*
X200550000Y-114825000D01*
G75*
G02*
X200575000Y-114850000I0J-25000D01*
G01*
X200575000Y-115150000D01*
G75*
G02*
X200550000Y-115175000I-25000J0D01*
G01*
X199450000Y-115175000D01*
G75*
G02*
X199425000Y-115150000I0J25000D01*
G01*
X199425000Y-114850000D01*
G75*
G02*
X199450000Y-114825000I25000J0D01*
G01*
G37*
G36*
G01*
X199450000Y-115825000D02*
X200550000Y-115825000D01*
G75*
G02*
X200575000Y-115850000I0J-25000D01*
G01*
X200575000Y-116150000D01*
G75*
G02*
X200550000Y-116175000I-25000J0D01*
G01*
X199450000Y-116175000D01*
G75*
G02*
X199425000Y-116150000I0J25000D01*
G01*
X199425000Y-115850000D01*
G75*
G02*
X199450000Y-115825000I25000J0D01*
G01*
G37*
G36*
G01*
X199450000Y-116325000D02*
X200550000Y-116325000D01*
G75*
G02*
X200575000Y-116350000I0J-25000D01*
G01*
X200575000Y-116650000D01*
G75*
G02*
X200550000Y-116675000I-25000J0D01*
G01*
X199450000Y-116675000D01*
G75*
G02*
X199425000Y-116650000I0J25000D01*
G01*
X199425000Y-116350000D01*
G75*
G02*
X199450000Y-116325000I25000J0D01*
G01*
G37*
G36*
G01*
X202220000Y-113585000D02*
X203520000Y-113585000D01*
G75*
G02*
X203545000Y-113610000I0J-25000D01*
G01*
X203545000Y-114030000D01*
G75*
G02*
X203520000Y-114055000I-25000J0D01*
G01*
X202220000Y-114055000D01*
G75*
G02*
X202195000Y-114030000I0J25000D01*
G01*
X202195000Y-113610000D01*
G75*
G02*
X202220000Y-113585000I25000J0D01*
G01*
G37*
G36*
G01*
X202220000Y-117445000D02*
X203520000Y-117445000D01*
G75*
G02*
X203545000Y-117470000I0J-25000D01*
G01*
X203545000Y-117890000D01*
G75*
G02*
X203520000Y-117915000I-25000J0D01*
G01*
X202220000Y-117915000D01*
G75*
G02*
X202195000Y-117890000I0J25000D01*
G01*
X202195000Y-117470000D01*
G75*
G02*
X202220000Y-117445000I25000J0D01*
G01*
G37*
%TD*%
%TO.C,J6*%
G36*
G01*
X178150000Y-92425000D02*
X175950000Y-92425000D01*
G75*
G02*
X175925000Y-92400000I0J25000D01*
G01*
X175925000Y-90600000D01*
G75*
G02*
X175950000Y-90575000I25000J0D01*
G01*
X178150000Y-90575000D01*
G75*
G02*
X178175000Y-90600000I0J-25000D01*
G01*
X178175000Y-92400000D01*
G75*
G02*
X178150000Y-92425000I-25000J0D01*
G01*
G37*
G36*
G01*
X178150000Y-100725000D02*
X175950000Y-100725000D01*
G75*
G02*
X175925000Y-100700000I0J25000D01*
G01*
X175925000Y-98900000D01*
G75*
G02*
X175950000Y-98875000I25000J0D01*
G01*
X178150000Y-98875000D01*
G75*
G02*
X178175000Y-98900000I0J-25000D01*
G01*
X178175000Y-100700000D01*
G75*
G02*
X178150000Y-100725000I-25000J0D01*
G01*
G37*
G36*
G01*
X180950000Y-98075000D02*
X179650000Y-98075000D01*
G75*
G02*
X179625000Y-98050000I0J25000D01*
G01*
X179625000Y-97750000D01*
G75*
G02*
X179650000Y-97725000I25000J0D01*
G01*
X180950000Y-97725000D01*
G75*
G02*
X180975000Y-97750000I0J-25000D01*
G01*
X180975000Y-98050000D01*
G75*
G02*
X180950000Y-98075000I-25000J0D01*
G01*
G37*
G36*
G01*
X180950000Y-97575000D02*
X179650000Y-97575000D01*
G75*
G02*
X179625000Y-97550000I0J25000D01*
G01*
X179625000Y-97250000D01*
G75*
G02*
X179650000Y-97225000I25000J0D01*
G01*
X180950000Y-97225000D01*
G75*
G02*
X180975000Y-97250000I0J-25000D01*
G01*
X180975000Y-97550000D01*
G75*
G02*
X180950000Y-97575000I-25000J0D01*
G01*
G37*
G36*
G01*
X180950000Y-97075000D02*
X179650000Y-97075000D01*
G75*
G02*
X179625000Y-97050000I0J25000D01*
G01*
X179625000Y-96750000D01*
G75*
G02*
X179650000Y-96725000I25000J0D01*
G01*
X180950000Y-96725000D01*
G75*
G02*
X180975000Y-96750000I0J-25000D01*
G01*
X180975000Y-97050000D01*
G75*
G02*
X180950000Y-97075000I-25000J0D01*
G01*
G37*
G36*
G01*
X180950000Y-96575000D02*
X179650000Y-96575000D01*
G75*
G02*
X179625000Y-96550000I0J25000D01*
G01*
X179625000Y-96250000D01*
G75*
G02*
X179650000Y-96225000I25000J0D01*
G01*
X180950000Y-96225000D01*
G75*
G02*
X180975000Y-96250000I0J-25000D01*
G01*
X180975000Y-96550000D01*
G75*
G02*
X180950000Y-96575000I-25000J0D01*
G01*
G37*
G36*
G01*
X180950000Y-96075000D02*
X179650000Y-96075000D01*
G75*
G02*
X179625000Y-96050000I0J25000D01*
G01*
X179625000Y-95750000D01*
G75*
G02*
X179650000Y-95725000I25000J0D01*
G01*
X180950000Y-95725000D01*
G75*
G02*
X180975000Y-95750000I0J-25000D01*
G01*
X180975000Y-96050000D01*
G75*
G02*
X180950000Y-96075000I-25000J0D01*
G01*
G37*
G36*
G01*
X180950000Y-95575000D02*
X179650000Y-95575000D01*
G75*
G02*
X179625000Y-95550000I0J25000D01*
G01*
X179625000Y-95250000D01*
G75*
G02*
X179650000Y-95225000I25000J0D01*
G01*
X180950000Y-95225000D01*
G75*
G02*
X180975000Y-95250000I0J-25000D01*
G01*
X180975000Y-95550000D01*
G75*
G02*
X180950000Y-95575000I-25000J0D01*
G01*
G37*
G36*
G01*
X180950000Y-95075000D02*
X179650000Y-95075000D01*
G75*
G02*
X179625000Y-95050000I0J25000D01*
G01*
X179625000Y-94750000D01*
G75*
G02*
X179650000Y-94725000I25000J0D01*
G01*
X180950000Y-94725000D01*
G75*
G02*
X180975000Y-94750000I0J-25000D01*
G01*
X180975000Y-95050000D01*
G75*
G02*
X180950000Y-95075000I-25000J0D01*
G01*
G37*
G36*
G01*
X180950000Y-94575000D02*
X179650000Y-94575000D01*
G75*
G02*
X179625000Y-94550000I0J25000D01*
G01*
X179625000Y-94250000D01*
G75*
G02*
X179650000Y-94225000I25000J0D01*
G01*
X180950000Y-94225000D01*
G75*
G02*
X180975000Y-94250000I0J-25000D01*
G01*
X180975000Y-94550000D01*
G75*
G02*
X180950000Y-94575000I-25000J0D01*
G01*
G37*
G36*
G01*
X180950000Y-94075000D02*
X179650000Y-94075000D01*
G75*
G02*
X179625000Y-94050000I0J25000D01*
G01*
X179625000Y-93750000D01*
G75*
G02*
X179650000Y-93725000I25000J0D01*
G01*
X180950000Y-93725000D01*
G75*
G02*
X180975000Y-93750000I0J-25000D01*
G01*
X180975000Y-94050000D01*
G75*
G02*
X180950000Y-94075000I-25000J0D01*
G01*
G37*
G36*
G01*
X180950000Y-93575000D02*
X179650000Y-93575000D01*
G75*
G02*
X179625000Y-93550000I0J25000D01*
G01*
X179625000Y-93250000D01*
G75*
G02*
X179650000Y-93225000I25000J0D01*
G01*
X180950000Y-93225000D01*
G75*
G02*
X180975000Y-93250000I0J-25000D01*
G01*
X180975000Y-93550000D01*
G75*
G02*
X180950000Y-93575000I-25000J0D01*
G01*
G37*
%TD*%
%TO.C,C61*%
G36*
G01*
X200400000Y-99665000D02*
X200400000Y-100035000D01*
G75*
G02*
X200240000Y-100195000I-160000J0D01*
G01*
X199920000Y-100195000D01*
G75*
G02*
X199760000Y-100035000I0J160000D01*
G01*
X199760000Y-99665000D01*
G75*
G02*
X199920000Y-99505000I160000J0D01*
G01*
X200240000Y-99505000D01*
G75*
G02*
X200400000Y-99665000I0J-160000D01*
G01*
G37*
G36*
G01*
X201370000Y-99665000D02*
X201370000Y-100035000D01*
G75*
G02*
X201210000Y-100195000I-160000J0D01*
G01*
X200890000Y-100195000D01*
G75*
G02*
X200730000Y-100035000I0J160000D01*
G01*
X200730000Y-99665000D01*
G75*
G02*
X200890000Y-99505000I160000J0D01*
G01*
X201210000Y-99505000D01*
G75*
G02*
X201370000Y-99665000I0J-160000D01*
G01*
G37*
%TD*%
%TO.C,C58*%
G36*
G01*
X177785000Y-124835000D02*
X177415000Y-124835000D01*
G75*
G02*
X177255000Y-124675000I0J160000D01*
G01*
X177255000Y-124355000D01*
G75*
G02*
X177415000Y-124195000I160000J0D01*
G01*
X177785000Y-124195000D01*
G75*
G02*
X177945000Y-124355000I0J-160000D01*
G01*
X177945000Y-124675000D01*
G75*
G02*
X177785000Y-124835000I-160000J0D01*
G01*
G37*
G36*
G01*
X177785000Y-125805000D02*
X177415000Y-125805000D01*
G75*
G02*
X177255000Y-125645000I0J160000D01*
G01*
X177255000Y-125325000D01*
G75*
G02*
X177415000Y-125165000I160000J0D01*
G01*
X177785000Y-125165000D01*
G75*
G02*
X177945000Y-125325000I0J-160000D01*
G01*
X177945000Y-125645000D01*
G75*
G02*
X177785000Y-125805000I-160000J0D01*
G01*
G37*
%TD*%
%TO.C,C57*%
G36*
G01*
X183785000Y-127135000D02*
X183415000Y-127135000D01*
G75*
G02*
X183255000Y-126975000I0J160000D01*
G01*
X183255000Y-126655000D01*
G75*
G02*
X183415000Y-126495000I160000J0D01*
G01*
X183785000Y-126495000D01*
G75*
G02*
X183945000Y-126655000I0J-160000D01*
G01*
X183945000Y-126975000D01*
G75*
G02*
X183785000Y-127135000I-160000J0D01*
G01*
G37*
G36*
G01*
X183785000Y-128105000D02*
X183415000Y-128105000D01*
G75*
G02*
X183255000Y-127945000I0J160000D01*
G01*
X183255000Y-127625000D01*
G75*
G02*
X183415000Y-127465000I160000J0D01*
G01*
X183785000Y-127465000D01*
G75*
G02*
X183945000Y-127625000I0J-160000D01*
G01*
X183945000Y-127945000D01*
G75*
G02*
X183785000Y-128105000I-160000J0D01*
G01*
G37*
%TD*%
%TO.C,C56*%
G36*
G01*
X179335000Y-128115000D02*
X179335000Y-128485000D01*
G75*
G02*
X179175000Y-128645000I-160000J0D01*
G01*
X178855000Y-128645000D01*
G75*
G02*
X178695000Y-128485000I0J160000D01*
G01*
X178695000Y-128115000D01*
G75*
G02*
X178855000Y-127955000I160000J0D01*
G01*
X179175000Y-127955000D01*
G75*
G02*
X179335000Y-128115000I0J-160000D01*
G01*
G37*
G36*
G01*
X180305000Y-128115000D02*
X180305000Y-128485000D01*
G75*
G02*
X180145000Y-128645000I-160000J0D01*
G01*
X179825000Y-128645000D01*
G75*
G02*
X179665000Y-128485000I0J160000D01*
G01*
X179665000Y-128115000D01*
G75*
G02*
X179825000Y-127955000I160000J0D01*
G01*
X180145000Y-127955000D01*
G75*
G02*
X180305000Y-128115000I0J-160000D01*
G01*
G37*
%TD*%
%TO.C,C54*%
G36*
G01*
X206796540Y-106171580D02*
X206796540Y-105801580D01*
G75*
G02*
X206956540Y-105641580I160000J0D01*
G01*
X207276540Y-105641580D01*
G75*
G02*
X207436540Y-105801580I0J-160000D01*
G01*
X207436540Y-106171580D01*
G75*
G02*
X207276540Y-106331580I-160000J0D01*
G01*
X206956540Y-106331580D01*
G75*
G02*
X206796540Y-106171580I0J160000D01*
G01*
G37*
G36*
G01*
X205826540Y-106171580D02*
X205826540Y-105801580D01*
G75*
G02*
X205986540Y-105641580I160000J0D01*
G01*
X206306540Y-105641580D01*
G75*
G02*
X206466540Y-105801580I0J-160000D01*
G01*
X206466540Y-106171580D01*
G75*
G02*
X206306540Y-106331580I-160000J0D01*
G01*
X205986540Y-106331580D01*
G75*
G02*
X205826540Y-106171580I0J160000D01*
G01*
G37*
%TD*%
%TO.C,C53*%
G36*
G01*
X207050150Y-89646880D02*
X206512650Y-89646880D01*
G75*
G02*
X206281400Y-89415630I0J231250D01*
G01*
X206281400Y-88953130D01*
G75*
G02*
X206512650Y-88721880I231250J0D01*
G01*
X207050150Y-88721880D01*
G75*
G02*
X207281400Y-88953130I0J-231250D01*
G01*
X207281400Y-89415630D01*
G75*
G02*
X207050150Y-89646880I-231250J0D01*
G01*
G37*
G36*
G01*
X207050150Y-91221880D02*
X206512650Y-91221880D01*
G75*
G02*
X206281400Y-90990630I0J231250D01*
G01*
X206281400Y-90528130D01*
G75*
G02*
X206512650Y-90296880I231250J0D01*
G01*
X207050150Y-90296880D01*
G75*
G02*
X207281400Y-90528130I0J-231250D01*
G01*
X207281400Y-90990630D01*
G75*
G02*
X207050150Y-91221880I-231250J0D01*
G01*
G37*
%TD*%
%TO.C,C52*%
G36*
G01*
X207687000Y-115247750D02*
X207687000Y-114710250D01*
G75*
G02*
X207918250Y-114479000I231250J0D01*
G01*
X208380750Y-114479000D01*
G75*
G02*
X208612000Y-114710250I0J-231250D01*
G01*
X208612000Y-115247750D01*
G75*
G02*
X208380750Y-115479000I-231250J0D01*
G01*
X207918250Y-115479000D01*
G75*
G02*
X207687000Y-115247750I0J231250D01*
G01*
G37*
G36*
G01*
X206112000Y-115247750D02*
X206112000Y-114710250D01*
G75*
G02*
X206343250Y-114479000I231250J0D01*
G01*
X206805750Y-114479000D01*
G75*
G02*
X207037000Y-114710250I0J-231250D01*
G01*
X207037000Y-115247750D01*
G75*
G02*
X206805750Y-115479000I-231250J0D01*
G01*
X206343250Y-115479000D01*
G75*
G02*
X206112000Y-115247750I0J231250D01*
G01*
G37*
%TD*%
%TO.C,C51*%
G36*
G01*
X209053550Y-89341380D02*
X208116050Y-89341380D01*
G75*
G02*
X207859800Y-89085130I0J256250D01*
G01*
X207859800Y-88572630D01*
G75*
G02*
X208116050Y-88316380I256250J0D01*
G01*
X209053550Y-88316380D01*
G75*
G02*
X209309800Y-88572630I0J-256250D01*
G01*
X209309800Y-89085130D01*
G75*
G02*
X209053550Y-89341380I-256250J0D01*
G01*
G37*
G36*
G01*
X209053550Y-91216380D02*
X208116050Y-91216380D01*
G75*
G02*
X207859800Y-90960130I0J256250D01*
G01*
X207859800Y-90447630D01*
G75*
G02*
X208116050Y-90191380I256250J0D01*
G01*
X209053550Y-90191380D01*
G75*
G02*
X209309800Y-90447630I0J-256250D01*
G01*
X209309800Y-90960130D01*
G75*
G02*
X209053550Y-91216380I-256250J0D01*
G01*
G37*
%TD*%
%TO.C,C49*%
G36*
G01*
X204383000Y-119970000D02*
X204753000Y-119970000D01*
G75*
G02*
X204913000Y-120130000I0J-160000D01*
G01*
X204913000Y-120450000D01*
G75*
G02*
X204753000Y-120610000I-160000J0D01*
G01*
X204383000Y-120610000D01*
G75*
G02*
X204223000Y-120450000I0J160000D01*
G01*
X204223000Y-120130000D01*
G75*
G02*
X204383000Y-119970000I160000J0D01*
G01*
G37*
G36*
G01*
X204383000Y-119000000D02*
X204753000Y-119000000D01*
G75*
G02*
X204913000Y-119160000I0J-160000D01*
G01*
X204913000Y-119480000D01*
G75*
G02*
X204753000Y-119640000I-160000J0D01*
G01*
X204383000Y-119640000D01*
G75*
G02*
X204223000Y-119480000I0J160000D01*
G01*
X204223000Y-119160000D01*
G75*
G02*
X204383000Y-119000000I160000J0D01*
G01*
G37*
%TD*%
%TO.C,C48*%
G36*
G01*
X207093750Y-122775000D02*
X206556250Y-122775000D01*
G75*
G02*
X206325000Y-122543750I0J231250D01*
G01*
X206325000Y-122081250D01*
G75*
G02*
X206556250Y-121850000I231250J0D01*
G01*
X207093750Y-121850000D01*
G75*
G02*
X207325000Y-122081250I0J-231250D01*
G01*
X207325000Y-122543750D01*
G75*
G02*
X207093750Y-122775000I-231250J0D01*
G01*
G37*
G36*
G01*
X207093750Y-124350000D02*
X206556250Y-124350000D01*
G75*
G02*
X206325000Y-124118750I0J231250D01*
G01*
X206325000Y-123656250D01*
G75*
G02*
X206556250Y-123425000I231250J0D01*
G01*
X207093750Y-123425000D01*
G75*
G02*
X207325000Y-123656250I0J-231250D01*
G01*
X207325000Y-124118750D01*
G75*
G02*
X207093750Y-124350000I-231250J0D01*
G01*
G37*
%TD*%
%TO.C,C34*%
G36*
G01*
X192310000Y-100810000D02*
X191940000Y-100810000D01*
G75*
G02*
X191780000Y-100650000I0J160000D01*
G01*
X191780000Y-100330000D01*
G75*
G02*
X191940000Y-100170000I160000J0D01*
G01*
X192310000Y-100170000D01*
G75*
G02*
X192470000Y-100330000I0J-160000D01*
G01*
X192470000Y-100650000D01*
G75*
G02*
X192310000Y-100810000I-160000J0D01*
G01*
G37*
G36*
G01*
X192310000Y-101780000D02*
X191940000Y-101780000D01*
G75*
G02*
X191780000Y-101620000I0J160000D01*
G01*
X191780000Y-101300000D01*
G75*
G02*
X191940000Y-101140000I160000J0D01*
G01*
X192310000Y-101140000D01*
G75*
G02*
X192470000Y-101300000I0J-160000D01*
G01*
X192470000Y-101620000D01*
G75*
G02*
X192310000Y-101780000I-160000J0D01*
G01*
G37*
%TD*%
%TO.C,C32*%
G36*
G01*
X192410000Y-99290000D02*
X192410000Y-99660000D01*
G75*
G02*
X192250000Y-99820000I-160000J0D01*
G01*
X191930000Y-99820000D01*
G75*
G02*
X191770000Y-99660000I0J160000D01*
G01*
X191770000Y-99290000D01*
G75*
G02*
X191930000Y-99130000I160000J0D01*
G01*
X192250000Y-99130000D01*
G75*
G02*
X192410000Y-99290000I0J-160000D01*
G01*
G37*
G36*
G01*
X193380000Y-99290000D02*
X193380000Y-99660000D01*
G75*
G02*
X193220000Y-99820000I-160000J0D01*
G01*
X192900000Y-99820000D01*
G75*
G02*
X192740000Y-99660000I0J160000D01*
G01*
X192740000Y-99290000D01*
G75*
G02*
X192900000Y-99130000I160000J0D01*
G01*
X193220000Y-99130000D01*
G75*
G02*
X193380000Y-99290000I0J-160000D01*
G01*
G37*
%TD*%
%TO.C,C26*%
G36*
G01*
X186714142Y-122977512D02*
X186452512Y-123239142D01*
G75*
G02*
X186226238Y-123239142I-113137J113137D01*
G01*
X185999964Y-123012868D01*
G75*
G02*
X185999964Y-122786594I113137J113137D01*
G01*
X186261594Y-122524964D01*
G75*
G02*
X186487868Y-122524964I113137J-113137D01*
G01*
X186714142Y-122751238D01*
G75*
G02*
X186714142Y-122977512I-113137J-113137D01*
G01*
G37*
G36*
G01*
X187400036Y-123663406D02*
X187138406Y-123925036D01*
G75*
G02*
X186912132Y-123925036I-113137J113137D01*
G01*
X186685858Y-123698762D01*
G75*
G02*
X186685858Y-123472488I113137J113137D01*
G01*
X186947488Y-123210858D01*
G75*
G02*
X187173762Y-123210858I113137J-113137D01*
G01*
X187400036Y-123437132D01*
G75*
G02*
X187400036Y-123663406I-113137J-113137D01*
G01*
G37*
%TD*%
%TO.C,C25*%
G36*
G01*
X182972488Y-106039142D02*
X182710858Y-105777512D01*
G75*
G02*
X182710858Y-105551238I113137J113137D01*
G01*
X182937132Y-105324964D01*
G75*
G02*
X183163406Y-105324964I113137J-113137D01*
G01*
X183425036Y-105586594D01*
G75*
G02*
X183425036Y-105812868I-113137J-113137D01*
G01*
X183198762Y-106039142D01*
G75*
G02*
X182972488Y-106039142I-113137J113137D01*
G01*
G37*
G36*
G01*
X182286594Y-106725036D02*
X182024964Y-106463406D01*
G75*
G02*
X182024964Y-106237132I113137J113137D01*
G01*
X182251238Y-106010858D01*
G75*
G02*
X182477512Y-106010858I113137J-113137D01*
G01*
X182739142Y-106272488D01*
G75*
G02*
X182739142Y-106498762I-113137J-113137D01*
G01*
X182512868Y-106725036D01*
G75*
G02*
X182286594Y-106725036I-113137J113137D01*
G01*
G37*
%TD*%
%TO.C,C24*%
G36*
G01*
X178314142Y-115052512D02*
X178052512Y-115314142D01*
G75*
G02*
X177826238Y-115314142I-113137J113137D01*
G01*
X177599964Y-115087868D01*
G75*
G02*
X177599964Y-114861594I113137J113137D01*
G01*
X177861594Y-114599964D01*
G75*
G02*
X178087868Y-114599964I113137J-113137D01*
G01*
X178314142Y-114826238D01*
G75*
G02*
X178314142Y-115052512I-113137J-113137D01*
G01*
G37*
G36*
G01*
X179000036Y-115738406D02*
X178738406Y-116000036D01*
G75*
G02*
X178512132Y-116000036I-113137J113137D01*
G01*
X178285858Y-115773762D01*
G75*
G02*
X178285858Y-115547488I113137J113137D01*
G01*
X178547488Y-115285858D01*
G75*
G02*
X178773762Y-115285858I113137J-113137D01*
G01*
X179000036Y-115512132D01*
G75*
G02*
X179000036Y-115738406I-113137J-113137D01*
G01*
G37*
%TD*%
%TO.C,C23*%
G36*
G01*
X188392911Y-105179541D02*
X188654541Y-104917911D01*
G75*
G02*
X188880815Y-104917911I113137J-113137D01*
G01*
X189107089Y-105144185D01*
G75*
G02*
X189107089Y-105370459I-113137J-113137D01*
G01*
X188845459Y-105632089D01*
G75*
G02*
X188619185Y-105632089I-113137J113137D01*
G01*
X188392911Y-105405815D01*
G75*
G02*
X188392911Y-105179541I113137J113137D01*
G01*
G37*
G36*
G01*
X187707017Y-104493647D02*
X187968647Y-104232017D01*
G75*
G02*
X188194921Y-104232017I113137J-113137D01*
G01*
X188421195Y-104458291D01*
G75*
G02*
X188421195Y-104684565I-113137J-113137D01*
G01*
X188159565Y-104946195D01*
G75*
G02*
X187933291Y-104946195I-113137J113137D01*
G01*
X187707017Y-104719921D01*
G75*
G02*
X187707017Y-104493647I113137J113137D01*
G01*
G37*
%TD*%
%TO.C,C22*%
G36*
G01*
X196427512Y-114285858D02*
X196689142Y-114547488D01*
G75*
G02*
X196689142Y-114773762I-113137J-113137D01*
G01*
X196462868Y-115000036D01*
G75*
G02*
X196236594Y-115000036I-113137J113137D01*
G01*
X195974964Y-114738406D01*
G75*
G02*
X195974964Y-114512132I113137J113137D01*
G01*
X196201238Y-114285858D01*
G75*
G02*
X196427512Y-114285858I113137J-113137D01*
G01*
G37*
G36*
G01*
X197113406Y-113599964D02*
X197375036Y-113861594D01*
G75*
G02*
X197375036Y-114087868I-113137J-113137D01*
G01*
X197148762Y-114314142D01*
G75*
G02*
X196922488Y-114314142I-113137J113137D01*
G01*
X196660858Y-114052512D01*
G75*
G02*
X196660858Y-113826238I113137J113137D01*
G01*
X196887132Y-113599964D01*
G75*
G02*
X197113406Y-113599964I113137J-113137D01*
G01*
G37*
%TD*%
%TO.C,C21*%
G36*
G01*
X186672488Y-107014142D02*
X186410858Y-106752512D01*
G75*
G02*
X186410858Y-106526238I113137J113137D01*
G01*
X186637132Y-106299964D01*
G75*
G02*
X186863406Y-106299964I113137J-113137D01*
G01*
X187125036Y-106561594D01*
G75*
G02*
X187125036Y-106787868I-113137J-113137D01*
G01*
X186898762Y-107014142D01*
G75*
G02*
X186672488Y-107014142I-113137J113137D01*
G01*
G37*
G36*
G01*
X185986594Y-107700036D02*
X185724964Y-107438406D01*
G75*
G02*
X185724964Y-107212132I113137J113137D01*
G01*
X185951238Y-106985858D01*
G75*
G02*
X186177512Y-106985858I113137J-113137D01*
G01*
X186439142Y-107247488D01*
G75*
G02*
X186439142Y-107473762I-113137J-113137D01*
G01*
X186212868Y-107700036D01*
G75*
G02*
X185986594Y-107700036I-113137J113137D01*
G01*
G37*
%TD*%
%TO.C,C19*%
G36*
G01*
X184827512Y-108335858D02*
X185089142Y-108597488D01*
G75*
G02*
X185089142Y-108823762I-113137J-113137D01*
G01*
X184862868Y-109050036D01*
G75*
G02*
X184636594Y-109050036I-113137J113137D01*
G01*
X184374964Y-108788406D01*
G75*
G02*
X184374964Y-108562132I113137J113137D01*
G01*
X184601238Y-108335858D01*
G75*
G02*
X184827512Y-108335858I113137J-113137D01*
G01*
G37*
G36*
G01*
X185513406Y-107649964D02*
X185775036Y-107911594D01*
G75*
G02*
X185775036Y-108137868I-113137J-113137D01*
G01*
X185548762Y-108364142D01*
G75*
G02*
X185322488Y-108364142I-113137J113137D01*
G01*
X185060858Y-108102512D01*
G75*
G02*
X185060858Y-107876238I113137J113137D01*
G01*
X185287132Y-107649964D01*
G75*
G02*
X185513406Y-107649964I113137J-113137D01*
G01*
G37*
%TD*%
%TO.C,C11*%
G36*
G01*
X180847488Y-112064142D02*
X180585858Y-111802512D01*
G75*
G02*
X180585858Y-111576238I113137J113137D01*
G01*
X180812132Y-111349964D01*
G75*
G02*
X181038406Y-111349964I113137J-113137D01*
G01*
X181300036Y-111611594D01*
G75*
G02*
X181300036Y-111837868I-113137J-113137D01*
G01*
X181073762Y-112064142D01*
G75*
G02*
X180847488Y-112064142I-113137J113137D01*
G01*
G37*
G36*
G01*
X180161594Y-112750036D02*
X179899964Y-112488406D01*
G75*
G02*
X179899964Y-112262132I113137J113137D01*
G01*
X180126238Y-112035858D01*
G75*
G02*
X180352512Y-112035858I113137J-113137D01*
G01*
X180614142Y-112297488D01*
G75*
G02*
X180614142Y-112523762I-113137J-113137D01*
G01*
X180387868Y-112750036D01*
G75*
G02*
X180161594Y-112750036I-113137J113137D01*
G01*
G37*
%TD*%
%TO.C,C10*%
G36*
G01*
X205131250Y-110197000D02*
X205668750Y-110197000D01*
G75*
G02*
X205900000Y-110428250I0J-231250D01*
G01*
X205900000Y-110890750D01*
G75*
G02*
X205668750Y-111122000I-231250J0D01*
G01*
X205131250Y-111122000D01*
G75*
G02*
X204900000Y-110890750I0J231250D01*
G01*
X204900000Y-110428250D01*
G75*
G02*
X205131250Y-110197000I231250J0D01*
G01*
G37*
G36*
G01*
X205131250Y-108622000D02*
X205668750Y-108622000D01*
G75*
G02*
X205900000Y-108853250I0J-231250D01*
G01*
X205900000Y-109315750D01*
G75*
G02*
X205668750Y-109547000I-231250J0D01*
G01*
X205131250Y-109547000D01*
G75*
G02*
X204900000Y-109315750I0J231250D01*
G01*
X204900000Y-108853250D01*
G75*
G02*
X205131250Y-108622000I231250J0D01*
G01*
G37*
%TD*%
%TO.C,C9*%
G36*
G01*
X182548750Y-94035000D02*
X182011250Y-94035000D01*
G75*
G02*
X181780000Y-93803750I0J231250D01*
G01*
X181780000Y-93341250D01*
G75*
G02*
X182011250Y-93110000I231250J0D01*
G01*
X182548750Y-93110000D01*
G75*
G02*
X182780000Y-93341250I0J-231250D01*
G01*
X182780000Y-93803750D01*
G75*
G02*
X182548750Y-94035000I-231250J0D01*
G01*
G37*
G36*
G01*
X182548750Y-95610000D02*
X182011250Y-95610000D01*
G75*
G02*
X181780000Y-95378750I0J231250D01*
G01*
X181780000Y-94916250D01*
G75*
G02*
X182011250Y-94685000I231250J0D01*
G01*
X182548750Y-94685000D01*
G75*
G02*
X182780000Y-94916250I0J-231250D01*
G01*
X182780000Y-95378750D01*
G75*
G02*
X182548750Y-95610000I-231250J0D01*
G01*
G37*
%TD*%
%TO.C,C8*%
G36*
G01*
X210231250Y-110025000D02*
X210768750Y-110025000D01*
G75*
G02*
X211000000Y-110256250I0J-231250D01*
G01*
X211000000Y-110718750D01*
G75*
G02*
X210768750Y-110950000I-231250J0D01*
G01*
X210231250Y-110950000D01*
G75*
G02*
X210000000Y-110718750I0J231250D01*
G01*
X210000000Y-110256250D01*
G75*
G02*
X210231250Y-110025000I231250J0D01*
G01*
G37*
G36*
G01*
X210231250Y-108450000D02*
X210768750Y-108450000D01*
G75*
G02*
X211000000Y-108681250I0J-231250D01*
G01*
X211000000Y-109143750D01*
G75*
G02*
X210768750Y-109375000I-231250J0D01*
G01*
X210231250Y-109375000D01*
G75*
G02*
X210000000Y-109143750I0J231250D01*
G01*
X210000000Y-108681250D01*
G75*
G02*
X210231250Y-108450000I231250J0D01*
G01*
G37*
%TD*%
%TO.C,C6*%
G36*
G01*
X187575858Y-106087488D02*
X187837488Y-105825858D01*
G75*
G02*
X188063762Y-105825858I113137J-113137D01*
G01*
X188290036Y-106052132D01*
G75*
G02*
X188290036Y-106278406I-113137J-113137D01*
G01*
X188028406Y-106540036D01*
G75*
G02*
X187802132Y-106540036I-113137J113137D01*
G01*
X187575858Y-106313762D01*
G75*
G02*
X187575858Y-106087488I113137J113137D01*
G01*
G37*
G36*
G01*
X186889964Y-105401594D02*
X187151594Y-105139964D01*
G75*
G02*
X187377868Y-105139964I113137J-113137D01*
G01*
X187604142Y-105366238D01*
G75*
G02*
X187604142Y-105592512I-113137J-113137D01*
G01*
X187342512Y-105854142D01*
G75*
G02*
X187116238Y-105854142I-113137J113137D01*
G01*
X186889964Y-105627868D01*
G75*
G02*
X186889964Y-105401594I113137J113137D01*
G01*
G37*
%TD*%
%TO.C,C5*%
G36*
G01*
X184078750Y-94045000D02*
X183541250Y-94045000D01*
G75*
G02*
X183310000Y-93813750I0J231250D01*
G01*
X183310000Y-93351250D01*
G75*
G02*
X183541250Y-93120000I231250J0D01*
G01*
X184078750Y-93120000D01*
G75*
G02*
X184310000Y-93351250I0J-231250D01*
G01*
X184310000Y-93813750D01*
G75*
G02*
X184078750Y-94045000I-231250J0D01*
G01*
G37*
G36*
G01*
X184078750Y-95620000D02*
X183541250Y-95620000D01*
G75*
G02*
X183310000Y-95388750I0J231250D01*
G01*
X183310000Y-94926250D01*
G75*
G02*
X183541250Y-94695000I231250J0D01*
G01*
X184078750Y-94695000D01*
G75*
G02*
X184310000Y-94926250I0J-231250D01*
G01*
X184310000Y-95388750D01*
G75*
G02*
X184078750Y-95620000I-231250J0D01*
G01*
G37*
%TD*%
%TO.C,C2*%
G36*
G01*
X181655000Y-88645000D02*
X181285000Y-88645000D01*
G75*
G02*
X181125000Y-88485000I0J160000D01*
G01*
X181125000Y-88165000D01*
G75*
G02*
X181285000Y-88005000I160000J0D01*
G01*
X181655000Y-88005000D01*
G75*
G02*
X181815000Y-88165000I0J-160000D01*
G01*
X181815000Y-88485000D01*
G75*
G02*
X181655000Y-88645000I-160000J0D01*
G01*
G37*
G36*
G01*
X181655000Y-89615000D02*
X181285000Y-89615000D01*
G75*
G02*
X181125000Y-89455000I0J160000D01*
G01*
X181125000Y-89135000D01*
G75*
G02*
X181285000Y-88975000I160000J0D01*
G01*
X181655000Y-88975000D01*
G75*
G02*
X181815000Y-89135000I0J-160000D01*
G01*
X181815000Y-89455000D01*
G75*
G02*
X181655000Y-89615000I-160000J0D01*
G01*
G37*
%TD*%
M02*
